<svg width="118" height="21" viewBox="0 0 118 21" fill="none" xmlns="http://www.w3.org/2000/svg">
<path d="M14.6953 20.7255H10.5464V18.8115C9.40574 20.243 7.99563 20.9594 6.31613 20.9609C4.63663 20.9624 3.22652 20.4762 2.08581 19.5023C0.949501 18.5299 0.381348 17.2341 0.381348 15.6149C0.381348 13.9957 0.968586 12.7835 2.14306 11.9783C3.31754 11.1731 4.93245 10.7705 6.98778 10.7705H10.291V10.6825C10.291 8.9929 9.39619 8.1481 7.60658 8.1481C6.77883 8.16061 5.9594 8.3154 5.18423 8.6057C4.40744 8.86872 3.67638 9.25096 3.01732 9.7387L1.03538 6.8787C3.1053 5.37111 5.60898 4.5752 8.17033 4.6105C10.095 4.6105 11.6673 5.09157 12.8873 6.0537C14.1073 7.01583 14.7166 8.5375 14.7151 10.6187L14.6953 20.7255ZM10.2426 14.6865V13.9209H7.48106C5.71054 13.9209 4.82601 14.4709 4.82748 15.5709C4.79805 16.0905 5.03749 16.5888 5.4617 16.8909C5.88231 17.1945 6.4879 17.3463 7.27406 17.3463C8.03027 17.3568 8.76612 17.1014 9.35289 16.6247C9.94659 16.1603 10.2808 15.4392 10.2514 14.6865H10.2426Z" fill="white"/>
<path d="M33.3055 12.1871V20.7297H28.8549V12.0661C28.8549 10.8107 28.6633 9.88814 28.2802 9.29854C27.897 8.70894 27.2775 8.4156 26.4216 8.41853C25.5665 8.41846 24.7477 8.76359 24.1511 9.37554C23.492 10.0135 23.1631 10.9507 23.1646 12.1871V20.7297H18.7427V4.88974H23.1646V6.68714C24.3816 5.31287 25.7763 4.62573 27.3487 4.62573C28.3285 4.61826 29.2847 4.92688 30.0749 5.50574C30.8597 6.05767 31.4935 6.79744 31.9181 7.65734C32.5204 6.70161 33.3714 5.92747 34.3801 5.41774C35.3375 4.90676 36.4042 4.63431 37.4895 4.62354C39.357 4.62354 40.861 5.17794 42.0017 6.28674C43.1424 7.39554 43.7128 8.99567 43.7128 11.0871V20.7187H39.2623V12.0661C39.2623 9.63147 38.3675 8.41414 36.5778 8.41414C35.7129 8.40655 34.8824 8.75225 34.2788 9.37114C33.6314 10.0091 33.3069 10.9478 33.3055 12.1871Z" fill="white"/>
<path d="M61.1958 20.7255H57.0382V18.8115C55.9004 20.243 54.4903 20.9594 52.8078 20.9609C51.1254 20.9624 49.7153 20.4762 48.5775 19.5023C47.4368 18.5299 46.8672 17.2341 46.8687 15.6149C46.8701 13.9957 47.4574 12.7835 48.6304 11.9783C49.8049 11.1731 51.4161 10.7705 53.4641 10.7705H56.7673V10.6825C56.7673 8.9929 55.8732 8.1481 54.0851 8.1481C53.2573 8.16065 52.4379 8.31545 51.6627 8.6057C50.8859 8.86872 50.1549 9.25096 49.4958 9.7387L47.5139 6.8787C49.5838 5.37111 52.0875 4.5752 54.6488 4.6105C56.5764 4.6105 58.1488 5.09157 59.3658 6.0537C60.5829 7.01583 61.1921 8.5375 61.1936 10.6187L61.1958 20.7255ZM56.7431 14.6865V13.9209H53.9728C52.2111 13.9209 51.3265 14.4709 51.3192 15.5709C51.2898 16.0905 51.5292 16.5888 51.9534 16.8909C52.3762 17.1945 52.9803 17.3463 53.7658 17.3463C54.5221 17.3572 55.258 17.1017 55.8446 16.6247C56.4383 16.1603 56.7726 15.4392 56.7431 14.6865Z" fill="white"/>
<path d="M70.3348 8.0599V15.1593C70.3045 15.6781 70.4739 16.1889 70.8082 16.5871C71.0873 16.9146 71.4964 17.1029 71.9269 17.1019C72.7535 17.1019 73.4516 16.7286 74.0212 15.9821L75.6706 19.0753C74.2964 20.3308 72.8474 20.9592 71.3235 20.9607C69.8869 20.9946 68.4963 20.4536 67.461 19.4581C66.4084 18.4578 65.8828 17.0931 65.8842 15.3639V8.0599H64.0234V4.8787H65.882V0.137695H70.3326V4.8787H74.1665V8.0599H70.3348Z" fill="white"/>
<path d="M88.2601 13.4215V4.87891H92.7106V20.7189H88.2601V18.6333C87.159 20.1865 85.7386 20.9624 83.9989 20.9609C82.2593 20.9594 80.8 20.4146 79.6211 19.3263C78.4466 18.2366 77.8594 16.6232 77.8594 14.4863V4.87891H82.3011V13.5073C82.3011 15.9434 83.1959 17.1608 84.9855 17.1593C85.8504 17.1669 86.6809 16.8212 87.2845 16.2023C87.9334 15.5658 88.2586 14.6388 88.2601 13.4215Z" fill="white"/>
<path d="M108.839 15.7929C108.839 17.3535 108.264 18.6045 107.113 19.5461C105.962 20.4877 104.503 20.9593 102.735 20.9607C101.481 20.948 100.237 20.7341 99.0509 20.3271C97.7964 19.9185 96.627 19.2848 95.6001 18.4571L97.5468 15.6895C99.1984 16.9655 100.96 17.6035 102.832 17.6035C103.308 17.6287 103.78 17.5107 104.188 17.2647C104.503 17.0744 104.694 16.7324 104.691 16.3649C104.691 15.9939 104.459 15.6507 103.997 15.3353C103.374 14.9495 102.699 14.6533 101.993 14.4553C101.112 14.1811 100.443 13.9457 99.9868 13.7491C99.4397 13.5062 98.9125 13.2208 98.41 12.8955C97.2121 12.1505 96.6123 11.0461 96.6109 9.58235C96.5825 8.17443 97.2392 6.84016 98.3726 6.00295C99.5471 5.08188 101.07 4.62061 102.942 4.61914C104.814 4.61768 106.681 5.24615 108.544 6.50455L106.893 9.44815C105.517 8.50655 104.146 8.03575 102.779 8.03575C101.412 8.03575 100.73 8.40901 100.731 9.15555C100.738 9.57788 100.991 9.95736 101.379 10.1257C102.071 10.4636 102.791 10.7397 103.532 10.9507C104.535 11.2646 105.247 11.5051 105.668 11.6723C106.195 11.8919 106.703 12.1531 107.188 12.4533C108.287 13.1177 108.838 14.2309 108.839 15.7929Z" fill="white"/>
<path d="M112.537 20.2103C111.632 19.3285 111.479 17.9301 112.171 16.8738C112.864 15.8175 114.208 15.3991 115.379 15.8756C116.549 16.352 117.218 17.5898 116.975 18.829C116.732 20.0681 115.644 20.9614 114.38 20.9605C113.688 20.9745 113.021 20.7031 112.537 20.2103Z" fill="white"/>
</svg>
