<svg width="32" height="32" viewBox="0 0 32 32" fill="none" xmlns="http://www.w3.org/2000/svg">
<path d="M27.0288 21.0878C26.214 23.1044 24.9183 24.891 23.2547 26.292C21.591 27.6929 19.6098 28.6656 17.484 29.1252C15.3582 29.5849 13.1522 29.5175 11.0583 28.9289C8.96451 28.3404 7.04646 27.2486 5.47141 25.7487C3.89637 24.2488 2.71215 22.3863 2.02202 20.3238C1.3319 18.2612 1.15682 16.0611 1.51205 13.9154C1.86727 11.7696 2.74203 9.74331 4.06003 8.01319C5.37803 6.28306 7.09927 4.90163 9.07365 3.98934" stroke="#3B3E41" stroke-width="2.5" stroke-linecap="round"/>
<path d="M21.1028 2.44133C19.9481 1.96304 18.7342 1.65044 17.4972 1.51068C16.674 1.41768 16.0003 2.09796 16.0003 2.92639L16.0003 13.2597C16.0003 14.0882 16.6719 14.7597 17.5003 14.7597L27.8337 14.7597C28.6621 14.7597 29.3424 14.0861 29.2494 13.2629C29.1096 12.0258 28.797 10.812 28.3187 9.65728C27.6487 8.03961 26.6665 6.56975 25.4284 5.33164C24.1903 4.09352 22.7204 3.11139 21.1028 2.44133Z" stroke="#3B3E41" stroke-width="2.5" stroke-linecap="round"/>
</svg>
