<svg width="474" height="475" viewBox="0 0 474 475" fill="none" xmlns="http://www.w3.org/2000/svg">
<path d="M447.898 416.852H341.507C340.731 416.852 340.102 417.48 340.102 418.255V418.485C340.102 419.26 340.731 419.889 341.507 419.889H447.898C448.674 419.889 449.303 419.26 449.303 418.485V418.255C449.303 417.48 448.674 416.852 447.898 416.852Z" fill="#6983C1"/>
<path d="M464.543 416.852H452.276C451.5 416.852 450.871 417.48 450.871 418.255V418.485C450.871 419.26 451.5 419.889 452.276 419.889H464.543C465.319 419.889 465.948 419.26 465.948 418.485V418.255C465.948 417.48 465.319 416.852 464.543 416.852Z" fill="#6983C1"/>
<path d="M178.575 423.493H284.967C285.743 423.493 286.372 422.864 286.372 422.089V421.859C286.372 421.084 285.743 420.456 284.967 420.456H178.575C177.799 420.456 177.17 421.084 177.17 421.859V422.089C177.17 422.864 177.799 423.493 178.575 423.493Z" fill="#6983C1"/>
<path d="M161.918 423.493H174.185C174.961 423.493 175.59 422.864 175.59 422.089V421.859C175.59 421.084 174.961 420.456 174.185 420.456H161.918C161.142 420.456 160.513 421.084 160.513 421.859V422.089C160.513 422.864 161.142 423.493 161.918 423.493Z" fill="#6983C1"/>
<path d="M388.873 85.0359H212.999C167.889 88.0325 168.078 137.677 168.078 137.677V374.982H344.182V137.677C344.182 137.677 345.019 87.9245 388.873 85.0359Z" fill="url(#paint0_linear)"/>
<path d="M462.273 238.533H354.76V178.764H462.273V238.533ZM356.894 236.413H460.152V180.87H356.881L356.894 236.413Z" fill="url(#paint1_linear)"/>
<path d="M381.835 81.864C337.981 84.6985 337.144 134.505 337.144 134.505V371.756H161.054V134.519C161.054 134.519 160.851 84.8605 205.961 81.8775L381.835 81.864Z" fill="url(#paint2_linear)"/>
<path d="M305.138 143.846H184.183V154.509H305.138V143.846Z" fill="#ACC1E4"/>
<path d="M287.467 168.506H184.183V176.065H287.467V168.506Z" fill="#ACC1E4"/>
<path d="M236.102 188.442H184.183V199.659H236.102V188.442Z" fill="#ACC1E4"/>
<path d="M305.138 188.442H251.436V199.659H305.138V188.442Z" fill="#ACC1E4"/>
<path d="M266.891 210.039H184.183V218.029H266.891V210.039Z" fill="#ACC1E4"/>
<path d="M277.375 230.029H184.183V234.47H277.375V230.029Z" fill="#ACC1E4"/>
<path d="M296.248 250.033H184.183V254.473H296.248V250.033Z" fill="#ACC1E4"/>
<path d="M236.493 294.859H183.736V269.618H236.426L236.493 294.859ZM184.574 294.062H235.696V270.414H184.574V294.062Z" fill="url(#paint3_linear)"/>
<path d="M296.234 270.023H249.098V275.8H296.234V270.023Z" fill="#ACC1E4"/>
<path d="M282.508 282.238H249.098V288.015H282.508V282.238Z" fill="#ACC1E4"/>
<path d="M284.954 310.003H184.183V314.444H284.954V310.003Z" fill="#ACC1E4"/>
<path d="M237.264 329.993H184.183V334.434H237.264V329.993Z" fill="#ACC1E4"/>
<path d="M382.51 215.6L377.309 207.11C377.208 206.944 377.141 206.76 377.112 206.569C377.082 206.377 377.091 206.182 377.138 205.994C377.184 205.806 377.267 205.628 377.382 205.473C377.498 205.317 377.642 205.185 377.809 205.085C377.973 204.982 378.156 204.913 378.348 204.882C378.539 204.85 378.735 204.858 378.924 204.903C379.113 204.948 379.29 205.03 379.447 205.145C379.603 205.26 379.735 205.405 379.835 205.571L383.51 211.578L393.278 205.8C393.613 205.641 393.997 205.612 394.353 205.721C394.708 205.83 395.01 206.068 395.199 206.389C395.387 206.709 395.448 207.089 395.37 207.452C395.292 207.816 395.081 208.136 394.777 208.352L382.51 215.6Z" fill="url(#paint4_linear)"/>
<path d="M385.996 228.706C382.3 228.709 378.686 227.616 375.612 225.567C372.537 223.517 370.14 220.603 368.724 217.192C367.308 213.781 366.936 210.027 367.655 206.405C368.375 202.783 370.153 199.456 372.766 196.844C375.378 194.232 378.707 192.452 382.332 191.731C385.957 191.01 389.714 191.379 393.129 192.791C396.544 194.204 399.463 196.596 401.517 199.666C403.57 202.736 404.667 206.346 404.667 210.039C404.663 214.986 402.695 219.73 399.195 223.23C395.695 226.73 390.948 228.699 385.996 228.706ZM385.996 194.044C382.829 194.044 379.734 194.982 377.101 196.74C374.469 198.497 372.417 200.995 371.205 203.918C369.993 206.84 369.676 210.057 370.294 213.159C370.912 216.262 372.436 219.112 374.675 221.349C376.914 223.586 379.767 225.109 382.872 225.726C385.978 226.343 389.197 226.027 392.122 224.816C395.048 223.605 397.548 221.555 399.307 218.925C401.066 216.295 402.005 213.202 402.005 210.039C402.002 205.798 400.314 201.732 397.312 198.733C394.311 195.734 390.241 194.048 385.996 194.044Z" fill="url(#paint5_linear)"/>
<path d="M442.548 199.106H412.407V205.099H442.548V199.106Z" fill="url(#paint6_linear)"/>
<path d="M446.236 212.212H412.407V218.205H446.236V212.212Z" fill="url(#paint7_linear)"/>
<path d="M382.902 278.189H350.262V276.07H380.781V239.815H382.902V278.189Z" fill="#2E2D77"/>
<path d="M226.591 78.3141H224.47V67.7048H295.181V60.3215H297.302V69.824H226.591V78.3141Z" fill="#2E2D77"/>
<path d="M147.543 202.939H110.404V122.965H112.539V200.82H147.543V202.939Z" fill="#2E2D77"/>
<path d="M377.795 412.073C376.397 413.53 374.662 414.619 372.742 415.245C370.202 415.799 368.419 416.501 368.405 418.012C368.392 419.524 375.728 420.51 378.632 418.998C382.983 416.717 383.428 417.405 383.901 416.298C384.374 415.191 383.334 412.127 383.361 411.763C383.388 411.399 377.795 412.073 377.795 412.073Z" fill="#1F2338"/>
<path d="M378.079 410.805C377.962 411.222 377.867 411.646 377.795 412.073C377.795 412.073 383.537 412.735 383.361 411.736C383.185 410.737 383.023 410.062 383.023 410.062L378.079 410.805Z" fill="#316C8D"/>
<path d="M406.112 412.748C405.031 414.215 403.527 415.317 401.802 415.907C399.37 416.487 397.749 417.594 397.668 419.065C397.587 420.537 403.41 422.453 407.517 419.875C410.219 418.174 411.232 418.282 411.772 417.176C412.313 416.069 411.489 413.126 411.543 412.735C411.597 412.343 406.112 412.748 406.112 412.748Z" fill="#1F2338"/>
<path d="M406.18 411.493C406.152 411.911 406.152 412.33 406.18 412.748C406.18 412.748 411.584 413.734 411.584 412.748C411.536 412.156 411.418 411.572 411.233 411.007L406.18 411.493Z" fill="#316C8D"/>
<path d="M383.807 336.823C383.807 336.823 381.186 355.936 380.105 362.388C378.849 369.947 378.417 376.183 378.065 380.097C377.633 385.01 377.876 410.17 377.565 411.601C377.255 413.032 383.794 412.289 383.794 412.289C383.794 412.289 388.59 379.49 389.9 374.266C391.116 369.38 394.48 349.282 395.601 350.618C396.723 351.954 400.33 374.847 401.154 378.693C401.978 382.54 405.302 412.802 405.302 412.802C405.302 412.802 410.854 414.004 412.367 412.802C412.367 412.802 412.03 385.807 411.503 378.599C411.314 375.899 413.245 345.718 408.598 333.557C406.153 327.145 383.807 336.823 383.807 336.823Z" fill="url(#paint8_linear)"/>
<path d="M383.591 337.741L383.294 340.616C383.294 340.616 391.305 343.856 410.827 343.856V340.576L383.591 337.741Z" fill="url(#paint9_linear)"/>
<path d="M361.096 301.635C361.096 301.635 359.921 304.213 359.232 304.334C358.543 304.456 357.719 305.36 357.124 305.616C356.53 305.873 354.665 306.035 354.152 306.521C353.726 307.315 353.243 308.078 352.706 308.802C352.247 309.166 351.234 309.787 351.545 310.152C351.855 310.516 352.896 310.233 352.896 310.233C352.785 310.327 352.704 310.451 352.663 310.59C352.623 310.729 352.623 310.877 352.666 311.016C353.004 311.852 353.558 311.879 353.558 311.879C353.558 311.879 353.382 312.514 353.558 312.824C353.672 313.008 353.824 313.165 354.003 313.286C354.182 313.407 354.385 313.489 354.598 313.526C354.644 313.858 354.813 314.162 355.071 314.377C355.242 314.517 355.447 314.609 355.665 314.645C355.883 314.68 356.107 314.658 356.314 314.579C356.314 314.579 356.881 315.348 357.381 315.2C357.81 315.012 358.207 314.757 358.556 314.444C360.24 312.757 361.556 310.739 362.42 308.519C363.054 306.751 363.922 305.076 365.001 303.538L361.096 301.635Z" fill="url(#paint10_linear)"/>
<path d="M361.623 314.674C361.623 314.674 370.702 318.79 373.917 318.007C375.417 317.63 377.376 315.578 379.24 313.162C379.862 312.365 380.456 311.529 381.037 310.705C383.32 307.398 385.09 304.226 385.09 304.226C385.09 304.226 391.845 296.303 386.441 292.78C385.762 292.589 385.042 292.601 384.369 292.814C383.697 293.028 383.102 293.434 382.658 293.981C380.923 296.138 379.454 298.494 378.281 301C377.808 302.04 371.161 311.61 370.81 311.798C370.459 311.987 367.567 311.259 365.23 311.056C361.434 310.746 362.19 310.584 362.19 310.584L361.623 314.674Z" fill="url(#paint11_linear)"/>
<path d="M391.534 291.012C391.534 291.012 384.576 292.443 383.739 293.185C382.901 293.927 381.266 301.581 381.172 303.7C381.329 308.506 381.907 313.289 382.901 317.994C383.806 321.301 381.726 335.366 383.388 337.687C383.388 337.687 397.749 342.276 411.543 340.495C411.543 340.495 408.57 327.226 409.124 322.691C409.84 316.901 411.543 303.538 411.543 303.538C411.543 303.538 409.692 294.548 408.462 293.509C407.233 292.47 398.708 290.809 398.708 290.809L391.534 291.012Z" fill="url(#paint12_linear)"/>
<path d="M422.145 333.411L416.093 343.446C415.069 345.145 415.616 347.351 417.316 348.375L432.487 357.507C434.187 358.53 436.396 357.983 437.42 356.285L443.472 346.25C444.496 344.551 443.948 342.345 442.248 341.321L427.078 332.189C425.378 331.165 423.169 331.713 422.145 333.411Z" fill="#282466"/>
<path d="M424.169 353.279L434.635 335.925L331.113 273.607L320.647 290.961L424.169 353.279Z" fill="#EA4748"/>
<path d="M331.098 273.622L327.612 279.402L431.134 341.72L434.62 335.939L331.098 273.622Z" fill="url(#paint13_linear)"/>
<path d="M427.65 347.486L431.136 341.706L327.614 279.388L324.128 285.169L427.65 347.486Z" fill="url(#paint14_linear)"/>
<path d="M424.171 353.279L427.657 347.498L324.135 285.18L320.649 290.961L424.171 353.279Z" fill="url(#paint15_linear)"/>
<path d="M320.647 290.958L331.104 273.613L307.61 268.876L301.571 267.661L305.476 272.425L320.647 290.958Z" fill="#EDDAD3"/>
<path d="M431.831 334.25L428.345 340.03L434.709 343.862L438.195 338.081L431.831 334.25Z" fill="#282466"/>
<path d="M431.214 349.637L434.7 343.856L428.336 340.025L424.849 345.805L431.214 349.637Z" fill="#282466"/>
<path d="M427.722 355.402L431.208 349.621L424.843 345.79L421.357 351.571L427.722 355.402Z" fill="#282466"/>
<path d="M331.104 273.613L327.619 279.404L331.104 273.627L301.571 267.674L320.634 290.971C321.014 291.201 321.435 291.354 321.874 291.42C322.312 291.487 322.76 291.467 323.191 291.361C323.622 291.255 324.027 291.066 324.385 290.803C324.743 290.541 325.045 290.21 325.275 289.831C325.504 289.452 325.657 289.031 325.724 288.592C325.791 288.154 325.771 287.707 325.665 287.276C325.559 286.846 325.369 286.44 325.106 286.083C324.843 285.726 324.513 285.424 324.133 285.194C324.902 285.656 325.822 285.794 326.693 285.578C327.563 285.361 328.312 284.808 328.774 284.04C329.236 283.272 329.374 282.353 329.157 281.483C328.941 280.614 328.387 279.866 327.619 279.404C328.384 279.832 329.286 279.946 330.134 279.722C330.982 279.498 331.709 278.953 332.162 278.202C332.615 277.452 332.758 276.554 332.56 275.7C332.363 274.847 331.841 274.103 331.104 273.627V273.613Z" fill="url(#paint16_linear)"/>
<path d="M305.476 272.425L307.61 268.876L301.571 267.661L305.476 272.425Z" fill="url(#paint17_linear)"/>
<path d="M392.777 337.917C393.093 337.894 393.403 337.822 393.696 337.701C393.696 337.701 394.155 337.363 394.507 337.147L394.777 336.999C395.326 336.812 395.841 336.539 396.303 336.189C397.22 335.154 398.077 334.068 398.87 332.936L397.681 331.451L396.776 329.885C395.009 330.126 393.261 330.496 391.548 330.992L391.386 331.114C391.048 331.443 390.749 331.81 390.494 332.207C390.413 332.288 389.643 333.192 389.697 333.557C389.717 333.753 389.788 333.94 389.901 334.101C390.015 334.261 390.168 334.39 390.346 334.475C390.449 334.984 390.698 335.453 391.062 335.824C391.113 336.082 391.224 336.323 391.386 336.529C391.548 336.736 391.756 336.901 391.994 337.012C391.994 337.012 392.25 337.836 392.777 337.917Z" fill="url(#paint18_linear)"/>
<path d="M404.626 293.306C403.721 293.671 402.748 295.871 403.464 300.204C403.86 302.962 404.861 305.598 406.396 307.925C407.017 309.004 410.449 315.699 409.8 316.577C409.152 317.454 403.423 323.137 403.045 323.609C402.667 324.081 396.29 329.885 396.29 329.885L399.573 334.461C399.573 334.461 413.461 323.663 414.542 322.529C415.623 321.395 418.879 319.182 417.677 315.402C416.474 311.623 414.272 302.552 413.88 301.905C413.488 301.257 410.705 290.971 404.626 293.306Z" fill="url(#paint19_linear)"/>
<path d="M353.057 309.949C353.057 309.949 355.287 307.466 356.394 307.52C357.502 307.574 356.759 308.505 356.759 308.505C356.759 308.505 357.489 307.56 358.286 308.06C359.083 308.559 358.124 309.598 358.124 309.598C358.225 309.519 358.341 309.462 358.466 309.429C358.59 309.397 358.72 309.391 358.847 309.411C358.973 309.432 359.095 309.478 359.203 309.547C359.311 309.617 359.404 309.707 359.475 309.814C360.056 310.597 359.083 311.299 359.083 311.299C359.083 311.299 360.556 311.083 360.245 312.284C360.018 312.938 359.662 313.538 359.198 314.051C358.734 314.563 358.171 314.977 357.543 315.267C357.543 315.267 356.921 315.524 356.408 314.727C356.221 314.789 356.024 314.808 355.829 314.785C355.634 314.762 355.446 314.697 355.279 314.594C355.112 314.492 354.969 314.354 354.861 314.19C354.753 314.027 354.681 313.842 354.652 313.648C354.652 313.648 352.99 313.27 353.49 311.987C353.279 311.934 353.088 311.823 352.938 311.667C352.787 311.51 352.684 311.315 352.639 311.103C352.594 310.891 352.609 310.67 352.683 310.466C352.757 310.262 352.887 310.083 353.057 309.949Z" fill="url(#paint20_linear)"/>
<path d="M388.387 291.714C388.387 291.714 387.968 289.811 393.926 289.365C399.884 288.92 403.937 290.27 404.045 291.984C404.153 293.698 388.928 297.963 388.928 297.963L388.387 291.714Z" fill="url(#paint21_linear)"/>
<path d="M394.412 269.496C394.412 269.496 386.036 266.392 386.563 277.514C387.09 288.636 389.049 289.77 394.561 288.218C400.073 286.666 400.532 279.647 401.248 276.272C401.964 272.898 397.195 269.955 394.412 269.496Z" fill="url(#paint22_linear)"/>
<path d="M390.156 292.767C390.156 292.767 392.169 293.657 398.708 290.782C398.641 287.856 399.009 284.935 399.802 282.117C401.086 277.933 391.021 287.691 391.021 287.691C391.021 287.691 391.156 288.191 391.088 288.771C391.034 289.356 390.925 289.934 390.764 290.499C390.44 291.903 390.44 291.646 390.156 292.767Z" fill="url(#paint23_linear)"/>
<path d="M400.087 281.779C400.087 281.779 400.087 278.81 398.871 278.54C397.655 278.27 397.006 279.984 397.006 279.984H396.007C396.007 279.984 396.898 276.974 395.709 276.286C394.521 275.597 387.482 276.191 386.59 275.179C385.698 274.167 386.995 268.147 388.914 267.553C390.832 266.959 396.101 265.771 399.438 268.741C399.438 268.741 402.316 269.969 402.424 272.345C402.269 275.612 401.475 278.817 400.087 281.779Z" fill="#173342"/>
<path d="M390.765 290.499C397.263 289.406 398.236 285.721 398.249 285.653C395.723 288.906 391.089 288.771 391.089 288.771C391.034 289.356 390.926 289.934 390.765 290.499Z" fill="url(#paint24_linear)"/>
<path d="M397.479 277.271C397.844 276.299 399.938 276.421 399.722 277.973C399.506 279.525 397.776 281.928 397.087 281.469C396.398 281.01 396.966 278.634 397.479 277.271Z" fill="url(#paint25_linear)"/>
<path d="M322.228 341.777H288.979V308.546H322.228V341.777ZM292.168 338.592H319.039V311.798H292.168V338.592Z" fill="url(#paint26_linear)"/>
<path d="M306.124 332.194L294.411 321.166L298.059 317.292L306.368 325.121L324.566 310.179L327.943 314.282L306.124 332.194Z" fill="url(#paint27_linear)"/>
<path opacity="0.1" d="M295.546 246.456C289.012 235.229 280.113 225.555 269.465 218.107C258.817 210.658 246.675 205.612 233.881 203.319C221.087 201.026 207.946 201.54 195.371 204.826C182.795 208.112 171.085 214.091 161.053 222.349V242.879C170.837 231.417 183.856 223.171 198.406 219.22C212.956 215.269 228.361 215.797 242.606 220.735C256.852 225.672 269.274 234.79 278.249 246.895C287.224 259 292.334 273.529 292.911 288.582C292.911 289.5 292.911 290.418 292.911 291.282C292.924 306.596 288.233 321.545 279.473 334.111C270.712 346.678 258.304 356.256 243.922 361.554C229.54 366.852 213.878 367.614 199.05 363.737C184.221 359.86 170.94 351.531 160.999 339.874V360.431C166.386 364.866 172.281 368.645 178.562 371.688H257.596C259.451 370.788 261.28 369.812 263.081 368.759C283.61 356.833 298.56 337.253 304.648 314.32C310.735 291.387 307.461 266.978 295.546 246.456Z" fill="url(#paint28_linear)"/>
<path d="M21.0631 458.122L132.295 365.498L116.535 346.607L5.30331 439.23L21.0631 458.122Z" fill="url(#paint29_linear)"/>
<path d="M130.389 363.237L136.336 358.286L124.373 343.946L118.427 348.898L130.389 363.237Z" fill="url(#paint30_linear)"/>
<path d="M117.389 336.378C126.294 351.69 139.544 364.019 155.464 371.807C171.383 379.594 189.257 382.49 206.824 380.128C224.391 377.766 240.862 370.251 254.154 358.536C267.446 346.82 276.962 331.429 281.498 314.309C286.034 297.19 285.387 279.111 279.638 262.359C273.889 245.607 263.296 230.935 249.2 220.198C235.104 209.461 218.137 203.142 200.446 202.04C182.755 200.938 165.135 205.103 149.813 214.007C129.272 225.94 114.317 245.536 108.237 268.484C102.156 291.433 105.448 315.854 117.389 336.378ZM130.115 328.995C124.411 319.167 121.022 308.17 120.205 296.839C119.388 285.508 121.164 274.14 125.399 263.597C129.634 253.053 136.217 243.612 144.648 235.989C153.078 228.366 163.136 222.761 174.058 219.6C184.98 216.438 196.479 215.803 207.683 217.743C218.887 219.683 229.501 224.146 238.722 230.794C247.942 237.443 255.526 246.101 260.898 256.114C266.271 266.127 269.29 277.23 269.728 288.582C270.359 305.269 265.386 321.687 255.6 335.223C245.814 348.76 231.778 358.638 215.725 363.285C199.671 367.932 182.524 367.08 167.01 360.867C151.497 354.653 138.51 343.434 130.115 328.995Z" fill="url(#paint31_linear)"/>
<path opacity="0.1" d="M123.481 268.849C123.481 268.849 201.475 209.674 269.728 288.582C269.052 270.977 262.18 254.175 250.323 241.134C238.466 228.093 222.383 219.65 204.908 217.292C187.432 214.934 169.684 218.812 154.789 228.243C139.894 237.674 128.808 252.053 123.481 268.849Z" fill="url(#paint32_linear)"/>
<path d="M223.2 168.547C223.763 166.784 224.179 164.979 224.443 163.148C224.267 162.635 220.89 159.368 220.93 158.977C220.971 158.585 225.429 155.818 225.888 155.035C226.348 154.253 227.239 156.547 227.347 158.545C227.455 160.542 227.82 163.701 227.82 164.133C227.82 164.565 226.766 169.991 226.766 169.991L223.2 168.547Z" fill="url(#paint33_linear)"/>
<path d="M210.216 176.038C210.216 176.038 210.297 176.537 210.432 177.293C210.513 177.752 210.608 178.319 210.702 178.926C211.013 180.789 211.391 182.976 211.54 183.772C211.929 185.956 212.692 188.056 213.796 189.981C214.417 190.57 215.225 190.923 216.079 190.98C216.795 190.98 218.66 191.763 220.835 188.28C223.01 184.798 226.482 172.717 226.671 172.083C226.86 171.449 227.374 169.586 227.374 169.586L222.915 168.007C222.915 168.007 219.7 176.753 219.241 177.968C218.889 178.872 216.876 182.544 216.768 182.665C216.66 182.787 216.417 172.636 216.417 172.636L210.216 176.038Z" fill="url(#paint34_linear)"/>
<path d="M229.995 241.867C229.995 241.867 233.305 247.468 234.696 248.386C236.588 249.628 235.399 250.897 234.507 250.897C233.615 250.897 229.008 251.22 227.982 250.073C226.955 248.926 226.469 245.47 225.523 244.58C224.577 243.689 223.604 240.098 225.982 239.18C228.09 238.452 229.995 241.867 229.995 241.867Z" fill="#323757"/>
<path d="M228.549 239.396C228.549 239.396 232.346 245.97 232.994 246.942C233.642 247.914 231.765 247.9 230.603 247.441C229.441 246.982 226.55 242.271 226.077 241.421C225.787 240.722 225.753 239.943 225.982 239.221L228.549 239.396Z" fill="url(#paint35_linear)"/>
<path d="M224.713 242.933L225.591 249.668L226.05 249.682L225.915 244.85L224.713 242.933Z" fill="#323757"/>
<path d="M197.166 241.867C197.166 241.867 200.476 247.468 201.867 248.386C203.772 249.628 202.583 250.897 201.678 250.897C200.773 250.897 196.18 251.22 195.166 250.073C194.153 248.926 193.64 245.47 192.694 244.58C191.748 243.689 190.748 240.004 193.153 239.18C195.274 238.546 197.166 241.867 197.166 241.867Z" fill="#323757"/>
<path d="M195.895 239.41C195.895 239.41 199.489 245.97 200.151 246.942C200.813 247.914 198.908 247.9 197.746 247.441C196.584 246.982 193.693 242.271 193.22 241.421C192.93 240.722 192.897 239.943 193.126 239.221L195.895 239.41Z" fill="url(#paint36_linear)"/>
<path d="M191.884 242.933L192.762 249.668L193.221 249.682L193.086 244.85L191.884 242.933Z" fill="#323757"/>
<path d="M182.48 190.845L212.432 204.478C212.979 204.678 213.49 204.965 213.945 205.328C214.284 205.579 214.593 205.869 214.864 206.192C215.624 207.053 216.096 208.128 216.215 209.269C217.39 220.851 226.05 239.221 226.05 239.221C228.833 240.571 228.617 239.396 228.617 239.396C226.874 233.781 224.74 210.606 223.97 201.292C223.808 199.322 223.713 197.972 223.686 197.54C223.659 197.108 223.362 196.865 222.808 196.42C218.687 193.086 201.773 186.188 201.773 186.188C189.006 185.864 182.48 190.845 182.48 190.845Z" fill="url(#paint37_linear)"/>
<path d="M180.278 195.529C181.197 203.627 189.317 203.857 189.317 203.857H203.327C201.165 208.72 199.455 213.771 198.22 218.947C196.72 226.263 193.153 239.194 193.153 239.194C193.153 239.194 193.397 239.639 195.923 239.383C195.923 239.383 206.92 217.49 211.135 211.982C213.07 208.409 214.402 204.542 215.08 200.536C215.229 199.187 215.08 198.255 214.661 197.837C213.67 197.074 212.637 196.367 211.568 195.718C207.177 192.951 199.557 188.699 195.356 187.74C191.239 186.745 187.179 185.523 183.197 184.083C183.197 184.083 179.346 187.43 180.278 195.529Z" fill="url(#paint38_linear)"/>
<path d="M201.868 203.816H189.317C189.317 203.816 180.184 204.059 179.117 195.988C178.875 193.956 179.048 191.896 179.626 189.933C180.205 187.971 181.176 186.145 182.481 184.568C182.481 184.568 186.736 185.702 192.073 186.985C195.24 186.329 198.473 186.048 201.705 186.148C201.705 186.148 217.634 189.347 223.524 197.202C223.524 197.243 214.175 192.532 201.868 203.816Z" fill="url(#paint39_linear)"/>
<path d="M215.418 150.797C215.418 151.715 215.418 152.619 215.337 153.497C215.323 153.771 215.323 154.046 215.337 154.32C215.449 155.898 216.012 157.411 216.958 158.68C217.555 159.555 218.405 160.229 219.394 160.613C220.383 160.996 221.465 161.07 222.497 160.826C226.685 159.827 229.468 146.262 229.468 146.262C228.32 140.944 221.227 140.633 218.39 142.536C216.161 144.035 215.593 147.396 215.418 150.797Z" fill="url(#paint40_linear)"/>
<path d="M181.791 185C181.791 185 181.926 186.553 193.788 188.415L194.72 188.577L197.544 189.063C203.164 190.103 202.029 190.076 204.366 186.148C204.691 185.608 206.852 180.546 207.663 180.06C208.82 179.215 209.825 178.179 210.635 176.996C211.27 175.997 213.661 176.645 215.89 174.688C218.12 172.731 217.241 169.923 217.336 167.656C217.347 164.758 216.891 161.878 215.985 159.125C209.743 147.423 200.624 156.709 198.962 158.383C197.301 160.057 191.653 173.919 190.113 175.673C184.709 181.896 181.791 185 181.791 185Z" fill="url(#paint41_linear)"/>
<path d="M209.689 153.875C209.689 153.875 210.622 165.267 213.351 166.562C216.08 167.858 215.161 156.682 215.161 156.682C215.161 156.682 212.864 152.012 209.689 153.875Z" fill="url(#paint42_linear)"/>
<path d="M226.239 147.126C226.239 147.126 227.685 151.823 227.428 153.686C228.492 152.23 229.259 150.579 229.684 148.826C230.049 146.532 231.157 142.793 227.698 139.945C224.24 137.097 226.239 147.126 226.239 147.126Z" fill="#173342"/>
<path d="M212.107 157.276C212.107 160.097 215.107 161.676 215.336 160.34C215.501 160.044 215.716 159.779 215.971 159.557L216.16 159.274C216.393 159.033 216.656 158.824 216.944 158.653C217.796 158.148 218.703 157.74 219.646 157.438L216.62 149.164C216.62 149.164 216.052 149.812 215.269 150.77C214.053 152.592 212.107 155.454 212.107 157.276Z" fill="url(#paint43_linear)"/>
<path d="M215.971 159.557L216.16 159.274C216.393 159.033 216.656 158.824 216.944 158.653C216.048 157.357 215.491 155.859 215.323 154.293C215.323 154.293 214.715 156.088 215.971 159.557Z" fill="url(#paint44_linear)"/>
<path d="M205.353 210.093C205.18 209.893 205.043 209.665 204.947 209.418C204.947 209.418 204.866 208.945 204.785 208.608C204.774 208.52 204.752 208.434 204.718 208.352C204.518 207.924 204.381 207.469 204.312 207.002C204.386 205.843 204.526 204.689 204.731 203.546L206.326 203.371L207.798 203.006C208.696 204.201 209.504 205.459 210.216 206.772C210.223 206.831 210.223 206.89 210.216 206.948C210.215 207.342 210.175 207.736 210.095 208.122C210.095 208.217 210 209.202 209.757 209.377C209.63 209.479 209.478 209.546 209.317 209.572C209.156 209.598 208.991 209.582 208.838 209.526C208.475 209.758 208.054 209.884 207.622 209.89C207.436 210.01 207.225 210.085 207.005 210.111C206.785 210.137 206.562 210.112 206.353 210.039C206.353 210.039 205.65 210.363 205.353 210.093Z" fill="url(#paint45_linear)"/>
<path d="M204.88 162.729C204.88 162.729 206.447 156.844 202.367 156.939C198.287 157.033 197.989 162.122 197.881 163.134C197.773 164.146 196.355 176.051 196.53 178.306C196.706 180.56 196.247 183.624 196.719 186.62C197.084 188.847 204.366 204.437 204.474 204.505C204.582 204.572 208.19 203.155 208.19 203.155C208.19 203.155 203.529 187.956 202.907 186.539C202.311 184.988 202.094 183.318 202.272 181.666C202.218 180.533 204.704 163.647 204.88 162.729Z" fill="url(#paint46_linear)"/>
<path d="M226.807 147.585C226.807 147.585 224.834 151.054 221.767 150.284C218.701 149.515 216.363 150.284 216.066 151.553C215.769 152.822 213.067 159.773 210.27 159.557C207.474 159.341 205.461 155.103 203.894 155.926C202.326 156.75 200.624 161.433 198.584 160.178C196.544 158.923 196.936 154.603 201.286 152.741C205.636 150.878 208.744 150.878 210.027 148.448C211.311 146.019 214.458 139.391 217.485 138.082C219.727 137.11 222.389 136.381 226.59 139.095C227.775 139.835 228.695 140.931 229.217 142.226C229.739 143.521 229.836 144.948 229.495 146.302L226.807 147.585Z" fill="#173342"/>
<path d="M232.237 268.943C232.237 268.943 237.25 271.386 236.007 278.054C234.764 284.722 234.223 285.599 235.615 288.204C237.006 290.809 238.628 301.905 237.385 304.01C236.142 306.116 221.956 294.764 219.984 285.248C218.011 275.732 221.227 271.494 222.361 269.915C223.496 268.336 227.82 266.702 232.237 268.943Z" fill="#0E2D3D"/>
<path d="M190.329 256.377H211.432V271.656V274.869L208.203 271.656H190.329V256.377Z" fill="url(#paint47_linear)"/>
<path d="M234.386 410.629C234.782 411.497 235.276 412.316 235.859 413.072C236.561 413.99 238.736 417.742 239.695 418.012C240.655 418.282 243.627 418.795 243.883 420.456C244.14 422.116 244.275 423.29 241.357 423.412C238.439 423.533 236.507 423.722 235.115 421.67C234.109 420.298 232.881 419.103 231.481 418.134V423.533H230.346C230.198 421.529 229.923 419.536 229.522 417.567C229.212 417.176 228.428 412.897 231.144 410.67C233.859 408.443 234.386 410.629 234.386 410.629Z" fill="#173342"/>
<path d="M239.695 418.012C239.695 418.012 237.074 418.66 236.074 418.012C235.074 417.365 231.656 411.587 230.521 411.264C230.521 411.264 231.616 409.05 234.385 410.656C234.385 410.629 238.952 417.081 239.695 418.012Z" fill="url(#paint48_linear)"/>
<path d="M265.269 319.33C265.269 319.33 267.08 319.681 267.701 318.831C268.29 318.199 269.009 317.702 269.809 317.373C270.309 317.144 271.565 315.861 271.862 316.482C272.16 317.103 269.89 318.682 269.471 319.114C269.052 319.546 271.7 319.735 272.173 320.14C272.646 320.545 272.065 324.905 270.268 324.567C268.471 324.23 266.783 322.691 266.445 322.691C265.991 322.651 265.54 322.583 265.094 322.489L265.269 319.33Z" fill="url(#paint49_linear)"/>
<path d="M271.755 319.965C273.705 320.424 275.619 321.024 277.483 321.76C277.767 322.165 277.672 322.448 277.159 322.34L271.863 321.139C271.863 321.139 278.023 323.838 278.321 324.149C278.618 324.459 278.321 324.878 278.077 324.851C277.834 324.824 271.539 322.448 271.539 322.448C271.539 322.448 277.28 325.013 277.469 325.323C277.51 325.402 277.525 325.492 277.512 325.579C277.5 325.667 277.461 325.749 277.401 325.814C277.34 325.879 277.261 325.924 277.174 325.942C277.088 325.96 276.997 325.952 276.916 325.917L271.025 323.677C271.025 323.677 275.078 325.809 275.078 326.16C275.078 326.511 274.984 326.875 273.957 326.282C272.93 325.688 270.35 324.581 270.35 324.581L271.755 319.965Z" fill="url(#paint50_linear)"/>
<path d="M219.741 414.098C220.966 415.989 222.32 417.793 223.794 419.497C223.794 419.497 226.415 420.469 226.685 422.291C226.956 424.113 226.902 425.355 223.794 425.436C220.687 425.517 218.66 424.964 218.093 423.088C217.724 421.921 217.107 420.848 216.283 419.943V423.83H215.594C215.594 423.83 215.418 420.037 215.377 419.335C215.337 418.633 214.864 415.947 216.337 414.759C216.82 414.404 217.376 414.161 217.965 414.047C218.553 413.932 219.16 413.95 219.741 414.098Z" fill="#173342"/>
<path d="M217.781 330.331C215.492 333.457 213.89 337.031 213.08 340.819C212.08 346.515 213.674 365.614 213.634 368.435C213.593 371.256 210.932 378.248 211.499 383.553C212.067 388.857 214.093 415.232 214.093 415.232L219.74 414.098C219.74 414.098 219.416 387.21 219.74 384.983C220.065 382.756 220.727 374.658 220.862 373.74C220.997 372.822 229.184 348.769 229.184 344.666C229.184 340.562 226.685 323.636 217.781 330.331Z" fill="url(#paint51_linear)"/>
<path d="M236.345 332.207C236.345 332.207 242.411 355.342 243.1 358.555C243.789 361.767 244.87 364.399 244.87 365.763C244.719 368.536 244.326 371.291 243.695 373.996L235.98 410.818H228.644C228.644 410.818 232.697 388.722 232.846 384.403C232.995 380.084 236.291 373.929 235.629 372.093C234.967 370.257 225.091 349.147 225.091 349.147C225.091 349.147 217.634 325.485 236.345 332.207Z" fill="url(#paint52_linear)"/>
<path d="M223.848 419.484C223.848 419.484 220.862 421.157 218.931 419.011C217.858 417.751 217 416.324 216.391 414.786L219.741 414.098L223.848 419.484Z" fill="url(#paint53_linear)"/>
<path d="M233.832 292.902C235.507 293.148 237.052 293.946 238.222 295.169C239.879 297.09 241.278 299.218 242.383 301.5C242.883 302.579 249.814 312.581 250.179 312.811C250.543 313.04 254.029 314.161 256.339 314.97C259.906 316.172 267.066 318.763 267.066 318.763L265.634 323.258C265.634 323.258 252.124 318.858 248.828 318.034C244.707 317.022 235.223 304.874 235.223 304.874C235.223 304.874 228.157 296.573 233.832 292.902Z" fill="url(#paint54_linear)"/>
<path d="M229.469 291.12C230.879 291.808 232.338 292.395 233.832 292.875C234.954 293.104 239.331 298.773 240.088 300.838C240.844 302.903 240.088 306.008 238.52 309.652C236.953 313.297 238.426 314.512 237.71 318.156C236.994 321.8 237.21 335.42 237.345 337.444C237.48 339.469 216.283 342.546 212.095 338.794C212.095 338.794 214.932 326.511 218.282 323.015C219.012 322.259 218.931 317.198 218.431 315.942C217.931 314.687 212.365 305.279 212.365 305.279C212.365 305.279 211.946 295.75 214.391 293.86C216.499 292.213 222.268 291.633 223.308 291.268C225.338 290.865 227.422 290.815 229.469 291.12Z" fill="url(#paint55_linear)"/>
<path d="M231.022 287.394C231.022 287.394 230.927 288.285 230.819 289.487C230.819 289.959 230.725 290.485 230.684 291.025C230.552 292.434 230.493 293.849 230.509 295.264C230.509 295.264 227.145 298.638 223.321 291.322C224.319 289.079 224.458 286.548 223.713 284.209C222.484 280.106 231.022 287.394 231.022 287.394Z" fill="url(#paint56_linear)"/>
<path d="M240.479 311.002C240.938 308.132 240.938 305.207 240.479 302.337C240.343 304.656 239.823 306.937 238.938 309.085L240.479 311.002Z" fill="#183C59"/>
<path d="M220.714 291.849C220.714 291.849 223.038 298.679 229.387 298.179C235.737 297.68 232.414 292.402 232.414 292.402C231.762 292.019 231.079 291.689 230.374 291.417C229.928 291.322 223.348 291.241 223.348 291.241L220.714 291.849Z" fill="url(#paint57_linear)"/>
<path d="M232.373 292.402C234.412 298.4 235.533 304.67 235.697 311.002C235.697 320.451 235.967 335.663 237.129 340.495C238.29 345.327 241.6 360.255 241.6 360.255L244.194 358.906C244.194 358.906 237.953 335.082 237.439 333.368C236.926 331.654 237.791 313.499 238.236 311.974C238.682 310.449 240.587 303.7 240.29 301.824C239.925 299.448 237.71 295.952 234.129 292.942L232.373 292.402Z" fill="url(#paint58_linear)"/>
<path d="M221.97 291.552C223.415 296.495 224.458 301.546 225.091 306.656C226.145 315.132 221.876 354.519 219.012 363.454L207.92 361.74C207.92 361.74 210.298 333.894 213.54 328.833C216.783 323.771 217.823 319.29 214.324 308.707C210.825 298.125 215.85 292.902 215.85 292.902C215.85 292.902 220.998 291.673 221.97 291.552Z" fill="url(#paint59_linear)"/>
<path d="M233.94 319.654L220.484 342.924L205.528 334.299L218.403 310.692L233.94 319.654Z" fill="#616262"/>
<path d="M232.319 320.451L220.376 341.129L207.096 333.462L218.525 312.487L232.319 320.451Z" fill="#A0C5E9"/>
<path d="M227.915 318.588L228.752 317.144L223.375 314.039L222.335 315.375L227.915 318.588Z" fill="#616262"/>
<path d="M227.266 335.109C226.969 335.113 226.673 335.072 226.388 334.988C226.388 334.988 225.929 334.704 225.577 334.542C225.492 334.492 225.401 334.451 225.307 334.421C224.777 334.289 224.271 334.075 223.807 333.786C222.855 332.888 221.952 331.937 221.105 330.938L222.092 329.427L222.821 327.874C224.509 327.951 226.189 328.154 227.847 328.482L228.009 328.576C228.495 328.9 228.712 329.346 228.955 329.535C229.198 329.724 229.833 330.385 229.806 330.722C229.802 330.907 229.751 331.088 229.659 331.248C229.567 331.409 229.437 331.543 229.279 331.64C229.223 332.135 229.026 332.604 228.712 332.99C228.686 333.236 228.602 333.473 228.469 333.682C228.335 333.89 228.155 334.065 227.942 334.191C227.942 334.191 227.766 334.988 227.266 335.109Z" fill="url(#paint60_linear)"/>
<path d="M218.161 292.902C216.868 292.618 215.516 292.797 214.341 293.406C213.167 294.015 212.243 295.016 211.73 296.236C210.208 298.873 209.286 301.813 209.028 304.847C208.744 306.926 207.407 312.581 207.272 313.162C207.136 313.742 204.11 320.72 205.502 323.164C206.893 325.607 221.038 332.814 220.944 333.354C220.849 333.894 223.389 327.955 223.389 327.955C221.084 326.705 218.86 325.312 216.729 323.784C215.215 322.192 212 320.478 212.676 318.493C213.446 316.172 215.769 308.343 216.31 307.196C216.85 306.048 221.565 294.346 218.161 292.902Z" fill="url(#paint61_linear)"/>
<path d="M231.521 269.685C231.521 269.685 238.79 271.967 234.845 284.533C230.9 297.099 220.956 283.075 221.997 275.435C223.037 267.796 231.521 269.685 231.521 269.685Z" fill="url(#paint62_linear)"/>
<path d="M235.588 277.001C232.886 279.341 229.496 280.739 225.929 280.983C224.911 282.118 224.064 283.396 223.416 284.776C223.416 284.776 218.012 275.584 224.659 270.077C231.306 264.57 238.02 274.734 235.588 277.001Z" fill="#0E2D3D"/>
<path d="M225.996 281.226C225.996 280.322 225.388 278.243 224.024 278.823C222.659 279.404 224.105 283.629 225.01 283.372C225.01 283.372 226.104 283.453 225.996 281.226Z" fill="url(#paint63_linear)"/>
<path d="M230.806 289.487C230.806 289.959 230.711 290.485 230.671 291.025C230.671 291.025 227.455 290.836 225.267 286.072C225.456 286.274 227.806 289.73 230.806 289.487Z" fill="url(#paint64_linear)"/>
<path d="M147.043 109.386H73.7646V34.5003H78.5472V104.581H147.043V109.386Z" fill="url(#paint65_linear)"/>
<path d="M96.4759 84.5635H84.9248V98.9792H96.4759V84.5635Z" fill="#A0C5E9"/>
<path d="M111.607 73.3469H100.853V98.9791H111.607V73.3469Z" fill="#3070B7"/>
<path d="M127.535 77.9496H116.781V98.9791H127.535V77.9496Z" fill="url(#paint66_linear)"/>
<path d="M143.868 59.7276H132.317V98.9791H143.868V59.7276Z" fill="#282466"/>
<path d="M145.692 36.282L144.098 45.9734L142.328 45.663L142.949 41.8836L119.334 64.8568L106.337 56.8121L83.7079 76.2624L82.1543 74.4402L106.121 53.8561L118.996 61.8333L140.936 40.4933L137.883 41.9376L137.113 40.3043L145.692 36.282Z" fill="url(#paint67_linear)"/>
<path d="M273.376 32.3946L297.694 27.7244L303.76 51.6964C300.492 52.5157 297.091 52.6611 293.765 52.124C290.439 51.5868 287.258 50.3783 284.414 48.5721C281.571 46.766 279.126 44.4001 277.228 41.6187C275.33 38.8373 274.02 35.6988 273.376 32.3946Z" fill="url(#paint68_linear)"/>
<path d="M297.68 2.96952V27.6974L275.97 15.8194C278.098 11.9252 281.238 8.67632 285.058 6.41493C288.879 4.15354 293.239 2.96329 297.68 2.96952Z" fill="#2F84C6"/>
<path d="M322.418 27.6974C322.422 31.468 321.563 35.1895 319.905 38.5766L297.681 27.6974L321.404 20.6246C322.08 22.9215 322.421 25.3035 322.418 27.6974Z" fill="#B8E2EC"/>
<path d="M292.669 26.8336L270.958 14.969C268.157 20.0036 267.238 25.8684 268.364 31.5173L292.669 26.8336Z" fill="#A0C5E8"/>
<path d="M300.193 30.505L306.259 54.4905C309.729 53.5609 312.965 51.914 315.758 49.6564C318.55 47.3987 320.838 44.5805 322.471 41.3842L300.193 30.505Z" fill="#75B2E1"/>
<path d="M299.437 0V24.7279L323.174 17.6551C323.174 17.6551 318.121 0 299.437 0Z" fill="#4F9ED7"/>
<defs>
<linearGradient id="paint0_linear" x1="278.482" y1="85.0899" x2="278.482" y2="374.982" gradientUnits="userSpaceOnUse">
<stop stop-color="#3C3B97"/>
<stop offset="0.06" stop-color="#5554A4"/>
<stop offset="0.16" stop-color="#7F7CBA"/>
<stop offset="0.27" stop-color="#A29FCC"/>
<stop offset="0.39" stop-color="#BFBBDC"/>
<stop offset="0.51" stop-color="#D6D1E7"/>
<stop offset="0.64" stop-color="#E6E0F0"/>
<stop offset="0.79" stop-color="#EFE9F4"/>
<stop offset="1" stop-color="#F2ECF6"/>
</linearGradient>
<linearGradient id="paint1_linear" x1="354.76" y1="208.649" x2="462.273" y2="208.649" gradientUnits="userSpaceOnUse">
<stop stop-color="#8677B7"/>
<stop offset="0.01" stop-color="#8879B8"/>
<stop offset="0.14" stop-color="#A99CCB"/>
<stop offset="0.27" stop-color="#C3B9DB"/>
<stop offset="0.42" stop-color="#D8D0E7"/>
<stop offset="0.58" stop-color="#E7E0EF"/>
<stop offset="0.75" stop-color="#EFE9F4"/>
<stop offset="1" stop-color="#F2ECF6"/>
</linearGradient>
<linearGradient id="paint2_linear" x1="271.444" y1="81.864" x2="271.444" y2="371.756" gradientUnits="userSpaceOnUse">
<stop offset="0.53" stop-color="#F5F9FD"/>
<stop offset="1" stop-color="#B2AFD7"/>
</linearGradient>
<linearGradient id="paint3_linear" x1="183.777" y1="282.238" x2="236.493" y2="282.238" gradientUnits="userSpaceOnUse">
<stop offset="0.01" stop-color="#2C318C"/>
<stop offset="0.21" stop-color="#342777"/>
<stop offset="0.51" stop-color="#3D1C5F"/>
<stop offset="0.77" stop-color="#431550"/>
<stop offset="1" stop-color="#45134B"/>
</linearGradient>
<linearGradient id="paint4_linear" x1="5487.37" y1="1877.31" x2="5736.92" y2="1877.31" gradientUnits="userSpaceOnUse">
<stop offset="0.01" stop-color="#2C318C"/>
<stop offset="0.21" stop-color="#342777"/>
<stop offset="0.51" stop-color="#3D1C5F"/>
<stop offset="0.77" stop-color="#431550"/>
<stop offset="1" stop-color="#45134B"/>
</linearGradient>
<linearGradient id="paint5_linear" x1="10527.1" y1="6001.04" x2="11560.4" y2="6001.04" gradientUnits="userSpaceOnUse">
<stop offset="0.01" stop-color="#2C318C"/>
<stop offset="0.21" stop-color="#342777"/>
<stop offset="0.51" stop-color="#3D1C5F"/>
<stop offset="0.77" stop-color="#431550"/>
<stop offset="1" stop-color="#45134B"/>
</linearGradient>
<linearGradient id="paint6_linear" x1="9613.21" y1="1096.44" x2="10286" y2="1096.44" gradientUnits="userSpaceOnUse">
<stop offset="0.01" stop-color="#2C318C"/>
<stop offset="0.21" stop-color="#342777"/>
<stop offset="0.51" stop-color="#3D1C5F"/>
<stop offset="0.77" stop-color="#431550"/>
<stop offset="1" stop-color="#45134B"/>
</linearGradient>
<linearGradient id="paint7_linear" x1="10739.1" y1="1167.74" x2="11586.2" y2="1167.74" gradientUnits="userSpaceOnUse">
<stop offset="0.01" stop-color="#2C318C"/>
<stop offset="0.21" stop-color="#342777"/>
<stop offset="0.51" stop-color="#3D1C5F"/>
<stop offset="0.77" stop-color="#431550"/>
<stop offset="1" stop-color="#45134B"/>
</linearGradient>
<linearGradient id="paint8_linear" x1="10106.3" y1="22944.7" x2="11003.8" y2="22944.7" gradientUnits="userSpaceOnUse">
<stop offset="0.01" stop-color="#2C318C"/>
<stop offset="0.21" stop-color="#342777"/>
<stop offset="0.51" stop-color="#3D1C5F"/>
<stop offset="0.77" stop-color="#431550"/>
<stop offset="1" stop-color="#45134B"/>
</linearGradient>
<linearGradient id="paint9_linear" x1="397.061" y1="343.856" x2="397.061" y2="337.741" gradientUnits="userSpaceOnUse">
<stop stop-color="#CCEBFB"/>
<stop offset="0.12" stop-color="#C7E9FA"/>
<stop offset="0.26" stop-color="#B9E4F6"/>
<stop offset="0.42" stop-color="#A1DBF0"/>
<stop offset="0.58" stop-color="#80CFE7"/>
<stop offset="0.74" stop-color="#55BFDC"/>
<stop offset="0.91" stop-color="#22ACCF"/>
<stop offset="0.99" stop-color="#07A2C8"/>
</linearGradient>
<linearGradient id="paint10_linear" x1="351.49" y1="308.451" x2="365.082" y2="308.451" gradientUnits="userSpaceOnUse">
<stop offset="0.78" stop-color="#F9BABA"/>
<stop offset="1" stop-color="#F5928F"/>
</linearGradient>
<linearGradient id="paint11_linear" x1="7565.51" y1="6053.08" x2="8102.17" y2="6053.08" gradientUnits="userSpaceOnUse">
<stop stop-color="#CCEBFB"/>
<stop offset="0.12" stop-color="#C7E9FA"/>
<stop offset="0.26" stop-color="#B9E4F6"/>
<stop offset="0.42" stop-color="#A1DBF0"/>
<stop offset="0.58" stop-color="#80CFE7"/>
<stop offset="0.74" stop-color="#55BFDC"/>
<stop offset="0.91" stop-color="#22ACCF"/>
<stop offset="0.99" stop-color="#07A2C8"/>
</linearGradient>
<linearGradient id="paint12_linear" x1="8949.65" y1="12012.8" x2="9632.68" y2="12012.8" gradientUnits="userSpaceOnUse">
<stop stop-color="#CCEBFB"/>
<stop offset="0.12" stop-color="#C7E9FA"/>
<stop offset="0.26" stop-color="#B9E4F6"/>
<stop offset="0.42" stop-color="#A1DBF0"/>
<stop offset="0.58" stop-color="#80CFE7"/>
<stop offset="0.74" stop-color="#55BFDC"/>
<stop offset="0.91" stop-color="#22ACCF"/>
<stop offset="0.99" stop-color="#07A2C8"/>
</linearGradient>
<linearGradient id="paint13_linear" x1="368.517" y1="320.27" x2="393.717" y2="295.047" gradientUnits="userSpaceOnUse">
<stop stop-color="#7CBAE6"/>
<stop offset="1" stop-color="#367797"/>
</linearGradient>
<linearGradient id="paint14_linear" x1="2199.39" y1="29420.5" x2="2450.7" y2="29406.4" gradientUnits="userSpaceOnUse">
<stop stop-color="#7CBAE6"/>
<stop offset="1" stop-color="#367797"/>
</linearGradient>
<linearGradient id="paint15_linear" x1="2178.48" y1="29944.3" x2="2429.93" y2="29930.2" gradientUnits="userSpaceOnUse">
<stop stop-color="#7CBAE6"/>
<stop offset="1" stop-color="#367797"/>
</linearGradient>
<linearGradient id="paint16_linear" x1="330.658" y1="286.045" x2="312.608" y2="271.802" gradientUnits="userSpaceOnUse">
<stop stop-color="#3C3B97"/>
<stop offset="0.06" stop-color="#6E6CB1"/>
<stop offset="0.12" stop-color="#9D99CA"/>
<stop offset="0.17" stop-color="#C2BDDD"/>
<stop offset="0.23" stop-color="#DCD7EB"/>
<stop offset="0.27" stop-color="#ECE7F3"/>
<stop offset="0.31" stop-color="#F2ECF6"/>
</linearGradient>
<linearGradient id="paint17_linear" x1="1665.28" y1="1211.64" x2="1658.89" y2="1225.65" gradientUnits="userSpaceOnUse">
<stop offset="0.01" stop-color="#2C318C"/>
<stop offset="0.21" stop-color="#342777"/>
<stop offset="0.51" stop-color="#3D1C5F"/>
<stop offset="0.77" stop-color="#431550"/>
<stop offset="1" stop-color="#45134B"/>
</linearGradient>
<linearGradient id="paint18_linear" x1="3036.51" y1="2316.56" x2="3098.82" y2="2316.56" gradientUnits="userSpaceOnUse">
<stop offset="0.78" stop-color="#F9BABA"/>
<stop offset="1" stop-color="#F5928F"/>
</linearGradient>
<linearGradient id="paint19_linear" x1="6747.04" y1="9938.16" x2="7093.86" y2="9938.16" gradientUnits="userSpaceOnUse">
<stop stop-color="#CCEBFB"/>
<stop offset="0.12" stop-color="#C7E9FA"/>
<stop offset="0.26" stop-color="#B9E4F6"/>
<stop offset="0.42" stop-color="#A1DBF0"/>
<stop offset="0.58" stop-color="#80CFE7"/>
<stop offset="0.74" stop-color="#55BFDC"/>
<stop offset="0.91" stop-color="#22ACCF"/>
<stop offset="0.99" stop-color="#07A2C8"/>
</linearGradient>
<linearGradient id="paint20_linear" x1="2355.54" y1="2104.29" x2="2399.21" y2="2104.29" gradientUnits="userSpaceOnUse">
<stop offset="0.78" stop-color="#F9BABA"/>
<stop offset="1" stop-color="#F5928F"/>
</linearGradient>
<linearGradient id="paint21_linear" x1="4982.48" y1="2150.42" x2="4982.48" y2="2206.26" gradientUnits="userSpaceOnUse">
<stop stop-color="#CCEBFB"/>
<stop offset="0.12" stop-color="#C7E9FA"/>
<stop offset="0.26" stop-color="#B9E4F6"/>
<stop offset="0.42" stop-color="#A1DBF0"/>
<stop offset="0.58" stop-color="#80CFE7"/>
<stop offset="0.74" stop-color="#55BFDC"/>
<stop offset="0.91" stop-color="#22ACCF"/>
<stop offset="0.99" stop-color="#07A2C8"/>
</linearGradient>
<linearGradient id="paint22_linear" x1="4615.71" y1="4335.27" x2="4777.57" y2="4335.27" gradientUnits="userSpaceOnUse">
<stop offset="0.78" stop-color="#F9BABA"/>
<stop offset="1" stop-color="#F5928F"/>
</linearGradient>
<linearGradient id="paint23_linear" x1="3208.54" y1="2794.88" x2="3279" y2="2794.88" gradientUnits="userSpaceOnUse">
<stop offset="0.78" stop-color="#F9BABA"/>
<stop offset="1" stop-color="#F5928F"/>
</linearGradient>
<linearGradient id="paint24_linear" x1="2555.62" y1="1319.87" x2="2597.09" y2="1319.87" gradientUnits="userSpaceOnUse">
<stop offset="0.78" stop-color="#F9BABA"/>
<stop offset="1" stop-color="#F5928F"/>
</linearGradient>
<linearGradient id="paint25_linear" x1="1268.64" y1="1284.87" x2="1275.17" y2="1284.87" gradientUnits="userSpaceOnUse">
<stop offset="0.78" stop-color="#F9BABA"/>
<stop offset="1" stop-color="#F5928F"/>
</linearGradient>
<linearGradient id="paint26_linear" x1="288.979" y1="325.161" x2="322.228" y2="325.161" gradientUnits="userSpaceOnUse">
<stop offset="0.13" stop-color="#6055A4"/>
<stop offset="0.63" stop-color="#492D8B"/>
</linearGradient>
<linearGradient id="paint27_linear" x1="7601.68" y1="5548.62" x2="8433.94" y2="5548.62" gradientUnits="userSpaceOnUse">
<stop offset="0.13" stop-color="#6055A4"/>
<stop offset="0.63" stop-color="#492D8B"/>
</linearGradient>
<linearGradient id="paint28_linear" x1="17642.3" y1="36279.4" x2="33557.4" y2="36279.4" gradientUnits="userSpaceOnUse">
<stop stop-color="#CCEBFB"/>
<stop offset="0.12" stop-color="#C7E9FA"/>
<stop offset="0.26" stop-color="#B9E4F6"/>
<stop offset="0.42" stop-color="#A1DBF0"/>
<stop offset="0.58" stop-color="#80CFE7"/>
<stop offset="0.74" stop-color="#55BFDC"/>
<stop offset="0.91" stop-color="#22ACCF"/>
<stop offset="0.99" stop-color="#07A2C8"/>
</linearGradient>
<linearGradient id="paint29_linear" x1="563.989" y1="7720.98" x2="14176.7" y2="7720.98" gradientUnits="userSpaceOnUse">
<stop stop-color="#7CBAE6"/>
<stop offset="1" stop-color="#367797"/>
</linearGradient>
<linearGradient id="paint30_linear" x1="810.275" y1="5239.61" x2="912.975" y2="5239.47" gradientUnits="userSpaceOnUse">
<stop stop-color="#7CBAE6"/>
<stop offset="1" stop-color="#367797"/>
</linearGradient>
<linearGradient id="paint31_linear" x1="14069" y1="38861.2" x2="37847.4" y2="38861.2" gradientUnits="userSpaceOnUse">
<stop offset="0.01" stop-color="#2C318C"/>
<stop offset="0.21" stop-color="#342777"/>
<stop offset="0.51" stop-color="#3D1C5F"/>
<stop offset="0.77" stop-color="#431550"/>
<stop offset="1" stop-color="#45134B"/>
</linearGradient>
<linearGradient id="paint32_linear" x1="13490.4" y1="13683.2" x2="29321.5" y2="13683.2" gradientUnits="userSpaceOnUse">
<stop stop-color="#CCEBFB"/>
<stop offset="0.12" stop-color="#C7E9FA"/>
<stop offset="0.26" stop-color="#B9E4F6"/>
<stop offset="0.42" stop-color="#A1DBF0"/>
<stop offset="0.58" stop-color="#80CFE7"/>
<stop offset="0.74" stop-color="#55BFDC"/>
<stop offset="0.91" stop-color="#22ACCF"/>
<stop offset="0.99" stop-color="#07A2C8"/>
</linearGradient>
<linearGradient id="paint33_linear" x1="1347.74" y1="1974.15" x2="1382.88" y2="1974.15" gradientUnits="userSpaceOnUse">
<stop offset="0.78" stop-color="#F9BABA"/>
<stop offset="1" stop-color="#F5928F"/>
</linearGradient>
<linearGradient id="paint34_linear" x1="2879.96" y1="3233.93" x2="3097.86" y2="3233.93" gradientUnits="userSpaceOnUse">
<stop stop-color="#7CBAE6"/>
<stop offset="1" stop-color="#367797"/>
</linearGradient>
<linearGradient id="paint35_linear" x1="1445.21" y1="1776.65" x2="1484.6" y2="1776.65" gradientUnits="userSpaceOnUse">
<stop offset="0.78" stop-color="#F9BABA"/>
<stop offset="1" stop-color="#F5928F"/>
</linearGradient>
<linearGradient id="paint36_linear" x1="1237.53" y1="1776.65" x2="1277.08" y2="1776.65" gradientUnits="userSpaceOnUse">
<stop offset="0.78" stop-color="#F9BABA"/>
<stop offset="1" stop-color="#F5928F"/>
</linearGradient>
<linearGradient id="paint37_linear" x1="6414.7" y1="8660.62" x2="7988.56" y2="8660.62" gradientUnits="userSpaceOnUse">
<stop offset="0.78" stop-color="#F9BABA"/>
<stop offset="1" stop-color="#F5928F"/>
</linearGradient>
<linearGradient id="paint38_linear" x1="4847.16" y1="8874.3" x2="5754.45" y2="8874.3" gradientUnits="userSpaceOnUse">
<stop offset="0.78" stop-color="#F9BABA"/>
<stop offset="1" stop-color="#F5928F"/>
</linearGradient>
<linearGradient id="paint39_linear" x1="178.995" y1="194.233" x2="223.524" y2="194.233" gradientUnits="userSpaceOnUse">
<stop stop-color="#BA5761"/>
<stop offset="1" stop-color="#EE8B91"/>
</linearGradient>
<linearGradient id="paint40_linear" x1="2469.4" y1="2325.75" x2="2617.75" y2="2325.75" gradientUnits="userSpaceOnUse">
<stop offset="0.78" stop-color="#F9BABA"/>
<stop offset="1" stop-color="#F5928F"/>
</linearGradient>
<linearGradient id="paint41_linear" x1="4977.28" y1="4769.43" x2="5916.71" y2="4769.43" gradientUnits="userSpaceOnUse">
<stop stop-color="#7CBAE6"/>
<stop offset="1" stop-color="#367797"/>
</linearGradient>
<linearGradient id="paint42_linear" x1="1082.01" y1="1722.66" x2="1105.45" y2="1722.66" gradientUnits="userSpaceOnUse">
<stop offset="0.78" stop-color="#F9BABA"/>
<stop offset="1" stop-color="#F5928F"/>
</linearGradient>
<linearGradient id="paint43_linear" x1="1395.67" y1="1487.96" x2="1438.34" y2="1487.96" gradientUnits="userSpaceOnUse">
<stop offset="0.78" stop-color="#F9BABA"/>
<stop offset="1" stop-color="#F5928F"/>
</linearGradient>
<linearGradient id="paint44_linear" x1="496.838" y1="766.359" x2="499.19" y2="766.359" gradientUnits="userSpaceOnUse">
<stop offset="0.78" stop-color="#F9BABA"/>
<stop offset="1" stop-color="#F5928F"/>
</linearGradient>
<linearGradient id="paint45_linear" x1="1097.54" y1="1304.01" x2="1123.6" y2="1304.01" gradientUnits="userSpaceOnUse">
<stop offset="0.78" stop-color="#F9BABA"/>
<stop offset="1" stop-color="#F5928F"/>
</linearGradient>
<linearGradient id="paint46_linear" x1="1896.79" y1="6526.03" x2="1998.04" y2="6526.03" gradientUnits="userSpaceOnUse">
<stop stop-color="#7CBAE6"/>
<stop offset="1" stop-color="#367797"/>
</linearGradient>
<linearGradient id="paint47_linear" x1="3163.28" y1="3895.41" x2="3492.9" y2="3895.41" gradientUnits="userSpaceOnUse">
<stop offset="0.01" stop-color="#2C318C"/>
<stop offset="0.21" stop-color="#342777"/>
<stop offset="0.51" stop-color="#3D1C5F"/>
<stop offset="0.77" stop-color="#431550"/>
<stop offset="1" stop-color="#45134B"/>
</linearGradient>
<linearGradient id="paint48_linear" x1="1795.77" y1="2935.07" x2="1858.05" y2="2935.07" gradientUnits="userSpaceOnUse">
<stop offset="0.78" stop-color="#F9BABA"/>
<stop offset="1" stop-color="#F5928F"/>
</linearGradient>
<linearGradient id="paint49_linear" x1="1685.22" y1="2280.14" x2="1723.72" y2="2280.14" gradientUnits="userSpaceOnUse">
<stop offset="0.78" stop-color="#F9BABA"/>
<stop offset="1" stop-color="#F5928F"/>
</linearGradient>
<linearGradient id="paint50_linear" x1="1890.34" y1="1908.33" x2="1938.59" y2="1908.33" gradientUnits="userSpaceOnUse">
<stop offset="0.78" stop-color="#F9BABA"/>
<stop offset="1" stop-color="#F5928F"/>
</linearGradient>
<linearGradient id="paint51_linear" x1="2991.48" y1="24154.4" x2="3224.9" y2="24154.4" gradientUnits="userSpaceOnUse">
<stop offset="0.01" stop-color="#2C318C"/>
<stop offset="0.21" stop-color="#342777"/>
<stop offset="0.51" stop-color="#3D1C5F"/>
<stop offset="0.77" stop-color="#431550"/>
<stop offset="1" stop-color="#45134B"/>
</linearGradient>
<linearGradient id="paint52_linear" x1="3740.46" y1="22262.8" x2="4074.87" y2="22262.8" gradientUnits="userSpaceOnUse">
<stop offset="0.01" stop-color="#2C318C"/>
<stop offset="0.21" stop-color="#342777"/>
<stop offset="0.51" stop-color="#3D1C5F"/>
<stop offset="0.77" stop-color="#431550"/>
<stop offset="1" stop-color="#45134B"/>
</linearGradient>
<linearGradient id="paint53_linear" x1="1410.86" y1="2270.4" x2="1452.03" y2="2270.4" gradientUnits="userSpaceOnUse">
<stop offset="0.78" stop-color="#F9BABA"/>
<stop offset="1" stop-color="#F5928F"/>
</linearGradient>
<linearGradient id="paint54_linear" x1="6307.86" y1="7221.16" x2="7237.46" y2="7221.16" gradientUnits="userSpaceOnUse">
<stop stop-color="#7CBAE6"/>
<stop offset="1" stop-color="#367797"/>
</linearGradient>
<linearGradient id="paint55_linear" x1="4653.12" y1="11903.6" x2="5245.49" y2="11903.6" gradientUnits="userSpaceOnUse">
<stop stop-color="#CCEBFB"/>
<stop offset="0.12" stop-color="#C7E9FA"/>
<stop offset="0.26" stop-color="#B9E4F6"/>
<stop offset="0.42" stop-color="#A1DBF0"/>
<stop offset="0.58" stop-color="#80CFE7"/>
<stop offset="0.74" stop-color="#55BFDC"/>
<stop offset="0.91" stop-color="#22ACCF"/>
<stop offset="0.99" stop-color="#07A2C8"/>
</linearGradient>
<linearGradient id="paint56_linear" x1="1496.18" y1="3089.34" x2="1540.07" y2="3089.34" gradientUnits="userSpaceOnUse">
<stop offset="0.78" stop-color="#F9BABA"/>
<stop offset="1" stop-color="#F5928F"/>
</linearGradient>
<linearGradient id="paint57_linear" x1="2274.11" y1="1811.82" x2="2391.13" y2="1811.82" gradientUnits="userSpaceOnUse">
<stop offset="0.78" stop-color="#F9BABA"/>
<stop offset="1" stop-color="#F5928F"/>
</linearGradient>
<linearGradient id="paint58_linear" x1="2265.99" y1="16697.3" x2="2369.43" y2="16697.3" gradientUnits="userSpaceOnUse">
<stop stop-color="#7CBAE6"/>
<stop offset="1" stop-color="#367797"/>
</linearGradient>
<linearGradient id="paint59_linear" x1="2875.77" y1="17738" x2="3098.18" y2="17738" gradientUnits="userSpaceOnUse">
<stop stop-color="#7CBAE6"/>
<stop offset="1" stop-color="#367797"/>
</linearGradient>
<linearGradient id="paint60_linear" x1="1645.17" y1="2104.73" x2="1701.2" y2="2104.73" gradientUnits="userSpaceOnUse">
<stop offset="0.78" stop-color="#F9BABA"/>
<stop offset="1" stop-color="#F5928F"/>
</linearGradient>
<linearGradient id="paint61_linear" x1="2977.3" y1="9713.45" x2="3223.89" y2="9713.45" gradientUnits="userSpaceOnUse">
<stop stop-color="#7CBAE6"/>
<stop offset="1" stop-color="#367797"/>
</linearGradient>
<linearGradient id="paint62_linear" x1="2537.64" y1="4428.07" x2="2684.67" y2="4428.07" gradientUnits="userSpaceOnUse">
<stop offset="0.78" stop-color="#F9BABA"/>
<stop offset="1" stop-color="#F5928F"/>
</linearGradient>
<linearGradient id="paint63_linear" x1="643.592" y1="1249.16" x2="648.367" y2="1249.16" gradientUnits="userSpaceOnUse">
<stop offset="0.78" stop-color="#F9BABA"/>
<stop offset="1" stop-color="#F5928F"/>
</linearGradient>
<linearGradient id="paint64_linear" x1="1149.08" y1="1345.02" x2="1171.57" y2="1345.02" gradientUnits="userSpaceOnUse">
<stop offset="0.78" stop-color="#F9BABA"/>
<stop offset="1" stop-color="#F5928F"/>
</linearGradient>
<linearGradient id="paint65_linear" x1="6062.08" y1="6103.23" x2="6062.08" y2="1948.58" gradientUnits="userSpaceOnUse">
<stop stop-color="#8677B7"/>
<stop offset="0.01" stop-color="#8879B8"/>
<stop offset="0.14" stop-color="#A99CCB"/>
<stop offset="0.27" stop-color="#C3B9DB"/>
<stop offset="0.42" stop-color="#D8D0E7"/>
<stop offset="0.58" stop-color="#E7E0EF"/>
<stop offset="0.75" stop-color="#EFE9F4"/>
<stop offset="1" stop-color="#F2ECF6"/>
</linearGradient>
<linearGradient id="paint66_linear" x1="1046.36" y1="1456.22" x2="1131.96" y2="1456.22" gradientUnits="userSpaceOnUse">
<stop stop-color="#7CBAE6"/>
<stop offset="1" stop-color="#367797"/>
</linearGradient>
<linearGradient id="paint67_linear" x1="5440.29" y1="1110.95" x2="5440.29" y2="2295.17" gradientUnits="userSpaceOnUse">
<stop stop-color="#8677B7"/>
<stop offset="0.01" stop-color="#8879B8"/>
<stop offset="0.14" stop-color="#A99CCB"/>
<stop offset="0.27" stop-color="#C3B9DB"/>
<stop offset="0.42" stop-color="#D8D0E7"/>
<stop offset="0.58" stop-color="#E7E0EF"/>
<stop offset="0.75" stop-color="#EFE9F4"/>
<stop offset="1" stop-color="#F2ECF6"/>
</linearGradient>
<linearGradient id="paint68_linear" x1="6421.59" y1="761.329" x2="7104.62" y2="761.329" gradientUnits="userSpaceOnUse">
<stop stop-color="#7CBAE6"/>
<stop offset="1" stop-color="#367797"/>
</linearGradient>
</defs>
</svg>
