<svg width="21" height="25" viewBox="0 0 21 25" fill="none" xmlns="http://www.w3.org/2000/svg">
<path d="M4.83275 17.2515L4.83275 17.2498C4.83257 17.0069 4.88008 16.7663 4.97251 16.5419C5.06494 16.3176 5.20046 16.1138 5.37122 15.9423L5.37125 15.9423L11.0055 10.2823L11.2864 10.0001L11.0055 9.7179L5.37488 4.06154C5.04567 3.71245 4.86442 3.24785 4.87022 2.76617C4.87604 2.28294 5.06965 1.82148 5.40918 1.48019C5.74864 1.13896 6.20705 0.944853 6.68647 0.938724C7.16436 0.932614 7.62609 1.11376 7.97368 1.44416L15.1194 8.60853C15.1194 8.60854 15.1194 8.60856 15.1195 8.60857C15.2974 8.78707 15.437 9.00061 15.5293 9.23591C15.6217 9.47123 15.6648 9.7232 15.6559 9.97609L15.6557 9.97608V9.9901V9.99024V9.99038V9.99052V9.99066V9.9908V9.99094V9.99108V9.99122V9.99136V9.9915V9.99164V9.99179V9.99193V9.99207V9.99221V9.99235V9.99249V9.99263V9.99277V9.99291V9.99305V9.99319V9.99333V9.99347V9.99361V9.99375V9.99389V9.99403V9.99418V9.99432V9.99446V9.9946V9.99474V9.99488V9.99502V9.99516V9.9953V9.99544V9.99558V9.99572V9.99586V9.996V9.99615V9.99629V9.99643V9.99657V9.99671V9.99685V9.99699V9.99713V9.99727V9.99741V9.99755V9.99769V9.99783V9.99797V9.99812V9.99826V9.9984V9.99854V9.99868V9.99882V9.99896V9.9991V9.99924V9.99938V9.99952V9.99966V9.99981V9.99995V10.0001V10.0002V10.0004V10.0005V10.0007V10.0008V10.0009V10.0011V10.0012V10.0014V10.0015V10.0016V10.0018V10.0019V10.0021V10.0022V10.0023V10.0025V10.0026V10.0028V10.0029V10.003V10.0032V10.0033V10.0035V10.0036V10.0038V10.0039V10.004V10.0042V10.0043V10.0045V10.0046V10.0047V10.0049V10.005V10.0052V10.0053V10.0054V10.0056V10.0057V10.0059V10.006V10.0062V10.0063V10.0064V10.0066V10.0067V10.0069V10.007V10.0071V10.0073V10.0074V10.0076V10.0077V10.0078V10.008V10.0081V10.0083V10.0084V10.0086V10.0087V10.0088V10.009V10.0091V10.0093V10.0094V10.0095V10.0097V10.0098V10.01V10.0101V10.0103V10.0104V10.0105V10.0107V10.0108V10.011V10.0111V10.0112V10.0114V10.0115V10.0117V10.0118V10.0119V10.0121V10.0122V10.0124V10.0125V10.0127V10.0128V10.0129V10.0131V10.0132V10.0134V10.0135V10.0137V10.0138V10.0139V10.0141V10.0142V10.0144V10.0145V10.0146V10.0148V10.0149V10.0151V10.0152V10.0154V10.0155V10.0156V10.0158V10.0159V10.0161V10.0162V10.0163V10.0165V10.0166V10.0168V10.0169V10.0171V10.0172V10.0173V10.0175V10.0176V10.0178V10.0179V10.0181V10.0182V10.0183V10.0185V10.0186V10.0188V10.0189V10.0191V10.0192V10.0193V10.0195V10.0196V10.0198V10.0199V10.0201V10.0202V10.0203V10.0205V10.0206V10.0208V10.0209V10.0211V10.0212V10.0213V10.0215V10.0216V10.0218V10.0219V10.0221V10.0222V10.0223V10.0225V10.0226V10.0228V10.0229V10.0231V10.0232V10.0233V10.0235V10.0236V10.0238V10.0239V10.0241V10.0242V10.0243V10.0245V10.0246V10.0248V10.0249V10.0251V10.0252V10.0253V10.0255V10.0256V10.0258V10.0259V10.0261V10.0262V10.0263V10.0265V10.0266V10.0268V10.0269V10.0271V10.0272V10.0274V10.0275V10.0276V10.0278V10.0279V10.0281V10.0282V10.0284V10.0285V10.0286V10.0288V10.0289V10.0291V10.0292V10.0294V10.0295V10.0297V10.0298V10.0299V10.0301V10.0302V10.0304V10.0305V10.0307V10.0308V10.031V10.0311V10.0312V10.0314V10.0315V10.0317V10.0318V10.032V10.0321V10.0323V10.0324V10.0325V10.0327V10.0328V10.033V10.0331V10.0333V10.0334V10.0336V10.0337V10.0338V10.034V10.0341V10.0343V10.0344V10.0346V10.0347V10.0349V10.035V10.0351V10.0353V10.0354V10.0356V10.0357V10.0359V10.036V10.0362V10.0363V10.0365V10.0366V10.0367V10.0369V10.037V10.0372V10.0373V10.0375V10.0376V10.0378V10.0379V10.0381V10.0382V10.0383V10.0385V10.0386V10.0388V10.0389V10.0391V10.0392V10.0394V10.0395V10.0397V10.0398V10.04V10.0401V10.0402V10.0404V10.0405V10.0407V10.0408V10.041V10.0411V10.0413V10.0414V10.0416V10.0417V10.0419V10.042V10.0421V10.0423V10.0424V10.0426V10.0427V10.0429V10.043V10.0432V10.0433V10.0435V10.0436V10.0438V10.0439V10.0441V10.0442V10.0444V10.0445V10.0446V10.0448V10.0449V10.0451V10.0452V10.0454V10.0455V10.0457V10.0458V10.046V10.0461V10.0463V10.0464V10.0466V10.0467V10.0469V10.047V10.0472V10.0473V10.0474V10.0476V10.0477V10.0479V10.048V10.0482V10.0483V10.0485V10.0486V10.0488V10.0489V10.0491V10.0492V10.0494V10.0495V10.0497V10.0498V10.05V10.0501V10.0503V10.0504V10.0506V10.0507V10.0509V10.051V10.0512V10.0513V10.0515V10.0516V10.0518V10.0519V10.052V10.0522V10.0523V10.0525V10.0526V10.0528V10.0529V10.0531V10.0532V10.0534V10.0535V10.0537V10.0538V10.054V10.0541V10.0543V10.0544V10.0546V10.0547V10.0549V10.055V10.0552V10.0553V10.0555V10.0556V10.0558V10.0559V10.0561V10.0562V10.0564V10.0565V10.0567V10.0568V10.057V10.0571V10.0573V10.0574V10.0576V10.0577V10.0579V10.058V10.0582V10.0583V10.0585V10.0586V10.0588V10.0589V10.0591V10.0592V10.0594V10.0595V10.0597V10.0598V10.06V10.0602V10.0603V10.0605V10.0606V10.0608V10.0609V10.0611V10.0612V10.0614V10.0615V10.0617V10.0618V10.062V10.0621V10.0623V10.0624V10.0626V10.0627V10.0629V10.063V10.0632V10.0633V10.0635V10.0636V10.0638V10.0639L15.6557 10.0641L15.6557 10.0662C15.6569 10.3105 15.61 10.5526 15.5175 10.7784C15.425 11.0043 15.289 11.2094 15.1172 11.3819L15.117 11.3821L7.97199 18.5677C7.71409 18.8265 7.38573 19.0023 7.02865 19.0731C6.67158 19.144 6.30159 19.1067 5.96551 18.9661C5.6294 18.8254 5.34215 18.5875 5.14037 18.2823C4.93858 17.977 4.83145 17.6183 4.83275 17.2515Z" fill="#38369A" stroke="white" stroke-width="0.8"/>
</svg>
