<svg width="16" height="10" viewBox="0 0 16 10" fill="none" xmlns="http://www.w3.org/2000/svg">
<path d="M15.7443 1.06476L15.2202 0.537018C15.0552 0.372204 14.8358 0.281407 14.6012 0.281407C14.3668 0.281407 14.1471 0.372204 13.9822 0.537018L8.00358 6.51586L2.0181 0.530384C1.85341 0.36557 1.6337 0.274902 1.3993 0.274902C1.16489 0.274902 0.945048 0.36557 0.780234 0.530384L0.256002 1.05488C-0.085334 1.39595 -0.085334 1.95153 0.256002 2.29261L7.38243 9.44467C7.54712 9.60935 7.76657 9.72539 8.00306 9.72539H8.00579C8.24033 9.72539 8.45978 9.60922 8.62446 9.44467L15.7443 2.31199C15.9092 2.14731 15.9997 1.92122 16 1.68682C16 1.45228 15.9092 1.22932 15.7443 1.06476Z" fill="#A4A4A8"/>
</svg>
