<svg width="24" height="24" viewBox="0 0 24 24" fill="none" xmlns="http://www.w3.org/2000/svg">
<path d="M3.5854 20.4146C5.83319 22.6623 8.82121 23.9 12 23.9C15.1788 23.9 18.1668 22.6623 20.4146 20.4146C22.6623 18.1668 23.9 15.1788 23.9 12C23.9 8.82121 22.6623 5.83319 20.4146 3.5854C18.1668 1.3377 15.1788 0.1 12 0.1C8.82121 0.1 5.83319 1.3377 3.5854 3.5854C3.5854 3.5854 3.5854 3.5854 3.5854 3.5854M3.5854 20.4146L3.51469 20.4853C1.24823 18.2188 0 15.2053 0 12C0 8.79469 1.24823 5.78123 3.51469 3.51469L3.5854 3.5854M3.5854 20.4146C1.3377 18.1668 0.1 15.1788 0.1 12C0.1 8.82121 1.3377 5.83319 3.5854 3.5854M3.5854 20.4146V3.5854M12 1.775C6.36182 1.775 1.775 6.36182 1.775 12C1.775 17.6382 6.36182 22.225 12 22.225C17.6382 22.225 22.225 17.6382 22.225 12C22.225 6.36182 17.6382 1.775 12 1.775ZM11.9531 12.7906C9.52703 12.7906 7.55312 10.8167 7.55312 8.39062C7.55312 5.96453 9.52703 3.99062 11.9531 3.99062C14.3792 3.99062 16.3531 5.96453 16.3531 8.39062C16.3531 10.8167 14.3792 12.7906 11.9531 12.7906ZM11.9531 5.66563C10.4504 5.66563 9.22812 6.88799 9.22812 8.39062C9.22812 9.89326 10.4504 11.1156 11.9531 11.1156C13.4558 11.1156 14.6781 9.89326 14.6781 8.39062C14.6781 6.88799 13.4558 5.66563 11.9531 5.66563Z" fill="#0023C4" stroke="#F7F7FC" stroke-width="0.2"/>
<path d="M6.35707 18.2729L6.35706 18.2729C5.99921 17.9798 5.94673 17.4521 6.23981 17.0943C7.54652 15.4991 9.4769 14.5844 11.5365 14.5844H12.6489C14.7085 14.5844 16.6389 15.4991 17.9455 17.0943C18.2386 17.4521 18.1862 17.9798 17.8283 18.2729L17.8917 18.3503L17.8283 18.2729C17.6726 18.4004 17.4849 18.4625 17.2982 18.4625C17.0556 18.4625 16.8154 18.3578 16.6498 18.1557C15.6627 16.9507 14.2043 16.2594 12.6489 16.2594H11.5365C9.9811 16.2594 8.52267 16.9507 7.53569 18.1557C7.2426 18.5135 6.71488 18.566 6.35707 18.2729Z" fill="#2F3DAC" stroke="#F7F7FC" stroke-width="0.2"/>
</svg>
