<svg width="36" height="36" viewBox="0 0 36 36" fill="none" xmlns="http://www.w3.org/2000/svg">
<path opacity="0.2" d="M19.6725 4.9502C24.989 4.9502 29.3079 9.28312 29.3079 14.617C29.3079 16.6794 28.658 18.5965 27.5559 20.1695C26.4852 21.6983 25.9074 23.5235 25.9074 25.3918V31.107H15.7058V26.5578L12.2378 27.6158C12.0786 27.6727 11.9088 27.6948 11.7391 27.6948C10.7986 27.6948 10.0394 26.9333 10.0394 25.9893V22.0087H7.20503C6.88765 22.0087 6.6377 21.7587 6.6377 21.4402C6.6377 21.3262 6.67141 21.2239 6.72838 21.1333L9.37556 16.9166C9.80688 16.2295 10.0382 15.432 10.0382 14.6193C10.0382 14.6182 10.0382 14.617 10.0382 14.6159C10.0382 9.28312 14.3572 4.9502 19.6725 4.9502Z" fill="#B1B5B9"/>
<path d="M9.25355 21.4413C9.25355 21.3274 9.28726 21.2251 9.34423 21.1344L11.9914 16.9177C12.4227 16.2307 12.6541 15.4331 12.6541 14.6205C12.6541 14.6193 12.6541 14.6182 12.6541 14.617C12.6541 9.72954 16.2836 5.69308 20.9816 5.05018C20.5526 4.99205 20.119 4.9502 19.6737 4.9502C14.3573 4.9502 10.0395 9.28311 10.0395 14.617V14.6205C10.0395 15.4331 9.80926 16.2307 9.37678 16.9177L6.7296 21.1344C6.67263 21.2251 6.63892 21.3274 6.63892 21.4413C6.63892 21.7599 6.88771 22.0098 7.20509 22.0098H9.82089C9.50234 22.0098 9.25355 21.7599 9.25355 21.4413Z" fill="#B1B5B9"/>
<path d="M12.6541 25.9904V22.0098H10.0383V25.9904C10.0383 26.9344 10.7975 27.6959 11.7392 27.6959C11.9089 27.6959 12.0787 27.6727 12.2379 27.6169L13.2761 27.3007C12.8983 26.9879 12.6541 26.5206 12.6541 25.9904Z" fill="#B1B5B9"/>
<path d="M19.7165 18.0292H17.9726V13.3789C17.9726 13.058 17.7122 12.7976 17.3913 12.7976C17.0704 12.7976 16.81 13.058 16.81 13.3789V18.0292H15.0662V13.3789C15.0662 12.0965 16.109 11.0537 17.3913 11.0537C18.6736 11.0537 19.7165 12.0965 19.7165 13.3789V18.0292Z" fill="#707376"/>
<path d="M15.9382 14.5415H18.8447V16.2854H15.9382V14.5415Z" fill="#707376"/>
<path d="M22.0417 11.0537H23.7856V18.0292H22.0417V11.0537Z" fill="#707376"/>
<path d="M25.9073 31.9799H15.7056C15.2243 31.9799 14.8337 31.5893 14.8337 31.108V27.7365L12.4911 28.4504C12.2877 28.5236 12.0214 28.569 11.7389 28.569C10.3206 28.569 9.16616 27.4122 9.16616 25.9904V22.8816H7.20373C6.41086 22.8816 5.76562 22.2352 5.76562 21.4412C5.76562 21.1738 5.84235 20.9087 5.98768 20.6739L8.63719 16.4537C8.98364 15.9027 9.16616 15.2679 9.16616 14.6215C9.16616 8.80632 13.8792 4.07812 19.6735 4.07812C25.4678 4.07812 30.1797 8.80632 30.1797 14.6169C30.1797 16.7932 29.5194 18.8859 28.2696 20.6692C27.2942 22.062 26.7792 23.6954 26.7792 25.3916V31.108C26.7792 31.5893 26.3886 31.9799 25.9073 31.9799ZM16.5776 30.2361H25.0353V25.3916C25.0353 23.335 25.6596 21.3563 26.842 19.6694C27.8848 18.1802 28.4359 16.434 28.4359 14.6169C28.4359 9.76777 24.5052 5.82199 19.6724 5.82199C14.8395 5.82199 10.9089 9.76777 10.9089 14.6169C10.9089 15.5958 10.6345 16.5502 10.1137 17.3803L7.75479 21.1366H10.0369C10.5182 21.1366 10.9089 21.5272 10.9089 22.0085V25.9892C10.9089 26.4496 11.2809 26.8239 11.7378 26.8239C11.818 26.8239 11.8889 26.8135 11.9424 26.7949L15.451 25.7241C15.7161 25.6439 16.0021 25.6927 16.2242 25.8578C16.4462 26.0217 16.5776 26.2822 16.5776 26.5589V30.2361Z" fill="#707376"/>
</svg>
