<svg width="16" height="12" viewBox="0 0 16 12" fill="none" xmlns="http://www.w3.org/2000/svg">
<path fill-rule="evenodd" clip-rule="evenodd" d="M0.000488281 1C0.000488281 0.44772 0.448208 0 1.00049 0H15.0005C15.5528 0 16.0005 0.44772 16.0005 1C16.0005 1.55228 15.5528 2 15.0005 2H1.00049C0.448208 2 0.000488281 1.55228 0.000488281 1ZM0.000488281 6C0.000488281 5.4477 0.448208 5 1.00049 5H15.0005C15.5528 5 16.0005 5.4477 16.0005 6C16.0005 6.5523 15.5528 7 15.0005 7H1.00049C0.448208 7 0.000488281 6.5523 0.000488281 6ZM0.000488281 11C0.000488281 10.4477 0.448208 10 1.00049 10H15.0005C15.5528 10 16.0005 10.4477 16.0005 11C16.0005 11.5523 15.5528 12 15.0005 12H1.00049C0.448208 12 0.000488281 11.5523 0.000488281 11Z" fill="#0A0A0A"/>
</svg>
