<svg width="23" height="22" viewBox="0 0 23 22" fill="none" xmlns="http://www.w3.org/2000/svg">
<g clip-path="url(#clip0)">
<path d="M22.7006 20.3088L15.1189 9.45519C15.0535 9.36147 14.9742 9.28043 14.8852 9.2134V6.875H20.2319C20.4649 6.875 20.6796 6.74807 20.7927 6.5435C20.9059 6.33892 20.8997 6.08872 20.7766 5.88998L19.6568 4.08203L20.7766 2.27408C20.8997 2.07535 20.9059 1.82518 20.7927 1.62057C20.6795 1.41595 20.4649 1.28906 20.2319 1.28906H14.8852V0.644531C14.8852 0.288578 14.5979 0 14.2436 0C13.8893 0 13.602 0.288578 13.602 0.644531V9.2134C13.513 9.28043 13.4337 9.36147 13.3683 9.45519L9.79969 14.5637L8.42384 12.6468C8.2234 12.3675 7.89914 12.2008 7.55644 12.2008C7.21374 12.2008 6.88947 12.3675 6.68903 12.6468L1.19791 20.2975C0.962013 20.6262 0.929634 21.0545 1.11343 21.4152C1.29723 21.7759 1.66196 22 2.06531 22H21.8253C22.2258 22 22.5893 21.7782 22.7741 21.4213C22.9589 21.0644 22.9307 20.638 22.7006 20.3088ZM7.07327 20.7109L11.2005 14.8026L12.258 15.7925C12.5044 16.0231 12.8863 16.0231 13.1328 15.7925L14.2435 14.7528L15.3544 15.7925C15.4776 15.9078 15.6346 15.9655 15.7917 15.9655C15.9488 15.9655 16.1059 15.9078 16.2291 15.7925L17.2868 14.8026L21.414 20.7109H7.07327ZM5.7866 20.3087C5.70041 20.4321 5.64258 20.5691 5.61362 20.7109H2.48317L7.55644 13.6424L9.01942 15.6808L5.7866 20.3087ZM14.2436 10.4463L16.5425 13.7373L15.7917 14.44L14.6807 13.4003C14.4343 13.1697 14.0524 13.1697 13.806 13.4003L12.6954 14.4399L11.9447 13.7373L14.2436 10.4463ZM19.077 2.57812L18.3564 3.74155C18.2273 3.95003 18.2273 4.21407 18.3564 4.42256L19.077 5.58594H14.8852V2.57812H19.077Z" fill="#3B3A97"/>
</g>
<defs>
<clipPath id="clip0">
<rect width="21.9" height="22" fill="white" transform="translate(0.995483)"/>
</clipPath>
</defs>
</svg>
