<svg width="32" height="32" viewBox="0 0 32 32" fill="none" xmlns="http://www.w3.org/2000/svg">
<path d="M27.029 21.0879C26.2143 23.1044 24.9186 24.8911 23.2549 26.2921C21.5912 27.693 19.6101 28.6657 17.4842 29.1253C15.3584 29.5849 13.1524 29.5175 11.0586 28.929C8.96476 28.3404 7.0467 27.2486 5.47166 25.7487C3.89661 24.2488 2.71239 22.3864 2.02227 20.3238C1.33214 18.2613 1.15706 16.0612 1.51229 13.9154C1.86752 11.7697 2.74227 9.74338 4.06027 8.01325C5.37828 6.28312 7.09951 4.90169 9.0739 3.9894" stroke="white" stroke-width="2.5" stroke-linecap="round"/>
<path d="M21.1025 2.44133C19.9478 1.96304 18.734 1.65044 17.4969 1.51068C16.6737 1.41768 16.0001 2.09796 16.0001 2.92639L16.0001 13.2597C16.0001 14.0882 16.6717 14.7597 17.5001 14.7597L27.8334 14.7597C28.6618 14.7597 29.3421 14.0861 29.2491 13.2629C29.1094 12.0258 28.7968 10.812 28.3185 9.65728C27.6484 8.03961 26.6663 6.56975 25.4282 5.33164C24.1901 4.09352 22.7202 3.11139 21.1025 2.44133Z" stroke="white" stroke-width="2.5" stroke-linecap="round"/>
</svg>
