<svg width="24" height="24" viewBox="0 0 24 24" fill="none" xmlns="http://www.w3.org/2000/svg">
<rect x="0.9" y="0.9" width="22.2" height="22.2" rx="4.1" stroke="#38369A" stroke-width="1.8"/>
<path d="M10.471 14.5288L16.2564 8.24229L16.2564 8.24224C16.6507 7.81449 17.3208 7.78422 17.7522 8.1711C18.1864 8.55982 18.2182 9.22243 17.8244 9.65182L17.8243 9.65195L11.2857 16.7569L10.471 14.5288ZM10.471 14.5288L7.71559 11.7645L7.71546 11.7644C7.30363 11.3528 6.63438 11.3461 6.2176 11.7521C5.79949 12.1574 5.79308 12.8211 6.20502 13.2339L9.74642 16.7864L9.74645 16.7864C9.94678 16.9872 10.218 17.099 10.5017 17.099L10.5062 17.0991L10.5128 17.1002L10.5221 17.1C10.8139 17.0937 11.0894 16.9706 11.2857 16.757L10.471 14.5288Z" fill="#38369A" stroke="#38369A" stroke-width="0.2"/>
</svg>
