<svg width="20" height="20" viewBox="0 0 20 20" fill="none" xmlns="http://www.w3.org/2000/svg">
<path d="M8.82812 20C6.88961 20 5.3125 18.4229 5.3125 16.4844V4.6875C5.3125 2.10281 7.41531 0 10 0C12.5847 0 14.6875 2.10281 14.6875 4.6875V16.4844H13.5156V4.6875C13.5156 2.74898 11.9385 1.17188 10 1.17188C8.06148 1.17188 6.48438 2.74898 6.48438 4.6875V16.4844C6.48438 17.7767 7.53578 18.8281 8.82812 18.8281C10.1205 18.8281 11.1719 17.7767 11.1719 16.4844V7.03125C11.1719 6.38508 10.6462 5.85938 10 5.85938C9.35383 5.85938 8.82812 6.38508 8.82812 7.03125V16.4844H7.65625V7.03125C7.65625 5.73891 8.70766 4.6875 10 4.6875C11.2923 4.6875 12.3438 5.73891 12.3438 7.03125V16.4844C12.3438 18.4229 10.7666 20 8.82812 20Z" fill="#CC3E28"/>
</svg>
