<svg width="385" height="37" viewBox="0 0 385 37" fill="none" xmlns="http://www.w3.org/2000/svg">
<path d="M54.5312 15.9026C55.5873 15.9026 56.6072 16.4518 57.1665 17.2206C57.1794 17.2416 57.1955 17.26 57.2103 17.2823C57.2303 17.3122 57.2567 17.3415 57.2773 17.3733L57.2786 17.3707C57.6542 17.8295 58.2264 18.1235 58.8701 18.1235C59.9989 18.1235 60.9171 17.2186 60.9171 16.1031C60.9171 15.5775 60.7141 15.1021 60.3816 14.7432C58.9744 13.0301 57.2986 12.0482 54.5312 12.0482C50.1338 12.0482 46.8284 15.0525 46.8284 19.2665C46.8284 23.5435 50.1338 26.549 54.5312 26.549C57.3424 26.549 58.9963 25.569 60.3842 24.0347L60.3816 24.0315C60.6928 23.6822 60.8836 23.2259 60.8836 22.7238C60.8836 21.6305 59.9867 20.7454 58.8804 20.7454C58.2747 20.7454 57.7335 21.0114 57.3649 21.4314C56.7064 22.0811 55.9455 22.7276 54.5312 22.7276C52.5152 22.7276 51.3895 21.2914 51.3895 19.2665C51.3895 17.3071 52.5152 15.9026 54.5312 15.9026ZM36.7203 22.8263C34.7365 22.8263 33.5123 21.3887 33.5123 19.332C33.5123 17.2422 34.7365 15.8365 36.7203 15.8365C38.7042 15.8365 39.8942 17.2422 39.8942 19.332C39.8942 21.3887 38.7042 22.8263 36.7203 22.8263ZM36.7203 12.0482C32.3551 12.0482 28.9492 15.0862 28.9492 19.332C28.9492 23.5435 32.3551 26.549 36.7203 26.549C41.0843 26.549 44.4573 23.5435 44.4573 19.332C44.4573 15.0862 41.0843 12.0482 36.7203 12.0482ZM70.1798 17.5674C68.261 17.1429 67.3686 17.0449 67.3686 16.2615C67.3686 15.7073 67.8641 15.4457 68.8886 15.4457C69.9485 15.4457 70.9394 15.9351 71.6005 16.4906L71.6037 16.4868C71.9143 16.7764 72.3318 16.9552 72.7918 16.9552C73.7557 16.9552 74.5379 16.1833 74.5379 15.2294C74.5379 14.7209 74.3092 14.2672 73.9542 13.9515C72.7983 12.7902 71.154 12.0482 68.857 12.0482C65.8467 12.0482 63.4009 13.3235 63.4009 16.4576C63.4009 19.3638 65.5497 20.4081 67.4672 20.9006C69.7481 21.4867 70.6411 21.4867 70.6411 22.2389C70.6411 22.8263 70.1798 23.0878 68.7243 23.0878C67.5851 23.0878 66.5226 22.6755 65.6367 21.9774L65.6799 22.0162C65.6766 22.0143 65.6754 22.0143 65.6747 22.0117C64.9634 21.3728 63.8635 21.4015 63.1941 22.09C62.6496 22.6513 62.5626 23.476 62.9144 24.1283C62.926 24.1512 62.9402 24.1741 62.9525 24.1964C62.9853 24.2511 63.0169 24.3026 63.0562 24.3542C63.0833 24.3905 63.1148 24.4242 63.1451 24.4586C63.1786 24.4961 63.207 24.5381 63.245 24.5744C63.2733 24.6017 63.3062 24.6189 63.3358 24.645C64.562 25.7332 66.3326 26.549 69.0219 26.549C73.4516 26.549 74.8073 24.4592 74.8073 21.9118C74.8073 18.9737 72.2281 18.0255 70.1798 17.5674ZM7.70476 15.9026C5.6874 15.9026 4.56177 17.3071 4.56177 19.2665C4.56177 21.2914 5.6874 22.7276 7.70476 22.7276C9.11968 22.7276 9.88062 22.0811 10.5391 21.4314C10.907 21.0114 11.4476 20.7454 12.0539 20.7454C13.1602 20.7454 14.0564 21.6305 14.0564 22.7238C14.0564 23.2259 13.8664 23.6822 13.5552 24.0315L13.5577 24.0347C12.1679 25.569 10.5146 26.549 7.70476 26.549C3.30729 26.549 0 23.5435 0 19.2665C0 15.0525 3.30729 12.0482 7.70476 12.0482C10.4721 12.0482 12.1493 13.0314 13.5577 14.7457C13.8857 15.1046 14.0893 15.5794 14.0893 16.1031C14.0893 17.2186 13.1737 18.1235 12.0442 18.1235C11.3993 18.1235 10.8252 17.8295 10.4508 17.3707L10.4489 17.3733C10.4302 17.3408 10.4019 17.3109 10.3813 17.2797C10.3671 17.26 10.3529 17.2416 10.3407 17.2206C9.77882 16.4518 8.76015 15.9026 7.70476 15.9026ZM26.7384 12.9446C27.3524 13.2526 27.8215 13.8285 27.9548 14.5495C28.1829 15.7777 27.3595 16.9543 26.1166 17.1802C25.4794 17.2941 24.6656 16.988 24.3492 16.9937C23.1508 17.0186 21.011 17.94 21.011 21.5966V24.2763C20.9904 25.5064 19.9769 26.4972 18.7256 26.4972C17.4879 26.4972 16.4828 25.5261 16.4415 24.3138V14.4591C16.4731 13.2367 17.4827 12.2573 18.7256 12.2573C19.9324 12.2573 20.9124 13.1756 21.002 14.3427V14.3554H21.0033C21.0065 14.3827 21.0097 14.4114 21.011 14.44V14.3465C21.272 14.0257 22.7004 12.7492 24.5425 12.5965C25.5612 12.5112 26.0522 12.5857 26.7384 12.9446ZM76.1436 12.1988H76.208V11.852C76.208 11.7604 76.2106 11.6859 76.2151 11.6331C76.2203 11.5809 76.2351 11.5351 76.2563 11.4963C76.2789 11.4581 76.3124 11.425 76.3549 11.4008C76.3968 11.376 76.4445 11.3639 76.496 11.3639C76.5701 11.3639 76.6371 11.3906 76.6958 11.4466C76.7357 11.4829 76.7602 11.5281 76.7718 11.5809C76.7821 11.6331 76.7873 11.7088 76.7873 11.8062V12.1988H77.0005C77.083 12.1988 77.1461 12.2185 77.1893 12.2574C77.2318 12.2955 77.255 12.3452 77.255 12.4063C77.255 12.4826 77.2235 12.5367 77.1616 12.5679C77.0998 12.5991 77.0121 12.6144 76.8961 12.6144H76.7873V13.6682C76.7873 13.7573 76.7918 13.826 76.7969 13.8756C76.8034 13.9234 76.8208 13.9622 76.8472 13.9921C76.8762 14.022 76.9213 14.0373 76.9831 14.0373C77.0173 14.0373 77.0637 14.0309 77.1217 14.0188C77.1803 14.0086 77.2267 14.0016 77.2583 14.0016C77.3066 14.0016 77.3465 14.0207 77.3858 14.057C77.4232 14.0945 77.4425 14.1404 77.4425 14.1964C77.4425 14.2893 77.391 14.3599 77.2879 14.4095C77.1854 14.4585 77.0398 14.4827 76.8472 14.4827C76.6661 14.4827 76.5289 14.4528 76.4342 14.393C76.3427 14.3319 76.2808 14.2485 76.2512 14.1429C76.2215 14.036 76.208 13.8941 76.208 13.7153V12.6144H76.1307C76.0476 12.6144 75.9838 12.5953 75.94 12.5558C75.8949 12.5164 75.873 12.4654 75.873 12.4063C75.873 12.3452 75.8968 12.2955 75.9426 12.2574C75.9889 12.2185 76.0553 12.1988 76.1436 12.1988ZM79.6332 13.3566V14.1209C79.6332 14.2424 79.6042 14.3315 79.5495 14.3932C79.4947 14.4531 79.4219 14.483 79.3291 14.483C79.2421 14.483 79.1699 14.4531 79.1145 14.3932C79.0591 14.3315 79.0327 14.2424 79.0327 14.1209V13.2045C79.0327 13.0601 79.0282 12.9481 79.0179 12.8672C79.0082 12.7877 78.9812 12.7222 78.9373 12.6712C78.8935 12.6203 78.824 12.5942 78.7286 12.5942C78.5398 12.5942 78.4135 12.6585 78.3549 12.7877C78.293 12.9175 78.264 13.104 78.264 13.3439V14.1209C78.264 14.2405 78.237 14.3302 78.1822 14.3913C78.1268 14.4524 78.0553 14.483 77.9644 14.483C77.8762 14.483 77.8034 14.4524 77.7479 14.3913C77.6912 14.3302 77.6635 14.2399 77.6635 14.1209V12.4746C77.6635 12.3671 77.6893 12.2843 77.7396 12.229C77.7911 12.173 77.8575 12.145 77.9393 12.145C78.0186 12.145 78.0856 12.1704 78.1397 12.2239C78.1925 12.2761 78.2189 12.3492 78.2189 12.4422V12.4969C78.3188 12.3779 78.4277 12.2894 78.5424 12.2322C78.6571 12.1768 78.7859 12.1482 78.927 12.1482C79.0727 12.1482 79.1983 12.1774 79.3033 12.236C79.4064 12.292 79.4947 12.3804 79.563 12.4969C79.6596 12.3792 79.7659 12.2907 79.8774 12.2347C79.9908 12.1774 80.1152 12.1482 80.2518 12.1482C80.4109 12.1482 80.5475 12.18 80.6635 12.2423C80.7782 12.3034 80.8639 12.3925 80.9212 12.5077C80.9721 12.6114 80.9966 12.775 80.9966 12.999V14.1209C80.9966 14.2424 80.9682 14.3315 80.9128 14.3932C80.8561 14.4531 80.784 14.483 80.6931 14.483C80.6042 14.483 80.5327 14.4524 80.4766 14.3913C80.4199 14.3302 80.3922 14.2405 80.3922 14.1209V13.1555C80.3922 13.0302 80.3858 12.9322 80.3742 12.8577C80.3645 12.7839 80.3368 12.7209 80.2891 12.67C80.2415 12.6197 80.1712 12.5942 80.0759 12.5942C79.9992 12.5942 79.9264 12.6165 79.8574 12.6623C79.7885 12.7063 79.7357 12.7667 79.6976 12.8424C79.6545 12.9398 79.6332 13.1103 79.6332 13.3566Z" fill="#74B829"/>
<path d="M153.255 13.2928C152.914 13.0335 152.606 12.8067 152.213 12.5043C152.744 11.7266 153.212 10.9272 153.786 10.2035C156.562 6.7362 160.167 5.0295 164.569 5.21313C171.184 5.49397 176.48 10.668 177.096 17.365C177.532 21.9989 176.086 25.8984 172.556 28.8904C165.197 35.1122 153.808 30.7915 152.191 21.1996C151.723 18.4668 152.127 15.8636 153.255 13.2928ZM155.286 12.029C155.318 12.0938 155.35 12.1586 155.392 12.2342C155.562 12.1478 155.743 12.083 155.903 11.975C158.231 10.4195 160.741 9.65261 163.559 10.0523C167.951 10.6788 171.875 14.7834 171.471 19.8278C171.173 23.5652 168.642 26.4385 165.08 26.8597C162.294 27.1945 159.625 25.4987 158.88 22.8631C158.327 20.908 158.721 19.0933 159.912 17.4515C159.997 17.3434 160.007 17.1814 160.05 17.041C159.901 17.0734 159.71 17.0626 159.593 17.1382C158.774 17.7323 158.136 18.4992 157.721 19.4389C156.541 22.1394 157.328 25.5635 159.625 27.5294C161.89 29.4845 164.495 29.9382 167.313 29.2469C172.29 28.0155 175.512 23.2951 175.097 17.9159C174.555 11.0136 168.153 6.1853 161.507 7.6975C158.87 8.29158 156.785 9.73904 155.286 12.029ZM166.207 22.4202C166.335 22.2366 166.43 22.107 166.505 21.9666C167.079 21.016 167.143 20.0223 166.59 19.0501C166.037 18.0672 165.165 17.5703 164.038 17.6027C162.708 17.6351 161.464 18.5964 161.007 19.9358C160.539 21.3184 160.943 22.8199 162.038 23.7488C163.602 25.0774 166.111 24.7318 167.026 23.0467C166.781 22.8415 166.505 22.6471 166.207 22.4202ZM154.701 22.8091C154.765 22.8199 154.818 22.8415 154.882 22.8523C154.935 22.7119 155.009 22.5606 155.02 22.4202C155.084 21.7397 155.073 21.0484 155.19 20.3787C155.988 15.7016 160.465 13.0012 164.867 14.5134C166.388 15.0319 167.611 15.9932 168.642 17.2138C168.77 17.365 168.972 17.4515 169.248 17.6459C168.77 15.0426 166.281 12.8175 163.4 12.2558C160.358 11.6618 157.072 13.0983 155.413 15.7988C154.042 18.0131 153.797 20.3679 154.701 22.8091Z" fill="#A7A5A6"/>
<path d="M208.882 15.1185C208.776 14.9781 208.701 14.8701 208.616 14.7621C210.711 12.7853 214.337 13.0014 216.06 15.1725C217.868 17.4625 217.41 21.0918 215.103 22.7121C212.295 24.6888 208.223 23.263 207.468 20.0225C207.032 18.1538 207.457 16.5011 208.882 15.1185ZM210.349 16.62C210.254 16.7388 210.179 16.836 210.094 16.9332C209.318 17.9054 209.201 19.1044 209.775 20.1629C210.317 21.1783 211.381 21.6752 212.667 21.5239C213.741 21.3943 214.593 20.6382 214.901 19.4932C215.241 18.197 215.06 16.9872 214.039 16.0799C213.072 15.2265 211.934 15.2373 210.796 15.7558C210.541 15.8747 210.328 16.0691 210.083 16.2419C210.19 16.3931 210.254 16.4904 210.349 16.62Z" fill="#A7A5A6"/>
<path d="M189.464 13.4877C190.963 13.5742 192.473 13.5201 193.941 13.7901C195.43 14.0602 196.078 15.4212 195.557 16.847C195.387 17.3007 194.994 17.6788 194.675 18.1108C194.664 18.1 194.738 18.1756 194.823 18.2189C195.781 18.7049 196.217 19.515 196.174 20.5844C196.131 21.7078 195.61 22.5827 194.59 22.9932C193.962 23.2524 193.26 23.3389 192.58 23.382C191.559 23.4468 190.527 23.4037 189.464 23.4037C189.464 20.1307 189.464 16.8902 189.464 13.4877ZM191.548 21.5026C192.101 21.5026 192.622 21.5457 193.143 21.4917C193.707 21.4269 194.079 20.9409 194.1 20.3792C194.122 19.7851 193.824 19.2558 193.335 19.1694C192.76 19.0722 192.154 19.0722 191.548 19.029C191.548 19.9039 191.548 20.6816 191.548 21.5026ZM191.559 15.4752C191.559 16.199 191.559 16.847 191.559 17.5275C192.005 17.5275 192.41 17.5492 192.814 17.5167C193.367 17.4735 193.696 17.0739 193.696 16.5122C193.696 15.9289 193.398 15.54 192.835 15.486C192.42 15.4428 192.005 15.4752 191.559 15.4752Z" fill="#A7A5A6"/>
<path d="M180.404 13.5204C181.084 13.5204 181.712 13.5204 182.413 13.5204C182.424 13.7257 182.445 13.9093 182.445 14.0929C182.445 15.6592 182.445 17.2254 182.445 18.7917C182.445 19.0617 182.456 19.3317 182.477 19.6018C182.573 20.8116 183.275 21.5029 184.381 21.4813C185.487 21.4597 186.199 20.7576 186.22 19.5478C186.263 17.7655 186.242 15.9832 186.242 14.2009C186.242 13.9849 186.242 13.7797 186.242 13.5312C186.965 13.5312 187.624 13.5312 188.347 13.5312C188.347 14.0281 188.347 14.5142 188.347 14.9894C188.347 16.4261 188.358 17.8735 188.347 19.3101C188.315 22.6911 185.231 24.5705 182.265 23.0043C181.127 22.3994 180.489 21.3733 180.425 20.1527C180.329 17.9707 180.404 15.778 180.404 13.5204Z" fill="#A7A5A6"/>
<path d="M201.513 20.1841C201.906 20.9186 202.385 21.4695 203.214 21.5668C203.873 21.6423 204.384 21.4047 204.565 20.8863C204.745 20.3894 204.522 19.9141 203.905 19.5792C203.512 19.374 203.097 19.2228 202.693 19.0392C202.31 18.8555 201.917 18.6935 201.555 18.4775C200.566 17.8834 200.151 16.9761 200.29 15.831C200.417 14.7617 201.055 14.0704 202.002 13.6707C203.48 13.0442 205.426 13.5087 206.266 14.6645C206.383 14.8265 206.468 14.9993 206.596 15.1938C206.032 15.5934 205.5 15.9607 204.947 16.3604C204.565 15.6798 204.097 15.1938 203.299 15.2478C202.831 15.2802 202.406 15.399 202.268 15.9283C202.129 16.4467 202.47 16.76 202.852 16.9544C203.342 17.2137 203.852 17.3973 204.362 17.6133C204.586 17.7106 204.83 17.7969 205.043 17.905C206.298 18.5207 206.819 19.3956 206.713 20.681C206.596 22.042 205.841 23.0574 204.575 23.3922C203.065 23.7919 201.651 23.6083 200.502 22.4201C200.332 22.2472 200.215 22.0096 200.077 21.8044C199.907 21.556 199.928 21.3615 200.194 21.1671C200.609 20.8863 201.034 20.5514 201.513 20.1841Z" fill="#A7A5A6"/>
<path d="M220.133 19.4716C220.133 20.8218 220.133 22.0748 220.133 23.3602C219.421 23.3602 218.761 23.3602 218.07 23.3602C218.07 20.0981 218.07 16.8684 218.07 13.6063C220.25 13.6063 222.408 13.6063 224.599 13.6063C224.599 14.2436 224.599 14.8809 224.599 15.5722C223.121 15.5722 221.664 15.5722 220.175 15.5722C220.175 16.3391 220.175 17.052 220.175 17.8406C221.504 17.8406 222.834 17.8406 224.195 17.8406C224.195 18.413 224.195 18.9099 224.195 19.4608C222.866 19.4716 221.547 19.4716 220.133 19.4716Z" fill="#A7A5A6"/>
<path d="M228.215 15.6046C227.279 15.6046 226.417 15.6046 225.524 15.6046C225.524 14.9241 225.524 14.2868 225.524 13.6063C228.013 13.6063 230.49 13.6063 233 13.6063C233 14.2652 233 14.8917 233 15.5614C232.117 15.5614 231.256 15.5614 230.309 15.5614C230.309 18.1862 230.309 20.757 230.309 23.371C229.576 23.371 228.938 23.371 228.215 23.371C228.215 20.7786 228.215 18.2186 228.215 15.6046Z" fill="#A7A5A6"/>
<path d="M199.066 23.4031C198.46 23.4031 197.875 23.4031 197.301 23.4031C196.929 23.4031 197.003 23.1114 197.003 22.8954C197.003 21.2751 197.003 19.6549 197.003 18.0346C197.003 16.7168 197.014 15.4098 196.993 14.092C196.982 13.6816 197.12 13.5519 197.514 13.5735C198.024 13.6059 198.535 13.5843 199.066 13.5843C199.066 16.8788 199.066 20.1086 199.066 23.4031Z" fill="#A7A5A6"/>
<g clip-path="url(#clip0)">
<path fill-rule="evenodd" clip-rule="evenodd" d="M385 16.9778C382.924 10.5103 365.668 5.4637 344.69 5.4637C322.312 5.4637 304.17 11.2063 304.17 18.2904C304.17 25.374 322.312 31.1167 344.69 31.1167C365.668 31.1167 382.924 26.07 385 19.6029V32H303.39V5.04858H385V16.9778ZM322.332 23.6183H315.429C315.238 23.6183 315.161 23.5451 315.263 23.4347C315.343 23.3486 315.481 22.762 315.481 22.1386V14.8513C315.481 14.2275 315.343 13.6413 315.263 13.5553C315.161 13.4449 315.238 13.3717 315.429 13.3717H322.332C322.524 13.3717 322.601 13.4449 322.498 13.5553C322.418 13.6413 322.28 14.2275 322.28 14.8513V22.1386C322.28 22.762 322.418 23.3486 322.498 23.4347C322.601 23.5451 322.524 23.6183 322.332 23.6183ZM332.723 17.0294L335.235 13.7751C335.338 13.6771 335.286 13.5428 335.286 13.4816C335.286 13.4204 335.286 13.3716 335.338 13.3716H342.15C342.24 13.3716 342.202 13.4328 342.163 13.4816L339.358 17.223C339.231 17.3822 339.256 17.5289 339.385 17.6881L343.239 23.5082C343.277 23.557 343.315 23.6182 343.226 23.6182H334.902C334.851 23.6182 334.851 23.5689 334.851 23.5082C334.851 23.447 334.979 22.9211 334.877 22.8231L332.725 19.6798V22.139C332.725 22.7619 332.863 23.3485 332.943 23.4346C333.046 23.545 332.969 23.6182 332.777 23.6182H326.079C325.888 23.6182 325.811 23.545 325.913 23.4346C325.993 23.3485 326.131 22.7619 326.131 22.139V14.8512C326.131 14.2274 325.993 13.6412 325.913 13.5552C325.811 13.4448 325.888 13.3716 326.079 13.3716H332.777C332.969 13.3716 333.046 13.4448 332.943 13.5552C332.863 13.6412 332.725 14.2274 332.725 14.8512L332.723 17.0294ZM352.049 19.8138L352.048 20.376C352.048 20.4171 352.065 20.56 352.241 20.56H356.05C356.696 20.56 357.304 20.43 357.394 20.354C357.507 20.2574 357.583 20.3301 357.583 20.5113V23.5274L345.584 23.5279C345.394 23.5279 345.319 23.4552 345.42 23.3467C345.5 23.2611 345.635 22.6808 345.635 22.064V14.8533C345.635 14.2361 345.5 13.6562 345.42 13.5706C345.319 13.4616 345.395 13.3703 345.585 13.3703H357.584V16.2091C357.584 16.3903 357.508 16.4629 357.394 16.3664C357.305 16.2903 356.697 16.1603 356.051 16.1603H352.242C352.065 16.1603 352.049 16.3037 352.049 16.3444L352.048 16.842C352.048 16.8827 352.065 17.0256 352.241 17.0256H354.892C355.166 17.0256 356.15 17.0577 356.234 16.9769C356.319 16.8961 356.424 16.9463 356.424 17.1002V19.5561C356.424 19.7095 356.319 19.7602 356.235 19.6789C356.15 19.5981 355.166 19.6302 354.892 19.6302H352.241C352.065 19.6302 352.049 19.7731 352.049 19.8138ZM366.428 19.6475H367.707C367.796 19.6404 367.807 19.5514 367.781 19.4902L367.16 18.0852C367.135 18.0445 367.121 18.0034 367.067 18.0034C367.014 18.0034 367 18.0445 366.975 18.0852L366.354 19.4902C366.328 19.5514 366.339 19.6404 366.428 19.6475ZM376.596 23.5276H369.424C369.289 23.5276 369.26 23.4664 369.303 23.3779C369.346 23.289 369.346 23.0844 369.282 22.9343L368.974 21.9595C368.875 21.6865 368.732 21.6459 368.489 21.6459H365.968C365.725 21.6459 365.582 21.6865 365.482 21.9595L365.175 22.9343C365.111 23.0844 365.111 23.289 365.153 23.3779C365.196 23.4664 365.168 23.5276 365.032 23.5276H359.297C359.297 23.5276 362.825 14.4843 362.882 14.3342C362.939 14.1846 362.996 13.9255 362.896 13.6931C362.796 13.4617 362.882 13.4072 363.053 13.4072H372.382C372.553 13.4072 372.639 13.4617 372.539 13.6931C372.439 13.9255 372.496 14.1846 372.553 14.3342C372.61 14.4843 376.596 23.5276 376.596 23.5276Z" fill="#A7A5A6"/>
</g>
<defs>
<clipPath id="clip0">
<rect width="81" height="28" fill="white" transform="translate(304 5)"/>
</clipPath>
</defs>
</svg>
