<svg width="32" height="32" viewBox="0 0 32 32" fill="none" xmlns="http://www.w3.org/2000/svg">
<path opacity="0.2" d="M25.5011 25.7778H6.49866C5.36364 25.7778 4.44434 24.8418 4.44434 23.6863V8H27.5554V23.6863C27.5554 24.8418 26.6361 25.7778 25.5011 25.7778Z" fill="#B1B5B9"/>
<path opacity="0.2" d="M6.22217 26.1011C6.22217 26.904 6.78806 27.5557 7.48533 27.5557H12.959C13.6563 27.5557 14.2222 26.904 14.2222 26.1011V13.0102C14.2222 12.2073 13.6563 11.5557 12.959 11.5557H7.48533C6.78806 11.5557 6.22217 12.2073 6.22217 13.0102V26.1011Z" fill="#B1B5B9"/>
<path d="M6.57767 26.02V12.2019C6.57767 11.3543 7.21482 10.6665 7.99989 10.6665H5.86656C5.08149 10.6665 4.44434 11.3543 4.44434 12.2019V26.02C4.44434 26.8676 5.08149 27.5554 5.86656 27.5554H7.99989C7.21482 27.5554 6.57767 26.8676 6.57767 26.02Z" fill="#B1B5B9"/>
<path d="M6.22211 8V10.4615L4.44434 11.5556V8H6.22211Z" fill="#B1B5B9"/>
<path d="M10.5299 13.3334H8.1367C7.21294 13.3334 6.46148 12.5359 6.46148 11.5556C6.46148 11.4154 6.35427 11.3016 6.22217 11.3016V9.77783C7.14593 9.77783 7.89738 10.5753 7.89738 11.5556C7.89738 11.6958 8.0046 11.8096 8.1367 11.8096H10.5299C10.662 11.8096 10.7692 11.6958 10.7692 11.5556C10.7692 10.5753 11.5206 9.77783 12.4444 9.77783V11.3016C12.3123 11.3016 12.2051 11.4154 12.2051 11.5556C12.2051 12.5359 11.4536 13.3334 10.5299 13.3334Z" fill="#707376"/>
<path d="M12.7476 28.4445H5.9193C4.61667 28.4445 3.55566 27.3981 3.55566 26.1112V12.1112C3.55566 10.8242 4.61667 9.77783 5.9193 9.77783H12.7476C14.0502 9.77783 15.1112 10.8242 15.1112 12.1112V26.1112C15.1112 27.3981 14.0502 28.4445 12.7476 28.4445ZM5.9193 11.3334C5.48544 11.3334 5.13142 11.6818 5.13142 12.1112V26.1112C5.13142 26.5405 5.48544 26.8889 5.9193 26.8889H12.7476C13.1814 26.8889 13.5355 26.5405 13.5355 26.1112V12.1112C13.5355 11.6818 13.1814 11.3334 12.7476 11.3334H5.9193Z" fill="#707376"/>
<path d="M25.5927 26.6668H17.0371V25.091H25.5927C26.3072 25.091 26.889 24.5017 26.889 23.7779V6.44455C26.889 5.72075 26.3072 5.13142 25.5927 5.13142H6.40752C5.693 5.13142 5.11122 5.72075 5.11122 6.44455V7.75768H3.55566V6.44455C3.55566 4.85094 4.83433 3.55566 6.40752 3.55566H25.5927C27.1659 3.55566 28.4446 4.85094 28.4446 6.44455V23.7779C28.4446 25.3715 27.1659 26.6668 25.5927 26.6668Z" fill="#707376"/>
<path d="M15.1111 7.11133H27.5555V8.88911H15.1111V7.11133Z" fill="#707376"/>
<path d="M18.5574 17.5249L22.446 13.6362L23.546 14.7362L19.6573 18.6248L18.5574 17.5249Z" fill="#707376"/>
<path d="M22.2223 18.6669H18.6112C18.1512 18.6669 17.7778 18.3682 17.7778 18.0002V15.1113H19.4445V17.3336H22.2223V18.6669Z" fill="#707376"/>
</svg>
