<svg width="28" height="28" viewBox="0 0 28 28" fill="none" xmlns="http://www.w3.org/2000/svg">
<path d="M25.5391 0.0546875H2.46094C1.10398 0.0546875 0 1.15866 0 2.51562V22.2031C0 23.5601 1.10398 24.6641 2.46094 24.6641C7.35629 24.6641 6.91731 24.6649 6.97949 24.6623L8.7797 26.4625C9.09973 26.7827 9.61953 26.7829 9.93978 26.4625L10.8172 25.585C11.0525 25.6977 11.2933 25.7976 11.539 25.8845V27.125C11.539 27.578 11.9063 27.9453 12.3593 27.9453H15.6406C16.0936 27.9453 16.4609 27.578 16.4609 27.125V25.8845C16.7066 25.7976 16.9474 25.6977 17.1826 25.585L18.0601 26.4625C18.3801 26.7827 18.8999 26.7829 19.2202 26.4625L21.0188 24.6641H25.5391C26.896 24.6641 28 23.5601 28 22.2031V2.51562C28 1.15866 26.896 0.0546875 25.5391 0.0546875ZM2.46094 1.69531H25.5391C25.9914 1.69531 26.3594 2.0633 26.3594 2.51562V6.61719H1.64062V2.51562C1.64062 2.0633 2.00862 1.69531 2.46094 1.69531ZM18.6402 24.7224L17.9133 23.9954C17.6483 23.7304 17.2374 23.6788 16.9152 23.8696C16.4533 24.1432 15.9557 24.3496 15.4364 24.4832C15.0738 24.5763 14.8203 24.9033 14.8203 25.2777V26.3047H13.1797V25.2777C13.1797 24.9033 12.9262 24.5764 12.5636 24.4832C12.0443 24.3497 11.5467 24.1433 11.0848 23.8697C10.7624 23.6786 10.3516 23.7305 10.0867 23.9955L9.35977 24.7224L8.19946 23.5621L8.92642 22.8351C9.19138 22.5702 9.24312 22.1595 9.0522 21.8371C8.7786 21.3752 8.57221 20.8776 8.43866 20.3583C8.34553 19.9957 8.01861 19.7422 7.64422 19.7422H6.61719V18.1016H7.64422C8.01861 18.1016 8.34548 17.8481 8.43866 17.4855C8.57216 16.9661 8.7786 16.4686 9.0522 16.0066C9.24312 15.6843 9.19138 15.2735 8.92642 15.0086L8.19946 14.2816L9.35977 13.1213L10.0867 13.8483C10.3516 14.1133 10.7624 14.1649 11.0848 13.9741C11.5467 13.7005 12.0443 13.4941 12.5636 13.3605C12.9262 13.2674 13.1797 12.9404 13.1797 12.5661V11.5391H14.8203V12.5661C14.8203 12.9405 15.0738 13.2674 15.4364 13.3605C15.9557 13.494 16.4533 13.7005 16.9152 13.9741C17.2375 14.165 17.6483 14.1132 17.9133 13.8483L18.6402 13.1213L19.8005 14.2816L19.0736 15.0086C18.8086 15.2735 18.7569 15.6843 18.9478 16.0066C19.2214 16.4686 19.4278 16.9661 19.5613 17.4855C19.6545 17.8481 19.9814 18.1016 20.3558 18.1016H21.3828V19.7422H20.3558C19.9814 19.7422 19.6545 19.9957 19.5613 20.3583C19.4278 20.8776 19.2214 21.3752 18.9478 21.8371C18.7569 22.1595 18.8086 22.5702 19.0736 22.8351L19.8005 23.5621L18.6402 24.7224ZM25.5391 23.0234H21.5782C21.5366 22.9758 21.6255 23.0668 20.6632 22.1046C20.7758 21.8694 20.8757 21.6285 20.9626 21.3828H22.2031C22.6562 21.3828 23.0234 21.0155 23.0234 20.5625V17.2812C23.0234 16.8282 22.6562 16.4609 22.2031 16.4609H20.9626C20.8757 16.2152 20.7758 15.9744 20.6631 15.7392L21.5406 14.8617C21.8608 14.5417 21.861 14.0219 21.5406 13.7016L19.2202 11.3812C18.9002 11.061 18.3804 11.0608 18.0601 11.3812L17.1826 12.2587C16.9474 12.146 16.7066 12.0461 16.4609 11.9592V10.7188C16.4609 10.2657 16.0936 9.89844 15.6406 9.89844H12.3593C11.9063 9.89844 11.539 10.2657 11.539 10.7188V11.9593C11.2933 12.0462 11.0525 12.1461 10.8172 12.2587L9.93978 11.3812C9.61975 11.0611 9.09995 11.0609 8.7797 11.3812L6.45925 13.7017C6.13911 14.0217 6.13889 14.5415 6.45925 14.8618L7.33677 15.7392C7.22411 15.9744 7.1242 16.2153 7.0373 16.461H5.79688C5.34384 16.461 4.97656 16.8283 4.97656 17.2813V20.5626C4.97656 21.0156 5.34384 21.3829 5.79688 21.3829H7.03741C7.1243 21.6286 7.22422 21.8694 7.33687 22.1046C6.37459 23.0669 6.46346 22.9758 6.4219 23.0235H2.46094C2.00862 23.0235 1.64062 22.6555 1.64062 22.2032V8.25781H26.3594V22.2031C26.3594 22.6554 25.9914 23.0234 25.5391 23.0234Z" fill="black"/>
<path d="M14 14.8203C11.7384 14.8203 9.89844 16.6603 9.89844 18.9219C9.89844 21.1835 11.7384 23.0234 14 23.0234C16.2616 23.0234 18.1016 21.1835 18.1016 18.9219C18.1016 16.6603 16.2616 14.8203 14 14.8203ZM14 21.3828C12.643 21.3828 11.5391 20.2788 11.5391 18.9219C11.5391 17.5649 12.643 16.4609 14 16.4609C15.357 16.4609 16.4609 17.5649 16.4609 18.9219C16.4609 20.2788 15.357 21.3828 14 21.3828Z" fill="#38369A"/>
<path d="M4.15625 4.97656C4.6093 4.97656 4.97656 4.6093 4.97656 4.15625C4.97656 3.7032 4.6093 3.33594 4.15625 3.33594C3.7032 3.33594 3.33594 3.7032 3.33594 4.15625C3.33594 4.6093 3.7032 4.97656 4.15625 4.97656Z" fill="black"/>
<path d="M7.4375 4.97656C7.89055 4.97656 8.25781 4.6093 8.25781 4.15625C8.25781 3.7032 7.89055 3.33594 7.4375 3.33594C6.98445 3.33594 6.61719 3.7032 6.61719 4.15625C6.61719 4.6093 6.98445 4.97656 7.4375 4.97656Z" fill="black"/>
<path d="M10.7188 4.97656C11.1718 4.97656 11.5391 4.6093 11.5391 4.15625C11.5391 3.7032 11.1718 3.33594 10.7188 3.33594C10.2657 3.33594 9.89844 3.7032 9.89844 4.15625C9.89844 4.6093 10.2657 4.97656 10.7188 4.97656Z" fill="black"/>
<path d="M18.9219 4.97656H23.8438C24.2968 4.97656 24.6641 4.60928 24.6641 4.15625C24.6641 3.70322 24.2968 3.33594 23.8438 3.33594H18.9219C18.4688 3.33594 18.1016 3.70322 18.1016 4.15625C18.1016 4.60928 18.4688 4.97656 18.9219 4.97656Z" fill="black"/>
</svg>
