<svg width="28" height="28" viewBox="0 0 28 28" fill="none" xmlns="http://www.w3.org/2000/svg">
<path d="M27.1797 0.796387H0.820312C0.367281 0.796387 0 1.16367 0 1.6167V22.1848C0 22.6379 0.367281 23.0051 0.820312 23.0051H10.9539L10.5862 25.5634H10.5705C10.1175 25.5634 9.75018 25.9307 9.75018 26.3837C9.75018 26.8367 10.1175 27.204 10.5705 27.204H17.4295C17.8825 27.204 18.2498 26.8367 18.2498 26.3837C18.2498 25.9307 17.8825 25.5634 17.4295 25.5634H17.4138L17.0461 23.0051H27.1797C27.6327 23.0051 28 22.6379 28 22.1848V1.6167C28 1.16367 27.6327 0.796387 27.1797 0.796387ZM1.64062 2.43701H26.3594V17.1005H1.64062V2.43701ZM15.7563 25.5634H12.2437L12.6114 23.0051H15.3886L15.7563 25.5634ZM26.3594 21.3645H16.0995H11.9005H1.64062V18.7412H26.3594V21.3645Z" fill="black"/>
<path d="M22.4837 9.69434H10.697C10.244 9.69434 9.87671 10.0616 9.87671 10.5146V14.2029C9.87671 14.656 10.244 15.0232 10.697 15.0232H22.4838C22.9368 15.0232 23.3041 14.656 23.3041 14.2029V10.5146C23.304 10.0616 22.9368 9.69434 22.4837 9.69434ZM11.5173 11.335H17.3493V13.3826H11.5173V11.335ZM21.6634 13.3826H18.9898V11.335H21.6634V13.3826Z" fill="#38369A"/>
<path d="M22.4837 4.51416C22.0307 4.51416 21.6634 4.88144 21.6634 5.33447V5.52719H18.9898V5.33447C18.9898 4.88144 18.6226 4.51416 18.1695 4.51416C17.7165 4.51416 17.3492 4.88144 17.3492 5.33447V5.52719H11.5173V5.33447C11.5173 4.88144 11.1501 4.51416 10.697 4.51416C10.244 4.51416 9.87671 4.88144 9.87671 5.33447V7.36059C9.87671 7.81362 10.244 8.1809 10.697 8.1809C11.1501 8.1809 11.5173 7.81362 11.5173 7.36059V7.16787H17.3493V7.36059C17.3493 7.81362 17.7165 8.1809 18.1696 8.1809C18.6226 8.1809 18.9899 7.81362 18.9899 7.36059V7.16787H21.6635V7.36059C21.6635 7.81362 22.0307 8.1809 22.4838 8.1809C22.9368 8.1809 23.3041 7.81362 23.3041 7.36059V5.33447C23.304 4.88144 22.9368 4.51416 22.4837 4.51416Z" fill="#38369A"/>
<path d="M7.54199 11.335C7.99502 11.335 8.36231 10.9677 8.36231 10.5146C8.36231 10.0616 7.99502 9.69434 7.54199 9.69434H5.51587C5.06284 9.69434 4.69556 10.0616 4.69556 10.5146C4.69556 10.9677 5.06284 11.335 5.51587 11.335H5.70859V13.3826H5.51587C5.06284 13.3826 4.69556 13.7499 4.69556 14.2029C4.69556 14.656 5.06284 15.0232 5.51587 15.0232H7.54199C7.99502 15.0232 8.36231 14.656 8.36231 14.2029C8.36231 13.7499 7.99502 13.3826 7.54199 13.3826H7.34927V11.335H7.54199Z" fill="#38369A"/>
</svg>
