<svg width="16" height="16" viewBox="0 0 16 16" fill="none" xmlns="http://www.w3.org/2000/svg">
<path d="M5.70169 8.14122L7.24979 9.68932V1.49997C7.24979 1.30106 7.3288 1.11029 7.46945 0.969642C7.61011 0.828989 7.80087 0.749971 7.99978 0.749971C8.1987 0.749971 8.38946 0.828989 8.53011 0.969642C8.67077 1.11029 8.74978 1.30106 8.74978 1.49997V9.68932L10.2979 8.14122C10.3675 8.07127 10.4501 8.01573 10.5412 7.97779C10.6323 7.93984 10.73 7.92024 10.8286 7.92011C10.9273 7.91997 11.025 7.93931 11.1162 7.977C11.2074 8.0147 11.2902 8.07001 11.36 8.13978C11.4297 8.20954 11.4851 8.29239 11.5228 8.38357C11.5604 8.47475 11.5798 8.57247 11.5796 8.67113C11.5795 8.76979 11.5599 8.86746 11.522 8.95853C11.484 9.04961 11.4285 9.1323 11.3585 9.20188L8.53013 12.0303C8.46048 12.1 8.3778 12.1552 8.28681 12.1929C8.19581 12.2306 8.09828 12.25 7.99978 12.25C7.90129 12.25 7.80376 12.2306 7.71276 12.1929C7.62177 12.1552 7.53909 12.1 7.46944 12.0303L4.64104 9.20188C4.57108 9.1323 4.51554 9.04961 4.4776 8.95853C4.43966 8.86746 4.42006 8.76979 4.41992 8.67113C4.41979 8.57247 4.43912 8.47475 4.47682 8.38357C4.51451 8.29239 4.56983 8.20954 4.63959 8.13978C4.70936 8.07001 4.7922 8.0147 4.88338 7.977C4.97456 7.93931 5.07228 7.91997 5.17094 7.92011C5.2696 7.92024 5.36727 7.93984 5.45835 7.97779C5.54942 8.01573 5.63212 8.07127 5.70169 8.14122Z" fill="white"/>
<path d="M14.5 7.25C14.3011 7.25 14.1103 7.32902 13.9697 7.46967C13.829 7.61032 13.75 7.80109 13.75 8V13.75H2.25V8C2.25 7.80109 2.17098 7.61032 2.03033 7.46967C1.88968 7.32902 1.69891 7.25 1.5 7.25C1.30109 7.25 1.11032 7.32902 0.96967 7.46967C0.829018 7.61032 0.75 7.80109 0.75 8V14C0.75 14.3315 0.881696 14.6495 1.11612 14.8839C1.35054 15.1183 1.66848 15.25 2 15.25H14C14.3315 15.25 14.6495 15.1183 14.8839 14.8839C15.1183 14.6495 15.25 14.3315 15.25 14V8C15.25 7.80109 15.171 7.61032 15.0303 7.46967C14.8897 7.32902 14.6989 7.25 14.5 7.25Z" fill="white"/>
</svg>
