<svg width="28" height="28" viewBox="0 0 28 28" fill="none" xmlns="http://www.w3.org/2000/svg">
<path d="M25.5391 0H2.46094C1.104 0 0 1.104 0 2.46094V25.5391C0 26.896 1.104 28 2.46094 28H25.5391C26.896 28 28 26.896 28 25.5391V2.46094C28 1.104 26.896 0 25.5391 0ZM2.46094 1.64062H25.5391C25.9913 1.64062 26.3594 2.0087 26.3594 2.46094V6.61719H1.64062V2.46094C1.64062 2.0087 2.0087 1.64062 2.46094 1.64062ZM25.5391 26.3594H2.46094C2.0087 26.3594 1.64062 25.9913 1.64062 25.5391V8.25781H26.3594V25.5391C26.3594 25.9913 25.9913 26.3594 25.5391 26.3594Z" fill="black"/>
<path d="M4.97656 4.10156C4.97656 4.55466 4.60934 4.92188 4.15625 4.92188C3.70316 4.92188 3.33594 4.55466 3.33594 4.10156C3.33594 3.64847 3.70316 3.28125 4.15625 3.28125C4.60934 3.28125 4.97656 3.64847 4.97656 4.10156Z" fill="black"/>
<path d="M8.25781 4.10156C8.25781 4.55466 7.89059 4.92188 7.4375 4.92188C6.98441 4.92188 6.61719 4.55466 6.61719 4.10156C6.61719 3.64847 6.98441 3.28125 7.4375 3.28125C7.89059 3.28125 8.25781 3.64847 8.25781 4.10156Z" fill="black"/>
<path d="M11.5391 4.10156C11.5391 4.55466 11.1718 4.92188 10.7188 4.92188C10.2657 4.92188 9.89844 4.55466 9.89844 4.10156C9.89844 3.64847 10.2657 3.28125 10.7188 3.28125C11.1718 3.28125 11.5391 3.64847 11.5391 4.10156Z" fill="black"/>
<path d="M17.2812 4.92188H23.8438C24.2968 4.92188 24.6641 4.55466 24.6641 4.10156C24.6641 3.64847 24.2968 3.28125 23.8438 3.28125H17.2812C16.8282 3.28125 16.4609 3.64847 16.4609 4.10156C16.4609 4.55466 16.8282 4.92188 17.2812 4.92188Z" fill="black"/>
<path d="M17.2812 11.5938H8.40585L8.2467 10.6386C8.18069 10.243 7.83847 9.95312 7.4375 9.95312H4.15625C3.70316 9.95312 3.33594 10.3203 3.33594 10.7734C3.33594 11.2265 3.70316 11.5938 4.15625 11.5938H6.74258L7.64044 16.9811C7.02136 17.4284 6.61719 18.156 6.61719 18.9766C6.61719 20.3335 7.72119 21.4375 9.07812 21.4375H15.6406C16.0937 21.4375 16.4609 21.0703 16.4609 20.6172C16.4609 20.1641 16.0937 19.7969 15.6406 19.7969H9.07812C8.62589 19.7969 8.25781 19.4288 8.25781 18.9766C8.25781 18.5243 8.62589 18.1562 9.07812 18.1562H15.6406C15.9937 18.1562 16.3071 17.9302 16.4189 17.5953L18.0595 12.6734C18.2361 12.1432 17.8409 11.5938 17.2812 11.5938ZM15.0493 16.5156H9.22617L8.67929 13.2344H16.1431L15.0493 16.5156Z" fill="#38369A"/>
<path d="M23.8438 11.5938H20.5625C20.1094 11.5938 19.7422 11.961 19.7422 12.4141C19.7422 12.8672 20.1094 13.2344 20.5625 13.2344H23.8438C24.2968 13.2344 24.6641 12.8672 24.6641 12.4141C24.6641 11.961 24.2968 11.5938 23.8438 11.5938Z" fill="#38369A"/>
<path d="M23.8438 14.875H20.5625C20.1094 14.875 19.7422 15.2422 19.7422 15.6953C19.7422 16.1484 20.1094 16.5156 20.5625 16.5156H23.8438C24.2968 16.5156 24.6641 16.1484 24.6641 15.6953C24.6641 15.2422 24.2968 14.875 23.8438 14.875Z" fill="#38369A"/>
<path d="M23.8438 18.1562H20.5625C20.1094 18.1562 19.7422 18.5235 19.7422 18.9766C19.7422 19.4297 20.1094 19.7969 20.5625 19.7969H23.8438C24.2968 19.7969 24.6641 19.4297 24.6641 18.9766C24.6641 18.5235 24.2968 18.1562 23.8438 18.1562Z" fill="#38369A"/>
<path d="M23.8438 21.4375H20.5625C20.1094 21.4375 19.7422 21.8047 19.7422 22.2578C19.7422 22.7109 20.1094 23.0781 20.5625 23.0781H23.8438C24.2968 23.0781 24.6641 22.7109 24.6641 22.2578C24.6641 21.8047 24.2968 21.4375 23.8438 21.4375Z" fill="#38369A"/>
<path d="M8.25781 23.0781C8.25781 23.9828 8.99374 24.7188 9.89844 24.7188C10.8031 24.7188 11.5391 23.9828 11.5391 23.0781C11.5391 22.1734 10.8031 21.4375 9.89844 21.4375C8.99374 21.4375 8.25781 22.1734 8.25781 23.0781Z" fill="#38369A"/>
<path d="M13.1797 23.0781C13.1797 23.9828 13.9156 24.7188 14.8203 24.7188C15.725 24.7188 16.4609 23.9828 16.4609 23.0781C16.4609 22.1734 15.725 21.4375 14.8203 21.4375C13.9156 21.4375 13.1797 22.1734 13.1797 23.0781Z" fill="#38369A"/>
</svg>
