<svg width="28" height="28" viewBox="0 0 28 28" fill="none" xmlns="http://www.w3.org/2000/svg">
<path d="M27.1797 1.67529H0.820312C0.367281 1.67529 0 2.04257 0 2.49561V25.504C0 25.957 0.367281 26.3243 0.820312 26.3243H27.1797C27.6327 26.3243 28 25.957 28 25.504C28 25.1777 28 2.81372 28 2.49561C28 2.04257 27.6327 1.67529 27.1797 1.67529ZM1.64062 3.31592H26.3594V8.23779H1.64062V3.31592ZM1.64062 24.6836V9.87842H26.3594V24.6837H1.64062V24.6836Z" fill="black"/>
<path d="M6.12549 4.95654H4.10156C3.64853 4.95654 3.28125 5.32382 3.28125 5.77686C3.28125 6.22989 3.64853 6.59717 4.10156 6.59717H6.12549C6.57852 6.59717 6.9458 6.22989 6.9458 5.77686C6.9458 5.32382 6.57852 4.95654 6.12549 4.95654Z" fill="black"/>
<path d="M11.4311 4.95654H9.40712C8.95409 4.95654 8.58681 5.32382 8.58681 5.77686C8.58681 6.22989 8.95409 6.59717 9.40712 6.59717H11.4311C11.8841 6.59717 12.2514 6.22989 12.2514 5.77686C12.2514 5.32382 11.8841 4.95654 11.4311 4.95654Z" fill="black"/>
<path d="M13.7948 14.0923L10.347 12.4748C10.0021 12.3129 9.59143 12.4098 9.35518 12.7085L8.86305 13.3306C8.67782 13.5647 8.32345 13.5648 8.13822 13.3307L7.64609 12.7085C7.40989 12.4098 6.99908 12.3129 6.65427 12.4748L3.2065 14.0923C2.80291 14.2816 2.62441 14.7587 2.8046 15.1665L3.91246 17.6736C4.09304 18.0823 4.5674 18.2713 4.97947 18.0988L5.21397 18.0007V21.3444C5.21397 21.7975 5.58125 22.1647 6.03428 22.1647H10.967C11.42 22.1647 11.7873 21.7975 11.7873 21.3444V18.0007L12.0218 18.0988C12.4339 18.2713 12.9082 18.0823 13.0888 17.6736L14.1967 15.1665C14.3769 14.7587 14.1984 14.2816 13.7948 14.0923ZM11.9132 16.2748L11.2837 16.0113C10.7435 15.7852 10.1467 16.1829 10.1467 16.768V20.5241H6.8546V16.768C6.8546 16.1815 6.2562 15.7858 5.71759 16.0113L5.08802 16.2748L4.62942 15.2369L6.76261 14.2361L6.85148 14.3485C7.25272 14.8557 7.85385 15.1467 8.50063 15.1467C9.14742 15.1467 9.74849 14.8557 10.1498 14.3485L10.2387 14.2361L12.3719 15.237L11.9132 16.2748Z" fill="#38369A"/>
<path d="M23.8984 6.59717C24.3515 6.59717 24.7188 6.2299 24.7188 5.77686C24.7188 5.32381 24.3515 4.95654 23.8984 4.95654C23.4454 4.95654 23.0781 5.32381 23.0781 5.77686C23.0781 6.2299 23.4454 6.59717 23.8984 6.59717Z" fill="black"/>
<path d="M23.898 13.1797H17.3696C16.9166 13.1797 16.5493 13.547 16.5493 14C16.5493 14.453 16.9166 14.8203 17.3696 14.8203H23.898C24.351 14.8203 24.7183 14.453 24.7183 14C24.7183 13.547 24.351 13.1797 23.898 13.1797Z" fill="#38369A"/>
<path d="M17.3696 18.1016H20.6167C21.0697 18.1016 21.437 17.7343 21.437 17.2812C21.437 16.8282 21.0697 16.4609 20.6167 16.4609H17.3696C16.9166 16.4609 16.5493 16.8282 16.5493 17.2812C16.5493 17.7343 16.9166 18.1016 17.3696 18.1016Z" fill="#38369A"/>
<path d="M23.898 19.7422H17.3696C16.9166 19.7422 16.5493 20.1095 16.5493 20.5625C16.5493 21.0155 16.9166 21.3828 17.3696 21.3828H23.898C24.351 21.3828 24.7183 21.0155 24.7183 20.5625C24.7183 20.1095 24.351 19.7422 23.898 19.7422Z" fill="#38369A"/>
</svg>
