<svg width="28" height="28" viewBox="0 0 28 28" fill="none" xmlns="http://www.w3.org/2000/svg">
<path d="M17.2812 5.79688C17.7343 5.79688 18.1016 5.42961 18.1016 4.97656C18.1016 4.52352 17.7343 4.15625 17.2812 4.15625C16.8282 4.15625 16.4609 4.52352 16.4609 4.97656C16.4609 5.42961 16.8282 5.79688 17.2812 5.79688Z" fill="#38369A"/>
<path d="M20.5625 5.79688C21.0155 5.79688 21.3828 5.42961 21.3828 4.97656C21.3828 4.52352 21.0155 4.15625 20.5625 4.15625C20.1095 4.15625 19.7422 4.52352 19.7422 4.97656C19.7422 5.42961 20.1095 5.79688 20.5625 5.79688Z" fill="#38369A"/>
<path d="M23.8438 5.79688C24.2968 5.79688 24.6641 5.42961 24.6641 4.97656C24.6641 4.52352 24.2968 4.15625 23.8438 4.15625C23.3907 4.15625 23.0234 4.52352 23.0234 4.97656C23.0234 5.42961 23.3907 5.79688 23.8438 5.79688Z" fill="#38369A"/>
<path d="M27.1797 0.875H0.820312C0.367281 0.875 0 1.24228 0 1.69531V21.3828C0 21.8358 0.367281 22.2031 0.820312 22.2031H9.89844V25.4844H9.07812C8.62509 25.4844 8.25781 25.8517 8.25781 26.3047C8.25781 26.7577 8.62509 27.125 9.07812 27.125H18.9219C19.3749 27.125 19.7422 26.7577 19.7422 26.3047C19.7422 25.8517 19.3749 25.4844 18.9219 25.4844H18.1016V22.2031H27.1797C27.6327 22.2031 28 21.8358 28 21.3828V1.69531C28 1.24228 27.6327 0.875 27.1797 0.875ZM16.4609 25.4844H11.5391V22.2031H16.4609V25.4844ZM26.3594 20.5625H1.64062V2.51562H26.3594V20.5625Z" fill="black"/>
<path d="M4.15645 18.9219H14.0002C14.2528 18.9219 14.4913 18.8055 14.6468 18.6064C14.8022 18.4073 14.8573 18.1477 14.796 17.9026L13.1799 11.4381V4.97656C13.1799 4.52353 12.8126 4.15625 12.3596 4.15625C11.9065 4.15625 11.5393 4.52353 11.5393 4.97656V6.61719C11.5393 7.06951 11.1713 7.4375 10.719 7.4375H7.4377C6.98538 7.4375 6.61739 7.06951 6.61739 6.61719V4.97656C6.61739 4.52353 6.25011 4.15625 5.79708 4.15625C5.34405 4.15625 4.97676 4.52353 4.97676 4.97656V11.4381L3.36064 17.9026C3.29939 18.1477 3.35446 18.4073 3.50988 18.6064C3.66536 18.8055 3.90385 18.9219 4.15645 18.9219ZM6.61739 8.93703C6.87415 9.02809 7.15016 9.07812 7.4377 9.07812H10.719C11.0065 9.07812 11.2825 9.02809 11.5393 8.93703V10.7188H6.61739V8.93703ZM6.43752 12.3594H11.7191L12.9495 17.2812H5.20705L6.43752 12.3594Z" fill="#38369A"/>
<path d="M21.922 15.7815L23.6621 14.0414C23.8761 13.8274 23.9549 13.5132 23.8672 13.2236C23.7795 12.9341 23.5396 12.7163 23.2429 12.657L17.4425 11.4969C17.1737 11.4431 16.8955 11.5273 16.7016 11.7212C16.5076 11.9151 16.4234 12.1932 16.4772 12.4621L17.6373 18.2626C17.6966 18.5592 17.9144 18.7992 18.204 18.8869C18.4936 18.9745 18.8078 18.8957 19.0217 18.6818L20.7619 16.9416L22.502 18.6818C22.8223 19.0021 23.3418 19.0022 23.6621 18.6818C23.9825 18.3614 23.9825 17.8421 23.6621 17.5217L21.922 15.7815ZM18.9454 16.4378L18.3272 13.347L21.4181 13.9652L18.9454 16.4378Z" fill="#38369A"/>
<path d="M17.2812 9.07812H23.8438C24.2968 9.07812 24.6641 8.71084 24.6641 8.25781C24.6641 7.80478 24.2968 7.4375 23.8438 7.4375H17.2812C16.8282 7.4375 16.4609 7.80478 16.4609 8.25781C16.4609 8.71084 16.8282 9.07812 17.2812 9.07812Z" fill="#38369A"/>
</svg>
