<svg width="12" height="12" viewBox="0 0 12 12" fill="none" xmlns="http://www.w3.org/2000/svg">
<g clip-path="url(#clip0)">
<path d="M9.85701 6.00021C9.62031 6.00021 9.42843 6.19209 9.42843 6.42878V10.7144C9.42843 10.9511 9.23656 11.143 8.99986 11.143H1.2857C1.049 11.143 0.857123 10.9511 0.857123 10.7144V2.14312C0.857123 1.90642 1.049 1.71454 1.2857 1.71454H6.42849C6.66519 1.71454 6.85706 1.52267 6.85706 1.28597C6.85706 1.04927 6.66519 0.857422 6.42849 0.857422H1.2857C0.575626 0.857422 0 1.43305 0 2.14312V10.7144C0 11.4245 0.575626 12.0001 1.2857 12.0001H8.99988C9.70995 12.0001 10.2856 11.4245 10.2856 10.7144V6.42876C10.2856 6.19209 10.0937 6.00021 9.85701 6.00021Z" fill="#E28C14"/>
<path d="M11.5195 0.480586C11.2118 0.172823 10.7944 -4.34422e-05 10.3592 6.78033e-06C9.92378 -0.00124878 9.50598 0.171919 9.19912 0.480863L3.55402 6.12548C3.50719 6.17266 3.47186 6.23001 3.45074 6.29304L2.59362 8.86444C2.51881 9.08901 2.64022 9.33168 2.86479 9.40646C2.90836 9.42098 2.95399 9.42839 2.99989 9.42844C3.0459 9.42836 3.09162 9.42098 3.13532 9.40659L5.70671 8.54947C5.76987 8.52837 5.82725 8.49287 5.87428 8.44576L11.5194 2.80069C12.1601 2.16005 12.1601 1.1213 11.5195 0.480586ZM10.9134 2.19511L5.342 7.76647L3.67744 8.32231L4.23158 6.65989L9.80508 1.08856C10.1115 0.78275 10.6078 0.783253 10.9136 1.08966C11.0597 1.23603 11.142 1.43419 11.1426 1.64098C11.1432 1.84887 11.0606 2.04836 10.9134 2.19511Z" fill="#E28C14"/>
</g>
<defs>
<clipPath id="clip0">
<rect width="12" height="12" fill="white"/>
</clipPath>
</defs>
</svg>
