<svg width="20" height="20" viewBox="0 0 20 20" fill="none" xmlns="http://www.w3.org/2000/svg">
<g clip-path="url(#clip0)">
<path d="M11.6764 7.52615L11.6167 7.51429V7.5752V8.42519V8.46629L11.657 8.47425L18.8315 9.89082C18.9989 9.92744 19.1167 10.0811 19.1167 10.2502V18.7502C19.1167 18.9553 18.948 19.1169 18.75 19.1169H11.6667H11.6167V19.1669V19.5835C11.6167 19.7892 11.4557 19.9502 11.25 19.9502V20.0002V20.0502H18.75C19.4693 20.0502 20.05 19.4695 20.05 18.7502V10.2502C20.05 9.6349 19.6335 9.11449 19.0187 8.98461L19.0187 8.9846L19.0181 8.98449L11.6764 7.52615Z" fill="#B1B5B9" stroke="#B1B5B9" stroke-width="0.1"/>
<path d="M16.7155 12.0837C16.7155 11.8227 16.5098 11.617 16.2489 11.617H14.5822C14.3212 11.617 14.1155 11.8227 14.1155 12.0837C14.1155 12.3446 14.3212 12.5503 14.5822 12.5503H16.2489C16.5098 12.5503 16.7155 12.3446 16.7155 12.0837Z" fill="#B1B5B9" stroke="#B1B5B9" stroke-width="0.1"/>
<path d="M16.7155 14.5837C16.7155 14.3227 16.5098 14.117 16.2489 14.117H14.5822C14.3212 14.117 14.1155 14.3227 14.1155 14.5837C14.1155 14.8446 14.3212 15.0503 14.5822 15.0503H16.2489C16.5098 15.0503 16.7155 14.8446 16.7155 14.5837Z" fill="#B1B5B9" stroke="#B1B5B9" stroke-width="0.1"/>
<path d="M16.7155 17.0832C16.7155 16.8222 16.5098 16.6165 16.2489 16.6165H14.5822C14.3212 16.6165 14.1155 16.8222 14.1155 17.0832C14.1155 17.3441 14.3212 17.5498 14.5822 17.5498H16.2489C16.5098 17.5498 16.7155 17.3441 16.7155 17.0832Z" fill="#B1B5B9" stroke="#B1B5B9" stroke-width="0.1"/>
<path d="M11.6678 19.5832C11.6678 19.8165 11.4845 19.9999 11.2511 19.9999C11.0178 19.9999 10.8345 19.8165 10.8345 19.5832V19.1665V7.91654C10.8345 7.79154 10.8928 7.67487 10.9845 7.59154C11.0845 7.51654 11.2095 7.48321 11.3345 7.50821L11.6678 7.57487V8.42487V19.1665V19.5832Z" fill="#B1B5B9"/>
<path d="M10.8322 19.1665V19.5832C10.8322 19.8165 11.0155 19.9998 11.2489 19.9998H7.91553C8.14886 19.9998 8.33219 19.8165 8.33219 19.5832V19.1665H10.8322Z" fill="#B1B5B9"/>
<path d="M9.21553 4.58366C9.21553 4.32271 9.00981 4.11699 8.74886 4.11699H7.08219C6.82125 4.11699 6.61553 4.32271 6.61553 4.58366C6.61553 4.84461 6.82125 5.05033 7.08219 5.05033H8.74886C9.00981 5.05033 9.21553 4.84461 9.21553 4.58366Z" fill="#B1B5B9" stroke="#B1B5B9" stroke-width="0.1"/>
<path d="M8.74886 7.55033C9.00981 7.55033 9.21553 7.34461 9.21553 7.08366C9.21553 6.82271 9.00981 6.61699 8.74886 6.61699H7.08219C6.82125 6.61699 6.61553 6.82271 6.61553 7.08366C6.61553 7.34461 6.82125 7.55033 7.08219 7.55033H8.74886Z" fill="#B1B5B9" stroke="#B1B5B9" stroke-width="0.1"/>
<path d="M9.21553 9.58366C9.21553 9.32271 9.00981 9.11699 8.74886 9.11699H7.08219C6.82125 9.11699 6.61553 9.32271 6.61553 9.58366C6.61553 9.8446 6.82125 10.0503 7.08219 10.0503H8.74886C9.00981 10.0503 9.21553 9.8446 9.21553 9.58366Z" fill="#B1B5B9" stroke="#B1B5B9" stroke-width="0.1"/>
<path d="M9.21553 12.0837C9.21553 11.8227 9.00981 11.617 8.74886 11.617H7.08219C6.82125 11.617 6.61553 11.8227 6.61553 12.0837C6.61553 12.3446 6.82125 12.5503 7.08219 12.5503H8.74886C9.00981 12.5503 9.21553 12.3446 9.21553 12.0837Z" fill="#B1B5B9" stroke="#B1B5B9" stroke-width="0.1"/>
<path d="M4.58333 12.5503C4.84428 12.5503 5.05 12.3446 5.05 12.0837C5.05 11.8227 4.84428 11.617 4.58333 11.617H2.91667C2.65572 11.617 2.45 11.8227 2.45 12.0837C2.45 12.3446 2.65572 12.5503 2.91667 12.5503H4.58333Z" fill="#B1B5B9" stroke="#B1B5B9" stroke-width="0.1"/>
<path d="M5.05 4.58366C5.05 4.32271 4.84428 4.11699 4.58333 4.11699H2.91667C2.65572 4.11699 2.45 4.32271 2.45 4.58366C2.45 4.84461 2.65572 5.05033 2.91667 5.05033H4.58333C4.84428 5.05033 5.05 4.84461 5.05 4.58366Z" fill="#B1B5B9" stroke="#B1B5B9" stroke-width="0.1"/>
<path d="M5.05 7.08366C5.05 6.82271 4.84428 6.61699 4.58333 6.61699H2.91667C2.65572 6.61699 2.45 6.82271 2.45 7.08366C2.45 7.34461 2.65572 7.55033 2.91667 7.55033H4.58333C4.84428 7.55033 5.05 7.34461 5.05 7.08366Z" fill="#B1B5B9" stroke="#B1B5B9" stroke-width="0.1"/>
<path d="M5.05 9.58366C5.05 9.32271 4.84428 9.11699 4.58333 9.11699H2.91667C2.65572 9.11699 2.45 9.32271 2.45 9.58366C2.45 9.8446 2.65572 10.0503 2.91667 10.0503H4.58333C4.84428 10.0503 5.05 9.8446 5.05 9.58366Z" fill="#B1B5B9" stroke="#B1B5B9" stroke-width="0.1"/>
<path d="M4.16781 19.217H4.21781V19.167V15.417C4.21781 15.2113 4.37875 15.0503 4.58447 15.0503H7.08447C7.28251 15.0503 7.45114 15.2119 7.45114 15.417V19.167V19.217H7.50114H8.33447H8.38447V19.167V15.417C8.38447 14.6977 7.80375 14.117 7.08447 14.117H4.58447C3.86519 14.117 3.28447 14.6977 3.28447 15.417V19.167V19.217H3.33447H4.16781Z" fill="#B1B5B9" stroke="#B1B5B9" stroke-width="0.1"/>
<path d="M4.16781 19.1665H7.50114H8.33447V19.5832C8.33447 19.8165 8.15114 19.9998 7.91781 19.9998H3.75114C3.51781 19.9998 3.33447 19.8165 3.33447 19.5832V19.1665H4.16781Z" fill="#B1B5B9"/>
<path d="M10.6248 1.50894L10.6242 1.50885L1.46619 0.117236C1.46613 0.117227 1.46607 0.117217 1.46602 0.117208C1.08539 0.0567034 0.704137 0.160524 0.409548 0.411626C0.11441 0.654853 -0.05 1.01912 -0.05 1.39995V18.7499C-0.05 19.4692 0.530719 20.0499 1.25 20.0499H3.75V19.9999V19.9499C3.54428 19.9499 3.38333 19.789 3.38333 19.5833V19.1666V19.1166H3.33333H1.25C1.05196 19.1166 0.883333 18.955 0.883333 18.7499V1.39995C0.883333 1.28992 0.926639 1.19561 1.01534 1.12169L1.01536 1.12171L1.01655 1.12065C1.08202 1.06245 1.16173 1.03328 1.25 1.03328C1.27613 1.03328 1.29307 1.03368 1.30919 1.03905L1.30895 1.03976L1.31753 1.04105L10.4751 2.42427C10.4752 2.42429 10.4754 2.42431 10.4755 2.42433C10.6511 2.45378 10.7833 2.60774 10.7833 2.79161V7.91661H10.8333H10.8833C10.8833 7.80819 10.9337 7.70515 11.0152 7.6302C11.1046 7.56395 11.2145 7.5355 11.3235 7.55731L11.6569 7.62398L11.7167 7.63594V7.57495V2.79161C11.7167 2.15029 11.2571 1.61289 10.6248 1.50894Z" fill="#B1B5B9" stroke="#B1B5B9" stroke-width="0.1"/>
</g>
<defs>
<clipPath id="clip0">
<rect width="20" height="20" fill="white"/>
</clipPath>
</defs>
</svg>
