<svg width="93" height="32" viewBox="0 0 93 32" fill="none" xmlns="http://www.w3.org/2000/svg">
<path fill-rule="evenodd" clip-rule="evenodd" d="M69.5175 11.0116C67.7598 5.25233 53.1551 0.758325 35.3998 0.758325C16.4594 0.758325 1.10479 5.87208 1.10479 12.1804C1.10479 18.4883 16.4594 23.6021 35.3998 23.6021C53.1551 23.6021 67.7598 19.1081 69.5175 13.3492V24.3887H0.444336V0.388672H69.5175V11.0116ZM16.4764 16.9248H10.6344C10.4721 16.9248 10.4073 16.8597 10.4937 16.7613C10.5615 16.6847 10.6781 16.1623 10.6781 15.6072V9.11795C10.6781 8.56238 10.5615 8.04045 10.4937 7.96382C10.4073 7.86548 10.4721 7.80034 10.6344 7.80034H16.4764C16.6391 7.80034 16.704 7.86548 16.6175 7.96382C16.5493 8.04045 16.4328 8.56238 16.4328 9.11795V15.6072C16.4328 16.1623 16.5493 16.6847 16.6175 16.7613C16.704 16.8597 16.6391 16.9248 16.4764 16.9248ZM25.2718 11.0574L27.3978 8.15956C27.4846 8.07229 27.441 7.95266 27.441 7.89817C27.441 7.84368 27.441 7.80025 27.4846 7.80025H33.2503C33.3262 7.80025 33.294 7.85475 33.2614 7.89817L30.8875 11.2299C30.7794 11.3716 30.801 11.5023 30.9095 11.6441L34.1716 16.8268C34.2042 16.8702 34.2364 16.9247 34.161 16.9247H27.116C27.0727 16.9247 27.0727 16.8809 27.0727 16.8268C27.0727 16.7723 27.1808 16.304 27.0944 16.2168L25.2735 13.4176V15.6075C25.2735 16.1623 25.3896 16.6846 25.4578 16.7612C25.5447 16.8596 25.4794 16.9247 25.3167 16.9247H19.6484C19.4861 16.9247 19.4209 16.8596 19.5078 16.7612C19.5756 16.6846 19.6921 16.1623 19.6921 15.6075V9.11786C19.6921 8.56229 19.5756 8.04036 19.5078 7.96373C19.4209 7.86539 19.4861 7.80025 19.6484 7.80025H25.3167C25.4794 7.80025 25.5447 7.86539 25.4578 7.96373C25.3896 8.04036 25.2735 8.56229 25.2735 9.11786L25.2718 11.0574ZM41.6284 13.5369L41.6279 14.0376C41.6279 14.0742 41.6419 14.2015 41.7911 14.2015H45.0147C45.5617 14.2015 46.0757 14.0857 46.152 14.018C46.2478 13.932 46.3126 13.9967 46.3126 14.1581V16.8439L36.1568 16.8443C35.9962 16.8443 35.9322 16.7796 36.0182 16.683C36.0851 16.6068 36.2 16.09 36.2 15.5408V9.11965C36.2 8.57004 36.0851 8.05364 36.0182 7.97744C35.9322 7.88038 35.9966 7.79906 36.1572 7.79906H46.3131V10.327C46.3131 10.4883 46.2486 10.553 46.1525 10.4671C46.0766 10.3994 45.5622 10.2836 45.0155 10.2836H41.7915C41.6424 10.2836 41.6284 10.4113 41.6284 10.4475L41.6279 10.8906C41.6279 10.9268 41.6419 11.0541 41.7911 11.0541H44.0345C44.2663 11.0541 45.0994 11.0826 45.1706 11.0107C45.2426 10.9388 45.3316 10.9835 45.3316 11.1205V13.3075C45.3316 13.4441 45.2426 13.4892 45.171 13.4169C45.0994 13.3449 44.2663 13.3734 44.0345 13.3734H41.7911C41.6419 13.3734 41.6284 13.5007 41.6284 13.5369ZM53.7987 13.3889H54.881C54.956 13.3825 54.9653 13.3033 54.9437 13.2488L54.4182 11.9976C54.397 11.9615 54.3852 11.9248 54.3394 11.9248C54.2945 11.9248 54.2826 11.9615 54.261 11.9976L53.7355 13.2488C53.7139 13.3033 53.7228 13.3825 53.7987 13.3889ZM62.404 16.8441H56.3345C56.2196 16.8441 56.1955 16.7896 56.2315 16.7108C56.2679 16.6316 56.2679 16.4494 56.2137 16.3157L55.9535 15.4477C55.8692 15.2046 55.7484 15.1684 55.5425 15.1684H53.4088C53.2033 15.1684 53.0825 15.2046 52.9973 15.4477L52.7376 16.3157C52.6833 16.4494 52.6833 16.6316 52.7194 16.7108C52.7558 16.7896 52.7317 16.8441 52.6168 16.8441H47.7626C47.7626 16.8441 50.7489 8.79112 50.7972 8.65744C50.8455 8.52419 50.8938 8.29345 50.809 8.08655C50.7247 7.8805 50.7972 7.83197 50.9421 7.83197H58.8376C58.9821 7.83197 59.055 7.8805 58.9703 8.08655C58.8859 8.29345 58.9338 8.52419 58.9821 8.65744C59.0309 8.79112 62.404 16.8441 62.404 16.8441Z" fill="white"/>
</svg>
