<svg width="81" height="28" viewBox="0 0 81 28" fill="none" xmlns="http://www.w3.org/2000/svg">
<g clip-path="url(#clip0)">
<rect width="81" height="28" fill="#FFE177"/>
<path fill-rule="evenodd" clip-rule="evenodd" d="M81.0002 11.9778C78.9235 5.51035 61.6679 0.463696 40.6899 0.463696C18.3116 0.463696 0.169984 6.20632 0.169984 13.2904C0.169984 20.374 18.3116 26.1167 40.6899 26.1167C61.6679 26.1167 78.9235 21.07 81.0002 14.6029V27H-0.610352V0.048584H81.0002V11.9778ZM18.3317 18.6183H11.4293C11.2376 18.6183 11.161 18.5451 11.2631 18.4347C11.3432 18.3486 11.4809 17.762 11.4809 17.1386V9.85135C11.4809 9.22746 11.3432 8.64134 11.2631 8.55529C11.161 8.44485 11.2376 8.37171 11.4293 8.37171H18.3317C18.524 8.37171 18.6006 8.44485 18.4984 8.55529C18.4178 8.64134 18.2801 9.22746 18.2801 9.85135V17.1386C18.2801 17.762 18.4178 18.3486 18.4984 18.4347C18.6006 18.5451 18.524 18.6183 18.3317 18.6183ZM28.7235 12.0294L31.2354 8.77511C31.338 8.6771 31.2864 8.54276 31.2864 8.48157C31.2864 8.42037 31.2865 8.37161 31.338 8.37161H38.1503C38.2399 8.37161 38.2018 8.43281 38.1633 8.48157L35.3585 12.223C35.2308 12.3822 35.2563 12.5289 35.3845 12.6881L39.2387 18.5082C39.2773 18.557 39.3153 18.6182 39.2262 18.6182H30.9024C30.8514 18.6182 30.8514 18.5689 30.8514 18.5082C30.8514 18.447 30.979 17.9211 30.8769 17.8231L28.7255 14.6798V17.139C28.7255 17.7619 28.8627 18.3485 28.9433 18.4346C29.0459 18.545 28.9688 18.6182 28.7766 18.6182H22.0795C21.8877 18.6182 21.8106 18.545 21.9132 18.4346C21.9934 18.3485 22.131 17.7619 22.131 17.139V9.85125C22.131 9.22736 21.9934 8.64124 21.9132 8.55519C21.8106 8.44476 21.8877 8.37161 22.0795 8.37161H28.7766C28.9688 8.37161 29.0459 8.44476 28.9433 8.55519C28.8627 8.64124 28.7255 9.22736 28.7255 9.85125L28.7235 12.0294ZM48.049 14.8138L48.0485 15.376C48.0485 15.4171 48.065 15.56 48.2412 15.56H52.0499C52.6963 15.56 53.3036 15.43 53.3937 15.354C53.5069 15.2574 53.5835 15.3301 53.5835 15.5113V18.5274L41.5842 18.5279C41.3944 18.5279 41.3188 18.4552 41.4205 18.3467C41.4996 18.2611 41.6353 17.6808 41.6353 17.064V9.85326C41.6353 9.23606 41.4996 8.65616 41.4205 8.57059C41.3188 8.46159 41.395 8.37027 41.5847 8.37027H53.584V11.2091C53.584 11.3903 53.5079 11.4629 53.3942 11.3664C53.3046 11.2903 52.6968 11.1603 52.0509 11.1603H48.2417C48.0655 11.1603 48.049 11.3037 48.049 11.3444L48.0485 11.842C48.0485 11.8827 48.065 12.0256 48.2412 12.0256H50.8918C51.1657 12.0256 52.15 12.0577 52.2341 11.9769C52.3193 11.8961 52.4244 11.9463 52.4244 12.1002V14.5561C52.4244 14.7095 52.3193 14.7602 52.2346 14.6789C52.15 14.5981 51.1657 14.6302 50.8918 14.6302H48.2412C48.065 14.6302 48.049 14.7731 48.049 14.8138ZM62.4283 14.6475H63.707C63.7957 14.6404 63.8067 14.5514 63.7811 14.4902L63.1603 13.0852C63.1353 13.0445 63.1212 13.0034 63.0672 13.0034C63.0141 13.0034 63.0001 13.0445 62.9745 13.0852L62.3537 14.4902C62.3282 14.5514 62.3387 14.6404 62.4283 14.6475ZM72.5956 18.5276H65.4244C65.2887 18.5276 65.2601 18.4664 65.3027 18.3779C65.3458 18.289 65.3458 18.0844 65.2817 17.9343L64.9743 16.9595C64.8746 16.6865 64.7319 16.6459 64.4886 16.6459H61.9677C61.7248 16.6459 61.5822 16.6865 61.4815 16.9595L61.1746 17.9343C61.1105 18.0844 61.1105 18.289 61.1531 18.3779C61.1961 18.4664 61.1676 18.5276 61.0319 18.5276H55.2966C55.2966 18.5276 58.8249 9.48433 58.882 9.33421C58.9391 9.18458 58.9962 8.92546 58.896 8.69312C58.7964 8.46173 58.882 8.40723 59.0532 8.40723H68.3819C68.5526 8.40723 68.6387 8.46173 68.5386 8.69312C68.4389 8.92546 68.4955 9.18458 68.5526 9.33421C68.6102 9.48433 72.5956 18.5276 72.5956 18.5276Z" fill="#0182FC"/>
</g>
<defs>
<clipPath id="clip0">
<rect width="81" height="28" fill="white"/>
</clipPath>
</defs>
</svg>
