<svg width="98" height="98" viewBox="0 0 98 98" fill="none" xmlns="http://www.w3.org/2000/svg">
<path d="M97.9998 70.1197C97.9998 85.4935 85.4933 97.9999 70.1195 97.9999H63.0165C55.5708 97.9999 48.5691 95.1001 43.3016 89.8345C38.036 84.567 35.1362 77.5654 35.1362 70.1197C35.1362 54.7479 47.6427 42.2395 63.0165 42.2395H64.7889L66.8695 41.4183L83.7496 34.7612C84.5726 34.4358 85.499 34.5086 86.2608 34.9584C87.0226 35.4082 87.5356 36.1834 87.6504 37.0619L89.3176 49.9034C89.4899 50.0661 89.6602 50.2326 89.8306 50.401C95.1 55.6704 97.9998 62.6721 97.9998 70.1197Z" fill="#BDE239"/>
<path d="M63.365 27.8764V28.3262C63.365 43.6961 50.8605 56.2026 35.4905 56.2026H27.8898L11.3064 63.4684C10.937 63.6292 10.5446 63.7096 10.1541 63.7096C9.65262 63.7096 9.15496 63.5794 8.70898 63.321C7.91848 62.8597 7.39402 62.0482 7.29832 61.1371L5.61969 45.1125C1.98871 40.3006 0 34.3727 0 28.3262V27.8764C0 12.5065 12.5046 0 27.8745 0H35.4905C50.8605 0 63.365 12.5065 63.365 27.8764Z" fill="#4793FF"/>
<path d="M63.3654 27.8764V28.3262C63.3654 43.6961 50.8608 56.2026 35.4909 56.2026H31.6819V0H35.4909C50.8608 0 63.3654 12.5065 63.3654 27.8764Z" fill="#525CDD"/>
<path d="M45.5817 43.2884C45.0189 44.0598 44.1461 44.4675 43.2599 44.4675C42.6723 44.4675 42.0789 44.2876 41.5698 43.9143C41.432 43.8148 38.1666 41.4126 35.2381 37.7778C35.0084 37.4926 34.7806 37.2017 34.5547 36.9069V41.5964C34.5547 43.1812 33.2685 44.4675 31.6836 44.4675H31.6817C30.0969 44.4656 28.8125 43.1812 28.8125 41.5964V36.9069C28.5867 37.2017 28.3608 37.4926 28.1292 37.7778C25.2007 41.4126 21.9353 43.8148 21.7975 43.9143C21.2884 44.2876 20.695 44.4675 20.1074 44.4675C19.2212 44.4675 18.3484 44.0598 17.7856 43.2884C16.8516 42.0079 17.131 40.2125 18.4115 39.2766C18.4364 39.2593 21.2233 37.1979 23.6599 34.1756C25.8974 31.3964 27.9972 27.8821 28.8125 26.4715V23.3439H20.1055C18.5187 23.3439 17.2344 22.0596 17.2344 20.4728C17.2344 18.888 18.5187 17.6017 20.1055 17.6017H28.8125V14.6062C28.8125 13.0214 30.0969 11.737 31.6817 11.7351H31.6836C33.2685 11.7351 34.5547 13.0214 34.5547 14.6062V17.6017H43.2618C44.8486 17.6017 46.1329 18.888 46.1329 20.4728C46.1329 22.0596 44.8486 23.3439 43.2618 23.3439H34.5547V26.4696C35.372 27.8841 37.4756 31.404 39.7093 34.1756C42.1689 37.2266 44.927 39.2574 44.9558 39.2766C46.2363 40.2125 46.5157 42.0079 45.5817 43.2884Z" fill="#F0F7FF"/>
<path d="M45.5818 43.2884C45.0191 44.0598 44.1463 44.4675 43.2601 44.4675C42.6724 44.4675 42.0791 44.2876 41.5699 43.9143C41.4321 43.8148 38.1667 41.4126 35.2382 37.7778C35.0085 37.4926 34.7808 37.2017 34.5549 36.9069V41.5964C34.5549 43.1812 33.2686 44.4675 31.6838 44.4675H31.6819V11.7351H31.6838C33.2686 11.7351 34.5549 13.0214 34.5549 14.6062V17.6017H43.262C44.8487 17.6017 46.1331 18.888 46.1331 20.4728C46.1331 22.0596 44.8487 23.3439 43.262 23.3439H34.5549V26.4696C35.3722 27.8841 37.4758 31.404 39.7095 34.1756C42.169 37.2266 44.9272 39.2574 44.9559 39.2766C46.2364 40.2125 46.5159 42.0079 45.5818 43.2884Z" fill="#DFE7F4"/>
<path d="M97.9997 70.1197C97.9997 85.4935 85.4932 97.9999 70.1195 97.9999H66.8694V41.4183L83.7495 34.7612C84.5725 34.4358 85.499 34.5086 86.2607 34.9584C87.0225 35.4082 87.5355 36.1834 87.6504 37.0619L89.3175 49.9034C89.4898 50.0661 89.6601 50.2326 89.8305 50.401C95.0999 55.6704 97.9997 62.6721 97.9997 70.1197Z" fill="#8BBC43"/>
<path d="M78.9612 79.983L76.3944 73.946V73.9441L69.6244 58.0114C69.1803 56.9664 68.1621 56.2811 67.027 56.2639C66.9734 56.2639 66.9218 56.2639 66.8701 56.2677C65.7905 56.306 64.8297 56.9472 64.3761 57.9291L57.0069 73.8618C57.0069 73.8618 57.005 73.8618 57.005 73.8637L54.2143 79.9007C53.5482 81.34 54.176 83.0455 55.6154 83.7116C56.0039 83.8915 56.4136 83.9776 56.8174 83.9776C57.9027 83.9776 58.9401 83.3594 59.4263 82.3105L61.4475 77.9368H71.8524L73.6765 82.2282C74.1397 83.3211 75.202 83.9776 76.3198 83.9776C76.693 83.9776 77.0739 83.903 77.4414 83.7479C78.9 83.1278 79.5814 81.4415 78.9612 79.983ZM64.1043 72.1946L66.8701 66.2132L69.412 72.1946H64.1043Z" fill="#F0F7FF"/>
<path d="M77.4407 83.7479C77.0732 83.903 76.6923 83.9776 76.3191 83.9776C75.2013 83.9776 74.139 83.3211 73.6758 82.2282L71.8517 77.9368H66.8694V72.1946H69.4113L66.8694 66.2132V56.2677C66.9211 56.2639 66.9727 56.2639 67.0263 56.2639C68.1614 56.2811 69.1797 56.9664 69.6237 58.0114L76.3937 73.9441V73.946L78.9605 79.983C79.5806 81.4415 78.8992 83.1278 77.4407 83.7479Z" fill="#DFE7F4"/>
</svg>
