<svg width="70" height="28" viewBox="0 0 70 28" fill="none" xmlns="http://www.w3.org/2000/svg">
<path d="M49.5821 18.1944C49.5821 12.6776 53.9746 8.42882 59.446 8.42882C64.9173 8.42882 69.3082 12.6776 69.3082 18.1944C69.3082 18.2392 69.3082 18.2824 69.3082 18.3273L69.2778 27.1611C69.2753 27.3859 69.1523 27.592 68.9558 27.7007C68.7593 27.8094 68.5196 27.8038 68.3284 27.6862L65.4944 25.9572C63.7524 27.2727 61.6275 27.9791 59.446 27.9681C53.9746 27.9681 49.5821 23.7111 49.5821 18.1944ZM60.4945 23.6103C60.69 23.4961 60.8343 23.3109 60.8973 23.0932C60.9022 23.0719 60.8951 23.0497 60.8787 23.0353C60.8623 23.0209 60.8394 23.0167 60.819 23.0244C60.662 23.0843 60.4945 23.1116 60.3267 23.1044C59.9958 23.0884 59.772 22.9187 59.5035 22.9187C59.235 22.9187 59.0112 23.0884 58.6803 23.1044C58.5125 23.1117 58.3449 23.0845 58.188 23.0244C58.1676 23.0167 58.1447 23.0209 58.1283 23.0353C58.1119 23.0497 58.1048 23.0719 58.1097 23.0932C58.1723 23.3112 58.3166 23.4964 58.5125 23.6103C58.5218 23.6161 58.533 23.6178 58.5435 23.6151C58.5541 23.6123 58.5631 23.6054 58.5684 23.5959C58.5896 23.5583 58.6136 23.5224 58.6404 23.4886C58.6477 23.4772 58.6604 23.4703 58.6739 23.4703C58.6875 23.4703 58.7001 23.4772 58.7075 23.4886C58.7934 23.6197 58.8908 23.7429 58.9984 23.8568C59.006 23.8669 59.0178 23.8728 59.0304 23.8728C59.043 23.8728 59.0548 23.8669 59.0623 23.8568C59.099 23.8082 59.1408 23.7636 59.187 23.724C59.1948 23.716 59.2055 23.7116 59.2166 23.7116C59.2277 23.7116 59.2384 23.716 59.2462 23.724C59.3131 23.8088 59.3875 23.8876 59.4683 23.9593C59.4878 23.977 59.5176 23.977 59.5371 23.9593C59.6179 23.8876 59.6923 23.8088 59.7593 23.724C59.7671 23.716 59.7777 23.7116 59.7888 23.7116C59.7999 23.7116 59.8106 23.716 59.8184 23.724C59.865 23.7632 59.9069 23.8078 59.9431 23.8568C59.9506 23.8669 59.9625 23.8728 59.975 23.8728C59.9876 23.8728 59.9995 23.8669 60.007 23.8568C60.1156 23.7438 60.213 23.6205 60.2979 23.4886C60.3053 23.4772 60.3179 23.4703 60.3315 23.4703C60.345 23.4703 60.3577 23.4772 60.3651 23.4886C60.3923 23.522 60.4164 23.5579 60.437 23.5959C60.4426 23.6055 60.4519 23.6125 60.4627 23.6152C60.4736 23.6179 60.485 23.6161 60.4945 23.6103ZM63.6466 16.6975C64.2588 16.0892 64.3243 15.1687 63.7952 14.642C63.2662 14.1153 62.3407 14.1809 61.7285 14.7893C61.5204 14.9955 61.2085 15.0556 60.9389 14.9413C60.0306 14.5166 58.9812 14.5166 58.0729 14.9413C57.8038 15.0558 57.4923 14.9956 57.2849 14.7893C56.6727 14.1809 55.7472 14.1137 55.2182 14.642C54.6891 15.1703 54.7546 16.0828 55.3652 16.6975C55.6426 16.9705 55.7987 17.3438 55.7984 17.7333V19.4399C55.7958 20.2046 56.0773 20.943 56.588 21.5115C56.8668 21.8195 57.19 22.0839 57.547 22.2959C57.5632 22.3054 57.5777 22.3173 57.5902 22.3312C57.825 22.5892 58.1592 22.7338 58.5077 22.7282C59.0767 22.6978 59.3964 22.5201 59.3964 22.0878C59.3964 21.6252 58.4374 21.337 58.3894 20.9512C58.388 20.9423 58.3906 20.9333 58.3964 20.9265C58.4023 20.9197 58.4108 20.9158 58.4198 20.916H58.4278C58.4378 20.9162 58.4472 20.9209 58.4533 20.9288C58.4709 20.9512 58.5253 20.996 58.6803 20.996C59.2062 20.996 59.2238 21.0792 59.5051 21.0792C59.7864 21.0792 59.8024 20.996 60.3283 20.996C60.4881 20.996 60.5393 20.9512 60.5569 20.9288C60.5624 20.9209 60.5713 20.9162 60.5808 20.916H60.5888C60.5979 20.9159 60.6065 20.9197 60.6126 20.9264C60.6187 20.9331 60.6217 20.9421 60.6208 20.9512C60.5648 21.337 59.6122 21.6252 59.6122 22.0878C59.6122 22.5169 59.9319 22.6946 60.5009 22.7282C60.8495 22.7342 61.1839 22.5896 61.4184 22.3312C61.4315 22.3172 61.4465 22.3053 61.4632 22.2959C61.8205 22.0844 62.1439 21.8199 62.4222 21.5115C62.9329 20.943 63.2144 20.2046 63.2118 19.4399V17.7365C63.2121 17.3468 63.3688 16.9736 63.6466 16.7007V16.6975ZM7.11066 18.2168C7.11066 12.6969 11.209 8.43522 17.0944 8.43522C22.529 8.43522 26.4819 12.6232 26.4819 18.2168C26.4819 18.6971 26.4451 19.1437 26.4083 19.5872C26.3332 20.1811 25.9608 20.4405 25.4029 20.4405H13.5235C13.3916 20.4399 13.2684 20.5064 13.1964 20.617C13.1244 20.7277 13.1133 20.8674 13.1671 20.988C13.9487 22.7874 15.5503 23.5158 17.3229 23.5158C18.3182 23.5212 19.287 23.1952 20.077 22.5889C20.4494 22.2927 20.7467 22.1086 21.2311 22.1086L24.8083 22.0718C25.478 22.0718 25.8505 22.5169 25.5532 23.1092C24.1002 26.3334 21.0456 28 17.2414 28C11.0603 27.9984 7.11066 23.7368 7.11066 18.2168ZM13.1479 15.665C13.0927 15.7859 13.103 15.9267 13.1752 16.0383C13.2474 16.1498 13.3716 16.2168 13.5043 16.2157H20.3775C20.5073 16.2157 20.6287 16.151 20.7011 16.0431C20.7736 15.9352 20.7877 15.7982 20.7388 15.6778C20.0466 13.9792 18.5521 13.3628 17.0624 13.3628C15.1827 13.3628 13.824 14.1697 13.1479 15.665ZM28.1522 18.196C28.1522 12.676 32.5478 8.41441 38.024 8.41441C43.5002 8.41441 47.8894 12.676 47.8894 18.196C47.8894 23.716 43.4938 27.9776 38.0176 27.9776C32.5414 27.9776 28.1522 23.716 28.1522 18.196ZM33.3183 18.196C33.3183 21.0856 35.3642 22.9987 38.024 22.9987C40.6838 22.9987 42.7281 21.0872 42.7281 18.196C42.7281 15.3047 40.6822 13.3933 38.024 13.3933C35.3658 13.3933 33.3183 15.3079 33.3183 18.196ZM1.25088 0H4.58996C5.12384 0 5.42434 0.33299 5.42434 0.925329V27.0555C5.42434 27.6494 5.12384 27.9824 4.58837 27.9824H1.25088C0.717006 27.9776 0.416504 27.6446 0.416504 27.0555V0.925329C0.416504 0.33299 0.717006 0 1.25088 0Z" fill="white"/>
</svg>
