<svg width="20" height="20" viewBox="0 0 20 20" fill="none" xmlns="http://www.w3.org/2000/svg">
<g clip-path="url(#clip0)">
<path d="M15.4918 20C15.5777 20 19.4602 19.9991 19.3752 19.9991C19.7202 19.9991 20.0002 19.7191 20.0002 19.3741C19.7085 12.8266 21.5352 5.91748 14.7185 5.91748C13.4077 5.91748 12.3635 6.36498 11.611 6.95665C11.611 5.73915 10.2952 6.41248 7.25767 6.23165C6.91267 6.23165 6.63267 6.51165 6.63267 6.85665C6.88434 18.6616 6.07101 19.9991 7.25767 19.9991H11.141C12.2685 19.9991 11.551 18.4091 11.766 13.1758C11.766 11.0141 12.391 10.5908 13.471 10.5908C14.666 10.5908 14.8668 11.4208 14.8668 13.2808C15.081 18.42 14.3685 20 15.4918 20ZM13.471 9.34081C9.72851 9.34081 10.516 13.4558 10.516 18.7491H7.88267V7.48165H10.361V8.56331C10.361 9.16331 11.2752 9.45831 11.5935 8.85498C12.0035 8.07665 13.0685 7.16748 14.7185 7.16748C17.6577 7.16748 18.7502 8.61165 18.7502 12.4975V18.75H16.1168C16.1168 12.7966 16.7468 9.34081 13.471 9.34081V9.34081Z" fill="#CC3E28"/>
<path d="M0.935034 6.23226C-0.248299 6.23226 0.561701 7.55309 0.310034 19.3748C0.310034 19.7198 0.590034 19.9998 0.935034 19.9998H4.82253C6.00587 19.9998 5.19587 18.6789 5.44753 6.85726C5.44753 5.77809 3.88003 6.41476 0.935034 6.23226V6.23226ZM4.19753 18.7498H1.56003V7.48226H4.19753V18.7498Z" fill="#CC3E28"/>
<path d="M2.87665 0C-0.936686 0 -0.913353 5.77417 2.87665 5.77417C6.66415 5.77417 6.69415 0 2.87665 0ZM2.87665 4.52417C0.736647 4.52417 0.716647 1.25 2.87665 1.25C5.04081 1.25 5.01331 4.52417 2.87665 4.52417Z" fill="#CC3E28"/>
</g>
<defs>
<clipPath id="clip0">
<rect width="20" height="20" fill="white"/>
</clipPath>
</defs>
</svg>
