<svg width="24" height="24" viewBox="0 0 24 24" fill="none" xmlns="http://www.w3.org/2000/svg">
<path d="M5.64368 7.53101H1.125C0.736633 7.53101 0.421875 7.84595 0.421875 8.23413V23.2968C0.421875 23.6851 0.736633 23.9999 1.125 23.9999H5.64368C6.03204 23.9999 6.3468 23.6851 6.3468 23.2968V8.23413C6.3468 7.84595 6.03204 7.53101 5.64368 7.53101ZM4.94055 22.5936H1.82812V8.93726H4.94055V22.5936Z" fill="white"/>
<path d="M3.38452 0C1.75085 0 0.421875 1.32898 0.421875 2.96228C0.421875 4.59595 1.75085 5.92474 3.38452 5.92474C5.01801 5.92474 6.3468 4.59576 6.3468 2.96228C6.3468 1.32898 5.01801 0 3.38452 0ZM3.38452 4.51849C2.52631 4.51849 1.82812 3.8205 1.82812 2.96228C1.82812 2.10425 2.52631 1.40625 3.38452 1.40625C4.24255 1.40625 4.94055 2.10425 4.94055 2.96228C4.94055 3.8205 4.24255 4.51849 3.38452 4.51849Z" fill="white"/>
<path d="M16.9412 7.43164C15.8724 7.43164 14.819 7.68927 13.8757 8.1712C13.8436 7.8125 13.5424 7.53107 13.1753 7.53107H8.65625C8.26807 7.53107 7.95312 7.84601 7.95312 8.23419V23.2968C7.95312 23.6852 8.26807 23.9999 8.65625 23.9999H13.1753C13.5637 23.9999 13.8784 23.6852 13.8784 23.2968V15.0124C13.8784 13.9467 14.7456 13.0797 15.8113 13.0797C16.877 13.0797 17.7438 13.9467 17.7438 15.0124V23.2968C17.7438 23.6852 18.0587 23.9999 18.4469 23.9999H22.9658C23.3541 23.9999 23.6689 23.6852 23.6689 23.2968V14.1593C23.6689 10.4496 20.6509 7.43164 16.9412 7.43164ZM22.2626 22.5937H19.1502V15.0124C19.1502 13.1713 17.6524 11.6735 15.8115 11.6735C13.9702 11.6735 12.4722 13.1713 12.4722 15.0124V22.5937H9.35956V8.93732H12.4722V9.45679C12.4722 9.72723 12.6273 9.97369 12.8712 10.0907C13.1149 10.2077 13.4042 10.1744 13.6153 10.0054C14.5674 9.24164 15.7177 8.83789 16.9412 8.83789C19.8755 8.83789 22.2626 11.225 22.2626 14.1593V22.5937Z" fill="white"/>
</svg>
