<svg width="60" height="60" viewBox="0 0 60 60" fill="none" xmlns="http://www.w3.org/2000/svg">
<g clip-path="url(#clip0)">
<path d="M30 60C46.5685 60 60 46.5685 60 30C60 13.4315 46.5685 0 30 0C13.4315 0 0 13.4315 0 30C0 46.5685 13.4315 60 30 60Z" fill="#007AB9" fill-opacity="0.1"/>
<path d="M45.538 32.8898V44.1816H38.9912V33.6466C38.9912 31.0013 38.046 29.1949 35.6757 29.1949C33.8668 29.1949 32.7922 30.411 32.3176 31.5887C32.1453 32.0095 32.1008 32.5939 32.1008 33.1842V44.1812H25.5536C25.5536 44.1812 25.6415 26.3382 25.5536 24.4912H32.1013V27.2815C32.0881 27.3035 32.0696 27.3249 32.0579 27.3459H32.1013V27.2815C32.9713 25.9427 34.5229 24.0289 38.0016 24.0289C42.3088 24.0289 45.538 26.843 45.538 32.8898ZM18.7047 15C16.4652 15 15 16.4701 15 18.4015C15 20.2919 16.4227 21.8045 18.6188 21.8045H18.6613C20.9447 21.8045 22.3645 20.2919 22.3645 18.4015C22.321 16.4701 20.9447 15 18.7047 15ZM15.3891 44.1816H21.9339V24.4912H15.3891V44.1816Z" fill="#007AB9"/>
</g>
<defs>
<clipPath id="clip0">
<rect width="60" height="60" fill="white"/>
</clipPath>
</defs>
</svg>
