<svg width="20" height="24" viewBox="0 0 20 24" fill="none" xmlns="http://www.w3.org/2000/svg">
<path d="M9.99998 0C4.89952 0 0.75 4.14952 0.75 9.24998C0.75 12.1186 2.2343 15.4504 5.16169 19.1527C7.30373 21.8617 9.41494 23.734 9.50377 23.8124C9.78727 24.0625 10.2127 24.0625 10.4962 23.8124C10.585 23.734 12.6962 21.8617 14.8383 19.1527C17.7657 15.4504 19.25 12.1186 19.25 9.24998C19.25 4.14952 15.1005 0 9.99998 0V0ZM9.99998 22.2268C8.21756 20.5281 2.25 14.4514 2.25 9.24998C2.25 4.97662 5.72663 1.5 9.99998 1.5C14.2733 1.5 17.75 4.97662 17.75 9.24998C17.75 14.4514 11.7823 20.5282 9.99998 22.2268Z" fill="white"/>
<ellipse cx="9.99937" cy="9.42857" rx="3.42857" ry="3.42857" fill="white"/>
</svg>
