<svg width="24" height="24" viewBox="0 0 24 24" fill="none" xmlns="http://www.w3.org/2000/svg">
<g clip-path="url(#clip0)">
<path d="M0.337547 4.42192L2.93455 6.12992V16.9969L0.222547 19.6729C-0.253453 20.1439 0.0815472 20.9569 0.749547 20.9569H6.61855C7.28555 20.9569 7.62255 20.1449 7.14555 19.6729L4.43355 16.9969V9.08492C7.21455 15.0009 9.92555 20.7579 9.86055 20.6269C10.1345 21.1829 11.0015 21.1979 11.2365 20.5519L11.2375 20.5499C11.2375 20.5499 11.2385 20.5489 11.2385 20.5479C11.8885 18.7549 13.2825 14.9099 13.1935 15.1539C13.2435 15.0149 15.6145 8.24792 15.6515 8.14292V17.9159L13.9105 19.6809C13.4435 20.1549 13.7805 20.9579 14.4445 20.9579H23.2495C23.9115 20.9579 24.2495 20.1589 23.7855 19.6839L22.1125 17.9709L22.0455 6.03792L23.7765 4.32992C24.2525 3.85892 23.9175 3.04592 23.2495 3.04592C22.5475 3.04592 25.7945 3.04492 16.3795 3.04992C15.4215 3.07792 15.7455 3.93892 12.3935 12.8219L8.28355 3.49292C8.16355 3.22092 7.89355 3.04492 7.59655 3.04492H0.749547C0.0075472 3.04592 -0.283453 4.01492 0.337547 4.42192ZM2.57655 19.4579L3.68355 18.3649L4.79055 19.4579H2.57655ZM17.1515 4.54592H21.4225C20.9435 5.08092 20.5415 5.23692 20.5435 5.73092L20.6145 18.2819C20.6165 18.7579 21.0055 18.9249 21.4685 19.4569H16.2385C16.7555 18.8699 17.1525 18.7089 17.1525 18.2229V4.54592H17.1515ZM7.10755 4.54592L11.6615 14.8809L10.4355 18.3279C4.25955 5.21192 4.47655 5.00592 3.25455 4.54592H7.10755Z" fill="white"/>
</g>
<defs>
<clipPath id="clip0">
<rect width="24" height="24" fill="white"/>
</clipPath>
</defs>
</svg>
