<svg width="20" height="20" viewBox="0 0 20 20" fill="none" xmlns="http://www.w3.org/2000/svg">
<g clip-path="url(#clip0)">
<path d="M1.87501 2.5H18.125C19.1589 2.5 20 3.34107 20 4.37501V15.625C20 16.659 19.1589 17.5 18.125 17.5H1.87501C0.841068 17.5 0 16.659 0 15.625V4.37501C0 3.34107 0.841068 2.5 1.87501 2.5ZM1.87501 3.74999C1.7901 3.74999 1.70931 3.76761 1.63546 3.79838L10 11.048L18.3646 3.79838C18.2907 3.76765 18.2099 3.74999 18.125 3.74999H1.87501ZM1.87501 16.25H18.125C18.4698 16.25 18.75 15.9699 18.75 15.625V5.11901L10.4096 12.3474C10.2917 12.4493 10.1459 12.5 10 12.5C9.85413 12.5 9.70826 12.4494 9.59045 12.3474L1.24999 5.11901V15.625C1.25004 15.9699 1.53017 16.25 1.87501 16.25Z" fill="#38369A"/>
</g>
<defs>
<clipPath id="clip0">
<rect width="20" height="20" fill="white" transform="matrix(-1 0 0 1 20 0)"/>
</clipPath>
</defs>
</svg>
