<svg width="20" height="20" viewBox="0 0 20 20" fill="none" xmlns="http://www.w3.org/2000/svg">
<g clip-path="url(#clip0)">
<path d="M19.4038 7.36889C18.6418 6.72951 17.5018 6.82951 16.8635 7.59013L15.284 9.45919V3.87301C15.284 3.37965 15.0789 2.90205 14.7213 2.56234L12.4956 0.448085C12.1582 0.127579 11.7159 -0.0490234 11.2506 -0.0490234H1.75777C0.76094 -0.0490234 -0.05 0.761917 -0.05 1.75875V18.2428C-0.05 19.2396 0.76094 20.0505 1.75777 20.0505H13.4763C14.4731 20.0505 15.2841 19.2396 15.2841 18.2428V15.0595L19.6265 9.91587L19.6266 9.91573C20.2688 9.15036 20.1693 8.01117 19.4038 7.36889ZM11.533 13.8978L11.5329 13.898C11.3534 14.1119 11.2243 14.3684 11.1594 14.64L10.6149 16.9195L10.6635 16.9311L10.6149 16.9195C10.559 17.1538 10.6401 17.3996 10.8247 17.5544C11.0093 17.7094 11.2655 17.7464 11.4863 17.6508L11.4664 17.6049L11.4863 17.6508L13.6367 16.7186C13.7703 16.6607 13.8966 16.5862 14.0122 16.4981V18.2428C14.0122 18.5382 13.7717 18.7787 13.4762 18.7787H1.75777C1.4623 18.7787 1.22184 18.5382 1.22184 18.2428V1.75875C1.22184 1.46328 1.4623 1.22281 1.75777 1.22281H10.4966V4.10242C10.4966 4.45363 10.7814 4.73836 11.1326 4.73836H14.0122V10.9642L11.533 13.8978ZM12.6746 14.5175L13.4956 15.2063L13.3283 15.4044L13.3282 15.4046C13.2751 15.4679 13.2068 15.5188 13.1309 15.5517L12.1475 15.978L12.3966 14.9355C12.4158 14.855 12.4541 14.7789 12.5059 14.7171L12.6746 14.5175ZM18.3088 9.50512L17.4906 8.81856L17.8364 8.40934L17.8365 8.40921C18.0254 8.18413 18.3618 8.15482 18.5863 8.34314L18.6184 8.30484L18.5863 8.34315C18.8153 8.53531 18.8406 8.87372 18.6535 9.09676C18.6535 9.09679 18.6535 9.09682 18.6535 9.09684L18.3088 9.50512ZM11.7685 3.46656V1.51157C12.2711 1.98901 12.6537 2.35219 12.9453 2.62897C13.3 2.96568 13.5199 3.17452 13.6575 3.30561C13.739 3.38327 13.7913 3.4334 13.8254 3.46656H11.7685ZM14.316 14.2345L13.4955 13.546L16.6696 9.78998L17.4883 10.4769L14.316 14.2345Z" fill="#B1B5B9" stroke="white" stroke-width="0.1"/>
<path d="M8.78895 3.51562H2.92969C2.60609 3.51562 2.34375 3.77797 2.34375 4.10156C2.34375 4.42516 2.60609 4.6875 2.92969 4.6875H8.78895C9.11254 4.6875 9.37488 4.42516 9.37488 4.10156C9.37488 3.77797 9.11254 3.51562 8.78895 3.51562Z" fill="#B1B5B9"/>
<path d="M12.3045 7.07031H2.92969C2.60609 7.07031 2.34375 7.33266 2.34375 7.65625C2.34375 7.97984 2.60609 8.24219 2.92969 8.24219H12.3045C12.6281 8.24219 12.8904 7.97984 12.8904 7.65625C12.8904 7.33266 12.6281 7.07031 12.3045 7.07031Z" fill="#B1B5B9"/>
<path d="M12.3045 10.5859H2.92969C2.60609 10.5859 2.34375 10.8483 2.34375 11.1719C2.34375 11.4955 2.60609 11.7578 2.92969 11.7578H12.3045C12.6281 11.7578 12.8904 11.4955 12.8904 11.1719C12.8904 10.8482 12.6281 10.5859 12.3045 10.5859Z" fill="#B1B5B9"/>
<path d="M8.78895 14.1016H2.92969C2.60609 14.1016 2.34375 14.3639 2.34375 14.6875C2.34375 15.0111 2.60609 15.2734 2.92969 15.2734H8.78895C9.11254 15.2734 9.37488 15.0111 9.37488 14.6875C9.37488 14.3639 9.11254 14.1016 8.78895 14.1016Z" fill="#B1B5B9"/>
</g>
<defs>
<clipPath id="clip0">
<rect width="20" height="20" fill="white"/>
</clipPath>
</defs>
</svg>
