<svg width="28" height="28" viewBox="0 0 28 28" fill="none" xmlns="http://www.w3.org/2000/svg">
<path d="M23.8251 20.5615L21.302 16.2312C21.2356 13.8342 20.1209 11.591 18.2665 10.0869C19.1923 6.67456 16.6103 3.33594 13.1075 3.33594C9.61162 3.33594 7.02578 6.66482 7.94644 10.0792C6.02926 11.6306 4.89893 13.9777 4.89893 16.4582V27.1797C4.89893 27.6327 5.26621 28 5.71924 28C6.17227 28 6.53955 27.6327 6.53955 27.1797V16.4582C6.53955 14.6195 7.3165 12.8725 8.65104 11.6383C8.96784 12.1154 9.36329 12.543 9.82632 12.9028V15.3645C9.82632 16.4199 10.685 17.2785 11.7404 17.2785H12.2847V17.2812C12.2847 17.7343 12.652 18.1016 13.105 18.1016C13.558 18.1016 13.9253 17.7343 13.9253 17.2812V17.2785H14.4748C15.5302 17.2785 16.3888 16.4199 16.3888 15.3645V12.9027C16.8498 12.5444 17.2439 12.119 17.56 11.6444C18.8912 12.8778 19.6646 14.6185 19.6646 16.4582C19.6646 16.8474 19.7188 16.6982 21.9286 20.5652H20.3782C19.9252 20.5652 19.5579 20.9325 19.5579 21.3855V24.3906C19.5579 24.5414 19.4352 24.6641 19.2845 24.6641H15.5629C15.1099 24.6641 14.7426 25.0313 14.7426 25.4844V27.1797C14.7426 27.6327 15.1099 28 15.5629 28C16.016 28 16.3832 27.6327 16.3832 27.1797V26.3047H19.2845C20.3399 26.3047 21.1985 25.446 21.1985 24.3906V22.2059H22.8801C23.722 22.2059 24.2495 21.2897 23.8251 20.5615ZM13.1075 4.97656C15.1508 4.97656 16.8131 6.63884 16.8131 8.68219C16.8131 9.85687 16.2622 10.9495 15.3285 11.6489H13.9279V9.58349L14.7381 9.18039C15.1437 8.97859 15.3089 8.48619 15.1071 8.08057C14.9053 7.67495 14.4129 7.50974 14.0073 7.71154L13.107 8.15948L12.2017 7.71061C11.7957 7.50941 11.3036 7.67528 11.1023 8.08106C10.901 8.48695 11.067 8.9792 11.4728 9.18045L12.2872 9.58426V11.6489H10.8865C9.97152 10.9636 9.40189 9.87695 9.40189 8.68219C9.40189 6.63884 11.0642 4.97656 13.1075 4.97656ZM14.7481 15.3645C14.7481 15.5152 14.6255 15.6379 14.4747 15.6379H11.7403C11.5896 15.6379 11.4669 15.5152 11.4669 15.3645V13.2895H14.7481V15.3645Z" fill="black"/>
<path d="M13.1072 1.64062C13.5602 1.64062 13.9275 1.27336 13.9275 0.820312C13.9275 0.367266 13.5602 0 13.1072 0C12.6541 0 12.2869 0.367266 12.2869 0.820312C12.2869 1.27336 12.6541 1.64062 13.1072 1.64062Z" fill="#38369A"/>
<path d="M7.26636 4.05762C7.7194 4.05762 8.08667 3.69035 8.08667 3.2373C8.08667 2.78426 7.7194 2.41699 7.26636 2.41699C6.81331 2.41699 6.44604 2.78426 6.44604 3.2373C6.44604 3.69035 6.81331 4.05762 7.26636 4.05762Z" fill="#38369A"/>
<path d="M4.84631 9.89551C5.29936 9.89551 5.66663 9.52824 5.66663 9.0752C5.66663 8.62215 5.29936 8.25488 4.84631 8.25488C4.39327 8.25488 4.026 8.62215 4.026 9.0752C4.026 9.52824 4.39327 9.89551 4.84631 9.89551Z" fill="#38369A"/>
<path d="M21.3619 9.90137C21.815 9.90137 22.1823 9.5341 22.1823 9.08105C22.1823 8.62801 21.815 8.26074 21.3619 8.26074C20.9089 8.26074 20.5416 8.62801 20.5416 9.08105C20.5416 9.5341 20.9089 9.90137 21.3619 9.90137Z" fill="#38369A"/>
<path d="M18.9448 4.06103C19.3979 4.06103 19.7651 3.69377 19.7651 3.24072C19.7651 2.78768 19.3979 2.42041 18.9448 2.42041C18.4918 2.42041 18.1245 2.78768 18.1245 3.24072C18.1245 3.69377 18.4918 4.06103 18.9448 4.06103Z" fill="#38369A"/>
</svg>
