<?xml version="1.0" encoding="UTF-8"?>
<svg width="25px" height="24px" viewBox="0 0 25 24" version="1.1" xmlns="http://www.w3.org/2000/svg" xmlns:xlink="http://www.w3.org/1999/xlink">
    <title>Group 294996@2x</title>
    <g id="Updated" stroke="none" stroke-width="1" fill="none" fill-rule="evenodd">
        <g id="Group-294996" transform="translate(1.000000, 0.000000)" fill-rule="nonzero" stroke="#F7F7FC" stroke-width="0.2">
            <path d="M12,0.1 C15.1788,0.1 18.1668,1.3377 20.4146,3.5854 C22.6623,5.83319 23.9,8.82121 23.9,12 C23.9,15.1788 22.6623,18.1668 20.4146,20.4146 C18.1668,22.6623 15.1788,23.9 12,23.9 C8.82121,23.9 5.83319,22.6623 3.5854,20.4146 L3.5854,20.4146 L3.51469,20.4853 C1.24823,18.2188 0,15.2053 0,12 C0,8.79469 1.24823,5.78123 3.51469,3.51469 L3.5854,3.5854 L3.83817274,3.3398235 C6.0547865,1.24771632 8.93894296,0.1 12,0.1 Z M12,1.775 C6.36182,1.775 1.775,6.36182 1.775,12 C1.775,17.6382 6.36182,22.225 12,22.225 C17.6382,22.225 22.225,17.6382 22.225,12 C22.225,6.36182 17.6382,1.775 12,1.775 Z M11.9531,12.7906 C9.52703,12.7906 7.55312,10.8167 7.55312,8.39062 C7.55312,5.96453 9.52703,3.99062 11.9531,3.99062 C14.3792,3.99062 16.3531,5.96453 16.3531,8.39062 C16.3531,10.8167 14.3792,12.7906 11.9531,12.7906 Z M11.9531,5.66563 C10.4504,5.66563 9.22812,6.88799 9.22812,8.39062 C9.22812,9.89326 10.4504,11.1156 11.9531,11.1156 C13.4558,11.1156 14.6781,9.89326 14.6781,8.39062 C14.6781,6.88799 13.4558,5.66563 11.9531,5.66563 Z" id="Shape" fill="#0023C4"></path>
            <path d="M6.35707,18.2729 L6.35706,18.2729 C5.99921,17.9798 5.94673,17.4521 6.23981,17.0943 C7.54652,15.4991 9.4769,14.5844 11.5365,14.5844 L12.6489,14.5844 C14.7085,14.5844 16.6389,15.4991 17.9455,17.0943 C18.2386,17.4521 18.1862,17.9798 17.8283,18.2729 L17.8917,18.3503 L17.8283,18.2729 C17.6726,18.4004 17.4849,18.4625242 17.2982,18.4625242 C17.0556,18.4625242 16.8154,18.3578 16.6498,18.1557 C15.6627,16.9507 14.2043,16.2594 12.6489,16.2594 L11.5365,16.2594 C9.9811,16.2594 8.52267,16.9507 7.53569,18.1557 C7.2426,18.5135 6.71488,18.566 6.35707,18.2729 Z" id="Path" fill="#2F3DAC"></path>
        </g>
    </g>
</svg>