<svg width="32" height="32" viewBox="0 0 32 32" fill="none" xmlns="http://www.w3.org/2000/svg">
<path d="M20.6858 21.875H8.45409C7.99352 21.875 7.62012 22.2947 7.62012 22.8125C7.62012 23.3303 7.99352 23.75 8.45409 23.75H20.6858C21.1463 23.75 21.5197 23.3303 21.5197 22.8125C21.5197 22.2947 21.1463 21.875 20.6858 21.875Z" fill="black"/>
<path d="M20.6858 25.625H8.45409C7.99352 25.625 7.62012 26.0447 7.62012 26.5625C7.62012 27.0803 7.99352 27.5 8.45409 27.5H20.6858C21.1463 27.5 21.5197 27.0803 21.5197 26.5625C21.5197 26.0447 21.1463 25.625 20.6858 25.625Z" fill="black"/>
<path d="M15.4053 19.0625C15.4053 19.5803 15.7787 20 16.2393 20H20.6871C21.1477 20 21.5211 19.5803 21.5211 19.0625C21.5211 18.5447 21.1477 18.125 20.6871 18.125H16.2393C15.7787 18.125 15.4053 18.5447 15.4053 19.0625Z" fill="black"/>
<path d="M25.4645 0H7.05263C6.79454 0 6.54708 0.0988125 6.36468 0.274625L2.72252 3.784C2.53999 3.95981 2.4375 4.19825 2.4375 4.44688V31.0625C2.4375 31.5802 2.87313 32 3.41047 32H25.4645C26.0019 32 26.4375 31.5802 26.4375 31.0625V0.9375C26.4375 0.41975 26.0019 0 25.4645 0ZM24.4916 30.125H4.38345V4.83525L7.45564 1.875H24.4916V30.125Z" fill="black"/>
<path d="M10.912 13.016C10.912 12.4293 11.0187 11.9333 11.232 11.528C11.4453 11.1227 11.7547 10.68 12.16 10.2C12.4693 9.82667 12.6987 9.512 12.848 9.256C12.9973 9 13.072 8.712 13.072 8.392C13.072 8.02933 12.944 7.74667 12.688 7.544C12.432 7.33067 12.0747 7.224 11.616 7.224C11.1573 7.224 10.672 7.32533 10.16 7.528C9.65867 7.73067 9.16267 8.01867 8.672 8.392L8 6.888C8.43733 6.49333 9.00267 6.17867 9.696 5.944C10.3893 5.70933 11.0827 5.592 11.776 5.592C12.4267 5.592 13.0027 5.704 13.504 5.928C14.0053 6.14133 14.3947 6.45067 14.672 6.856C14.96 7.25067 15.104 7.704 15.104 8.216C15.104 8.77067 14.9707 9.256 14.704 9.672C14.4373 10.088 14.0533 10.5467 13.552 11.048C13.1147 11.5173 12.784 11.9013 12.56 12.2C12.3467 12.4987 12.2133 12.84 12.16 13.224L12.096 13.656H10.912V13.016ZM10.416 17V14.792H12.656V17H10.416Z" fill="black"/>
</svg>
