<svg width="32" height="32" viewBox="0 0 32 32" fill="none" xmlns="http://www.w3.org/2000/svg">
<path d="M28.8466 25.8067C29.5539 25.0926 29.9916 24.1109 29.9916 23.0287C29.9916 21.1736 28.706 19.6139 26.9792 19.1919V15.9999C26.9792 15.4822 26.5594 15.0624 26.0417 15.0624H16.9375V12.9214H21.0208C21.5386 12.9214 21.9583 12.5017 21.9583 11.9839C21.9583 9.71187 20.6799 7.73306 18.8049 6.72819C19.5122 6.01406 19.95 5.03237 19.95 3.95012C19.95 1.77206 18.1781 0 16 0C13.8219 0 12.05 1.77206 12.05 3.95012C12.05 5.03231 12.4878 6.014 13.1951 6.72819C11.32 7.73306 10.0417 9.71187 10.0417 11.9839C10.0417 12.5017 10.4614 12.9214 10.9792 12.9214H15.0625V15.0624H5.95831C5.44056 15.0624 5.02081 15.4822 5.02081 15.9999V19.1919C3.294 19.6139 2.00837 21.1736 2.00837 23.0287C2.00837 24.1109 2.44606 25.0926 3.15337 25.8067C1.27837 26.8116 0 28.7904 0 31.0625C0 31.5802 0.41975 32 0.9375 32H10.9792C11.4969 32 11.9167 31.5802 11.9167 31.0625C11.9167 28.7904 10.6383 26.8116 8.76325 25.8067C9.47056 25.0926 9.90831 24.1109 9.90831 23.0287C9.90831 21.1736 8.62263 19.6139 6.89581 19.1918V16.9374H25.1042V19.1918C23.3774 19.6139 22.0917 21.1736 22.0917 23.0287C22.0917 24.1109 22.5294 25.0926 23.2367 25.8067C21.3617 26.8116 20.0833 28.7904 20.0833 31.0625C20.0833 31.5802 20.5031 32 21.0208 32H31.0625C31.5802 32 32 31.5802 32 31.0625C32 28.7904 30.7216 26.8116 28.8466 25.8067ZM9.93312 30.125H1.98356C2.40838 28.3237 4.02925 26.9789 5.95831 26.9789C7.88737 26.9789 9.50831 28.3237 9.93312 30.125ZM8.03331 23.0287C8.03331 24.1729 7.10244 25.1039 5.95831 25.1039C4.81419 25.1039 3.88337 24.1729 3.88337 23.0287C3.88337 21.8844 4.81419 20.9535 5.95831 20.9535C7.1025 20.9535 8.03331 21.8844 8.03331 23.0287ZM16 1.875C17.1442 1.875 18.075 2.80594 18.075 3.95012C18.075 5.09438 17.1441 6.02531 16 6.02531C14.8558 6.02531 13.925 5.09438 13.925 3.95012C13.925 2.80594 14.8558 1.875 16 1.875ZM12.0253 11.0464C12.4501 9.24512 14.071 7.90031 16 7.90031C17.929 7.90031 19.5499 9.24512 19.9748 11.0464H12.0253ZM26.0417 20.9535C27.1858 20.9535 28.1166 21.8844 28.1166 23.0287C28.1166 24.1729 27.1858 25.1039 26.0417 25.1039C24.8975 25.1039 23.9667 24.1729 23.9667 23.0287C23.9667 21.8844 24.8976 20.9535 26.0417 20.9535ZM22.0669 30.125C22.4917 28.3237 24.1126 26.9789 26.0417 26.9789C27.9707 26.9789 29.5916 28.3237 30.0164 30.125H22.0669Z" fill="black"/>
</svg>
