<svg width="32" height="32" viewBox="0 0 32 32" fill="none" xmlns="http://www.w3.org/2000/svg">
<g clip-path="url(#clip0)">
<path d="M9.58862 21.145H9.62939C11.0891 21.1345 12.4612 20.5574 13.4927 19.5205C13.8564 19.1545 13.856 18.5637 13.4924 18.1985L13.4927 18.1982L12.2629 16.9619C11.5159 16.2109 11.5159 14.989 12.2629 14.2378L13.4863 13.0078H13.4866C13.4866 13.0078 13.4866 13.0078 13.4866 13.0076L13.49 13.0042C13.8533 12.6387 13.854 12.0479 13.49 11.6819C12.4583 10.6445 11.0862 10.0667 9.62671 10.0549C9.61157 10.0549 9.59668 10.0547 9.58154 10.0547C8.14038 10.0547 6.77905 10.6082 5.7439 11.6155C4.66528 12.6655 4.07129 14.0791 4.07129 15.5962C4.07129 17.115 4.66626 18.5303 5.74634 19.5818C6.78296 20.5908 8.146 21.145 9.58862 21.145ZM7.05176 12.959C7.74146 12.2876 8.65186 11.9211 9.61157 11.9299C10.2563 11.9351 10.875 12.1086 11.4182 12.4282L10.9333 12.9155C9.46118 14.3958 9.46118 16.8042 10.9333 18.2842L11.4204 18.7739C10.8779 19.0923 10.26 19.2654 9.61597 19.27C8.65625 19.2766 7.74487 18.9106 7.0542 18.2383C6.3396 17.5427 5.94629 16.6045 5.94629 15.5962C5.94629 14.5894 6.33887 13.6528 7.05176 12.959Z" fill="black"/>
<path d="M13.0267 16.3682L16.1627 19.5212C16.3461 19.7053 16.5868 19.7976 16.8275 19.7976C17.0665 19.7976 17.3058 19.7065 17.4886 19.5247C17.4899 19.5234 17.4908 19.5222 17.4921 19.521V19.5212C19.641 17.3608 19.6398 13.8445 17.4896 11.6826L17.4894 11.6829C17.4884 11.6816 17.4874 11.6802 17.4862 11.679C17.119 11.314 16.5253 11.3154 16.1603 11.6826L13.0265 14.8333C12.6056 15.2566 12.6058 15.9451 13.0267 16.3682ZM16.7379 13.7607C17.3922 14.8955 17.3929 16.3086 16.7404 17.4429L14.9078 15.6006L16.7379 13.7607Z" fill="black"/>
<path d="M17.1787 22.5076H6.08984C5.57227 22.5076 5.15234 22.9272 5.15234 23.4451C5.15234 23.9629 5.57227 24.3826 6.08984 24.3826H17.1787C17.6963 24.3826 18.1162 23.9629 18.1162 23.4451C18.1162 22.9272 17.6963 22.5076 17.1787 22.5076Z" fill="black"/>
<path d="M17.1494 25.3201H6.06055C5.54297 25.3201 5.12305 25.7397 5.12305 26.2576C5.12305 26.7754 5.54297 27.1951 6.06055 27.1951H17.1494C17.667 27.1951 18.0869 26.7754 18.0869 26.2576C18.0869 25.7397 17.667 25.3201 17.1494 25.3201Z" fill="black"/>
<path d="M20.7226 2.57202H18.5041V2.19165C18.5041 0.983152 17.521 0 16.3125 0H6.86229C5.6538 0 4.6704 0.983152 4.6704 2.19165V2.57202H2.45214C1.1001 2.57202 0 3.67138 0 5.02318V29.5488C0 30.9003 1.1001 31.9999 2.45214 31.9999H20.7224C22.0747 31.9999 23.1745 30.9003 23.1745 29.5488V5.02318C23.1748 3.67138 22.0747 2.57202 20.7226 2.57202ZM6.5454 2.19165C6.5454 2.01709 6.68749 1.875 6.86229 1.875H16.3125C16.487 1.875 16.6291 2.01709 16.6291 2.19165V4.82714C16.6291 5.0017 16.487 5.14379 16.3125 5.14379H6.86229C6.68749 5.14379 6.5454 5.0017 6.5454 4.82714V2.19165ZM21.2998 29.5488C21.2998 29.8666 21.0407 30.1249 20.7226 30.1249H2.45214C2.13379 30.1249 1.875 29.8666 1.875 29.5488V5.02318C1.875 4.70531 2.13403 4.44701 2.45214 4.44701H4.6704V4.82714C4.6704 6.03563 5.65355 7.01878 6.86205 7.01878H16.3125C17.521 7.01878 18.5041 6.03563 18.5041 4.82714V4.44701H20.7224C21.0407 4.44701 21.2995 4.70531 21.2995 5.02318V29.5488H21.2998Z" fill="black"/>
<path d="M29.9553 3.38428H26.9888C25.8611 3.38428 24.9434 4.30151 24.9434 5.42896V26.7822C24.9434 27.0376 25.0122 27.2888 25.1423 27.5093L27.4587 31.4224C27.6697 31.7786 28.0579 32 28.4719 32C28.8862 32 29.2744 31.7786 29.4854 31.4224L31.8015 27.5095C31.9319 27.2893 32.0007 27.0378 32.0007 26.7822V5.42896C32.0007 4.30151 31.083 3.38428 29.9553 3.38428ZM26.8184 25.9788V8.37476H30.1257V25.979H26.8184V25.9788ZM26.989 5.25928H29.9553C30.0493 5.25928 30.1257 5.33545 30.1257 5.42896V6.49976H26.8186V5.42896C26.8184 5.33545 26.895 5.25928 26.989 5.25928ZM28.4719 29.4534L27.5254 27.8538H29.4189L28.4719 29.4534Z" fill="black"/>
</g>
<defs>
<clipPath id="clip0">
<rect width="32" height="32" fill="white"/>
</clipPath>
</defs>
</svg>
