<svg width="32" height="32" viewBox="0 0 32 32" fill="none" xmlns="http://www.w3.org/2000/svg">
<g clip-path="url(#clip0)">
<path d="M11.0796 6.16479H5.48438C4.96655 6.16479 4.54688 6.58447 4.54688 7.10229C4.54688 7.62012 4.96655 8.03979 5.48438 8.03979H11.0796C11.5972 8.03979 12.0171 7.62012 12.0171 7.10229C12.0171 6.58447 11.5972 6.16479 11.0796 6.16479Z" fill="black"/>
<path d="M11.0796 9.91504H5.48438C4.96655 9.91504 4.54688 10.3347 4.54688 10.8525C4.54688 11.3704 4.96655 11.79 5.48438 11.79H11.0796C11.5972 11.79 12.0171 11.3704 12.0171 10.8525C12.0171 10.3347 11.5972 9.91504 11.0796 9.91504Z" fill="black"/>
<path d="M11.0796 13.6653H5.48438C4.96655 13.6653 4.54688 14.085 4.54688 14.6028C4.54688 15.1206 4.96655 15.5403 5.48438 15.5403H11.0796C11.5972 15.5403 12.0171 15.1206 12.0171 14.6028C12.0171 14.085 11.5972 13.6653 11.0796 13.6653Z" fill="black"/>
<path d="M11.0796 17.4155H5.48438C4.96655 17.4155 4.54688 17.8352 4.54688 18.353C4.54688 18.8708 4.96655 19.2905 5.48438 19.2905H11.0796C11.5972 19.2905 12.0171 18.8708 12.0171 18.353C12.0171 17.8352 11.5972 17.4155 11.0796 17.4155Z" fill="black"/>
<path d="M11.0796 21.2285H5.48438C4.96655 21.2285 4.54688 21.6484 4.54688 22.166C4.54688 22.6838 4.96655 23.1035 5.48438 23.1035H11.0796C11.5972 23.1035 12.0171 22.6838 12.0171 22.166C12.0171 21.6484 11.5972 21.2285 11.0796 21.2285Z" fill="black"/>
<path d="M14.2285 8.03979H19.8237C20.3416 8.03979 20.7612 7.62012 20.7612 7.10229C20.7612 6.58447 20.3416 6.16479 19.8237 6.16479H14.2285C13.7109 6.16479 13.291 6.58447 13.291 7.10229C13.291 7.62012 13.7109 8.03979 14.2285 8.03979Z" fill="black"/>
<path d="M14.2285 11.79H19.8237C20.3416 11.79 20.7612 11.3704 20.7612 10.8525C20.7612 10.3347 20.3416 9.91504 19.8237 9.91504H14.2285C13.7109 9.91504 13.291 10.3347 13.291 10.8525C13.291 11.3704 13.7109 11.79 14.2285 11.79Z" fill="black"/>
<path d="M17.8608 14.6028C17.8608 14.085 17.4412 13.6653 16.9233 13.6653H14.2285C13.7109 13.6653 13.291 14.085 13.291 14.6028C13.291 15.1206 13.7109 15.5403 14.2285 15.5403H16.9233C17.4412 15.5403 17.8608 15.1206 17.8608 14.6028Z" fill="black"/>
<path d="M26.7423 21.6242C26.3384 21.3003 25.7486 21.365 25.4244 21.7688L23.0098 24.779L21.515 23.696C21.0958 23.3921 20.5094 23.4858 20.2056 23.905C19.9019 24.3244 19.9957 24.9106 20.4149 25.2143L22.6324 26.821C22.7984 26.9411 22.9908 26.9995 23.182 26.9995C23.4571 26.9995 23.7291 26.8786 23.9136 26.6484L26.887 22.9421C27.211 22.5383 27.1463 21.9482 26.7423 21.6242Z" fill="black"/>
<path d="M29.1116 18.7463C27.8904 17.5037 26.3213 16.7205 24.6211 16.4897V3.77563C24.6211 1.69385 22.9272 0 20.8455 0H4.46338C2.38135 0 0.6875 1.69385 0.6875 3.77563V25.4927C0.6875 27.5747 2.38135 29.2686 4.46313 29.2686H17.6392C19.1218 31.0103 21.2537 32 23.5601 32C27.8533 32 31.3459 28.5049 31.3459 24.2087C31.3459 22.1521 30.5525 20.2122 29.1116 18.7463ZM2.5625 25.4927V3.77563C2.5625 2.72778 3.41528 1.875 4.46338 1.875H20.8455C21.8936 1.875 22.7461 2.72778 22.7461 3.77563V16.46C18.834 16.8684 15.7742 20.1875 15.7742 24.2087C15.7742 25.3232 16.0066 26.4009 16.4524 27.3933H4.46338C3.41528 27.3933 2.5625 26.5408 2.5625 25.4927ZM23.5601 30.125C21.6877 30.125 19.9666 29.2654 18.8374 27.7668C18.0601 26.7349 17.6489 25.5046 17.6489 24.2087C17.6489 20.9465 20.3008 18.2925 23.5601 18.2925C23.5908 18.2925 23.6218 18.293 23.6526 18.2935L23.667 18.2937C25.2229 18.3213 26.6816 18.9487 27.7744 20.0605C28.8684 21.1736 29.4709 22.647 29.4709 24.2087C29.4709 27.4709 26.8193 30.125 23.5601 30.125Z" fill="black"/>
</g>
<defs>
<clipPath id="clip0">
<rect width="32" height="32" fill="white"/>
</clipPath>
</defs>
</svg>
