<svg width="20" height="20" viewBox="0 0 20 20" fill="none" xmlns="http://www.w3.org/2000/svg">
<g clip-path="url(#clip0)">
<path d="M15.625 20H4.375C3.34167 20 2.5 19.1592 2.5 18.125V9.375C2.5 8.34083 3.34167 7.5 4.375 7.5H15.625C16.6583 7.5 17.5 8.34083 17.5 9.375V18.125C17.5 19.1592 16.6583 20 15.625 20ZM4.375 8.75C4.03083 8.75 3.75 9.03 3.75 9.375V18.125C3.75 18.47 4.03083 18.75 4.375 18.75H15.625C15.9692 18.75 16.25 18.47 16.25 18.125V9.375C16.25 9.03 15.9692 8.75 15.625 8.75H4.375Z" fill="#B1B5B9"/>
<path d="M14.375 8.75C14.03 8.75 13.75 8.47 13.75 8.125V5C13.75 2.9325 12.0675 1.25 10 1.25C7.9325 1.25 6.25 2.9325 6.25 5V8.125C6.25 8.47 5.97 8.75 5.625 8.75C5.28 8.75 5 8.47 5 8.125V5C5 2.2425 7.2425 0 10 0C12.7575 0 15 2.2425 15 5V8.125C15 8.47 14.72 8.75 14.375 8.75Z" fill="#B1B5B9"/>
<path d="M10.0002 14.1668C9.081 14.1668 8.3335 13.4193 8.3335 12.5002C8.3335 11.581 9.081 10.8335 10.0002 10.8335C10.9193 10.8335 11.6668 11.581 11.6668 12.5002C11.6668 13.4193 10.9193 14.1668 10.0002 14.1668ZM10.0002 12.0835C9.771 12.0835 9.5835 12.2702 9.5835 12.5002C9.5835 12.7302 9.771 12.9168 10.0002 12.9168C10.2293 12.9168 10.4168 12.7302 10.4168 12.5002C10.4168 12.2702 10.2293 12.0835 10.0002 12.0835Z" fill="#B1B5B9"/>
<path d="M10 16.6667C9.655 16.6667 9.375 16.3867 9.375 16.0417V13.75C9.375 13.405 9.655 13.125 10 13.125C10.345 13.125 10.625 13.405 10.625 13.75V16.0417C10.625 16.3867 10.345 16.6667 10 16.6667Z" fill="#B1B5B9"/>
</g>
<defs>
<clipPath id="clip0">
<rect width="20" height="20" fill="white"/>
</clipPath>
</defs>
</svg>
