<svg width="23" height="22" viewBox="0 0 23 22" fill="none" xmlns="http://www.w3.org/2000/svg">
<path d="M15.1757 10.73L15.0531 10.8281L15.1938 10.8977C17.5381 12.0568 19.1455 14.4273 19.1455 17.1556V19.2087C19.1455 19.6802 18.7527 20.0667 18.2626 20.0667H5.62847C5.13832 20.0667 4.74551 19.6802 4.74551 19.2087V17.1556C4.74551 14.4273 6.35318 12.0565 8.69693 10.8975L8.8376 10.8279L8.71512 10.7298C7.57716 9.81823 6.85119 8.43774 6.85119 6.89563C6.85119 4.16194 9.13415 1.93337 11.9455 1.93337C14.7569 1.93337 17.0398 4.16194 17.0398 6.89563C17.0398 8.43775 16.3139 9.81848 15.1757 10.73ZM6.51142 18.2508V18.3508H6.61142H17.2796H17.2798H17.3798V18.2508V17.1556C17.3798 14.232 14.94 11.8581 11.9465 11.8581C8.95104 11.8581 6.51142 14.232 6.51142 17.1556V18.2508ZM15.2739 6.89563C15.2739 5.10318 13.7786 3.64931 11.9455 3.64931C10.1126 3.64931 8.61711 5.10317 8.61711 6.89563C8.61711 8.68833 10.1126 10.1422 11.9455 10.1422C13.7786 10.1422 15.2739 8.68833 15.2739 6.89563Z" fill="#3B3A97" stroke="white" stroke-width="0.2"/>
</svg>
