<svg width="16" height="20" viewBox="0 0 16 20" fill="none" xmlns="http://www.w3.org/2000/svg">
<path d="M11.1757 9.73002L11.0531 9.82814L11.1938 9.89771C13.5381 11.0568 15.1455 13.4273 15.1455 16.1556V18.2087C15.1455 18.6802 14.7527 19.0667 14.2626 19.0667H1.62847C1.13832 19.0667 0.745508 18.6802 0.745508 18.2087V16.1556C0.745508 13.4273 2.35318 11.0565 4.69693 9.89746L4.8376 9.82789L4.71512 9.72978C3.57716 8.81823 2.85119 7.43774 2.85119 5.89563C2.85119 3.16194 5.13415 0.933374 7.94551 0.933374C10.7569 0.933374 13.0398 3.16194 13.0398 5.89563C13.0398 7.43775 12.3139 8.81848 11.1757 9.73002ZM2.51142 17.2508V17.3508H2.61142H13.2796H13.2798H13.3798V17.2508V16.1556C13.3798 13.232 10.94 10.8581 7.94653 10.8581C4.95104 10.8581 2.51142 13.232 2.51142 16.1556V17.2508ZM11.2739 5.89563C11.2739 4.10318 9.77863 2.64931 7.94551 2.64931C6.11265 2.64931 4.61711 4.10317 4.61711 5.89563C4.61711 7.68833 6.11264 9.1422 7.94551 9.1422C9.77864 9.1422 11.2739 7.68833 11.2739 5.89563Z" fill="#707376" stroke="white" stroke-width="0.2"/>
</svg>
