<svg width="28" height="28" viewBox="0 0 28 28" fill="none" xmlns="http://www.w3.org/2000/svg">
<g clip-path="url(#clip0)">
<path d="M22.1286 17.3451C21.5554 16.7482 20.864 16.4291 20.1312 16.4291C19.4043 16.4291 18.707 16.7423 18.1101 17.3391L16.2427 19.2007C16.089 19.1179 15.9354 19.0411 15.7876 18.9643C15.5749 18.8579 15.374 18.7574 15.2026 18.6511C13.4534 17.5401 11.8637 16.0922 10.339 14.2189C9.6003 13.2852 9.10389 12.4992 8.74341 11.7014C9.22799 11.2582 9.67712 10.7972 10.1144 10.354C10.2799 10.1885 10.4454 10.0172 10.6108 9.85169C11.8519 8.61068 11.8519 7.00327 10.6108 5.76225L8.99752 4.14893C8.81432 3.96574 8.62522 3.77663 8.44793 3.58752C8.09335 3.22113 7.72105 2.84291 7.33692 2.48834C6.76369 1.92102 6.07818 1.61963 5.35721 1.61963C4.63624 1.61963 3.93891 1.92102 3.34795 2.48834C3.34204 2.49425 3.34204 2.49425 3.33613 2.50016L1.32687 4.52715C0.570443 5.28358 0.139043 6.20547 0.0444892 7.27511C-0.097341 9.00071 0.410884 10.6081 0.800917 11.66C1.75827 14.2425 3.18839 16.6359 5.32175 19.2007C7.91016 22.2914 11.0245 24.732 14.5821 26.4517C15.9413 27.0959 17.7555 27.8582 19.7825 27.9882C19.9066 27.9941 20.0366 28 20.1548 28C21.5199 28 22.6664 27.5096 23.5647 26.5345C23.5706 26.5227 23.5824 26.5167 23.5883 26.5049C23.8956 26.1326 24.2502 25.7958 24.6225 25.4353C24.8766 25.193 25.1366 24.9389 25.3907 24.6729C25.9758 24.0643 26.2831 23.3551 26.2831 22.6282C26.2831 21.8954 25.9699 21.1922 25.373 20.6012L22.1286 17.3451ZM24.2443 23.5679C24.2384 23.5679 24.2384 23.5738 24.2443 23.5679C24.0138 23.8161 23.7774 24.0406 23.5233 24.2888C23.1392 24.6552 22.7491 25.0393 22.3827 25.4707C21.7859 26.109 21.0826 26.4104 20.1607 26.4104C20.0721 26.4104 19.9775 26.4104 19.8889 26.4045C18.1337 26.2922 16.5027 25.6067 15.2794 25.0216C11.9346 23.4024 8.99752 21.1036 6.55686 18.1901C4.54169 15.7613 3.1943 13.5156 2.30195 11.1045C1.75236 9.63304 1.55143 8.48658 1.64008 7.40512C1.69917 6.7137 1.96511 6.14047 2.4556 5.64997L4.47077 3.6348C4.76034 3.36296 5.06764 3.21522 5.36903 3.21522C5.74134 3.21522 6.04272 3.43978 6.23183 3.62889C6.23774 3.6348 6.24365 3.64071 6.24956 3.64662C6.61004 3.98347 6.9528 4.33213 7.31329 4.70444C7.49648 4.89354 7.68559 5.08265 7.8747 5.27767L9.48802 6.89099C10.1144 7.5174 10.1144 8.09654 9.48802 8.72296C9.31664 8.89434 9.15117 9.06571 8.97979 9.23118C8.48339 9.73941 8.01062 10.2122 7.49648 10.6731C7.48466 10.6849 7.47285 10.6909 7.46694 10.7027C6.95871 11.2109 7.05326 11.7073 7.15964 12.0441C7.16555 12.0619 7.17146 12.0796 7.17737 12.0973C7.59695 13.1138 8.18791 14.0711 9.08616 15.2117L9.09207 15.2176C10.7231 17.2269 12.4428 18.7929 14.3398 19.9926C14.5821 20.1462 14.8303 20.2703 15.0667 20.3885C15.2794 20.4949 15.4803 20.5953 15.6517 20.7017C15.6754 20.7135 15.699 20.7313 15.7226 20.7431C15.9236 20.8435 16.1127 20.8908 16.3077 20.8908C16.7982 20.8908 17.1055 20.5835 17.2059 20.483L19.227 18.462C19.4279 18.261 19.7471 18.0187 20.1194 18.0187C20.4858 18.0187 20.7872 18.2492 20.9704 18.4501C20.9763 18.4561 20.9763 18.4561 20.9822 18.462L24.2384 21.7182C24.847 22.3209 24.847 22.9414 24.2443 23.5679Z" fill="#707376"/>
<path d="M15.1317 6.66051C16.68 6.92054 18.0865 7.65332 19.2093 8.77615C20.3322 9.89897 21.059 11.3055 21.325 12.8538C21.39 13.2438 21.7268 13.5156 22.1109 13.5156C22.1582 13.5156 22.1996 13.5097 22.2469 13.5038C22.6842 13.4329 22.9737 13.0192 22.9028 12.5819C22.5837 10.7086 21.6973 9.00071 20.344 7.64742C18.9907 6.29412 17.2828 5.40768 15.4095 5.08856C14.9722 5.01765 14.5644 5.30722 14.4876 5.73862C14.4108 6.17002 14.6944 6.5896 15.1317 6.66051Z" fill="#707376"/>
<path d="M27.9675 12.3514C27.4415 9.26658 25.9877 6.45953 23.7539 4.2257C21.5201 1.99188 18.713 0.538116 15.6282 0.0121628C15.1968 -0.0646619 14.7891 0.230818 14.7122 0.662218C14.6413 1.09953 14.9309 1.50729 15.3682 1.58411C18.1221 2.05097 20.6337 3.35699 22.6311 5.34852C24.6285 7.34597 25.9286 9.85754 26.3955 12.6114C26.4605 13.0014 26.7974 13.2733 27.1815 13.2733C27.2288 13.2733 27.2701 13.2674 27.3174 13.2615C27.7488 13.1965 28.0443 12.7828 27.9675 12.3514Z" fill="#707376"/>
</g>
<defs>
<clipPath id="clip0">
<rect width="28" height="28" fill="white"/>
</clipPath>
</defs>
</svg>
