<svg width="20" height="20" viewBox="0 0 20 20" fill="none" xmlns="http://www.w3.org/2000/svg">
<path d="M16.6388 3.47738C15.1119 1.26762 12.6921 0 10.0003 0C7.30846 0 4.88866 1.26762 3.36182 3.47738C1.84249 5.67598 1.49167 8.45945 2.42151 10.9186C2.67022 11.5902 3.06557 12.2427 3.59378 12.8541L9.46792 19.7538C9.60077 19.91 9.79542 20 10.0003 20C10.2052 20 10.3998 19.91 10.5327 19.7538L16.4052 12.8559C16.9357 12.241 17.3306 11.5893 17.5772 10.9231C18.5089 8.45945 18.1581 5.67598 16.6388 3.47738ZM16.2677 10.4333C16.0775 10.9473 15.767 11.4555 15.3453 11.9443C15.3441 11.9454 15.343 11.9466 15.342 11.948L10.0003 18.2221L4.6553 11.9441C4.23385 11.4557 3.92335 10.9476 3.73128 10.4287C2.96229 8.39488 3.25413 6.09348 4.51217 4.27273C5.77417 2.44617 7.77464 1.39859 10.0003 1.39859C12.2259 1.39859 14.2262 2.44613 15.4882 4.27273C16.7465 6.09348 17.0385 8.39488 16.2677 10.4333Z" fill="#38369A"/>
<path d="M10.0003 4.14941C7.8411 4.14941 6.08423 5.90605 6.08423 8.06551C6.08423 10.225 7.84087 11.9816 10.0003 11.9816C12.1598 11.9816 13.9164 10.225 13.9164 8.06551C13.9164 5.90629 12.1595 4.14941 10.0003 4.14941ZM10.0003 10.583C8.6122 10.583 7.48282 9.45359 7.48282 8.06547C7.48282 6.67734 8.6122 5.54797 10.0003 5.54797C11.3884 5.54797 12.5178 6.67734 12.5178 8.06547C12.5178 9.45359 11.3884 10.583 10.0003 10.583Z" fill="#38369A"/>
</svg>
