<svg width="200" height="60" viewBox="0 0 200 60" fill="none" xmlns="http://www.w3.org/2000/svg">
<path d="M32.6388 58V49.54H36.3108C37.2388 49.54 37.9548 49.772 38.4588 50.236C38.9628 50.7 39.2148 51.348 39.2148 52.18C39.2148 53.012 38.9628 53.664 38.4588 54.136C37.9548 54.6 37.2388 54.832 36.3108 54.832H34.1748V58H32.6388ZM34.1748 53.62H36.0708C37.1748 53.62 37.7268 53.14 37.7268 52.18C37.7268 51.228 37.1748 50.752 36.0708 50.752H34.1748V53.62ZM42.9103 58.12C42.2463 58.12 41.6743 57.996 41.1943 57.748C40.7143 57.5 40.3423 57.148 40.0783 56.692C39.8223 56.236 39.6943 55.696 39.6943 55.072C39.6943 54.464 39.8183 53.932 40.0663 53.476C40.3223 53.02 40.6703 52.664 41.1103 52.408C41.5583 52.144 42.0663 52.012 42.6343 52.012C43.4663 52.012 44.1223 52.276 44.6023 52.804C45.0903 53.332 45.3343 54.052 45.3343 54.964V55.408H41.1343C41.2463 56.456 41.8463 56.98 42.9343 56.98C43.2623 56.98 43.5903 56.932 43.9183 56.836C44.2463 56.732 44.5463 56.572 44.8183 56.356L45.2383 57.364C44.9583 57.596 44.6063 57.78 44.1823 57.916C43.7583 58.052 43.3343 58.12 42.9103 58.12ZM42.6943 53.032C42.2543 53.032 41.8983 53.168 41.6263 53.44C41.3543 53.712 41.1903 54.08 41.1343 54.544H44.0863C44.0543 54.056 43.9183 53.684 43.6783 53.428C43.4463 53.164 43.1183 53.032 42.6943 53.032ZM46.5222 58V52.132H47.9862V53.164C48.2742 52.468 48.8902 52.084 49.8342 52.012L50.2902 51.976L50.3862 53.248L49.5222 53.332C48.5382 53.428 48.0462 53.932 48.0462 54.844V58H46.5222ZM53.3108 58.12C52.8148 58.12 52.3508 58.06 51.9188 57.94C51.4868 57.82 51.1268 57.648 50.8388 57.424L51.2228 56.44C51.5188 56.64 51.8508 56.796 52.2188 56.908C52.5868 57.012 52.9548 57.064 53.3228 57.064C53.7068 57.064 53.9908 57 54.1748 56.872C54.3668 56.736 54.4628 56.56 54.4628 56.344C54.4628 56.008 54.2148 55.792 53.7188 55.696L52.5188 55.468C51.5028 55.276 50.9948 54.748 50.9948 53.884C50.9948 53.5 51.0988 53.168 51.3068 52.888C51.5228 52.608 51.8188 52.392 52.1948 52.24C52.5708 52.088 53.0028 52.012 53.4908 52.012C53.9068 52.012 54.3068 52.072 54.6908 52.192C55.0748 52.304 55.4028 52.476 55.6748 52.708L55.2668 53.692C55.0348 53.5 54.7548 53.348 54.4268 53.236C54.1068 53.124 53.7988 53.068 53.5028 53.068C53.1108 53.068 52.8188 53.136 52.6268 53.272C52.4428 53.408 52.3508 53.588 52.3508 53.812C52.3508 54.164 52.5788 54.38 53.0348 54.46L54.2348 54.688C54.7548 54.784 55.1468 54.96 55.4108 55.216C55.6828 55.472 55.8188 55.816 55.8188 56.248C55.8188 56.832 55.5908 57.292 55.1348 57.628C54.6788 57.956 54.0708 58.12 53.3108 58.12ZM59.6982 58.12C59.0902 58.12 58.5622 57.996 58.1142 57.748C57.6662 57.5 57.3182 57.148 57.0702 56.692C56.8222 56.228 56.6982 55.684 56.6982 55.06C56.6982 54.436 56.8222 53.896 57.0702 53.44C57.3182 52.984 57.6662 52.632 58.1142 52.384C58.5622 52.136 59.0902 52.012 59.6982 52.012C60.3062 52.012 60.8342 52.136 61.2822 52.384C61.7302 52.632 62.0782 52.984 62.3262 53.44C62.5742 53.896 62.6982 54.436 62.6982 55.06C62.6982 55.684 62.5742 56.228 62.3262 56.692C62.0782 57.148 61.7302 57.5 61.2822 57.748C60.8342 57.996 60.3062 58.12 59.6982 58.12ZM59.6982 56.98C60.1462 56.98 60.5062 56.82 60.7782 56.5C61.0502 56.172 61.1862 55.692 61.1862 55.06C61.1862 54.42 61.0502 53.944 60.7782 53.632C60.5062 53.312 60.1462 53.152 59.6982 53.152C59.2502 53.152 58.8902 53.312 58.6182 53.632C58.3462 53.944 58.2102 54.42 58.2102 55.06C58.2102 55.692 58.3462 56.172 58.6182 56.5C58.8902 56.82 59.2502 56.98 59.6982 56.98ZM63.9363 58V52.132H65.4003V53.044C65.6003 52.708 65.8683 52.452 66.2043 52.276C66.5483 52.1 66.9323 52.012 67.3563 52.012C68.7403 52.012 69.4323 52.816 69.4323 54.424V58H67.9323V54.496C67.9323 54.04 67.8443 53.708 67.6683 53.5C67.5003 53.292 67.2363 53.188 66.8763 53.188C66.4363 53.188 66.0843 53.328 65.8203 53.608C65.5643 53.88 65.4363 54.244 65.4363 54.7V58H63.9363ZM72.8878 58.12C72.4638 58.12 72.0838 58.04 71.7478 57.88C71.4198 57.712 71.1598 57.488 70.9678 57.208C70.7838 56.928 70.6918 56.612 70.6918 56.26C70.6918 55.828 70.8038 55.488 71.0278 55.24C71.2518 54.984 71.6158 54.8 72.1198 54.688C72.6238 54.576 73.2998 54.52 74.1478 54.52H74.5678V54.268C74.5678 53.868 74.4798 53.58 74.3038 53.404C74.1278 53.228 73.8318 53.14 73.4158 53.14C73.0878 53.14 72.7518 53.192 72.4078 53.296C72.0638 53.392 71.7158 53.544 71.3638 53.752L70.9318 52.732C71.1398 52.588 71.3838 52.464 71.6638 52.36C71.9518 52.248 72.2518 52.164 72.5638 52.108C72.8838 52.044 73.1838 52.012 73.4638 52.012C74.3198 52.012 74.9558 52.212 75.3718 52.612C75.7878 53.004 75.9958 53.616 75.9958 54.448V58H74.5918V57.064C74.4558 57.392 74.2398 57.652 73.9438 57.844C73.6478 58.028 73.2958 58.12 72.8878 58.12ZM73.1998 57.088C73.5918 57.088 73.9158 56.952 74.1718 56.68C74.4358 56.408 74.5678 56.064 74.5678 55.648V55.384H74.1598C73.4078 55.384 72.8838 55.444 72.5878 55.564C72.2998 55.676 72.1558 55.884 72.1558 56.188C72.1558 56.452 72.2478 56.668 72.4318 56.836C72.6158 57.004 72.8718 57.088 73.1998 57.088ZM79.5583 58.12C78.8623 58.12 78.3463 57.932 78.0103 57.556C77.6823 57.172 77.5183 56.612 77.5183 55.876V49.54H79.0183V55.804C79.0183 56.524 79.3223 56.884 79.9303 56.884C80.0183 56.884 80.1063 56.88 80.1943 56.872C80.2823 56.864 80.3663 56.848 80.4463 56.824L80.4223 58.012C80.1343 58.084 79.8463 58.12 79.5583 58.12ZM84.7287 58V49.54H87.8727C89.2887 49.54 90.3807 49.904 91.1487 50.632C91.9247 51.36 92.3127 52.404 92.3127 53.764C92.3127 55.116 91.9247 56.16 91.1487 56.896C90.3807 57.632 89.2887 58 87.8727 58H84.7287ZM86.2647 56.728H87.7767C89.7287 56.728 90.7047 55.74 90.7047 53.764C90.7047 51.796 89.7287 50.812 87.7767 50.812H86.2647V56.728ZM96.6173 58.12C95.9533 58.12 95.3813 57.996 94.9013 57.748C94.4213 57.5 94.0493 57.148 93.7853 56.692C93.5293 56.236 93.4013 55.696 93.4013 55.072C93.4013 54.464 93.5253 53.932 93.7733 53.476C94.0293 53.02 94.3773 52.664 94.8173 52.408C95.2653 52.144 95.7733 52.012 96.3413 52.012C97.1733 52.012 97.8293 52.276 98.3093 52.804C98.7973 53.332 99.0413 54.052 99.0413 54.964V55.408H94.8413C94.9533 56.456 95.5533 56.98 96.6413 56.98C96.9693 56.98 97.2973 56.932 97.6253 56.836C97.9533 56.732 98.2533 56.572 98.5253 56.356L98.9453 57.364C98.6653 57.596 98.3133 57.78 97.8893 57.916C97.4653 58.052 97.0413 58.12 96.6173 58.12ZM96.4013 53.032C95.9613 53.032 95.6053 53.168 95.3333 53.44C95.0613 53.712 94.8973 54.08 94.8413 54.544H97.7933C97.7613 54.056 97.6253 53.684 97.3853 53.428C97.1533 53.164 96.8253 53.032 96.4013 53.032ZM102.894 58.12C101.342 58.12 100.566 57.352 100.566 55.816V53.26H99.4378V52.132H100.566V50.38H102.066V52.132H103.842V53.26H102.066V55.732C102.066 56.116 102.15 56.404 102.318 56.596C102.486 56.788 102.758 56.884 103.134 56.884C103.246 56.884 103.362 56.872 103.482 56.848C103.602 56.816 103.726 56.784 103.854 56.752L104.082 57.856C103.938 57.936 103.754 58 103.53 58.048C103.314 58.096 103.102 58.12 102.894 58.12ZM106.743 58.12C106.319 58.12 105.939 58.04 105.603 57.88C105.275 57.712 105.015 57.488 104.823 57.208C104.639 56.928 104.547 56.612 104.547 56.26C104.547 55.828 104.659 55.488 104.883 55.24C105.107 54.984 105.471 54.8 105.975 54.688C106.479 54.576 107.155 54.52 108.003 54.52H108.423V54.268C108.423 53.868 108.335 53.58 108.159 53.404C107.983 53.228 107.687 53.14 107.271 53.14C106.943 53.14 106.607 53.192 106.263 53.296C105.919 53.392 105.571 53.544 105.219 53.752L104.787 52.732C104.995 52.588 105.239 52.464 105.519 52.36C105.807 52.248 106.107 52.164 106.419 52.108C106.739 52.044 107.039 52.012 107.319 52.012C108.175 52.012 108.811 52.212 109.227 52.612C109.643 53.004 109.851 53.616 109.851 54.448V58H108.447V57.064C108.311 57.392 108.095 57.652 107.799 57.844C107.503 58.028 107.151 58.12 106.743 58.12ZM107.055 57.088C107.447 57.088 107.771 56.952 108.027 56.68C108.291 56.408 108.423 56.064 108.423 55.648V55.384H108.015C107.263 55.384 106.739 55.444 106.443 55.564C106.155 55.676 106.011 55.884 106.011 56.188C106.011 56.452 106.103 56.668 106.287 56.836C106.471 57.004 106.727 57.088 107.055 57.088ZM111.278 50.872V49.408H112.958V50.872H111.278ZM111.374 58V52.132H112.874V58H111.374ZM116.472 58.12C115.776 58.12 115.26 57.932 114.924 57.556C114.596 57.172 114.432 56.612 114.432 55.876V49.54H115.932V55.804C115.932 56.524 116.236 56.884 116.844 56.884C116.932 56.884 117.02 56.88 117.108 56.872C117.196 56.864 117.28 56.848 117.36 56.824L117.336 58.012C117.048 58.084 116.76 58.12 116.472 58.12ZM120.354 58.12C119.858 58.12 119.394 58.06 118.962 57.94C118.53 57.82 118.17 57.648 117.882 57.424L118.266 56.44C118.562 56.64 118.894 56.796 119.262 56.908C119.63 57.012 119.998 57.064 120.366 57.064C120.75 57.064 121.034 57 121.218 56.872C121.41 56.736 121.506 56.56 121.506 56.344C121.506 56.008 121.258 55.792 120.762 55.696L119.562 55.468C118.546 55.276 118.038 54.748 118.038 53.884C118.038 53.5 118.142 53.168 118.35 52.888C118.566 52.608 118.862 52.392 119.238 52.24C119.614 52.088 120.046 52.012 120.534 52.012C120.95 52.012 121.35 52.072 121.734 52.192C122.118 52.304 122.446 52.476 122.718 52.708L122.31 53.692C122.078 53.5 121.798 53.348 121.47 53.236C121.15 53.124 120.842 53.068 120.546 53.068C120.154 53.068 119.862 53.136 119.67 53.272C119.486 53.408 119.394 53.588 119.394 53.812C119.394 54.164 119.622 54.38 120.078 54.46L121.278 54.688C121.798 54.784 122.19 54.96 122.454 55.216C122.726 55.472 122.862 55.816 122.862 56.248C122.862 56.832 122.634 57.292 122.178 57.628C121.722 57.956 121.114 58.12 120.354 58.12Z" fill="#38369A"/>
<circle opacity="0.08" cx="78" cy="20" r="20" fill="#38369A"/>
<circle cx="78" cy="20" r="14" fill="#38369A"/>
<circle cx="186" cy="20" r="14" fill="#D1D4D8"/>
<path d="M75.3287 25V23.516H77.5547V17.174L75.8327 18.21L75.1327 16.894L78.0727 15.13H79.3467V23.516H81.4327V25H75.3287Z" fill="white"/>
<path d="M183.362 24V22.86L186.098 19.944C186.466 19.544 186.73 19.192 186.89 18.888C187.05 18.576 187.13 18.26 187.13 17.94C187.13 17.124 186.638 16.716 185.654 16.716C184.886 16.716 184.178 17.004 183.53 17.58L183.014 16.428C183.35 16.124 183.77 15.88 184.274 15.696C184.778 15.512 185.302 15.42 185.846 15.42C186.75 15.42 187.442 15.624 187.922 16.032C188.41 16.44 188.654 17.024 188.654 17.784C188.654 18.296 188.53 18.788 188.282 19.26C188.042 19.732 187.662 20.24 187.142 20.784L185.282 22.728H188.978V24H183.362Z" fill="#3B3E41"/>
<line x1="108" y1="19.4" x2="156" y2="19.4" stroke="#2F3DAC" stroke-width="1.2" stroke-dasharray="5 5"/>
</svg>
