<svg width="201" height="61" viewBox="0 0 201 61" fill="none" xmlns="http://www.w3.org/2000/svg">
<path d="M70.7873 58V49.54H74.4593C75.3873 49.54 76.1033 49.772 76.6073 50.236C77.1113 50.7 77.3633 51.348 77.3633 52.18C77.3633 53.012 77.1113 53.664 76.6073 54.136C76.1033 54.6 75.3873 54.832 74.4593 54.832H72.3233V58H70.7873ZM72.3233 53.62H74.2193C75.3233 53.62 75.8753 53.14 75.8753 52.18C75.8753 51.228 75.3233 50.752 74.2193 50.752H72.3233V53.62ZM78.3542 58V52.132H79.8182V53.164C80.1062 52.468 80.7222 52.084 81.6662 52.012L82.1222 51.976L82.2182 53.248L81.3542 53.332C80.3702 53.428 79.8782 53.932 79.8782 54.844V58H78.3542ZM85.6357 58.12C85.0277 58.12 84.4997 57.996 84.0517 57.748C83.6037 57.5 83.2557 57.148 83.0077 56.692C82.7597 56.228 82.6357 55.684 82.6357 55.06C82.6357 54.436 82.7597 53.896 83.0077 53.44C83.2557 52.984 83.6037 52.632 84.0517 52.384C84.4997 52.136 85.0277 52.012 85.6357 52.012C86.2437 52.012 86.7717 52.136 87.2197 52.384C87.6677 52.632 88.0157 52.984 88.2637 53.44C88.5117 53.896 88.6357 54.436 88.6357 55.06C88.6357 55.684 88.5117 56.228 88.2637 56.692C88.0157 57.148 87.6677 57.5 87.2197 57.748C86.7717 57.996 86.2437 58.12 85.6357 58.12ZM85.6357 56.98C86.0837 56.98 86.4437 56.82 86.7157 56.5C86.9877 56.172 87.1237 55.692 87.1237 55.06C87.1237 54.42 86.9877 53.944 86.7157 53.632C86.4437 53.312 86.0837 53.152 85.6357 53.152C85.1877 53.152 84.8277 53.312 84.5557 53.632C84.2837 53.944 84.1477 54.42 84.1477 55.06C84.1477 55.692 84.2837 56.172 84.5557 56.5C84.8277 56.82 85.1877 56.98 85.6357 56.98ZM89.8258 50.872V49.408H91.5058V50.872H89.8258ZM88.5537 60.316L88.4457 59.224L88.9977 59.164C89.6138 59.092 89.9218 58.732 89.9218 58.084V52.132H91.4218V57.892C91.4218 58.676 91.2418 59.252 90.8818 59.62C90.5218 59.996 89.9178 60.216 89.0697 60.28L88.5537 60.316ZM95.8712 58.12C95.2072 58.12 94.6352 57.996 94.1552 57.748C93.6752 57.5 93.3032 57.148 93.0392 56.692C92.7832 56.236 92.6552 55.696 92.6552 55.072C92.6552 54.464 92.7792 53.932 93.0272 53.476C93.2832 53.02 93.6312 52.664 94.0712 52.408C94.5192 52.144 95.0272 52.012 95.5952 52.012C96.4272 52.012 97.0832 52.276 97.5632 52.804C98.0512 53.332 98.2952 54.052 98.2952 54.964V55.408H94.0952C94.2072 56.456 94.8072 56.98 95.8952 56.98C96.2232 56.98 96.5512 56.932 96.8792 56.836C97.2072 56.732 97.5072 56.572 97.7792 56.356L98.1992 57.364C97.9192 57.596 97.5672 57.78 97.1432 57.916C96.7192 58.052 96.2952 58.12 95.8712 58.12ZM95.6552 53.032C95.2152 53.032 94.8592 53.168 94.5872 53.44C94.3152 53.712 94.1512 54.08 94.0952 54.544H97.0472C97.0152 54.056 96.8792 53.684 96.6392 53.428C96.4072 53.164 96.0792 53.032 95.6552 53.032ZM102.195 58.12C101.579 58.12 101.043 57.996 100.587 57.748C100.131 57.492 99.7791 57.132 99.5311 56.668C99.2831 56.204 99.1591 55.66 99.1591 55.036C99.1591 54.412 99.2831 53.876 99.5311 53.428C99.7791 52.972 100.131 52.624 100.587 52.384C101.043 52.136 101.579 52.012 102.195 52.012C102.571 52.012 102.943 52.072 103.311 52.192C103.679 52.312 103.983 52.48 104.223 52.696L103.779 53.74C103.571 53.556 103.335 53.416 103.071 53.32C102.815 53.224 102.567 53.176 102.327 53.176C101.807 53.176 101.403 53.34 101.115 53.668C100.835 53.988 100.695 54.448 100.695 55.048C100.695 55.64 100.835 56.108 101.115 56.452C101.403 56.788 101.807 56.956 102.327 56.956C102.559 56.956 102.807 56.908 103.071 56.812C103.335 56.716 103.571 56.572 103.779 56.38L104.223 57.436C103.983 57.644 103.675 57.812 103.299 57.94C102.931 58.06 102.563 58.12 102.195 58.12ZM107.855 58.12C106.303 58.12 105.527 57.352 105.527 55.816V53.26H104.399V52.132H105.527V50.38H107.027V52.132H108.803V53.26H107.027V55.732C107.027 56.116 107.111 56.404 107.279 56.596C107.447 56.788 107.719 56.884 108.095 56.884C108.207 56.884 108.323 56.872 108.443 56.848C108.563 56.816 108.687 56.784 108.815 56.752L109.043 57.856C108.899 57.936 108.715 58 108.491 58.048C108.275 58.096 108.063 58.12 107.855 58.12ZM113.151 58V49.54H114.687V58H113.151ZM116.382 58V52.132H117.846V53.044C118.046 52.708 118.314 52.452 118.65 52.276C118.994 52.1 119.378 52.012 119.802 52.012C121.186 52.012 121.878 52.816 121.878 54.424V58H120.378V54.496C120.378 54.04 120.29 53.708 120.114 53.5C119.946 53.292 119.682 53.188 119.322 53.188C118.882 53.188 118.53 53.328 118.266 53.608C118.01 53.88 117.882 54.244 117.882 54.7V58H116.382ZM123.797 58V53.26H122.669V52.132H123.797V52.12C123.797 51.288 124.013 50.66 124.445 50.236C124.885 49.812 125.565 49.572 126.485 49.516L127.073 49.48L127.169 50.584L126.617 50.62C126.137 50.652 125.797 50.772 125.597 50.98C125.397 51.18 125.297 51.48 125.297 51.88V52.132H126.893V53.26H125.297V58H123.797ZM130.296 58.12C129.688 58.12 129.16 57.996 128.712 57.748C128.264 57.5 127.916 57.148 127.668 56.692C127.42 56.228 127.296 55.684 127.296 55.06C127.296 54.436 127.42 53.896 127.668 53.44C127.916 52.984 128.264 52.632 128.712 52.384C129.16 52.136 129.688 52.012 130.296 52.012C130.904 52.012 131.432 52.136 131.88 52.384C132.328 52.632 132.676 52.984 132.924 53.44C133.172 53.896 133.296 54.436 133.296 55.06C133.296 55.684 133.172 56.228 132.924 56.692C132.676 57.148 132.328 57.5 131.88 57.748C131.432 57.996 130.904 58.12 130.296 58.12ZM130.296 56.98C130.744 56.98 131.104 56.82 131.376 56.5C131.648 56.172 131.784 55.692 131.784 55.06C131.784 54.42 131.648 53.944 131.376 53.632C131.104 53.312 130.744 53.152 130.296 53.152C129.848 53.152 129.488 53.312 129.216 53.632C128.944 53.944 128.808 54.42 128.808 55.06C128.808 55.692 128.944 56.172 129.216 56.5C129.488 56.82 129.848 56.98 130.296 56.98ZM134.534 58V52.132H135.998V53.164C136.286 52.468 136.902 52.084 137.846 52.012L138.302 51.976L138.398 53.248L137.534 53.332C136.55 53.428 136.058 53.932 136.058 54.844V58H134.534ZM139.257 58V52.132H140.721V53.032C140.897 52.712 141.141 52.464 141.453 52.288C141.765 52.104 142.125 52.012 142.533 52.012C143.413 52.012 143.989 52.396 144.261 53.164C144.445 52.804 144.709 52.524 145.053 52.324C145.397 52.116 145.789 52.012 146.229 52.012C147.549 52.012 148.209 52.816 148.209 54.424V58H146.709V54.484C146.709 54.036 146.633 53.708 146.481 53.5C146.337 53.292 146.089 53.188 145.737 53.188C145.345 53.188 145.037 53.328 144.813 53.608C144.589 53.88 144.477 54.26 144.477 54.748V58H142.977V54.484C142.977 54.036 142.901 53.708 142.749 53.5C142.605 53.292 142.361 53.188 142.017 53.188C141.625 53.188 141.317 53.328 141.093 53.608C140.869 53.88 140.757 54.26 140.757 54.748V58H139.257ZM151.689 58.12C151.265 58.12 150.885 58.04 150.549 57.88C150.221 57.712 149.961 57.488 149.769 57.208C149.585 56.928 149.493 56.612 149.493 56.26C149.493 55.828 149.605 55.488 149.829 55.24C150.053 54.984 150.417 54.8 150.921 54.688C151.425 54.576 152.101 54.52 152.949 54.52H153.369V54.268C153.369 53.868 153.281 53.58 153.105 53.404C152.929 53.228 152.633 53.14 152.217 53.14C151.889 53.14 151.553 53.192 151.209 53.296C150.865 53.392 150.517 53.544 150.165 53.752L149.733 52.732C149.941 52.588 150.185 52.464 150.465 52.36C150.753 52.248 151.053 52.164 151.365 52.108C151.685 52.044 151.985 52.012 152.265 52.012C153.121 52.012 153.757 52.212 154.173 52.612C154.589 53.004 154.797 53.616 154.797 54.448V58H153.393V57.064C153.257 57.392 153.041 57.652 152.745 57.844C152.449 58.028 152.097 58.12 151.689 58.12ZM152.001 57.088C152.393 57.088 152.717 56.952 152.973 56.68C153.237 56.408 153.369 56.064 153.369 55.648V55.384H152.961C152.209 55.384 151.685 55.444 151.389 55.564C151.101 55.676 150.957 55.884 150.957 56.188C150.957 56.452 151.049 56.668 151.233 56.836C151.417 57.004 151.673 57.088 152.001 57.088ZM159.007 58.12C157.455 58.12 156.679 57.352 156.679 55.816V53.26H155.551V52.132H156.679V50.38H158.179V52.132H159.955V53.26H158.179V55.732C158.179 56.116 158.263 56.404 158.431 56.596C158.599 56.788 158.871 56.884 159.247 56.884C159.359 56.884 159.475 56.872 159.595 56.848C159.715 56.816 159.839 56.784 159.967 56.752L160.195 57.856C160.051 57.936 159.867 58 159.643 58.048C159.427 58.096 159.215 58.12 159.007 58.12ZM160.829 50.872V49.408H162.509V50.872H160.829ZM160.925 58V52.132H162.425V58H160.925ZM166.659 58.12C166.051 58.12 165.523 57.996 165.075 57.748C164.627 57.5 164.279 57.148 164.031 56.692C163.783 56.228 163.659 55.684 163.659 55.06C163.659 54.436 163.783 53.896 164.031 53.44C164.279 52.984 164.627 52.632 165.075 52.384C165.523 52.136 166.051 52.012 166.659 52.012C167.267 52.012 167.795 52.136 168.243 52.384C168.691 52.632 169.039 52.984 169.287 53.44C169.535 53.896 169.659 54.436 169.659 55.06C169.659 55.684 169.535 56.228 169.287 56.692C169.039 57.148 168.691 57.5 168.243 57.748C167.795 57.996 167.267 58.12 166.659 58.12ZM166.659 56.98C167.107 56.98 167.467 56.82 167.739 56.5C168.011 56.172 168.147 55.692 168.147 55.06C168.147 54.42 168.011 53.944 167.739 53.632C167.467 53.312 167.107 53.152 166.659 53.152C166.211 53.152 165.851 53.312 165.579 53.632C165.307 53.944 165.171 54.42 165.171 55.06C165.171 55.692 165.307 56.172 165.579 56.5C165.851 56.82 166.211 56.98 166.659 56.98ZM170.897 58V52.132H172.361V53.044C172.561 52.708 172.829 52.452 173.165 52.276C173.509 52.1 173.893 52.012 174.317 52.012C175.701 52.012 176.393 52.816 176.393 54.424V58H174.893V54.496C174.893 54.04 174.805 53.708 174.629 53.5C174.461 53.292 174.197 53.188 173.837 53.188C173.397 53.188 173.045 53.328 172.781 53.608C172.525 53.88 172.397 54.244 172.397 54.7V58H170.897Z" fill="#38369A"/>
<circle opacity="0.08" cx="122" cy="20" r="20" fill="#38369A"/>
<circle cx="14" cy="20" r="14" fill="#01CF09"/>
<circle cx="122" cy="20" r="14" fill="#38369A"/>
<path d="M11.3287 25V23.516H13.5547V17.174L11.8327 18.21L11.1327 16.894L14.0727 15.13H15.3467V23.516H17.4327V25H11.3287Z" fill="white"/>
<path d="M119.362 24V22.86L122.098 19.944C122.466 19.544 122.73 19.192 122.89 18.888C123.05 18.576 123.13 18.26 123.13 17.94C123.13 17.124 122.638 16.716 121.654 16.716C120.886 16.716 120.178 17.004 119.53 17.58L119.014 16.428C119.35 16.124 119.77 15.88 120.274 15.696C120.778 15.512 121.302 15.42 121.846 15.42C122.75 15.42 123.442 15.624 123.922 16.032C124.41 16.44 124.654 17.024 124.654 17.784C124.654 18.296 124.53 18.788 124.282 19.26C124.042 19.732 123.662 20.24 123.142 20.784L121.282 22.728H124.978V24H119.362Z" fill="white"/>
<line x1="44" y1="19.4" x2="92" y2="19.4" stroke="#2F3DAC" stroke-width="1.2" stroke-dasharray="5 5"/>
</svg>
