<svg width="18" height="18" viewBox="0 0 18 18" fill="none" xmlns="http://www.w3.org/2000/svg">
<path d="M11.4992 0.975122C11.4805 0.97461 11.4609 0.975681 11.4409 0.97889L5.25118 0.97889L5.25114 0.97889C4.07145 0.979254 3.10065 1.8846 3.1 3.01926V3.01934L3.1 15.2345L3.1 15.2346C3.10065 16.3692 4.07147 17.2744 5.25111 17.275H5.25118H14.2488H14.2489C15.4286 17.2744 16.3996 16.3692 16.4 15.2346V15.2345L16.4 5.60411L16.4 5.60299C16.399 5.46537 16.3419 5.33517 16.2434 5.23882L16.2434 5.2388L16.2413 5.23687L11.8819 1.12965L11.879 1.12679L11.8789 1.12671C11.7779 1.02848 11.6408 0.974489 11.4992 0.975122ZM11.4992 0.975122C11.5005 0.97516 11.5019 0.975206 11.5032 0.975261L11.4972 1.12514L11.4956 0.975149C11.4968 0.975137 11.498 0.975127 11.4992 0.975122ZM10.9623 1.99855V4.08445V4.08454C10.963 5.21909 11.9339 6.12442 13.1134 6.12491H13.1135H15.3304V15.227C15.3299 15.7788 14.8541 16.2401 14.2487 16.2406H5.25159C4.64674 16.239 4.17163 15.7783 4.16963 15.2269V3.01222C4.17163 2.46111 4.64661 2.00048 5.25142 1.99855H10.9623ZM12.0321 2.70871L14.5675 5.09775H13.1136C12.5089 5.096 12.0337 4.63526 12.0321 4.084V2.70871Z" fill="white" stroke="white" stroke-width="0.3"/>
<path d="M5.91503 10.325H11.0851C11.3141 10.325 11.5 10.0564 11.5 9.725C11.5 9.39358 11.3141 9.125 11.0851 9.125H5.91503C5.68585 9.125 5.5 9.39358 5.5 9.725C5.5 10.0564 5.68585 10.325 5.91503 10.325Z" fill="white"/>
<path d="M13.1271 12.375H5.87287C5.66697 12.375 5.5 12.6436 5.5 12.975C5.5 13.3064 5.66697 13.575 5.87287 13.575H13.1271C13.3329 13.575 13.5 13.3064 13.5 12.975C13.5 12.6436 13.3329 12.375 13.1271 12.375Z" fill="white"/>
</svg>
