<svg width="28" height="28" viewBox="0 0 28 28" fill="none" xmlns="http://www.w3.org/2000/svg">
<path d="M19.719 13.2309L14.7691 8.281C14.427 7.93887 13.8732 7.93887 13.5319 8.281C13.1898 8.62313 13.1898 9.177 13.5319 9.51826L17.1378 13.125H7.875C7.392 13.125 7 13.517 7 14C7 14.483 7.392 14.875 7.875 14.875H17.1377L13.5319 18.4809C13.1897 18.823 13.1897 19.3769 13.5319 19.7181C13.874 20.0603 14.4279 20.0603 14.7691 19.7181L19.719 14.7683C19.929 14.5583 19.9937 14.2713 19.9465 13.9991C19.9937 13.7287 19.9281 13.4409 19.719 13.2309ZM14 0C6.26761 0 0 6.26761 0 14C0 21.7324 6.26761 28 14 28C21.7324 28 28 21.7315 28 14C28 6.26852 21.7324 0 14 0ZM14 26.25C7.23448 26.25 1.75 20.7655 1.75 14C1.75 7.23448 7.23448 1.75 14 1.75C20.7655 1.75 26.25 7.23448 26.25 14C26.25 20.7655 20.7655 26.25 14 26.25Z" fill="#0A0A0A"/>
</svg>
