<svg width="360" height="680" viewBox="0 0 360 680" fill="none" xmlns="http://www.w3.org/2000/svg">
<path d="M1 5C1 2.23858 3.23858 0 6 0H360V680H6C3.23858 680 1 677.761 1 675V5Z" fill="url(#paint0_linear)"/>
<path d="M1 5C1 2.23858 3.23858 0 6 0H360V680H6C3.23858 680 1 677.761 1 675V5Z" fill="url(#paint1_linear)"/>
<path d="M31.6282 427.807C31.4779 425.47 31.3573 423.132 31.2663 420.795C31.1709 419.629 31.1364 418.459 31.1629 417.289C31.2121 416.108 31.3679 414.935 31.6282 413.783H31.7315C31.9918 414.935 32.1476 416.108 32.1967 417.289C32.2222 418.459 32.1877 419.629 32.0934 420.795C32.0017 423.132 31.8811 425.469 31.7315 427.807H31.6282Z" fill="white"/>
<path d="M16.3763 460.243C16.2275 454.27 16.1069 448.298 16.0145 442.325C15.9587 439.338 15.8439 436.352 15.9111 433.366C16.0052 430.38 16.0807 427.394 16.3763 424.408H16.4797C16.7764 427.394 16.8509 430.38 16.9449 433.366C17.0132 436.352 16.8974 439.338 16.8415 442.325C16.7499 448.298 16.6293 454.27 16.4797 460.243H16.3763Z" fill="white"/>
<path d="M133.067 407.96C132.917 406.611 132.796 405.261 132.705 403.911C132.61 403.241 132.575 402.564 132.601 401.887C132.653 401.192 132.81 400.509 133.067 399.862H133.17C133.426 400.509 133.583 401.192 133.635 401.887C133.661 402.564 133.626 403.241 133.532 403.911C133.44 405.261 133.32 406.61 133.17 407.96H133.067Z" fill="white"/>
<path d="M121.532 467.914L121.17 437.937C121.114 432.941 120.999 427.945 121.066 422.948C121.16 417.953 121.236 412.956 121.532 407.96H121.635C121.932 412.956 122.006 417.953 122.1 422.948C122.168 427.945 122.053 432.941 121.997 437.937L121.635 467.914H121.532Z" fill="white"/>
<path d="M74.0719 325.442C73.923 323.82 73.8025 322.199 73.7101 320.579C73.6158 319.772 73.5813 318.959 73.6067 318.147C73.6575 317.32 73.8138 316.503 74.0719 315.716H74.1753C74.4334 316.503 74.5898 317.32 74.6405 318.147C74.666 318.959 74.6314 319.772 74.5371 320.579C74.4455 322.2 74.3249 323.821 74.1753 325.442H74.0719Z" fill="white"/>
<path d="M70.348 347.294C70.1991 341.061 70.0785 334.829 69.9862 328.598C69.9304 325.481 69.8156 322.365 69.8828 319.249C69.9769 316.134 70.0523 313.018 70.348 309.902H70.4514C70.7481 313.018 70.8225 316.134 70.9166 319.249C70.9848 322.365 70.869 325.481 70.8132 328.598C70.7216 334.829 70.6009 341.061 70.4514 347.294H70.348Z" fill="white"/>
<path d="M331.035 420.817C330.885 419.372 330.764 417.927 330.673 416.481C330.578 415.763 330.544 415.037 330.57 414.313C330.621 413.571 330.778 412.841 331.035 412.145H331.139C331.396 412.841 331.552 413.571 331.604 414.313C331.629 415.037 331.595 415.762 331.501 416.481C331.409 417.927 331.288 419.372 331.139 420.817H331.035Z" fill="white"/>
<path d="M324.614 436.044L324.252 398.168C324.196 391.855 324.081 385.538 324.149 379.23C324.243 372.917 324.318 366.6 324.614 360.291H324.717C325.013 366.604 325.089 372.921 325.183 379.23C325.25 385.542 325.135 391.86 325.079 398.168L324.717 436.044H324.614Z" fill="white"/>
<path d="M269.227 442.663C269.078 440.774 268.958 438.884 268.865 436.993C268.771 436.051 268.737 435.104 268.762 434.158C268.812 433.199 268.968 432.248 269.227 431.324H269.331C269.59 432.248 269.746 433.199 269.796 434.158C269.822 435.104 269.788 436.051 269.692 436.993C269.601 438.884 269.481 440.774 269.331 442.663H269.227Z" fill="white"/>
<path d="M260.152 471.156C260.003 466.407 259.882 461.658 259.79 456.909C259.734 454.535 259.619 452.161 259.687 449.786C259.782 447.412 259.856 445.038 260.152 442.663H260.255C260.552 445.038 260.626 447.412 260.72 449.786C260.789 452.161 260.673 454.535 260.617 456.909C260.526 461.658 260.405 466.407 260.255 471.156H260.152Z" fill="white"/>
<path d="M357.525 471.156L357.163 440.357C357.108 435.225 356.992 430.091 357.06 424.958C357.154 419.825 357.229 414.692 357.525 409.559H357.629C357.924 414.692 358 419.825 358.094 424.958C358.161 430.091 358.046 435.225 357.99 440.357L357.629 471.156H357.525Z" fill="white"/>
<path d="M154.51 139.628L154.924 137.654L155.337 139.628C155.567 140.729 156.078 141.75 156.818 142.591C157.559 143.432 158.503 144.064 159.559 144.424C158.503 144.783 157.559 145.415 156.818 146.256C156.078 147.097 155.567 148.118 155.337 149.219L154.924 151.193L154.51 149.219C154.28 148.118 153.77 147.097 153.029 146.256C152.289 145.415 151.344 144.783 150.288 144.424C151.344 144.064 152.289 143.432 153.029 142.591C153.77 141.75 154.28 140.729 154.51 139.628Z" fill="white"/>
<path d="M340.594 132.861L341.008 130.888L341.421 132.861C341.651 133.962 342.162 134.983 342.902 135.824C343.643 136.665 344.587 137.297 345.643 137.657C344.587 138.017 343.642 138.65 342.902 139.492C342.161 140.334 341.651 141.356 341.421 142.458L341.008 144.431L340.594 142.458C340.364 141.356 339.854 140.334 339.113 139.492C338.373 138.65 337.428 138.017 336.371 137.657C337.427 137.296 338.372 136.665 339.112 135.824C339.853 134.983 340.363 133.962 340.594 132.861Z" fill="white"/>
<path d="M258.223 64.9728L258.637 63L259.05 64.9728C259.28 66.0737 259.791 67.095 260.531 67.936C261.272 68.7769 262.216 69.4084 263.272 69.7681C262.216 70.1289 261.271 70.7616 260.531 71.6036C259.79 72.4456 259.28 73.4679 259.05 74.5697L258.637 76.5425L258.223 74.5697C257.993 73.4678 257.483 72.4454 256.742 71.6035C256.002 70.7615 255.056 70.1289 254 69.7681C255.056 69.408 256 68.7764 256.741 67.9355C257.481 67.0947 257.992 66.0736 258.223 64.9728Z" fill="white"/>
<path d="M175.223 42.9728L175.637 41L176.05 42.9728C176.28 44.0737 176.791 45.095 177.531 45.936C178.272 46.7769 179.216 47.4084 180.272 47.7681C179.216 48.1289 178.271 48.7616 177.531 49.6036C176.79 50.4456 176.28 51.4679 176.05 52.5697L175.637 54.5425L175.223 52.5697C174.993 51.4678 174.483 50.4454 173.742 49.6035C173.002 48.7615 172.056 48.1289 171 47.7681C172.056 47.408 173 46.7764 173.741 45.9355C174.481 45.0947 174.992 44.0736 175.223 42.9728Z" fill="white"/>
<path d="M264.426 282.053L264.84 280.079L265.253 282.053C265.483 283.154 265.994 284.175 266.735 285.016C267.475 285.857 268.42 286.489 269.476 286.848C268.421 287.208 267.476 287.84 266.735 288.681C265.995 289.522 265.484 290.543 265.253 291.643L264.84 293.617L264.426 291.643C264.195 290.543 263.685 289.522 262.944 288.681C262.204 287.84 261.259 287.208 260.203 286.848C261.259 286.489 262.204 285.857 262.945 285.016C263.685 284.175 264.196 283.154 264.426 282.053Z" fill="white"/>
<path d="M73.7114 249.214L74.1249 247.241L74.5384 249.214C74.7692 250.315 75.2801 251.336 76.0206 252.177C76.7611 253.018 77.7057 253.65 78.7615 254.01C77.7054 254.369 76.7604 255.001 76.0198 255.842C75.2793 256.683 74.7687 257.704 74.5384 258.805L74.1249 260.779L73.7114 258.805C73.4811 257.704 72.9705 256.683 72.2299 255.842C71.4893 255.001 70.5444 254.369 69.4883 254.01C70.544 253.65 71.4887 253.018 72.2292 252.177C72.9697 251.336 73.4805 250.315 73.7114 249.214Z" fill="white"/>
<path d="M64.6597 379.393L65.0732 377.42L65.4867 379.393C65.7165 380.495 66.2267 381.517 66.9671 382.359C67.7075 383.201 68.6524 383.834 69.7088 384.195C68.6529 384.554 67.7082 385.186 66.9678 386.027C66.2274 386.868 65.7169 387.889 65.4867 388.99L65.0732 390.963L64.6597 388.99C64.4293 387.889 63.9183 386.867 63.1774 386.026C62.4364 385.185 61.491 384.554 60.4346 384.195C61.4915 383.834 62.4371 383.202 63.178 382.36C63.919 381.518 64.4297 380.495 64.6597 379.393Z" fill="white"/>
<path d="M289.351 375.603L289.765 373.63L290.178 375.603C290.408 376.705 290.918 377.727 291.658 378.569C292.399 379.411 293.344 380.044 294.4 380.405C293.344 380.764 292.399 381.396 291.659 382.237C290.919 383.078 290.408 384.099 290.178 385.2L289.765 387.173L289.351 385.2C289.121 384.099 288.61 383.077 287.87 382.236C287.129 381.396 286.184 380.764 285.128 380.405C286.184 380.044 287.13 379.411 287.87 378.569C288.611 377.727 289.121 376.705 289.351 375.603Z" fill="white"/>
<path d="M124.395 314.026L124.808 312.052L125.222 314.026C125.452 315.127 125.963 316.149 126.703 316.989C127.444 317.83 128.389 318.462 129.445 318.821C128.389 319.182 127.445 319.813 126.704 320.654C125.964 321.495 125.453 322.516 125.222 323.617L124.808 325.591L124.395 323.617C124.164 322.516 123.653 321.495 122.913 320.654C122.172 319.813 121.228 319.182 120.172 318.821C121.228 318.462 122.173 317.83 122.913 316.989C123.654 316.149 124.165 315.127 124.395 314.026Z" fill="white"/>
<path d="M237.143 436.937L237.303 436.175L237.462 436.937C237.552 437.362 237.749 437.756 238.035 438.081C238.321 438.406 238.686 438.65 239.094 438.789C238.686 438.929 238.321 439.173 238.035 439.498C237.749 439.823 237.552 440.217 237.462 440.642L237.303 441.405L237.143 440.642C237.054 440.217 236.856 439.823 236.57 439.498C236.284 439.173 235.919 438.929 235.512 438.789C235.919 438.65 236.284 438.406 236.57 438.081C236.856 437.756 237.054 437.362 237.143 436.937Z" fill="white"/>
<path d="M154.768 234.02L154.927 233.257L155.088 234.02C155.177 234.445 155.375 234.839 155.661 235.163C155.947 235.488 156.311 235.732 156.719 235.871C156.311 236.011 155.946 236.255 155.66 236.58C155.374 236.905 155.177 237.299 155.088 237.724L154.927 238.487L154.768 237.724C154.679 237.299 154.481 236.905 154.195 236.58C153.909 236.255 153.544 236.011 153.137 235.871C153.544 235.732 153.909 235.488 154.195 235.163C154.481 234.839 154.679 234.445 154.768 234.02Z" fill="white"/>
<path d="M338.003 90.762L338.163 90L338.323 90.762C338.412 91.1872 338.61 91.5816 338.896 91.9064C339.182 92.2312 339.546 92.4754 339.954 92.6148C339.546 92.7542 339.182 92.9983 338.896 93.3231C338.61 93.648 338.412 94.0424 338.323 94.4675L338.163 95.2306L338.003 94.4675C337.914 94.0424 337.717 93.648 337.431 93.3231C337.145 92.9983 336.78 92.7542 336.372 92.6148C336.78 92.4754 337.145 92.2312 337.431 91.9064C337.717 91.5816 337.914 91.1872 338.003 90.762Z" fill="white"/>
<path d="M315.001 299.055L315.162 298.292L315.321 299.055C315.41 299.48 315.608 299.874 315.894 300.198C316.18 300.523 316.545 300.767 316.952 300.906C316.544 301.046 316.18 301.29 315.894 301.615C315.608 301.939 315.41 302.334 315.321 302.759L315.162 303.522L315.001 302.759C314.912 302.334 314.715 301.939 314.429 301.615C314.143 301.29 313.778 301.046 313.37 300.906C313.778 300.768 314.143 300.524 314.429 300.199C314.715 299.874 314.913 299.48 315.001 299.055Z" fill="white"/>
<path d="M238.935 142.573L239.094 141.811L239.255 142.573C239.344 142.998 239.541 143.392 239.827 143.717C240.113 144.042 240.478 144.286 240.886 144.426C240.478 144.565 240.113 144.809 239.827 145.134C239.541 145.459 239.344 145.853 239.255 146.278L239.094 147.04L238.935 146.278C238.846 145.853 238.648 145.459 238.362 145.134C238.076 144.809 237.711 144.565 237.304 144.426C237.711 144.286 238.076 144.042 238.362 143.717C238.648 143.392 238.846 142.998 238.935 142.573Z" fill="white"/>
<path d="M358.049 183.214L358.209 182.452L358.369 183.214C358.458 183.639 358.656 184.033 358.942 184.358C359.228 184.683 359.592 184.927 360 185.067C359.592 185.206 359.228 185.45 358.942 185.775C358.656 186.1 358.458 186.494 358.369 186.919L358.209 187.681L358.049 186.919C357.96 186.494 357.762 186.1 357.476 185.775C357.19 185.45 356.825 185.206 356.417 185.067C356.825 184.927 357.19 184.683 357.476 184.359C357.762 184.034 357.96 183.639 358.049 183.214Z" fill="white"/>
<path d="M104.158 93.7525L104.318 92.9905L104.478 93.7525C104.568 94.1777 104.765 94.572 105.051 94.8969C105.337 95.2217 105.702 95.4658 106.11 95.6052C105.701 95.7442 105.336 95.9881 105.049 96.313C104.763 96.6378 104.565 97.0325 104.475 97.458L104.315 98.22L104.155 97.458C104.065 97.0328 103.868 96.6384 103.582 96.3136C103.296 95.9888 102.931 95.7446 102.523 95.6052C102.932 95.4663 103.297 95.2224 103.584 94.8975C103.87 94.5726 104.068 94.178 104.158 93.7525Z" fill="white"/>
<path d="M133.414 258.926L133.574 258.163L133.734 258.926C133.823 259.351 134.021 259.746 134.307 260.071C134.593 260.395 134.958 260.639 135.365 260.779C134.958 260.918 134.593 261.162 134.307 261.487C134.021 261.811 133.824 262.206 133.734 262.631L133.574 263.394L133.414 262.631C133.324 262.206 133.127 261.811 132.841 261.487C132.555 261.162 132.19 260.918 131.782 260.779C132.19 260.639 132.555 260.395 132.841 260.071C133.127 259.746 133.324 259.351 133.414 258.926Z" fill="white"/>
<path d="M161.195 367.285L161.355 366.523L161.514 367.285C161.604 367.71 161.801 368.104 162.087 368.429C162.373 368.754 162.738 368.998 163.146 369.137C162.738 369.277 162.373 369.521 162.087 369.846C161.801 370.171 161.604 370.565 161.514 370.99L161.355 371.752L161.195 370.99C161.105 370.565 160.908 370.171 160.622 369.846C160.336 369.521 159.971 369.277 159.563 369.137C159.971 368.998 160.336 368.754 160.622 368.429C160.908 368.104 161.105 367.71 161.195 367.285Z" fill="white"/>
<path d="M167.89 446.981L168.05 446.218L168.211 446.981C168.3 447.406 168.497 447.801 168.783 448.126C169.069 448.451 169.434 448.695 169.842 448.834C169.434 448.973 169.069 449.218 168.783 449.542C168.497 449.867 168.3 450.262 168.211 450.687L168.05 451.449L167.89 450.687C167.801 450.262 167.603 449.867 167.317 449.542C167.031 449.218 166.667 448.973 166.259 448.834C166.667 448.695 167.031 448.451 167.317 448.126C167.603 447.801 167.801 447.406 167.89 446.981Z" fill="white"/>
<path d="M70.2407 177.984L70.3999 177.221L70.5601 177.984C70.6491 178.41 70.8464 178.804 71.1324 179.129C71.4185 179.454 71.7836 179.697 72.1915 179.836C71.7837 179.975 71.4189 180.22 71.1329 180.544C70.8469 180.869 70.6495 181.264 70.5601 181.689L70.3999 182.452L70.2407 181.689C70.1513 181.264 69.9539 180.869 69.6679 180.544C69.3819 180.22 69.0171 179.975 68.6094 179.836C69.017 179.697 69.3817 179.453 69.6677 179.128C69.9537 178.804 70.1512 178.409 70.2407 177.984Z" fill="white"/>
<path d="M336.211 242.891L336.372 242.128L336.531 242.891C336.62 243.316 336.818 243.711 337.104 244.035C337.39 244.36 337.754 244.604 338.162 244.744C337.754 244.883 337.39 245.127 337.104 245.452C336.818 245.777 336.62 246.171 336.531 246.596L336.372 247.358L336.211 246.596C336.122 246.171 335.925 245.777 335.639 245.452C335.353 245.127 334.988 244.883 334.58 244.744C334.988 244.604 335.353 244.36 335.639 244.035C335.925 243.711 336.122 243.316 336.211 242.891Z" fill="white"/>
<path d="M330.927 455.056L331.088 454.294L331.247 455.056C331.336 455.481 331.533 455.876 331.819 456.201C332.105 456.525 332.47 456.77 332.878 456.909C332.47 457.048 332.105 457.292 331.819 457.617C331.533 457.942 331.336 458.337 331.247 458.762L331.088 459.525L330.927 458.762C330.838 458.337 330.641 457.942 330.354 457.617C330.068 457.292 329.704 457.048 329.296 456.909C329.704 456.77 330.068 456.525 330.354 456.201C330.641 455.876 330.838 455.481 330.927 455.056Z" fill="white"/>
<path d="M358.209 322.131C358.209 322.786 358.016 323.426 357.656 323.97C357.296 324.515 356.784 324.939 356.185 325.189C355.586 325.44 354.927 325.505 354.291 325.378C353.655 325.25 353.071 324.935 352.613 324.472C352.154 324.009 351.842 323.419 351.715 322.777C351.589 322.135 351.654 321.47 351.902 320.865C352.15 320.26 352.57 319.743 353.109 319.379C353.648 319.016 354.282 318.821 354.931 318.821C355.361 318.821 355.787 318.907 356.185 319.073C356.583 319.24 356.944 319.484 357.249 319.791C357.553 320.098 357.794 320.463 357.959 320.865C358.124 321.266 358.209 321.697 358.209 322.131Z" fill="white"/>
<path d="M268.118 343.983C268.118 344.637 267.926 345.277 267.565 345.822C267.205 346.366 266.693 346.79 266.094 347.041C265.495 347.291 264.836 347.357 264.2 347.229C263.564 347.101 262.98 346.786 262.522 346.323C262.063 345.86 261.751 345.27 261.625 344.628C261.498 343.986 261.563 343.321 261.811 342.716C262.059 342.111 262.479 341.594 263.018 341.231C263.558 340.867 264.191 340.673 264.84 340.673C265.709 340.673 266.543 341.022 267.157 341.642C267.772 342.263 268.118 343.105 268.118 343.983Z" fill="white"/>
<path d="M215.799 133.818C215.799 134.473 215.606 135.113 215.246 135.657C214.886 136.202 214.374 136.626 213.775 136.876C213.176 137.127 212.517 137.193 211.881 137.065C211.245 136.937 210.661 136.622 210.202 136.159C209.744 135.696 209.432 135.106 209.305 134.464C209.179 133.822 209.244 133.157 209.492 132.552C209.74 131.947 210.16 131.43 210.699 131.066C211.238 130.703 211.872 130.509 212.52 130.509C212.951 130.509 213.377 130.594 213.775 130.761C214.173 130.927 214.534 131.171 214.838 131.478C215.143 131.785 215.384 132.15 215.549 132.552C215.714 132.953 215.799 133.384 215.799 133.818Z" fill="white"/>
<path d="M156.593 190.993C156.594 191.325 156.497 191.651 156.314 191.928C156.132 192.205 155.872 192.422 155.568 192.55C155.263 192.678 154.928 192.712 154.605 192.648C154.281 192.584 153.984 192.424 153.75 192.189C153.517 191.954 153.357 191.655 153.292 191.328C153.227 191.002 153.26 190.664 153.385 190.356C153.511 190.048 153.724 189.785 153.998 189.599C154.271 189.414 154.593 189.315 154.923 189.314C155.365 189.313 155.789 189.49 156.102 189.804C156.415 190.119 156.592 190.546 156.593 190.993Z" fill="white"/>
<path d="M289.764 95.2307C289.764 95.5632 289.666 95.8884 289.483 96.1649C289.3 96.4414 289.04 96.657 288.735 96.7842C288.431 96.9115 288.096 96.9448 287.773 96.8799C287.45 96.815 287.153 96.6549 286.92 96.4197C286.688 96.1845 286.529 95.8849 286.465 95.5587C286.4 95.2325 286.433 94.8944 286.559 94.5871C286.685 94.2799 286.899 94.0172 287.173 93.8325C287.447 93.6477 287.769 93.5491 288.098 93.5491C288.54 93.5493 288.963 93.7266 289.275 94.0419C289.588 94.3572 289.763 94.7848 289.764 95.2307Z" fill="white"/>
<path d="M291.43 294.661C291.43 294.994 291.332 295.319 291.149 295.595C290.966 295.872 290.706 296.088 290.401 296.215C290.097 296.342 289.762 296.375 289.439 296.31C289.116 296.246 288.819 296.085 288.586 295.85C288.354 295.615 288.195 295.315 288.131 294.989C288.066 294.663 288.099 294.325 288.225 294.018C288.351 293.71 288.565 293.448 288.839 293.263C289.113 293.078 289.435 292.98 289.764 292.98C290.206 292.98 290.629 293.157 290.942 293.472C291.254 293.788 291.43 294.215 291.43 294.661Z" fill="white"/>
<path d="M347.313 384.195C347.313 384.527 347.215 384.852 347.032 385.129C346.849 385.405 346.589 385.62 346.285 385.747C345.98 385.875 345.645 385.908 345.322 385.843C344.999 385.778 344.703 385.617 344.47 385.382C344.237 385.147 344.079 384.847 344.014 384.521C343.95 384.195 343.983 383.857 344.109 383.55C344.235 383.243 344.449 382.98 344.723 382.795C344.997 382.611 345.318 382.512 345.648 382.512C345.867 382.512 346.083 382.556 346.285 382.64C346.488 382.725 346.671 382.849 346.826 383.005C346.981 383.161 347.103 383.347 347.187 383.551C347.271 383.755 347.313 383.974 347.313 384.195Z" fill="white"/>
<path d="M114.513 174.534C114.513 174.866 114.415 175.191 114.232 175.468C114.049 175.744 113.789 175.96 113.484 176.087C113.18 176.215 112.845 176.248 112.522 176.183C112.199 176.118 111.902 175.958 111.669 175.723C111.437 175.488 111.278 175.188 111.214 174.862C111.149 174.536 111.182 174.197 111.308 173.89C111.434 173.583 111.648 173.32 111.922 173.135C112.196 172.951 112.518 172.852 112.847 172.852C113.289 172.852 113.712 173.029 114.025 173.345C114.337 173.66 114.513 174.088 114.513 174.534Z" fill="white"/>
<path d="M250.145 254.01C250.145 254.664 249.953 255.304 249.593 255.849C249.233 256.393 248.721 256.817 248.122 257.068C247.523 257.318 246.863 257.384 246.228 257.256C245.592 257.128 245.008 256.813 244.549 256.35C244.091 255.887 243.778 255.298 243.652 254.656C243.525 254.013 243.59 253.348 243.838 252.743C244.087 252.138 244.507 251.621 245.046 251.258C245.585 250.894 246.219 250.7 246.867 250.7C247.298 250.7 247.724 250.785 248.122 250.952C248.519 251.118 248.881 251.362 249.185 251.669C249.49 251.977 249.731 252.342 249.896 252.743C250.06 253.145 250.145 253.575 250.145 254.01Z" fill="white"/>
<path d="M80.6804 440.575C80.6804 441.23 80.4881 441.87 80.1279 442.414C79.7677 442.959 79.2557 443.383 78.6567 443.633C78.0577 443.884 77.3986 443.949 76.7627 443.822C76.1268 443.694 75.5427 443.379 75.0842 442.916C74.6257 442.453 74.3135 441.863 74.187 441.221C74.0605 440.579 74.1254 439.913 74.3736 439.309C74.6217 438.704 75.0419 438.187 75.5809 437.823C76.12 437.459 76.7538 437.265 77.4022 437.265C78.2716 437.265 79.1055 437.614 79.7202 438.235C80.335 438.856 80.6804 439.697 80.6804 440.575Z" fill="white"/>
<path d="M6.32628 85.5794C6.32325 85.1756 6.46149 84.7799 6.7235 84.4422C6.98551 84.1045 7.35952 83.84 7.79825 83.6822C8.23697 83.5244 8.72069 83.4803 9.18825 83.5556C9.65582 83.6309 10.0862 83.8221 10.425 84.1051C10.7638 84.3881 10.9959 84.7501 11.0917 85.1454C11.1876 85.5407 11.143 85.9516 10.9636 86.326C10.7842 86.7004 10.478 87.0215 10.0838 87.2488C9.68959 87.4761 9.22505 87.5993 8.74892 87.6029C8.43279 87.6052 8.11934 87.5548 7.8265 87.4544C7.53366 87.354 7.26715 87.2056 7.04219 87.0177C6.81723 86.8298 6.63822 86.6061 6.51539 86.3593C6.39255 86.1125 6.32828 85.8475 6.32628 85.5794Z" fill="white"/>
<path d="M72.3839 71.6066C72.3809 71.2029 72.5191 70.8071 72.7811 70.4694C73.0431 70.1317 73.4171 69.8672 73.8559 69.7094C74.2946 69.5516 74.7783 69.5076 75.2459 69.5828C75.7134 69.6581 76.1439 69.8493 76.4827 70.1323C76.8215 70.4153 77.0535 70.7774 77.1493 71.1727C77.2452 71.568 77.2006 71.9788 77.0212 72.3532C76.8418 72.7276 76.5356 73.0487 76.1414 73.276C75.7472 73.5033 75.2827 73.6265 74.8065 73.6301C74.1681 73.6347 73.5543 73.4242 73.1 73.0447C72.6457 72.6653 72.3881 72.148 72.3839 71.6066Z" fill="white"/>
<path d="M111.776 200.942C111.772 200.538 111.911 200.143 112.173 199.805C112.435 199.467 112.809 199.203 113.247 199.045C113.686 198.887 114.17 198.843 114.637 198.918C115.105 198.994 115.535 199.185 115.874 199.468C116.213 199.751 116.445 200.113 116.541 200.508C116.637 200.904 116.592 201.314 116.413 201.689C116.233 202.063 115.927 202.384 115.533 202.612C115.139 202.839 114.674 202.962 114.198 202.966C113.882 202.968 113.569 202.918 113.276 202.817C112.983 202.717 112.716 202.568 112.491 202.38C112.266 202.193 112.087 201.969 111.965 201.722C111.842 201.475 111.778 201.21 111.776 200.942Z" fill="white"/>
<path d="M154.989 165.353C154.987 165.148 155.057 164.947 155.189 164.775C155.322 164.603 155.512 164.468 155.735 164.387C155.957 164.306 156.203 164.284 156.441 164.321C156.679 164.359 156.898 164.456 157.071 164.6C157.243 164.743 157.362 164.927 157.411 165.128C157.46 165.329 157.438 165.538 157.347 165.728C157.257 165.919 157.101 166.082 156.901 166.198C156.701 166.314 156.465 166.377 156.223 166.379C155.898 166.382 155.586 166.276 155.355 166.083C155.123 165.891 154.992 165.628 154.989 165.353Z" fill="white"/>
<path d="M57.637 225.149C57.6355 224.944 57.7057 224.743 57.8388 224.571C57.9719 224.4 58.1619 224.265 58.3848 224.185C58.6077 224.105 58.8534 224.082 59.091 224.121C59.3285 224.159 59.5472 224.256 59.7193 224.4C59.8915 224.544 60.0093 224.728 60.058 224.928C60.1067 225.129 60.0841 225.338 59.9929 225.528C59.9018 225.718 59.7462 225.882 59.5459 225.997C59.3457 226.112 59.1097 226.175 58.8678 226.177C58.5435 226.179 58.2317 226.072 58.0009 225.879C57.7701 225.687 57.6393 225.424 57.637 225.149Z" fill="white"/>
<path d="M55.4925 102.155C55.4909 101.95 55.5611 101.749 55.6943 101.577C55.8274 101.406 56.0174 101.271 56.2403 101.191C56.4632 101.111 56.7089 101.088 56.9465 101.127C57.184 101.165 57.4027 101.262 57.5748 101.406C57.7469 101.55 57.8648 101.734 57.9135 101.934C57.9622 102.135 57.9395 102.344 57.8484 102.534C57.7572 102.724 57.6017 102.888 57.4014 103.003C57.2012 103.118 56.9652 103.181 56.7233 103.183C56.3989 103.185 56.087 103.078 55.8562 102.886C55.6254 102.693 55.4945 102.43 55.4925 102.155Z" fill="white"/>
<path d="M14.0403 47.2407C14.0389 47.0355 14.1093 46.8345 14.2425 46.6631C14.3757 46.4916 14.5657 46.3573 14.7887 46.2772C15.0116 46.1972 15.2573 46.1749 15.4948 46.2132C15.7323 46.2515 15.9509 46.3487 16.1229 46.4925C16.295 46.6363 16.4128 46.8202 16.4614 47.021C16.51 47.2219 16.4874 47.4305 16.3962 47.6207C16.305 47.8109 16.1495 47.974 15.9492 48.0894C15.7489 48.2049 15.513 48.2675 15.2711 48.2693C15.1105 48.2705 14.9511 48.2448 14.8023 48.1938C14.6535 48.1427 14.5181 48.0673 14.4038 47.9718C14.2895 47.8762 14.1985 47.7625 14.1361 47.637C14.0738 47.5116 14.0412 47.3769 14.0403 47.2407Z" fill="white"/>
<path d="M185.967 175.273C185.966 175.068 186.036 174.867 186.169 174.695C186.302 174.524 186.492 174.389 186.715 174.309C186.938 174.229 187.184 174.207 187.421 174.245C187.659 174.283 187.877 174.38 188.049 174.524C188.222 174.668 188.339 174.852 188.388 175.053C188.437 175.254 188.414 175.462 188.323 175.652C188.232 175.843 188.076 176.006 187.876 176.121C187.676 176.237 187.44 176.299 187.198 176.301C186.873 176.304 186.562 176.197 186.331 176.004C186.1 175.811 185.969 175.548 185.967 175.273Z" fill="white"/>
<path d="M85.9982 127.001C85.9951 126.597 86.1333 126.201 86.3953 125.863C86.6574 125.526 87.0314 125.261 87.4701 125.103C87.9088 124.946 88.3926 124.901 88.8601 124.977C89.3277 125.052 89.7581 125.243 90.0969 125.526C90.4357 125.809 90.6677 126.171 90.7636 126.567C90.8595 126.962 90.8148 127.373 90.6354 127.747C90.456 128.122 90.1498 128.443 89.7556 128.67C89.3614 128.897 88.8969 129.02 88.4208 129.024C88.1046 129.026 87.7912 128.976 87.4983 128.876C87.2055 128.775 86.939 128.627 86.714 128.439C86.4891 128.251 86.3101 128.027 86.1872 127.78C86.0644 127.534 86.0002 127.269 85.9982 127.001Z" fill="white"/>
<path d="M209.583 11.0001C209.58 10.5963 209.718 10.2006 209.98 9.86285C210.242 9.52515 210.616 9.26068 211.055 9.10287C211.494 8.94506 211.978 8.901 212.445 8.97628C212.913 9.05155 213.343 9.24276 213.682 9.52575C214.021 9.80873 214.253 10.1708 214.349 10.5661C214.444 10.9614 214.4 11.3722 214.22 11.7466C214.041 12.121 213.735 12.4422 213.341 12.6695C212.946 12.8968 212.482 13.02 212.006 13.0235C211.367 13.0283 210.753 12.8178 210.299 12.4383C209.845 12.0589 209.587 11.5415 209.583 11.0001Z" fill="white"/>
<path opacity="0.71" d="M171.308 297.133L0 579.831L44.4795 602L215.788 319.302L171.308 297.133Z" fill="url(#paint2_linear)"/>
<path d="M243.157 169.775C237.677 175.127 232.944 181.07 229.063 187.47L172.993 294.921L216.951 316.822L286.87 216.27C290.746 209.868 293.737 203.057 295.778 195.991L243.157 169.775Z" fill="white"/>
<path d="M298.902 169.384L297.296 137.074C297.296 137.06 297.291 137.048 297.283 137.036C297.276 137.025 297.265 137.016 297.252 137.009C297.239 137.003 297.225 137 297.21 137C297.196 137 297.181 137.004 297.169 137.01L266.241 153.113C257.665 157.579 249.882 163.195 243.156 169.77L295.778 195.99C298.291 187.315 299.344 178.345 298.902 169.384Z" fill="#7848B7"/>
<path d="M357.608 494.663C346.428 494.647 335.39 497.759 325.214 503.766C322.718 505.24 319.452 504.535 317.843 502.124C310.513 491.132 301.518 482.267 291.423 476.119C279.975 469.147 267.439 465.869 254.846 466.555C242.254 467.24 229.964 471.87 218.987 480.062C209.24 487.337 200.775 497.237 194.13 509.099C192.746 511.57 189.645 512.534 187.065 511.367C176.691 506.672 165.697 504.856 154.771 506.031C151.878 506.342 149.153 504.376 148.693 501.502C145.982 484.599 140.166 468.808 131.731 455.542C122.414 440.888 110.255 429.87 96.5599 423.672C82.865 417.474 68.1523 416.331 54.003 420.365C41.1123 424.04 29.1333 431.886 19.1267 443.166C17.4423 445.065 14.642 445.529 12.4139 444.314C10.7677 443.416 9.09927 442.591 7.41152 441.842C4.31042 440.466 1 442.865 1 446.258V608.402C1 611.164 3.23858 613.402 6 613.402H355C357.761 613.402 360 611.164 360 608.402V497.136C360 495.799 358.945 494.663 357.608 494.663Z" fill="url(#paint3_linear)"/>
<path d="M360 532.086C360 528.643 356.598 526.25 353.532 527.818C352.858 528.163 352.188 528.524 351.521 528.9C349.187 530.22 346.199 529.723 344.475 527.671C336.365 518.021 326.732 511.296 316.386 508.105C304.744 504.514 292.638 505.532 281.369 511.051C270.1 516.57 260.095 526.381 252.428 539.43C245.599 551.053 240.855 564.854 238.579 579.632C238.128 582.557 235.338 584.55 232.392 584.277C224.134 583.511 215.848 584.987 207.972 588.627C205.284 589.87 202.007 588.86 200.62 586.244C195.224 576.069 188.424 567.562 180.626 561.263C171.594 553.968 161.481 549.845 151.119 549.235C140.757 548.625 130.442 551.544 121.021 557.752C112.976 563.055 105.779 570.628 99.853 579.994C98.2283 582.562 94.7631 583.303 92.1663 581.725C83.4464 576.426 74.0073 573.884 64.4976 574.311C53.2279 574.818 42.2401 579.477 32.5956 587.84C22.9512 596.203 14.9764 607.986 9.44162 622.05C3.90686 636.115 0.999332 651.986 1 668.129C1.00376 670.57 1.07354 673.01 1.20908 675.442C1.35308 678.026 3.52349 680 6.11133 680H355C357.761 680 360 677.761 360 675V532.086Z" fill="url(#paint4_linear)"/>
<defs>
<linearGradient id="paint0_linear" x1="353" y1="-6.49999" x2="97" y2="372.5" gradientUnits="userSpaceOnUse">
<stop stop-color="#36296D"/>
<stop offset="1" stop-color="#5A4397"/>
</linearGradient>
<linearGradient id="paint1_linear" x1="353" y1="-6.49999" x2="97" y2="372.5" gradientUnits="userSpaceOnUse">
<stop stop-color="#36296D"/>
<stop offset="1" stop-color="#5A4397"/>
</linearGradient>
<linearGradient id="paint2_linear" x1="185.056" y1="465.205" x2="-103.325" y2="290.453" gradientUnits="userSpaceOnUse">
<stop stop-color="white" stop-opacity="0"/>
<stop offset="1" stop-color="white"/>
</linearGradient>
<linearGradient id="paint3_linear" x1="180.5" y1="593.862" x2="180.5" y2="162.219" gradientUnits="userSpaceOnUse">
<stop stop-color="white"/>
<stop offset="1" stop-color="#B282FF"/>
</linearGradient>
<linearGradient id="paint4_linear" x1="180.5" y1="676.52" x2="180.5" y2="395.51" gradientUnits="userSpaceOnUse">
<stop stop-color="white"/>
<stop offset="1" stop-color="#B282FF"/>
</linearGradient>
</defs>
</svg>
