<svg width="24" height="24" viewBox="0 0 24 24" fill="none" xmlns="http://www.w3.org/2000/svg">
<path d="M12 0C5.36756 0 0 5.36705 0 12C0 18.6325 5.36705 24 12 24C18.6324 24 24 18.633 24 12C24 5.36752 18.633 0 12 0ZM12 22.125C6.40387 22.125 1.875 17.5965 1.875 12C1.875 6.40383 6.40345 1.875 12 1.875C17.5961 1.875 22.125 6.40345 22.125 12C22.125 17.5962 17.5965 22.125 12 22.125Z" fill="#B1B5B9"/>
<path d="M16.1059 14.7799L13.3262 12.0001L16.1059 9.22029C16.472 8.8542 16.4721 8.26062 16.106 7.89448C15.7398 7.52834 15.1462 7.52838 14.7802 7.89448L12.0003 10.6743L9.22051 7.89448C8.85447 7.52834 8.26079 7.52834 7.8947 7.89448C7.52861 8.26062 7.52861 8.8542 7.89475 9.22029L10.6745 12.0001L7.89475 14.7799C7.52861 15.146 7.52856 15.7396 7.8947 16.1057C8.26093 16.4719 8.85451 16.4717 9.22051 16.1057L12.0003 13.3259L14.7802 16.1057C15.1462 16.4718 15.7398 16.4718 16.106 16.1057C16.4721 15.7395 16.4721 15.1459 16.1059 14.7799Z" fill="#B1B5B9"/>
</svg>
