<svg width="28" height="28" viewBox="0 0 28 28" fill="none" xmlns="http://www.w3.org/2000/svg">
<g clip-path="url(#clip0)">
<path d="M27.1241 13.8134C26.1879 13.0419 24.7082 12.9757 23.737 14.018L21.326 16.6062C21.0143 15.6043 20.0786 14.8749 18.9757 14.8749H14.6731C14.3467 14.8749 14.2373 14.7502 13.6702 14.3133C11.508 12.4283 8.26033 12.4343 6.10466 14.3313L4.5232 15.7236C3.81232 15.3473 2.98222 15.338 2.26745 15.6951L0.453579 16.6018C0.0483442 16.8047 -0.115664 17.2974 0.0866254 17.7026L5.00823 27.5457C5.21112 27.951 5.7038 28.115 6.10903 27.9127L7.92291 27.0055C8.81699 26.5587 9.31459 25.6465 9.28233 24.7181H18.9756C20.7731 24.7181 22.4907 23.8595 23.5691 22.4214L27.5069 17.1706C28.2709 16.1529 28.15 14.6605 27.1241 13.8134ZM7.189 25.5383L6.10898 26.0785L1.92073 17.7026L3.00131 17.1623C3.40654 16.96 3.89867 17.1235 4.10156 17.5293L7.55595 24.4381C7.7583 24.8432 7.59423 25.3354 7.189 25.5383ZM26.1945 16.1862L22.2567 21.437C21.4862 22.4645 20.2596 23.0775 18.9757 23.0775H8.7098L5.63598 16.9294L7.18845 15.5628C8.73327 14.2039 11.0628 14.2039 12.6077 15.5628C13.5176 16.364 14.0836 16.5154 14.6731 16.5154H18.9756C19.4279 16.5154 19.7959 16.8835 19.7959 17.3357C19.7959 17.7879 19.4278 18.156 18.9756 18.156H14.7863C14.3335 18.156 13.966 18.5235 13.966 18.9762C13.966 19.429 14.3335 19.7965 14.7863 19.7965H19.5252C20.206 19.7965 20.8623 19.511 21.326 19.0128L24.9373 15.1363C25.2676 14.7819 25.774 14.8114 26.0846 15.0832C26.4094 15.3675 26.4445 15.8537 26.1945 16.1862Z" fill="black"/>
<path d="M20.9146 3.9383L19.6405 1.7492C19.4647 1.44689 19.075 1.34338 18.7705 1.51782L17.8305 2.05629C17.6373 1.92365 17.4346 1.80713 17.2235 1.70707V0.631944C17.2235 0.282894 16.9384 0 16.5865 0H14.0385C13.6866 0 13.4015 0.282894 13.4015 0.631944V1.70707C13.1904 1.80713 12.9879 1.92365 12.7945 2.05612L11.8545 1.51782C11.55 1.34338 11.1603 1.44689 10.9845 1.7492L9.71042 3.9383C9.53458 4.24061 9.63892 4.62702 9.9435 4.80146L10.8703 5.33236C10.859 5.45463 10.8534 5.57247 10.8534 5.68734C10.8534 5.80237 10.859 5.9202 10.8703 6.04247L9.9435 6.57337C9.63892 6.74782 9.53458 7.13439 9.71042 7.43654L10.9845 9.62563C11.1603 9.92795 11.55 10.0315 11.8545 9.85702L12.7945 9.31871C12.9877 9.45119 13.1904 9.56787 13.4015 9.66776V10.7431C13.4015 11.0921 13.6866 11.375 14.0385 11.375H16.5865C16.9384 11.375 17.2235 11.0921 17.2235 10.7431V9.66793C17.4346 9.56787 17.6371 9.45135 17.8305 9.31888L18.7705 9.85718C19.075 10.0316 19.4647 9.92811 19.6405 9.6258L20.9146 7.4367C21.0904 7.13439 20.9861 6.74798 20.6815 6.57337L19.7547 6.04264C19.766 5.92036 19.7716 5.80237 19.7716 5.6875C19.7716 5.57263 19.766 5.45463 19.7547 5.33236L20.6813 4.80163C20.9861 4.62702 21.0904 4.24061 20.9146 3.9383V3.9383ZM18.438 5.1125C18.4787 5.33088 18.4976 5.51355 18.4976 5.6875C18.4976 5.86145 18.4787 6.04412 18.438 6.2625C18.3892 6.52548 18.5125 6.7906 18.7461 6.9244L19.4927 7.35195L18.8557 8.4465L18.0991 8.01319C17.8655 7.87939 17.5724 7.90605 17.3672 8.07984C17.0699 8.33146 16.7355 8.52368 16.3732 8.65155C16.1192 8.74108 15.9495 8.97954 15.9495 9.24696V10.1111H14.6755V9.24696C14.6755 8.97954 14.5058 8.74108 14.2518 8.65155C13.8895 8.52368 13.5551 8.33146 13.2578 8.07984C13.0526 7.90605 12.7595 7.87939 12.5259 8.01319L11.7693 8.4465L11.1323 7.35195L11.8789 6.9244C12.1125 6.7906 12.2358 6.52548 12.187 6.2625C12.1463 6.04412 12.1274 5.86145 12.1274 5.6875C12.1274 5.51355 12.1463 5.33088 12.187 5.1125C12.2358 4.84952 12.1125 4.58439 11.8789 4.4506L11.1323 4.02305L11.7693 2.9285L12.5259 3.36181C12.7595 3.49561 13.0526 3.46895 13.2578 3.29516C13.5551 3.04354 13.8895 2.85132 14.2518 2.72345C14.5058 2.63392 14.6755 2.39546 14.6755 2.12804V1.26389H15.9495V2.12804C15.9495 2.39546 16.1192 2.63392 16.3732 2.72345C16.7355 2.85132 17.0699 3.04354 17.3672 3.29516C17.5724 3.46878 17.8655 3.49561 18.0991 3.36181L18.8557 2.9285L19.4927 4.02305L18.7461 4.4506C18.5125 4.58439 18.3892 4.84952 18.438 5.1125V5.1125Z" fill="#38369A"/>
<path d="M15.3125 3.5C14.1063 3.5 13.125 4.48134 13.125 5.6875C13.125 6.89366 14.1063 7.875 15.3125 7.875C16.5187 7.875 17.5 6.89366 17.5 5.6875C17.5 4.48134 16.5187 3.5 15.3125 3.5ZM15.3125 6.41667C14.9105 6.41667 14.5833 6.08949 14.5833 5.6875C14.5833 5.28551 14.9105 4.95833 15.3125 4.95833C15.7145 4.95833 16.0417 5.28551 16.0417 5.6875C16.0417 6.08949 15.7145 6.41667 15.3125 6.41667Z" fill="#38369A"/>
</g>
<defs>
<clipPath id="clip0">
<rect width="28" height="28" fill="white"/>
</clipPath>
</defs>
</svg>
