<svg width="60" height="46" viewBox="0 0 60 46" fill="none" xmlns="http://www.w3.org/2000/svg">
<path fill-rule="evenodd" clip-rule="evenodd" d="M49.6805 12.7224C49.6805 12.0006 50.3153 11.4446 51.0353 11.5081C52.0628 11.5988 53.1152 11.6458 54.1865 11.6458C55.2923 11.6458 56.3779 11.5957 57.4367 11.4992C58.158 11.4335 58.7952 11.9901 58.7952 12.7132V22.6993V35.5749C58.7952 36.4212 57.9397 37.0003 57.1523 36.6869L50.4355 34.0135C49.9796 33.832 49.6805 33.3914 49.6805 32.9014V22.6993V12.7224ZM4.12189 33.5116C5.95023 33.9143 7.80544 34.1156 9.68753 34.1156C12.1343 34.1156 14.2181 33.7801 15.9388 33.1089C17.6596 32.4377 18.9502 31.5384 19.8106 30.4109C20.671 29.2834 21.1011 28.0349 21.1011 26.6658C21.1011 24.8671 20.6171 23.4846 19.6492 22.5181C18.7082 21.5516 17.6058 20.8939 16.3421 20.5449C15.1053 20.1958 13.5862 19.914 11.7847 19.6992C10.6286 19.565 9.78168 19.4308 9.24388 19.2965C8.70616 19.1355 8.43729 18.8804 8.43729 18.5314C8.43729 17.8334 9.43209 17.4845 11.4218 17.4845C13.2634 17.4845 14.9858 17.825 16.5888 18.5063C17.2472 18.7862 18.0349 18.5174 18.3097 17.8577L19.8729 14.1069C20.1115 13.5342 19.874 12.8691 19.2979 12.6372C18.3851 12.2699 17.3461 11.9795 16.1808 11.7662C14.5945 11.444 12.9678 11.283 11.3007 11.283C8.90779 11.283 6.85094 11.6185 5.13017 12.2897C3.43628 12.9608 2.15914 13.8602 1.29874 14.9877C0.438358 16.1153 0.00816356 17.3905 0.00816356 18.8133C0.00816356 20.612 0.478689 21.9946 1.41974 22.9611C2.38767 23.9275 3.5035 24.5852 4.76719 24.9343C6.03088 25.2564 7.56345 25.5249 9.36485 25.7396C10.5479 25.8739 11.3949 26.0081 11.9058 26.1423C12.4435 26.2765 12.7123 26.5182 12.7123 26.8672C12.7123 27.2161 12.4972 27.4846 12.0671 27.6726C11.6637 27.8337 10.9378 27.9142 9.88924 27.9142C8.57172 27.9142 7.21392 27.7397 5.81579 27.3907C4.94479 27.1733 4.14685 26.9038 3.42194 26.5821C2.75162 26.2848 1.93239 26.5496 1.65059 27.2258L0.0919393 30.9658C-0.140272 31.523 0.0776386 32.1705 0.62987 32.4159C1.60151 32.8476 2.76551 33.2129 4.12189 33.5116ZM42.6954 12.6924C41.0822 11.7528 39.3076 11.283 37.3717 11.283C35.2575 11.283 33.567 11.7305 32.3003 12.6254C31.9248 12.8907 31.3221 12.6447 31.3221 12.1854C31.3221 11.9094 31.098 11.6857 30.8216 11.6857H23.85C23.1878 11.6857 22.6511 12.2216 22.6511 12.8828V39.7592C22.6511 40.6056 23.5066 41.1847 24.2939 40.8713L31.0108 38.1978C31.4666 38.0164 31.7658 37.5759 31.7658 37.0858V35.0706C31.7658 34.0102 33.1878 33.332 34.1967 33.663C35.1169 33.9648 36.1751 34.1156 37.3717 34.1156C39.3076 34.1156 41.0822 33.6593 42.6954 32.7465C44.3355 31.8069 45.6261 30.478 46.5671 28.7598C47.5351 27.0149 48.0191 25.0014 48.0191 22.7194C48.0191 20.4375 47.5351 18.4241 46.5671 16.679C45.6261 14.9341 44.3355 13.6052 42.6954 12.6924ZM37.775 25.9007C37.1029 26.6524 36.2425 27.0282 35.1939 27.0282C34.1453 27.0282 33.2849 26.6524 32.6127 25.9007C31.9406 25.149 31.6045 24.0886 31.6045 22.7194C31.6045 21.3503 31.9406 20.2898 32.6127 19.5381C33.2849 18.7596 34.1453 18.3703 35.1939 18.3703C36.2425 18.3703 37.1029 18.7596 37.775 19.5381C38.4472 20.2898 38.7833 21.3503 38.7833 22.7194C38.7833 24.0886 38.4472 25.149 37.775 25.9007Z" fill="#0A0A0A"/>
</svg>
