<svg width="69" height="52" viewBox="0 0 69 52" fill="none" xmlns="http://www.w3.org/2000/svg">
<g clip-path="url(#clip0)">
<path fill-rule="evenodd" clip-rule="evenodd" d="M56.5511 14.3818C56.5511 13.5659 57.2663 12.9373 58.0775 13.0091C59.2352 13.1117 60.4209 13.1649 61.6281 13.1649C62.8739 13.1649 64.0971 13.1081 65.2901 12.9991C66.1028 12.9249 66.8208 13.554 66.8208 14.3714V25.6601V40.215C66.8208 41.1718 65.8568 41.8264 64.9696 41.4722L57.4017 38.45C56.888 38.2448 56.5511 37.7468 56.5511 37.1929V25.6601V14.3818ZM5.2194 37.8827C7.27941 38.3379 9.36971 38.5655 11.4903 38.5655C14.2471 38.5655 16.5949 38.1862 18.5337 37.4275C20.4725 36.6688 21.9267 35.6521 22.8961 34.3775C23.8655 33.1029 24.3502 31.6917 24.3502 30.1439C24.3502 28.1106 23.8049 26.5478 22.7143 25.4552C21.654 24.3627 20.4119 23.6192 18.9882 23.2247C17.5945 22.8301 15.883 22.5115 13.8532 22.2687C12.5506 22.117 11.5964 21.9652 10.9904 21.8134C10.3846 21.6314 10.0816 21.3431 10.0816 20.9486C10.0816 20.1595 11.2025 19.765 13.4443 19.765C15.5193 19.765 17.4599 20.15 19.266 20.9201C20.0079 21.2365 20.8954 20.9327 21.205 20.1869L22.9663 15.9469C23.2351 15.2995 22.9676 14.5477 22.3184 14.2855C21.2899 13.8703 20.1193 13.542 18.8063 13.3009C17.019 12.9367 15.1862 12.7546 13.3079 12.7546C10.6118 12.7546 8.29426 13.1339 6.35544 13.8927C4.44691 14.6514 3.00793 15.668 2.03851 16.9426C1.0691 18.2173 0.584393 19.6588 0.584393 21.2672C0.584393 23.3005 1.11454 24.8635 2.17484 25.956C3.26543 27.0485 4.52264 27.792 5.94646 28.1866C7.37029 28.5507 9.09706 28.8542 11.1267 29.097C12.4597 29.2487 13.414 29.4004 13.9896 29.5522C14.5955 29.7039 14.8984 29.977 14.8984 30.3715C14.8984 30.7661 14.656 31.0695 14.1714 31.282C13.7169 31.4641 12.899 31.5552 11.7176 31.5552C10.2331 31.5552 8.70324 31.3579 7.12794 30.9634C6.14658 30.7176 5.24752 30.413 4.43075 30.0493C3.67549 29.7132 2.75245 30.0126 2.43494 30.777L0.678785 35.0048C0.417148 35.6347 0.662672 36.3667 1.28488 36.644C2.37964 37.132 3.69115 37.545 5.2194 37.8827ZM48.6808 14.3479C46.8632 13.2857 44.8637 12.7546 42.6825 12.7546C40.3004 12.7546 38.3957 13.2605 36.9685 14.2722C36.5454 14.5721 35.8663 14.294 35.8663 13.7748C35.8663 13.4628 35.6138 13.2099 35.3024 13.2099H27.4474C26.7013 13.2099 26.0965 13.8157 26.0965 14.5632V44.9452C26.0965 45.902 27.0605 46.5566 27.9475 46.2023L35.5156 43.1801C36.0292 42.9751 36.3662 42.4771 36.3662 41.9231V39.645C36.3662 38.4463 37.9684 37.6796 39.1052 38.0538C40.1419 38.395 41.3343 38.5655 42.6825 38.5655C44.8637 38.5655 46.8632 38.0496 48.6808 37.0177C50.5287 35.9556 51.9829 34.4534 53.0432 32.5111C54.1338 30.5385 54.6791 28.2624 54.6791 25.6828C54.6791 23.1032 54.1338 20.8272 53.0432 18.8545C51.9829 16.882 50.5287 15.3798 48.6808 14.3479ZM43.1369 29.2791C42.3796 30.1288 41.4102 30.5536 40.2287 30.5536C39.0473 30.5536 38.0779 30.1288 37.3205 29.2791C36.5632 28.4293 36.1845 27.2306 36.1845 25.6828C36.1845 24.1351 36.5632 22.9363 37.3205 22.0866C38.0779 21.2065 39.0473 20.7665 40.2287 20.7665C41.4102 20.7665 42.3796 21.2065 43.1369 22.0866C43.8943 22.9363 44.273 24.1351 44.273 25.6828C44.273 27.2306 43.8943 28.4293 43.1369 29.2791Z" fill="#B3B3B3"/>
</g>
<defs>
<clipPath id="clip0">
<rect width="67.603" height="52" fill="white" transform="translate(0.575195)"/>
</clipPath>
</defs>
</svg>
