<svg width="24" height="24" viewBox="0 0 24 24" fill="none" xmlns="http://www.w3.org/2000/svg">
<g clip-path="url(#clip0)">
<path d="M9 10C6.243 10 4 7.757 4 5C4 2.243 6.243 0 9 0C11.757 0 14 2.243 14 5C14 7.757 11.757 10 9 10ZM9 1.5C7.07 1.5 5.5 3.07 5.5 5C5.5 6.93 7.07 8.5 9 8.5C10.93 8.5 12.5 6.93 12.5 5C12.5 3.07 10.93 1.5 9 1.5Z" fill="#0A0A0A"/>
<path d="M8.85 21.5H0.5C0.086 21.5 -0.25 21.164 -0.25 20.75V16.75C-0.25 14.131 1.881 12 4.5 12H13.5C14.952 12 16.303 12.646 17.205 13.771C17.464 14.094 17.413 14.567 17.089 14.826C16.767 15.087 16.294 15.033 16.035 14.711C15.418 13.941 14.494 13.501 13.5 13.501H4.5C2.708 13.501 1.25 14.959 1.25 16.751V20H8.85C9.264 20 9.6 20.336 9.6 20.75C9.6 21.164 9.264 21.5 8.85 21.5Z" fill="#0A0A0A"/>
<path d="M16.75 23.9999C16.694 23.9999 16.638 23.9939 16.581 23.9799C16.177 23.8869 15.926 23.4849 16.018 23.0809L17.518 16.5809C17.612 16.1779 18.015 15.9229 18.417 16.0189C18.821 16.1119 19.072 16.5139 18.98 16.9179L17.48 23.4179C17.401 23.7659 17.092 23.9999 16.75 23.9999Z" fill="#0A0A0A"/>
<path d="M20.7499 23.0003C20.5449 23.0003 20.3409 22.9163 20.1919 22.7523C19.9149 22.4433 19.9399 21.9703 20.2479 21.6923L22.1289 20.0003L20.2479 18.3083C19.9399 18.0313 19.9149 17.5573 20.1919 17.2483C20.4699 16.9403 20.9439 16.9163 21.2519 17.1923L23.7519 19.4423C23.9099 19.5853 23.9999 19.7873 23.9999 20.0003C23.9999 20.2133 23.9099 20.4153 23.7519 20.5583L21.2519 22.8083C21.1079 22.9373 20.9289 23.0003 20.7499 23.0003Z" fill="#0A0A0A"/>
<path d="M14.25 22.9999C14.071 22.9999 13.892 22.9369 13.748 22.8079L11.248 20.5579C11.09 20.4149 11 20.2129 11 19.9999C11 19.7869 11.09 19.5849 11.248 19.4419L13.748 17.1919C14.056 16.9159 14.53 16.9409 14.808 17.2479C15.085 17.5569 15.06 18.0299 14.752 18.3079L12.871 19.9999L14.752 21.6919C15.06 21.9689 15.085 22.4429 14.808 22.7519C14.659 22.9159 14.455 22.9999 14.25 22.9999Z" fill="#0A0A0A"/>
</g>
<defs>
<clipPath id="clip0">
<rect width="24" height="24" fill="white"/>
</clipPath>
</defs>
</svg>
