<svg width="14" height="14" viewBox="0 0 14 14" fill="none" xmlns="http://www.w3.org/2000/svg">
<g opacity="0.3" clip-path="url(#clip0)">
<path d="M1.14144 9.85005L1.52755 10.2527C1.64909 10.3784 1.81246 10.4494 1.98834 10.4524C2.16411 10.4555 2.33006 10.3903 2.45591 10.2689L7.01742 5.86367L11.4275 10.4304C11.5488 10.5562 11.7124 10.6271 11.8882 10.6301C12.064 10.6332 12.23 10.5681 12.3558 10.4466L12.7557 10.0602C13.0162 9.8089 13.0234 9.39227 12.7719 9.13204L7.52154 3.67553C7.40021 3.54988 7.23716 3.45999 7.05982 3.4569L7.05777 3.45686C6.8819 3.45379 6.71581 3.53803 6.59017 3.65927L1.15777 8.91477C1.03192 9.03611 0.961072 9.20446 0.957809 9.38023C0.954739 9.55611 1.01991 9.7245 1.14144 9.85005Z" fill="#0A0A0A"/>
</g>
<defs>
<clipPath id="clip0">
<rect width="12" height="12" fill="white" transform="translate(12.8945 13.104) rotate(-179)"/>
</clipPath>
</defs>
</svg>
