<svg width="24" height="24" viewBox="0 0 24 24" fill="none" xmlns="http://www.w3.org/2000/svg">
<g clip-path="url(#clip0)">
<path d="M9.13201 21.924C5.12639 21.924 1.9605 21.2241 0.445851 20.0043L0.416371 19.9805L0.389638 19.9538C0.0298359 19.5938 -0.088084 19.1215 0.0664569 18.6583L0.080556 18.6198C0.268056 18.1509 0.727467 17.8352 1.22533 17.8323C2.24999 17.8145 3.14647 17.6924 3.96001 17.4553C2.66234 16.8518 1.76091 15.8068 1.2246 14.2943C1.04424 13.8227 1.19988 13.2997 1.61553 12.9879C1.71807 12.9108 1.83397 12.8526 1.95665 12.8136C1.23558 11.9812 0.702931 11.034 0.404653 10.0322L0.395314 10.0011L0.388906 9.96921C0.287648 9.46255 0.51415 8.94162 0.92925 8.71731C1.10338 8.61734 1.29253 8.56552 1.48241 8.56112C1.2777 8.12021 1.12883 7.66757 1.04058 7.21219C0.795583 5.95022 0.997731 4.68515 1.64116 3.45212L1.79003 3.15439C1.90923 2.91617 2.13701 2.74881 2.39959 2.70614C2.66216 2.66366 2.93132 2.75045 3.11937 2.9385L3.39055 3.21005C5.53289 5.45602 7.45183 6.5217 10.7695 7.25082C10.9177 5.97732 11.4682 4.79355 12.3565 3.86191C13.4136 2.75338 14.8251 2.13138 16.3312 2.11013H16.3411C17.4399 2.11013 18.8029 2.73745 19.6272 3.17984C20.3344 2.94839 21.1864 2.59005 22.0704 2.21121C22.4841 2.01712 22.994 2.10592 23.3192 2.43112C23.638 2.74991 23.7264 3.19943 23.5572 3.63632C23.493 3.81521 23.4201 3.99081 23.339 4.16256C23.46 4.21805 23.5708 4.2933 23.6644 4.38687C23.9473 4.66977 24.0652 5.11252 23.9646 5.51498L23.9538 5.55325C23.6151 6.64493 22.9643 7.53409 22.1037 8.09219C21.96 15.7462 16.1962 21.924 9.13201 21.924ZM1.79552 19.2204C3.22283 20.0279 5.94286 20.5164 9.13201 20.5164C12.1981 20.5164 15.0915 19.2001 17.2791 16.8098C19.4846 14.4 20.6991 11.1999 20.6991 7.79886V7.76059C20.6991 7.4526 20.8687 7.17154 21.1415 7.02688C21.6951 6.73373 22.1433 6.2344 22.4348 5.59591C22.1341 5.64334 21.8285 5.52267 21.6412 5.27109C21.4235 4.97867 21.4211 4.58371 21.6352 4.28872C21.7507 4.12942 21.8555 3.96371 21.9488 3.79233C21.1855 4.11294 20.4606 4.40042 19.8312 4.5914C19.6025 4.66061 19.3476 4.63351 19.1387 4.51687C18.0183 3.89267 16.9748 3.5195 16.3456 3.51767C14.024 3.55319 12.1364 5.54153 12.1364 7.9523C12.1364 8.20151 12.0258 8.43515 11.8334 8.59353C11.6407 8.75174 11.3902 8.81509 11.1456 8.76675C7.32018 8.01309 5.05333 6.88296 2.69603 4.51413C2.3582 5.32364 2.26592 6.139 2.42211 6.94412C2.58049 7.75967 3.00182 8.57687 3.64067 9.30728C3.88347 9.5845 3.9157 9.98111 3.72088 10.294C3.52678 10.6059 3.15783 10.7516 2.80315 10.6566C2.52593 10.5822 2.27105 10.4846 2.02935 10.3592C2.52172 11.4287 3.36858 12.4179 4.43316 13.1474C4.74169 13.3589 4.87059 13.7531 4.74681 14.1061C4.62285 14.4597 4.2766 14.6873 3.90233 14.6595C3.49456 14.6292 3.13329 14.5518 2.80077 14.4212C3.39769 15.6369 4.35149 16.3058 5.82091 16.5614C6.17083 16.6223 6.44329 16.8986 6.49895 17.2489C6.5548 17.5992 6.3814 17.9464 6.06774 18.1128C4.8153 18.7768 3.4464 19.1331 1.79552 19.2204Z" fill="white"/>
</g>
<defs>
<clipPath id="clip0">
<rect width="24" height="24" fill="white"/>
</clipPath>
</defs>
</svg>
