<svg width="60" height="60" viewBox="0 0 60 60" fill="none" xmlns="http://www.w3.org/2000/svg">
<path d="M29.9997 59.9995C46.5681 59.9995 59.9995 46.5681 59.9995 29.9997C59.9995 13.4313 46.5681 0 29.9997 0C13.4313 0 0 13.4313 0 29.9997C0 46.5681 13.4313 59.9995 29.9997 59.9995Z" fill="#55ACEE" fill-opacity="0.15"/>
<path d="M45.5195 20.9363C44.3969 21.434 43.1894 21.7707 41.923 21.9211C43.216 21.1464 44.2083 19.9206 44.6766 18.4576C43.4667 19.1753 42.1261 19.696 40.7005 19.9767C39.5583 18.7602 37.9309 18 36.1289 18C32.6715 18 29.8674 20.8041 29.8674 24.2615C29.8674 24.7523 29.923 25.23 30.0304 25.6885C24.8265 25.4275 20.2125 22.9349 17.124 19.1455C16.5851 20.07 16.276 21.1464 16.276 22.2937C16.276 24.4656 17.3822 26.3829 19.0614 27.5055C18.0355 27.4733 17.0693 27.1917 16.2255 26.7215C16.2251 26.7481 16.2251 26.7747 16.2251 26.8008C16.2251 29.8347 18.3843 32.3652 21.2482 32.94C20.7233 33.0838 20.169 33.1599 19.5989 33.1599C19.1945 33.1599 18.8027 33.1212 18.4207 33.0483C19.2174 35.5354 21.5293 37.3458 24.2699 37.3967C22.1265 39.0764 19.427 40.0771 16.4926 40.0771C15.9883 40.0771 15.4887 40.0477 14.9998 39.9893C17.7693 41.7665 21.0614 42.8027 24.5972 42.8027C36.1144 42.8027 42.4128 33.2617 42.4128 24.9867C42.4128 24.7154 42.4067 24.445 42.3946 24.177C43.619 23.2944 44.6804 22.1919 45.5195 20.9363Z" fill="#55ACEE"/>
</svg>
