<svg width="36" height="36" viewBox="0 0 36 36" fill="none" xmlns="http://www.w3.org/2000/svg">
<path d="M30.4078 23.7238C29.4912 25.9925 28.0335 28.0025 26.1619 29.5786C24.2902 31.1546 22.0614 32.2489 19.6699 32.766C17.2783 33.2831 14.7965 33.2072 12.441 32.5451C10.0854 31.883 7.92763 30.6547 6.1557 28.9673C4.38378 27.2799 3.05154 25.1847 2.27514 22.8643C1.49875 20.5439 1.30179 18.0688 1.70142 15.6548C2.10105 13.2409 3.08515 10.9613 4.5679 9.01491C6.05065 7.06852 7.98704 5.5144 10.2082 4.48807" stroke="#707376" stroke-width="2.5" stroke-linecap="round"/>
<path d="M23.7403 2.74654C22.3833 2.18446 20.9536 1.82577 19.4975 1.67967C18.6732 1.59697 18 2.27631 18 3.10474L18 15.1047C18 15.9332 18.6716 16.6047 19.5 16.6047L31.5 16.6047C32.3284 16.6047 33.0078 15.9315 32.9251 15.1072C32.779 13.6511 32.4203 12.2215 31.8582 10.8645C31.1044 9.0446 29.9995 7.39101 28.6066 5.99814C27.2137 4.60526 25.5601 3.50036 23.7403 2.74654Z" stroke="#707376" stroke-width="2.5" stroke-linecap="round"/>
</svg>
