<svg width="80" height="81" viewBox="0 0 80 81" fill="none" xmlns="http://www.w3.org/2000/svg">
<g clip-path="url(#clip0)">
<path d="M40 0.5C18.0297 0.5 0 18.5297 0 40.5C0 62.4703 18.0297 80.5 40 80.5C61.9703 80.5 80 62.4703 80 40.5C80 18.5297 61.9703 0.5 40 0.5ZM58.2305 34.5559L36.9695 55.8167C36.0541 56.7322 34.5708 56.7322 33.6553 55.8167L21.7695 43.9309C20.8541 43.0155 20.8541 41.5322 21.7695 40.6167L28.398 33.9883C29.3134 33.0728 13.0845 42.5845 14 43.5L36.5 61.5L64 36C64.9155 35.0845 50.6842 23.6978 51.5997 24.6133L58.2305 31.2417C59.1459 32.1572 59.1455 33.6409 58.2305 34.5559Z" fill="#00A707"/>
<path d="M36.4575 43.2573C35.43 44.2908 33.6106 44.2908 32.5831 43.2573L28.3743 39.0238L24.5 42.9209L34.5204 53L55.5 31.8971L51.6229 28L36.4575 43.2573Z" fill="white"/>
</g>
<defs>
<clipPath id="clip0">
<rect width="80" height="80" fill="white" transform="translate(0 0.5)"/>
</clipPath>
</defs>
</svg>
