<svg width="474" height="436" viewBox="0 0 474 436" fill="none" xmlns="http://www.w3.org/2000/svg">
<g clip-path="url(#clip0)">
<path d="M446.519 378.604H336.271C335.467 378.604 334.815 379.259 334.815 380.066V380.305C334.815 381.113 335.467 381.767 336.271 381.767H446.519C447.323 381.767 447.975 381.113 447.975 380.305V380.066C447.975 379.259 447.323 378.604 446.519 378.604Z" fill="#6983C1"/>
<path d="M463.766 378.604H451.055C450.251 378.604 449.599 379.259 449.599 380.066V380.305C449.599 381.113 450.251 381.767 451.055 381.767H463.766C464.57 381.767 465.222 381.113 465.222 380.305V380.066C465.222 379.259 464.57 378.604 463.766 378.604Z" fill="#6983C1"/>
<path d="M203.653 377.03H133.417C132.775 377.03 132.255 377.552 132.255 378.197V379.026C132.255 379.67 132.775 380.193 133.417 380.193H203.653C204.295 380.193 204.815 379.67 204.815 379.026V378.197C204.815 377.552 204.295 377.03 203.653 377.03Z" fill="#6983C1"/>
<path d="M214.727 377.03H207.027C206.385 377.03 205.865 377.552 205.865 378.197V379.026C205.865 379.67 206.385 380.193 207.027 380.193H214.727C215.369 380.193 215.889 379.67 215.889 379.026V378.197C215.889 377.552 215.369 377.03 214.727 377.03Z" fill="#6983C1"/>
<path fill-rule="evenodd" clip-rule="evenodd" d="M201.861 30.6871L402.77 30.5325C406.149 30.5399 409.388 31.8891 411.78 34.2857C414.172 36.6822 415.523 39.9316 415.537 43.3246L415.789 323.739C415.782 327.132 414.438 330.384 412.052 332.786C409.665 335.188 406.429 336.544 403.05 336.559L202.141 336.714C198.761 336.71 195.519 335.362 193.127 332.965C190.734 330.567 189.384 327.316 189.373 323.922L189.121 43.5776C189.11 40.1724 190.446 36.9021 192.834 34.485C195.223 32.068 198.47 30.702 201.861 30.6871Z" fill="url(#paint0_linear)"/>
<path fill-rule="evenodd" clip-rule="evenodd" d="M201.861 30.6871L402.77 30.5325C406.149 30.5399 409.388 31.8891 411.78 34.2857C414.172 36.6822 415.523 39.9316 415.537 43.3246L415.621 160.534C381.868 232.592 306.774 282.72 219.626 282.72C209.503 282.721 199.391 282.035 189.359 280.667L189.121 43.5776C189.11 40.1724 190.446 36.9021 192.834 34.485C195.223 32.068 198.47 30.702 201.861 30.6871Z" fill="url(#paint1_linear)"/>
<path d="M204.969 45.2644H399.9V318.762H204.969V45.2644Z" fill="url(#paint2_linear)"/>
<path opacity="0.3" fill-rule="evenodd" clip-rule="evenodd" d="M204.856 45.3348L361.848 45.2083C367.753 64.8076 370.73 85.178 370.682 105.654C370.682 201.497 307.138 279.191 228.768 279.191C220.802 279.193 212.856 278.383 205.052 276.774L204.856 45.3348Z" fill="white" stroke="#F7F4FA" stroke-width="0.57" stroke-miterlimit="22.93"/>
<path fill-rule="evenodd" clip-rule="evenodd" d="M264.117 15.1959H287.203C287.141 13.1661 287.486 11.1446 288.217 9.25118C288.948 7.35778 290.05 5.63107 291.459 4.17344C292.867 2.71582 294.552 1.55695 296.414 0.765569C298.277 -0.0258124 300.279 -0.433594 302.301 -0.433594C304.324 -0.433594 306.325 -0.0258124 308.188 0.765569C310.05 1.55695 311.736 2.71582 313.144 4.17344C314.552 5.63107 315.654 7.35778 316.385 9.25118C317.116 11.1446 317.461 13.1661 317.4 15.1959H340.485C343.64 15.2033 346.664 16.4641 348.896 18.7029C351.129 20.9417 352.388 23.9766 352.399 27.1446V48.6522L252.231 48.7365V27.1586C252.239 23.9906 253.494 20.9543 255.724 18.7128C257.954 16.4714 260.976 15.207 264.131 15.1959H264.117ZM301.916 8.0548C300.853 8.0548 299.814 8.37139 298.93 8.96453C298.045 9.55767 297.356 10.4007 296.95 11.3871C296.543 12.3734 296.436 13.4588 296.644 14.5059C296.851 15.553 297.363 16.5148 298.115 17.2697C298.867 18.0247 299.825 18.5388 300.867 18.7471C301.91 18.9553 302.991 18.8484 303.973 18.4399C304.956 18.0313 305.795 17.3394 306.386 16.4518C306.977 15.5641 307.292 14.5204 307.292 13.4528C307.292 12.0212 306.726 10.6482 305.717 9.63584C304.709 8.62352 303.342 8.0548 301.916 8.0548ZM271.593 30.9962C270.592 31 269.632 31.401 268.924 32.112C268.216 32.823 267.817 33.7862 267.813 34.7917C267.82 35.7985 268.223 36.7617 268.933 37.4723C269.644 38.1829 270.604 38.5835 271.607 38.5872H332.981C333.984 38.5872 334.945 38.1873 335.654 37.4755C336.363 36.7637 336.761 35.7983 336.761 34.7917C336.754 33.7887 336.353 32.829 335.645 32.1211C334.938 31.4131 333.98 31.014 332.981 31.0103L271.593 30.9962Z" fill="url(#paint3_linear)"/>
<path fill-rule="evenodd" clip-rule="evenodd" d="M223.112 75.7124H249.194V101.943H223.112V75.7124ZM225.31 77.9194V99.8066H247.038V77.9194H225.31Z" fill="#ACC1E4"/>
<path fill-rule="evenodd" clip-rule="evenodd" d="M223.112 123.62H249.194V149.85H223.112V123.62ZM225.31 125.826V147.601H247.038V125.826H225.31Z" fill="#ACC1E4"/>
<path fill-rule="evenodd" clip-rule="evenodd" d="M223.112 171.26H249.194V197.491H223.112V171.26ZM225.31 173.467V195.284H247.038V173.467H225.31Z" fill="#ACC1E4"/>
<path fill-rule="evenodd" clip-rule="evenodd" d="M223.112 220.277H249.194V246.508H223.112V220.277ZM225.31 222.484V244.301H247.038V222.484H225.31Z" fill="#ACC1E4"/>
<path fill-rule="evenodd" clip-rule="evenodd" d="M223.112 271.08H249.194V297.325H223.112V271.08ZM225.31 273.301V295.104H247.038V273.301H225.31Z" fill="#ACC1E4"/>
<path fill-rule="evenodd" clip-rule="evenodd" d="M236.594 87.8017C235.516 87.5205 233.794 85.2011 233.15 84.442L230.994 82.0663C230.672 81.6357 230.321 81.2272 229.944 80.8433C229.23 80.1264 228.349 79.0018 227.145 78.9034C227.145 81.996 228.265 83.6548 229.286 86.0445C230.2 88.1929 231.306 90.2537 232.59 92.2016C232.974 92.8681 233.508 93.4345 234.15 93.8546C234.792 94.2747 235.524 94.5368 236.286 94.6194H237.14C238.457 94.3849 239.704 93.8581 240.792 93.0774C241.879 92.2967 242.779 91.2819 243.426 90.1071C244.63 88.1953 246.674 83.7391 247.794 81.4197C248.228 80.4919 253.17 69.6819 250.44 71.1579C249.205 72.0638 248.107 73.1432 247.178 74.3629L240.276 82.7973C239.59 83.6829 239.044 84.3577 238.344 85.2151C237.623 85.9747 237.032 86.8486 236.594 87.8017Z" fill="url(#paint4_linear)"/>
<path fill-rule="evenodd" clip-rule="evenodd" d="M236.594 136.355C235.516 136.06 233.794 133.755 233.15 132.982L230.994 130.648C230.668 130.216 230.318 129.803 229.944 129.411C229.23 128.708 228.348 127.57 227.145 127.471C227.145 130.578 228.265 132.223 229.286 134.626C230.214 136.768 231.319 138.828 232.59 140.783C232.975 141.449 233.51 142.014 234.152 142.434C234.794 142.854 235.525 143.116 236.286 143.201H237.154C238.468 142.959 239.712 142.429 240.799 141.65C241.885 140.87 242.787 139.859 243.44 138.689C244.63 136.777 246.688 132.321 247.794 129.988C248.228 129.074 253.184 118.264 250.454 119.726C249.218 120.64 248.115 121.724 247.178 122.945L240.29 131.379C239.604 132.251 239.044 132.94 238.344 133.797C237.626 134.548 237.034 135.412 236.594 136.355Z" fill="url(#paint5_linear)"/>
<path fill-rule="evenodd" clip-rule="evenodd" d="M236.594 184.727C235.516 184.445 233.794 182.14 233.15 181.367L230.994 178.991C230.672 178.561 230.321 178.152 229.944 177.768C229.23 177.065 228.348 175.927 227.145 175.828C227.145 178.935 228.265 180.58 229.286 182.969C230.214 185.115 231.319 187.18 232.59 189.14C232.978 189.803 233.513 190.367 234.155 190.786C234.796 191.206 235.526 191.47 236.286 191.558H237.154C238.468 191.316 239.712 190.786 240.799 190.007C241.885 189.227 242.787 188.216 243.44 187.046C244.63 185.12 246.688 180.664 247.794 178.345C248.228 177.417 253.184 166.607 250.454 168.083C249.218 168.992 248.115 170.071 247.178 171.288L240.29 179.722C239.604 180.594 239.044 181.268 238.344 182.14C237.622 182.899 237.031 183.773 236.594 184.727Z" fill="url(#paint6_linear)"/>
<path fill-rule="evenodd" clip-rule="evenodd" d="M236.847 234.405C235.769 234.124 234.047 231.818 233.403 231.045L231.233 228.669C230.91 228.239 230.559 227.83 230.183 227.446C229.469 226.744 228.587 225.605 227.383 225.507C227.383 228.613 228.503 230.258 229.525 232.662C230.444 234.807 231.55 236.867 232.829 238.819C233.216 239.482 233.752 240.045 234.393 240.465C235.034 240.884 235.764 241.149 236.525 241.237H237.379C238.693 240.996 239.938 240.467 241.025 239.687C242.111 238.907 243.013 237.895 243.664 236.724C244.868 234.798 246.912 230.342 248.032 228.023C248.466 227.095 253.408 216.299 250.678 217.761C249.447 218.671 248.349 219.75 247.416 220.966L240.514 229.4C239.828 230.272 239.283 230.961 238.583 231.818C237.866 232.578 237.279 233.452 236.847 234.405Z" fill="url(#paint7_linear)"/>
<path d="M387.538 305.099H301.566C301.156 305.099 300.824 305.432 300.824 305.844C300.824 306.255 301.156 306.589 301.566 306.589H387.538C387.948 306.589 388.28 306.255 388.28 305.844C388.28 305.432 387.948 305.099 387.538 305.099Z" fill="url(#paint8_linear)"/>
<path d="M387.525 308.726H338.204C337.794 308.726 337.462 309.059 337.462 309.471C337.462 309.882 337.794 310.216 338.204 310.216H387.525C387.934 310.216 388.267 309.882 388.267 309.471C388.267 309.059 387.934 308.726 387.525 308.726Z" fill="url(#paint9_linear)"/>
<path fill-rule="evenodd" clip-rule="evenodd" d="M273.092 79.8452H389.289C389.562 79.8489 389.824 79.9596 390.017 80.1539C390.211 80.3482 390.321 80.6107 390.325 80.8855C390.325 81.1613 390.216 81.4259 390.021 81.621C389.827 81.8161 389.563 81.9257 389.289 81.9257H273.092C272.817 81.9257 272.553 81.8161 272.359 81.621C272.165 81.4259 272.056 81.1613 272.056 80.8855C272.059 80.6107 272.17 80.3482 272.363 80.1539C272.557 79.9596 272.818 79.8489 273.092 79.8452Z" fill="#ACC1E4"/>
<path fill-rule="evenodd" clip-rule="evenodd" d="M272.545 87.0284H291.192C291.465 87.0321 291.725 87.1434 291.916 87.338C292.107 87.5327 292.214 87.7952 292.214 88.0687C292.214 88.3422 292.107 88.6046 291.916 88.7993C291.725 88.994 291.465 89.1052 291.192 89.1089H272.545C272.27 89.1089 272.006 88.9993 271.812 88.8042C271.618 88.6092 271.509 88.3446 271.509 88.0687C271.509 87.7928 271.618 87.5282 271.812 87.3331C272.006 87.138 272.27 87.0284 272.545 87.0284Z" fill="#ACC1E4"/>
<path fill-rule="evenodd" clip-rule="evenodd" d="M297.297 87.0284H375.191C375.327 87.0284 375.461 87.0553 375.587 87.1076C375.713 87.1599 375.827 87.2365 375.923 87.3331C376.019 87.4297 376.096 87.5444 376.148 87.6706C376.2 87.7968 376.227 87.9321 376.227 88.0687C376.227 88.2053 376.2 88.3406 376.148 88.4668C376.096 88.593 376.019 88.7077 375.923 88.8042C375.827 88.9008 375.713 88.9775 375.587 89.0297C375.461 89.082 375.327 89.1089 375.191 89.1089H297.297C297.022 89.1089 296.758 88.9993 296.564 88.8042C296.37 88.6092 296.261 88.3446 296.261 88.0687C296.261 87.7928 296.37 87.5282 296.564 87.3331C296.758 87.138 297.022 87.0284 297.297 87.0284Z" fill="#ACC1E4"/>
<path fill-rule="evenodd" clip-rule="evenodd" d="M273.092 94.8021H385.089C385.364 94.8021 385.627 94.9117 385.821 95.1068C386.016 95.3019 386.125 95.5665 386.125 95.8424C386.125 96.1183 386.016 96.3828 385.821 96.5779C385.627 96.773 385.364 96.8826 385.089 96.8826H273.092C272.818 96.879 272.557 96.7682 272.363 96.5739C272.17 96.3796 272.059 96.1171 272.056 95.8424C272.056 95.5665 272.165 95.3019 272.359 95.1068C272.553 94.9117 272.817 94.8021 273.092 94.8021Z" fill="#ACC1E4"/>
<path fill-rule="evenodd" clip-rule="evenodd" d="M273.092 126.726H361.289C361.564 126.726 361.828 126.836 362.022 127.031C362.216 127.226 362.325 127.491 362.325 127.766C362.325 128.042 362.216 128.307 362.022 128.502C361.828 128.697 361.564 128.807 361.289 128.807H273.092C272.818 128.803 272.557 128.692 272.363 128.498C272.17 128.304 272.059 128.041 272.056 127.766C272.056 127.491 272.165 127.226 272.359 127.031C272.553 126.836 272.817 126.726 273.092 126.726Z" fill="#ACC1E4"/>
<path fill-rule="evenodd" clip-rule="evenodd" d="M272.545 133.909H291.192C291.465 133.913 291.725 134.024 291.916 134.219C292.107 134.414 292.214 134.676 292.214 134.95C292.214 135.222 292.107 135.483 291.915 135.675C291.723 135.868 291.463 135.976 291.192 135.976H272.545C272.272 135.976 272.011 135.868 271.817 135.676C271.623 135.484 271.512 135.223 271.509 134.95C271.509 134.674 271.618 134.409 271.812 134.214C272.006 134.019 272.27 133.909 272.545 133.909Z" fill="#ACC1E4"/>
<path fill-rule="evenodd" clip-rule="evenodd" d="M350.397 133.909H375.191C375.327 133.909 375.461 133.936 375.587 133.989C375.713 134.041 375.827 134.118 375.923 134.214C376.019 134.311 376.096 134.425 376.148 134.552C376.2 134.678 376.227 134.813 376.227 134.95C376.223 135.223 376.112 135.484 375.918 135.676C375.724 135.868 375.463 135.976 375.191 135.976H350.397C350.125 135.976 349.864 135.868 349.67 135.676C349.476 135.484 349.365 135.223 349.361 134.95C349.361 134.674 349.47 134.409 349.665 134.214C349.859 134.019 350.123 133.909 350.397 133.909Z" fill="#ACC1E4"/>
<path fill-rule="evenodd" clip-rule="evenodd" d="M273.092 141.683H338.442C338.714 141.687 338.974 141.798 339.165 141.993C339.357 142.187 339.464 142.45 339.464 142.723C339.464 142.996 339.356 143.257 339.165 143.449C338.973 143.641 338.713 143.75 338.442 143.75H273.092C272.819 143.75 272.558 143.642 272.364 143.45C272.17 143.258 272.059 142.997 272.056 142.723C272.056 142.447 272.165 142.183 272.359 141.988C272.553 141.793 272.817 141.683 273.092 141.683Z" fill="#ACC1E4"/>
<path fill-rule="evenodd" clip-rule="evenodd" d="M300.838 133.909H343.663C343.936 133.913 344.196 134.024 344.387 134.219C344.578 134.414 344.685 134.676 344.685 134.95C344.685 135.222 344.578 135.483 344.386 135.675C344.194 135.868 343.934 135.976 343.663 135.976H300.838C300.567 135.976 300.307 135.868 300.116 135.675C299.924 135.483 299.816 135.222 299.816 134.95C299.816 134.676 299.924 134.414 300.115 134.219C300.306 134.024 300.566 133.913 300.838 133.909Z" fill="#ACC1E4"/>
<path fill-rule="evenodd" clip-rule="evenodd" d="M313.593 175.055H385.509C385.781 175.059 386.041 175.17 386.232 175.365C386.424 175.559 386.531 175.822 386.531 176.095C386.531 176.367 386.423 176.628 386.231 176.821C386.04 177.013 385.78 177.121 385.509 177.121H313.593C313.32 177.122 313.059 177.014 312.865 176.822C312.671 176.63 312.56 176.369 312.557 176.095C312.557 175.819 312.666 175.555 312.86 175.36C313.054 175.165 313.318 175.055 313.593 175.055Z" fill="#ACC1E4"/>
<path fill-rule="evenodd" clip-rule="evenodd" d="M272.545 182.238H291.192C291.463 182.238 291.723 182.346 291.915 182.539C292.107 182.731 292.214 182.992 292.214 183.264C292.214 183.538 292.107 183.8 291.916 183.995C291.725 184.19 291.465 184.301 291.192 184.305H272.545C272.27 184.305 272.006 184.195 271.812 184C271.618 183.805 271.509 183.54 271.509 183.264C271.512 182.991 271.623 182.73 271.817 182.538C272.011 182.346 272.272 182.238 272.545 182.238Z" fill="#ACC1E4"/>
<path fill-rule="evenodd" clip-rule="evenodd" d="M273.092 190.012H385.159C385.295 190.012 385.43 190.039 385.555 190.091C385.681 190.143 385.795 190.22 385.891 190.317C385.988 190.413 386.064 190.528 386.116 190.654C386.168 190.78 386.195 190.916 386.195 191.052C386.191 191.326 386.08 191.587 385.886 191.779C385.693 191.971 385.431 192.078 385.159 192.078H273.092C272.819 192.078 272.558 191.971 272.364 191.779C272.17 191.587 272.059 191.326 272.056 191.052C272.056 190.916 272.082 190.78 272.135 190.654C272.187 190.528 272.263 190.413 272.359 190.317C272.455 190.22 272.57 190.143 272.695 190.091C272.821 190.039 272.956 190.012 273.092 190.012Z" fill="#ACC1E4"/>
<path fill-rule="evenodd" clip-rule="evenodd" d="M300.838 182.238H378.83C379.103 182.238 379.364 182.346 379.558 182.538C379.752 182.73 379.863 182.991 379.866 183.264C379.866 183.54 379.757 183.805 379.563 184C379.369 184.195 379.105 184.305 378.83 184.305H300.838C300.566 184.301 300.306 184.19 300.115 183.995C299.924 183.8 299.816 183.538 299.816 183.264C299.816 182.992 299.924 182.731 300.116 182.539C300.307 182.346 300.567 182.238 300.838 182.238Z" fill="#ACC1E4"/>
<path fill-rule="evenodd" clip-rule="evenodd" d="M272.545 175.055H304.058C304.333 175.055 304.596 175.165 304.791 175.36C304.985 175.555 305.094 175.819 305.094 176.095C305.09 176.369 304.98 176.63 304.786 176.822C304.592 177.014 304.33 177.122 304.058 177.121H272.545C272.272 177.122 272.011 177.014 271.817 176.822C271.623 176.63 271.512 176.369 271.509 176.095C271.509 175.819 271.618 175.555 271.812 175.36C272.006 175.165 272.27 175.055 272.545 175.055Z" fill="#ACC1E4"/>
<path fill-rule="evenodd" clip-rule="evenodd" d="M273.092 223.665H389.289C389.561 223.665 389.822 223.773 390.016 223.965C390.21 224.157 390.321 224.418 390.325 224.691C390.325 224.967 390.216 225.232 390.021 225.427C389.827 225.622 389.563 225.731 389.289 225.731H273.092C272.817 225.731 272.553 225.622 272.359 225.427C272.165 225.232 272.056 224.967 272.056 224.691C272.059 224.418 272.17 224.157 272.364 223.965C272.558 223.773 272.819 223.665 273.092 223.665Z" fill="#ACC1E4"/>
<path fill-rule="evenodd" clip-rule="evenodd" d="M278.594 230.834H343.314C343.589 230.834 343.852 230.944 344.047 231.139C344.241 231.334 344.35 231.599 344.35 231.874C344.35 232.15 344.241 232.415 344.047 232.61C343.852 232.805 343.589 232.915 343.314 232.915H278.594C278.319 232.915 278.055 232.805 277.861 232.61C277.667 232.415 277.558 232.15 277.558 231.874C277.558 231.599 277.667 231.334 277.861 231.139C278.055 230.944 278.319 230.834 278.594 230.834Z" fill="#ACC1E4"/>
<path fill-rule="evenodd" clip-rule="evenodd" d="M273.092 238.608H287.413C287.688 238.608 287.952 238.717 288.146 238.913C288.34 239.108 288.449 239.372 288.449 239.648C288.449 239.924 288.34 240.189 288.146 240.384C287.952 240.579 287.688 240.688 287.413 240.688H273.092C272.817 240.688 272.553 240.579 272.359 240.384C272.165 240.189 272.056 239.924 272.056 239.648C272.056 239.372 272.165 239.108 272.359 238.913C272.553 238.717 272.817 238.608 273.092 238.608Z" fill="#ACC1E4"/>
<path fill-rule="evenodd" clip-rule="evenodd" d="M298.388 238.608H386.152C386.427 238.608 386.69 238.717 386.885 238.913C387.079 239.108 387.188 239.372 387.188 239.648C387.188 239.924 387.079 240.189 386.885 240.384C386.69 240.579 386.427 240.688 386.152 240.688H298.388C298.116 240.685 297.856 240.573 297.665 240.379C297.473 240.184 297.366 239.922 297.366 239.648C297.366 239.375 297.473 239.112 297.665 238.918C297.856 238.723 298.116 238.612 298.388 238.608Z" fill="#ACC1E4"/>
<path fill-rule="evenodd" clip-rule="evenodd" d="M273.092 274.327H387.637C387.912 274.327 388.175 274.437 388.369 274.632C388.564 274.827 388.673 275.092 388.673 275.368C388.673 275.644 388.564 275.908 388.369 276.103C388.175 276.298 387.912 276.408 387.637 276.408H273.092C272.817 276.408 272.553 276.298 272.359 276.103C272.165 275.908 272.056 275.644 272.056 275.368C272.056 275.092 272.165 274.827 272.359 274.632C272.553 274.437 272.817 274.327 273.092 274.327Z" fill="#ACC1E4"/>
<path fill-rule="evenodd" clip-rule="evenodd" d="M272.545 281.511H291.192C291.465 281.514 291.725 281.626 291.916 281.82C292.107 282.015 292.214 282.277 292.214 282.551C292.214 282.823 292.107 283.084 291.915 283.277C291.723 283.469 291.463 283.577 291.192 283.577H272.545C272.272 283.577 272.011 283.469 271.817 283.277C271.623 283.085 271.512 282.824 271.509 282.551C271.509 282.275 271.618 282.01 271.812 281.815C272.006 281.62 272.27 281.511 272.545 281.511Z" fill="#ACC1E4"/>
<path fill-rule="evenodd" clip-rule="evenodd" d="M273.092 289.284H387.357C387.632 289.284 387.895 289.394 388.089 289.589C388.284 289.784 388.393 290.049 388.393 290.325C388.389 290.598 388.278 290.859 388.084 291.051C387.891 291.243 387.629 291.351 387.357 291.351H273.092C272.819 291.351 272.558 291.243 272.364 291.051C272.17 290.859 272.059 290.598 272.056 290.325C272.056 290.049 272.165 289.784 272.359 289.589C272.553 289.394 272.817 289.284 273.092 289.284Z" fill="#ACC1E4"/>
<path fill-rule="evenodd" clip-rule="evenodd" d="M300.838 281.511H373.357C373.631 281.511 373.895 281.62 374.089 281.815C374.283 282.01 374.392 282.275 374.392 282.551C374.389 282.824 374.278 283.085 374.084 283.277C373.89 283.469 373.629 283.577 373.357 283.577H300.838C300.567 283.577 300.307 283.469 300.116 283.277C299.924 283.084 299.816 282.823 299.816 282.551C299.816 282.277 299.924 282.015 300.115 281.82C300.306 281.626 300.566 281.514 300.838 281.511Z" fill="#ACC1E4"/>
<path fill-rule="evenodd" clip-rule="evenodd" d="M237.28 284.378C236.202 284.097 234.48 281.792 233.836 281.019L231.666 278.643C231.344 278.212 230.993 277.804 230.616 277.42C229.902 276.717 229.02 275.578 227.816 275.48C227.816 278.587 228.936 280.231 229.958 282.635C230.884 284.778 231.989 286.838 233.262 288.792C233.65 289.455 234.185 290.019 234.827 290.438C235.468 290.858 236.198 291.122 236.958 291.21H237.826C239.138 290.969 240.381 290.439 241.465 289.659C242.55 288.879 243.449 287.868 244.098 286.698C245.302 284.772 247.36 280.316 248.466 277.996C248.9 277.069 253.856 266.273 251.112 267.735C249.884 268.648 248.786 269.727 247.85 270.94L240.962 279.374C240.276 280.245 239.716 280.934 239.016 281.792C238.299 282.552 237.713 283.426 237.28 284.378Z" fill="url(#paint10_linear)"/>
<path d="M133.277 110.335C133.581 112.549 134.263 114.694 135.292 116.675C136.692 118.77 133.053 119.487 133.501 121.919C133.949 124.351 132.101 127.415 127.173 125.433C122.245 123.451 133.277 110.335 133.277 110.335Z" fill="#1D1953"/>
<path d="M127.733 229.344C127.733 229.344 126.837 237.891 128.573 238.875C129.679 239.494 131.107 240.112 132.479 240.703C133.851 241.293 130.309 242.558 126.879 242.741C124.527 242.867 122.203 242.207 122.245 241.785C122.713 237.923 122.548 234.01 121.755 230.202L127.733 229.344Z" fill="#F8A690"/>
<path d="M122.385 240.913C122.204 241.924 122.152 242.954 122.231 243.978C122.609 245.384 136.524 245.384 137.014 243.851C137.378 242.727 134.312 241.448 131.414 240.182C130.714 241.349 129.23 243.191 122.385 240.913Z" fill="#F37368"/>
<path d="M101.974 229.021C101.974 229.021 99.9858 237.455 101.582 238.58C102.492 239.255 103.654 239.986 104.802 240.646C105.95 241.307 103.738 242.446 101.148 242.333C98.2638 242.221 94.9459 240.843 95.0999 240.154C95.9674 236.54 96.265 232.812 95.9819 229.105L101.974 229.021Z" fill="#F8A690"/>
<path d="M95.1974 239.803C94.8907 240.783 94.7073 241.799 94.6514 242.825C94.8614 244.231 108.651 246.03 109.337 244.596C109.841 243.542 106.971 241.883 104.241 240.253C103.387 241.307 101.693 242.909 95.1974 239.803Z" fill="#F37368"/>
<path d="M133.669 147.278C133.669 147.278 137.099 158.608 139.647 161.068C142.195 163.528 150.273 169.502 150.273 169.502L154.262 167.844C154.262 167.844 143.385 157.624 142.503 154.784C141.621 151.945 139.185 143.82 139.185 143.82L133.669 147.278Z" fill="url(#paint11_linear)"/>
<path d="M106.397 157.919C106.397 157.919 102.603 161.757 100.364 170.107C98.5156 176.967 94.7637 234.124 94.7637 234.124C94.7637 234.124 102.449 234.855 102.799 234.124C103.149 233.393 113.425 184.319 113.425 184.319L120.943 234.208H129.343L125.143 162.685L106.397 157.919Z" fill="#101121"/>
<path d="M126.935 128.933C125.063 128.704 123.22 128.285 121.433 127.682C120.285 127.035 111.185 127.513 107.167 130.648C104.717 132.574 101.735 140.306 101.735 140.306L109.029 144.523L110.191 143.244L108.875 152.423L105.417 160.239C105.417 160.239 118.213 170.501 126.193 168.055C126.372 164.213 126.755 160.384 127.341 156.584C127.999 154.138 130.827 152.367 131.737 149.766L132.647 147.194L133.669 149.457L141.018 146.069C141.018 146.069 137.434 135.863 135.265 133.797C133.095 131.731 126.935 128.933 126.935 128.933Z" fill="url(#paint12_linear)"/>
<path d="M102.071 140.488C102.071 140.488 97.5772 151.228 98.4312 153.815C99.2852 156.401 114.447 170.163 114.447 170.163L116.435 166.761C116.435 166.761 105.781 154.489 105.795 152.943C105.809 151.397 108.721 144.27 108.721 144.27L102.071 140.488Z" fill="url(#paint13_linear)"/>
<path d="M115.133 166.438C116.729 166.578 118.315 166.822 119.879 167.169C121.125 167.577 122.679 167.042 122.679 167.802C122.679 168.561 120.215 168.786 120.215 168.786C120.215 168.786 122.091 170.669 122.749 171.161C123.407 171.653 124.387 172.82 124.065 173.34C123.743 173.86 120.719 171.288 120.719 171.288C120.719 171.288 123.057 173.706 122.861 174.24C122.665 174.774 119.249 172.145 119.249 172.145C120.217 173.001 121.107 173.942 121.909 174.957C121.909 175.322 121.461 175.392 120.327 174.746C119.565 174.292 118.851 173.76 118.199 173.157C118.847 173.842 119.459 174.56 120.033 175.308C120.159 175.603 120.117 176.109 118.535 174.971C116.264 173.295 114.374 171.153 112.991 168.687L115.133 166.438Z" fill="url(#paint14_linear)"/>
<path d="M132.563 116.858C132.563 116.858 133.277 116.029 133.697 116.464C134.774 117.561 133.305 118.629 132.479 118.798L132.563 116.858Z" fill="url(#paint15_linear)"/>
<path d="M126.445 104.895C124.688 104.787 122.95 105.308 121.54 106.366C120.13 107.424 119.14 108.95 118.745 110.673C118.476 111.91 118.52 113.196 118.871 114.412C119.342 116.639 120.041 118.81 120.957 120.892C121.826 122.547 122.036 124.472 121.545 126.276L121.209 127.457C121.161 127.644 121.173 127.841 121.244 128.02C121.314 128.199 121.439 128.352 121.601 128.455C124.401 130.184 126.235 129.692 126.865 129.397C126.942 129.36 127.009 129.305 127.06 129.236C127.111 129.168 127.145 129.088 127.159 129.003L127.733 124.618C132.423 124.618 132.927 116.043 133.333 113.512C133.339 113.414 133.339 113.315 133.333 113.217C133.455 112.211 133.371 111.191 133.086 110.219C132.802 109.247 132.322 108.343 131.677 107.564C131.032 106.785 130.235 106.146 129.336 105.687C128.436 105.228 127.452 104.959 126.445 104.895Z" fill="url(#paint16_linear)"/>
<path d="M124.933 112.317C123.947 113.141 123.012 114.023 122.133 114.96C121.084 115.85 120.283 116.998 119.809 118.292C118.764 117.169 118.005 115.809 117.597 114.328C117.348 113.671 117.206 112.978 117.177 112.275C117.226 111.277 117.469 110.299 117.891 109.394C118.267 108.164 118.929 107.041 119.823 106.118C120.481 105.582 121.244 105.189 122.063 104.966C123.948 104.335 125.975 104.262 127.9 104.755C128.863 105.002 129.768 105.436 130.563 106.035C131.358 106.633 132.028 107.383 132.534 108.241C133.752 110.49 133.556 113.203 133.346 115.747C133.14 114.672 132.711 113.651 132.086 112.753C131.757 112.116 131.321 111.541 130.798 111.052C129.826 110.404 128.891 109.7 127.998 108.944C127.291 110.32 126.233 111.484 124.933 112.317Z" fill="#1D1953"/>
<path d="M124.597 104.474C124.597 104.474 119.641 103.293 116.449 109.253C113.257 115.213 110.051 117.462 110.849 120.19C111.338 122.03 112.489 123.623 114.079 124.661C115.669 125.7 117.585 126.11 119.459 125.812C122.553 125.461 122.903 123.971 122.119 121.23C121.335 118.489 118.745 116.731 121.335 114.089C122.627 112.965 124.125 112.106 125.745 111.558L124.597 104.474Z" fill="#1D1953"/>
<path d="M120.845 116.774C120.755 116.522 120.576 116.312 120.341 116.183C120.045 115.972 119.695 115.852 119.332 115.837C118.969 115.822 118.61 115.913 118.297 116.099C117.275 116.886 118.773 119.529 120.733 118.573C120.733 118.573 121.307 118.081 120.845 116.774Z" fill="url(#paint17_linear)"/>
<path d="M243.16 223.215H157.524L172.896 123.774L243.16 223.215Z" fill="url(#paint18_linear)"/>
<path d="M172.895 123.774L164.356 223.215H110.877L172.895 123.774Z" fill="url(#paint19_linear)"/>
<path d="M338.4 370.114L119.081 369.172L130.883 292.841H283.801L338.4 370.114Z" fill="url(#paint20_linear)"/>
<path d="M143.076 292.841L136.511 369.172H0L47.5988 292.841H143.076Z" fill="url(#paint21_linear)"/>
<path d="M113.691 223.215H192.509L241.704 292.841H107.699H96.0938L106.859 223.215H113.691Z" fill="url(#paint22_linear)"/>
<path d="M113.691 223.215L107.699 292.841H96.0935H16.8135L60.2264 223.215H106.859H113.691Z" fill="url(#paint23_linear)"/>
<path d="M110.009 261.901C110.009 261.901 108.077 262.266 110.009 262.927C111.699 263.439 113.471 263.625 115.231 263.475L116.631 260.594C116.631 260.594 114.755 259.188 114.013 258.415C113.271 257.641 112.613 256.137 112.025 256.39C111.437 256.643 112.823 259.019 112.823 259.019C112.298 258.848 111.784 258.647 111.283 258.415C110.681 258.105 110.079 257.726 109.757 258.33C109.435 258.935 110.387 259.385 110.387 259.385C110.387 259.385 109.337 258.963 109.211 259.609C109.085 260.256 110.317 260.762 110.317 260.762C110.317 260.762 109.113 260.439 108.917 260.973C108.721 261.507 110.009 261.901 110.009 261.901Z" fill="url(#paint24_linear)"/>
<path d="M218.786 260.425C219.033 260.407 219.281 260.407 219.528 260.425C219.808 260.425 220.298 260.678 218.898 261.423C217.133 262.175 215.208 262.475 213.298 262.294L211.898 259.413C211.898 259.413 213.76 258.007 214.502 257.234C215.244 256.461 215.902 254.956 216.504 255.209C217.106 255.463 215.692 257.838 215.692 257.838L217.414 256.896C218.016 256.587 218.702 256.222 218.814 256.896C218.814 257.177 218.002 258.147 218.002 258.147C218.002 258.147 219.122 257.529 219.402 258.147C219.682 258.766 218.31 259.3 218.31 259.3C218.31 259.3 219.346 258.991 219.556 259.216C219.766 259.441 219.766 259.736 219.038 260.256L218.786 260.425Z" fill="url(#paint25_linear)"/>
<path d="M165.924 363.675C165.924 363.675 167.604 372.756 167.548 372.855C167.492 372.953 168.066 373.867 168.066 373.867L170.348 374.289L172.434 373.319C172.434 373.319 170.74 364.744 171.034 363.675C171.328 362.607 165.924 363.675 165.924 363.675Z" fill="url(#paint26_linear)"/>
<path d="M172.434 373.319C171.626 373.574 170.773 373.653 169.932 373.549C169.092 373.444 168.283 373.16 167.562 372.714C167.562 372.714 158.798 376.018 159.064 378.52C159.064 378.52 158.7 379.265 162.494 379.11C166.288 378.956 172.182 378.773 172.294 378.689C172.406 378.604 173.246 378.998 172.434 373.319Z" fill="#111232"/>
<path d="M190.171 363.675C190.171 363.675 191.837 372.756 191.781 372.855C191.725 372.953 192.313 373.867 192.313 373.867L194.595 374.289L196.681 373.319C196.681 373.319 194.987 364.744 195.197 363.675C195.407 362.607 190.171 363.675 190.171 363.675Z" fill="url(#paint27_linear)"/>
<path d="M196.681 373.319C195.871 373.575 195.015 373.653 194.173 373.549C193.33 373.445 192.519 373.16 191.795 372.714C191.795 372.714 183.045 376.018 183.311 378.52C183.311 378.52 182.933 379.265 186.727 379.11C190.521 378.956 196.415 378.773 196.527 378.689C196.639 378.604 197.479 378.998 196.681 373.319Z" fill="#111232"/>
<path d="M157.258 298.492C155.536 311.353 155.536 324.387 157.258 337.248C160.058 359.88 164.356 370.114 164.356 370.114H174.548C174.548 370.114 167.142 344.684 174.548 317.09C174.548 317.09 177.348 349.028 189.374 370.114H198.627C198.627 370.114 189.024 329.348 188.128 315.853C187.498 306.322 187.932 293.909 187.932 293.909L157.258 298.492Z" fill="url(#paint28_linear)"/>
<path d="M152.246 237.708C152.319 237.68 152.386 237.637 152.442 237.582C152.481 237.548 152.512 237.505 152.533 237.458C152.554 237.411 152.565 237.36 152.565 237.308C152.565 237.256 152.554 237.205 152.533 237.157C152.512 237.11 152.481 237.068 152.442 237.034C151.959 236.681 151.365 236.516 150.77 236.571C150.175 236.625 149.62 236.894 149.208 237.329C149.169 237.364 149.138 237.408 149.116 237.456C149.095 237.505 149.084 237.557 149.084 237.61C149.084 237.663 149.095 237.715 149.116 237.764C149.138 237.812 149.169 237.855 149.208 237.891C149.293 237.967 149.402 238.009 149.516 238.009C149.63 238.009 149.739 237.967 149.824 237.891C150.079 237.607 150.429 237.426 150.808 237.382C151.187 237.338 151.569 237.434 151.882 237.652C151.992 237.716 152.122 237.736 152.246 237.708Z" fill="#111232"/>
<path d="M149.194 236.232V235.965C149.134 234.925 149.289 233.884 149.65 232.908C150.01 231.931 150.569 231.04 151.29 230.291C152.011 229.542 152.879 228.951 153.838 228.556C154.798 228.161 155.829 227.97 156.866 227.995C158.674 227.89 160.462 228.416 161.926 229.485C163.391 230.553 164.443 232.098 164.902 233.857C165.166 235.088 165.079 236.37 164.65 237.554C164.09 239.311 163.6 240.815 163.054 242.08C162.144 244.151 162.005 246.48 162.662 248.645L163.18 250.36C158.56 253.171 156.18 251.161 156.18 251.161L155.76 247.97C155.72 247.762 155.605 247.575 155.437 247.446C155.27 247.317 155.061 247.253 154.85 247.267C147.78 247.408 150.58 241.405 149.194 236.232Z" fill="url(#paint29_linear)"/>
<path d="M160.366 231.368L165 234.784C165.068 235.739 164.934 236.697 164.608 237.596C164.048 239.353 163.558 240.857 163.012 242.122C162.64 242.981 162.394 243.891 162.284 244.821C161.22 245.327 155.074 244.54 154.654 243.542C154.234 242.544 155.004 238.692 152.974 239.016C150.944 239.339 149.782 233.393 149.782 233.393L154.556 231.425L160.366 231.368Z" fill="#111232"/>
<path d="M153.87 239.55C153.756 239.302 153.557 239.102 153.31 238.987C152.978 238.789 152.598 238.685 152.211 238.685C151.825 238.685 151.445 238.789 151.112 238.987C150.048 239.789 151.756 242.319 153.8 241.321C153.8 241.307 154.416 240.857 153.87 239.55Z" fill="url(#paint30_linear)"/>
<path d="M165.196 230.609C164.811 229.841 164.376 229.099 163.894 228.388C163.656 228.023 163.432 227.657 163.208 227.292C162.984 226.926 162.872 226.476 162.522 226.378C162.172 226.28 161.99 227.236 162.032 227.446C162.2 227.928 162.401 228.398 162.634 228.852C162.228 227.446 160.338 226.814 159.008 226.491C157.532 226.146 156.028 225.935 154.514 225.858C154.171 225.802 153.821 225.802 153.478 225.858C152.288 226.195 153.03 226.94 153.478 227.432C153.478 227.432 152.526 227.573 152.414 227.573C151.057 227.68 149.768 228.216 148.733 229.105C148.383 229.414 148.131 229.921 148.621 230.23C148.962 230.407 149.357 230.447 149.727 230.342C148.908 230.549 148.141 230.922 147.473 231.439C147.081 231.776 146.549 232.367 146.647 232.844C146.745 233.322 147.417 233.59 147.935 233.66C149.279 233.664 150.622 233.57 151.952 233.379C153.436 233.337 154.918 233.489 156.362 233.828C157.552 234.124 158.7 234.531 159.876 234.827C160.877 235.059 161.892 235.228 162.914 235.333C163.6 235.333 164.832 235.796 165.196 235.15C165.534 234.441 165.709 233.665 165.709 232.88C165.709 232.094 165.534 231.318 165.196 230.609Z" fill="#111232"/>
<path d="M162.521 248.307C162.521 248.307 168.247 246.902 179.461 252.412C189.149 257.149 201.86 259.933 207.012 258.78L212.136 257.627L213.9 264.136C213.9 264.136 207.684 268.466 195.015 268.353C181.309 268.227 177.319 267.467 177.319 267.467L162.521 248.307Z" fill="url(#paint31_linear)"/>
<path d="M110.597 258.063C110.597 258.063 109.519 256.756 109.309 256.939C109.099 257.121 109.799 258.654 109.799 258.654L110.597 258.063Z" fill="url(#paint32_linear)"/>
<path d="M109.281 259.947C109.281 259.947 108.315 258.162 108.819 258.035C109.323 257.908 109.757 259.103 109.953 259.258C110.149 259.413 109.281 259.947 109.281 259.947Z" fill="url(#paint33_linear)"/>
<path d="M109.324 261.465C109.324 261.465 108.372 260.846 108.568 260.059C108.764 259.272 109.352 260.495 109.716 260.664C110.08 260.832 109.324 261.465 109.324 261.465Z" fill="url(#paint34_linear)"/>
<path d="M109.323 262.604C109.323 262.604 108.217 261.62 108.679 261.479C109.141 261.339 109.687 261.985 109.687 261.985L109.323 262.604Z" fill="url(#paint35_linear)"/>
<path d="M162.522 248.307C162.522 248.307 157.034 250.472 154.668 251.442C151 252.946 139.268 262.055 135.068 262.519C130.868 262.983 115.847 259.708 115.847 259.708L114.797 264.614C114.797 264.614 124.513 274.623 133.542 273.456C138.962 272.761 144.311 271.595 149.53 269.97C149.53 269.97 153.926 280.428 154.626 285.081C155.326 289.734 155.55 299.968 155.55 299.968C155.55 299.968 169.437 304.621 189.149 297.873C189.149 297.873 189.149 290.845 182.233 263.503C182.135 263.503 175.499 246.677 162.522 248.307Z" fill="url(#paint36_linear)"/>
<path d="M412.36 258.401C414.485 258.625 416.625 258.668 418.757 258.527C419.986 258.431 421.184 258.097 422.285 257.543C422.425 257.459 422.285 257.22 422.145 257.234C421.711 257.234 421.109 257.445 420.745 257.557C419.345 257.909 418.729 257.74 418.491 257.445C418.575 257.164 419.107 256.995 421.039 256.545C421.815 256.408 422.575 256.191 423.307 255.898C423.769 255.055 421.795 255.575 420.913 255.898C420.031 256.222 419.107 256.587 418.771 256.165C418.659 256.025 419.709 255.449 421.151 254.928C426.359 253.031 424.105 252.679 421.641 253.804C419.401 254.816 418.407 255.308 418.253 255.125C418.1 254.943 418.743 254.591 420.269 253.72C421.116 253.291 421.883 252.721 422.537 252.033C422.537 251.498 421.753 251.878 421.347 252.145C421.347 252.145 417.008 254.957 416.238 254.24C415.468 253.523 416.714 252.834 417.47 252.412C418.226 251.99 418.254 251.006 417.862 251.006C417.47 251.006 417.022 252.229 415.706 252.82C414.452 253.394 413.241 254.057 412.08 254.802C410.35 255.851 408.457 256.602 406.48 257.023C405.854 257.133 405.223 257.208 404.59 257.248V260.973C407.782 260.13 410.778 259.033 412.36 258.401Z" fill="url(#paint37_linear)"/>
<path d="M387.342 283.999L380.524 281.426L381.588 284.28L383.926 289.72L387.79 287.499L387.342 283.999Z" fill="url(#paint38_linear)"/>
<path d="M390.912 282.41L387.342 283.957L387.79 287.696C387.79 287.696 390.198 287.288 393.39 286.712C393.043 285.049 392.175 283.541 390.912 282.41Z" fill="url(#paint39_linear)"/>
<path d="M417.82 268.705L418.282 251.709L402.056 277.49L390.856 282.41C392.144 283.521 391.85 285.784 393.306 286.754C398.094 289.931 406.956 284.139 407.754 283.296C409.056 281.989 417.82 268.705 417.82 268.705Z" fill="url(#paint40_linear)"/>
<path d="M428.964 378.717L418.212 379.237L425.212 376.032L425.464 373.319C426.542 373.319 426.864 374.022 427.928 373.993C428.278 375.708 428.964 378.717 428.964 378.717Z" fill="#442D47"/>
<path d="M443.369 379.167L432.617 379.687L439.617 376.482L439.883 373.769C440.961 373.769 441.283 374.471 442.347 374.443C442.683 376.172 443.369 379.167 443.369 379.167Z" fill="#442D47"/>
<path d="M412.388 254.943L408.678 255.575C408.194 257.479 408.056 259.456 408.272 261.409L412.262 259.877L412.388 254.943Z" fill="url(#paint41_linear)"/>
<path d="M408.677 255.575C407.081 253.958 393.362 258.19 393.362 258.19L374.168 250.121L372.236 265.008L392.396 267.482C392.396 267.482 405.584 264.67 408.271 261.409C409.195 260.27 409.153 256.053 408.677 255.575Z" fill="url(#paint42_linear)"/>
<path d="M423.826 374.865L428.768 375.273C428.768 375.273 430.896 348.381 428.768 335.364C426.64 322.347 426.64 288.736 426.64 288.736L416.546 291.772C416.546 291.772 417.862 331.498 418.534 334.942C419.206 338.386 423.826 374.865 423.826 374.865Z" fill="#48507D"/>
<path d="M437.545 291.168C437.545 291.168 438.945 326.93 442.053 331.358C445.161 335.786 443.677 375.174 443.677 375.174L437.545 374.837C437.545 374.837 435.543 347.805 434.479 342.8C433.415 337.796 425.043 307.756 425.043 307.756L424.245 288.075L437.545 291.168Z" fill="url(#paint43_linear)"/>
<path d="M374.602 250.304L366.79 247.253L355.199 247.956L348.591 249.685C348.591 249.685 351.391 269.562 352.105 276.577C352.819 283.591 352.777 289.228 352.777 289.228L354.093 293.783C361.569 294.429 367.252 293.881 374.798 294.795C374.882 290.774 374.896 290.915 374.896 290.915L374.602 250.304Z" fill="url(#paint44_linear)"/>
<path d="M365.643 245.651L365.629 249.868L357.313 249.812L357.243 244.99L365.643 245.651Z" fill="#82679C"/>
<path d="M426.205 248.012L418.281 251.709C418.281 251.709 413.382 287.935 416.545 290.535C417.819 291.59 434.647 294.907 437.629 290.535C438.847 288.736 437.937 280.695 439.533 274.679C441.129 268.662 445.385 253.523 445.385 253.523L434.843 247.155L426.205 248.012Z" fill="url(#paint45_linear)"/>
<path d="M428.642 249.221C428.642 249.545 424.61 279.641 424.05 291.491H424.568C425.128 279.669 429.118 249.629 429.16 249.32L428.642 249.221Z" fill="#C7DDF2"/>
<path d="M426.485 250.36V247L428.291 245.454C430.423 245.49 432.551 245.664 434.661 245.974C434.855 246.767 434.972 247.576 435.011 248.392L426.485 250.36Z" fill="#6B91BF"/>
<path d="M432.59 318.467V314.587C432.59 314.55 432.604 314.514 432.631 314.488C432.657 314.462 432.692 314.447 432.73 314.447H443.537C443.572 314.45 443.604 314.467 443.627 314.493C443.651 314.519 443.663 314.553 443.663 314.587V318.467H445.791V314.587C445.806 313.971 445.578 313.373 445.155 312.926C444.733 312.478 444.151 312.216 443.537 312.198H432.73C432.424 312.205 432.124 312.273 431.844 312.397C431.565 312.521 431.313 312.699 431.102 312.921C430.892 313.143 430.727 313.404 430.617 313.69C430.507 313.976 430.454 314.281 430.462 314.587V318.467H432.59Z" fill="url(#paint46_linear)"/>
<path d="M454.512 344.248H420.577V321.574C420.577 319.367 421.151 317.582 423.377 317.582H449.976C451.198 317.582 452.369 318.069 453.233 318.936C454.097 319.804 454.582 320.98 454.582 322.207L454.512 344.248Z" fill="url(#paint47_linear)"/>
<path d="M426.177 344.248H420.577V322.684C421.327 323.416 422.331 323.825 423.377 323.825C424.423 323.825 425.427 323.416 426.177 322.684V344.248Z" fill="url(#paint48_linear)"/>
<path d="M451.447 317.582H423.35C424.201 318.041 424.911 318.725 425.405 319.56C425.898 320.395 426.155 321.348 426.15 322.319V331.175H455.409V321.785C455.435 320.701 455.033 319.65 454.291 318.863C453.549 318.075 452.526 317.615 451.447 317.582Z" fill="url(#paint49_linear)"/>
<path d="M347.43 379.94L358.181 380.179L351.182 377.156L350.86 374.457C349.768 374.457 349.46 375.188 348.41 375.188C348.018 376.917 347.43 379.94 347.43 379.94Z" fill="#442D47"/>
<path d="M362.73 378.801L373.496 379.04L366.412 376.018L366.09 373.319C365.012 373.319 364.69 374.05 363.64 374.05C363.332 375.779 362.73 378.801 362.73 378.801Z" fill="#442D47"/>
<path d="M432.211 242.249C432.421 242.122 435.011 235.628 435.011 235.628C435.011 235.628 436.747 230.75 435.627 229.921C434.507 229.091 431.847 226.224 429.509 226.181C428.095 226.111 426.685 226.376 425.393 226.955C425.183 227.095 423.671 229.654 423.671 229.654C423.671 229.654 424.385 228.796 424.735 232.001C425.085 235.206 432.211 242.249 432.211 242.249Z" fill="#381A3F"/>
<path d="M426.331 241.968C426.597 242.797 426.485 248.715 426.695 250.205C426.905 251.695 433.611 253.958 433.695 248.603C433.779 243.247 433.289 236.949 433.289 236.949L426.331 241.968Z" fill="url(#paint50_linear)"/>
<path d="M433.611 232.043C434.119 233.535 434.281 235.123 434.085 236.687C433.888 238.252 433.338 239.75 432.477 241.068C430.433 244.02 427.605 245.552 425.589 244.062C423.573 242.572 422.985 233.196 424.441 230.778C425.897 228.36 432.309 228.782 433.611 232.043Z" fill="url(#paint51_linear)"/>
<path d="M433.611 241.04C433.611 241.04 434.059 237.975 435.235 237.23C436.411 236.485 436.942 236.021 437.152 234.939C437.362 233.857 441.268 233.14 440.638 231.354C440.008 229.569 436.928 228.74 435.375 225.647C433.821 222.555 432.141 220.826 428.515 221.964C424.889 223.103 424.385 225.31 424.385 225.31C423.834 225.267 423.285 225.404 422.818 225.7C422.351 225.997 421.992 226.437 421.795 226.955C421.426 227.56 421.262 228.269 421.328 228.976C421.393 229.683 421.685 230.35 422.159 230.877C422.159 230.877 422.019 228.332 422.887 228.515C423.755 228.698 422.887 231.481 422.887 231.481C423.864 230.652 424.768 229.74 425.589 228.754C426.989 227.095 426.625 229.035 426.219 231.13C425.813 233.224 428.893 231.256 430.251 229.724C431.609 228.192 433.583 229.625 434.297 231.776C435.011 233.927 431.917 237.315 433.611 241.04Z" fill="#653870"/>
<path d="M432.939 235.403C432.939 235.403 434.213 233.21 434.885 234.166C435.557 235.122 434.997 237.961 433.583 237.989C432.169 238.018 432.939 235.403 432.939 235.403Z" fill="url(#paint52_linear)"/>
<path d="M449.724 261.17C448.871 258.324 447.388 255.71 445.385 253.523L441.185 268.747L443.523 286.023C443.523 286.023 442.123 295.062 440.723 301.275C442.417 301.275 444.139 302.822 445.707 302.231C451.712 299.94 450.802 287.176 450.802 287.176C450.802 287.176 450.788 265.373 449.724 261.17Z" fill="url(#paint53_linear)"/>
<path d="M349.823 335.167C349.823 335.167 348.424 346.582 347.738 354.847C347.052 363.113 347.108 375.54 347.108 375.54L352.707 375.877C352.707 375.877 354.947 348.957 357.747 341.24L365.125 308.74L363.123 374.809L369.003 374.626C369.003 374.626 374.603 305.506 374.785 294.809C367.239 293.895 361.555 294.443 354.079 293.797L349.823 335.167Z" fill="url(#paint54_linear)"/>
<path d="M430.321 249.755L430.447 253.677L437.447 248.462L434.647 245.974C434.647 245.974 432.757 249.151 430.321 249.755Z" fill="url(#paint55_linear)"/>
<path d="M427.55 249.516C427.55 249.516 428.278 250.543 430.35 249.755L430.448 252.567L426.514 252.215L427.55 249.516Z" fill="#6B91BF"/>
<path d="M427.424 249.516L427.312 252.567L429.495 252.778L430.321 249.755C429.375 249.519 428.396 249.439 427.424 249.516Z" fill="url(#paint56_linear)"/>
<path d="M426.079 253.256L427.479 249.516C427.145 249.188 426.88 248.796 426.697 248.365C426.515 247.933 426.419 247.469 426.415 247L424.217 248.828L426.079 253.256Z" fill="url(#paint57_linear)"/>
<path d="M416.546 290.535H437.629V293.038H416.546V290.535Z" fill="#2C1D10"/>
<path d="M439.127 328.771H442.011V332.721C442.011 332.878 441.98 333.034 441.921 333.179C441.861 333.324 441.773 333.455 441.663 333.566C441.552 333.677 441.421 333.765 441.277 333.825C441.132 333.885 440.978 333.916 440.821 333.916H440.303C439.988 333.916 439.685 333.79 439.462 333.566C439.239 333.342 439.113 333.038 439.113 332.721V328.771H439.127Z" fill="url(#paint58_linear)"/>
<path d="M439.505 329.418H441.745V330.781H439.505V329.418Z" fill="url(#paint59_linear)"/>
<path d="M441.913 328.49H439.113V327.084C439.113 326.712 439.261 326.354 439.523 326.09C439.786 325.827 440.142 325.679 440.513 325.679C440.885 325.679 441.241 325.827 441.503 326.09C441.766 326.354 441.913 326.712 441.913 327.084V328.49Z" fill="url(#paint60_linear)"/>
<path d="M420.647 290.535H425.477V293.038H420.647V290.535Z" fill="#B9A9C5"/>
<path d="M427.325 252.567L429.495 252.778L428.025 285.32L424.595 290.985L422.341 285.081L427.325 252.567Z" fill="url(#paint61_linear)"/>
<path d="M439.225 307.952C439.701 306.672 440.093 305.362 440.401 304.03C441.74 303.994 443.066 304.304 444.251 304.93C444.097 305.352 442.781 308.852 442.767 309.26C442.403 317.863 441.367 315.276 439.869 315.839C439.598 315.918 439.312 315.932 439.034 315.878C438.756 315.824 438.496 315.705 438.273 315.529C438.021 315.248 436.439 315.403 436.439 315.234C436.439 315.065 435.851 313.899 436.537 312.957C437.223 312.015 434.717 313.871 434.745 313.14C434.773 312.409 438.595 309.386 439.225 307.952Z" fill="url(#paint62_linear)"/>
<path d="M439.407 306.364C441.033 306.336 442.638 306.728 444.069 307.503C444.251 306.687 444.881 304.691 445.693 302.231C444.143 301.482 442.425 301.153 440.709 301.275C440.374 302.995 439.939 304.694 439.407 306.364Z" fill="url(#paint63_linear)"/>
<path d="M359.791 241.897C359.595 241.771 357.145 235.642 357.145 235.642C357.145 235.642 355.507 231.045 356.571 230.272C357.635 229.499 360.141 226.8 362.339 226.744C363.668 226.681 364.992 226.937 366.203 227.489C366.79 228.307 367.332 229.156 367.827 230.033C367.827 230.033 367.169 229.218 366.833 232.24C366.497 235.262 359.791 241.897 359.791 241.897Z" fill="#381A3F"/>
<path d="M365.39 241.616C365.124 242.403 365.236 247.984 365.04 249.39C364.844 250.796 358.516 252.932 358.39 247.886C358.264 242.839 358.768 236.893 358.768 236.893L365.39 241.616Z" fill="url(#paint64_linear)"/>
<path d="M358.475 232.268C357.998 233.675 357.847 235.172 358.034 236.646C358.221 238.12 358.74 239.531 359.553 240.773C361.485 243.584 364.145 244.99 366.049 243.584C367.953 242.178 368.499 233.336 367.113 231.073C365.727 228.81 359.707 229.133 358.475 232.268Z" fill="url(#paint65_linear)"/>
<path d="M358.476 240.759C358.476 240.759 358.056 237.863 356.95 237.16C355.844 236.457 355.354 236.021 355.144 235.009C354.934 233.997 352.988 232.577 353.59 230.905C354.192 229.232 355.354 229.161 356.824 226.238C358.294 223.314 359.861 221.711 363.291 222.779C366.721 223.848 367.183 225.928 367.183 225.928C367.691 225.932 368.187 226.078 368.616 226.352C369.044 226.625 369.387 227.014 369.605 227.475C371.747 230.876 364.453 232.915 361.653 230.103C360.253 228.698 358.518 230.005 357.846 232.043C357.174 234.082 360.071 237.244 358.476 240.759Z" fill="#653870"/>
<path d="M359.119 235.445C359.119 235.445 357.915 233.379 357.285 234.278C356.655 235.178 357.173 237.849 358.503 237.877C359.833 237.905 359.119 235.445 359.119 235.445Z" fill="url(#paint66_linear)"/>
<path d="M354.065 293.769L374.77 294.134L374.672 297.438L353.757 296.763L354.065 293.769Z" fill="#2E2828"/>
<path d="M430.713 290.535H431.357V293.038H430.713V290.535Z" fill="#48507D"/>
<path d="M434.941 290.535H435.585V293.038H434.941V290.535Z" fill="#48507D"/>
<path d="M368.681 297.156L363.795 297.086L363.907 293.994L368.793 294.092L368.681 297.156Z" fill="#6C7396"/>
<path d="M365.391 294.345L368.457 294.471L368.163 296.946V294.739L365.391 294.345Z" fill="#9095B0"/>
<path d="M361.568 249.249H365.138L364.942 253.523H362.548L361.568 249.249Z" fill="#C23766"/>
<path d="M359.679 253.523L362.479 249.249L357.243 244.99L355.241 247.956L359.679 253.523Z" fill="url(#paint67_linear)"/>
<path d="M366.903 253.213L364.789 249.249L365.643 245.651L368.723 247.886L366.903 253.213Z" fill="url(#paint68_linear)"/>
<path d="M362.591 253.523C362.591 255.224 362.717 289.819 362.717 289.819L366.791 294.781L369.129 289.551L364.929 253.523H362.591Z" fill="#D03C6D"/>
<path d="M362.549 253.523L362.675 289.819L366.763 294.781L363.655 289.566L362.549 253.523Z" fill="#A82E56"/>
<path d="M369.591 284.125C365.867 281.936 362.281 279.518 358.853 276.886L348.591 249.685C346.172 252.715 344.788 256.446 344.644 260.326C344.644 266.357 351.727 284.547 352.693 285.63C353.253 286.22 362.955 291.042 369.129 289.608C368.825 287.77 368.984 285.885 369.591 284.125Z" fill="url(#paint69_linear)"/>
<path d="M373.79 285.151L369.661 284.125C369.034 285.861 368.847 287.725 369.115 289.551H373.314C373.13 288.068 373.293 286.561 373.79 285.151Z" fill="url(#paint70_linear)"/>
<path d="M382.19 284.294C382.19 284.294 376.982 285.7 375.344 285.475C375.106 285.475 374.574 285.32 373.846 285.151C373.366 286.57 373.222 288.081 373.426 289.565H377.794C378.998 289.565 382.12 291.702 383.212 291.702C383.573 291.667 383.921 291.547 384.228 291.352C384.534 291.156 384.791 290.891 384.976 290.578C385.508 290.092 385.957 289.522 386.306 288.891C386.642 288.118 386.936 288.258 386.936 287.485C386.936 286.712 382.19 284.294 382.19 284.294Z" fill="url(#paint71_linear)"/>
<path d="M380.524 281.426C380.524 281.426 378.396 285.643 378.788 286.051C379.18 286.459 381.714 284.406 381.714 284.406L380.524 281.426Z" fill="url(#paint72_linear)"/>
<path d="M377.725 289.847C377.725 289.847 380.525 287.555 380.916 288.019C381.308 288.483 379.937 289.847 379.937 289.847C379.937 289.847 381.504 288.568 381.854 288.722C382.204 288.877 380.931 290.437 380.931 290.437C380.931 290.437 382.414 289.031 382.918 289.2C383.422 289.369 382.274 291.477 382.274 291.477C382.274 291.477 377.907 291.52 377.725 289.847Z" fill="url(#paint73_linear)"/>
</g>
<defs>
<linearGradient id="paint0_linear" x1="189.121" y1="183.616" x2="415.761" y2="183.616" gradientUnits="userSpaceOnUse">
<stop offset="0.01" stop-color="#2C318C"/>
<stop offset="0.21" stop-color="#342777"/>
<stop offset="0.51" stop-color="#3D1C5F"/>
<stop offset="0.77" stop-color="#431550"/>
<stop offset="1" stop-color="#45134B"/>
</linearGradient>
<linearGradient id="paint1_linear" x1="30787.1" y1="28129.2" x2="67432.6" y2="28129.2" gradientUnits="userSpaceOnUse">
<stop offset="0.01" stop-color="#2C318C"/>
<stop offset="0.21" stop-color="#342777"/>
<stop offset="0.51" stop-color="#3D1C5F"/>
<stop offset="0.77" stop-color="#431550"/>
<stop offset="1" stop-color="#45134B"/>
</linearGradient>
<linearGradient id="paint2_linear" x1="302.434" y1="45.1801" x2="302.434" y2="318.833" gradientUnits="userSpaceOnUse">
<stop offset="0.53" stop-color="#F5F9FD"/>
<stop offset="1" stop-color="#B2AFD7"/>
</linearGradient>
<linearGradient id="paint3_linear" x1="252.217" y1="24.3612" x2="352.413" y2="24.3612" gradientUnits="userSpaceOnUse">
<stop stop-color="#BA5761"/>
<stop offset="1" stop-color="#EE8B91"/>
</linearGradient>
<linearGradient id="paint4_linear" x1="4138.57" y1="1461.52" x2="4554.05" y2="1461.52" gradientUnits="userSpaceOnUse">
<stop stop-color="#BA5761"/>
<stop offset="1" stop-color="#EE8B91"/>
</linearGradient>
<linearGradient id="paint5_linear" x1="4141.3" y1="2326.54" x2="4556.98" y2="2326.54" gradientUnits="userSpaceOnUse">
<stop stop-color="#BA5761"/>
<stop offset="1" stop-color="#EE8B91"/>
</linearGradient>
<linearGradient id="paint6_linear" x1="4141.3" y1="3187.45" x2="4556.98" y2="3187.45" gradientUnits="userSpaceOnUse">
<stop stop-color="#BA5761"/>
<stop offset="1" stop-color="#EE8B91"/>
</linearGradient>
<linearGradient id="paint7_linear" x1="4144.12" y1="4071.26" x2="4559.59" y2="4071.26" gradientUnits="userSpaceOnUse">
<stop stop-color="#BA5761"/>
<stop offset="1" stop-color="#EE8B91"/>
</linearGradient>
<linearGradient id="paint8_linear" x1="19093.3" y1="629.302" x2="24556.7" y2="629.302" gradientUnits="userSpaceOnUse">
<stop stop-color="#BA5761"/>
<stop offset="1" stop-color="#EE8B91"/>
</linearGradient>
<linearGradient id="paint9_linear" x1="12583.9" y1="636.76" x2="14427.1" y2="636.76" gradientUnits="userSpaceOnUse">
<stop stop-color="#BA5761"/>
<stop offset="1" stop-color="#EE8B91"/>
</linearGradient>
<linearGradient id="paint10_linear" x1="4152.93" y1="4960.62" x2="4568.5" y2="4960.62" gradientUnits="userSpaceOnUse">
<stop stop-color="#BA5761"/>
<stop offset="1" stop-color="#EE8B91"/>
</linearGradient>
<linearGradient id="paint11_linear" x1="133.669" y1="156.654" x2="154.262" y2="156.654" gradientUnits="userSpaceOnUse">
<stop offset="0.78" stop-color="#F9BABA"/>
<stop offset="1" stop-color="#F5928F"/>
</linearGradient>
<linearGradient id="paint12_linear" x1="121.377" y1="168.364" x2="121.377" y2="127.429" gradientUnits="userSpaceOnUse">
<stop stop-color="#CCEBFB"/>
<stop offset="0.12" stop-color="#C7E9FA"/>
<stop offset="0.26" stop-color="#B9E4F6"/>
<stop offset="0.42" stop-color="#A1DBF0"/>
<stop offset="0.58" stop-color="#80CFE7"/>
<stop offset="0.74" stop-color="#55BFDC"/>
<stop offset="0.91" stop-color="#22ACCF"/>
<stop offset="0.99" stop-color="#07A2C8"/>
</linearGradient>
<linearGradient id="paint13_linear" x1="1370.29" y1="3419.27" x2="1604.65" y2="3419.27" gradientUnits="userSpaceOnUse">
<stop offset="0.78" stop-color="#F9BABA"/>
<stop offset="1" stop-color="#F5928F"/>
</linearGradient>
<linearGradient id="paint14_linear" x1="1011.85" y1="1291.06" x2="1100.06" y2="1291.06" gradientUnits="userSpaceOnUse">
<stop offset="0.78" stop-color="#F9BABA"/>
<stop offset="1" stop-color="#F5928F"/>
</linearGradient>
<linearGradient id="paint15_linear" x1="283.756" y1="322.073" x2="285.578" y2="322.073" gradientUnits="userSpaceOnUse">
<stop offset="0.78" stop-color="#F9BABA"/>
<stop offset="1" stop-color="#F5928F"/>
</linearGradient>
<linearGradient id="paint16_linear" x1="1373.49" y1="2175.6" x2="1529.94" y2="2175.6" gradientUnits="userSpaceOnUse">
<stop offset="0.78" stop-color="#F9BABA"/>
<stop offset="1" stop-color="#F5928F"/>
</linearGradient>
<linearGradient id="paint17_linear" x1="375.695" y1="361.442" x2="382.362" y2="361.442" gradientUnits="userSpaceOnUse">
<stop offset="0.78" stop-color="#F9BABA"/>
<stop offset="1" stop-color="#F5928F"/>
</linearGradient>
<linearGradient id="paint18_linear" x1="9793.27" y1="12396.8" x2="15031.6" y2="12396.8" gradientUnits="userSpaceOnUse">
<stop offset="0.01" stop-color="#2C318C"/>
<stop offset="0.21" stop-color="#342777"/>
<stop offset="0.51" stop-color="#3D1C5F"/>
<stop offset="0.77" stop-color="#431550"/>
<stop offset="1" stop-color="#45134B"/>
</linearGradient>
<linearGradient id="paint19_linear" x1="5023.36" y1="12396.8" x2="7770.15" y2="12396.8" gradientUnits="userSpaceOnUse">
<stop offset="0.01" stop-color="#2C318C"/>
<stop offset="0.21" stop-color="#342777"/>
<stop offset="0.51" stop-color="#3D1C5F"/>
<stop offset="0.77" stop-color="#431550"/>
<stop offset="1" stop-color="#45134B"/>
</linearGradient>
<linearGradient id="paint20_linear" x1="119.081" y1="331.47" x2="338.4" y2="331.47" gradientUnits="userSpaceOnUse">
<stop stop-color="#8677B7"/>
<stop offset="0.01" stop-color="#8879B8"/>
<stop offset="0.14" stop-color="#A99CCB"/>
<stop offset="0.27" stop-color="#C3B9DB"/>
<stop offset="0.42" stop-color="#D8D0E7"/>
<stop offset="0.58" stop-color="#E7E0EF"/>
<stop offset="0.75" stop-color="#EFE9F4"/>
<stop offset="1" stop-color="#F2ECF6"/>
</linearGradient>
<linearGradient id="paint21_linear" x1="0" y1="18266.5" x2="14622.4" y2="18266.5" gradientUnits="userSpaceOnUse">
<stop stop-color="#8677B7"/>
<stop offset="0.01" stop-color="#8879B8"/>
<stop offset="0.14" stop-color="#A99CCB"/>
<stop offset="0.27" stop-color="#C3B9DB"/>
<stop offset="0.42" stop-color="#D8D0E7"/>
<stop offset="0.58" stop-color="#E7E0EF"/>
<stop offset="0.75" stop-color="#EFE9F4"/>
<stop offset="1" stop-color="#F2ECF6"/>
</linearGradient>
<linearGradient id="paint22_linear" x1="10090.8" y1="13003.7" x2="25235.7" y2="13003.7" gradientUnits="userSpaceOnUse">
<stop stop-color="#CCEBFB"/>
<stop offset="0.12" stop-color="#C7E9FA"/>
<stop offset="0.26" stop-color="#B9E4F6"/>
<stop offset="0.42" stop-color="#A1DBF0"/>
<stop offset="0.58" stop-color="#80CFE7"/>
<stop offset="0.74" stop-color="#55BFDC"/>
<stop offset="0.91" stop-color="#22ACCF"/>
<stop offset="0.99" stop-color="#07A2C8"/>
</linearGradient>
<linearGradient id="paint23_linear" x1="1180.31" y1="13003.7" x2="7884.24" y2="13003.7" gradientUnits="userSpaceOnUse">
<stop stop-color="#CCEBFB"/>
<stop offset="0.12" stop-color="#C7E9FA"/>
<stop offset="0.26" stop-color="#B9E4F6"/>
<stop offset="0.42" stop-color="#A1DBF0"/>
<stop offset="0.58" stop-color="#80CFE7"/>
<stop offset="0.74" stop-color="#55BFDC"/>
<stop offset="0.91" stop-color="#22ACCF"/>
<stop offset="0.99" stop-color="#07A2C8"/>
</linearGradient>
<linearGradient id="paint24_linear" x1="711.228" y1="1580.99" x2="753.534" y2="1580.99" gradientUnits="userSpaceOnUse">
<stop offset="0.78" stop-color="#F9BABA"/>
<stop offset="1" stop-color="#F5928F"/>
</linearGradient>
<linearGradient id="paint25_linear" x1="1414.67" y1="1574.04" x2="1459.65" y2="1574.04" gradientUnits="userSpaceOnUse">
<stop offset="0.78" stop-color="#F9BABA"/>
<stop offset="1" stop-color="#F5928F"/>
</linearGradient>
<linearGradient id="paint26_linear" x1="937.468" y1="3271.82" x2="967.739" y2="3271.82" gradientUnits="userSpaceOnUse">
<stop offset="0.78" stop-color="#F9BABA"/>
<stop offset="1" stop-color="#F5928F"/>
</linearGradient>
<linearGradient id="paint27_linear" x1="1074.47" y1="3271.82" x2="1104.74" y2="3271.82" gradientUnits="userSpaceOnUse">
<stop offset="0.78" stop-color="#F9BABA"/>
<stop offset="1" stop-color="#F5928F"/>
</linearGradient>
<linearGradient id="paint28_linear" x1="4910.48" y1="18291.9" x2="6208.64" y2="18291.9" gradientUnits="userSpaceOnUse">
<stop offset="0.01" stop-color="#2C318C"/>
<stop offset="0.21" stop-color="#342777"/>
<stop offset="0.51" stop-color="#3D1C5F"/>
<stop offset="0.77" stop-color="#431550"/>
<stop offset="1" stop-color="#45134B"/>
</linearGradient>
<linearGradient id="paint29_linear" x1="1839.64" y1="4302.83" x2="2019.76" y2="4302.83" gradientUnits="userSpaceOnUse">
<stop offset="0.78" stop-color="#F9BABA"/>
<stop offset="1" stop-color="#F5928F"/>
</linearGradient>
<linearGradient id="paint30_linear" x1="507.291" y1="728.114" x2="515.102" y2="728.114" gradientUnits="userSpaceOnUse">
<stop offset="0.78" stop-color="#F9BABA"/>
<stop offset="1" stop-color="#F5928F"/>
</linearGradient>
<linearGradient id="paint31_linear" x1="162.521" y1="258.246" x2="213.9" y2="258.246" gradientUnits="userSpaceOnUse">
<stop stop-color="#7CBAE6"/>
<stop offset="1" stop-color="#367797"/>
</linearGradient>
<linearGradient id="paint32_linear" x1="212.876" y1="574.647" x2="214.137" y2="574.647" gradientUnits="userSpaceOnUse">
<stop offset="0.78" stop-color="#F9BABA"/>
<stop offset="1" stop-color="#F5928F"/>
</linearGradient>
<linearGradient id="paint33_linear" x1="210.246" y1="611.958" x2="211.463" y2="611.958" gradientUnits="userSpaceOnUse">
<stop offset="0.78" stop-color="#F9BABA"/>
<stop offset="1" stop-color="#F5928F"/>
</linearGradient>
<linearGradient id="paint34_linear" x1="207.287" y1="568.987" x2="208.446" y2="568.987" gradientUnits="userSpaceOnUse">
<stop offset="0.78" stop-color="#F9BABA"/>
<stop offset="1" stop-color="#F5928F"/>
</linearGradient>
<linearGradient id="paint35_linear" x1="195.487" y1="474.811" x2="196.383" y2="474.811" gradientUnits="userSpaceOnUse">
<stop offset="0.78" stop-color="#F9BABA"/>
<stop offset="1" stop-color="#F5928F"/>
</linearGradient>
<linearGradient id="paint36_linear" x1="6207.95" y1="10676.8" x2="10155.3" y2="10676.8" gradientUnits="userSpaceOnUse">
<stop stop-color="#7CBAE6"/>
<stop offset="1" stop-color="#367797"/>
</linearGradient>
<linearGradient id="paint37_linear" x1="6103.93" y1="2066.02" x2="6380.8" y2="2066.02" gradientUnits="userSpaceOnUse">
<stop offset="0.78" stop-color="#F9BABA"/>
<stop offset="1" stop-color="#F5928F"/>
</linearGradient>
<linearGradient id="paint38_linear" x1="2355.44" y1="1966.3" x2="2393.15" y2="1966.3" gradientUnits="userSpaceOnUse">
<stop offset="0.78" stop-color="#F9BABA"/>
<stop offset="1" stop-color="#F5928F"/>
</linearGradient>
<linearGradient id="paint39_linear" x1="2060.65" y1="1354.31" x2="2086.66" y2="1354.31" gradientUnits="userSpaceOnUse">
<stop stop-color="#7CBAE6"/>
<stop offset="1" stop-color="#367797"/>
</linearGradient>
<linearGradient id="paint40_linear" x1="8048.81" y1="7156.5" x2="8584.98" y2="7156.5" gradientUnits="userSpaceOnUse">
<stop stop-color="#7CBAE6"/>
<stop offset="1" stop-color="#367797"/>
</linearGradient>
<linearGradient id="paint41_linear" x1="1636.98" y1="1442.56" x2="1649.75" y2="1442.56" gradientUnits="userSpaceOnUse">
<stop stop-color="#CCEBFB"/>
<stop offset="0.12" stop-color="#C7E9FA"/>
<stop offset="0.26" stop-color="#B9E4F6"/>
<stop offset="0.42" stop-color="#A1DBF0"/>
<stop offset="0.58" stop-color="#80CFE7"/>
<stop offset="0.74" stop-color="#55BFDC"/>
<stop offset="0.91" stop-color="#22ACCF"/>
<stop offset="0.99" stop-color="#07A2C8"/>
</linearGradient>
<linearGradient id="paint42_linear" x1="10149.6" y1="3446.23" x2="11115.6" y2="3446.23" gradientUnits="userSpaceOnUse">
<stop stop-color="#CCEBFB"/>
<stop offset="0.12" stop-color="#C7E9FA"/>
<stop offset="0.26" stop-color="#B9E4F6"/>
<stop offset="0.42" stop-color="#A1DBF0"/>
<stop offset="0.58" stop-color="#80CFE7"/>
<stop offset="0.74" stop-color="#55BFDC"/>
<stop offset="0.91" stop-color="#22ACCF"/>
<stop offset="0.99" stop-color="#07A2C8"/>
</linearGradient>
<linearGradient id="paint43_linear" x1="430.223" y1="291.969" x2="447.864" y2="413.952" gradientUnits="userSpaceOnUse">
<stop stop-color="#545B7E"/>
<stop offset="1" stop-color="#8791C1"/>
</linearGradient>
<linearGradient id="paint44_linear" x1="6898.11" y1="9412.81" x2="7392.39" y2="9412.81" gradientUnits="userSpaceOnUse">
<stop stop-color="#CCEBFB"/>
<stop offset="0.12" stop-color="#C7E9FA"/>
<stop offset="0.26" stop-color="#B9E4F6"/>
<stop offset="0.42" stop-color="#A1DBF0"/>
<stop offset="0.58" stop-color="#80CFE7"/>
<stop offset="0.74" stop-color="#55BFDC"/>
<stop offset="0.91" stop-color="#22ACCF"/>
<stop offset="0.99" stop-color="#07A2C8"/>
</linearGradient>
<linearGradient id="paint45_linear" x1="9290.2" y1="8999.86" x2="9928.93" y2="8999.86" gradientUnits="userSpaceOnUse">
<stop stop-color="#7CBAE6"/>
<stop offset="1" stop-color="#367797"/>
</linearGradient>
<linearGradient id="paint46_linear" x1="5144.28" y1="1718.58" x2="5312.16" y2="1718.58" gradientUnits="userSpaceOnUse">
<stop offset="0.01" stop-color="#2C318C"/>
<stop offset="0.21" stop-color="#342777"/>
<stop offset="0.51" stop-color="#3D1C5F"/>
<stop offset="0.77" stop-color="#431550"/>
<stop offset="1" stop-color="#45134B"/>
</linearGradient>
<linearGradient id="paint47_linear" x1="10636.4" y1="6594.91" x2="11460.7" y2="6594.91" gradientUnits="userSpaceOnUse">
<stop offset="0.53" stop-color="#F5F9FD"/>
<stop offset="1" stop-color="#B2AFD7"/>
</linearGradient>
<linearGradient id="paint48_linear" x1="2102.88" y1="5438.06" x2="2125.28" y2="5438.06" gradientUnits="userSpaceOnUse">
<stop offset="0.01" stop-color="#2C318C"/>
<stop offset="0.21" stop-color="#342777"/>
<stop offset="0.51" stop-color="#3D1C5F"/>
<stop offset="0.77" stop-color="#431550"/>
<stop offset="1" stop-color="#45134B"/>
</linearGradient>
<linearGradient id="paint49_linear" x1="10118.4" y1="3454.25" x2="10852.6" y2="3454.25" gradientUnits="userSpaceOnUse">
<stop offset="0.53" stop-color="#F5F9FD"/>
<stop offset="1" stop-color="#B2AFD7"/>
</linearGradient>
<linearGradient id="paint50_linear" x1="2671.79" y1="2850.28" x2="2710.95" y2="2850.28" gradientUnits="userSpaceOnUse">
<stop offset="0.78" stop-color="#F9BABA"/>
<stop offset="1" stop-color="#F5928F"/>
</linearGradient>
<linearGradient id="paint51_linear" x1="3610.84" y1="2825.9" x2="3690.15" y2="2825.9" gradientUnits="userSpaceOnUse">
<stop offset="0.78" stop-color="#F9BABA"/>
<stop offset="1" stop-color="#F5928F"/>
</linearGradient>
<linearGradient id="paint52_linear" x1="1186.42" y1="916.289" x2="1190.66" y2="916.289" gradientUnits="userSpaceOnUse">
<stop offset="0.78" stop-color="#F9BABA"/>
<stop offset="1" stop-color="#F5928F"/>
</linearGradient>
<linearGradient id="paint53_linear" x1="3629.31" y1="9910.72" x2="3702.54" y2="9910.72" gradientUnits="userSpaceOnUse">
<stop stop-color="#7CBAE6"/>
<stop offset="1" stop-color="#367797"/>
</linearGradient>
<linearGradient id="paint54_linear" x1="360.589" y1="297.156" x2="361.281" y2="372.911" gradientUnits="userSpaceOnUse">
<stop stop-color="#2A1550"/>
<stop offset="1" stop-color="#362062"/>
</linearGradient>
<linearGradient id="paint55_linear" x1="2620.65" y1="1615.02" x2="2657.06" y2="1615.02" gradientUnits="userSpaceOnUse">
<stop stop-color="#7CBAE6"/>
<stop offset="1" stop-color="#367797"/>
</linearGradient>
<linearGradient id="paint56_linear" x1="1346.03" y1="837.207" x2="1352.5" y2="837.207" gradientUnits="userSpaceOnUse">
<stop stop-color="#BA5761"/>
<stop offset="1" stop-color="#EE8B91"/>
</linearGradient>
<linearGradient id="paint57_linear" x1="1412.81" y1="1360.1" x2="1420.41" y2="1360.1" gradientUnits="userSpaceOnUse">
<stop stop-color="#7CBAE6"/>
<stop offset="1" stop-color="#367797"/>
</linearGradient>
<linearGradient id="paint58_linear" x1="1348.12" y1="1541.48" x2="1354.12" y2="1541.48" gradientUnits="userSpaceOnUse">
<stop stop-color="#BA5761"/>
<stop offset="1" stop-color="#EE8B91"/>
</linearGradient>
<linearGradient id="paint59_linear" x1="1142.7" y1="649.629" x2="1146.28" y2="649.629" gradientUnits="userSpaceOnUse">
<stop stop-color="#BA5761"/>
<stop offset="1" stop-color="#EE8B91"/>
</linearGradient>
<linearGradient id="paint60_linear" x1="1317.39" y1="979.885" x2="1322.96" y2="979.885" gradientUnits="userSpaceOnUse">
<stop stop-color="#BA5761"/>
<stop offset="1" stop-color="#EE8B91"/>
</linearGradient>
<linearGradient id="paint61_linear" x1="2580.51" y1="7680.02" x2="2617.07" y2="7680.02" gradientUnits="userSpaceOnUse">
<stop stop-color="#BA5761"/>
<stop offset="1" stop-color="#EE8B91"/>
</linearGradient>
<linearGradient id="paint62_linear" x1="3386.72" y1="2924.25" x2="3451.27" y2="2924.25" gradientUnits="userSpaceOnUse">
<stop offset="0.78" stop-color="#F9BABA"/>
<stop offset="1" stop-color="#F5928F"/>
</linearGradient>
<linearGradient id="paint63_linear" x1="2412.33" y1="1655.05" x2="2440.55" y2="1655.05" gradientUnits="userSpaceOnUse">
<stop stop-color="#7CBAE6"/>
<stop offset="1" stop-color="#367797"/>
</linearGradient>
<linearGradient id="paint64_linear" x1="2155.22" y1="2696.26" x2="2190.39" y2="2696.26" gradientUnits="userSpaceOnUse">
<stop offset="0.78" stop-color="#F9BABA"/>
<stop offset="1" stop-color="#F5928F"/>
</linearGradient>
<linearGradient id="paint65_linear" x1="2897.3" y1="2678.1" x2="2967.71" y2="2678.1" gradientUnits="userSpaceOnUse">
<stop offset="0.78" stop-color="#F9BABA"/>
<stop offset="1" stop-color="#F5928F"/>
</linearGradient>
<linearGradient id="paint66_linear" x1="941.522" y1="876.243" x2="945.258" y2="876.243" gradientUnits="userSpaceOnUse">
<stop offset="0.78" stop-color="#F9BABA"/>
<stop offset="1" stop-color="#F5928F"/>
</linearGradient>
<linearGradient id="paint67_linear" x1="2191.83" y1="1758.02" x2="2229.25" y2="1758.02" gradientUnits="userSpaceOnUse">
<stop stop-color="#CCEBFB"/>
<stop offset="0.12" stop-color="#C7E9FA"/>
<stop offset="0.26" stop-color="#B9E4F6"/>
<stop offset="0.42" stop-color="#A1DBF0"/>
<stop offset="0.58" stop-color="#80CFE7"/>
<stop offset="0.74" stop-color="#55BFDC"/>
<stop offset="0.91" stop-color="#22ACCF"/>
<stop offset="0.99" stop-color="#07A2C8"/>
</linearGradient>
<linearGradient id="paint68_linear" x1="1389.85" y1="1587.6" x2="1400.91" y2="1587.6" gradientUnits="userSpaceOnUse">
<stop stop-color="#CCEBFB"/>
<stop offset="0.12" stop-color="#C7E9FA"/>
<stop offset="0.26" stop-color="#B9E4F6"/>
<stop offset="0.42" stop-color="#A1DBF0"/>
<stop offset="0.58" stop-color="#80CFE7"/>
<stop offset="0.74" stop-color="#55BFDC"/>
<stop offset="0.91" stop-color="#22ACCF"/>
<stop offset="0.99" stop-color="#07A2C8"/>
</linearGradient>
<linearGradient id="paint69_linear" x1="6485.7" y1="7961.72" x2="6931.76" y2="7961.72" gradientUnits="userSpaceOnUse">
<stop stop-color="#CCEBFB"/>
<stop offset="0.12" stop-color="#C7E9FA"/>
<stop offset="0.26" stop-color="#B9E4F6"/>
<stop offset="0.42" stop-color="#A1DBF0"/>
<stop offset="0.58" stop-color="#80CFE7"/>
<stop offset="0.74" stop-color="#55BFDC"/>
<stop offset="0.91" stop-color="#22ACCF"/>
<stop offset="0.99" stop-color="#07A2C8"/>
</linearGradient>
<linearGradient id="paint70_linear" x1="1632.6" y1="1391.38" x2="1649.05" y2="1391.38" gradientUnits="userSpaceOnUse">
<stop stop-color="#CCEBFB"/>
<stop offset="0.12" stop-color="#C7E9FA"/>
<stop offset="0.26" stop-color="#B9E4F6"/>
<stop offset="0.42" stop-color="#A1DBF0"/>
<stop offset="0.58" stop-color="#80CFE7"/>
<stop offset="0.74" stop-color="#55BFDC"/>
<stop offset="0.91" stop-color="#22ACCF"/>
<stop offset="0.99" stop-color="#07A2C8"/>
</linearGradient>
<linearGradient id="paint71_linear" x1="3999.51" y1="1802.09" x2="4131.56" y2="1802.09" gradientUnits="userSpaceOnUse">
<stop offset="0.78" stop-color="#F9BABA"/>
<stop offset="1" stop-color="#F5928F"/>
</linearGradient>
<linearGradient id="paint72_linear" x1="1183.36" y1="1225.82" x2="1189.66" y2="1225.82" gradientUnits="userSpaceOnUse">
<stop offset="0.78" stop-color="#F9BABA"/>
<stop offset="1" stop-color="#F5928F"/>
</linearGradient>
<linearGradient id="paint73_linear" x1="1813.58" y1="1013.47" x2="1833.8" y2="1013.47" gradientUnits="userSpaceOnUse">
<stop offset="0.78" stop-color="#F9BABA"/>
<stop offset="1" stop-color="#F5928F"/>
</linearGradient>
<clipPath id="clip0">
<rect width="474" height="436" fill="white"/>
</clipPath>
</defs>
</svg>
