<svg width="470" height="413" viewBox="0 0 470 413" fill="none" xmlns="http://www.w3.org/2000/svg">
<path d="M36.6719 259.588L83.3396 250.623L94.971 296.469C88.7074 298.044 82.1878 298.33 75.81 297.309C69.4321 296.287 63.3296 293.981 57.8745 290.53C52.4194 287.079 47.7261 282.556 44.0809 277.236C40.4356 271.916 37.9147 265.911 36.6719 259.588Z" fill="url(#paint0_linear)"/>
<path d="M83.3399 203.159V250.566L41.6348 227.87C45.7176 220.391 51.746 214.149 59.0854 209.8C66.4248 205.452 74.8036 203.158 83.3399 203.159Z" fill="url(#paint1_linear)"/>
<path d="M130.846 250.566C130.853 257.8 129.194 264.939 125.998 271.432L83.3398 250.566L128.842 237.005C130.163 241.405 130.838 245.973 130.846 250.566Z" fill="url(#paint2_linear)"/>
<g style="mix-blend-mode:multiply">
<g style="mix-blend-mode:multiply">
<path d="M97.4591 295.831C95.895 296.341 94.9707 296.54 94.9707 296.54C95.8239 296.327 96.6486 296.086 97.4591 295.831Z" fill="#2F7ABF"/>
</g>
</g>
<path d="M73.7844 248.906L32.0935 226.21C26.7352 235.871 24.9724 247.11 27.1167 257.942L73.7844 248.906Z" fill="#A0C5E8"/>
<path d="M88.1738 255.956L99.8052 301.916C106.451 300.132 112.647 296.977 117.994 292.654C123.341 288.332 127.719 282.939 130.846 276.823L88.1738 255.956Z" fill="#75B2E1"/>
<path d="M86.7236 197.457V244.864L132.296 231.317C132.296 231.317 122.599 197.457 86.7236 197.457Z" fill="#4F9ED7"/>
<path d="M156.384 205.089H135.795V208.323H156.384V205.089Z" fill="#2E2D77"/>
<path d="M120.936 221.614C120.801 221.611 120.673 221.555 120.58 221.458C120.499 221.372 120.454 221.257 120.454 221.139C120.454 221.021 120.499 220.907 120.58 220.82L137.089 206.748C137.174 206.664 137.289 206.617 137.409 206.617C137.528 206.617 137.643 206.664 137.729 206.748C137.809 206.835 137.855 206.949 137.855 207.067C137.855 207.186 137.809 207.3 137.729 207.387L121.206 221.458C121.174 221.502 121.134 221.538 121.087 221.565C121.041 221.592 120.989 221.609 120.936 221.614Z" fill="#2E2D77"/>
<path d="M154.436 244.14H137.984V246.722H154.436V244.14Z" fill="#2E2D77"/>
<path d="M126.111 257.347C126.06 257.346 126.009 257.335 125.962 257.312C125.916 257.29 125.874 257.258 125.841 257.219C125.775 257.15 125.738 257.059 125.738 256.964C125.738 256.868 125.775 256.777 125.841 256.708L139.079 245.403C139.111 245.369 139.15 245.342 139.193 245.323C139.235 245.305 139.282 245.295 139.328 245.295C139.375 245.295 139.421 245.305 139.464 245.323C139.507 245.342 139.545 245.369 139.577 245.403C139.642 245.469 139.679 245.558 139.679 245.651C139.679 245.744 139.642 245.833 139.577 245.899L126.396 257.261C126.358 257.297 126.313 257.323 126.264 257.338C126.214 257.353 126.162 257.356 126.111 257.347Z" fill="#2E2D77"/>
<path d="M24.77 298.214H41.2217V295.632H24.77V298.214Z" fill="#2E2D77"/>
<path d="M39.8994 296.966C39.8478 296.965 39.7968 296.954 39.7502 296.931C39.7035 296.909 39.6622 296.878 39.6292 296.838C39.5952 296.806 39.5681 296.768 39.5496 296.725C39.531 296.682 39.5215 296.636 39.5215 296.59C39.5215 296.543 39.531 296.497 39.5496 296.454C39.5681 296.412 39.5952 296.373 39.6292 296.341L52.8674 285.121C52.939 285.059 53.0325 285.028 53.1271 285.034C53.2218 285.041 53.3099 285.085 53.3722 285.156C53.4344 285.228 53.4656 285.321 53.4589 285.416C53.4523 285.51 53.4083 285.598 53.3366 285.66L40.1411 296.909C40.0691 296.954 39.984 296.974 39.8994 296.966Z" fill="#2E2D77"/>
<path d="M35.6909 202.62H53.1807V199.868H35.6909V202.62Z" fill="#2E2D77"/>
<path d="M65.8215 213.912C65.7295 213.91 65.6402 213.88 65.5655 213.827L51.5311 201.854C51.4604 201.787 51.4184 201.695 51.4136 201.597C51.4087 201.5 51.4414 201.404 51.505 201.329C51.5686 201.255 51.6582 201.208 51.7556 201.197C51.853 201.187 51.9507 201.214 52.0287 201.273L66.0632 213.245C66.1002 213.28 66.1297 213.321 66.1499 213.368C66.1701 213.414 66.1805 213.464 66.1805 213.515C66.1805 213.565 66.1701 213.615 66.1499 213.661C66.1297 213.708 66.1002 213.75 66.0632 213.784C66.0011 213.855 65.915 213.9 65.8215 213.912Z" fill="#2E2D77"/>
<path d="M0.270943 232.267H16.7227V229.686H0.270943V232.267Z" fill="#2E2D77"/>
<path d="M28.6095 242.878C28.5255 242.88 28.444 242.849 28.382 242.793L15.1723 231.544C15.1062 231.475 15.0693 231.384 15.0693 231.288C15.0693 231.193 15.1062 231.102 15.1723 231.033C15.2042 230.999 15.2427 230.972 15.2855 230.954C15.3283 230.935 15.3745 230.926 15.4211 230.926C15.4677 230.926 15.5139 230.935 15.5567 230.954C15.5995 230.972 15.638 230.999 15.6699 231.033L28.8797 242.282C28.9448 242.348 28.9813 242.437 28.9813 242.53C28.9813 242.623 28.9448 242.712 28.8797 242.778C28.8441 242.813 28.8016 242.839 28.7551 242.857C28.7086 242.874 28.659 242.881 28.6095 242.878Z" fill="#2E2D77"/>
<path d="M146.46 297.533H130.008V300.115H146.46V297.533Z" fill="#2E2D77"/>
<path d="M131.329 298.881C131.245 298.882 131.164 298.852 131.102 298.796L117.864 287.547C117.798 287.478 117.761 287.387 117.761 287.291C117.761 287.196 117.798 287.105 117.864 287.036C117.896 287.002 117.934 286.975 117.977 286.957C118.02 286.938 118.066 286.929 118.113 286.929C118.159 286.929 118.205 286.938 118.248 286.957C118.291 286.975 118.329 287.002 118.361 287.036L131.557 298.285C131.623 298.354 131.66 298.445 131.66 298.54C131.66 298.635 131.623 298.727 131.557 298.796C131.493 298.85 131.413 298.88 131.329 298.881Z" fill="#2E2D77"/>
<path d="M153.071 140.319C152.805 138.067 152.329 135.844 151.649 133.681C151.563 133.416 151.478 133.161 151.393 132.915C148.421 124.274 142.341 117.04 134.33 112.616C128.959 109.682 122.934 108.145 116.812 108.147V110.644C121.588 110.66 126.307 111.68 130.661 113.637C135.68 115.901 140.08 119.336 143.49 123.651C146.9 127.966 149.22 133.036 150.255 138.433C150.681 140.586 150.89 142.777 150.881 144.972H153.412C153.399 143.415 153.285 141.861 153.071 140.319Z" fill="#A0C5E9"/>
<path d="M116.698 95.1822V110.644C112.199 110.661 107.748 111.561 103.599 113.294C99.4493 115.027 95.6825 117.558 92.5136 120.743C89.3447 123.928 86.8356 127.704 85.1297 131.857C83.4238 136.009 82.5545 140.456 82.5713 144.944H67.1007C67.0705 131.786 72.2771 119.154 81.5767 109.824C90.8763 100.493 103.508 95.2273 116.698 95.1822Z" fill="#282466"/>
<path d="M116.698 179.272V188.932C105.049 188.887 93.8941 184.23 85.6847 175.984C77.4754 167.739 72.8832 156.579 72.9172 144.958H82.5436C82.5288 150.78 83.9966 156.51 86.8094 161.611C89.7502 166.955 94.0752 171.413 99.3328 174.519C104.59 177.626 110.588 179.267 116.698 179.272Z" fill="url(#paint3_linear)"/>
<path d="M156.086 144.972C156.102 150.149 155.097 155.278 153.127 160.067C151.156 164.856 148.26 169.212 144.602 172.884C140.945 176.556 136.598 179.474 131.81 181.471C127.023 183.467 121.887 184.503 116.698 184.52V179.272C125.782 179.234 134.479 175.6 140.878 169.169C147.277 162.737 150.855 154.034 150.825 144.972H156.086Z" fill="#3070B7"/>
<path d="M130.064 158.831H97.7012V125.808H99.8198V156.703H130.064V158.831Z" fill="#A0C5E9"/>
<path d="M107.74 147.88H102.636V154.235H107.74V147.88Z" fill="#A0C5E9"/>
<path d="M114.408 142.943H109.659V154.249H114.408V142.943Z" fill="#3070B7"/>
<path d="M121.447 144.972H116.698V154.235H121.447V144.972Z" fill="url(#paint4_linear)"/>
<path d="M128.671 136.929H123.566V154.235H128.671V136.929Z" fill="#282466"/>
<path d="M129.467 126.602L128.756 130.872L127.974 130.73L128.258 129.07L117.835 139.199L112.091 135.638L102.095 144.22L101.412 143.426L111.991 134.347L117.679 137.865L127.362 128.446L126.011 129.085L125.684 128.361L129.467 126.602Z" fill="#A0C5E9"/>
<path d="M170.746 118.432C188.635 118.432 203.138 103.393 203.138 84.8412C203.138 66.2898 188.635 51.2509 170.746 51.2509C152.857 51.2509 138.354 66.2898 138.354 84.8412C138.354 103.393 152.857 118.432 170.746 118.432Z" fill="url(#paint5_linear)"/>
<path d="M170.746 114.446C186.515 114.446 199.298 101.191 199.298 84.8412C199.298 68.4912 186.515 55.2369 170.746 55.2369C154.977 55.2369 142.193 68.4912 142.193 84.8412C142.193 101.191 154.977 114.446 170.746 114.446Z" fill="white"/>
<path d="M186.813 88.9407H186.657L170.589 85.6072C170.416 85.5713 170.26 85.4769 170.149 85.3399C170.038 85.2029 169.977 85.0318 169.978 84.8554V61.2513C169.978 61.0482 170.058 60.8534 170.202 60.7097C170.346 60.5661 170.542 60.4854 170.745 60.4854C170.846 60.4854 170.946 60.5052 171.039 60.5437C171.132 60.5822 171.217 60.6386 171.288 60.7097C171.36 60.7808 171.416 60.8653 171.455 60.9582C171.493 61.0511 171.513 61.1508 171.513 61.2513V84.2171L186.97 87.4229C187.158 87.4595 187.325 87.5649 187.44 87.7186C187.554 87.8722 187.606 88.0629 187.587 88.2531C187.567 88.4434 187.477 88.6194 187.334 88.7467C187.191 88.8739 187.005 88.9431 186.813 88.9407Z" fill="url(#paint6_linear)"/>
<path d="M170.305 81.8624C167.376 81.8624 167.376 86.5718 170.305 86.5718C173.234 86.5718 173.234 81.8624 170.305 81.8624Z" fill="#DAECF9"/>
<path d="M356.307 209.94L355.767 206.89C355.632 206.054 355.329 205.254 354.877 204.538C354.425 203.821 353.833 203.203 353.136 202.72C352.496 202.272 351.772 201.957 351.008 201.793C350.243 201.63 349.454 201.622 348.686 201.769L346.937 202.096L346.795 201.741C345.159 197.659 342.825 193.891 339.898 190.606L339.671 190.35L340.652 188.861C341.581 187.47 341.94 185.776 341.654 184.129C341.368 182.482 340.46 181.008 339.116 180.009L336.656 178.236C336.014 177.769 335.283 177.436 334.509 177.258C333.734 177.08 332.931 177.061 332.149 177.201C331.343 177.351 330.576 177.662 329.895 178.115C329.213 178.569 328.63 179.155 328.181 179.839L327.172 181.343L326.816 181.201C322.88 179.498 318.662 178.536 314.375 178.364H314.005L313.692 176.576C313.554 175.744 313.25 174.947 312.798 174.233C312.346 173.519 311.756 172.903 311.061 172.42C310.424 171.968 309.7 171.649 308.935 171.483C308.17 171.317 307.38 171.308 306.611 171.456L303.653 172.009C302.027 172.354 300.602 173.321 299.682 174.703C298.762 176.084 298.422 177.77 298.733 179.399L299.046 181.172L298.719 181.328C294.749 183.034 291.118 185.436 287.998 188.421L287.728 188.691L286.306 187.641C285.667 187.168 284.936 186.831 284.16 186.653C283.385 186.475 282.58 186.459 281.798 186.605C280.992 186.75 280.225 187.057 279.543 187.508C278.86 187.96 278.278 188.545 277.831 189.23L276.125 191.783C275.196 193.174 274.837 194.867 275.123 196.514C275.408 198.161 276.317 199.636 277.66 200.634L279.082 201.67L278.954 202.01C277.33 206.14 276.416 210.514 276.253 214.947V215.302L274.518 215.628C272.892 215.973 271.466 216.941 270.547 218.322C269.627 219.704 269.286 221.39 269.598 223.019L270.124 226.083C270.263 226.915 270.567 227.712 271.018 228.426C271.47 229.14 272.06 229.756 272.755 230.239C274.026 231.12 275.593 231.471 277.12 231.218L278.869 230.891L278.997 231.232C280.637 235.315 282.975 239.083 285.908 242.367L286.135 242.622L285.14 244.041C284.215 245.437 283.86 247.133 284.148 248.781C284.436 250.43 285.346 251.906 286.69 252.907L289.135 254.666C289.78 255.134 290.513 255.467 291.29 255.645C292.067 255.823 292.872 255.842 293.657 255.701C294.465 255.557 295.234 255.248 295.916 254.794C296.599 254.34 297.18 253.751 297.624 253.063L298.634 251.559L298.975 251.701C302.916 253.404 307.139 254.366 311.431 254.538H311.801L312.114 256.339C312.25 257.171 312.551 257.968 313 258.682C313.45 259.395 314.038 260.012 314.73 260.496C315.374 260.942 316.1 261.256 316.866 261.422C317.632 261.587 318.424 261.6 319.195 261.46L322.138 260.893C323.765 260.554 325.193 259.591 326.113 258.21C327.034 256.83 327.373 255.144 327.058 253.517L326.745 251.729L327.072 251.587C331.052 249.868 334.685 247.441 337.794 244.424L338.078 244.169L339.5 245.218C340.142 245.686 340.873 246.018 341.648 246.196C342.422 246.374 343.225 246.394 344.008 246.254C344.815 246.104 345.584 245.793 346.268 245.34C346.952 244.886 347.538 244.3 347.989 243.615L349.695 241.062C350.623 239.67 350.979 237.975 350.691 236.328C350.402 234.681 349.491 233.207 348.145 232.211L346.723 231.175L346.851 230.849C348.486 226.717 349.404 222.337 349.567 217.898V217.543L351.302 217.217C352.919 216.887 354.344 215.944 355.277 214.586C356.211 213.229 356.58 211.563 356.307 209.94ZM340.367 219.997C340.167 221.742 339.81 223.465 339.301 225.146C338.469 227.879 337.237 230.474 335.647 232.849C334.078 235.208 332.16 237.317 329.959 239.105C328.63 240.183 327.202 241.133 325.693 241.942C320.772 244.621 315.13 245.684 309.568 244.977C307.882 244.764 306.22 244.389 304.606 243.857C301.947 242.983 299.438 241.705 297.169 240.069C293.447 237.384 290.436 233.834 288.396 229.728C285.836 224.554 284.847 218.746 285.552 213.018C286.075 208.42 287.694 204.013 290.273 200.166C291.841 197.807 293.759 195.697 295.961 193.911C297.289 192.832 298.718 191.882 300.226 191.074C303.413 189.361 306.913 188.309 310.517 187.98C314.121 187.651 317.755 188.052 321.2 189.159C323.86 190.037 326.368 191.32 328.636 192.96C330.929 194.607 332.957 196.592 334.651 198.847C335.698 200.244 336.621 201.73 337.41 203.287C340.007 208.45 341.035 214.259 340.367 219.997Z" fill="url(#paint7_linear)"/>
<path d="M311.843 233.019C320.607 233.019 327.712 225.633 327.712 216.522C327.712 207.411 320.607 200.024 311.843 200.024C303.079 200.024 295.975 207.411 295.975 216.522C295.975 225.633 303.079 233.019 311.843 233.019Z" fill="url(#paint8_linear)"/>
<path d="M354.047 101.523C354.047 100.913 354.047 100.317 354.047 99.7072V99.2249H354.516C356.139 99.3275 357.768 99.2657 359.379 99.0405C359.384 94.1461 358.797 89.2689 357.63 84.5149C356.315 84.6956 355.01 84.9418 353.72 85.2526L352.397 85.5221L351.999 85.6072L351.857 85.2242C351.615 84.5575 351.402 83.905 351.189 83.2241L351.046 82.7985L351.473 82.6425C352.326 82.3162 353.72 81.8765 354.957 81.4793L356.62 80.9261C355.158 76.219 353.133 71.7042 350.591 67.4786C348.732 68.2524 346.951 69.2024 345.273 70.3156L344.875 70.5568L344.619 70.1738C344.122 69.422 343.567 68.656 342.913 67.8191L342.643 67.4786L342.97 67.1807L344.577 65.7622C345.6 64.8544 347.065 63.5493 347.577 62.9252C344.865 59.1758 341.741 55.7406 338.263 52.6835C336.362 53.9161 334.763 55.5596 333.585 57.4923L333.315 57.9462L332.632 57.4214C331.893 56.8681 331.211 56.3433 330.471 55.861L330.03 55.5631L330.372 55.1517C331.865 53.3891 333.087 51.4147 333.998 49.2933C330.25 46.5439 326.2 44.2309 321.925 42.3993C320.518 44.4836 319.322 46.7028 318.356 49.0238L318.171 49.4209L317.759 49.2649C317.047 48.9814 316.321 48.7352 315.584 48.5273L315.143 48.3996L315.257 47.9599C315.953 44.9101 316.678 41.5198 316.75 40.4559C312.04 38.9626 307.182 37.9829 302.26 37.5338C301.919 38.5693 301.208 42.144 300.639 45.4066V45.8179H300.212C299.53 45.8179 298.791 45.8179 298.037 45.8179H297.582V45.3498C297.582 44.8533 297.497 44.2292 297.454 43.5341C297.392 41.4382 297.159 39.3508 296.757 37.2927C292.058 37.2965 287.376 37.8536 282.808 38.9523C282.956 41.6667 283.433 44.3532 284.23 46.9527L284.358 47.4208L283.889 47.5485C282.993 47.7755 282.012 48.0734 280.888 48.4422L280.377 48.6124L280.277 48.0734C279.651 44.8817 278.286 41.0943 277.561 40.4418C273.151 41.8763 268.923 43.8185 264.963 46.2293C265.119 46.6407 265.517 47.4634 265.873 48.2152C266.833 50.0336 267.633 51.9322 268.262 53.8893L268.347 54.2439L268.034 54.4141C267.522 54.712 266.854 55.1092 266.186 55.5915L265.859 55.8184L265.574 55.5489C264.558 54.4428 263.608 53.2776 262.73 52.0594C261.934 51.0381 260.882 49.6763 260.398 49.2224C256.42 52.1167 252.806 55.4792 249.634 59.237L249.962 59.5066C253.673 62.4996 255.791 64.5848 254.867 65.7338C253.943 66.8828 251.568 65.2799 248.554 63.0954C248.085 62.7691 247.587 62.4003 247.274 62.2017C244.364 66.1114 241.935 70.3546 240.036 74.8407C240.548 75.1386 241.771 75.6776 242.795 76.1174C244.306 76.7326 245.778 77.4384 247.203 78.2309L247.558 78.4437L247.388 78.8267C247.075 79.5218 246.791 80.2452 246.52 80.997L246.392 81.3658H245.98C244.002 80.9425 242.054 80.3881 240.15 79.7062L238.373 79.1246C236.716 83.8017 235.683 88.6759 235.301 93.6218C235.956 93.7211 237.491 93.8204 238.771 93.9055C240.051 93.9906 241.785 94.1041 243.037 94.2459H243.506V94.7282C243.378 96.0616 243.35 97.3667 243.335 98.4731V98.927H242.895C241.942 98.927 240.819 98.927 239.709 98.927C238.046 98.927 235.842 98.927 235.031 99.1256C235.029 103.991 235.611 108.839 236.766 113.566C237.449 113.481 239.027 113.112 240.349 112.8C241.885 112.431 243.463 112.048 244.615 111.864H245.056L245.155 112.275C245.397 113.268 245.682 114.219 245.994 115.112L246.122 115.481L245.781 115.68C244.615 116.361 242.852 117.169 241.288 117.893C240.236 118.375 238.97 118.942 238.444 119.311C239.987 123.822 242.058 128.136 244.615 132.163C246.762 131.054 248.812 129.768 250.744 128.319L251.91 127.51L252.18 127.936C252.692 128.773 253.26 129.581 253.815 130.319L254.042 130.631L253.559 131.184C251.681 133.164 249.986 135.31 248.497 137.596C251.186 140.687 254.033 143.637 257.028 146.433C259.258 144.826 261.329 143.012 263.214 141.014L263.484 140.532L263.925 140.872L264.408 141.255C264.75 141.511 265.091 141.766 265.432 142.064L265.745 142.319L265.532 142.674C264.721 143.993 262.688 148.901 262.019 150.348L272.556 156.022C273.409 154.604 276.338 149.653 276.822 148.93L277.021 148.575L277.419 148.731L278.045 149.029C278.5 149.256 279.339 149.653 279.467 149.71L279.865 149.809V150.22C279.865 150.66 279.68 151.412 279.509 152.362C279.035 154.313 278.796 156.313 278.798 158.32C280.96 158.987 289.562 160.561 291.098 160.788C291.923 159.611 292.776 155.341 293.06 153.88L293.231 153.015H293.643H294.326C294.496 153.015 294.112 153.015 294.326 153.015H294.226V153.469C294.226 154.646 295.648 159.71 296.956 161.115C300.808 161.103 304.652 160.761 308.445 160.093C309.384 158.675 309.739 154.065 309.469 152.745V152.291L309.953 152.192L310.806 152.008C311.104 151.937 311.417 151.88 311.702 151.795L312.256 151.653V152.221C312.822 154.525 313.973 156.645 315.598 158.377C319.589 157.151 323.443 155.521 327.101 153.511C326.922 151.313 326.404 149.155 325.565 147.114L325.381 146.703L325.793 146.504C326.726 146.039 327.633 145.522 328.509 144.958L328.95 144.688L329.206 145.128C330.169 146.914 331.391 148.548 332.832 149.979C336.757 147.251 340.35 144.075 343.539 140.518C342.426 139.056 341.215 137.672 339.913 136.376L339.685 136.035L340.012 135.695C340.851 134.83 341.619 133.908 342.33 133.042L342.643 132.673L343.013 132.971C344.34 134.105 345.768 135.116 347.278 135.993C350.211 132.108 352.66 127.883 354.573 123.411C353.162 122.564 351.677 121.847 350.136 121.269L349.681 121.084L349.866 120.644C350.35 119.453 350.862 118.233 351.288 116.956L351.445 116.488L351.914 116.658C353.415 117.235 354.955 117.709 356.521 118.077C358.061 113.373 358.988 108.491 359.279 103.551C357.685 103.345 356.081 103.222 354.473 103.183H354.004V102.7C354.033 102.275 354.033 101.906 354.047 101.523ZM309.384 63.067L309.882 63.2089C318.58 65.7786 326.162 71.1888 331.41 78.5714L331.737 79.0537L318.499 84.8412L318.271 84.5859C315.231 81.1477 311.337 78.5692 306.981 77.1103L306.583 76.9826L309.384 63.067ZM274.618 68.9255C281.957 63.6858 290.857 61.0762 299.871 61.5209H300.426L297.582 75.5783H297.198C292.688 75.6663 288.278 76.9226 284.401 79.2239L284.074 79.4225L274.12 69.2092L274.618 68.9255ZM260.839 110.062L260.683 109.552C258.942 103.832 258.631 97.7743 259.776 91.907C260.921 86.0397 263.488 80.541 267.252 75.8904L267.579 75.479L277.348 85.5505L277.12 85.8767C275.213 88.4873 273.883 91.4724 273.218 94.6344C272.554 97.7963 272.571 101.063 273.267 104.218L273.352 104.601L260.839 110.062ZM285.524 135.071L285.012 134.886C281.911 133.749 278.96 132.239 276.225 130.39C271.642 127.369 267.763 123.402 264.849 118.758L264.551 118.29L277.12 112.814L277.348 113.126C280.047 116.84 283.682 119.776 287.884 121.637L288.24 121.793L285.524 135.071ZM285.78 99.2958C286.058 96.6039 287.169 94.065 288.958 92.0313C290.748 89.9976 293.128 88.5699 295.767 87.9462C298.407 87.3226 301.176 87.5339 303.69 88.5509C306.203 89.5679 308.338 91.3401 309.796 93.6218L309.896 93.7778C310.611 94.9007 311.139 96.1319 311.46 97.4234V97.5653C311.959 99.5306 311.917 101.594 311.336 103.537C310.755 105.48 309.658 107.23 308.161 108.601C305.578 111.001 302.178 112.334 298.648 112.332C297.344 112.333 296.046 112.147 294.795 111.779C287.188 109.353 285.14 103.722 285.78 99.2958ZM321.001 131.283C317.769 133.294 314.277 134.855 310.621 135.922L310.337 136.05C306.739 137.026 303.03 137.531 299.302 137.553C297.819 137.558 296.338 137.468 294.866 137.284H294.354L297.027 124.077H297.44C302.328 124.426 307.218 123.409 311.559 121.141L311.887 120.971L321.527 130.9L321.001 131.283ZM328.765 124.744L328.424 125.113L318.982 115.368L319.266 115.041C321.735 112.035 323.399 108.451 324.1 104.628C324.801 100.805 324.518 96.8663 323.276 93.1821L323.134 92.7565L335.931 87.1534L336.088 87.6357C338.285 93.9026 338.765 100.641 337.477 107.155C336.19 113.669 333.182 119.721 328.765 124.687V124.744Z" fill="url(#paint9_linear)"/>
<path d="M331.154 167.384C331.154 167.384 352.482 177.484 361.483 175.427C372.56 172.888 376.769 169.073 382.258 165.342C388.671 160.959 400.373 168.789 390.633 178.562C380.893 188.336 357.502 197.258 329.22 170.491L331.154 167.384Z" fill="url(#paint10_linear)"/>
<path d="M338.632 132.134C339.485 131.964 340.324 134.801 339.5 136.39C338.675 137.979 340.012 140.135 339.5 141.426L340.31 142.617L337.466 145.27L336.172 141.837C335.533 141.672 334.951 141.333 334.494 140.857C334.037 140.38 333.722 139.787 333.584 139.142C333.314 137.142 336.727 132.532 338.632 132.134Z" fill="url(#paint11_linear)"/>
<path d="M378.333 281.277C376.827 280.114 374.961 279.512 373.057 279.575C371.34 279.734 369.608 279.521 367.981 278.951C367.54 278.752 366.559 276.298 366.161 276.028C363.061 297.59 359.307 326.371 359.137 348.869C360.914 349.692 362.72 348.486 364.483 349.252C370.626 328.088 377.75 306.697 380.608 284.667L381.276 284.284C380.35 283.23 379.367 282.226 378.333 281.277Z" fill="url(#paint12_linear)"/>
<path d="M374.877 221.643C373.086 222.281 371.223 236.466 370.768 238.665C369.559 244.424 368.606 250.211 367.924 256.042C367.298 261.46 367.27 266.595 366.346 271.886C365.691 275.574 366.545 279.206 366.63 282.922C366.73 287.433 367.682 288.937 371.763 290.284C376.896 291.972 378.332 289.944 380.295 284.922C382.57 278.936 385.001 265.645 387.575 259.389C391.514 249.843 395.296 247.233 395.58 237.175C395.893 226.792 392.85 222.721 390.476 214.054C385.556 216.068 379.754 219.869 374.877 221.643Z" fill="url(#paint13_linear)"/>
<path d="M374.494 227.728C382.595 249.871 392.948 271.127 405.393 291.164C412.63 302.739 436.903 344.06 436.903 344.06L441.837 342.202C441.837 342.202 415.119 263.219 406.516 242.381C399.25 224.848 390.605 221.94 390.605 221.94L374.494 227.728Z" fill="url(#paint14_linear)"/>
<path d="M442.903 344.443C442.682 343.208 442.026 342.091 441.054 341.294C439.547 340.216 427.077 346.755 425.669 350.912L442.903 344.443Z" fill="#2D2C73"/>
<path d="M364.895 352.926C365.126 351.692 364.915 350.417 364.298 349.323C363.26 347.777 349.297 349.507 346.481 352.898L364.895 352.926Z" fill="#2D2C73"/>
<path d="M387.234 161.285C379.3 159.98 369.332 165.54 369.332 165.54C369.332 165.54 359.037 182.832 374.693 222.48L391.756 222.295C391.756 222.295 402.235 187.925 399.918 174.988C397.6 162.051 387.234 161.285 387.234 161.285Z" fill="url(#paint15_linear)"/>
<path d="M385.044 156.646C385.051 158.292 384.742 159.925 384.134 161.455C383.566 163.313 382.926 164.973 382.926 164.973C383.679 166.945 391.841 165.739 391.841 165.739C392.126 164.136 389.566 162.476 390.135 159.98C390.86 156.873 391.372 153.526 391.557 152.448V152.093C390.166 152.676 388.813 153.344 387.504 154.093C386.068 154.944 384.845 155.909 385.044 156.646Z" fill="url(#paint16_linear)"/>
<g style="mix-blend-mode:multiply" opacity="0.1">
<path d="M385.045 156.646C385.052 158.292 384.743 159.925 384.135 161.455C384.746 162.022 385.77 162.221 387.391 161.696C388.442 161.377 389.389 160.784 390.135 159.98C390.861 156.873 391.372 153.526 391.557 152.448L387.547 154.093C386.069 154.944 384.846 155.909 385.045 156.646Z" fill="#231F20"/>
</g>
<path d="M385.784 138.844C389.154 139.709 391.998 142.901 392.041 147.809C394.486 147.156 396.491 150.15 392.41 152.235C392.046 152.437 391.632 152.535 391.216 152.518C390.021 155.653 387.647 157.909 385.016 157.682C379.172 157.2 378.29 153.185 379.499 148.093C381.035 141.667 382.485 137.596 385.784 138.844Z" fill="url(#paint17_linear)"/>
<path d="M323.134 165.796C322.181 168.718 323.603 170.562 325.793 170.69C327.983 170.817 330.343 170.973 331.125 168.987C331.907 167.001 328.466 165.058 327.855 164.377C327.244 163.696 323.518 164.547 323.134 165.796Z" fill="url(#paint18_linear)"/>
<path d="M340.31 142.688C340.31 142.688 354.003 161.937 362.805 164.519C373.711 167.711 379.257 166.434 385.869 165.852C393.618 165.172 399.974 177.711 386.694 181.456C373.413 185.201 348.629 181.584 337.097 144.419L340.31 142.688Z" fill="url(#paint19_linear)"/>
<path d="M394.43 138.376C391.472 137.652 389.979 136.844 390.832 133.709C391.685 130.574 384.263 126.943 380.324 128.659C373.413 131.681 376.058 136.66 377.964 138.688C380.381 141.213 387.832 139.27 390.761 145.667C391.029 146.525 391.154 147.421 391.131 148.32C392.425 147.497 393.861 147.738 394.33 149.114C394.885 150.788 393.022 152.093 391.884 152.334C391.474 152.444 391.043 152.444 390.633 152.334C389.211 155.086 391.173 154.802 390.733 156.859C395.809 153.767 394.885 147.738 396.562 145.341C398.24 142.944 397.401 139.099 394.43 138.376Z" fill="#2D2C73"/>
<path d="M379.385 154.065C379.385 154.065 385.684 156.192 386.139 153.696C386.316 152.865 386.764 152.115 387.411 151.564C388.059 151.013 388.872 150.69 389.722 150.646C389.722 150.646 389.879 152.065 390.689 152.334C391.94 152.646 390.917 153.128 390.618 153.838C390.224 154.995 389.465 155.994 388.456 156.687C387.447 157.38 386.24 157.728 385.016 157.682C380.138 157.455 379.385 154.065 379.385 154.065Z" fill="#2D2C73"/>
<g opacity="0.2">
<path opacity="0.2" d="M304.422 184.052C304.451 173.032 302.283 162.115 298.044 151.938C293.805 141.761 287.58 132.527 279.731 124.772C271.882 117.017 262.566 110.896 252.324 106.766C242.082 102.636 231.119 100.579 220.073 100.714C174.201 101.409 137.601 141.454 138.326 187.513C138.795 213.968 145.009 229.643 171.898 250.254C182.811 258.559 191.09 269.828 195.744 282.71C196.927 285.948 197.877 289.266 198.587 292.639H256.616C256.616 272.042 266.57 256.992 274.078 248.552C283.593 240.701 291.249 230.846 296.495 219.694C301.742 208.543 304.448 196.371 304.422 184.052Z" fill="url(#paint20_linear)"/>
</g>
<path d="M258.579 292.568H198.602V310.839H258.579V292.568Z" fill="#243067"/>
<path d="M198.502 309.136C198.502 309.136 196.198 336.968 228.547 336.968C260.896 336.968 258.635 309.136 258.635 309.136H198.502Z" fill="url(#paint21_linear)"/>
<path d="M258.948 199.032C258.95 198.563 258.857 198.099 258.674 197.668C258.491 197.237 258.222 196.847 257.884 196.522C257.546 196.198 257.145 195.945 256.706 195.779C256.266 195.614 255.798 195.539 255.329 195.559C254.86 195.579 254.4 195.694 253.977 195.897C253.554 196.099 253.176 196.386 252.867 196.738C252.558 197.091 252.324 197.502 252.179 197.947C252.034 198.393 251.981 198.863 252.023 199.329C252.464 209.401 246.705 217.018 243.236 220.607C237.761 226.352 231.86 228.92 228.476 228.92C220.968 228.92 199.227 221.586 199.227 199.131C199.227 198.213 198.862 197.332 198.211 196.683C197.56 196.034 196.678 195.67 195.758 195.67C194.837 195.67 193.955 196.034 193.304 196.683C192.654 197.332 192.288 198.213 192.288 199.131C192.288 222.522 212.195 233.813 224.992 235.615V295.079C224.962 295.551 225.029 296.025 225.189 296.47C225.35 296.915 225.6 297.323 225.924 297.668C226.249 298.013 226.641 298.288 227.076 298.477C227.511 298.665 227.981 298.762 228.455 298.762C228.929 298.762 229.398 298.665 229.834 298.477C230.269 298.288 230.661 298.013 230.985 297.668C231.31 297.323 231.56 296.915 231.72 296.47C231.881 296.025 231.948 295.551 231.917 295.079V235.473C237.235 234.31 243.207 230.721 248.227 225.444C252.478 221.033 259.503 211.685 258.948 199.032Z" fill="#282466"/>
<path d="M289.917 315.392C283.201 313.824 277.34 309.752 273.537 304.012C269.733 298.271 268.274 291.297 269.46 284.518C270.645 277.739 274.385 271.669 279.912 267.553C285.439 263.436 292.336 261.584 299.188 262.377C306.04 263.17 312.328 266.548 316.764 271.818C321.2 277.087 323.447 283.85 323.045 290.719C322.643 297.589 319.623 304.045 314.603 308.764C309.583 313.484 302.943 316.109 296.046 316.101C293.982 316.101 291.926 315.863 289.917 315.392ZM273.849 283.986C272.775 288.575 273.158 293.383 274.947 297.745C276.736 302.106 279.841 305.803 283.832 308.324C287.823 310.846 292.501 312.065 297.218 311.813C301.934 311.562 306.456 309.852 310.154 306.921C313.853 303.99 316.546 299.984 317.858 295.457C319.171 290.931 319.039 286.109 317.48 281.66C315.922 277.212 313.014 273.358 309.16 270.633C305.306 267.908 300.698 266.447 295.975 266.453C290.845 266.46 285.869 268.195 281.853 271.378C277.837 274.561 275.016 279.004 273.849 283.986Z" fill="url(#paint22_linear)"/>
<path d="M303.952 279.518C303.952 279.518 305.174 273.702 299.899 272.425C294.624 271.149 292.377 274.553 291.552 278.099C289.391 287.376 302.131 292.653 300.425 300.015C298.363 308.853 284.656 307.718 287.102 297.178L303.952 279.518Z" fill="white"/>
<path d="M293.131 308.115C295.336 308.125 297.477 307.373 299.19 305.987C300.903 304.601 302.083 302.667 302.53 300.512C303.582 296.029 300.738 292.469 297.979 289.036C295.221 285.603 292.761 282.497 293.714 278.61C293.941 277.322 294.55 276.131 295.463 275.191C296.023 274.778 296.676 274.507 297.365 274.403C298.054 274.299 298.758 274.365 299.416 274.596C302.53 275.319 301.918 278.709 301.833 279.092C301.716 279.657 301.829 280.244 302.146 280.726C302.463 281.207 302.959 281.543 303.525 281.66C304.091 281.777 304.68 281.664 305.162 281.348C305.645 281.031 305.982 280.536 306.099 279.972C306.767 276.809 305.8 271.645 300.411 270.397C299.097 269.998 297.704 269.926 296.356 270.188C295.007 270.45 293.744 271.038 292.676 271.901C291.004 273.414 289.876 275.432 289.462 277.646C288.04 283.561 291.709 288.1 294.609 291.746C296.913 294.583 298.875 297.107 298.335 299.547C298.196 300.236 297.922 300.89 297.528 301.472C297.133 302.054 296.627 302.552 296.039 302.937C295.45 303.323 294.791 303.588 294.099 303.717C293.407 303.846 292.696 303.836 292.007 303.689C289.533 303.108 288.481 300.852 289.163 297.717C289.228 297.438 289.237 297.149 289.189 296.866C289.141 296.583 289.038 296.313 288.886 296.07C288.733 295.827 288.534 295.616 288.3 295.45C288.066 295.283 287.801 295.165 287.521 295.1C287.241 295.036 286.951 295.027 286.668 295.075C286.384 295.123 286.113 295.225 285.869 295.377C285.626 295.53 285.414 295.728 285.248 295.962C285.081 296.195 284.962 296.459 284.898 296.739C283.476 303.122 286.846 306.938 290.912 307.888C291.641 308.049 292.385 308.125 293.131 308.115Z" fill="url(#paint23_linear)"/>
<path d="M299.871 274.638C300.372 274.639 300.857 274.467 301.246 274.152C301.634 273.836 301.902 273.397 302.004 272.908L302.274 271.489C302.329 271.21 302.328 270.922 302.272 270.643C302.216 270.364 302.105 270.098 301.946 269.862C301.786 269.626 301.582 269.423 301.345 269.265C301.107 269.107 300.84 268.998 300.56 268.943C300.28 268.888 299.992 268.889 299.712 268.945C299.432 269.001 299.166 269.111 298.929 269.27C298.692 269.429 298.489 269.633 298.331 269.87C298.173 270.107 298.063 270.373 298.008 270.652L297.724 272.071C297.668 272.349 297.668 272.636 297.723 272.915C297.779 273.193 297.889 273.458 298.048 273.694C298.206 273.93 298.41 274.132 298.647 274.29C298.884 274.447 299.15 274.556 299.43 274.61L299.871 274.638Z" fill="url(#paint24_linear)"/>
<path d="M170.177 226.253L170.788 227.756L173.76 234.92L174.812 237.473L181.694 232.679L177.926 229.246C177.77 228.877 177.571 228.494 177.386 228.139C176.655 226.752 175.823 225.42 174.898 224.153C174.12 223.069 173.284 222.028 172.395 221.033L170.177 226.253Z" fill="url(#paint25_linear)"/>
<g style="mix-blend-mode:multiply">
<path style="mix-blend-mode:multiply" d="M170.788 227.756L173.76 234.92C177.201 232.679 175.779 228.707 176.604 226.664C176.14 225.757 175.562 224.914 174.883 224.153L172.039 223.16C172.039 223.16 171.428 225.217 170.788 227.756Z" fill="url(#paint26_linear)"/>
</g>
<path d="M158.503 211.117C156.398 212.38 156.157 223.997 162.683 232.04C167.148 237.53 171.4 232.04 173.262 227.146C174.315 224.309 173.405 219.784 171.84 217.075C169.281 212.777 164.645 207.415 158.503 211.117Z" fill="url(#paint27_linear)"/>
<path d="M169.053 224.707C169.053 224.707 173.319 223.075 171.158 219.416C168.996 215.756 166.892 218.862 167.048 219.841C167.205 220.82 168.143 226.139 168.143 226.139C168.143 226.139 171.627 231.7 170.703 233.147C169.779 234.594 165.015 237.686 161.091 231.246L159.356 226.99C159.356 226.99 165.968 227.217 165.911 220.749C165.854 214.281 164.859 216.735 159.569 213.926C154.279 211.117 153.881 208.252 155.744 205.741C155.744 205.741 158.332 207.954 163.508 206.039C168.684 204.124 174.798 202.422 179.149 213.004C183.5 223.586 172.238 230.735 169.053 224.707Z" fill="#2C2B73"/>
<path d="M131.927 404.801C131.927 404.801 123.396 406.872 119.13 413L137.714 410.674C137.714 410.674 137.601 403.567 131.927 404.801Z" fill="#2D2C73"/>
<path d="M83.8232 382.431C83.8232 382.431 75.121 381.012 68.8076 385.041L86.8519 390.091C86.8519 390.091 89.5251 383.481 83.8232 382.431Z" fill="#2D2C73"/>
<path d="M185.591 316.186C182.477 324.4 181.183 333.024 169.537 332.982C157.892 332.939 140.885 331.265 128.87 327.606C119.187 349.422 100.858 366.388 87.3497 385.538C85.6004 384.853 84.0299 383.781 82.7568 382.403C92.8525 361.948 103.346 328.343 116.883 310.825C124.718 300.696 157.152 304.172 167.461 303.207C174.741 302.54 180.557 311.193 185.591 316.186Z" fill="url(#paint28_linear)"/>
<path d="M189.458 308.597C189.458 308.597 190.88 331.776 174.201 333.237C162.37 334.287 139.676 334.102 139.676 334.102L134.7 405.156C133.108 405.932 131.324 406.228 129.566 406.007C129.566 406.007 115.717 339.337 121.205 320.726C124.391 310.002 168.129 304.81 168.129 304.81L189.458 308.597Z" fill="url(#paint29_linear)"/>
<path d="M140.472 300.058C138.283 298.483 132.965 297.902 130.519 299.888C128.073 301.874 126.253 303.633 125.756 305.307C125.258 306.98 131.315 303.888 133.278 304.498C135.24 305.108 140.842 304.158 140.615 302.101L140.472 300.058Z" fill="url(#paint30_linear)"/>
<path d="M137.771 298.852C137.771 298.852 157.522 287.603 162.3 277.575C168.215 265.163 169.31 260.098 170.248 251.942C171.343 242.41 188.634 235.26 189.473 252.254C190.312 269.248 180.671 298.327 138.881 303.179L137.771 298.852Z" fill="url(#paint31_linear)"/>
<path d="M183.372 232.125C179.632 233.459 175.793 237.615 172.921 241.402C169.591 245.823 167.531 251.066 166.963 256.566C165.001 272.666 165.848 288.984 169.466 304.796L189.458 308.583C189.458 308.583 200.051 267.049 197.634 251.843C195.217 236.636 183.372 232.125 183.372 232.125Z" fill="url(#paint32_linear)"/>
<path d="M117.224 311.335C116.695 311.335 116.177 311.182 115.733 310.895C115.289 310.608 114.938 310.2 114.721 309.718L98.3266 273.007C98.126 272.567 98.0466 272.081 98.0966 271.6C98.1466 271.118 98.3241 270.659 98.6109 270.269C98.8997 269.882 99.2856 269.577 99.7298 269.385C100.174 269.193 100.661 269.121 101.142 269.177L107.654 269.915C108.123 269.977 108.569 270.155 108.951 270.432C109.333 270.71 109.64 271.078 109.844 271.503L125.884 306.782C126.066 307.174 126.15 307.605 126.131 308.037C126.111 308.469 125.987 308.89 125.77 309.264C125.563 309.649 125.267 309.979 124.905 310.226C124.544 310.473 124.128 310.63 123.694 310.683L117.537 311.364L117.224 311.335ZM105.308 275.191L118.916 305.661H119.314L105.479 275.191H105.308Z" fill="url(#paint33_linear)"/>
<path d="M151.066 307.562L115.66 311.491C115.307 311.53 114.95 311.5 114.609 311.401C114.268 311.303 113.949 311.138 113.672 310.917C113.395 310.695 113.164 310.422 112.993 310.111C112.821 309.801 112.713 309.46 112.674 309.108C112.635 308.756 112.665 308.4 112.764 308.06C112.863 307.719 113.028 307.402 113.25 307.125C113.472 306.849 113.746 306.618 114.057 306.447C114.368 306.276 114.71 306.168 115.063 306.129L150.454 302.143C150.813 302.103 151.176 302.134 151.522 302.234C151.869 302.334 152.193 302.501 152.474 302.725C152.756 302.95 152.991 303.228 153.165 303.543C153.34 303.858 153.45 304.204 153.49 304.562C153.53 304.919 153.5 305.282 153.399 305.627C153.299 305.973 153.132 306.296 152.907 306.577C152.682 306.858 152.403 307.092 152.087 307.266C151.771 307.44 151.424 307.55 151.066 307.59V307.562Z" fill="url(#paint34_linear)"/>
<path d="M108.351 272.752L102.606 272.099L117.807 305.959L123.253 305.335L108.351 272.752Z" fill="white"/>
<path d="M141.837 302.64C139.662 301.065 134.344 300.484 131.969 302.484C129.595 304.484 127.703 306.214 127.206 307.902C126.708 309.59 132.751 306.484 134.714 307.08C136.676 307.675 142.292 306.739 142.065 304.697L141.837 302.64Z" fill="url(#paint35_linear)"/>
<path d="M140.003 301.746C140.003 301.746 162.384 289.065 167.162 279.05C173.077 266.638 173.049 259.63 173.987 251.488C175.096 241.942 190.88 238.168 191.718 255.162C192.557 272.156 182.917 301.235 141.112 306.087L140.003 301.746Z" fill="url(#paint36_linear)"/>
<path d="M180.97 229.544C180.97 229.544 183.415 231.132 183.373 232.125C183.33 233.118 174.656 241.7 174.386 244.396C174.116 247.091 171.03 239.842 171.03 239.842C171.03 239.842 180.33 230.281 180.97 229.544Z" fill="#2C2B73"/>
<path d="M211.924 166.618C211.924 166.618 207.502 174.505 209.536 175.669C211.569 176.832 215.934 167.824 215.934 167.824L211.924 166.618Z" fill="#336CB5"/>
<path d="M226.144 166.789C226.144 166.789 221.878 174.832 223.812 176.023C225.745 177.215 230.054 168.009 230.054 168.009L226.144 166.789Z" fill="#336CB5"/>
<path d="M232.343 72.8974C227.836 71.0817 221.579 79.2239 220.1 83.9759C219.312 86.7076 219.2 89.5891 219.773 92.3735C221.935 104.885 239.68 105.566 239.68 105.566C239.68 105.566 233.609 150.731 226.03 166.831L229.542 169.058C229.542 169.058 253.715 127.368 255.293 107.126C255.506 104.289 257.81 98.615 250.43 90.2458C246.093 85.2952 232.343 72.8974 232.343 72.8974Z" fill="url(#paint37_linear)"/>
<path d="M232.955 73.5073C232.599 71.649 217.072 69.1241 212.578 71.649C211.3 75.0837 209.735 78.4052 207.9 81.5786C206.19 84.9202 205.688 88.748 206.478 92.4161C208.654 104.942 225.418 105.537 225.418 105.537C225.418 105.537 219.347 150.703 211.754 166.803L215.266 169.03C215.266 169.03 239.439 127.34 241.017 107.098C241.301 103.807 233.31 75.3797 232.955 73.5073Z" fill="url(#paint38_linear)"/>
<path d="M234.69 42.0447C230.708 49.7472 221.182 60.1449 209.664 60.1449C208.54 60.1506 207.443 59.799 206.533 59.1409C205.623 58.4828 204.946 57.5526 204.602 56.4851C203.38 56.9743 202.058 57.1593 200.748 57.0242C200.38 56.9725 200.014 56.9015 199.654 56.8114C196.724 56.0596 192.075 53.5488 191.477 50.4707C191.055 48.3444 191.462 46.1374 192.615 44.3001C191.705 42.6263 189.046 39.1793 189.046 35.789C189.046 19.618 205.427 24.597 208.512 17.9867C210.659 13.3907 211.015 7.85853 218.707 2.72351C226.4 -2.4115 230.652 3.00722 232.699 5.14917C234.747 7.29113 235.714 13.3482 233.097 17.9158C231.249 21.1642 233.609 24.3984 235.273 28.4128C236.173 30.5912 236.586 32.9388 236.486 35.2928C236.385 37.6467 235.772 39.9506 234.69 42.0447Z" fill="#3070B7"/>
<g style="mix-blend-mode:multiply">
<g style="mix-blend-mode:multiply">
<path d="M215.095 9.92953C211.199 13.4616 214.996 23.448 205.142 29.0369C198.63 32.725 203.834 36.9238 198.786 49.3642C198.189 51.1941 197.663 53.0523 197.236 54.8822C194.719 53.7616 192.018 51.8182 191.548 49.5486C191.154 47.4805 191.549 45.3399 192.657 43.5483C191.776 41.9312 189.202 38.5693 189.202 35.3067C189.202 19.6038 205.114 24.4267 208.114 18.0151C210.204 13.5467 210.531 8.15639 218.067 3.17741C225.604 -1.80157 219.404 5.94351 215.095 9.92953Z" fill="#3070B7"/>
</g>
</g>
<path d="M246.022 89.0684C244.6 89.65 243.69 89.4089 245.098 86.8413C248.368 80.8269 234.448 47.6195 234.547 51.5204C234.945 66.4573 231.703 73.4506 231.703 73.4506C231.703 73.4506 211.654 73.4506 212.351 72.6137C213.944 70.5852 209.976 53.0949 209.976 53.0949C209.976 53.0949 205.91 56.0454 205.483 64.443C205.057 72.8406 220.826 83.4937 220.826 83.4937C220.826 83.4937 221.878 83.1674 221.167 86.6853C216.617 85.6498 202.213 75.3372 197.52 69.2943C195.615 66.8403 196.013 61.6202 197.35 56.0171C197.79 54.1446 198.331 52.2155 198.942 50.343C200.413 45.5257 202.366 40.8683 204.772 36.4416C207.474 32.3421 210.318 28.966 222.404 28.2284C227.027 28.4037 231.448 30.1677 234.917 33.2216C243.306 40.1297 249.065 69.4362 250.459 81.451C250.646 83.0287 250.315 84.6246 249.515 85.9983C248.715 87.3721 247.489 88.4495 246.022 89.0684Z" fill="url(#paint39_linear)"/>
<path d="M218.821 91.5224L228.363 99.1823C228.588 99.3574 228.846 99.4863 229.122 99.5617C229.398 99.6372 229.686 99.6577 229.969 99.6221L252.948 97.0688C254.654 96.8702 255.422 95.097 254.227 94.0899L245.028 86.3874C244.803 86.2049 244.543 86.0694 244.265 85.989C243.986 85.9085 243.694 85.8848 243.407 85.9193L220.016 88.5151C218.281 88.7137 217.542 90.5294 218.821 91.5224Z" fill="url(#paint40_linear)"/>
<g style="mix-blend-mode:multiply">
<g style="mix-blend-mode:multiply">
<path d="M222.916 91.8203L230.197 97.6929C230.369 97.8249 230.565 97.9217 230.775 97.9777C230.985 98.0337 231.204 98.0478 231.419 98.0192L249.108 96.0616C250.416 95.9198 250.999 94.558 250.089 93.792L242.98 87.8768C242.63 87.602 242.186 87.4747 241.743 87.5222L223.784 89.5223C222.547 89.6641 221.964 91.0543 222.916 91.8203Z" fill="#3070B7"/>
</g>
</g>
<path d="M233.155 79.8906L230.496 94.8701C230.069 97.3099 232.401 99.3384 235.245 99.0263L257.214 96.5865C258.144 96.5301 259.032 96.1772 259.746 95.5796C260.461 94.982 260.963 94.1714 261.181 93.2672L263.854 78.2877C264.281 75.862 261.949 73.8193 259.091 74.1314L237.136 76.5996C236.21 76.66 235.326 77.0106 234.611 77.6016C233.896 78.1926 233.387 78.9936 233.155 79.8906Z" fill="url(#paint41_linear)"/>
<path d="M221.736 28.8809C219.716 29.0937 216.46 29.3207 215.763 31.1222C214.839 33.5195 218.607 35.1082 225.12 37.4913C225.12 37.4913 230.978 33.562 227.964 30.7534C226.217 29.3332 223.978 28.6601 221.736 28.8809Z" fill="url(#paint42_linear)"/>
<path d="M225.589 23.1359C225.186 24.5844 225.033 26.0904 225.134 27.5901C225.134 29.349 225.219 30.9519 225.219 30.9519C224.181 32.5265 221.096 30.498 221.096 30.498C220.713 28.6793 220.636 26.8097 220.868 24.9658C221.053 22.0579 221.465 18.9939 221.608 18.0151V17.6888C222.546 18.52 223.429 19.4108 224.252 20.3556C225.205 21.4195 225.93 22.5402 225.589 23.1359Z" fill="url(#paint43_linear)"/>
<g style="mix-blend-mode:multiply">
<path style="mix-blend-mode:multiply" d="M225.589 23.1359C225.186 24.5844 225.033 26.0904 225.134 27.59C224.523 27.9447 223.712 27.9021 222.574 27.0794C221.819 26.5472 221.228 25.8151 220.868 24.9658C221.053 22.0578 221.465 18.9938 221.608 18.0151L224.295 20.3556C225.205 21.4195 225.93 22.5401 225.589 23.1359Z" fill="url(#paint44_linear)"/>
</g>
<path d="M229.272 7.27694C226.542 6.59605 223.584 9.48982 222.318 13.8163C220.598 12.6957 218.337 14.8944 220.982 17.6321C221.203 17.8834 221.496 18.0615 221.821 18.1427C221.991 21.1642 223.243 23.5615 225.347 24.0721C227.452 24.5828 230.438 20.8805 231.305 15.9582C232.101 11.3481 232.116 7.97201 229.272 7.27694Z" fill="url(#paint45_linear)"/>
<path d="M231.49 7.27693C231.49 7.27693 230.538 11.9438 223.542 14.8518C223.542 14.8518 222.674 16.2703 222.006 12.5254C221.338 8.78056 228.59 4.87965 231.49 7.27693Z" fill="#3070B7"/>
<path d="M220.968 83.9617C220.968 83.9617 224.508 84.6284 225.93 86.5292C226.971 88.172 228.197 89.6903 229.585 91.0543C228.904 91.4713 228.117 91.6849 227.319 91.6698C226.52 91.6548 225.742 91.4116 225.077 90.9692C223.129 89.4656 221.864 88.5152 221.067 86.3448C220.894 85.974 220.795 85.5723 220.778 85.1632C220.761 84.7542 220.825 84.3457 220.968 83.9617Z" fill="url(#paint46_linear)"/>
<path d="M184.24 334.102H141.013C140.275 334.102 139.677 334.699 139.677 335.436V335.634C139.677 336.371 140.275 336.968 141.013 336.968H184.24C184.978 336.968 185.577 336.371 185.577 335.634V335.436C185.577 334.699 184.978 334.102 184.24 334.102Z" fill="#6983C1"/>
<path d="M203.578 334.102H188.833C188.095 334.102 187.496 334.699 187.496 335.436V335.634C187.496 336.371 188.095 336.968 188.833 336.968H203.578C204.316 336.968 204.915 336.371 204.915 335.634V335.436C204.915 334.699 204.316 334.102 203.578 334.102Z" fill="#6983C1"/>
<path d="M450.823 352.926H338.846C338.029 352.926 337.367 353.586 337.367 354.401V354.642C337.367 355.457 338.029 356.118 338.846 356.118H450.823C451.64 356.118 452.302 355.457 452.302 354.642V354.401C452.302 353.586 451.64 352.926 450.823 352.926Z" fill="#6983C1"/>
<path d="M468.341 352.926H455.43C454.613 352.926 453.951 353.586 453.951 354.401V354.642C453.951 355.457 454.613 356.118 455.43 356.118H468.341C469.158 356.118 469.82 355.457 469.82 354.642V354.401C469.82 353.586 469.158 352.926 468.341 352.926Z" fill="#6983C1"/>
<defs>
<linearGradient id="paint0_linear" x1="36.6719" y1="274.255" x2="94.971" y2="274.255" gradientUnits="userSpaceOnUse">
<stop stop-color="#7CBAE6"/>
<stop offset="1" stop-color="#367797"/>
</linearGradient>
<linearGradient id="paint1_linear" x1="41.6348" y1="226.863" x2="83.3399" y2="226.863" gradientUnits="userSpaceOnUse">
<stop stop-color="#BA5761"/>
<stop offset="1" stop-color="#EE8B91"/>
</linearGradient>
<linearGradient id="paint2_linear" x1="2967.94" y1="6406.73" x2="4555.14" y2="6406.73" gradientUnits="userSpaceOnUse">
<stop stop-color="#BA5761"/>
<stop offset="1" stop-color="#EE8B91"/>
</linearGradient>
<linearGradient id="paint3_linear" x1="2410.4" y1="5320.69" x2="3758.43" y2="5320.69" gradientUnits="userSpaceOnUse">
<stop stop-color="#7CBAE6"/>
<stop offset="1" stop-color="#367797"/>
</linearGradient>
<linearGradient id="paint4_linear" x1="516.488" y1="1121.84" x2="532.351" y2="1121.84" gradientUnits="userSpaceOnUse">
<stop stop-color="#7CBAE6"/>
<stop offset="1" stop-color="#367797"/>
</linearGradient>
<linearGradient id="paint5_linear" x1="138.354" y1="84.8412" x2="203.138" y2="84.8412" gradientUnits="userSpaceOnUse">
<stop offset="0.01" stop-color="#2C318C"/>
<stop offset="0.21" stop-color="#342777"/>
<stop offset="0.51" stop-color="#3D1C5F"/>
<stop offset="0.77" stop-color="#431550"/>
<stop offset="1" stop-color="#45134B"/>
</linearGradient>
<linearGradient id="paint6_linear" x1="2312.61" y1="1559.23" x2="2530.67" y2="1559.23" gradientUnits="userSpaceOnUse">
<stop offset="0.01" stop-color="#2C318C"/>
<stop offset="0.21" stop-color="#342777"/>
<stop offset="0.51" stop-color="#3D1C5F"/>
<stop offset="0.77" stop-color="#431550"/>
<stop offset="1" stop-color="#45134B"/>
</linearGradient>
<linearGradient id="paint7_linear" x1="16922.2" y1="13940.3" x2="22236.8" y2="13940.3" gradientUnits="userSpaceOnUse">
<stop stop-color="#7CBAE6"/>
<stop offset="1" stop-color="#367797"/>
</linearGradient>
<linearGradient id="paint8_linear" x1="6969.1" y1="5236.32" x2="7677.8" y2="5236.32" gradientUnits="userSpaceOnUse">
<stop stop-color="#7CBAE6"/>
<stop offset="1" stop-color="#367797"/>
</linearGradient>
<linearGradient id="paint9_linear" x1="235.017" y1="99.1824" x2="359.45" y2="99.1824" gradientUnits="userSpaceOnUse">
<stop stop-color="#8677B7"/>
<stop offset="0.01" stop-color="#8879B8"/>
<stop offset="0.14" stop-color="#A99CCB"/>
<stop offset="0.27" stop-color="#C3B9DB"/>
<stop offset="0.42" stop-color="#D8D0E7"/>
<stop offset="0.58" stop-color="#E7E0EF"/>
<stop offset="0.75" stop-color="#EFE9F4"/>
<stop offset="1" stop-color="#F2ECF6"/>
</linearGradient>
<linearGradient id="paint10_linear" x1="15549.8" y1="3162.35" x2="18533.9" y2="3162.35" gradientUnits="userSpaceOnUse">
<stop stop-color="#7CBAE6"/>
<stop offset="1" stop-color="#367797"/>
</linearGradient>
<linearGradient id="paint11_linear" x1="333.485" y1="138.73" x2="340.268" y2="138.73" gradientUnits="userSpaceOnUse">
<stop offset="0.78" stop-color="#F9BABA"/>
<stop offset="1" stop-color="#F5928F"/>
</linearGradient>
<linearGradient id="paint12_linear" x1="5997.61" y1="16414.5" x2="6342.32" y2="16414.5" gradientUnits="userSpaceOnUse">
<stop offset="0.01" stop-color="#2C318C"/>
<stop offset="0.21" stop-color="#342777"/>
<stop offset="0.51" stop-color="#3D1C5F"/>
<stop offset="0.77" stop-color="#431550"/>
<stop offset="1" stop-color="#45134B"/>
</linearGradient>
<linearGradient id="paint13_linear" x1="8024.86" y1="13886.3" x2="8636.14" y2="13886.3" gradientUnits="userSpaceOnUse">
<stop offset="0.01" stop-color="#2C318C"/>
<stop offset="0.21" stop-color="#342777"/>
<stop offset="0.51" stop-color="#3D1C5F"/>
<stop offset="0.77" stop-color="#431550"/>
<stop offset="1" stop-color="#45134B"/>
</linearGradient>
<linearGradient id="paint14_linear" x1="18252.6" y1="24586" x2="21441.9" y2="24586" gradientUnits="userSpaceOnUse">
<stop offset="0.01" stop-color="#2C318C"/>
<stop offset="0.21" stop-color="#342777"/>
<stop offset="0.51" stop-color="#3D1C5F"/>
<stop offset="0.77" stop-color="#431550"/>
<stop offset="1" stop-color="#45134B"/>
</linearGradient>
<linearGradient id="paint15_linear" x1="9252.62" y1="8462.04" x2="10077.5" y2="8462.04" gradientUnits="userSpaceOnUse">
<stop stop-color="#7CBAE6"/>
<stop offset="1" stop-color="#367797"/>
</linearGradient>
<linearGradient id="paint16_linear" x1="2808.69" y1="1723.57" x2="2864.81" y2="1723.57" gradientUnits="userSpaceOnUse">
<stop offset="0.78" stop-color="#F9BABA"/>
<stop offset="1" stop-color="#F5928F"/>
</linearGradient>
<linearGradient id="paint17_linear" x1="4602.72" y1="2131.35" x2="4776.59" y2="2131.35" gradientUnits="userSpaceOnUse">
<stop offset="0.78" stop-color="#F9BABA"/>
<stop offset="1" stop-color="#F5928F"/>
</linearGradient>
<linearGradient id="paint18_linear" x1="2249.38" y1="945.657" x2="2299.06" y2="945.657" gradientUnits="userSpaceOnUse">
<stop offset="0.78" stop-color="#F9BABA"/>
<stop offset="1" stop-color="#F5928F"/>
</linearGradient>
<linearGradient id="paint19_linear" x1="14039.8" y1="4720.95" x2="16348.1" y2="4720.95" gradientUnits="userSpaceOnUse">
<stop stop-color="#7CBAE6"/>
<stop offset="1" stop-color="#367797"/>
</linearGradient>
<linearGradient id="paint20_linear" x1="138.312" y1="196.606" x2="304.422" y2="196.606" gradientUnits="userSpaceOnUse">
<stop stop-color="#CCEBFB"/>
<stop offset="0.12" stop-color="#C7E9FA"/>
<stop offset="0.26" stop-color="#B9E4F6"/>
<stop offset="0.42" stop-color="#A1DBF0"/>
<stop offset="0.58" stop-color="#80CFE7"/>
<stop offset="0.74" stop-color="#55BFDC"/>
<stop offset="0.91" stop-color="#22ACCF"/>
<stop offset="0.99" stop-color="#07A2C8"/>
</linearGradient>
<linearGradient id="paint21_linear" x1="8728.66" y1="6647.42" x2="11275.2" y2="6647.42" gradientUnits="userSpaceOnUse">
<stop stop-color="#8677B7"/>
<stop offset="0.01" stop-color="#8879B8"/>
<stop offset="0.14" stop-color="#A99CCB"/>
<stop offset="0.27" stop-color="#C3B9DB"/>
<stop offset="0.42" stop-color="#D8D0E7"/>
<stop offset="0.58" stop-color="#E7E0EF"/>
<stop offset="0.75" stop-color="#EFE9F4"/>
<stop offset="1" stop-color="#F2ECF6"/>
</linearGradient>
<linearGradient id="paint22_linear" x1="10602.4" y1="11248.8" x2="12658.4" y2="11248.8" gradientUnits="userSpaceOnUse">
<stop stop-color="#7CBAE6"/>
<stop offset="1" stop-color="#367797"/>
</linearGradient>
<linearGradient id="paint23_linear" x1="4677.89" y1="8031.28" x2="5008" y2="8031.28" gradientUnits="userSpaceOnUse">
<stop stop-color="#7CBAE6"/>
<stop offset="1" stop-color="#367797"/>
</linearGradient>
<linearGradient id="paint24_linear" x1="1277.54" y1="1367.88" x2="1292.55" y2="1367.88" gradientUnits="userSpaceOnUse">
<stop stop-color="#7CBAE6"/>
<stop offset="1" stop-color="#367797"/>
</linearGradient>
<linearGradient id="paint25_linear" x1="1572.91" y1="2877.99" x2="1666.2" y2="2877.99" gradientUnits="userSpaceOnUse">
<stop offset="0.78" stop-color="#F9BABA"/>
<stop offset="1" stop-color="#F5928F"/>
</linearGradient>
<linearGradient id="paint26_linear" x1="881.582" y1="2121.84" x2="905.426" y2="2121.84" gradientUnits="userSpaceOnUse">
<stop offset="0.78" stop-color="#F9BABA"/>
<stop offset="1" stop-color="#F5928F"/>
</linearGradient>
<linearGradient id="paint27_linear" x1="2019.87" y1="4038.57" x2="2212.18" y2="4038.57" gradientUnits="userSpaceOnUse">
<stop offset="0.78" stop-color="#F9BABA"/>
<stop offset="1" stop-color="#F5928F"/>
</linearGradient>
<linearGradient id="paint28_linear" x1="6284.67" y1="20298.5" x2="13721.6" y2="20298.5" gradientUnits="userSpaceOnUse">
<stop offset="0.01" stop-color="#2C318C"/>
<stop offset="0.21" stop-color="#342777"/>
<stop offset="0.51" stop-color="#3D1C5F"/>
<stop offset="0.77" stop-color="#431550"/>
<stop offset="1" stop-color="#45134B"/>
</linearGradient>
<linearGradient id="paint29_linear" x1="6134.18" y1="25679.5" x2="9537.51" y2="25679.5" gradientUnits="userSpaceOnUse">
<stop offset="0.01" stop-color="#2C318C"/>
<stop offset="0.21" stop-color="#342777"/>
<stop offset="0.51" stop-color="#3D1C5F"/>
<stop offset="0.77" stop-color="#431550"/>
<stop offset="1" stop-color="#45134B"/>
</linearGradient>
<linearGradient id="paint30_linear" x1="1474.9" y1="1829.76" x2="1631" y2="1829.76" gradientUnits="userSpaceOnUse">
<stop offset="0.78" stop-color="#F9BABA"/>
<stop offset="1" stop-color="#F5928F"/>
</linearGradient>
<linearGradient id="paint31_linear" x1="5258.47" y1="11999.8" x2="7142.19" y2="11999.8" gradientUnits="userSpaceOnUse">
<stop stop-color="#7CBAE6"/>
<stop offset="1" stop-color="#367797"/>
</linearGradient>
<linearGradient id="paint32_linear" x1="3974.55" y1="14804.2" x2="4697.48" y2="14804.2" gradientUnits="userSpaceOnUse">
<stop stop-color="#7CBAE6"/>
<stop offset="1" stop-color="#367797"/>
</linearGradient>
<linearGradient id="paint33_linear" x1="2092.25" y1="8904.69" x2="2645.42" y2="8904.69" gradientUnits="userSpaceOnUse">
<stop stop-color="#8677B7"/>
<stop offset="0.01" stop-color="#8879B8"/>
<stop offset="0.14" stop-color="#A99CCB"/>
<stop offset="0.27" stop-color="#C3B9DB"/>
<stop offset="0.42" stop-color="#D8D0E7"/>
<stop offset="0.58" stop-color="#E7E0EF"/>
<stop offset="0.75" stop-color="#EFE9F4"/>
<stop offset="1" stop-color="#F2ECF6"/>
</linearGradient>
<linearGradient id="paint34_linear" x1="3435.4" y1="2331.16" x2="4609.02" y2="2331.16" gradientUnits="userSpaceOnUse">
<stop stop-color="#8677B7"/>
<stop offset="0.01" stop-color="#8879B8"/>
<stop offset="0.14" stop-color="#A99CCB"/>
<stop offset="0.27" stop-color="#C3B9DB"/>
<stop offset="0.42" stop-color="#D8D0E7"/>
<stop offset="0.58" stop-color="#E7E0EF"/>
<stop offset="0.75" stop-color="#EFE9F4"/>
<stop offset="1" stop-color="#F2ECF6"/>
</linearGradient>
<linearGradient id="paint35_linear" x1="1490.65" y1="1849.13" x2="1646.75" y2="1849.13" gradientUnits="userSpaceOnUse">
<stop offset="0.78" stop-color="#F9BABA"/>
<stop offset="1" stop-color="#F5928F"/>
</linearGradient>
<linearGradient id="paint36_linear" x1="5345.97" y1="12388.6" x2="7230.2" y2="12388.6" gradientUnits="userSpaceOnUse">
<stop stop-color="#7CBAE6"/>
<stop offset="1" stop-color="#367797"/>
</linearGradient>
<linearGradient id="paint37_linear" x1="5911.25" y1="8286.7" x2="6842.72" y2="8286.7" gradientUnits="userSpaceOnUse">
<stop stop-color="#7CBAE6"/>
<stop offset="1" stop-color="#367797"/>
</linearGradient>
<linearGradient id="paint38_linear" x1="5341.88" y1="8386.17" x2="6197.9" y2="8386.17" gradientUnits="userSpaceOnUse">
<stop stop-color="#7CBAE6"/>
<stop offset="1" stop-color="#367797"/>
</linearGradient>
<linearGradient id="paint39_linear" x1="7800.36" y1="2559.08" x2="9873.77" y2="2559.08" gradientUnits="userSpaceOnUse">
<stop stop-color="#CCEBFB"/>
<stop offset="0.12" stop-color="#C7E9FA"/>
<stop offset="0.26" stop-color="#B9E4F6"/>
<stop offset="0.42" stop-color="#A1DBF0"/>
<stop offset="0.58" stop-color="#80CFE7"/>
<stop offset="0.74" stop-color="#55BFDC"/>
<stop offset="0.91" stop-color="#22ACCF"/>
<stop offset="0.99" stop-color="#07A2C8"/>
</linearGradient>
<linearGradient id="paint40_linear" x1="218.153" y1="92.7707" x2="254.853" y2="92.7707" gradientUnits="userSpaceOnUse">
<stop stop-color="#BFBDDF"/>
<stop offset="1" stop-color="#E9E9F5"/>
</linearGradient>
<linearGradient id="paint41_linear" x1="5723.51" y1="1597.56" x2="6512.15" y2="1597.56" gradientUnits="userSpaceOnUse">
<stop stop-color="#BFBDDF"/>
<stop offset="1" stop-color="#E9E9F5"/>
</linearGradient>
<linearGradient id="paint42_linear" x1="2245.25" y1="231.113" x2="2368.15" y2="231.113" gradientUnits="userSpaceOnUse">
<stop offset="0.78" stop-color="#F9BABA"/>
<stop offset="1" stop-color="#F5928F"/>
</linearGradient>
<linearGradient id="paint43_linear" x1="997.733" y1="258.332" x2="1014.72" y2="258.332" gradientUnits="userSpaceOnUse">
<stop offset="0.78" stop-color="#F9BABA"/>
<stop offset="1" stop-color="#F5928F"/>
</linearGradient>
<linearGradient id="paint44_linear" x1="977.635" y1="176.062" x2="993.834" y2="176.062" gradientUnits="userSpaceOnUse">
<stop offset="0.78" stop-color="#F9BABA"/>
<stop offset="1" stop-color="#F5928F"/>
</linearGradient>
<linearGradient id="paint45_linear" x1="2098.91" y1="194.043" x2="2200.02" y2="194.043" gradientUnits="userSpaceOnUse">
<stop offset="0.78" stop-color="#F9BABA"/>
<stop offset="1" stop-color="#F5928F"/>
</linearGradient>
<linearGradient id="paint46_linear" x1="1607.02" y1="561.294" x2="1661.55" y2="561.294" gradientUnits="userSpaceOnUse">
<stop offset="0.78" stop-color="#F9BABA"/>
<stop offset="1" stop-color="#F5928F"/>
</linearGradient>
</defs>
</svg>
