<svg width="474" height="426" viewBox="0 0 474 426" fill="none" xmlns="http://www.w3.org/2000/svg">
<path opacity="0.5" d="M426.178 40.3381C426.328 39.0009 426.403 37.6561 426.402 36.3103C426.402 35.5889 426.402 34.8825 426.402 34.1762L419.763 32.012C419.351 29.2567 418.551 26.5745 417.385 24.0466L421.766 18.6211C420.762 16.8232 419.601 15.1182 418.297 13.5262L411.658 15.6904C409.726 13.6974 407.52 11.9919 405.108 10.6256L405.482 3.62201C403.616 2.75251 401.68 2.04361 399.695 1.50291L395.598 7.18391C393.982 6.90642 392.347 6.76566 390.708 6.7631C389.579 6.76711 388.45 6.83233 387.328 6.95848L383.545 1.14221C381.533 1.5448 379.561 2.12827 377.653 2.88559V9.88915C375.176 11.1326 372.885 12.7213 370.849 14.6083L364.345 12.0233C362.962 13.5464 361.711 15.1855 360.606 16.9228L364.703 22.5737C363.389 25.0591 362.438 27.7214 361.877 30.479L355.148 32.2825C354.998 33.6198 354.923 34.9645 354.924 36.3103C354.924 37.0317 354.924 37.7381 354.924 38.4595L361.683 40.5786C362.077 43.3372 362.862 46.0247 364.016 48.559L359.634 53.9845C360.643 55.7798 361.804 57.4844 363.103 59.0794L369.743 56.9002C371.675 58.8932 373.881 60.5987 376.293 61.965L375.919 68.9686C377.787 69.8175 379.722 70.5063 381.706 71.0275L385.803 65.3766C387.423 65.6547 389.064 65.7955 390.708 65.7974C391.832 65.7931 392.955 65.7279 394.072 65.602L397.856 71.4934C399.866 71.0788 401.837 70.4905 403.747 69.735V62.7315C406.23 61.4892 408.526 59.9005 410.566 58.0123L417.071 60.5372C418.447 59.0014 419.693 57.3525 420.795 55.6077L416.697 49.9417C417.989 47.4682 418.921 44.8211 419.464 42.0815L426.178 40.3381ZM390.693 50.3926C387.921 50.3956 385.211 49.5722 382.904 48.0266C380.598 46.481 378.8 44.2827 377.737 41.7098C376.674 39.1369 376.395 36.3049 376.934 33.5722C377.473 30.8395 378.806 28.3289 380.765 26.358C382.724 24.387 385.221 23.0443 387.939 22.4997C390.657 21.9552 393.475 22.2332 396.036 23.2986C398.598 24.364 400.787 26.1689 402.327 28.4851C403.867 30.8012 404.689 33.5245 404.689 36.3103C404.691 38.1576 404.331 39.9873 403.63 41.6948C402.928 43.4022 401.899 44.9541 400.601 46.2618C399.302 47.5694 397.76 48.6073 396.063 49.316C394.366 50.0248 392.546 50.3906 390.708 50.3926H390.693Z" fill="url(#paint0_linear)"/>
<path opacity="0.5" d="M403.882 103.46C404.473 104.674 405.132 105.853 405.856 106.992C406.23 107.593 406.633 108.194 407.052 108.766L413.781 107.007C415.594 109.121 417.699 110.963 420.032 112.478L419.209 119.436C421.022 120.403 422.913 121.212 424.862 121.856L429.348 116.445C432.047 117.078 434.82 117.331 437.587 117.197L440.952 123.239C442.983 122.956 444.984 122.494 446.933 121.856L447.367 114.867C449.92 113.776 452.31 112.335 454.47 110.584L460.795 113.515C462.275 112.09 463.626 110.536 464.833 108.871L461.094 102.964C462.526 100.574 463.618 97.9938 464.339 95.2995L471.158 93.9319C471.522 91.9032 471.707 89.8463 471.712 87.785L465.237 85.215C465.008 82.4346 464.383 79.7015 463.382 77.0993L468.048 72.0194C467.459 70.812 466.805 69.638 466.089 68.5026C465.7 67.8864 465.296 67.3003 464.893 66.7292L458.149 68.4726C456.337 66.3625 454.238 64.5207 451.913 63.002L452.72 56.0585C450.926 55.0881 449.049 54.2784 447.113 53.6388L442.627 59.0343C439.929 58.3978 437.155 58.1498 434.387 58.2979L430.978 52.181C428.949 52.4704 426.948 52.9329 424.996 53.5637L424.682 60.5673C423.171 61.2057 421.716 61.9699 420.331 62.8517C419.378 63.4541 418.464 64.1167 417.594 64.8355L411.254 61.8297C409.774 63.2599 408.423 64.819 407.217 66.4887L410.955 72.3952C409.522 74.778 408.435 77.3538 407.725 80.045L400.891 81.4277C400.526 83.4562 400.341 85.5132 400.338 87.5746L406.738 90.1746C406.972 92.9542 407.596 95.6865 408.592 98.2903L403.882 103.46ZM428.481 75.8669C430.819 74.3718 433.546 73.6073 436.317 73.6701C439.088 73.733 441.778 74.6204 444.047 76.22C446.316 77.8197 448.062 80.0597 449.065 82.6568C450.067 85.254 450.28 88.0915 449.678 90.8104C449.075 93.5294 447.684 96.0077 445.679 97.9318C443.675 99.8559 441.148 101.139 438.418 101.62C435.688 102.1 432.878 101.756 430.342 100.631C427.807 99.5064 425.66 97.6508 424.174 95.2995C423.186 93.7398 422.513 91.9995 422.195 90.1783C421.877 88.3571 421.919 86.4907 422.319 84.6858C422.719 82.881 423.469 81.1731 424.526 79.6598C425.583 78.1466 426.927 76.8577 428.481 75.8669Z" fill="url(#paint1_linear)"/>
<path d="M215.886 0.435913H127.614C126.656 0.435913 125.88 1.21645 125.88 2.17929V40.3682C125.88 41.3311 126.656 42.1116 127.614 42.1116H215.886C216.844 42.1116 217.62 41.3311 217.62 40.3682V2.17929C217.62 1.21645 216.844 0.435913 215.886 0.435913Z" fill="url(#paint2_linear)"/>
<path d="M213.702 11.3921H129.783C129.006 11.3921 128.377 12.0246 128.377 12.8048V38.7451C128.377 39.5253 129.006 40.1578 129.783 40.1578H213.702C214.479 40.1578 215.108 39.5253 215.108 38.7451V12.8048C215.108 12.0246 214.479 11.3921 213.702 11.3921Z" fill="white"/>
<path d="M132.46 3.51685H130.426C129.997 3.51685 129.648 3.86674 129.648 4.29836V5.98162C129.648 6.41324 129.997 6.76313 130.426 6.76313H132.46C132.889 6.76313 133.237 6.41324 133.237 5.98162V4.29836C133.237 3.86674 132.889 3.51685 132.46 3.51685Z" fill="white"/>
<path d="M138.994 3.51685H136.96C136.531 3.51685 136.183 3.86674 136.183 4.29836V5.98162C136.183 6.41324 136.531 6.76313 136.96 6.76313H138.994C139.423 6.76313 139.771 6.41324 139.771 5.98162V4.29836C139.771 3.86674 139.423 3.51685 138.994 3.51685Z" fill="white"/>
<path d="M145.529 3.51685H143.495C143.066 3.51685 142.718 3.86674 142.718 4.29836V5.98162C142.718 6.41324 143.066 6.76313 143.495 6.76313H145.529C145.958 6.76313 146.307 6.41324 146.307 5.98162V4.29836C146.307 3.86674 145.958 3.51685 145.529 3.51685Z" fill="white"/>
<path d="M211.578 17.6892H165.701C165.509 17.7094 165.315 17.6889 165.132 17.6289C164.949 17.569 164.78 17.4711 164.637 17.3414C164.493 17.2118 164.379 17.0533 164.301 16.8763C164.222 16.6994 164.182 16.5078 164.182 16.3141C164.182 16.1204 164.222 15.9288 164.301 15.7518C164.379 15.5748 164.493 15.4164 164.637 15.2867C164.78 15.1571 164.949 15.0591 165.132 14.9992C165.315 14.9393 165.509 14.9187 165.701 14.9389H211.578C211.77 14.9187 211.964 14.9393 212.147 14.9992C212.33 15.0591 212.499 15.1571 212.642 15.2867C212.786 15.4164 212.9 15.5748 212.978 15.7518C213.057 15.9288 213.097 16.1204 213.097 16.3141C213.097 16.5078 213.057 16.6994 212.978 16.8763C212.9 17.0533 212.786 17.2118 212.642 17.3414C212.499 17.4711 212.33 17.569 212.147 17.6289C211.964 17.6889 211.77 17.7094 211.578 17.6892Z" fill="url(#paint3_linear)"/>
<path d="M177.081 38.9705H131.204C131.012 38.9907 130.818 38.9701 130.635 38.9102C130.451 38.8503 130.283 38.7523 130.14 38.6227C129.996 38.493 129.882 38.3346 129.803 38.1576C129.725 37.9806 129.685 37.789 129.685 37.5953C129.685 37.4016 129.725 37.21 129.803 37.0331C129.882 36.8561 129.996 36.6976 130.14 36.568C130.283 36.4383 130.451 36.3404 130.635 36.2805C130.818 36.2205 131.012 36.2 131.204 36.2202H177.081C177.419 36.2557 177.733 36.416 177.96 36.6699C178.188 36.9239 178.314 37.2535 178.314 37.5953C178.314 37.9371 178.188 38.2668 177.96 38.5207C177.733 38.7747 177.419 38.9349 177.081 38.9705Z" fill="url(#paint4_linear)"/>
<path d="M185.529 36.2201H180.774C180.518 36.2201 180.311 36.4287 180.311 36.686V38.5195C180.311 38.7769 180.518 38.9855 180.774 38.9855H185.529C185.785 38.9855 185.993 38.7769 185.993 38.5195V36.686C185.993 36.4287 185.785 36.2201 185.529 36.2201Z" fill="url(#paint5_linear)"/>
<path d="M192.678 36.2201H187.923C187.667 36.2201 187.459 36.4287 187.459 36.686V38.5195C187.459 38.7769 187.667 38.9855 187.923 38.9855H192.678C192.934 38.9855 193.141 38.7769 193.141 38.5195V36.686C193.141 36.4287 192.934 36.2201 192.678 36.2201Z" fill="url(#paint6_linear)"/>
<path d="M212.012 23.7009H136.078C135.832 23.7009 135.596 23.6027 135.422 23.428C135.248 23.2532 135.15 23.0162 135.15 22.7691C135.15 22.522 135.248 22.2849 135.422 22.1102C135.596 21.9355 135.832 21.8373 136.078 21.8373H212.042C212.288 21.8373 212.524 21.9355 212.698 22.1102C212.871 22.2849 212.969 22.522 212.969 22.7691C212.969 23.0162 212.871 23.2532 212.698 23.428C212.524 23.6027 212.288 23.7009 212.042 23.7009H212.012Z" fill="url(#paint7_linear)"/>
<path d="M212.012 27.7437H136.078C135.832 27.7437 135.596 27.6456 135.422 27.4708C135.248 27.2961 135.15 27.0591 135.15 26.8119C135.15 26.5634 135.248 26.3248 135.421 26.1477C135.594 25.9706 135.83 25.8691 136.078 25.8651H212.042C212.292 25.8651 212.531 25.9649 212.708 26.1424C212.885 26.32 212.984 26.5608 212.984 26.8119C212.982 26.9376 212.955 27.0616 212.905 27.1767C212.855 27.2918 212.783 27.3958 212.692 27.4825C212.602 27.5693 212.495 27.637 212.378 27.6819C212.262 27.7267 212.137 27.7478 212.012 27.7437Z" fill="url(#paint8_linear)"/>
<path d="M395.762 299.305L354.565 299.846L354.251 275.709L385.235 275.303L395.583 285.433L395.762 299.305Z" fill="url(#paint9_linear)"/>
<path d="M385.235 275.303L385.37 285.703L395.583 285.568L385.235 275.303Z" fill="url(#paint10_linear)"/>
<path d="M377.369 284.456L359.021 284.696C358.823 284.696 358.633 284.617 358.492 284.476C358.352 284.335 358.273 284.144 358.273 283.945C358.273 283.746 358.352 283.554 358.492 283.413C358.633 283.273 358.823 283.193 359.021 283.193L377.384 282.953C377.48 282.951 377.575 282.968 377.663 283.003C377.752 283.039 377.833 283.092 377.901 283.159C377.97 283.226 378.024 283.306 378.061 283.395C378.098 283.483 378.117 283.578 378.117 283.674C378.126 283.777 378.112 283.879 378.078 283.976C378.044 284.073 377.99 284.161 377.919 284.235C377.848 284.309 377.763 284.367 377.668 284.405C377.573 284.443 377.471 284.46 377.369 284.456Z" fill="white"/>
<path d="M377.429 288.198L359.066 288.439C358.97 288.441 358.875 288.423 358.787 288.388C358.698 288.353 358.617 288.3 358.549 288.233C358.48 288.165 358.426 288.085 358.389 287.997C358.352 287.908 358.333 287.813 358.333 287.717C358.331 287.621 358.348 287.526 358.383 287.436C358.419 287.347 358.471 287.266 358.538 287.197C358.605 287.129 358.685 287.074 358.773 287.037C358.861 287 358.955 286.981 359.051 286.981L377.399 286.74C377.592 286.74 377.778 286.815 377.917 286.95C378.057 287.084 378.139 287.268 378.147 287.462C378.147 287.654 378.072 287.839 377.937 287.977C377.803 288.115 377.621 288.194 377.429 288.198Z" fill="white"/>
<path d="M377.475 292.136L359.112 292.376C359.016 292.378 358.921 292.361 358.832 292.326C358.744 292.29 358.663 292.238 358.594 292.17C358.526 292.103 358.472 292.023 358.435 291.934C358.398 291.846 358.379 291.751 358.379 291.655C358.379 291.462 358.454 291.277 358.588 291.139C358.722 291.002 358.905 290.922 359.097 290.918L377.46 290.678C377.658 290.678 377.848 290.757 377.988 290.898C378.129 291.039 378.207 291.23 378.207 291.429C378.207 291.629 378.129 291.82 377.988 291.961C377.848 292.102 377.658 292.181 377.46 292.181L377.475 292.136Z" fill="white"/>
<path d="M415.217 332.82L375.336 329.137L377.639 304.039L409.236 307.045L416.713 316.062L415.217 332.82Z" fill="url(#paint11_linear)"/>
<path d="M408.728 308.758L379.075 306.008L377.131 327.184L413.992 330.595L415.128 318.196L407.92 317.535L408.728 308.758Z" fill="white"/>
<path d="M404.809 316.483L385.594 314.709C385.382 314.687 385.188 314.581 385.053 314.415C384.919 314.248 384.855 314.036 384.876 313.823C384.885 313.718 384.915 313.616 384.964 313.523C385.013 313.43 385.079 313.347 385.16 313.28C385.241 313.213 385.334 313.163 385.434 313.132C385.534 313.101 385.639 313.091 385.743 313.101L404.959 314.875C405.155 314.913 405.331 315.024 405.451 315.185C405.571 315.346 405.627 315.546 405.608 315.747C405.589 315.947 405.497 316.134 405.35 316.27C405.202 316.406 405.009 316.482 404.809 316.483Z" fill="url(#paint12_linear)"/>
<path d="M404.42 320.736L385.205 318.963C384.992 318.94 384.796 318.835 384.659 318.669C384.523 318.503 384.455 318.291 384.472 318.076C384.495 317.863 384.6 317.668 384.766 317.533C384.931 317.398 385.143 317.334 385.355 317.355L404.57 319.128C404.767 319.167 404.942 319.277 405.062 319.438C405.182 319.599 405.238 319.8 405.219 320C405.201 320.201 405.109 320.387 404.961 320.523C404.813 320.659 404.621 320.735 404.42 320.736Z" fill="url(#paint13_linear)"/>
<path d="M404.002 325.185L384.802 323.396C384.59 323.377 384.394 323.275 384.257 323.112C384.12 322.949 384.052 322.738 384.069 322.525C384.092 322.311 384.196 322.114 384.361 321.976C384.526 321.839 384.738 321.771 384.951 321.788L404.152 323.577C404.264 323.576 404.376 323.599 404.48 323.644C404.583 323.69 404.676 323.756 404.752 323.84C404.828 323.923 404.886 324.022 404.922 324.13C404.958 324.237 404.971 324.351 404.961 324.464C404.95 324.577 404.916 324.686 404.861 324.785C404.806 324.884 404.731 324.97 404.641 325.038C404.55 325.106 404.447 325.154 404.337 325.179C404.227 325.205 404.113 325.206 404.002 325.185Z" fill="url(#paint14_linear)"/>
<path d="M240.081 50.573L319.589 50.573C321.638 50.573 323.298 48.9043 323.298 46.8458V18.3055C323.298 16.247 321.638 14.5783 319.589 14.5783L240.081 14.5783C238.033 14.5783 236.372 16.247 236.372 18.3055V46.8458C236.372 48.9043 238.033 50.573 240.081 50.573Z" fill="url(#paint15_linear)"/>
<path d="M312.785 45.0874V65.0009L290.011 42.0815C290.011 42.0815 312.322 45.0874 312.785 45.0874Z" fill="url(#paint16_linear)"/>
<path d="M243.999 46.996L315.657 46.996C317.391 46.996 318.797 45.5829 318.797 43.8399V21.2812C318.797 19.5381 317.391 18.1251 315.657 18.1251L243.999 18.1251C242.265 18.1251 240.859 19.5381 240.859 21.2812V43.8399C240.859 45.5829 242.265 46.996 243.999 46.996Z" fill="white"/>
<path d="M276.343 25.279H311.558C311.969 25.279 312.363 25.1151 312.653 24.8234C312.943 24.5317 313.106 24.136 313.106 23.7235C313.106 23.3109 312.943 22.9153 312.653 22.6236C312.363 22.3319 311.969 22.168 311.558 22.168H276.343C275.932 22.168 275.538 22.3319 275.248 22.6236C274.958 22.9153 274.795 23.3109 274.795 23.7235C274.795 24.136 274.958 24.5317 275.248 24.8234C275.538 25.1151 275.932 25.279 276.343 25.279Z" fill="url(#paint17_linear)"/>
<path d="M246.944 31.2004L312.246 31.2004C312.717 31.2004 313.099 30.8169 313.099 30.3438V30.3137C313.099 29.8406 312.717 29.4571 312.246 29.4571L246.944 29.4571C246.473 29.4571 246.091 29.8406 246.091 30.3137V30.3438C246.091 30.8169 246.473 31.2004 246.944 31.2004Z" fill="url(#paint18_linear)"/>
<path d="M246.944 34.597L312.246 34.597C312.717 34.597 313.099 34.2135 313.099 33.7404V33.7103C313.099 33.2372 312.717 32.8537 312.246 32.8537L246.944 32.8537C246.473 32.8537 246.091 33.2372 246.091 33.7103V33.7404C246.091 34.2135 246.473 34.597 246.944 34.597Z" fill="url(#paint19_linear)"/>
<path d="M91.2169 98.4406C92.9404 97.8524 94.6031 97.0974 96.1815 96.1863L96.7497 95.8707C103.107 92.1208 107.855 86.1336 110.073 79.0681C111.551 74.3415 111.813 69.3159 110.836 64.4598L108.847 64.8656C109.615 68.6699 109.564 72.5951 108.698 76.3779C107.716 80.7216 105.709 84.7642 102.846 88.1646C99.983 91.565 96.3484 94.2235 92.2487 95.9158C90.6171 96.5825 88.9242 97.0859 87.1943 97.4187L87.5831 99.4025C88.814 99.1623 90.0279 98.841 91.2169 98.4406Z" fill="#A0C5E9"/>
<path d="M121.124 62.4309L108.877 64.8957C108.153 61.3294 106.737 57.9415 104.71 54.9257C102.682 51.9099 100.083 49.3252 97.0612 47.3195C94.0392 45.3137 90.6536 43.9263 87.0978 43.2364C83.542 42.5465 79.8858 42.5677 76.3381 43.2988L73.8857 31.0651C79.037 30.0027 84.346 29.9716 89.5093 30.9734C94.6725 31.9753 99.5885 33.9905 103.976 36.9037C108.364 39.817 112.136 43.5711 115.079 47.9514C118.021 52.3316 120.076 57.2519 121.124 62.4309Z" fill="#282466"/>
<path d="M54.6258 75.8218L46.9845 77.3248C45.1939 68.0995 47.1119 58.537 52.3188 50.7295C57.5257 42.922 65.5976 37.5051 74.7683 35.6641L76.2637 43.2838C71.6646 44.1998 67.3699 46.2675 63.7774 49.2955C60.0272 52.4873 57.1993 56.6333 55.5893 61.2998C53.9794 65.9663 53.6466 70.9818 54.6258 75.8218Z" fill="url(#paint20_linear)"/>
<path d="M87.9722 101.582C79.7112 103.271 71.121 101.593 64.0908 96.9169C57.0606 92.2412 52.166 84.9506 50.4834 76.6484L54.6256 75.8068C55.3463 79.3726 56.7591 82.7608 58.7831 85.7778C60.8072 88.7947 63.4029 91.3813 66.4219 93.3897C69.4408 95.3981 72.824 96.7889 76.378 97.4828C79.932 98.1767 83.5872 98.16 87.1348 97.4337L87.9722 101.582Z" fill="#3070B7"/>
<path d="M76.8766 237.821H0V158.797H5.00946V232.756H76.8766V237.821Z" fill="#A0C5E9"/>
<path d="M23.8068 211.625H11.6943V226.834H23.8068V211.625Z" fill="#A0C5E9"/>
<path d="M39.6871 199.782H28.4121V226.834H39.6871V199.782Z" fill="#3070B7"/>
<path d="M56.4049 204.651H45.1299V226.834H56.4049V204.651Z" fill="url(#paint21_linear)"/>
<path d="M73.5265 185.414H61.4141V226.834H73.5265V185.414Z" fill="#282466"/>
<path d="M75.4562 160.676L73.7814 170.896L71.9272 170.565L72.5702 166.583L47.807 190.825L34.1693 182.333L10.4229 202.878L8.79297 200.954L33.945 179.222L47.4481 187.638L70.4767 165.11L67.2616 166.643L66.4541 164.914L75.4562 160.676Z" fill="#A0C5E9"/>
<path d="M368.487 263.205L101.789 268.164L95.5234 263.205V106.692H368.487L374.752 111.636L368.487 263.205Z" fill="url(#paint22_linear)"/>
<path d="M368.487 95.4498L101.789 100.394L95.5234 95.4498V75.6565H368.487L374.752 80.6011L368.487 95.4498Z" fill="url(#paint23_linear)"/>
<path d="M374.767 111.636H101.789V268.149H374.767V111.636Z" fill="url(#paint24_linear)"/>
<path d="M186.008 127.522H111.973V165.816H186.008V127.522Z" fill="#ACC1E4"/>
<path d="M358.723 222.837H281.158V225.948H358.723V222.837Z" fill="#ACC1E4"/>
<path d="M358.723 235.19H281.158V238.301H358.723V235.19Z" fill="#ACC1E4"/>
<path d="M358.723 247.68H281.158V250.791H358.723V247.68Z" fill="#ACC1E4"/>
<path d="M271.827 226.939H271.647C270.982 226.928 270.349 226.653 269.884 226.174C269.419 225.696 269.161 225.053 269.165 224.385C269.165 224.053 269.23 223.725 269.356 223.418C269.483 223.112 269.668 222.834 269.901 222.599C270.134 222.365 270.411 222.179 270.716 222.052C271.021 221.925 271.347 221.86 271.677 221.86H271.857C272.524 221.86 273.165 222.125 273.638 222.598C274.112 223.071 274.38 223.714 274.384 224.385C274.386 224.722 274.321 225.056 274.193 225.368C274.065 225.68 273.877 225.963 273.638 226.201C273.4 226.439 273.118 226.627 272.807 226.753C272.496 226.88 272.162 226.943 271.827 226.939Z" fill="#ACC1E4"/>
<path d="M271.827 239.278H271.648C270.98 239.274 270.341 239.005 269.871 238.529C269.4 238.053 269.136 237.409 269.136 236.738C269.136 236.407 269.201 236.078 269.327 235.772C269.453 235.466 269.638 235.187 269.872 234.953C270.105 234.719 270.382 234.533 270.687 234.406C270.991 234.279 271.318 234.214 271.648 234.214H271.827C272.495 234.213 273.136 234.479 273.609 234.952C274.083 235.425 274.351 236.067 274.355 236.738C274.355 237.412 274.088 238.058 273.614 238.534C273.14 239.011 272.498 239.278 271.827 239.278Z" fill="#ACC1E4"/>
<path d="M271.827 251.813H271.648C270.98 251.809 270.341 251.539 269.871 251.063C269.4 250.587 269.136 249.944 269.136 249.273C269.136 248.603 269.4 247.961 269.872 247.487C270.343 247.014 270.982 246.748 271.648 246.748H271.827C272.495 246.748 273.136 247.013 273.609 247.486C274.083 247.959 274.351 248.602 274.355 249.273C274.355 249.946 274.088 250.592 273.614 251.069C273.14 251.545 272.498 251.813 271.827 251.813Z" fill="#ACC1E4"/>
<path d="M201.351 177.223H123.786V180.334H201.351V177.223Z" fill="#ACC1E4"/>
<path d="M201.351 189.577H123.786V192.688H201.351V189.577Z" fill="#ACC1E4"/>
<path d="M114.455 181.311H114.276C113.62 181.311 112.99 181.054 112.52 180.593C112.051 180.132 111.779 179.505 111.764 178.846C111.764 178.175 112.028 177.532 112.499 177.056C112.969 176.58 113.608 176.31 114.276 176.306H114.455C115.126 176.306 115.768 176.574 116.242 177.05C116.716 177.527 116.982 178.173 116.982 178.846C116.963 179.507 116.688 180.134 116.216 180.594C115.745 181.054 115.113 181.311 114.455 181.311Z" fill="#ACC1E4"/>
<path d="M114.455 188.6H114.291C112.895 188.6 111.764 189.734 111.764 191.133C111.764 192.531 112.895 193.665 114.291 193.665H114.455C115.851 193.665 116.982 192.531 116.982 191.133C116.982 189.734 115.851 188.6 114.455 188.6Z" fill="#ACC1E4"/>
<path d="M374.767 80.6161H101.789V100.409H374.767V80.6161Z" fill="url(#paint25_linear)"/>
<path d="M138.785 93.3608C140.354 93.3608 141.626 92.0824 141.626 90.5053C141.626 88.9282 140.354 87.6498 138.785 87.6498C137.215 87.6498 135.943 88.9282 135.943 90.5053C135.943 92.0824 137.215 93.3608 138.785 93.3608Z" fill="url(#paint26_linear)"/>
<path d="M127.136 93.3608C128.705 93.3608 129.977 92.0824 129.977 90.5053C129.977 88.9282 128.705 87.6498 127.136 87.6498C125.567 87.6498 124.295 88.9282 124.295 90.5053C124.295 92.0824 125.567 93.3608 127.136 93.3608Z" fill="url(#paint27_linear)"/>
<path d="M115.501 93.3608C117.07 93.3608 118.343 92.0824 118.343 90.5053C118.343 88.9282 117.07 87.6498 115.501 87.6498C113.932 87.6498 112.66 88.9282 112.66 90.5053C112.66 92.0824 113.932 93.3608 115.501 93.3608Z" fill="url(#paint28_linear)"/>
<path d="M385.863 131.414H265.023C262.421 131.414 260.312 133.534 260.312 136.149V204.471C260.312 207.086 262.421 209.205 265.023 209.205H385.863C388.465 209.205 390.573 207.086 390.573 204.471V136.149C390.573 133.534 388.465 131.414 385.863 131.414Z" fill="url(#paint29_linear)"/>
<path d="M313.921 142.641H310.317V198.309H313.921V142.641Z" fill="white"/>
<path d="M305.951 142.641H302.348V198.309H305.951V142.641Z" fill="white"/>
<path d="M297.966 142.641H294.362V198.309H297.966V142.641Z" fill="white"/>
<path d="M289.995 142.641H286.392V198.309H289.995V142.641Z" fill="white"/>
<path d="M282.026 142.641H278.422V198.309H282.026V142.641Z" fill="white"/>
<path d="M274.055 142.641H270.451V198.309H274.055V142.641Z" fill="white"/>
<path d="M313.921 180.875H310.317V198.309H313.921V180.875Z" fill="url(#paint30_linear)"/>
<path d="M305.951 162.134H302.348V198.309H305.951V162.134Z" fill="url(#paint31_linear)"/>
<path d="M297.966 152.756H294.362V198.309H297.966V152.756Z" fill="url(#paint32_linear)"/>
<path d="M289.995 166.613H286.392V198.309H289.995V166.613Z" fill="url(#paint33_linear)"/>
<path d="M282.026 175.645H278.422V198.309H282.026V175.645Z" fill="url(#paint34_linear)"/>
<path d="M274.055 182.769H270.451V198.309H274.055V182.769Z" fill="url(#paint35_linear)"/>
<path d="M341.915 151.222C342.798 147.466 340.483 143.702 336.745 142.815C333.008 141.928 329.263 144.255 328.38 148.011C327.498 151.768 329.813 155.532 333.551 156.418C337.288 157.305 341.033 154.978 341.915 151.222Z" fill="white"/>
<path d="M379.807 142.807H348.958V144.805H379.807V142.807Z" fill="white"/>
<path d="M379.807 148.728H348.958V150.727H379.807V148.728Z" fill="white"/>
<path d="M366.035 154.604H348.958V156.603H366.035V154.604Z" fill="white"/>
<path d="M335.17 182.048C339.01 182.048 342.124 178.919 342.124 175.059C342.124 171.199 339.01 168.07 335.17 168.07C331.33 168.07 328.217 171.199 328.217 175.059C328.217 178.919 331.33 182.048 335.17 182.048Z" fill="white"/>
<path d="M379.807 168.251H348.958V170.25H379.807V168.251Z" fill="white"/>
<path d="M379.807 174.172H348.958V176.171H379.807V174.172Z" fill="white"/>
<path d="M366.035 180.049H348.958V182.048H366.035V180.049Z" fill="white"/>
<path d="M145.417 118.172L84.96 123.242L87.8834 158.453L148.34 153.383L145.417 118.172Z" fill="url(#paint36_linear)"/>
<path d="M142.071 122.147L88.916 126.605L91.2301 154.477L144.385 150.019L142.071 122.147Z" fill="white"/>
<path d="M96.8545 154.409L107.202 132.361L121.035 152.38L96.8545 154.409Z" fill="url(#paint37_linear)"/>
<path d="M119.928 152.515L127.928 135.457L138.62 150.952L119.928 152.515Z" fill="url(#paint38_linear)"/>
<path d="M121.409 130.753C121.469 131.467 121.316 132.183 120.971 132.81C120.626 133.437 120.103 133.947 119.47 134.276C118.836 134.604 118.12 134.736 117.411 134.655C116.703 134.575 116.034 134.284 115.49 133.822C114.946 133.359 114.55 132.744 114.354 132.055C114.157 131.366 114.168 130.634 114.386 129.952C114.603 129.27 115.017 128.667 115.575 128.221C116.133 127.775 116.81 127.506 117.521 127.447C117.993 127.406 118.468 127.459 118.919 127.603C119.37 127.747 119.788 127.979 120.15 128.287C120.511 128.594 120.808 128.97 121.024 129.394C121.241 129.817 121.371 130.279 121.409 130.753Z" fill="url(#paint39_linear)"/>
<path opacity="0.3" d="M111.973 238.046V206.71C111.973 206.71 122.829 209.461 125.73 219.32C128.631 229.179 138.725 233.312 143.958 230.156C149.192 227 148.893 218.523 155.832 215.578C162.77 212.632 167.032 219.906 175.182 227.992C183.331 236.077 194.173 237.655 202.711 230.351C211.25 223.047 219.489 221.093 225.934 227.796C232.379 234.499 235.28 235.085 242.652 233.703C244.876 233.359 247.149 233.576 249.269 234.334C251.388 235.092 253.287 236.368 254.795 238.046H111.973Z" fill="url(#paint40_linear)"/>
<path d="M254.78 247.74H122.904V250.625H254.78V247.74Z" fill="url(#paint41_linear)"/>
<path d="M115.726 246.132C114.933 246.132 114.172 246.448 113.611 247.012C113.05 247.576 112.735 248.34 112.735 249.137C112.735 249.935 113.05 250.699 113.611 251.263C114.172 251.827 114.933 252.143 115.726 252.143C116.519 252.143 117.28 251.827 117.841 251.263C118.402 250.699 118.717 249.935 118.717 249.137C118.717 248.34 118.402 247.576 117.841 247.012C117.28 246.448 116.519 246.132 115.726 246.132Z" fill="url(#paint42_linear)"/>
<path opacity="0.3" d="M111.973 238.046H254.795C254.795 238.046 251.804 220.702 240.709 220.702C229.613 220.702 232.379 235.987 218.129 232.094C203.878 228.202 202.323 204.726 187.01 203.539C171.698 202.352 168.004 224.234 160.094 224.234C152.183 224.234 150.598 215.127 140.519 214.556C130.441 213.984 131.009 228.968 123.652 229.75C116.294 230.531 111.778 235.281 111.973 238.046Z" fill="url(#paint43_linear)"/>
<path d="M235.983 127.522H204.76C202.877 127.522 201.351 129.056 201.351 130.949V162.329C201.351 164.222 202.877 165.756 204.76 165.756H235.983C237.866 165.756 239.393 164.222 239.393 162.329V130.949C239.393 129.056 237.866 127.522 235.983 127.522Z" fill="url(#paint44_linear)"/>
<path d="M239.901 131.414H208.678C206.795 131.414 205.269 132.949 205.269 134.841V166.222C205.269 168.114 206.795 169.648 208.678 169.648H239.901C241.784 169.648 243.311 168.114 243.311 166.222V134.841C243.311 132.949 241.784 131.414 239.901 131.414Z" fill="url(#paint45_linear)"/>
<path d="M216.933 161.292L232.23 150.531L216.933 139.756V161.292Z" fill="url(#paint46_linear)"/>
<path d="M294.019 201.886C304.038 192.312 321.145 192.538 320.771 207.116C320.397 221.694 321.608 223.062 325.735 230.712C340.016 257.253 308.703 255.69 295.634 256.562C282.564 257.434 283.671 232.696 285.974 218.989C288.277 205.283 291.103 204.696 294.019 201.886Z" fill="#313D60"/>
<path d="M298.684 285.553C295.484 312.605 289.712 332.639 289.009 345.489C288.306 358.339 285.749 408.792 285.749 408.792C285.749 408.792 292.897 408.296 293.555 407.214C294.213 406.131 307.013 377.606 306.325 359.992C305.637 342.378 319.081 315.611 319.081 315.611L315.851 289.31L298.684 285.553Z" fill="url(#paint47_linear)"/>
<path d="M324.943 282.758C324.943 282.758 335.754 296.614 335.41 312.35C334.887 336.291 332.285 343.129 336.816 368.243C338.58 378.042 332.913 410.114 332.913 410.114C332.913 410.114 328.068 410.505 325.436 409.197C325.645 406.838 322.311 368.499 315.791 350.884C312.636 342.348 308.21 318.437 305.832 304.73C303.454 291.024 303.021 288.198 303.888 288.198C304.755 288.198 324.943 282.758 324.943 282.758Z" fill="url(#paint48_linear)"/>
<path d="M263.333 244.253C263.333 244.253 263.812 237.084 263.034 234.86C262.257 232.636 255.558 230.712 255.558 230.712C255.558 230.712 255.273 240.962 255.946 242.224C257.337 243.97 258.878 245.589 260.552 247.063L263.333 244.253Z" fill="url(#paint49_linear)"/>
<path d="M300.657 238.963C285.464 255.405 280.5 262.333 279.348 262.333C275.73 255.931 263.752 242.389 263.752 242.389L258.638 245.696C258.638 245.696 270.451 276.701 277.958 277.032C285.464 277.362 300.717 266.331 300.912 265.008C301.106 263.686 300.657 238.963 300.657 238.963Z" fill="url(#paint50_linear)"/>
<path d="M316.105 228.202C316.105 228.202 330.655 235.521 333.84 248.506C337.025 261.491 327.619 277.497 326.453 286.079C325.287 294.661 298.744 296.148 298.744 286.981C298.744 278.204 292.09 259.583 292.463 254.833C293.346 243.697 309.54 230.051 309.54 230.051L316.105 228.202Z" fill="url(#paint51_linear)"/>
<path d="M311.888 211.384L318.124 230.742C311.671 236.154 305.628 242.041 300.045 248.356C300.494 240.09 307.387 231.058 307.387 231.058L302.662 212.782L311.888 211.384Z" fill="url(#paint52_linear)"/>
<path d="M314.789 220.417L311.888 211.399L302.661 212.797L307.386 231.072C307.386 231.072 306.923 231.809 306.25 232.966C310.479 229.925 313.503 225.481 314.789 220.417Z" fill="url(#paint53_linear)"/>
<path d="M308.433 215.758C306.758 221.92 300.239 225.316 295.603 224.024C290.967 222.731 289.966 217.291 291.655 211.129C293.345 204.967 298.459 201.014 303.095 202.292C307.73 203.569 310.123 209.596 308.433 215.758Z" fill="url(#paint54_linear)"/>
<path d="M297.578 278.279C299.611 291.159 292.104 318.722 292.104 318.722C292.104 318.722 296.591 319.744 310.049 318.437C323.507 317.129 329.384 303.663 331.403 303.287C333.421 302.912 334.393 315.822 335.47 316.814C336.547 317.805 336.606 300.507 333.975 293.699C329.354 281.676 330.266 276.505 331.986 269.201C335.036 256.231 297.578 278.279 297.578 278.279Z" fill="url(#paint55_linear)"/>
<path d="M286.078 402.479C287.289 407.409 284.896 411.332 281.711 414.172C279.109 416.502 271.124 417.494 271.513 418.681C271.902 419.868 281.322 420.184 284.492 419.718C287.663 419.252 288.545 417.689 292.493 417.689C295.08 417.689 295.558 415.57 294.407 412.955C293.255 410.34 292.911 408.897 293.898 406.552C294.885 404.208 286.078 402.479 286.078 402.479Z" fill="#2D2C73"/>
<path d="M333.212 402.479C333.017 407.604 332.419 411.422 333.675 413.796C338.505 417.854 342.513 422.468 340.988 422.814C333.675 424.317 330.879 419.928 326.737 418.681C321.668 417.178 327.23 410.73 325.241 402.509C324.135 397.926 332.898 399.023 332.898 399.023L333.212 402.479Z" fill="#2D2C73"/>
<path d="M304.172 291.565C304.172 291.565 297.906 293.323 297.158 293.714C296.411 294.105 295.992 296.194 295.992 296.194C295.992 296.194 292.403 299.32 293.779 300.432C295.155 301.544 297.607 304.339 300.852 303.032C302.841 302.235 304.396 294.886 305.697 294.826C306.998 294.766 304.172 291.565 304.172 291.565Z" fill="url(#paint56_linear)"/>
<path d="M321.921 234.454C328.636 234.634 334.707 246.778 336.875 257.313C339.043 267.849 341.227 282.863 341.227 282.863C341.227 282.863 330.101 291.685 319.125 294.255C309.54 296.509 304.65 297.381 304.65 297.381L302.706 291.88L325.63 278.354C325.63 278.354 317.211 262.393 316.374 250.355C315.536 238.316 316.822 234.244 321.921 234.454Z" fill="url(#paint57_linear)"/>
<path d="M257.424 228.262L240.71 231.634L242.841 242.302L259.554 238.93L257.424 228.262Z" fill="#FFE7AE"/>
<path d="M259.31 243.381C259.535 238.963 257.366 232.951 256.11 232.951C254.854 232.951 256.499 236.904 255.826 239.519C255.452 240.932 259.31 243.381 259.31 243.381Z" fill="url(#paint58_linear)"/>
<path d="M292.882 204.215C293.256 216.239 307.312 215.382 311.155 214.631C314.998 213.879 306.475 240.18 313.802 241.683C319.185 242.795 317.974 234.334 323.955 234.89C326.602 235.145 329.264 239.248 329.264 239.248C328.923 237.579 328.077 236.057 326.842 234.89C324.823 233.071 319.514 221.845 318.124 213.849C316.733 205.854 307.312 200.624 304.516 200.473C301.719 200.323 294.886 203.479 294.886 203.479L292.882 204.215Z" fill="#313D60"/>
<path d="M313.682 244.388C313.488 244.403 313.293 244.403 313.099 244.388C310.751 243.877 309.614 241.382 309.51 236.588C309.618 231.555 310.058 226.534 310.826 221.559C311.125 219.305 311.424 216.96 311.663 214.676C311.669 214.63 311.683 214.586 311.706 214.546C311.728 214.506 311.759 214.471 311.795 214.444C311.831 214.416 311.872 214.395 311.917 214.383C311.961 214.372 312.007 214.369 312.052 214.375C312.099 214.379 312.144 214.392 312.185 214.414C312.227 214.436 312.263 214.466 312.293 214.503C312.322 214.539 312.344 214.581 312.356 214.627C312.369 214.672 312.372 214.719 312.366 214.766C312.127 217.035 311.813 219.38 311.529 221.649C310.138 232.515 308.822 242.78 313.248 243.727H313.652C316.194 243.727 318.482 238.752 319.813 233.898C319.841 233.81 319.901 233.735 319.982 233.69C320.063 233.646 320.157 233.634 320.247 233.657C320.291 233.67 320.333 233.691 320.369 233.719C320.406 233.748 320.436 233.784 320.458 233.824C320.481 233.865 320.495 233.91 320.499 233.956C320.504 234.002 320.499 234.049 320.486 234.093C319.604 237.249 317.241 244.388 313.682 244.388Z" fill="#313D60"/>
<path d="M312.74 247.199C312.347 247.2 311.959 247.118 311.601 246.958C311.242 246.797 310.922 246.562 310.661 246.267C305.876 241.172 310.661 215.653 310.811 214.571C310.818 214.525 310.834 214.481 310.859 214.442C310.883 214.402 310.915 214.369 310.953 214.342C310.99 214.315 311.033 214.297 311.078 214.287C311.123 214.277 311.169 214.276 311.215 214.285C311.305 214.303 311.384 214.355 311.437 214.431C311.49 214.506 311.512 214.599 311.499 214.691C311.499 214.961 306.624 240.947 311.17 245.786C311.406 246.053 311.705 246.254 312.04 246.373C312.375 246.491 312.734 246.522 313.084 246.462C315.566 246.132 317.002 242.75 318.273 239.744C319.544 236.738 320.65 234.108 322.759 234.184C322.805 234.183 322.851 234.193 322.894 234.211C322.937 234.229 322.975 234.256 323.007 234.29C323.04 234.324 323.065 234.364 323.081 234.407C323.097 234.451 323.105 234.498 323.103 234.544C323.101 234.592 323.09 234.638 323.07 234.681C323.05 234.724 323.022 234.763 322.987 234.795C322.952 234.827 322.912 234.852 322.867 234.868C322.823 234.885 322.776 234.892 322.729 234.89C321.234 234.89 320.127 237.385 319.005 240.03C317.66 243.201 316.149 246.778 313.263 247.169L312.74 247.199Z" fill="#313D60"/>
<path d="M311.679 216.945C311.339 217.176 310.941 217.309 310.531 217.327C310.12 217.346 309.713 217.25 309.353 217.051C308.993 216.851 308.696 216.555 308.493 216.196C308.29 215.837 308.19 215.429 308.203 215.016C308.217 214.603 308.344 214.203 308.57 213.858C308.796 213.513 309.113 213.238 309.485 213.063C309.857 212.887 310.27 212.819 310.678 212.865C311.086 212.911 311.474 213.069 311.798 213.323C312.244 213.827 312.481 214.484 312.458 215.158C312.436 215.832 312.157 216.472 311.679 216.945Z" fill="url(#paint59_linear)"/>
<path d="M362.356 336.442H121.289C120.257 336.442 119.42 337.283 119.42 338.32V339.252C119.42 340.29 120.257 341.131 121.289 341.131H362.356C363.389 341.131 364.226 340.29 364.226 339.252V338.32C364.226 337.283 363.389 336.442 362.356 336.442Z" fill="#243067"/>
<path d="M62.9102 294.781C50.424 301.95 33.003 331.783 36.7115 336.652C40.42 341.521 60.069 328.717 60.069 328.717L62.9102 294.781Z" fill="url(#paint60_linear)"/>
<path d="M86.2371 260.184C81.4669 260.064 83.2463 256.502 77.7434 257.915C74.8723 258.666 76.9957 259.853 73.2573 259.417C69.5189 258.982 67.6647 258.651 67.1861 261.101C66.7076 263.55 66.4833 264.332 64.6889 264.723C62.8945 265.113 62.072 268.345 64.6889 270.539C67.3058 272.733 66.0347 273.65 65.4515 275.454C64.8683 277.257 66.8422 277.392 67.9189 279.076C68.9955 280.759 66.9319 281.074 68.4722 282.532C69.5017 283.421 70.8239 283.893 72.1807 283.855L78.6855 271.336L86.2371 260.184Z" fill="#313D60"/>
<path d="M183.376 410.505C187.573 410.572 191.75 409.916 195.727 408.566C201.126 406.432 204.789 403.141 203.832 407.063C202.875 410.986 198.419 417.584 194.561 418.245C190.703 418.906 189.357 423.159 187.234 423.159C185.11 423.159 182.015 418.245 176.617 415.795C171.697 413.511 183.376 410.505 183.376 410.505Z" fill="#2D2C73"/>
<path d="M128.602 409.859C130.79 412.658 133.509 414.992 136.602 416.727C141.851 419.628 147.907 421.025 144.079 422.348C139.401 424.092 134.305 424.365 129.469 423.129C125.716 422.032 121.304 421.792 120.153 420.018C119.002 418.245 121.514 413.751 120.467 407.048C119.719 401.683 128.602 409.859 128.602 409.859Z" fill="#2D2C73"/>
<path d="M96.092 344.768C96.092 344.768 136.332 359.917 139.577 364.14C142.822 368.363 185.126 406.943 185.126 409.784C185.126 412.624 177.948 417.809 177.948 417.809C177.948 417.809 141.641 395.431 132.639 384.054C123.637 372.677 101.685 367.191 89.961 366.139C78.2374 365.087 96.092 344.768 96.092 344.768Z" fill="url(#paint61_linear)"/>
<path d="M97.632 344.768C97.632 344.768 125.177 343.731 131.083 344.768C136.99 345.805 149.985 345.79 141.551 369.881C134.896 388.758 132.698 412.654 132.698 412.654L119.479 415.915C119.479 415.915 120.003 372.947 126.313 361.495C117.965 362.872 109.706 364.749 101.58 367.116C79.8821 373.353 67.979 370.227 67.979 370.227L64.749 358.85L97.632 344.768Z" fill="url(#paint62_linear)"/>
<path d="M74.6481 273.334L67.9189 293.308L76.4126 298.929L81.2426 281.66L74.6481 273.334Z" fill="url(#paint63_linear)"/>
<path d="M77.1752 296.209L81.2426 281.66L74.648 273.334L72.1807 280.638C72.8057 286.109 74.5032 291.401 77.1752 296.209Z" fill="url(#paint64_linear)"/>
<path d="M91.8001 276.716C92.0244 282.727 89.0486 288.048 84.3233 288.514C79.5979 288.98 75.3511 284.456 74.7081 278.399C74.0651 272.342 77.4596 267.067 82.1849 266.601C86.9103 266.135 91.4562 267.127 91.8001 276.716Z" fill="url(#paint65_linear)"/>
<path d="M64.6891 292.722C44.0382 306.744 56.8834 329.393 61.4143 345.94C65.2873 360.037 65.1527 368.484 65.7359 368.484C66.3191 368.484 80.5101 366.35 88.615 358.97C93.5224 354.507 98.0677 349.657 102.208 344.467C102.208 344.467 91.815 342.664 88.4206 329.137C86.7009 322.284 87.4785 318.617 83.5606 307.706C79.6428 296.795 64.6891 292.722 64.6891 292.722Z" fill="url(#paint66_linear)"/>
<path d="M64.6895 292.722L66.9026 287.281C66.9026 287.281 73.9158 291.94 76.7122 294.135C78.0482 295.284 79.564 296.203 81.1983 296.855C81.1983 296.855 82.2002 304.655 81.5422 303.934C76.9819 298.797 71.1759 294.934 64.6895 292.722Z" fill="url(#paint67_linear)"/>
<path d="M55.5381 426H57.3475L70.2674 371.79H66.3047L55.5381 426Z" fill="#243067"/>
<path d="M109.551 426H107.741L92.9072 369.881H96.8699L109.551 426Z" fill="#243067"/>
<path d="M75.6202 373.819C68.3976 373.819 63.8218 372.526 60.9059 369.656C57.2871 366.109 56.5394 360.638 56.5245 353.469C56.5245 338.44 55.6721 335.329 51.4701 326.147C51.3471 325.903 51.2741 325.637 51.2556 325.365C51.2372 325.093 51.2736 324.82 51.3627 324.562C51.4517 324.304 51.5917 324.067 51.7741 323.864C51.9565 323.662 52.1776 323.499 52.4242 323.385C52.6708 323.27 52.9379 323.207 53.2093 323.199C53.4808 323.191 53.7511 323.238 54.0041 323.337C54.2571 323.437 54.4875 323.586 54.6816 323.777C54.8757 323.968 55.0295 324.196 55.1338 324.448C59.6199 334.157 60.547 337.719 60.5619 353.469C60.5619 360.713 61.4891 364.561 63.7321 366.755C65.9751 368.949 70.1472 369.911 77.1904 369.761C82.2826 369.618 87.3498 368.989 92.3234 367.882C97.2282 366.875 100.787 366.154 104.989 368.168C105.471 368.409 105.838 368.833 106.009 369.346C106.18 369.859 106.141 370.419 105.901 370.903C105.661 371.387 105.24 371.756 104.729 371.928C104.219 372.1 103.662 372.061 103.18 371.82C100.189 370.317 97.6469 370.903 93.0562 371.82C87.8527 372.986 82.5496 373.645 77.2203 373.789L75.6202 373.819Z" fill="#243067"/>
<path d="M164.849 336.652H135.555C135.019 336.652 134.506 336.438 134.127 336.058C133.749 335.677 133.536 335.161 133.536 334.623C133.536 334.085 133.749 333.569 134.127 333.188C134.506 332.808 135.019 332.594 135.555 332.594H163.563L174.853 308.097C174.965 307.855 175.123 307.638 175.319 307.457C175.514 307.277 175.743 307.137 175.992 307.046C176.242 306.954 176.506 306.913 176.771 306.925C177.036 306.936 177.297 307 177.537 307.112C177.778 307.225 177.994 307.384 178.173 307.58C178.353 307.777 178.492 308.007 178.583 308.257C178.674 308.508 178.715 308.774 178.703 309.04C178.692 309.307 178.629 309.568 178.517 309.81L166.673 335.359C166.531 335.732 166.282 336.055 165.957 336.285C165.632 336.515 165.246 336.643 164.849 336.652Z" fill="url(#paint68_linear)"/>
<path d="M136.482 326.973C136.482 326.973 145.365 322.9 146.322 323.291C147.279 323.682 157.133 329.648 157.133 330.64C157.133 331.632 148.445 326.943 148.445 326.943C148.445 326.943 149.417 329.528 148.834 330.776C148.251 332.023 141.581 332.008 135.555 331.632C129.529 331.256 136.482 326.973 136.482 326.973Z" fill="url(#paint69_linear)"/>
<path d="M65.7958 300.943C57.6162 317.79 85.6841 334.879 102.342 336.397C119.001 337.914 138.769 332.444 138.769 332.444L136.541 326.973C136.541 326.973 103.18 322.6 102.283 321.984C101.385 321.367 68.7865 294.766 65.7958 300.943Z" fill="url(#paint70_linear)"/>
<path d="M76.3829 273.89C77.1306 275.904 76.5773 277.978 75.1417 278.519C73.7062 279.06 71.9117 277.903 71.1491 275.889C70.3865 273.875 70.9397 271.816 72.3902 271.26C73.8407 270.704 75.6202 271.892 76.3829 273.89Z" fill="url(#paint71_linear)"/>
<path d="M91.815 261.056C94.073 260.109 96.63 259.102 95.8375 262.964C95.4936 264.648 95.8375 264.167 96.4357 265.715C97.0338 267.263 94.9403 268.495 94.2375 269.352C93.5347 270.208 95.2394 271.155 93.8636 272.177C92.4879 273.199 90.6785 271.801 89.3776 272.177C85.5644 273.334 86.0279 270.314 83.8896 269.682C81.7512 269.051 80.6895 269.156 80.2857 270.539C79.882 271.922 81.7811 276.445 80.1512 276.025C78.5212 275.604 78.1623 279.256 77.7137 281.315C77.2651 283.374 76.2184 279.812 76.2184 277.528C76.338 273.89 75.4408 272.373 74.1099 271.351C72.779 270.329 72.2108 261.101 78.596 260.755C81.7234 260.713 84.8275 260.207 87.8074 259.252C90.6486 258.621 90.7832 261.506 91.815 261.056Z" fill="#313D60"/>
<defs>
<linearGradient id="paint0_linear" x1="354.984" y1="36.3103" x2="426.417" y2="36.3103" gradientUnits="userSpaceOnUse">
<stop stop-color="#8677B7"/>
<stop offset="0.01" stop-color="#8879B8"/>
<stop offset="0.14" stop-color="#A99CCB"/>
<stop offset="0.27" stop-color="#C3B9DB"/>
<stop offset="0.42" stop-color="#D8D0E7"/>
<stop offset="0.58" stop-color="#E7E0EF"/>
<stop offset="0.75" stop-color="#EFE9F4"/>
<stop offset="1" stop-color="#F2ECF6"/>
</linearGradient>
<linearGradient id="paint1_linear" x1="-51992.8" y1="-112301" x2="-54879.2" y2="-110477" gradientUnits="userSpaceOnUse">
<stop stop-color="#8677B7"/>
<stop offset="0.01" stop-color="#8879B8"/>
<stop offset="0.14" stop-color="#A99CCB"/>
<stop offset="0.27" stop-color="#C3B9DB"/>
<stop offset="0.42" stop-color="#D8D0E7"/>
<stop offset="0.58" stop-color="#E7E0EF"/>
<stop offset="0.75" stop-color="#EFE9F4"/>
<stop offset="1" stop-color="#F2ECF6"/>
</linearGradient>
<linearGradient id="paint2_linear" x1="125.88" y1="21.2813" x2="217.62" y2="21.2813" gradientUnits="userSpaceOnUse">
<stop stop-color="#CCEBFB"/>
<stop offset="0.12" stop-color="#C7E9FA"/>
<stop offset="0.26" stop-color="#B9E4F6"/>
<stop offset="0.42" stop-color="#A1DBF0"/>
<stop offset="0.58" stop-color="#80CFE7"/>
<stop offset="0.74" stop-color="#55BFDC"/>
<stop offset="0.91" stop-color="#22ACCF"/>
<stop offset="0.99" stop-color="#07A2C8"/>
</linearGradient>
<linearGradient id="paint3_linear" x1="5539.52" y1="44.9632" x2="7130.26" y2="44.9632" gradientUnits="userSpaceOnUse">
<stop stop-color="#CCEBFB"/>
<stop offset="0.12" stop-color="#C7E9FA"/>
<stop offset="0.26" stop-color="#B9E4F6"/>
<stop offset="0.42" stop-color="#A1DBF0"/>
<stop offset="0.58" stop-color="#80CFE7"/>
<stop offset="0.74" stop-color="#55BFDC"/>
<stop offset="0.91" stop-color="#22ACCF"/>
<stop offset="0.99" stop-color="#07A2C8"/>
</linearGradient>
<linearGradient id="paint4_linear" x1="4351.67" y1="105.402" x2="5932.6" y2="105.402" gradientUnits="userSpaceOnUse">
<stop stop-color="#CCEBFB"/>
<stop offset="0.12" stop-color="#C7E9FA"/>
<stop offset="0.26" stop-color="#B9E4F6"/>
<stop offset="0.42" stop-color="#A1DBF0"/>
<stop offset="0.58" stop-color="#80CFE7"/>
<stop offset="0.74" stop-color="#55BFDC"/>
<stop offset="0.91" stop-color="#22ACCF"/>
<stop offset="0.99" stop-color="#07A2C8"/>
</linearGradient>
<linearGradient id="paint5_linear" x1="865.491" y1="105.409" x2="887.084" y2="105.409" gradientUnits="userSpaceOnUse">
<stop stop-color="#CCEBFB"/>
<stop offset="0.12" stop-color="#C7E9FA"/>
<stop offset="0.26" stop-color="#B9E4F6"/>
<stop offset="0.42" stop-color="#A1DBF0"/>
<stop offset="0.58" stop-color="#80CFE7"/>
<stop offset="0.74" stop-color="#55BFDC"/>
<stop offset="0.91" stop-color="#22ACCF"/>
<stop offset="0.99" stop-color="#07A2C8"/>
</linearGradient>
<linearGradient id="paint6_linear" x1="899.801" y1="105.409" x2="921.451" y2="105.409" gradientUnits="userSpaceOnUse">
<stop stop-color="#CCEBFB"/>
<stop offset="0.12" stop-color="#C7E9FA"/>
<stop offset="0.26" stop-color="#B9E4F6"/>
<stop offset="0.42" stop-color="#A1DBF0"/>
<stop offset="0.58" stop-color="#80CFE7"/>
<stop offset="0.74" stop-color="#55BFDC"/>
<stop offset="0.91" stop-color="#22ACCF"/>
<stop offset="0.99" stop-color="#07A2C8"/>
</linearGradient>
<linearGradient id="paint7_linear" x1="7166.84" y1="50.071" x2="11217.3" y2="50.071" gradientUnits="userSpaceOnUse">
<stop stop-color="#CCEBFB"/>
<stop offset="0.12" stop-color="#C7E9FA"/>
<stop offset="0.26" stop-color="#B9E4F6"/>
<stop offset="0.42" stop-color="#A1DBF0"/>
<stop offset="0.58" stop-color="#80CFE7"/>
<stop offset="0.74" stop-color="#55BFDC"/>
<stop offset="0.91" stop-color="#22ACCF"/>
<stop offset="0.99" stop-color="#07A2C8"/>
</linearGradient>
<linearGradient id="paint8_linear" x1="7168.2" y1="59.3886" x2="11219.4" y2="59.3886" gradientUnits="userSpaceOnUse">
<stop stop-color="#CCEBFB"/>
<stop offset="0.12" stop-color="#C7E9FA"/>
<stop offset="0.26" stop-color="#B9E4F6"/>
<stop offset="0.42" stop-color="#A1DBF0"/>
<stop offset="0.58" stop-color="#80CFE7"/>
<stop offset="0.74" stop-color="#55BFDC"/>
<stop offset="0.91" stop-color="#22ACCF"/>
<stop offset="0.99" stop-color="#07A2C8"/>
</linearGradient>
<linearGradient id="paint9_linear" x1="354.887" y1="300.288" x2="390.677" y2="277.62" gradientUnits="userSpaceOnUse">
<stop stop-color="#BA5761"/>
<stop offset="1" stop-color="#EE8B91"/>
</linearGradient>
<linearGradient id="paint10_linear" x1="8207.65" y1="3646.28" x2="8267.77" y2="3646.28" gradientUnits="userSpaceOnUse">
<stop stop-color="#BA5761"/>
<stop offset="1" stop-color="#EE8B91"/>
</linearGradient>
<linearGradient id="paint11_linear" x1="376.618" y1="331.014" x2="412.079" y2="308.554" gradientUnits="userSpaceOnUse">
<stop stop-color="#7CBAE6"/>
<stop offset="1" stop-color="#367797"/>
</linearGradient>
<linearGradient id="paint12_linear" x1="15846.1" y1="1481.6" x2="16080.1" y2="1481.6" gradientUnits="userSpaceOnUse">
<stop stop-color="#7CBAE6"/>
<stop offset="1" stop-color="#367797"/>
</linearGradient>
<linearGradient id="paint13_linear" x1="15819.9" y1="1493.49" x2="16053.9" y2="1493.49" gradientUnits="userSpaceOnUse">
<stop stop-color="#7CBAE6"/>
<stop offset="1" stop-color="#367797"/>
</linearGradient>
<linearGradient id="paint14_linear" x1="15889" y1="1515.88" x2="16124.7" y2="1515.88" gradientUnits="userSpaceOnUse">
<stop stop-color="#7CBAE6"/>
<stop offset="1" stop-color="#367797"/>
</linearGradient>
<linearGradient id="paint15_linear" x1="236.357" y1="32.5681" x2="323.283" y2="32.5681" gradientUnits="userSpaceOnUse">
<stop offset="0.01" stop-color="#2C318C"/>
<stop offset="0.21" stop-color="#342777"/>
<stop offset="0.51" stop-color="#3D1C5F"/>
<stop offset="0.77" stop-color="#431550"/>
<stop offset="1" stop-color="#45134B"/>
</linearGradient>
<linearGradient id="paint16_linear" x1="4706.89" y1="858.929" x2="5053.74" y2="858.929" gradientUnits="userSpaceOnUse">
<stop offset="0.01" stop-color="#2C318C"/>
<stop offset="0.21" stop-color="#342777"/>
<stop offset="0.51" stop-color="#3D1C5F"/>
<stop offset="0.77" stop-color="#431550"/>
<stop offset="1" stop-color="#45134B"/>
</linearGradient>
<linearGradient id="paint17_linear" x1="7315.25" y1="71.291" x2="8296.4" y2="71.291" gradientUnits="userSpaceOnUse">
<stop offset="0.01" stop-color="#2C318C"/>
<stop offset="0.21" stop-color="#342777"/>
<stop offset="0.51" stop-color="#3D1C5F"/>
<stop offset="0.77" stop-color="#431550"/>
<stop offset="1" stop-color="#45134B"/>
</linearGradient>
<linearGradient id="paint18_linear" x1="11273.5" y1="64.6708" x2="14276.1" y2="64.6708" gradientUnits="userSpaceOnUse">
<stop offset="0.01" stop-color="#2C318C"/>
<stop offset="0.21" stop-color="#342777"/>
<stop offset="0.51" stop-color="#3D1C5F"/>
<stop offset="0.77" stop-color="#431550"/>
<stop offset="1" stop-color="#45134B"/>
</linearGradient>
<linearGradient id="paint19_linear" x1="11273.5" y1="71.9425" x2="14276.1" y2="71.9425" gradientUnits="userSpaceOnUse">
<stop offset="0.01" stop-color="#2C318C"/>
<stop offset="0.21" stop-color="#342777"/>
<stop offset="0.51" stop-color="#3D1C5F"/>
<stop offset="0.77" stop-color="#431550"/>
<stop offset="1" stop-color="#45134B"/>
</linearGradient>
<linearGradient id="paint20_linear" x1="-36303.8" y1="-18081.3" x2="-36163.7" y2="-17386.9" gradientUnits="userSpaceOnUse">
<stop stop-color="#7CBAE6"/>
<stop offset="1" stop-color="#367797"/>
</linearGradient>
<linearGradient id="paint21_linear" x1="385.411" y1="3389.01" x2="470.424" y2="3389.01" gradientUnits="userSpaceOnUse">
<stop stop-color="#7CBAE6"/>
<stop offset="1" stop-color="#367797"/>
</linearGradient>
<linearGradient id="paint22_linear" x1="235.145" y1="268.164" x2="235.145" y2="106.692" gradientUnits="userSpaceOnUse">
<stop stop-color="#3C3B97"/>
<stop offset="0.06" stop-color="#5554A4"/>
<stop offset="0.16" stop-color="#7F7CBA"/>
<stop offset="0.27" stop-color="#A29FCC"/>
<stop offset="0.39" stop-color="#BFBBDC"/>
<stop offset="0.51" stop-color="#D6D1E7"/>
<stop offset="0.64" stop-color="#E6E0F0"/>
<stop offset="0.79" stop-color="#EFE9F4"/>
<stop offset="1" stop-color="#F2ECF6"/>
</linearGradient>
<linearGradient id="paint23_linear" x1="44004.3" y1="1728.15" x2="44004.3" y2="1320.96" gradientUnits="userSpaceOnUse">
<stop stop-color="#3C3B97"/>
<stop offset="0.06" stop-color="#5554A4"/>
<stop offset="0.16" stop-color="#7F7CBA"/>
<stop offset="0.27" stop-color="#A29FCC"/>
<stop offset="0.39" stop-color="#BFBBDC"/>
<stop offset="0.51" stop-color="#D6D1E7"/>
<stop offset="0.64" stop-color="#E6E0F0"/>
<stop offset="0.79" stop-color="#EFE9F4"/>
<stop offset="1" stop-color="#F2ECF6"/>
</linearGradient>
<linearGradient id="paint24_linear" x1="238.271" y1="111.636" x2="238.271" y2="268.164" gradientUnits="userSpaceOnUse">
<stop offset="0.53" stop-color="#F5F9FD"/>
<stop offset="1" stop-color="#B2AFD7"/>
</linearGradient>
<linearGradient id="paint25_linear" x1="43598.2" y1="1142.33" x2="43598.2" y2="1402.81" gradientUnits="userSpaceOnUse">
<stop offset="0.53" stop-color="#F5F9FD"/>
<stop offset="1" stop-color="#B2AFD7"/>
</linearGradient>
<linearGradient id="paint26_linear" x1="652.527" y1="431.57" x2="674.063" y2="431.57" gradientUnits="userSpaceOnUse">
<stop stop-color="#BA5761"/>
<stop offset="1" stop-color="#EE8B91"/>
</linearGradient>
<linearGradient id="paint27_linear" x1="596.668" y1="431.57" x2="618.204" y2="431.57" gradientUnits="userSpaceOnUse">
<stop stop-color="#BA5761"/>
<stop offset="1" stop-color="#EE8B91"/>
</linearGradient>
<linearGradient id="paint28_linear" x1="540.826" y1="431.57" x2="562.363" y2="431.57" gradientUnits="userSpaceOnUse">
<stop stop-color="#BA5761"/>
<stop offset="1" stop-color="#EE8B91"/>
</linearGradient>
<linearGradient id="paint29_linear" x1="22936.1" y1="8946.65" x2="34284.5" y2="8946.65" gradientUnits="userSpaceOnUse">
<stop stop-color="#7CBAE6"/>
<stop offset="1" stop-color="#367797"/>
</linearGradient>
<linearGradient id="paint30_linear" x1="1058.18" y1="2380.14" x2="1066.86" y2="2380.14" gradientUnits="userSpaceOnUse">
<stop offset="0.01" stop-color="#2C318C"/>
<stop offset="0.21" stop-color="#342777"/>
<stop offset="0.51" stop-color="#3D1C5F"/>
<stop offset="0.77" stop-color="#431550"/>
<stop offset="1" stop-color="#45134B"/>
</linearGradient>
<linearGradient id="paint31_linear" x1="1031" y1="4499.88" x2="1039.68" y2="4499.88" gradientUnits="userSpaceOnUse">
<stop offset="0.01" stop-color="#2C318C"/>
<stop offset="0.21" stop-color="#342777"/>
<stop offset="0.51" stop-color="#3D1C5F"/>
<stop offset="0.77" stop-color="#431550"/>
<stop offset="1" stop-color="#45134B"/>
</linearGradient>
<linearGradient id="paint32_linear" x1="1003.77" y1="5473.37" x2="1012.49" y2="5473.37" gradientUnits="userSpaceOnUse">
<stop offset="0.01" stop-color="#2C318C"/>
<stop offset="0.21" stop-color="#342777"/>
<stop offset="0.51" stop-color="#3D1C5F"/>
<stop offset="0.77" stop-color="#431550"/>
<stop offset="1" stop-color="#45134B"/>
</linearGradient>
<linearGradient id="paint33_linear" x1="976.572" y1="4014.87" x2="985.257" y2="4014.87" gradientUnits="userSpaceOnUse">
<stop offset="0.01" stop-color="#2C318C"/>
<stop offset="0.21" stop-color="#342777"/>
<stop offset="0.51" stop-color="#3D1C5F"/>
<stop offset="0.77" stop-color="#431550"/>
<stop offset="1" stop-color="#45134B"/>
</linearGradient>
<linearGradient id="paint34_linear" x1="949.417" y1="2995.26" x2="958.102" y2="2995.26" gradientUnits="userSpaceOnUse">
<stop offset="0.01" stop-color="#2C318C"/>
<stop offset="0.21" stop-color="#342777"/>
<stop offset="0.51" stop-color="#3D1C5F"/>
<stop offset="0.77" stop-color="#431550"/>
<stop offset="1" stop-color="#45134B"/>
</linearGradient>
<linearGradient id="paint35_linear" x1="922.249" y1="2152.94" x2="930.935" y2="2152.94" gradientUnits="userSpaceOnUse">
<stop offset="0.01" stop-color="#2C318C"/>
<stop offset="0.21" stop-color="#342777"/>
<stop offset="0.51" stop-color="#3D1C5F"/>
<stop offset="0.77" stop-color="#431550"/>
<stop offset="1" stop-color="#45134B"/>
</linearGradient>
<linearGradient id="paint36_linear" x1="3532.8" y1="3372.39" x2="6103.86" y2="3372.39" gradientUnits="userSpaceOnUse">
<stop offset="0.01" stop-color="#2C318C"/>
<stop offset="0.21" stop-color="#342777"/>
<stop offset="0.51" stop-color="#3D1C5F"/>
<stop offset="0.77" stop-color="#431550"/>
<stop offset="1" stop-color="#45134B"/>
</linearGradient>
<linearGradient id="paint37_linear" x1="1662.99" y1="2235.71" x2="2053.98" y2="2235.71" gradientUnits="userSpaceOnUse">
<stop offset="0.01" stop-color="#2C318C"/>
<stop offset="0.21" stop-color="#342777"/>
<stop offset="0.51" stop-color="#3D1C5F"/>
<stop offset="0.77" stop-color="#431550"/>
<stop offset="1" stop-color="#45134B"/>
</linearGradient>
<linearGradient id="paint38_linear" x1="1619.03" y1="1769.79" x2="1852.68" y2="1769.79" gradientUnits="userSpaceOnUse">
<stop offset="0.01" stop-color="#2C318C"/>
<stop offset="0.21" stop-color="#342777"/>
<stop offset="0.51" stop-color="#3D1C5F"/>
<stop offset="0.77" stop-color="#431550"/>
<stop offset="1" stop-color="#45134B"/>
</linearGradient>
<linearGradient id="paint39_linear" x1="664.663" y1="759.29" x2="699.476" y2="759.29" gradientUnits="userSpaceOnUse">
<stop offset="0.01" stop-color="#2C318C"/>
<stop offset="0.21" stop-color="#342777"/>
<stop offset="0.51" stop-color="#3D1C5F"/>
<stop offset="0.77" stop-color="#431550"/>
<stop offset="1" stop-color="#45134B"/>
</linearGradient>
<linearGradient id="paint40_linear" x1="10806.5" y1="4843.14" x2="24447.4" y2="4843.14" gradientUnits="userSpaceOnUse">
<stop offset="0.01" stop-color="#2C318C"/>
<stop offset="0.21" stop-color="#342777"/>
<stop offset="0.51" stop-color="#3D1C5F"/>
<stop offset="0.77" stop-color="#431550"/>
<stop offset="1" stop-color="#45134B"/>
</linearGradient>
<linearGradient id="paint41_linear" x1="10961.8" y1="726.173" x2="22593.3" y2="726.173" gradientUnits="userSpaceOnUse">
<stop offset="0.01" stop-color="#2C318C"/>
<stop offset="0.21" stop-color="#342777"/>
<stop offset="0.51" stop-color="#3D1C5F"/>
<stop offset="0.77" stop-color="#431550"/>
<stop offset="1" stop-color="#45134B"/>
</linearGradient>
<linearGradient id="paint42_linear" x1="563.439" y1="1242.86" x2="587.784" y2="1242.86" gradientUnits="userSpaceOnUse">
<stop offset="0.01" stop-color="#2C318C"/>
<stop offset="0.21" stop-color="#342777"/>
<stop offset="0.51" stop-color="#3D1C5F"/>
<stop offset="0.77" stop-color="#431550"/>
<stop offset="1" stop-color="#45134B"/>
</linearGradient>
<linearGradient id="paint43_linear" x1="10805.5" y1="5279.4" x2="24448.5" y2="5279.4" gradientUnits="userSpaceOnUse">
<stop offset="0.01" stop-color="#2C318C"/>
<stop offset="0.21" stop-color="#342777"/>
<stop offset="0.51" stop-color="#3D1C5F"/>
<stop offset="0.77" stop-color="#431550"/>
<stop offset="1" stop-color="#45134B"/>
</linearGradient>
<linearGradient id="paint44_linear" x1="5323.71" y1="3858.4" x2="6291.5" y2="3858.4" gradientUnits="userSpaceOnUse">
<stop offset="0.01" stop-color="#2C318C"/>
<stop offset="0.21" stop-color="#342777"/>
<stop offset="0.51" stop-color="#3D1C5F"/>
<stop offset="0.77" stop-color="#431550"/>
<stop offset="1" stop-color="#45134B"/>
</linearGradient>
<linearGradient id="paint45_linear" x1="5911.2" y1="4447.27" x2="5911.2" y2="3474.6" gradientUnits="userSpaceOnUse">
<stop offset="0.53" stop-color="#F5F9FD"/>
<stop offset="1" stop-color="#B2AFD7"/>
</linearGradient>
<linearGradient id="paint46_linear" x1="2436.15" y1="2296.87" x2="2592.64" y2="2296.87" gradientUnits="userSpaceOnUse">
<stop offset="0.01" stop-color="#2C318C"/>
<stop offset="0.21" stop-color="#342777"/>
<stop offset="0.51" stop-color="#3D1C5F"/>
<stop offset="0.77" stop-color="#431550"/>
<stop offset="1" stop-color="#45134B"/>
</linearGradient>
<linearGradient id="paint47_linear" x1="6655.09" y1="28751.2" x2="7398.05" y2="28751.2" gradientUnits="userSpaceOnUse">
<stop stop-color="#7CBAE6"/>
<stop offset="1" stop-color="#367797"/>
</linearGradient>
<linearGradient id="paint48_linear" x1="7139.99" y1="29654.9" x2="7897.47" y2="29654.9" gradientUnits="userSpaceOnUse">
<stop stop-color="#7CBAE6"/>
<stop offset="1" stop-color="#367797"/>
</linearGradient>
<linearGradient id="paint49_linear" x1="255.573" y1="238.888" x2="263.483" y2="238.888" gradientUnits="userSpaceOnUse">
<stop offset="0.78" stop-color="#F9BABA"/>
<stop offset="1" stop-color="#F5928F"/>
</linearGradient>
<linearGradient id="paint50_linear" x1="7578.77" y1="6777" x2="8776.5" y2="6777" gradientUnits="userSpaceOnUse">
<stop stop-color="#CCEBFB"/>
<stop offset="0.12" stop-color="#C7E9FA"/>
<stop offset="0.26" stop-color="#B9E4F6"/>
<stop offset="0.42" stop-color="#A1DBF0"/>
<stop offset="0.58" stop-color="#80CFE7"/>
<stop offset="0.74" stop-color="#55BFDC"/>
<stop offset="0.91" stop-color="#22ACCF"/>
<stop offset="0.99" stop-color="#07A2C8"/>
</linearGradient>
<linearGradient id="paint51_linear" x1="8515.54" y1="11505.5" x2="9697.47" y2="11505.5" gradientUnits="userSpaceOnUse">
<stop stop-color="#CCEBFB"/>
<stop offset="0.12" stop-color="#C7E9FA"/>
<stop offset="0.26" stop-color="#B9E4F6"/>
<stop offset="0.42" stop-color="#A1DBF0"/>
<stop offset="0.58" stop-color="#80CFE7"/>
<stop offset="0.74" stop-color="#55BFDC"/>
<stop offset="0.91" stop-color="#22ACCF"/>
<stop offset="0.99" stop-color="#07A2C8"/>
</linearGradient>
<linearGradient id="paint52_linear" x1="3927.59" y1="5866.19" x2="4146.17" y2="5866.19" gradientUnits="userSpaceOnUse">
<stop offset="0.78" stop-color="#F9BABA"/>
<stop offset="1" stop-color="#F5928F"/>
</linearGradient>
<linearGradient id="paint53_linear" x1="2757.24" y1="3399.61" x2="2855.6" y2="3399.61" gradientUnits="userSpaceOnUse">
<stop offset="0.78" stop-color="#F9BABA"/>
<stop offset="1" stop-color="#F5928F"/>
</linearGradient>
<linearGradient id="paint54_linear" x1="3809.67" y1="3357.2" x2="4028.55" y2="3357.2" gradientUnits="userSpaceOnUse">
<stop offset="0.78" stop-color="#F9BABA"/>
<stop offset="1" stop-color="#F5928F"/>
</linearGradient>
<linearGradient id="paint55_linear" x1="8899.22" y1="10758.2" x2="10195.1" y2="10758.2" gradientUnits="userSpaceOnUse">
<stop stop-color="#CCEBFB"/>
<stop offset="0.12" stop-color="#C7E9FA"/>
<stop offset="0.26" stop-color="#B9E4F6"/>
<stop offset="0.42" stop-color="#A1DBF0"/>
<stop offset="0.58" stop-color="#80CFE7"/>
<stop offset="0.74" stop-color="#55BFDC"/>
<stop offset="0.91" stop-color="#22ACCF"/>
<stop offset="0.99" stop-color="#07A2C8"/>
</linearGradient>
<linearGradient id="paint56_linear" x1="2761.2" y1="2628.89" x2="2866.95" y2="2628.89" gradientUnits="userSpaceOnUse">
<stop offset="0.78" stop-color="#F9BABA"/>
<stop offset="1" stop-color="#F5928F"/>
</linearGradient>
<linearGradient id="paint57_linear" x1="8099.26" y1="11366.3" x2="9091.55" y2="11366.3" gradientUnits="userSpaceOnUse">
<stop stop-color="#CCEBFB"/>
<stop offset="0.12" stop-color="#C7E9FA"/>
<stop offset="0.26" stop-color="#B9E4F6"/>
<stop offset="0.42" stop-color="#A1DBF0"/>
<stop offset="0.58" stop-color="#80CFE7"/>
<stop offset="0.74" stop-color="#55BFDC"/>
<stop offset="0.91" stop-color="#22ACCF"/>
<stop offset="0.99" stop-color="#07A2C8"/>
</linearGradient>
<linearGradient id="paint58_linear" x1="888.877" y1="1885.82" x2="898.064" y2="1885.82" gradientUnits="userSpaceOnUse">
<stop offset="0.78" stop-color="#F9BABA"/>
<stop offset="1" stop-color="#F5928F"/>
</linearGradient>
<linearGradient id="paint59_linear" x1="1183.88" y1="855.495" x2="1197.84" y2="855.495" gradientUnits="userSpaceOnUse">
<stop offset="0.78" stop-color="#F9BABA"/>
<stop offset="1" stop-color="#F5928F"/>
</linearGradient>
<linearGradient id="paint60_linear" x1="683.027" y1="9338.63" x2="1159.73" y2="9338.63" gradientUnits="userSpaceOnUse">
<stop stop-color="#7CBAE6"/>
<stop offset="1" stop-color="#367797"/>
</linearGradient>
<linearGradient id="paint61_linear" x1="5788.27" y1="18875.4" x2="12361.1" y2="18875.4" gradientUnits="userSpaceOnUse">
<stop offset="0.01" stop-color="#2C318C"/>
<stop offset="0.21" stop-color="#342777"/>
<stop offset="0.51" stop-color="#3D1C5F"/>
<stop offset="0.77" stop-color="#431550"/>
<stop offset="1" stop-color="#45134B"/>
</linearGradient>
<linearGradient id="paint62_linear" x1="3506.85" y1="18455.6" x2="7743.04" y2="18455.6" gradientUnits="userSpaceOnUse">
<stop offset="0.01" stop-color="#2C318C"/>
<stop offset="0.21" stop-color="#342777"/>
<stop offset="0.51" stop-color="#3D1C5F"/>
<stop offset="0.77" stop-color="#431550"/>
<stop offset="1" stop-color="#45134B"/>
</linearGradient>
<linearGradient id="paint63_linear" x1="673.08" y1="5146.03" x2="791.794" y2="5146.03" gradientUnits="userSpaceOnUse">
<stop offset="0.78" stop-color="#F9BABA"/>
<stop offset="1" stop-color="#F5928F"/>
</linearGradient>
<linearGradient id="paint64_linear" x1="509.6" y1="4607.56" x2="564.515" y2="4607.56" gradientUnits="userSpaceOnUse">
<stop offset="0.78" stop-color="#F9BABA"/>
<stop offset="1" stop-color="#F5928F"/>
</linearGradient>
<linearGradient id="paint65_linear" x1="932.359" y1="4336.03" x2="1129.61" y2="4336.03" gradientUnits="userSpaceOnUse">
<stop offset="0.78" stop-color="#F9BABA"/>
<stop offset="1" stop-color="#F5928F"/>
</linearGradient>
<linearGradient id="paint66_linear" x1="1796.48" y1="16960.3" x2="3396.36" y2="16960.3" gradientUnits="userSpaceOnUse">
<stop stop-color="#7CBAE6"/>
<stop offset="1" stop-color="#367797"/>
</linearGradient>
<linearGradient id="paint67_linear" x1="803.423" y1="3572.21" x2="998.95" y2="3572.21" gradientUnits="userSpaceOnUse">
<stop stop-color="#7CBAE6"/>
<stop offset="1" stop-color="#367797"/>
</linearGradient>
<linearGradient id="paint68_linear" x1="4167.14" y1="6672.25" x2="5531.25" y2="6672.25" gradientUnits="userSpaceOnUse">
<stop stop-color="#8677B7"/>
<stop offset="0.01" stop-color="#8879B8"/>
<stop offset="0.14" stop-color="#A99CCB"/>
<stop offset="0.27" stop-color="#C3B9DB"/>
<stop offset="0.42" stop-color="#D8D0E7"/>
<stop offset="0.58" stop-color="#E7E0EF"/>
<stop offset="0.75" stop-color="#EFE9F4"/>
<stop offset="1" stop-color="#F2ECF6"/>
</linearGradient>
<linearGradient id="paint69_linear" x1="2272.5" y1="2195.68" x2="2658.75" y2="2195.68" gradientUnits="userSpaceOnUse">
<stop offset="0.78" stop-color="#F9BABA"/>
<stop offset="1" stop-color="#F5928F"/>
</linearGradient>
<linearGradient id="paint70_linear" x1="3263.57" y1="8063.13" x2="6968.97" y2="8063.13" gradientUnits="userSpaceOnUse">
<stop stop-color="#7CBAE6"/>
<stop offset="1" stop-color="#367797"/>
</linearGradient>
<linearGradient id="paint71_linear" x1="350.607" y1="1648.25" x2="373.949" y2="1648.25" gradientUnits="userSpaceOnUse">
<stop offset="0.78" stop-color="#F9BABA"/>
<stop offset="1" stop-color="#F5928F"/>
</linearGradient>
</defs>
</svg>
