<svg width="24" height="24" viewBox="0 0 24 24" fill="none" xmlns="http://www.w3.org/2000/svg">
<path d="M23.2969 14.1562H22.5938V1.40625H23.2969C23.6852 1.40625 24 1.09144 24 0.703125C24 0.314812 23.6852 0 23.2969 0H3.51562C3.12731 0 2.8125 0.314812 2.8125 0.703125C2.8125 1.09144 3.12731 1.40625 3.51562 1.40625H4.21875V2.90625C2.66794 2.90625 1.40625 4.16794 1.40625 5.71875C1.40625 7.26956 2.66794 8.53125 4.21875 8.53125C5.76956 8.53125 7.03125 7.26956 7.03125 5.71875C7.03125 4.68005 6.46481 3.7717 5.625 3.28463V1.40625H21.1875V14.1562H8.4375V12.75C8.4375 10.4238 6.54497 8.53125 4.21875 8.53125C1.89253 8.53125 0 10.4238 0 12.75V16.2656C0 16.6539 0.314812 16.9688 0.703125 16.9688H1.47305L2.11284 23.3669C2.1488 23.7263 2.45123 24 2.8125 24H5.625C5.98627 24 6.2887 23.7263 6.32466 23.3669L6.96445 16.9688H7.73438C8.12269 16.9688 8.4375 16.6539 8.4375 16.2656V15.5625H23.2969C23.6852 15.5625 24 15.2477 24 14.8594C24 14.4711 23.6852 14.1562 23.2969 14.1562ZM4.21875 7.125C3.44334 7.125 2.8125 6.49416 2.8125 5.71875C2.8125 4.94334 3.44334 4.3125 4.21875 4.3125C4.99416 4.3125 5.625 4.94334 5.625 5.71875C5.625 6.49416 4.99416 7.125 4.21875 7.125ZM7.03125 15.5625H6.32812C5.96686 15.5625 5.66442 15.8362 5.62847 16.1956L4.98867 22.5938H3.44883L2.80903 16.1956C2.77308 15.8362 2.47064 15.5625 2.10938 15.5625H1.40625V12.75C1.40625 11.1992 2.66794 9.9375 4.21875 9.9375C5.76956 9.9375 7.03125 11.1992 7.03125 12.75V15.5625Z" fill="black"/>
<path d="M10.5938 12.75H19.0312C19.4196 12.75 19.7344 12.4352 19.7344 12.0469V3.60938C19.7344 3.22106 19.4196 2.90625 19.0312 2.90625H16.2188C15.8304 2.90625 15.5156 3.22106 15.5156 3.60938V5.71875H13.4062C13.0179 5.71875 12.7031 6.03356 12.7031 6.42188V8.53125H10.5938C10.2054 8.53125 9.89062 8.84606 9.89062 9.23438V12.0469C9.89062 12.4352 10.2054 12.75 10.5938 12.75ZM16.9219 4.3125H18.3281V11.3438H16.9219V4.3125ZM14.1094 7.125H15.5156V11.3438H14.1094V7.125ZM11.2969 9.9375H12.7031V11.3438H11.2969V9.9375Z" fill="black"/>
</svg>
