<svg width="28" height="28" viewBox="0 0 28 28" fill="none" xmlns="http://www.w3.org/2000/svg">
<path d="M23.9056 4.09837C18.4463 -1.36092 9.56051 -1.36092 4.10122 4.09837C1.45673 6.74391 0 10.2605 0 14.0005C0 17.7405 1.45673 21.2571 4.10122 23.9016C6.83141 26.6318 10.4174 27.9963 14.0034 27.9963C17.5893 27.9963 21.1754 26.6318 23.9055 23.9016C29.3648 18.4423 29.3648 9.5587 23.9056 4.09837ZM22.3718 22.3678C17.7575 26.9821 10.2492 26.9821 5.63495 22.3678C3.4005 20.1334 2.16936 17.1613 2.16936 14.0005C2.16936 10.8397 3.4005 7.86764 5.63495 5.6321C10.2492 1.01779 17.7575 1.01889 22.3718 5.6321C26.985 10.2464 26.985 17.7546 22.3718 22.3678Z" fill="#B1B5B9"/>
<path d="M18.6776 16.9984L15.6068 13.932L18.6776 10.8656C19.1006 10.4426 19.1006 9.75597 18.6787 9.33181C18.2546 8.90661 17.568 8.9077 17.1439 9.33072L14.071 12.3993L10.9981 9.33072C10.574 8.9077 9.88735 8.90661 9.46324 9.33181C9.04023 9.75592 9.04023 10.4425 9.46433 10.8656L12.5351 13.932L9.46433 16.9984C9.04023 17.4214 9.04023 18.108 9.46324 18.5322C9.67477 18.7448 9.95352 18.85 10.2312 18.85C10.5089 18.85 10.7866 18.7437 10.9981 18.5332L14.071 15.4646L17.144 18.5332C17.3555 18.7448 17.6331 18.85 17.9108 18.85C18.1886 18.85 18.4673 18.7437 18.6788 18.5322C19.1017 18.108 19.1017 17.4214 18.6776 16.9984Z" fill="#B1B5B9"/>
</svg>
