<svg width="26" height="26" viewBox="0 0 26 26" fill="none" xmlns="http://www.w3.org/2000/svg">
<g clip-path="url(#clip0)">
<path d="M3.61112 14.1432V13.9028H0.541685C0.144459 13.9029 0 14.3035 0 14.7441V22.1951C0 22.6357 0.144459 23.1164 0.541685 23.1164H2.70836C3.03985 23.0844 3.34425 23.3208 3.43058 23.6772L3.90004 26.0006L6.17502 23.3167C6.31201 23.1765 6.49456 23.1042 6.68056 23.1164H11.4834C11.9129 23.0601 12.2462 22.6737 12.2778 22.1951V18.3093H7.29447C5.26472 18.2247 3.64803 16.3961 3.61112 14.1432Z" fill="white"/>
<path d="M24.0111 1.08325H7.29164C6.09996 1.08325 5.05273 1.88444 5.05273 3.2064V14.1426C5.0705 15.5194 6.05164 16.643 7.29164 16.7064H14.5861C14.7722 16.6942 14.9547 16.7665 15.0916 16.9067L19.3528 21.9942L20.3278 17.2672C20.3987 16.9168 20.6912 16.6777 21.0139 16.7064H24.0111C25.2028 16.7064 25.9972 15.4645 25.9972 14.1426V3.2064C25.9972 1.88444 25.2027 1.08325 24.0111 1.08325ZM8.26663 5.48973H16.9333C17.3322 5.48973 17.6555 5.84842 17.6555 6.29091C17.6555 6.73341 17.3322 7.0921 16.9333 7.0921H8.26663C7.86774 7.0921 7.54441 6.73341 7.54441 6.29091C7.54441 5.84842 7.86774 5.48973 8.26663 5.48973ZM22.7111 11.8992H8.26656C7.86768 11.8992 7.54434 11.5405 7.54434 11.098C7.54434 10.6555 7.86768 10.2968 8.26656 10.2968H22.7111C23.1099 10.2968 23.4333 10.6555 23.4333 11.098C23.4333 11.5405 23.1099 11.8992 22.7111 11.8992Z" fill="white"/>
</g>
<defs>
<clipPath id="clip0">
<rect width="26" height="26" fill="white"/>
</clipPath>
</defs>
</svg>
