<svg width="81" height="16" viewBox="0 0 81 16" fill="none" xmlns="http://www.w3.org/2000/svg">
<path d="M54.5312 4.90264C55.5873 4.90264 56.6072 5.45182 57.1665 6.22055C57.1794 6.24155 57.1955 6.26 57.2103 6.28228C57.2303 6.31219 57.2567 6.34146 57.2773 6.37328L57.2786 6.37073C57.6542 6.82955 58.2264 7.12355 58.8701 7.12355C59.9989 7.12355 60.9171 6.21864 60.9171 5.1031C60.9171 4.57746 60.7141 4.1021 60.3816 3.74319C58.9744 2.0301 57.2986 1.04819 54.5312 1.04819C50.1338 1.04819 46.8284 4.05246 46.8284 8.26646C46.8284 12.5435 50.1338 15.549 54.5312 15.549C57.3424 15.549 58.9963 14.569 60.3842 13.0347L60.3816 13.0315C60.6928 12.6822 60.8836 12.2259 60.8836 11.7238C60.8836 10.6305 59.9867 9.74537 58.8804 9.74537C58.2747 9.74537 57.7335 10.0114 57.3649 10.4314C56.7064 11.0811 55.9455 11.7276 54.5312 11.7276C52.5152 11.7276 51.3895 10.2914 51.3895 8.26646C51.3895 6.3071 52.5152 4.90264 54.5312 4.90264ZM36.7203 11.8263C34.7365 11.8263 33.5123 10.3887 33.5123 8.332C33.5123 6.24219 34.7365 4.83646 36.7203 4.83646C38.7042 4.83646 39.8942 6.24219 39.8942 8.332C39.8942 10.3887 38.7042 11.8263 36.7203 11.8263ZM36.7203 1.04819C32.3551 1.04819 28.9492 4.08619 28.9492 8.332C28.9492 12.5435 32.3551 15.549 36.7203 15.549C41.0843 15.549 44.4573 12.5435 44.4573 8.332C44.4573 4.08619 41.0843 1.04819 36.7203 1.04819ZM70.1798 6.56737C68.261 6.14291 67.3686 6.04491 67.3686 5.26155C67.3686 4.70728 67.8641 4.44573 68.8886 4.44573C69.9485 4.44573 70.9394 4.9351 71.6005 5.49064L71.6037 5.48682C71.9143 5.77637 72.3318 5.95519 72.7918 5.95519C73.7557 5.95519 74.5379 5.18328 74.5379 4.22937C74.5379 3.72091 74.3092 3.26719 73.9542 2.95155C72.7983 1.79019 71.154 1.04819 68.857 1.04819C65.8467 1.04819 63.4009 2.32346 63.4009 5.45755C63.4009 8.36382 65.5497 9.40809 67.4672 9.90064C69.7481 10.4867 70.6411 10.4867 70.6411 11.2389C70.6411 11.8263 70.1798 12.0878 68.7243 12.0878C67.5851 12.0878 66.5226 11.6755 65.6367 10.9774L65.6799 11.0162C65.6766 11.0143 65.6754 11.0143 65.6747 11.0117C64.9634 10.3728 63.8635 10.4015 63.1941 11.09C62.6496 11.6513 62.5626 12.476 62.9144 13.1283C62.926 13.1512 62.9402 13.1741 62.9525 13.1964C62.9853 13.2511 63.0169 13.3026 63.0562 13.3542C63.0833 13.3905 63.1148 13.4242 63.1451 13.4586C63.1786 13.4961 63.207 13.5381 63.245 13.5744C63.2733 13.6017 63.3062 13.6189 63.3358 13.645C64.562 14.7332 66.3326 15.549 69.0219 15.549C73.4516 15.549 74.8073 13.4592 74.8073 10.9118C74.8073 7.97373 72.2281 7.02555 70.1798 6.56737ZM7.70476 4.90264C5.6874 4.90264 4.56177 6.3071 4.56177 8.26646C4.56177 10.2914 5.6874 11.7276 7.70476 11.7276C9.11968 11.7276 9.88062 11.0811 10.5391 10.4314C10.907 10.0114 11.4476 9.74537 12.0539 9.74537C13.1602 9.74537 14.0564 10.6305 14.0564 11.7238C14.0564 12.2259 13.8664 12.6822 13.5552 13.0315L13.5577 13.0347C12.1679 14.569 10.5146 15.549 7.70476 15.549C3.30729 15.549 0 12.5435 0 8.26646C0 4.05246 3.30729 1.04819 7.70476 1.04819C10.4721 1.04819 12.1493 2.03137 13.5577 3.74573C13.8857 4.10464 14.0893 4.57937 14.0893 5.1031C14.0893 6.21864 13.1737 7.12355 12.0442 7.12355C11.3993 7.12355 10.8252 6.82955 10.4508 6.37073L10.4489 6.37328C10.4302 6.34082 10.4019 6.31091 10.3813 6.27973C10.3671 6.26 10.3529 6.24155 10.3407 6.22055C9.77882 5.45182 8.76015 4.90264 7.70476 4.90264ZM26.7384 1.94457C27.3524 2.25257 27.8215 2.82848 27.9548 3.54948C28.1829 4.77766 27.3595 5.9543 26.1166 6.1802C25.4794 6.29411 24.6656 5.98802 24.3492 5.99375C23.1508 6.01857 21.011 6.94002 21.011 10.5966V13.2763C20.9904 14.5064 19.9769 15.4972 18.7256 15.4972C17.4879 15.4972 16.4828 14.5261 16.4415 13.3138V3.45911C16.4731 2.23666 17.4827 1.2573 18.7256 1.2573C19.9324 1.2573 20.9124 2.17557 21.002 3.34266V3.35539H21.0033C21.0065 3.38275 21.0097 3.41139 21.011 3.44002V3.34648C21.272 3.02575 22.7004 1.7492 24.5425 1.59648C25.5612 1.5112 26.0522 1.58566 26.7384 1.94457ZM76.1436 1.19881H76.208V0.851995C76.208 0.760359 76.2106 0.685905 76.2151 0.633086C76.2203 0.580905 76.2351 0.535086 76.2563 0.496268C76.2789 0.458086 76.3124 0.424995 76.3549 0.400814C76.3968 0.375995 76.4445 0.363905 76.496 0.363905C76.5701 0.363905 76.6371 0.390632 76.6958 0.446632C76.7357 0.482905 76.7602 0.528086 76.7718 0.580905C76.7821 0.633086 76.7873 0.708814 76.7873 0.806177V1.19881H77.0005C77.083 1.19881 77.1461 1.21854 77.1893 1.25736C77.2318 1.29554 77.255 1.34518 77.255 1.40627C77.255 1.48263 77.2235 1.53672 77.1616 1.5679C77.0998 1.59909 77.0121 1.61436 76.8961 1.61436H76.7873V2.66818C76.7873 2.75727 76.7918 2.826 76.7969 2.87563C76.8034 2.92336 76.8208 2.96218 76.8472 2.99209C76.8762 3.022 76.9213 3.03727 76.9831 3.03727C77.0173 3.03727 77.0637 3.0309 77.1217 3.01881C77.1803 3.00863 77.2267 3.00163 77.2583 3.00163C77.3066 3.00163 77.3465 3.02072 77.3858 3.057C77.4232 3.09454 77.4425 3.14036 77.4425 3.19636C77.4425 3.28927 77.391 3.3599 77.2879 3.40954C77.1854 3.45854 77.0398 3.48272 76.8472 3.48272C76.6661 3.48272 76.5289 3.45281 76.4342 3.393C76.3427 3.3319 76.2808 3.24854 76.2512 3.1429C76.2215 3.036 76.208 2.89409 76.208 2.71527V1.61436H76.1307C76.0476 1.61436 75.9838 1.59527 75.94 1.55581C75.8949 1.51636 75.873 1.46545 75.873 1.40627C75.873 1.34518 75.8968 1.29554 75.9426 1.25736C75.9889 1.21854 76.0553 1.19881 76.1436 1.19881ZM79.6332 2.35661V3.12089C79.6332 3.24243 79.6042 3.33152 79.5495 3.39325C79.4947 3.45307 79.4219 3.48298 79.3291 3.48298C79.2421 3.48298 79.1699 3.45307 79.1145 3.39325C79.0591 3.33152 79.0327 3.24243 79.0327 3.12089V2.20452C79.0327 2.06007 79.0282 1.94807 79.0179 1.86725C79.0082 1.7877 78.9812 1.72216 78.9373 1.67125C78.8935 1.62034 78.824 1.59425 78.7286 1.59425C78.5398 1.59425 78.4135 1.65852 78.3549 1.7877C78.293 1.91752 78.264 2.10398 78.264 2.34389V3.12089C78.264 3.24052 78.237 3.33025 78.1822 3.39134C78.1268 3.45243 78.0553 3.48298 77.9644 3.48298C77.8762 3.48298 77.8034 3.45243 77.7479 3.39134C77.6912 3.33025 77.6635 3.23989 77.6635 3.12089V1.47461C77.6635 1.36707 77.6893 1.28434 77.7396 1.22898C77.7911 1.17298 77.8575 1.14498 77.9393 1.14498C78.0186 1.14498 78.0856 1.17043 78.1397 1.22389C78.1925 1.27607 78.2189 1.34925 78.2189 1.44216V1.49689C78.3188 1.37789 78.4277 1.28943 78.5424 1.23216C78.6571 1.1768 78.7859 1.14816 78.927 1.14816C79.0727 1.14816 79.1983 1.17743 79.3033 1.23598C79.4064 1.29198 79.4947 1.38043 79.563 1.49689C79.6596 1.37916 79.7659 1.2907 79.8774 1.2347C79.9908 1.17743 80.1152 1.14816 80.2518 1.14816C80.4109 1.14816 80.5475 1.17998 80.6635 1.24234C80.7782 1.30343 80.8639 1.39252 80.9212 1.5077C80.9721 1.61143 80.9966 1.77498 80.9966 1.99898V3.12089C80.9966 3.24243 80.9682 3.33152 80.9128 3.39325C80.8561 3.45307 80.784 3.48298 80.6931 3.48298C80.6042 3.48298 80.5327 3.45243 80.4766 3.39134C80.4199 3.33025 80.3922 3.24052 80.3922 3.12089V2.15552C80.3922 2.03016 80.3858 1.93216 80.3742 1.8577C80.3645 1.78389 80.3368 1.72089 80.2891 1.66998C80.2415 1.6197 80.1712 1.59425 80.0759 1.59425C79.9992 1.59425 79.9264 1.61652 79.8574 1.66234C79.7885 1.70625 79.7357 1.7667 79.6976 1.84243C79.6545 1.9398 79.6332 2.11034 79.6332 2.35661Z" fill="#74B829"/>
</svg>
