<svg width="110" height="22" viewBox="0 0 110 22" fill="none" xmlns="http://www.w3.org/2000/svg">
<path d="M73.9385 6.74125C75.3704 6.74125 76.7533 7.49638 77.5116 8.55338C77.5291 8.58225 77.5509 8.60763 77.571 8.63825C77.5981 8.67938 77.6339 8.71963 77.6619 8.76338L77.6636 8.75988C78.173 9.39075 78.9487 9.795 79.8215 9.795C81.3521 9.795 82.597 8.55075 82.597 7.01688C82.597 6.29413 82.3218 5.6405 81.871 5.147C79.963 2.7915 77.6907 1.44138 73.9385 1.44138C67.976 1.44138 63.4943 5.57225 63.4943 11.3665C63.4943 17.2474 67.976 21.38 73.9385 21.38C77.7501 21.38 79.9927 20.0325 81.8745 17.9229L81.871 17.9185C82.293 17.4381 82.5516 16.8108 82.5516 16.1204C82.5516 14.6171 81.3355 13.4 79.8355 13.4C79.0143 13.4 78.2804 13.7658 77.7807 14.3433C76.8879 15.2366 75.8561 16.1256 73.9385 16.1256C71.2049 16.1256 69.6787 14.1508 69.6787 11.3665C69.6787 8.67238 71.2049 6.74125 73.9385 6.74125ZM49.7888 16.2613C47.0989 16.2613 45.4391 14.2846 45.4391 11.4566C45.4391 8.58313 47.0989 6.65025 49.7888 6.65025C52.4787 6.65025 54.0923 8.58313 54.0923 11.4566C54.0923 14.2846 52.4787 16.2613 49.7888 16.2613ZM49.7888 1.44138C43.87 1.44138 39.252 5.61863 39.252 11.4566C39.252 17.2474 43.87 21.38 49.7888 21.38C55.7059 21.38 60.2793 17.2474 60.2793 11.4566C60.2793 5.61863 55.7059 1.44138 49.7888 1.44138ZM95.1563 9.03025C92.5546 8.44663 91.3446 8.31188 91.3446 7.23475C91.3446 6.47263 92.0164 6.113 93.4055 6.113C94.8426 6.113 96.1863 6.78588 97.0826 7.54975L97.087 7.5445C97.5081 7.94263 98.0742 8.1885 98.6979 8.1885C100.005 8.1885 101.065 7.12713 101.065 5.8155C101.065 5.11638 100.755 4.4925 100.274 4.0585C98.7067 2.46163 96.4772 1.44138 93.3627 1.44138C89.2811 1.44138 85.9648 3.19488 85.9648 7.50425C85.9648 11.5004 88.8784 12.9363 91.4783 13.6135C94.5709 14.4194 95.7818 14.4194 95.7818 15.4536C95.7818 16.2613 95.1563 16.6209 93.1827 16.6209C91.6382 16.6209 90.1976 16.0539 88.9963 15.094L89.0549 15.1474C89.0505 15.1448 89.0487 15.1448 89.0479 15.1413C88.0834 14.2628 86.5921 14.3021 85.6844 15.2489C84.9462 16.0206 84.8282 17.1546 85.3053 18.0515C85.321 18.083 85.3402 18.1145 85.3568 18.1451C85.4014 18.2204 85.4442 18.2913 85.4975 18.3621C85.5341 18.412 85.5769 18.4584 85.618 18.5056C85.6634 18.5573 85.7019 18.615 85.7534 18.6649C85.7919 18.7025 85.8364 18.7261 85.8766 18.762C87.5391 20.2583 89.9398 21.38 93.5864 21.38C99.5925 21.38 101.431 18.5065 101.431 15.0039C101.431 10.964 97.9335 9.66025 95.1563 9.03025ZM10.4468 6.74125C7.7115 6.74125 6.18527 8.67238 6.18527 11.3665C6.18527 14.1508 7.7115 16.1256 10.4468 16.1256C12.3653 16.1256 13.3971 15.2366 14.2899 14.3433C14.7887 13.7658 15.5217 13.4 16.3438 13.4C17.8438 13.4 19.059 14.6171 19.059 16.1204C19.059 16.8108 18.8013 17.4381 18.3794 17.9185L18.3828 17.9229C16.4984 20.0325 14.2567 21.38 10.4468 21.38C4.48432 21.38 0 17.2474 0 11.3665C0 5.57225 4.48432 1.44138 10.4468 1.44138C14.199 1.44138 16.4731 2.79325 18.3828 5.1505C18.8275 5.644 19.1036 6.29675 19.1036 7.01688C19.1036 8.55075 17.8622 9.795 16.3307 9.795C15.4562 9.795 14.6778 9.39075 14.1702 8.75988L14.1676 8.76338C14.1423 8.71875 14.1038 8.67763 14.0759 8.63475C14.0566 8.60763 14.0374 8.58225 14.0208 8.55338C13.259 7.49638 11.8778 6.74125 10.4468 6.74125ZM36.2544 2.6739C37.0869 3.0974 37.7229 3.88928 37.9038 4.88065C38.213 6.5694 37.0965 8.18728 35.4113 8.4979C34.5473 8.65453 33.4439 8.23365 33.0149 8.24153C31.39 8.27565 28.4887 9.54265 28.4887 14.5704V18.255C28.4607 19.9464 27.0865 21.3088 25.3899 21.3088C23.7117 21.3088 22.3488 19.9735 22.2929 18.3067V4.7564C22.3357 3.07553 23.7047 1.7289 25.3899 1.7289C27.0262 1.7289 28.355 2.99153 28.4765 4.59628V4.61378H28.4782C28.4826 4.6514 28.4869 4.69078 28.4887 4.73015V4.60153C28.8425 4.16053 30.7793 2.40528 33.277 2.19528C34.6582 2.07803 35.3239 2.1804 36.2544 2.6739ZM103.243 1.64849H103.33V1.17161C103.33 1.04561 103.333 0.943238 103.34 0.870613C103.347 0.798863 103.367 0.735863 103.395 0.682488C103.426 0.629988 103.471 0.584488 103.529 0.551238C103.586 0.517113 103.651 0.500488 103.72 0.500488C103.821 0.500488 103.912 0.537238 103.991 0.614238C104.045 0.664113 104.079 0.726238 104.094 0.798863C104.108 0.870613 104.115 0.974738 104.115 1.10861V1.64849H104.404C104.516 1.64849 104.602 1.67561 104.66 1.72899C104.718 1.78149 104.75 1.84974 104.75 1.93374C104.75 2.03874 104.707 2.11311 104.623 2.15599C104.539 2.19886 104.42 2.21986 104.263 2.21986H104.115V3.66886C104.115 3.79136 104.121 3.88586 104.128 3.95411C104.137 4.01974 104.161 4.07311 104.197 4.11424C104.236 4.15536 104.297 4.17636 104.381 4.17636C104.427 4.17636 104.49 4.16761 104.569 4.15099C104.648 4.13699 104.711 4.12736 104.754 4.12736C104.819 4.12736 104.874 4.15361 104.927 4.20349C104.978 4.25511 105.004 4.31811 105.004 4.39511C105.004 4.52286 104.934 4.61999 104.794 4.68824C104.655 4.75561 104.458 4.78886 104.197 4.78886C103.951 4.78886 103.765 4.74774 103.637 4.66549C103.512 4.58149 103.429 4.46686 103.388 4.32161C103.348 4.17461 103.33 3.97949 103.33 3.73361V2.21986H103.225C103.112 2.21986 103.026 2.19361 102.966 2.13936C102.905 2.08511 102.876 2.01511 102.876 1.93374C102.876 1.84974 102.908 1.78149 102.97 1.72899C103.033 1.67561 103.123 1.64849 103.243 1.64849ZM107.974 3.24046V4.29134C107.974 4.45846 107.935 4.58096 107.861 4.66584C107.786 4.74809 107.688 4.78921 107.562 4.78921C107.444 4.78921 107.346 4.74809 107.271 4.66584C107.196 4.58096 107.16 4.45846 107.16 4.29134V3.03134C107.16 2.83271 107.154 2.67871 107.14 2.56759C107.127 2.45821 107.09 2.36809 107.031 2.29809C106.971 2.22809 106.877 2.19221 106.748 2.19221C106.492 2.19221 106.32 2.28059 106.241 2.45821C106.157 2.63671 106.118 2.89309 106.118 3.22296V4.29134C106.118 4.45584 106.081 4.57921 106.007 4.66321C105.932 4.74721 105.835 4.78921 105.711 4.78921C105.592 4.78921 105.493 4.74721 105.418 4.66321C105.341 4.57921 105.303 4.45496 105.303 4.29134V2.02771C105.303 1.87984 105.338 1.76609 105.407 1.68996C105.476 1.61296 105.566 1.57446 105.677 1.57446C105.785 1.57446 105.876 1.60946 105.949 1.68296C106.021 1.75471 106.056 1.85534 106.056 1.98309V2.05834C106.192 1.89471 106.34 1.77309 106.495 1.69434C106.651 1.61821 106.825 1.57884 107.017 1.57884C107.214 1.57884 107.384 1.61909 107.527 1.69959C107.667 1.77659 107.786 1.89821 107.879 2.05834C108.01 1.89646 108.154 1.77484 108.305 1.69784C108.459 1.61909 108.628 1.57884 108.813 1.57884C109.029 1.57884 109.214 1.62259 109.371 1.70834C109.527 1.79234 109.643 1.91484 109.72 2.07321C109.79 2.21584 109.823 2.44071 109.823 2.74871V4.29134C109.823 4.45846 109.784 4.58096 109.709 4.66584C109.632 4.74809 109.534 4.78921 109.411 4.78921C109.291 4.78921 109.194 4.74721 109.118 4.66321C109.041 4.57921 109.003 4.45584 109.003 4.29134V2.96396C109.003 2.79159 108.995 2.65684 108.979 2.55446C108.966 2.45296 108.928 2.36634 108.863 2.29634C108.799 2.22721 108.704 2.19221 108.574 2.19221C108.47 2.19221 108.372 2.22284 108.278 2.28584C108.185 2.34621 108.113 2.42934 108.061 2.53346C108.003 2.66734 107.974 2.90184 107.974 3.24046Z" fill="white"/>
</svg>
