<svg width="12" height="81" viewBox="0 0 12 81" fill="none" xmlns="http://www.w3.org/2000/svg">
<path d="M6 65L6 31.2829L6 1" stroke="#38369A" stroke-width="2" stroke-linecap="round" stroke-dasharray="8 10"/>
<g clip-path="url(#clip0)">
<path d="M6.66478 78.2447L6.6648 78.2446L11.8245 73.0849C12.1918 72.7176 12.1918 72.1221 11.8245 71.7549L6.66478 78.2447ZM6.66478 78.2447C6.48132 78.428 6.24053 78.5199 6.00002 78.5199C5.75963 78.5199 5.51883 78.4282 5.33527 78.2448L5.33524 78.2448L0.175597 73.085C0.175591 73.085 0.175585 73.085 0.175579 73.085C-0.191846 72.7177 -0.191872 72.1223 0.175576 71.7551C0.542706 71.388 1.13802 71.388 1.50528 71.7551L1.5053 71.7551L6.00002 76.2499M6.66478 78.2447L6.00002 76.2499M6.00002 76.2499L10.4947 71.755L10.4947 71.7549C10.862 71.3878 11.4574 71.3878 11.8245 71.7549L6.00002 76.2499Z" fill="#38369A" stroke="#38369A" stroke-width="0.2"/>
</g>
<defs>
<clipPath id="clip0">
<rect width="12" height="12" fill="white" transform="matrix(-1 0 0 1 12 69)"/>
</clipPath>
</defs>
</svg>
