<svg width="38" height="40" viewBox="0 0 38 40" fill="none" xmlns="http://www.w3.org/2000/svg">
<path d="M25.5625 2.5H22.125V1.875C22.125 0.841133 21.2839 0 20.25 0H17.75C16.7161 0 15.875 0.841133 15.875 1.875V2.5H12.4375C11.5759 2.5 10.875 3.20094 10.875 4.0625V6.25C10.875 6.59516 11.1548 6.875 11.5 6.875H11.8416L12.3815 18.2142C12.4292 19.2156 13.2519 20 14.2544 20H23.7456C24.7482 20 25.5708 19.2156 25.6185 18.2142L26.1584 6.875H26.5C26.8452 6.875 27.125 6.59516 27.125 6.25V4.0625C27.125 3.20094 26.4241 2.5 25.5625 2.5ZM17.125 1.875C17.125 1.53039 17.4054 1.25 17.75 1.25H20.25C20.5946 1.25 20.875 1.53039 20.875 1.875V2.5H17.125V1.875ZM12.125 4.0625C12.125 3.8902 12.2652 3.75 12.4375 3.75H25.5625C25.7348 3.75 25.875 3.8902 25.875 4.0625V5.625C25.6824 5.625 12.9232 5.625 12.125 5.625V4.0625ZM24.3699 18.1547C24.354 18.4885 24.0798 18.75 23.7456 18.75H14.2544C13.9202 18.75 13.646 18.4885 13.6301 18.1547L13.093 6.875H24.907L24.3699 18.1547Z" fill="#CC3E28"/>
<path d="M19 17.5C19.3452 17.5 19.625 17.2202 19.625 16.875V8.75C19.625 8.40484 19.3452 8.125 19 8.125C18.6548 8.125 18.375 8.40484 18.375 8.75V16.875C18.375 17.2202 18.6548 17.5 19 17.5Z" fill="#CC3E28"/>
<path d="M22.125 17.5C22.4702 17.5 22.75 17.2202 22.75 16.875V8.75C22.75 8.40484 22.4702 8.125 22.125 8.125C21.7798 8.125 21.5 8.40484 21.5 8.75V16.875C21.5 17.2202 21.7798 17.5 22.125 17.5Z" fill="#CC3E28"/>
<path d="M15.875 17.5C16.2202 17.5 16.5 17.2202 16.5 16.875V8.75C16.5 8.40484 16.2202 8.125 15.875 8.125C15.5298 8.125 15.25 8.40484 15.25 8.75V16.875C15.25 17.2202 15.5298 17.5 15.875 17.5Z" fill="#CC3E28"/>
<path d="M2.44103 29.54H5.40503C6.77303 29.54 7.83303 29.908 8.58503 30.644C9.33703 31.38 9.71303 32.42 9.71303 33.764C9.71303 35.108 9.33703 36.152 8.58503 36.896C7.83303 37.632 6.77303 38 5.40503 38H2.44103V29.54ZM5.33303 36.968C7.41303 36.968 8.45303 35.9 8.45303 33.764C8.45303 31.636 7.41303 30.572 5.33303 30.572H3.67703V36.968H5.33303ZM16.2662 35.276H12.1262C12.2142 36.516 12.8302 37.136 13.9742 37.136C14.6462 37.136 15.2542 36.916 15.7982 36.476L16.1702 37.328C15.8982 37.56 15.5622 37.744 15.1622 37.88C14.7622 38.016 14.3542 38.084 13.9382 38.084C13.0022 38.084 12.2622 37.816 11.7182 37.28C11.1822 36.744 10.9142 36.004 10.9142 35.06C10.9142 34.46 11.0302 33.928 11.2622 33.464C11.5022 33 11.8342 32.64 12.2582 32.384C12.6902 32.128 13.1782 32 13.7222 32C14.5142 32 15.1342 32.256 15.5822 32.768C16.0382 33.28 16.2662 33.988 16.2662 34.892V35.276ZM13.7462 32.888C13.2822 32.888 12.9102 33.036 12.6302 33.332C12.3582 33.62 12.1942 34.036 12.1382 34.58H15.2222C15.1982 34.036 15.0582 33.62 14.8022 33.332C14.5542 33.036 14.2022 32.888 13.7462 32.888ZM17.6017 38V29.54H18.8137V38H17.6017ZM25.524 35.276H21.384C21.472 36.516 22.088 37.136 23.232 37.136C23.904 37.136 24.512 36.916 25.056 36.476L25.428 37.328C25.156 37.56 24.82 37.744 24.42 37.88C24.02 38.016 23.612 38.084 23.196 38.084C22.26 38.084 21.52 37.816 20.976 37.28C20.44 36.744 20.172 36.004 20.172 35.06C20.172 34.46 20.288 33.928 20.52 33.464C20.76 33 21.092 32.64 21.516 32.384C21.948 32.128 22.436 32 22.98 32C23.772 32 24.392 32.256 24.84 32.768C25.296 33.28 25.524 33.988 25.524 34.892V35.276ZM23.004 32.888C22.54 32.888 22.168 33.036 21.888 33.332C21.616 33.62 21.452 34.036 21.396 34.58H24.48C24.456 34.036 24.316 33.62 24.06 33.332C23.812 33.036 23.46 32.888 23.004 32.888ZM29.5729 37.148C29.7569 37.148 29.9369 37.136 30.1129 37.112L30.0529 38.036C29.8529 38.068 29.6449 38.084 29.4289 38.084C28.6689 38.084 28.1009 37.9 27.7249 37.532C27.3569 37.156 27.1729 36.616 27.1729 35.912V33.08H26.0329V32.144H27.1729V30.38H28.3849V32.144H29.9929V33.08H28.3849V35.864C28.3849 36.72 28.7809 37.148 29.5729 37.148ZM36.0474 35.276H31.9074C31.9954 36.516 32.6114 37.136 33.7554 37.136C34.4274 37.136 35.0354 36.916 35.5794 36.476L35.9514 37.328C35.6794 37.56 35.3434 37.744 34.9434 37.88C34.5434 38.016 34.1354 38.084 33.7194 38.084C32.7834 38.084 32.0434 37.816 31.4994 37.28C30.9634 36.744 30.6954 36.004 30.6954 35.06C30.6954 34.46 30.8114 33.928 31.0434 33.464C31.2834 33 31.6154 32.64 32.0394 32.384C32.4714 32.128 32.9594 32 33.5034 32C34.2954 32 34.9154 32.256 35.3634 32.768C35.8194 33.28 36.0474 33.988 36.0474 34.892V35.276ZM33.5274 32.888C33.0634 32.888 32.6914 33.036 32.4114 33.332C32.1394 33.62 31.9754 34.036 31.9194 34.58H35.0034C34.9794 34.036 34.8394 33.62 34.5834 33.332C34.3354 33.036 33.9834 32.888 33.5274 32.888Z" fill="#CC3E28"/>
</svg>
