<svg width="28" height="28" viewBox="0 0 28 28" fill="none" xmlns="http://www.w3.org/2000/svg">
<path d="M0.820312 0H27.1797C27.6327 0 28 0.367281 28 0.820312V20.1505C28 20.6036 27.6327 20.9709 27.1797 20.9709H19.495L25.1238 26.5996C25.4441 26.92 25.4441 27.4393 25.1238 27.7597C24.8035 28.0801 24.284 28.0801 23.9637 27.7597L17.1748 20.9709H10.8252L4.03632 27.7597C3.71602 28.0801 3.19659 28.0801 2.87623 27.7597C2.55587 27.4393 2.55587 26.92 2.87623 26.5996L8.505 20.9709H0.820312C0.367281 20.9709 0 20.6036 0 20.1505V0.820312C0 0.367281 0.367281 0 0.820312 0ZM1.64062 19.3302H26.3594V1.64062H1.64062V19.3302Z" fill="black"/>
<path d="M20.9709 14.8787C20.9709 16.3 19.8146 17.4563 18.3934 17.4563C16.9721 17.4563 15.8158 16.3 15.8158 14.8787C15.8158 14.4667 15.9134 14.0773 16.0861 13.7315L8.66992 6.31536V7.84956C8.66992 8.30259 8.30264 8.66987 7.8496 8.66987C7.39657 8.66987 7.02929 8.30259 7.02929 7.84956V4.33496C7.02929 3.88193 7.39657 3.51465 7.8496 3.51465H11.3642C11.8172 3.51465 12.1845 3.88193 12.1845 4.33496C12.1845 4.78799 11.8172 5.15527 11.3642 5.15527H9.82995L17.2461 12.5714C17.5919 12.3988 17.9813 12.3011 18.3934 12.3011C19.8146 12.3011 20.9709 13.4574 20.9709 14.8787ZM18.3933 13.9417C17.8767 13.9417 17.4563 14.362 17.4563 14.8787C17.4563 15.3953 17.8767 15.8157 18.3933 15.8157C18.9099 15.8157 19.3303 15.3953 19.3303 14.8787C19.3303 14.362 18.91 13.9417 18.3933 13.9417Z" fill="#38369A"/>
<path d="M24.2443 8.42961C23.924 8.75002 23.4045 8.74991 23.0843 8.42961L21.907 7.25235L20.7297 8.42961C20.4094 8.75002 19.8899 8.74991 19.5697 8.42961C19.2493 8.10925 19.2493 7.58988 19.5697 7.26952L20.7469 6.09226L19.5697 4.915C19.2493 4.59464 19.2493 4.07528 19.5697 3.75492C19.89 3.43456 20.4094 3.43456 20.7297 3.75492L21.907 4.93218L23.0843 3.75492C23.4046 3.43456 23.924 3.43456 24.2443 3.75492C24.5647 4.07528 24.5647 4.59464 24.2443 4.915L23.0671 6.09226L24.2443 7.26952C24.5647 7.58988 24.5647 8.10925 24.2443 8.42961Z" fill="#38369A"/>
<path d="M8.4299 12.5411C8.75026 12.8614 8.75026 13.3808 8.4299 13.7012L7.25264 14.8784L8.4299 16.0557C8.75026 16.376 8.75026 16.8954 8.4299 17.2158C8.10954 17.5362 7.59006 17.5361 7.26981 17.2158L6.09256 16.0385L4.9153 17.2158C4.59423 17.5368 4.07486 17.5354 3.75522 17.2158C3.43486 16.8955 3.43486 16.376 3.75522 16.0557L4.93247 14.8784L3.75522 13.7012C3.43486 13.3808 3.43486 12.8614 3.75522 12.5411C4.07552 12.2207 4.59494 12.2207 4.9153 12.5411L6.09256 13.7183L7.26981 12.5411C7.59017 12.2207 8.10954 12.2207 8.4299 12.5411Z" fill="#38369A"/>
</svg>
