<svg width="32" height="32" viewBox="0 0 32 32" fill="none" xmlns="http://www.w3.org/2000/svg">
<path d="M9.464 15.121L15.121 9.464C15.512 9.07299 16.1449 9.07299 16.535 9.464C16.926 9.85501 16.926 10.488 16.535 10.878L12.414 15H23C23.552 15 24 15.448 24 16C24 16.552 23.552 17 23 17H12.414L16.535 21.121C16.926 21.512 16.926 22.145 16.535 22.535C16.144 22.926 15.511 22.926 15.121 22.535L9.46405 16.878C9.22405 16.638 9.15006 16.31 9.20402 15.999C9.15001 15.69 9.22499 15.361 9.464 15.121ZM16 0C24.837 0 32 7.16298 32 16C32 24.837 24.837 32 16 32C7.16298 32 0 24.836 0 16C0 7.16403 7.16298 0 16 0ZM16 30C23.732 30 30 23.732 30 16C30 8.26797 23.732 2 16 2C8.26797 2 2 8.26797 2 16C2 23.732 8.26797 30 16 30Z" fill="#B1B5B9"/>
</svg>
