<svg width="12" height="12" viewBox="0 0 12 12" fill="none" xmlns="http://www.w3.org/2000/svg">
<path d="M11.8082 3.04857L11.4151 2.65276C11.2914 2.52915 11.1268 2.46105 10.9509 2.46105C10.7751 2.46105 10.6103 2.52915 10.4866 2.65276L6.00268 7.1369L1.51357 2.64779C1.39006 2.52418 1.22528 2.45618 1.04947 2.45618C0.873666 2.45618 0.708786 2.52418 0.585176 2.64779L0.192002 3.04116C-0.0640005 3.29696 -0.0640005 3.71365 0.192002 3.96946L5.53683 9.3335C5.66034 9.45701 5.82493 9.54404 6.00229 9.54404H6.00434C6.18025 9.54404 6.34483 9.45692 6.46835 9.3335L11.8082 3.98399C11.9319 3.86048 11.9998 3.69092 12 3.51511C12 3.33921 11.9319 3.17199 11.8082 3.04857Z" fill="#A4A4A8"/>
</svg>
