<svg width="16" height="16" viewBox="0 0 16 16" fill="none" xmlns="http://www.w3.org/2000/svg">
<g clip-path="url(#clip0)">
<path d="M13.1427 8.00012C12.8271 8.00012 12.5712 8.25595 12.5712 8.57155V14.2857C12.5712 14.6013 12.3154 14.8572 11.9998 14.8572H1.71426C1.39866 14.8572 1.14283 14.6013 1.14283 14.2857V2.85733C1.14283 2.54173 1.39866 2.2859 1.71426 2.2859H8.57132C8.88692 2.2859 9.14275 2.03006 9.14275 1.71446C9.14275 1.39887 8.88692 1.14307 8.57132 1.14307H1.71426C0.767501 1.14307 0 1.91057 0 2.85733V14.2857C0 15.2325 0.767501 16 1.71426 16H11.9998C12.9466 16 13.7141 15.2325 13.7141 14.2857V8.57152C13.7141 8.25595 13.4583 8.00012 13.1427 8.00012Z" fill="white"/>
<path d="M15.3594 0.640782C14.9491 0.23043 14.3926 -5.7923e-05 13.8123 9.04044e-06C13.2317 -0.00166504 12.6746 0.229225 12.2655 0.64115L4.7387 8.1673C4.67625 8.23021 4.62914 8.30669 4.60099 8.39073L3.45815 11.8193C3.35841 12.1187 3.5203 12.4422 3.81972 12.542C3.87781 12.5613 3.93865 12.5712 3.99985 12.5712C4.06119 12.5711 4.12216 12.5613 4.18042 12.5421L7.60895 11.3993C7.69316 11.3712 7.76967 11.3238 7.83238 11.261L15.3591 3.73426C16.2134 2.88007 16.2135 1.49507 15.3594 0.640782ZM14.5512 2.92681L7.12266 10.3553L4.90326 11.0964L5.6421 8.87986L13.0734 1.45141C13.482 1.04367 14.1438 1.04434 14.5515 1.45288C14.7463 1.64805 14.856 1.91225 14.8568 2.18797C14.8576 2.46517 14.7475 2.73114 14.5512 2.92681Z" fill="white"/>
</g>
<defs>
<clipPath id="clip0">
<rect width="16" height="16" fill="white"/>
</clipPath>
</defs>
</svg>
