<svg width="99" height="98" viewBox="0 0 99 98" fill="none" xmlns="http://www.w3.org/2000/svg">
<path d="M88.0147 70.4375C89.6528 70.4375 91.2238 69.7922 92.3821 68.6435C93.5405 67.4949 94.1912 65.937 94.1912 64.3125V13.7812H4.63232V64.3125C4.63232 65.937 5.28306 67.4949 6.44137 68.6435C7.59968 69.7922 9.17069 70.4375 10.8088 70.4375H88.0147Z" fill="#38369A"/>
<path d="M94.1911 64.3125C94.1911 62.688 93.5404 61.1301 92.3821 59.9815C91.2238 58.8328 89.6528 58.1875 88.0147 58.1875H83.3823V6.125H88.0147C89.6528 6.125 91.2238 6.77031 92.3821 7.91897C93.5404 9.06763 94.1911 10.6255 94.1911 12.25V64.3125Z" fill="#4E68D9"/>
<path d="M4.63232 64.3125C4.63232 62.688 5.28306 61.1301 6.44137 59.9815C7.59969 58.8328 9.1707 58.1875 10.8088 58.1875H15.4412V6.125H10.8088C9.1707 6.125 7.59969 6.77031 6.44137 7.91897C5.28306 9.06763 4.63232 10.6255 4.63232 12.25V64.3125Z" fill="#4E68D9"/>
<path d="M41.6912 59.7188H57.1323V71.9688H41.6912V59.7188Z" fill="#F5714F"/>
<path d="M63.3088 45.9375C63.309 48.9329 62.4151 51.8612 60.7397 54.3536L57.1323 59.7188H41.6911L38.0837 54.3536C36.4084 51.8612 35.5145 48.9328 35.5146 45.9375C35.5146 42.2825 36.9788 38.7772 39.585 36.1927C42.1912 33.6082 45.726 32.1563 49.4117 32.1562C53.0974 32.1563 56.6322 33.6082 59.2384 36.1927C61.8446 38.7772 63.3088 42.2825 63.3088 45.9375Z" fill="#FFC431"/>
<path d="M57.1017 44.7065L54.0752 59.7185H50.9253L53.282 48.0351L50.3385 50.2247C50.0711 50.4233 49.7461 50.5305 49.412 50.5305C49.078 50.5305 48.753 50.4233 48.4856 50.2247L45.5421 48.0351L47.8969 59.7185H44.7507L41.7223 44.7065C41.6605 44.4024 41.6934 44.0869 41.8165 43.8017C41.9397 43.5166 42.1473 43.2753 42.4119 43.1098C42.6765 42.9444 42.9856 42.8626 43.2982 42.8753C43.6107 42.888 43.912 42.9946 44.162 43.181L49.412 47.0857L54.662 43.181C54.9121 42.9946 55.2134 42.888 55.5259 42.8753C55.8385 42.8626 56.1475 42.9444 56.4121 43.1098C56.6767 43.2753 56.8844 43.5166 57.0075 43.8017C57.1307 44.0869 57.1636 44.4024 57.1018 44.7065H57.1017Z" fill="#FFD873"/>
<path d="M41.6912 71.9688L44.7794 78.0938H54.0441L57.1323 71.9688H41.6912Z" fill="#E04F2B"/>
<path d="M31.1473 62.7813C30.5737 62.7812 30.0058 62.8933 29.4759 63.1109C28.946 63.3286 28.4646 63.6476 28.059 64.0498L5.59174 86.3298C5.13364 86.7841 4.82167 87.3629 4.69527 87.993C4.56888 88.6231 4.63374 89.2762 4.88165 89.8698C5.12957 90.4633 5.5494 90.9706 6.08807 91.3276C6.62673 91.6845 7.26003 91.875 7.90788 91.875H30.8823C31.4907 91.875 32.093 91.7562 32.6551 91.5253C33.2171 91.2945 33.7278 90.9561 34.1579 90.5295C34.5881 90.103 34.9293 89.5965 35.1621 89.0392C35.3949 88.4819 35.5147 87.8845 35.5147 87.2812V67.1123C35.5147 66.5435 35.4017 65.9803 35.1822 65.4549C34.9628 64.9294 34.6411 64.452 34.2355 64.0498C33.83 63.6476 33.3485 63.3286 32.8186 63.1109C32.2887 62.8933 31.7208 62.7812 31.1473 62.7813ZM26.25 82.6875H18.5294L26.25 75.0312V82.6875Z" fill="#FFA100"/>
<path d="M12.353 87.2812H15.4413V91.875H12.353V87.2812Z" fill="#F78E00"/>
<path d="M18.5293 87.2812H21.6175V91.875H18.5293V87.2812Z" fill="#F78E00"/>
<path d="M24.7058 87.2812H27.794V91.875H24.7058V87.2812Z" fill="#F78E00"/>
<path d="M30.8823 68.9062H35.5147V71.9688H30.8823V68.9062Z" fill="#F78E00"/>
<path d="M30.8823 75.0312H35.5147V78.0938H30.8823V75.0312Z" fill="#F78E00"/>
<path d="M30.8823 81.1562H35.5147V84.2188H30.8823V81.1562Z" fill="#F78E00"/>
<path d="M77.2059 84.2188L72.5735 91.875L67.9412 84.2188H77.2059Z" fill="#FFCEB6"/>
<path d="M67.9412 50.5312H77.2059V56.6562H67.9412V50.5312Z" fill="#E8F2FF"/>
<path d="M67.9412 61.25H77.2059V84.2188H67.9412V61.25Z" fill="#FFC431"/>
<path d="M67.9412 56.6562H77.2059V61.25H67.9412V56.6562Z" fill="#FFE28F"/>
<path d="M71.0295 61.25H74.1178V84.2188H71.0295V61.25Z" fill="#FFB401"/>
<path d="M47.8677 21.4375H50.9559V26.0312H47.8677V21.4375Z" fill="#FFC431"/>
<path d="M31.9358 29.248L34.1192 27.0829L37.3943 30.3306L35.2109 32.4958L31.9358 29.248Z" fill="#FFC431"/>
<path d="M47.8677 21.4375H50.9559V26.0312H47.8677V21.4375Z" fill="#FFC431"/>
<path d="M61.4133 30.3369L64.6884 27.0891L66.8718 29.2543L63.5967 32.5021L61.4133 30.3369Z" fill="#FFC431"/>
<path d="M61.4133 30.3369L64.6884 27.0891L66.8718 29.2543L63.5967 32.5021L61.4133 30.3369Z" fill="#FFC431"/>
<path d="M67.9412 42.875H72.5735V45.9375H67.9412V42.875Z" fill="#FFC431"/>
<path d="M67.9412 42.875H72.5735V45.9375H67.9412V42.875Z" fill="#FFC431"/>
<path d="M26.25 42.875H30.8823V45.9375H26.25V42.875Z" fill="#FFC431"/>
</svg>
