<svg width="28" height="28" viewBox="0 0 28 28" fill="none" xmlns="http://www.w3.org/2000/svg">
<path d="M27.1797 24.1719H25.2109V14.5469C25.2109 14.0938 24.8437 13.7266 24.3906 13.7266H21.1094C20.6563 13.7266 20.2891 14.0938 20.2891 14.5469V24.1719H18.1016V17.8281C18.1016 17.3751 17.7343 17.0078 17.2812 17.0078H14C13.547 17.0078 13.1797 17.3751 13.1797 17.8281V24.1719H10.9922V21.1094C10.9922 20.6563 10.6249 20.2891 10.1719 20.2891H6.89062C6.43759 20.2891 6.07031 20.6563 6.07031 21.1094V24.1719H3.82812V0.820312C3.82812 0.367281 3.46084 0 3.00781 0C2.55478 0 2.1875 0.367281 2.1875 0.820312V1.20312H0.820312C0.367281 1.20312 0 1.57041 0 2.02344C0 2.47647 0.367281 2.84375 0.820312 2.84375H2.1875V4.48438H0.820312C0.367281 4.48438 0 4.85166 0 5.30469C0 5.75772 0.367281 6.125 0.820312 6.125H2.1875V7.76562H0.820312C0.367281 7.76562 0 8.13291 0 8.58594C0 9.03897 0.367281 9.40625 0.820312 9.40625H2.1875V11.0469H0.820312C0.367281 11.0469 0 11.4142 0 11.8672C0 12.3202 0.367281 12.6875 0.820312 12.6875H2.1875V14.3281H0.820312C0.367281 14.3281 0 14.6954 0 15.1484C0 15.6015 0.367281 15.9688 0.820312 15.9688H2.1875V17.6094H0.820312C0.367281 17.6094 0 17.9767 0 18.4297C0 18.8827 0.367281 19.25 0.820312 19.25H2.1875V20.8906H0.820312C0.367281 20.8906 0 21.2579 0 21.7109C0 22.164 0.367281 22.5312 0.820312 22.5312H2.1875V24.1719H0.820312C0.367281 24.1719 0 24.5392 0 24.9922C0 25.4452 0.367281 25.8125 0.820312 25.8125H2.1875V27.1797C2.1875 27.6327 2.55478 28 3.00781 28C3.46084 28 3.82812 27.6327 3.82812 27.1797V25.8125H5.46875V27.1797C5.46875 27.6327 5.83603 28 6.28906 28C6.74209 28 7.10938 27.6327 7.10938 27.1797V25.8125H8.75V27.1797C8.75 27.6327 9.11728 28 9.57031 28C10.0233 28 10.3906 27.6327 10.3906 27.1797V25.8125H12.0312V27.1797C12.0312 27.6327 12.3985 28 12.8516 28C13.3046 28 13.6719 27.6327 13.6719 27.1797V25.8125H15.3125V27.1797C15.3125 27.6327 15.6798 28 16.1328 28C16.5858 28 16.9531 27.6327 16.9531 27.1797V25.8125H18.5938V27.1797C18.5938 27.6327 18.961 28 19.4141 28C19.8671 28 20.2344 27.6327 20.2344 27.1797V25.8125H21.875V27.1797C21.875 27.6327 22.2423 28 22.6953 28C23.1483 28 23.5156 27.6327 23.5156 27.1797V25.8125H25.1562V27.1797C25.1562 27.6327 25.5235 28 25.9766 28C26.4296 28 26.7969 27.6327 26.7969 27.1797V25.8125H27.1797C27.6327 25.8125 28 25.4452 28 24.9922C28 24.5392 27.6327 24.1719 27.1797 24.1719ZM9.35156 24.1719H7.71094V21.9297H9.35156V24.1719ZM16.4609 24.1719H14.8203V18.6484H16.4609V24.1719ZM23.5703 24.1719H21.9297V15.3672H23.5703V24.1719Z" fill="black"/>
<path d="M27.1796 4.42969H23.3515C22.8985 4.42969 22.5312 4.79697 22.5312 5.25C22.5312 5.70303 22.8985 6.07031 23.3515 6.07031H25.1992L20.9664 10.3031L18.7343 9.41024C18.3657 9.2627 17.9444 9.4004 17.734 9.73711L15.3772 13.5079L11.1065 11.6098C10.757 11.4545 10.3465 11.5612 10.1171 11.8672L6.83581 16.2422C6.56395 16.6046 6.63745 17.1188 6.99987 17.3906C7.14742 17.5013 7.32012 17.5547 7.4914 17.5547C7.74083 17.5547 7.98714 17.4414 8.14831 17.2266L11.0374 13.3745L15.362 15.2965C15.7353 15.4625 16.1742 15.3283 16.3908 14.9817L18.7617 11.1883L20.8593 12.0273C21.164 12.1492 21.512 12.0778 21.744 11.8457L26.3593 7.2304V9.07812C26.3593 9.53116 26.7266 9.89844 27.1796 9.89844C27.6326 9.89844 27.9999 9.53116 27.9999 9.07812V5.25C27.9999 4.79697 27.6326 4.42969 27.1796 4.42969Z" fill="#38369A"/>
<path d="M15.6406 8.20312C17.2991 8.20312 18.6484 6.85382 18.6484 5.19531C18.6484 4.77641 18.5236 4.00427 17.4439 2.14309C16.8872 1.18344 16.3387 0.387461 16.3156 0.354047C16.1624 0.132344 15.9101 0 15.6406 0C15.3711 0 15.1189 0.132344 14.9657 0.354102C14.9426 0.387516 14.394 1.18349 13.8373 2.14315C12.7577 4.00427 12.6328 4.77641 12.6328 5.19531C12.6328 6.85382 13.9821 8.20312 15.6406 8.20312ZM15.6406 2.32198C16.3801 3.52018 17.0078 4.75688 17.0078 5.19531C17.0078 5.94918 16.3945 6.5625 15.6406 6.5625C14.8868 6.5625 14.2734 5.94918 14.2734 5.19531C14.2734 4.75688 14.9012 3.52012 15.6406 2.32198Z" fill="#38369A"/>
</svg>
