<svg width="28" height="28" viewBox="0 0 28 28" fill="none" xmlns="http://www.w3.org/2000/svg">
<path d="M25.4224 1.75H13.1214C11.7001 1.75 10.5438 2.90634 10.5438 4.32758V12.2186L8.25974 11.0828C8.18262 11.0443 8.10422 11.008 8.02518 10.9736C8.69574 10.2736 9.1091 9.32507 9.1091 8.28152C9.1091 6.13354 7.36166 4.38589 5.21368 4.38589C3.06549 4.38589 1.31805 6.13354 1.31805 8.28152C1.31805 9.44876 1.83481 10.4972 2.65085 11.2118C1.14801 12.0573 0 13.7067 0 15.75V18.3859C0 19.5207 0.736786 20.4865 1.75726 20.8297V25.4152C1.75726 25.868 2.12448 26.2355 2.57758 26.2355H7.84937C8.30246 26.2355 8.66968 25.868 8.66968 25.4152V16.1984L11.296 17.5113C12.3011 18.0138 13.6644 17.7143 14.2809 16.5703H17.2221L14.1077 25.1347C13.9528 25.5604 14.1726 26.0312 14.5984 26.1859C15.085 26.363 15.5178 26.0577 15.6496 25.6954L18.9678 16.5703H19.5429L22.8951 25.698C23.0224 26.0443 23.452 26.3673 23.948 26.1851C24.3731 26.0289 24.5914 25.5576 24.4351 25.1323L21.2905 16.5703H25.4224C26.8161 16.5703 28 15.446 28 13.9927V4.32758C28 2.87408 26.8161 1.75 25.4224 1.75ZM2.95868 8.28152C2.95868 7.03802 3.97018 6.02652 5.21347 6.02652C6.45697 6.02652 7.46848 7.03802 7.46848 8.28152C7.46848 9.52481 6.45697 10.5363 5.21347 10.5363C3.97018 10.5363 2.95868 9.52481 2.95868 8.28152ZM12.8789 15.6932C12.8768 15.6992 12.8746 15.7054 12.8727 15.7115C12.8167 15.8677 12.6903 15.9993 12.5354 16.063C12.3716 16.1296 12.1872 16.1226 12.0298 16.0439C10.4699 15.2636 8.21594 14.1376 8.21594 14.1376C7.67163 13.8654 7.02905 14.2619 7.02905 14.8714V24.5948H3.39789V20.1432C3.39789 19.6903 3.03046 19.3228 2.57758 19.3228C2.06082 19.3228 1.64062 18.9026 1.64062 18.3859V15.75C1.64062 13.7456 3.27271 12.1772 5.21347 12.1772H5.93829C6.48816 12.1772 7.03738 12.3062 7.52808 12.5512C7.52808 12.5512 11.597 14.5746 12.6332 15.0908C12.8552 15.201 12.9607 15.4599 12.8789 15.6932ZM26.3594 13.9927C26.3594 14.2433 26.2622 14.4785 26.0853 14.6554C25.9112 14.8297 25.6696 14.9297 25.4224 14.9297H14.4593C14.4578 14.9252 14.4567 14.9207 14.4552 14.9164L16.4911 10.845C16.6936 10.4398 16.5295 9.94714 16.1243 9.74442C15.7192 9.5419 15.2264 9.70596 15.0237 10.1112L13.2874 13.5836C12.9637 13.4224 12.5875 13.235 12.1844 13.0346V4.32758C12.1844 3.81104 12.6046 3.39062 13.1214 3.39062H25.4224C25.6696 3.39062 25.9112 3.4906 26.0855 3.66534C26.2622 3.8418 26.3594 4.077 26.3594 4.32758V13.9927Z" fill="black"/>
<path d="M23.6654 5.26465H14.8789C14.4258 5.26465 14.0586 5.63187 14.0586 6.08496C14.0586 6.53806 14.4258 6.90527 14.8789 6.90527H23.6654C24.1183 6.90527 24.4857 6.53806 24.4857 6.08496C24.4857 5.63187 24.1185 5.26465 23.6654 5.26465Z" fill="#38369A"/>
<path d="M23.6647 8.33984H19.2713C18.8184 8.33984 18.451 8.70706 18.451 9.16016C18.451 9.61325 18.8184 9.98047 19.2713 9.98047H23.6647C24.1176 9.98047 24.485 9.61325 24.485 9.16016C24.485 8.70706 24.1178 8.33984 23.6647 8.33984Z" fill="#38369A"/>
<path d="M23.6647 11.415H19.2713C18.8184 11.415 18.451 11.7823 18.451 12.2354C18.451 12.6882 18.8184 13.0557 19.2713 13.0557H23.6647C24.1176 13.0557 24.485 12.6882 24.485 12.2354C24.485 11.7823 24.1178 11.415 23.6647 11.415Z" fill="#38369A"/>
</svg>
