<svg width="28" height="28" viewBox="0 0 28 28" fill="none" xmlns="http://www.w3.org/2000/svg">
<g clip-path="url(#clip0)">
<path d="M27.1797 13.207H25.2341C26.9196 11.8476 28 9.76648 28 7.4375C28 3.35152 24.6758 0.0273438 20.5898 0.0273438C16.5039 0.0273438 13.1797 3.35152 13.1797 7.4375C13.1797 9.76648 14.26 11.8476 15.9456 13.207H14.0273C13.5743 13.207 13.207 13.5743 13.207 14.0273V19.7695H0.875C0.421969 19.7695 0.0546875 20.1368 0.0546875 20.5898V23.8711V27.1523C0.0546875 27.6054 0.421969 27.9727 0.875 27.9727H14.0273H27.1797C27.6327 27.9727 28 27.6054 28 27.1523V23.8711V20.5898V17.3086V14.0273C28 13.5743 27.6327 13.207 27.1797 13.207ZM14.8477 18.1289H26.3594V19.7695H14.8477V18.1289ZM14.8477 21.4102H26.3594V23.0508H14.8477V21.4102ZM14.8203 7.4375C14.8203 4.25616 17.4085 1.66797 20.5898 1.66797C23.7712 1.66797 26.3594 4.25616 26.3594 7.4375C26.3594 10.6188 23.7712 13.207 20.5898 13.207C17.4085 13.207 14.8203 10.6188 14.8203 7.4375ZM14.8477 14.8477H26.3594V16.4883H14.8477V14.8477ZM1.69531 21.4102H13.207V23.0508H1.69531V21.4102ZM1.69531 24.6914H13.207V26.332H1.69531V24.6914ZM26.3594 26.332H14.8477V24.6914H26.3594V26.332Z" fill="black"/>
<path d="M1.39992 16.248L4.12845 13.5195L6.03671 15.4277C6.35702 15.7481 6.87644 15.7481 7.1968 15.4277L9.89798 12.7265V13.207C9.89798 13.6601 10.2653 14.0273 10.7183 14.0273C11.1713 14.0273 11.5386 13.6601 11.5386 13.207V10.7464C11.5388 10.2908 11.1676 9.92556 10.718 9.92578H8.31204C7.85901 9.92578 7.49173 10.2931 7.49173 10.7461C7.49173 11.1991 7.85901 11.5664 8.31204 11.5664H8.73789L6.61673 13.6876L4.70846 11.7794C4.38816 11.459 3.86873 11.459 3.54837 11.7794L0.239781 15.088C-0.0805781 15.4083 -0.0805781 15.9277 0.239781 16.248C0.560086 16.5683 1.07956 16.5684 1.39992 16.248Z" fill="#38369A"/>
<path d="M21.4626 6.63089C21.0556 6.48701 20.757 6.36812 20.523 6.25677C20.3975 6.19711 19.9896 5.98405 20.0074 5.74856C20.0199 5.58516 20.1843 5.40698 20.3122 5.36848C20.8176 5.21634 21.1441 5.45407 21.1963 5.49596L21.2622 5.55672C21.5952 5.8639 22.1141 5.84306 22.4214 5.51012C22.7286 5.17719 22.7077 4.6582 22.3748 4.35097L22.2983 4.28037C22.1144 4.11073 21.7919 3.90581 21.3736 3.78408V3.71484C21.3736 3.26181 21.0063 2.89453 20.5533 2.89453C20.1002 2.89453 19.733 3.26181 19.733 3.71484V3.83352C18.9962 4.10515 18.431 4.84053 18.3715 5.62442C18.3401 6.03813 18.4182 7.07233 19.8181 7.73826C20.1047 7.8747 20.4535 8.01432 20.9157 8.17773C21.3222 8.32139 21.3636 8.61293 21.3268 8.83217C21.2858 9.07635 21.0754 9.49055 20.5478 9.49411C20.0001 9.4975 19.8715 9.47748 19.4717 9.21591C19.0925 8.96791 18.5841 9.07416 18.3361 9.45331C18.0881 9.83246 18.1943 10.3408 18.5735 10.5888C19.0097 10.8742 19.355 11.0156 19.7329 11.0819V11.1605C19.7329 11.6135 20.1002 11.9808 20.5532 11.9808C21.0063 11.9808 21.3735 11.6135 21.3735 11.1605V10.9892C22.1804 10.6976 22.7954 9.99188 22.9447 9.10413C23.1298 8.0036 22.5342 7.00966 21.4626 6.63089ZM21.186 5.48623L21.1943 5.49394C21.1887 5.48913 21.1861 5.48634 21.186 5.48623Z" fill="#38369A"/>
</g>
<defs>
<clipPath id="clip0">
<rect width="28" height="28" fill="white"/>
</clipPath>
</defs>
</svg>
