<svg width="27" height="27" viewBox="0 0 27 27" fill="none" xmlns="http://www.w3.org/2000/svg">
<g clip-path="url(#clip0)">
<path d="M13.5034 18.6579C13.6266 18.5802 13.9463 18.2152 14.2409 17.2332C14.4885 16.4078 14.6461 15.3842 14.6976 14.291H12.3091C12.3606 15.384 12.5182 16.4078 12.7658 17.2332C13.0603 18.2152 13.38 18.5802 13.5034 18.6579V18.6579Z" fill="#0094FF"/>
<path d="M14.688 7.28345C15.6706 8.2681 16.1835 10.4755 16.2809 12.7089H19.782C19.4407 9.9832 17.3589 7.79143 14.688 7.28345Z" fill="#0094FF"/>
<path d="M14.2409 9.76669C13.9463 8.78472 13.6266 8.4197 13.5034 8.34204C13.38 8.4197 13.0603 8.78472 12.766 9.76669C12.5184 10.5921 12.3608 11.6159 12.3091 12.7089H14.6976C14.6461 11.6157 14.4885 10.5921 14.2409 9.76669V9.76669Z" fill="#0094FF"/>
<path d="M14.688 19.7165C17.3589 19.2085 19.4407 17.0167 19.782 14.291H16.2809C16.1833 16.5244 15.6706 18.7318 14.688 19.7165Z" fill="#0094FF"/>
<path d="M10.7259 14.291H7.22461C7.56594 17.0167 9.64771 19.2085 12.3186 19.7165C11.336 18.7318 10.8233 16.5244 10.7259 14.291Z" fill="#0094FF"/>
<path d="M12.3186 7.28345C9.64771 7.79143 7.56594 9.9832 7.22461 12.7089H10.7259C10.8233 10.4755 11.336 8.2681 12.3186 7.28345Z" fill="#0094FF"/>
<path d="M12.4841 2.92902L12.7125 2.70078V4.85568C12.7125 5.29239 13.0666 5.6467 13.5035 5.6467C13.9402 5.6467 14.2946 5.29239 14.2946 4.85568V2.70078L14.5294 2.93562C14.6839 3.09011 14.8864 3.16736 15.0887 3.16736C15.2912 3.16736 15.4936 3.09011 15.6481 2.93562C15.9569 2.62683 15.9569 2.12585 15.6481 1.81707L14.0628 0.231743C13.9145 0.0834274 13.7132 0 13.5035 0C13.2936 0 13.0926 0.0834274 12.9441 0.231743L11.3655 1.81048C11.0565 2.11947 11.0565 2.62024 11.3655 2.92923C11.6743 3.23801 12.1751 3.23801 12.4841 2.92902V2.92902Z" fill="#0094FF"/>
<path d="M26.7685 12.9441L25.1897 11.3654C24.881 11.0566 24.38 11.0566 24.0712 11.3654C23.7622 11.6744 23.7622 12.1751 24.0712 12.4841L24.2994 12.7124H22.1445C21.7076 12.7124 21.3535 13.0667 21.3535 13.5034C21.3535 13.9403 21.7076 14.2944 22.1445 14.2944H24.2994L24.0646 14.5294C23.7556 14.8384 23.7556 15.3392 24.0646 15.648C24.2189 15.8025 24.4214 15.8797 24.6239 15.8797C24.8262 15.8797 25.0286 15.8025 25.1831 15.648L26.7685 14.0629C26.9168 13.9143 27.0002 13.7133 27.0002 13.5034C27.0002 13.2937 26.9168 13.0924 26.7685 12.9441V12.9441Z" fill="#0094FF"/>
<path d="M14.5157 24.0709L14.2875 24.2992V22.1443C14.2875 21.7076 13.9332 21.3533 13.4965 21.3533C13.0595 21.3533 12.7054 21.7076 12.7054 22.1443V24.2992L12.4704 24.0644C12.1614 23.7554 11.6606 23.7554 11.3519 24.0644C11.0429 24.3731 11.0429 24.8741 11.3519 25.1829L12.9372 26.7682C13.0855 26.9167 13.2866 27 13.4965 27C13.7062 27 13.9074 26.9167 14.0557 26.7682L15.6345 25.1895C15.9433 24.8807 15.9433 24.3797 15.6345 24.0709C15.3255 23.762 14.8247 23.762 14.5157 24.0709V24.0709Z" fill="#0094FF"/>
<path d="M4.85568 12.7057H2.70078L2.93562 12.4706C3.24461 12.1617 3.24461 11.6609 2.93562 11.3521C2.62683 11.0431 2.12606 11.0431 1.81707 11.3521L0.231743 12.9372C0.0834274 13.0857 0 13.2868 0 13.4967C0 13.7064 0.0834274 13.9077 0.231743 14.056L1.81048 15.6347C1.96497 15.789 2.16747 15.8662 2.36975 15.8662C2.57224 15.8662 2.77473 15.7892 2.92902 15.6347C3.23801 15.3257 3.23801 14.825 2.92902 14.516L2.70078 14.2877H4.85568C5.29259 14.2877 5.6467 13.9334 5.6467 13.4967C5.6467 13.0598 5.29259 12.7057 4.85568 12.7057Z" fill="#0094FF"/>
</g>
<defs>
<clipPath id="clip0">
<rect width="27" height="27" fill="white"/>
</clipPath>
</defs>
</svg>
