<svg width="60" height="60" viewBox="0 0 60 60" fill="none" xmlns="http://www.w3.org/2000/svg">
<g clip-path="url(#clip0)">
<path d="M30 60C46.5685 60 60 46.5685 60 30C60 13.4315 46.5685 0 30 0C13.4315 0 0 13.4315 0 30C0 46.5685 13.4315 60 30 60Z" fill="#DC4E41" fill-opacity="0.1"/>
<path d="M18.0078 30.3866C17.9014 35.5483 21.4566 40.4741 26.3472 42.0806C30.9538 43.6283 36.6176 42.4705 39.6829 38.5254C41.921 35.7611 42.4296 32.076 42.1873 28.6331C38.2423 28.5978 34.2972 28.6095 30.358 28.6154C30.3516 30.0208 30.358 31.4209 30.3639 32.8263C32.726 32.8915 35.0887 32.8616 37.4508 32.9092C36.8545 34.9526 35.4962 36.8542 33.4346 37.5922C29.4542 39.3463 24.3754 37.0548 23.123 32.8792C21.6112 28.8807 24.0861 24.0554 28.1724 22.8922C30.7062 22.0008 33.3164 23.0045 35.4844 24.3217C36.5828 23.2938 37.6107 22.1954 38.6203 21.0852C36.1572 19.0242 32.9918 17.7605 29.7377 18.038C23.353 18.114 17.7656 24.0083 18.0078 30.3866Z" fill="#DC4E41"/>
</g>
<defs>
<clipPath id="clip0">
<rect width="60" height="60" fill="white"/>
</clipPath>
</defs>
</svg>
