<svg width="32" height="32" viewBox="0 0 32 32" fill="none" xmlns="http://www.w3.org/2000/svg">
<path opacity="0.2" d="M25.6 11.1301C25.6 11.3901 25.5901 11.6401 25.5703 11.8901C25.5703 11.9601 25.5703 12.0301 25.5604 12.0901C25.5406 12.3101 25.5208 12.5101 25.4911 12.7201C25.4713 12.8201 25.4614 12.9201 25.4416 13.0201C24.877 16.4601 22.8465 19.2901 20.7368 21.4001C18.6766 23.4501 16.5471 24.8101 15.6458 25.3501C15.5764 25.3901 15.5071 25.4201 15.4576 25.4601C15.2892 25.5501 15.2 25.6001 15.2 25.6001C15.2 25.6001 15.1109 25.5501 14.9425 25.4601C14.893 25.4201 14.8237 25.3901 14.7543 25.3501C13.8629 24.8201 11.7235 23.4601 9.66329 21.4001C7.55357 19.2901 5.5231 16.4601 4.95852 13.0201C4.93872 12.9201 4.92881 12.8201 4.909 12.7201C4.87929 12.5101 4.85948 12.3101 4.83967 12.0901C4.82976 12.0201 4.82976 11.9601 4.82976 11.8901C4.80995 11.6401 4.80005 11.3901 4.80005 11.1301C4.80005 8.0801 7.25643 5.6001 10.2774 5.6001C12.4366 5.6001 14.3086 6.7501 15.2 8.6001C16.0915 6.7501 17.9635 5.6001 20.1227 5.6001C23.1437 5.6001 25.6 8.0801 25.6 11.1301Z" fill="#B1B5B9"/>
<path d="M16.8 25.0101C16.5809 25.1501 16.3827 25.2601 16.2261 25.3501C16.1531 25.3901 16.08 25.4201 16.0279 25.4601C15.8505 25.5501 15.7566 25.6001 15.7566 25.6001C15.7566 25.6001 15.6627 25.5501 15.4853 25.4601C15.4331 25.4201 15.36 25.3901 15.287 25.3501C14.3479 24.8201 12.094 23.4601 9.92353 21.4001C7.70092 19.2901 5.56179 16.4601 4.96701 13.0201C4.94614 12.9201 4.9357 12.8201 4.91483 12.7201C4.88353 12.5101 4.86266 12.3101 4.84179 12.0901C4.83135 12.0201 4.83135 11.9601 4.83135 11.8901C4.81048 11.6401 4.80005 11.3901 4.80005 11.1301C4.80005 8.0801 7.38787 5.6001 10.5705 5.6001C10.9357 5.6001 11.2905 5.6301 11.6348 5.6901C8.94266 6.1501 6.88701 8.4101 6.88701 11.1301C6.88701 11.3901 6.89744 11.6401 6.91831 11.8901C6.91831 11.9601 6.91831 12.0201 6.92874 12.0901C6.94961 12.3101 6.97048 12.5101 7.00179 12.7201C7.02266 12.8201 7.03309 12.9201 7.05396 13.0201C7.64874 16.4601 9.78787 19.2901 12.0105 21.4001C13.8157 23.1201 15.6835 24.3501 16.8 25.0101Z" fill="#B1B5B9"/>
<path d="M16.72 20.8001C16.7152 20.8001 16.7113 20.8001 16.7065 20.8001C16.4176 20.7937 16.1593 20.5963 16.0518 20.2965L14.3123 15.4658H11.2V13.8656H14.8C15.0947 13.8656 15.3596 14.0651 15.4681 14.3691L16.7545 17.9431L19.9014 10.074C20.0118 9.79873 20.2518 9.61524 20.5235 9.6003C20.7971 9.5939 21.0505 9.74006 21.1849 10.0025L24.8176 17.0672H28V18.6675H24.4C24.1417 18.6675 23.9027 18.5138 23.775 18.2642L20.6406 12.1682L17.3785 20.3253C17.2624 20.6145 17.0041 20.8001 16.72 20.8001Z" fill="#707376"/>
<path d="M15.2 26.4001C15.0805 26.4001 14.9621 26.373 14.8535 26.3179C14.4105 26.0915 4 20.6893 4 11.6756C4 8.32538 6.80448 5.6001 10.2521 5.6001C12.2482 5.6001 14.0491 6.44564 15.2 7.86778C16.3509 6.44564 18.1518 5.6001 20.1479 5.6001C23.5955 5.6001 26.4 8.32538 26.4 11.6756C26.4 12.3635 26.3423 13.0233 26.2288 13.6328L24.7593 13.3745C24.8589 12.8414 24.9067 12.2851 24.9067 11.6747C24.9067 9.12449 22.7722 7.05029 20.1479 7.05029C18.2802 7.05029 16.6416 8.00612 15.871 9.54436C15.6211 10.0436 14.7779 10.0436 14.528 9.54436C13.7584 8.00612 12.1198 7.05029 10.2511 7.05029C7.62681 7.05029 5.49234 9.12449 5.49234 11.6747C5.49234 18.9479 13.4289 23.8412 15.199 24.8415C16.0233 24.3762 18.1817 23.0711 20.2395 21.0937L21.2898 22.125C18.5242 24.7835 15.6669 26.254 15.5465 26.315C15.4379 26.372 15.3195 26.4001 15.2 26.4001Z" fill="#707376"/>
</svg>
