<svg width="19" height="19" viewBox="0 0 19 19" fill="none" xmlns="http://www.w3.org/2000/svg">
<g clip-path="url(#clip0)">
<path d="M18.92 4.7287L17.7325 2.67195C17.6534 2.53579 17.5243 2.43604 17.3723 2.39487C17.2188 2.3545 17.0588 2.37508 16.9219 2.45504L14.8651 3.64254C14.6569 3.76208 14.5421 3.99641 14.5738 4.2347C14.6047 4.4722 14.7765 4.66854 15.0084 4.73029L15.7447 4.92741C12.2123 14.1187 1.28013 14.2493 0.791667 14.2501C0.354667 14.2501 0 14.6047 0 15.0417C0.000791667 15.4787 0.353875 15.8334 0.790875 15.8334C0.934167 15.8334 13.4037 15.7052 17.2781 5.33829L18.2519 5.59954C18.3025 5.61299 18.3548 5.61933 18.4055 5.61933C18.5868 5.61933 18.7625 5.5362 18.8765 5.38737C19.023 5.19658 19.0404 4.93691 18.92 4.7287Z" fill="#00A707"/>
<path d="M17.4167 19.0001C16.9789 19.0001 16.625 18.6454 16.625 18.2084V8.70841C16.625 8.27141 16.9789 7.91675 17.4167 7.91675C17.8545 7.91675 18.2083 8.27141 18.2083 8.70841V18.2084C18.2083 18.6454 17.8545 19.0001 17.4167 19.0001Z" fill="#00A707"/>
<path d="M12.6667 18.9999C12.2289 18.9999 11.875 18.6452 11.875 18.2082V14.2499C11.875 13.8129 12.2289 13.4583 12.6667 13.4583C13.1045 13.4583 13.4583 13.8129 13.4583 14.2499V18.2082C13.4583 18.6452 13.1045 18.9999 12.6667 18.9999Z" fill="#00A707"/>
<path d="M7.91667 18.9999C7.47887 18.9999 7.125 18.6453 7.125 18.2083V16.6249C7.125 16.1879 7.47887 15.8333 7.91667 15.8333C8.35446 15.8333 8.70833 16.1879 8.70833 16.6249V18.2083C8.70833 18.6453 8.35446 18.9999 7.91667 18.9999Z" fill="#00A707"/>
<path d="M3.16666 19C2.72887 19 2.375 18.6453 2.375 18.2083V17.4167C2.375 16.9797 2.72887 16.625 3.16666 16.625C3.60446 16.625 3.95833 16.9797 3.95833 17.4167V18.2083C3.95833 18.6453 3.60446 19 3.16666 19Z" fill="#00A707"/>
<path d="M9.09704 1.44525L4.94079 0.0313301C4.81729 -0.0114199 4.68271 -0.0114199 4.55921 0.0313301L0.402958 1.44525C0.1615 1.52679 0 1.75321 0 2.00733V5.18825C0 9.07058 4.33358 10.9579 4.51804 11.0363C4.66687 11.0988 4.83313 11.0988 4.98196 11.0363C5.16642 10.9579 9.5 9.07058 9.5 5.18825V2.00733C9.5 1.75321 9.3385 1.52679 9.09704 1.44525ZM7.35142 4.44725L5.17433 7.21808C4.89725 7.57196 4.37792 7.62341 4.0375 7.3305L2.65208 6.143C2.31958 5.858 2.28079 5.35846 2.56579 5.02596C2.85079 4.69425 3.35033 4.65625 3.68125 4.94046L4.43967 5.59041L6.10612 3.46954C6.37608 3.12596 6.87325 3.065 7.21762 3.33654C7.562 3.60571 7.62217 4.10366 7.35142 4.44725Z" fill="#00A707"/>
</g>
<defs>
<clipPath id="clip0">
<rect width="19" height="19" fill="white"/>
</clipPath>
</defs>
</svg>
