<svg width="32" height="32" viewBox="0 0 32 32" fill="none" xmlns="http://www.w3.org/2000/svg">
<path d="M16 0C9.19942 0 3.66673 5.53269 3.66673 12.3333C3.66673 16.1582 5.6458 20.6005 9.54898 25.5369C12.405 29.149 15.22 31.6453 15.3384 31.7498C15.7164 32.0833 16.2836 32.0834 16.6617 31.7498C16.7801 31.6453 19.595 29.149 22.4511 25.5369C26.3543 20.6005 28.3334 16.1582 28.3334 12.3333C28.3334 5.53269 22.8007 0 16 0V0ZM16 29.6357C13.6235 27.3708 5.66673 19.2685 5.66673 12.3333C5.66673 6.6355 10.3022 2 16 2C21.6979 2 26.3334 6.6355 26.3334 12.3333C26.3334 19.2685 18.3765 27.3709 16 29.6357Z" fill="#707376"/>
<path d="M23.6508 11.7408L16.6508 5.74075C16.2763 5.41975 15.7237 5.41975 15.3492 5.74075L8.34924 11.7408C7.92993 12.1001 7.88137 12.7315 8.24081 13.1508C8.60024 13.5701 9.23156 13.6187 9.65087 13.2592L10.5 12.5314V17.5C10.5 18.0522 10.9477 18.5 11.5 18.5H20.5C21.0522 18.5 21.5 18.0522 21.5 17.5V12.5314L22.3492 13.2592C22.7704 13.6203 23.4014 13.5682 23.7592 13.1508C24.1187 12.7315 24.0701 12.1002 23.6508 11.7408ZM19.5 16.5H12.5V10.8171L16 7.81706L19.5 10.8171V16.5Z" fill="#707376"/>
</svg>
