<svg width="24" height="24" viewBox="0 0 24 24" fill="none" xmlns="http://www.w3.org/2000/svg">
<g clip-path="url(#clip0)">
<path d="M6.50143 5.53646L4.52175 3.54774C4.24845 3.27315 3.80526 3.27315 3.53191 3.54774C3.25857 3.82234 3.25857 4.26751 3.53191 4.5421L5.51159 6.53082C5.78489 6.80541 6.22813 6.80541 6.50143 6.53082C6.77478 6.25622 6.77478 5.81105 6.50143 5.53646Z" fill="#707376"/>
<path d="M3.54631 11.2969H0.699929C0.313382 11.2969 0 11.6117 0 12C0 12.3883 0.313382 12.7031 0.699929 12.7031H3.54631C3.93285 12.7031 4.24624 12.3883 4.24624 12C4.24624 11.6117 3.93285 11.2969 3.54631 11.2969Z" fill="#707376"/>
<path d="M23.191 11.2969H20.3446C19.958 11.2969 19.6447 11.6117 19.6447 12C19.6447 12.3883 19.958 12.7031 20.3446 12.7031H23.191C23.5775 12.7031 23.8909 12.3883 23.8909 12C23.8909 11.6117 23.5775 11.2969 23.191 11.2969Z" fill="#707376"/>
<path d="M20.3595 3.54774C20.0862 3.27315 19.643 3.27315 19.3696 3.54774L17.3899 5.53646C17.1166 5.81105 17.1166 6.25622 17.3899 6.53082C17.6632 6.80541 18.1065 6.80541 18.3798 6.53082L20.3595 4.5421C20.6328 4.26751 20.6328 3.82234 20.3595 3.54774Z" fill="#707376"/>
<path d="M11.9454 0C11.5589 0 11.2455 0.314812 11.2455 0.703125V3.5625C11.2455 3.95081 11.5589 4.26562 11.9454 4.26562C12.332 4.26562 12.6453 3.95081 12.6453 3.5625V0.703125C12.6453 0.314812 12.332 0 11.9454 0Z" fill="#707376"/>
<path d="M15.8582 7.04089C14.3413 5.83147 12.3659 5.3968 10.4385 5.84816C8.19745 6.37307 6.39341 8.15839 5.84256 10.3965C5.28995 12.6417 5.9224 14.9303 7.53443 16.5184C8.11323 17.0886 8.44518 17.9495 8.44518 18.8802V19.0313C8.44518 19.6545 8.71586 20.2153 9.14511 20.6018V21.8907C9.14511 23.0538 10.0871 24 11.2449 24H12.6448C13.8026 24 14.7445 23.0538 14.7445 21.8907V20.6018C15.1738 20.2153 15.4445 19.6546 15.4445 19.0313V18.8774C15.4445 17.9613 15.7942 17.0837 16.404 16.4699C17.5906 15.2752 18.2442 13.6878 18.2442 12C18.2442 10.0574 17.3745 8.24985 15.8582 7.04089ZM13.3447 21.8907C13.3447 22.2784 13.0307 22.5938 12.6448 22.5938H11.2449C10.859 22.5938 10.545 22.2784 10.545 21.8907V21.1407H13.3447V21.8907ZM15.413 15.4766C14.5434 16.352 14.0446 17.5917 14.0446 18.8774V19.0313C14.0446 19.419 13.7306 19.7344 13.3447 19.7344H12.6448V15.4267C13.8509 15.1137 14.7445 14.0113 14.7445 12.7032C14.7445 12.3148 14.4312 12 14.0446 12C13.6581 12 13.3447 12.3148 13.3447 12.7032C13.3447 13.4786 12.7167 14.1094 11.9448 14.1094C11.1729 14.1094 10.545 13.4786 10.545 12.7032C10.545 12.3148 10.2316 12 9.84504 12C9.45849 12 9.14511 12.3148 9.14511 12.7032C9.14511 14.0113 10.0387 15.1137 11.2449 15.4267V19.7344H10.545C10.159 19.7344 9.84504 19.419 9.84504 19.0313V18.8802C9.84504 17.5741 9.36008 16.3473 8.51457 15.5143C7.25987 14.2782 6.76899 12.4912 7.2015 10.734C7.62729 9.00392 9.02267 7.62369 10.7564 7.21766C11.149 7.12569 11.5438 7.0805 11.9339 7.0805C13.0432 7.0805 14.1148 7.44618 14.988 8.14236C16.1677 9.083 16.8443 10.4891 16.8443 12C16.8443 13.3127 16.336 14.5474 15.413 15.4766Z" fill="#707376"/>
</g>
<defs>
<clipPath id="clip0">
<rect width="23.8909" height="24" fill="white"/>
</clipPath>
</defs>
</svg>
