<svg width="16" height="16" viewBox="0 0 16 16" fill="none" xmlns="http://www.w3.org/2000/svg">
<g clip-path="url(#clip0)">
<path d="M8 0.00146484C3.5888 0.00146484 0 3.59012 0 8.00103C0 12.412 3.5888 16.0006 8 16.0006C12.4112 16.0006 16 12.412 16 8.00103C16 3.59012 12.4112 0.00146484 8 0.00146484ZM8 14.5461C4.39084 14.5461 1.45455 11.61 1.45455 8.00108C1.45455 4.39211 4.39084 1.45601 8 1.45601C11.6092 1.45601 14.5455 4.39211 14.5455 8.00103C14.5455 11.6101 11.6092 14.5461 8 14.5461Z" fill="#B1B5B9"/>
<path d="M7.99998 6.30371C7.59833 6.30371 7.27271 6.62934 7.27271 7.03098V11.8786C7.27271 12.2803 7.59833 12.6059 7.99998 12.6059C8.40163 12.6059 8.72725 12.2803 8.72725 11.8786V7.03098C8.72725 6.62938 8.40163 6.30371 7.99998 6.30371Z" fill="#B1B5B9"/>
<path d="M7.99998 3.39453C7.80846 3.39453 7.62126 3.47211 7.48555 3.60738C7.35028 3.74265 7.27271 3.93029 7.27271 4.1218C7.27271 4.31332 7.35028 4.50047 7.48555 4.63623C7.62083 4.7715 7.80846 4.84908 7.99998 4.84908C8.19149 4.84908 8.37864 4.7715 8.51435 4.63623C8.64963 4.50047 8.72725 4.31332 8.72725 4.1218C8.72725 3.93029 8.64963 3.74265 8.51435 3.60738C8.37864 3.47206 8.19149 3.39453 7.99998 3.39453Z" fill="#B1B5B9"/>
</g>
<defs>
<clipPath id="clip0">
<rect width="16" height="16" fill="white"/>
</clipPath>
</defs>
</svg>
