<svg width="28" height="28" viewBox="0 0 28 28" fill="none" xmlns="http://www.w3.org/2000/svg">
<path d="M8.281 13.2309L13.2309 8.281C13.573 7.93887 14.1268 7.93887 14.4681 8.281C14.8102 8.62313 14.8102 9.177 14.4681 9.51826L10.8622 13.125H20.125C20.608 13.125 21 13.517 21 14C21 14.483 20.608 14.875 20.125 14.875H10.8623L14.4681 18.4809C14.8103 18.823 14.8103 19.3769 14.4681 19.7181C14.126 20.0603 13.5721 20.0603 13.2309 19.7181L8.28105 14.7683C8.07105 14.5583 8.00631 14.2713 8.05352 13.9991C8.00626 13.7287 8.07187 13.4409 8.281 13.2309ZM14 0C21.7324 0 28 6.26761 28 14C28 21.7324 21.7324 28 14 28C6.26761 28 0 21.7315 0 14C0 6.26852 6.26761 0 14 0ZM14 26.25C20.7655 26.25 26.25 20.7655 26.25 14C26.25 7.23448 20.7655 1.75 14 1.75C7.23448 1.75 1.75 7.23448 1.75 14C1.75 20.7655 7.23448 26.25 14 26.25Z" fill="black"/>
</svg>
