<svg width="24" height="18" viewBox="0 0 24 18" fill="none" xmlns="http://www.w3.org/2000/svg">
<path d="M21.0533 0.428467H2.94623C1.79412 0.428467 0.856934 1.38969 0.856934 2.57134V15.4285C0.856934 16.6101 1.79412 17.5713 2.94623 17.5713H21.0533C22.2055 17.5713 23.1426 16.6101 23.1426 15.4285V2.57134C23.1426 1.38969 22.2055 0.428467 21.0533 0.428467ZM21.0533 1.85703C21.148 1.85703 21.238 1.87717 21.3203 1.91233L11.9998 10.1976L2.67926 1.91233C2.76155 1.87721 2.85157 1.85703 2.94619 1.85703H21.0533ZM21.0533 16.1427H2.94623C2.56198 16.1427 2.24978 15.8226 2.24978 15.4284V3.42162L11.5434 11.6826C11.6747 11.7991 11.8372 11.857 11.9998 11.857C12.1623 11.857 12.3249 11.7991 12.4562 11.6826L21.7498 3.42162V15.4285C21.7498 15.8226 21.4376 16.1427 21.0533 16.1427Z" fill="white"/>
</svg>
