<svg width="24" height="24" viewBox="0 0 24 24" fill="none" xmlns="http://www.w3.org/2000/svg">
<g clip-path="url(#clip0)">
<path d="M12.0002 5.50457C13.5315 5.50457 14.7775 4.25864 14.7775 2.72731C14.7775 1.19598 13.5315 -0.05 12.0002 -0.05C10.4689 -0.05 9.22295 1.19593 9.22295 2.72726C9.22295 4.25859 10.4688 5.50457 12.0002 5.50457ZM12.0002 1.14089C12.8749 1.14089 13.5866 1.85252 13.5866 2.72726C13.5866 3.602 12.8749 4.31362 12.0002 4.31362C11.1255 4.31362 10.4138 3.602 10.4138 2.72726C10.4138 1.85252 11.1255 1.14089 12.0002 1.14089Z" fill="black" stroke="black" stroke-width="0.1"/>
<path d="M8.24371 7.08244L8.24371 7.08244C7.49991 7.52106 7.04082 8.37093 7.04082 9.2983V9.64772C7.04082 10.3674 7.58383 10.9591 8.25949 10.9591H15.7403C16.416 10.9591 16.959 10.3673 16.959 9.64772V9.2983C16.959 8.37093 16.4999 7.52111 15.7561 7.08245L15.7307 7.12551L15.7561 7.08244C14.8817 6.56685 13.5185 5.95 11.9999 5.95C10.4813 5.95 9.11813 6.56691 8.24371 7.08244ZM8.23171 9.2983C8.23171 8.79359 8.47677 8.32789 8.84845 8.10822L8.8485 8.10819C9.59906 7.66581 10.7532 7.14089 11.9999 7.14089C13.2466 7.14089 14.4008 7.66588 15.1514 8.10822C15.523 8.32789 15.7681 8.79354 15.7681 9.2983V9.64772C15.7681 9.69467 15.7549 9.72814 15.7418 9.74898C15.7363 9.75781 15.731 9.76413 15.7269 9.76815H8.27291C8.26888 9.76413 8.26353 9.75779 8.25801 9.74895C8.24497 9.72811 8.23171 9.69463 8.23171 9.64772V9.2983Z" fill="black" stroke="black" stroke-width="0.1"/>
<path d="M4.9089 18.5955C6.44023 18.5955 7.68615 17.3496 7.68615 15.8183C7.68615 14.2869 6.44023 13.0409 4.9089 13.0409C3.37757 13.0409 2.13164 14.2869 2.13164 15.8182C2.13164 17.3495 3.37757 18.5955 4.9089 18.5955ZM4.9089 14.2318C5.78363 14.2318 6.49526 14.9435 6.49526 15.8182C6.49526 16.6929 5.78363 17.4046 4.9089 17.4046C4.03416 17.4046 3.32253 16.6929 3.32253 15.8182C3.32253 14.9435 4.03416 14.2318 4.9089 14.2318Z" fill="black" stroke="black" stroke-width="0.1"/>
<path d="M8.65102 22.8399C8.66405 22.8191 8.67729 22.7856 8.67729 22.7387V22.3892C8.67729 21.8845 8.43223 21.4188 8.06056 21.1992C7.31 20.7568 6.15583 20.2318 4.90909 20.2318C3.66238 20.2318 2.50824 20.7567 1.75768 21.1991L8.65102 22.8399ZM8.65102 22.8399C8.64549 22.8488 8.64016 22.8551 8.63613 22.8591M8.65102 22.8399L8.63613 22.8591M8.63613 22.8591H1.18209C1.17806 22.8551 1.17272 22.8487 1.16719 22.8399C1.15415 22.819 1.14089 22.7856 1.14089 22.7387V22.3892C1.14089 21.8845 1.38596 21.4188 1.75763 21.1992L8.63613 22.8591ZM1.15289 20.1734L1.15289 20.1734C0.409096 20.612 -0.05 21.4618 -0.05 22.3892V22.7386C-0.05 23.4582 0.493008 24.05 1.16867 24.05H8.64952C9.32518 24.05 9.86819 23.4582 9.86819 22.7386V22.3892C9.86819 21.4618 9.40909 20.612 8.6653 20.1734L8.6399 20.2165L8.6653 20.1734C7.79087 19.6578 6.42773 19.0409 4.90909 19.0409C3.39045 19.0409 2.02731 19.6578 1.15289 20.1734Z" fill="black" stroke="black" stroke-width="0.1"/>
<path d="M19.091 18.5955C20.6224 18.5955 21.8683 17.3496 21.8683 15.8183C21.8683 14.2869 20.6224 13.0409 19.091 13.0409C17.5596 13.0409 16.3138 14.2869 16.3138 15.8182C16.3138 17.3495 17.5597 18.5955 19.091 18.5955ZM19.091 14.2318C19.9658 14.2318 20.6774 14.9435 20.6774 15.8182C20.6774 16.6929 19.9658 17.4046 19.091 17.4046C18.2163 17.4046 17.5047 16.6929 17.5047 15.8182C17.5047 14.9435 18.2163 14.2318 19.091 14.2318Z" fill="black" stroke="black" stroke-width="0.1"/>
<path d="M22.8331 22.8399C22.8461 22.8191 22.8594 22.7856 22.8594 22.7387V22.3892C22.8594 21.8845 22.6143 21.4188 22.2426 21.1992C21.4921 20.7568 20.3379 20.2318 19.0912 20.2318C17.8445 20.2318 16.6903 20.7568 15.9398 21.1991L22.8331 22.8399ZM22.8331 22.8399C22.8276 22.8488 22.8222 22.8551 22.8182 22.8591M22.8331 22.8399L22.8182 22.8591M22.8182 22.8591H15.3642C15.3601 22.8551 15.3548 22.8487 15.3493 22.8399C15.3362 22.8191 15.323 22.7856 15.323 22.7387V22.3892C15.323 21.8845 15.568 21.4188 15.9397 21.1992L22.8182 22.8591ZM15.335 20.1734L15.335 20.1734C14.5912 20.612 14.1321 21.4619 14.1321 22.3892V22.7387C14.1321 23.4583 14.6751 24.05 15.3508 24.05H22.8317C23.5073 24.05 24.0503 23.4583 24.0503 22.7387V22.3892C24.0503 21.4618 23.5912 20.612 22.8474 20.1734L22.822 20.2165L22.8474 20.1734C21.973 19.6578 20.6099 19.0409 19.0912 19.0409C17.5726 19.0409 16.2094 19.6578 15.335 20.1734Z" fill="black" stroke="black" stroke-width="0.1"/>
<path d="M14.7266 18.5455C14.8869 18.5455 15.0451 18.4751 15.1533 18.3409C15.3413 18.1055 15.3029 17.7624 15.068 17.5739L12.5453 15.5557V12.5455C12.5453 12.244 12.3013 12 11.9998 12C11.6983 12 11.4544 12.2439 11.4544 12.5454V15.5561L8.93165 17.5738C8.69673 17.7624 8.65838 18.1054 8.84641 18.3409C8.95456 18.4751 9.11273 18.5454 9.27309 18.5454C9.39239 18.5454 9.51282 18.5065 9.61345 18.4261L11.9998 16.517L14.3862 18.4261C14.4869 18.5065 14.6072 18.5455 14.7266 18.5455Z" fill="black"/>
</g>
<defs>
<clipPath id="clip0">
<rect width="24" height="24" fill="white"/>
</clipPath>
</defs>
</svg>
