<svg width="124" height="28" viewBox="0 0 124 28" fill="none" xmlns="http://www.w3.org/2000/svg">
<path d="M20.978 2.93168C20.978 1.33175 22.3391 0 24.0311 0C25.7044 0 27.0842 1.33175 27.0842 2.93168C27.0842 4.56862 25.7044 5.8806 24.0311 5.8806C22.3391 5.8806 20.978 4.56862 20.978 2.93168ZM9.82138 22.7732C12.4466 22.7732 14.5275 20.6858 14.5275 17.7187C14.5275 14.7154 12.5007 12.6461 9.8224 12.6461C6.99864 12.6461 5.09794 14.8249 5.09794 17.7187C5.09794 20.5578 7.05273 22.7742 9.8224 22.7742L9.82138 22.7732ZM0.193359 17.7187C0.193359 12.2434 4.06671 8.23284 9.8224 8.23284C15.451 8.23284 19.4514 12.0968 19.4514 17.7187C19.4514 23.3235 15.451 27.1684 9.8224 27.1684C4.06671 27.1684 0.193359 23.1769 0.193359 17.7187ZM21.5651 26.8155V8.46806H26.4971V26.8155H21.5651ZM51.6995 8.23284C55.625 8.23284 58.085 10.6086 58.085 16.141V26.6979H53.2375V17.3196C53.2375 14.4182 52.3507 12.6044 50.0717 12.6044C48.0278 12.6044 46.3817 14.3635 46.3817 17.6106V26.6979H41.5336V17.3207C41.5336 14.4182 40.5933 12.6044 38.3327 12.6044C36.1618 12.6044 34.5152 14.3635 34.5152 17.6106V26.68H29.6676V8.5417H34.5152V10.9359H34.5703C35.9986 9.1768 37.9701 8.23335 39.9783 8.23335C42.3659 8.23335 44.2471 9.1405 45.3506 11.1532H45.4046C46.8881 9.24942 49.1135 8.23335 51.6995 8.23335V8.23284ZM64.91 15.7593H72.8852C72.3963 13.8181 71.0764 12.5542 68.9784 12.5542C67.008 12.5542 65.4703 13.6348 64.91 15.7593ZM77.6954 17.5354C77.6954 18.1214 77.6592 18.964 77.569 19.2934H64.8927C65.4703 21.4732 67.1889 22.7918 69.5035 22.8098C71.4016 22.8284 72.8312 21.9672 73.8253 20.7405L76.972 23.7077C75.4343 25.6856 72.795 27.1684 69.1594 27.1684C63.8608 27.1684 59.8465 23.3963 59.8465 17.6825C59.8465 12.1154 63.6803 8.23284 68.8163 8.23284C74.1333 8.23284 77.6954 12.1696 77.6954 17.5359V17.5354ZM90.3917 8.23284C94.2604 8.23284 96.9535 10.3371 96.9535 15.9236V26.6979H92.109V17.1386C92.109 13.6747 90.8799 12.6039 88.6388 12.6039C86.1801 12.6039 84.5362 14.3272 84.5362 17.5559V26.6795H79.6917V8.54068H84.5362V10.8812H84.5897C86.0715 9.13947 88.169 8.23284 90.3922 8.23284H90.3917ZM121.356 24.2988H121.588C121.859 24.2988 122.078 24.2064 122.078 23.9826C122.078 23.7843 121.936 23.6529 121.627 23.6529C121.497 23.6529 121.408 23.6659 121.356 23.6789V24.2988ZM121.343 25.5252H120.853V23.3627C121.047 23.3232 121.317 23.2967 121.665 23.2967C122.065 23.2967 122.246 23.3627 122.4 23.4551C122.516 23.5475 122.607 23.7189 122.607 23.9297C122.607 24.1669 122.426 24.3518 122.168 24.4307V24.4572C122.375 24.5361 122.49 24.6945 122.555 24.9847C122.619 25.3144 122.658 25.4458 122.71 25.5252H122.181C122.117 25.4458 122.078 25.2485 122.014 24.9977C121.975 24.7604 121.846 24.655 121.576 24.655H121.343V25.5252ZM120.041 24.3913C120.041 25.3539 120.737 26.1182 121.691 26.1182C122.619 26.1182 123.303 25.3539 123.303 24.4042C123.303 23.4416 122.619 22.6638 121.678 22.6638C120.737 22.6638 120.041 23.4416 120.041 24.3913ZM123.844 24.3913C123.844 25.6177 122.903 26.5803 121.678 26.5803C120.466 26.5803 119.5 25.6177 119.5 24.3913C119.5 23.1913 120.466 22.2287 121.678 22.2287C122.903 22.2287 123.844 23.1913 123.844 24.3913ZM113.863 12.1066C113.863 10.7616 114.962 9.64418 116.329 9.64418C118.28 9.64418 119.738 11.9748 118.059 13.9537C118.007 14.0147 117.942 14.0711 117.875 14.113C115.9 15.3452 113.863 13.9775 113.863 12.1066ZM99.5369 12.1066C99.5369 10.7616 100.636 9.64418 102.003 9.64418C103.954 9.64418 105.412 11.9748 103.733 13.9537C103.681 14.0147 103.616 14.0711 103.549 14.113C101.573 15.3452 99.5369 13.9775 99.5369 12.1066ZM113.869 17.5242H118.794C118.794 17.5303 118.795 17.536 118.795 17.5421C118.795 23.112 114.794 26.9331 109.166 26.9331C103.41 26.9331 99.5369 22.9664 99.5369 17.5421C99.5369 17.536 99.5374 17.5303 99.5374 17.5242H104.443C104.443 17.5303 104.442 17.5355 104.442 17.5421C104.442 20.3634 106.396 22.5656 109.166 22.5656L109.165 22.5651C111.79 22.5651 113.871 20.4905 113.871 17.5421C113.871 17.5355 113.869 17.5303 113.869 17.5242Z" fill="white"/>
</svg>
