<svg width="28" height="28" viewBox="0 0 28 28" fill="none" xmlns="http://www.w3.org/2000/svg">
<path d="M25.5391 0.0546875H2.46094C1.10398 0.0546875 0 1.15866 0 2.51562V25.4844C0 26.8413 1.10398 27.9453 2.46094 27.9453H25.5391C26.896 27.9453 28 26.8413 28 25.4844V2.51562C28 1.15866 26.896 0.0546875 25.5391 0.0546875ZM2.46094 1.69531H25.5391C25.9914 1.69531 26.3594 2.0633 26.3594 2.51562V6.61719H1.64062V2.51562C1.64062 2.0633 2.00862 1.69531 2.46094 1.69531ZM25.5391 26.3047H2.46094C2.00862 26.3047 1.64062 25.9367 1.64062 25.4844V8.25781H26.3594V25.4844C26.3594 25.9367 25.9914 26.3047 25.5391 26.3047Z" fill="black"/>
<path d="M23.8438 9.89844H17.2812C16.8282 9.89844 16.4609 10.2657 16.4609 10.7188V14C16.4609 14.453 16.8282 14.8203 17.2812 14.8203H23.8438C24.2968 14.8203 24.6641 14.453 24.6641 14V10.7188C24.6641 10.2657 24.2968 9.89844 23.8438 9.89844ZM23.0234 13.1797H18.1016V11.5391H23.0234V13.1797Z" fill="#38369A"/>
<path d="M23.8438 16.4609H17.2812C16.8282 16.4609 16.4609 16.8282 16.4609 17.2812C16.4609 17.7343 16.8282 18.1016 17.2812 18.1016H23.8438C24.2968 18.1016 24.6641 17.7343 24.6641 17.2812C24.6641 16.8282 24.2968 16.4609 23.8438 16.4609Z" fill="#38369A"/>
<path d="M23.8438 19.7422H17.2812C16.8282 19.7422 16.4609 20.1095 16.4609 20.5625C16.4609 21.0155 16.8282 21.3828 17.2812 21.3828H23.8438C24.2968 21.3828 24.6641 21.0155 24.6641 20.5625C24.6641 20.1095 24.2968 19.7422 23.8438 19.7422Z" fill="#38369A"/>
<path d="M23.8438 23.0234H17.2812C16.8282 23.0234 16.4609 23.3907 16.4609 23.8438C16.4609 24.2968 16.8282 24.6641 17.2812 24.6641H23.8438C24.2968 24.6641 24.6641 24.2968 24.6641 23.8438C24.6641 23.3907 24.2968 23.0234 23.8438 23.0234Z" fill="#38369A"/>
<path d="M14 9.84375H4.10156C3.64853 9.84375 3.28125 10.211 3.28125 10.6641C3.28125 11.1171 3.64853 11.4844 4.10156 11.4844H14C14.453 11.4844 14.8203 11.1171 14.8203 10.6641C14.8203 10.211 14.453 9.84375 14 9.84375Z" fill="#38369A"/>
<path d="M13.9991 23.0234H4.97565V20.9726L7.46448 19.106L9.44253 20.4247C9.73975 20.6228 10.131 20.6059 10.41 20.3827L14.5116 17.1014C14.8653 16.8184 14.9227 16.3022 14.6396 15.9485C14.3567 15.5948 13.8405 15.5373 13.4867 15.8204L9.85351 18.7269L7.89165 17.419C7.60229 17.2261 7.22265 17.2367 6.94446 17.4453L4.97571 18.9219V14C4.97571 13.547 4.60843 13.1797 4.1554 13.1797C3.70236 13.1797 3.33508 13.547 3.33508 14V23.8438C3.33508 24.2968 3.70236 24.6641 4.1554 24.6641H13.9991C14.4522 24.6641 14.8195 24.2968 14.8195 23.8438C14.8195 23.3907 14.4521 23.0234 13.9991 23.0234Z" fill="#38369A"/>
<path d="M4.15625 4.97656C4.6093 4.97656 4.97656 4.6093 4.97656 4.15625C4.97656 3.7032 4.6093 3.33594 4.15625 3.33594C3.7032 3.33594 3.33594 3.7032 3.33594 4.15625C3.33594 4.6093 3.7032 4.97656 4.15625 4.97656Z" fill="black"/>
<path d="M7.4375 4.97656C7.89055 4.97656 8.25781 4.6093 8.25781 4.15625C8.25781 3.7032 7.89055 3.33594 7.4375 3.33594C6.98445 3.33594 6.61719 3.7032 6.61719 4.15625C6.61719 4.6093 6.98445 4.97656 7.4375 4.97656Z" fill="black"/>
<path d="M10.7188 4.97656C11.1718 4.97656 11.5391 4.6093 11.5391 4.15625C11.5391 3.7032 11.1718 3.33594 10.7188 3.33594C10.2657 3.33594 9.89844 3.7032 9.89844 4.15625C9.89844 4.6093 10.2657 4.97656 10.7188 4.97656Z" fill="black"/>
<path d="M18.9219 4.97656H23.8438C24.2968 4.97656 24.6641 4.60928 24.6641 4.15625C24.6641 3.70322 24.2968 3.33594 23.8438 3.33594H18.9219C18.4688 3.33594 18.1016 3.70322 18.1016 4.15625C18.1016 4.60928 18.4688 4.97656 18.9219 4.97656Z" fill="black"/>
</svg>
