<svg width="28" height="28" viewBox="0 0 28 28" fill="none" xmlns="http://www.w3.org/2000/svg">
<path d="M26.473 1.52704C25.4883 0.542391 24.179 0.000109375 22.7865 0.000109375L5.21358 0C2.33877 0.000164062 0 2.33898 5.46875e-05 5.21358L0 22.7865C5.46875e-05 25.6612 2.33887 28 5.21363 28H22.7865C25.6612 28 28 25.6612 28 22.7865V5.21363C28 3.82102 27.4577 2.51174 26.473 1.52704ZM26.3594 22.7865C26.3594 24.7566 24.7566 26.3594 22.7865 26.3594H5.21363C3.24352 26.3594 1.64068 24.7565 1.64062 22.7865L1.64068 5.21352C1.64062 3.24352 3.24346 1.64073 5.21363 1.64062L22.7865 1.64073C23.7408 1.64073 24.6381 2.01234 25.3129 2.68713C25.9878 3.36197 26.3594 4.25923 26.3594 5.21363V22.7865Z" fill="black"/>
<path d="M18.9296 11.8942C18.6093 11.5739 18.0899 11.5738 17.7695 11.8942L14.8209 14.8429L14.8208 6.09229C14.8208 5.63925 14.4536 5.27197 14.0005 5.27197C13.5475 5.27197 13.1802 5.63925 13.1802 6.09229L13.1803 14.8431L10.2314 11.8943C9.91111 11.5739 9.39168 11.5739 9.07132 11.8943C8.75096 12.2147 8.75096 12.734 9.07132 13.0544L13.4205 17.4035C13.5744 17.5574 13.783 17.6438 14.0005 17.6438C14.2181 17.6438 14.4268 17.5573 14.5806 17.4035L18.9297 13.0543C19.25 12.7339 19.25 12.2146 18.9296 11.8942Z" fill="#38369A"/>
<path d="M21.908 21.0874H6.09241C5.63938 21.0874 5.27209 21.4547 5.27209 21.9077C5.27209 22.3607 5.63938 22.728 6.09241 22.728H21.908C22.3611 22.728 22.7283 22.3607 22.7283 21.9077C22.7283 21.4546 22.3611 21.0874 21.908 21.0874Z" fill="#38369A"/>
</svg>
