<svg width="32" height="32" viewBox="0 0 32 32" fill="none" xmlns="http://www.w3.org/2000/svg">
<path d="M31.5276 12.6861L27.1526 10.1861C26.8644 10.0213 26.5106 10.0213 26.2224 10.1861L23.5031 11.7399L20.2642 9.58056L20.8401 9.25144C21.1322 9.08456 21.3125 8.77388 21.3125 8.4375V3.4375C21.3125 3.10106 21.1322 2.79044 20.8401 2.62356L16.4651 0.123562C16.1769 -0.0411875 15.8231 -0.0411875 15.5349 0.123562L11.1599 2.62356C10.8678 2.79044 10.6875 3.10106 10.6875 3.4375V8.4375C10.6875 8.77394 10.8678 9.08456 11.1599 9.25144L11.7358 9.58056L8.49687 11.7399L5.77763 10.1861C5.48944 10.0213 5.13562 10.0213 4.84737 10.1861L0.472375 12.6861C0.18025 12.8529 0 13.1636 0 13.5V18.5C0 18.8364 0.18025 19.1471 0.472375 19.3139L4.84737 21.8139C4.9915 21.8964 5.152 21.9375 5.3125 21.9375C5.473 21.9375 5.6335 21.8963 5.77763 21.8139L8.49694 20.2601L11.7359 22.4194L11.1599 22.7486C10.8678 22.9154 10.6875 23.2261 10.6875 23.5625V28.5625C10.6875 28.8989 10.8678 29.2096 11.1599 29.3764L15.5349 31.8764C15.679 31.9588 15.8395 32 16 32C16.1605 32 16.321 31.9588 16.4651 31.8764L20.8401 29.3764C21.1322 29.2096 21.3125 28.8989 21.3125 28.5625V23.5625C21.3125 23.2261 21.1322 22.9154 20.8401 22.7486L20.2641 22.4194L23.5031 20.2601L26.2224 21.8139C26.3666 21.8963 26.5271 21.9375 26.6876 21.9375C26.8481 21.9375 27.0086 21.8963 27.1527 21.8139L31.5277 19.3139C31.8198 19.1471 32.0001 18.8364 32.0001 18.5V13.5C32 13.1636 31.8197 12.8529 31.5276 12.6861ZM26.6875 12.0798L29.1729 13.5L26.6875 14.9202L24.2021 13.5L26.6875 12.0798ZM23.25 17.9559V15.1155L25.75 16.5441V19.3846L23.25 17.9559ZM12.5625 7.89344V5.053L15.0625 6.48156V9.32206L12.5625 7.89344ZM16.9375 6.48156L19.4375 5.053V7.89344L16.9375 9.322V6.48156ZM16 2.01731L18.4854 3.4375L16 4.85775L13.5146 3.4375L16 2.01731ZM6.25 16.5441L8.75 15.1155V17.9559L6.25 19.3845V16.5441ZM5.3125 12.0798L7.79794 13.5L5.3125 14.9202L2.82713 13.5L5.3125 12.0798ZM1.875 15.1155L4.375 16.5441V19.3846L1.875 17.956V15.1155ZM18.4854 23.5625L16 24.9827L13.5146 23.5625L16 22.1423L18.4854 23.5625ZM12.5625 25.178L15.0625 26.6066V29.4471L12.5625 28.0185V25.178ZM16.9375 29.4471V26.6066L19.4375 25.178V28.0184L16.9375 29.4471ZM16.4651 20.2486C16.1769 20.0838 15.8231 20.0838 15.5349 20.2486L13.556 21.3794L10.3006 19.2091C10.5043 19.0329 10.6249 18.7752 10.6249 18.5V13.5C10.6249 13.2249 10.5042 12.9671 10.3005 12.7909L13.5559 10.6206L15.5348 11.7514C15.6789 11.8338 15.8394 11.875 15.9999 11.875C16.1604 11.875 16.3209 11.8338 16.4651 11.7514L18.4441 10.6206L21.6994 12.7909C21.4958 12.9671 21.375 13.2248 21.375 13.5V18.5C21.375 18.7751 21.4957 19.0329 21.6994 19.2091L18.444 21.3794L16.4651 20.2486ZM27.625 19.3846V16.5441L30.125 15.1155V17.9559L27.625 19.3846Z" fill="black"/>
</svg>
