<svg width="25" height="32" viewBox="0 0 25 32" fill="none" xmlns="http://www.w3.org/2000/svg">
<path d="M23.5932 0H1.56309C1.01913 0 0.578125 0.41975 0.578125 0.9375V31.0625C0.578125 31.5802 1.01913 32 1.56309 32H23.5932C24.1371 32 24.5781 31.5802 24.5781 31.0625V0.9375C24.5781 0.41975 24.1371 0 23.5932 0ZM22.6082 30.125H2.54806V1.875H22.6082V30.125Z" fill="black"/>
<path d="M6.79454 7.68951H18.1385C18.6825 7.68951 19.1235 7.26976 19.1235 6.75201C19.1235 6.23426 18.6825 5.81451 18.1385 5.81451H6.79454C6.25057 5.81451 5.80957 6.23426 5.80957 6.75201C5.80957 7.26976 6.25051 7.68951 6.79454 7.68951Z" fill="black"/>
<path d="M11.6846 13.878C11.6846 14.3958 12.1256 14.8155 12.6695 14.8155H19.6799C20.2239 14.8155 20.6649 14.3958 20.6649 13.878C20.6649 13.3603 20.2239 12.9405 19.6799 12.9405H12.6695C12.1256 12.9405 11.6846 13.3603 11.6846 13.878Z" fill="black"/>
<path d="M5.64715 14.5409C5.83948 14.7239 6.09156 14.8155 6.34358 14.8155C6.59561 14.8155 6.84776 14.7239 7.04002 14.5409L8.98415 12.6904C9.36881 12.3244 9.36881 11.7308 8.98415 11.3646C8.59956 10.9986 7.97587 10.9986 7.59121 11.3646L6.42816 12.4716L6.29283 12.5039L5.87573 12.107C5.49106 11.7408 4.86745 11.7409 4.48278 12.107C4.09819 12.4731 4.09819 13.0667 4.48278 13.4328L5.64715 14.5409Z" fill="black"/>
<path d="M19.6799 18.7616H12.6695C12.1256 18.7616 11.6846 19.1813 11.6846 19.6991C11.6846 20.2168 12.1256 20.6366 12.6695 20.6366H19.6799C20.2239 20.6366 20.6649 20.2168 20.6649 19.6991C20.6649 19.1813 20.2239 18.7616 19.6799 18.7616Z" fill="black"/>
<path d="M5.64715 20.3619C5.83948 20.545 6.09156 20.6366 6.34358 20.6366C6.59561 20.6366 6.84776 20.545 7.04002 20.3619L8.98415 18.5115C9.36881 18.1454 9.36881 17.5518 8.98415 17.1857C8.59956 16.8196 7.97587 16.8196 7.59121 17.1857L6.42816 18.2927L6.29283 18.325L5.87573 17.9281C5.49106 17.5619 4.86745 17.562 4.48278 17.9281C4.09819 18.2942 4.09819 18.8877 4.48278 19.2539L5.64715 20.3619Z" fill="black"/>
<path d="M19.6799 24.5826H12.6695C12.1256 24.5826 11.6846 25.0023 11.6846 25.5201C11.6846 26.0378 12.1256 26.4576 12.6695 26.4576H19.6799C20.2239 26.4576 20.6649 26.0378 20.6649 25.5201C20.6649 25.0023 20.2239 24.5826 19.6799 24.5826Z" fill="black"/>
<path d="M5.64715 26.183C5.83948 26.3661 6.09156 26.4576 6.34358 26.4576C6.59561 26.4576 6.84776 26.3661 7.04002 26.183L8.98415 24.3326C9.36881 23.9665 9.36881 23.3729 8.98415 23.0068C8.59956 22.6407 7.97587 22.6407 7.59121 23.0068L6.42816 24.1138L6.29283 24.1461L5.87573 23.7491C5.49106 23.3829 4.86745 23.3831 4.48278 23.7491C4.09819 24.1153 4.09819 24.7088 4.48278 25.0749L5.64715 26.183Z" fill="black"/>
</svg>
