<svg width="32" height="32" viewBox="0 0 32 32" fill="none" xmlns="http://www.w3.org/2000/svg">
<path d="M11.5625 0H5.11163C4.86294 0 4.6245 0.09875 4.44875 0.274625L0.274625 4.44875C0.09875 4.6245 0 4.863 0 5.11163V16C0 16.5177 0.41975 16.9375 0.9375 16.9375H11.5625C12.0802 16.9375 12.5 16.5177 12.5 16V0.9375C12.5 0.41975 12.0802 0 11.5625 0ZM10.625 15.0625H1.875V5.49994L5.49994 1.875H10.625V15.0625Z" fill="black"/>
<path d="M31.0625 15.0625H24.6116C24.3629 15.0625 24.1245 15.1612 23.9487 15.3371L19.7746 19.5112C19.5988 19.6871 19.5 19.9255 19.5 20.1741V31.0625C19.5 31.5802 19.9197 32 20.4375 32H31.0625C31.5802 32 32 31.5802 32 31.0625V16C32 15.4822 31.5802 15.0625 31.0625 15.0625ZM30.125 30.125H21.375V20.5624L24.9999 16.9375H30.125V30.125Z" fill="black"/>
<path d="M12.875 23.2188C11.6528 23.2188 10.6108 24.0026 10.2238 25.0938H7.1875V21C7.1875 20.4822 6.76775 20.0625 6.25 20.0625C5.73225 20.0625 5.3125 20.4822 5.3125 21V26.0312C5.3125 26.549 5.73225 26.9688 6.25 26.9688H10.2238C10.6108 28.0599 11.6528 28.8438 12.875 28.8438C14.4258 28.8438 15.6875 27.5821 15.6875 26.0312C15.6875 24.4804 14.4258 23.2188 12.875 23.2188ZM12.875 26.9688C12.3581 26.9688 11.9375 26.5482 11.9375 26.0312C11.9375 25.5143 12.3581 25.0938 12.875 25.0938C13.3919 25.0938 13.8125 25.5143 13.8125 26.0312C13.8125 26.5482 13.3919 26.9688 12.875 26.9688Z" fill="black"/>
<path d="M25.75 5.03125H21.7763C21.3893 3.94006 20.3472 3.15625 19.125 3.15625C17.5742 3.15625 16.3125 4.41794 16.3125 5.96875C16.3125 7.51956 17.5742 8.78125 19.125 8.78125C20.3472 8.78125 21.3893 7.99744 21.7763 6.90625H24.8125V11C24.8125 11.5177 25.2323 11.9375 25.75 11.9375C26.2677 11.9375 26.6875 11.5177 26.6875 11V5.96875C26.6875 5.451 26.2677 5.03125 25.75 5.03125ZM19.125 6.90625C18.6081 6.90625 18.1875 6.48569 18.1875 5.96875C18.1875 5.45181 18.6081 5.03125 19.125 5.03125C19.6419 5.03125 20.0625 5.45181 20.0625 5.96875C20.0625 6.48569 19.6419 6.90625 19.125 6.90625Z" fill="black"/>
</svg>
