<svg width="24" height="24" viewBox="0 0 24 24" fill="none" xmlns="http://www.w3.org/2000/svg">
<path d="M23.3466 17.6136L19.9973 14.2643C18.8012 13.0681 16.7677 13.5467 16.2892 15.1016C15.9304 16.1782 14.7342 16.7763 13.6576 16.537C11.2653 15.9389 8.03565 12.8289 7.43757 10.317C7.07872 9.24036 7.79642 8.04419 8.87297 7.68538C10.428 7.20691 10.9065 5.17343 9.71029 3.97726L6.36102 0.627989C5.40408 -0.209329 3.96868 -0.209329 3.13136 0.627989L0.858643 2.90071C-1.41408 5.29305 1.09788 11.6327 6.71987 17.2547C12.3419 22.8767 18.6816 25.5083 21.0739 23.116L23.3466 20.8432C24.184 19.8863 24.184 18.4509 23.3466 17.6136Z" fill="white"/>
</svg>
