<svg width="40" height="40" viewBox="0 0 40 40" fill="none" xmlns="http://www.w3.org/2000/svg">
<circle cx="20" cy="20" r="20" fill="#38369A"/>
<path d="M29.2188 22.7734C29.6502 22.7734 30 22.4237 30 21.9922V16.9141C30 15.1909 28.5981 13.7891 26.875 13.7891H25.689C25.3545 13.7891 25.0572 13.5763 24.9494 13.2595L24.713 12.5651C24.3896 11.615 23.498 10.9766 22.4943 10.9766H17.5032C16.519 10.9766 15.6331 11.5986 15.2989 12.5243L15.0284 13.2732C14.917 13.5817 14.6217 13.7891 14.2936 13.7891H13.125C11.4019 13.7891 10 15.1909 10 16.9141V25.8984C10 27.6216 11.4019 29.0234 13.125 29.0234H26.875C28.5981 29.0234 30 27.6216 30 25.8984C30 25.467 29.7172 18.5714 29.2857 18.5714C28.8542 18.5714 28.4375 25.467 28.4375 25.8984C28.4375 26.76 27.7366 27.4609 26.875 27.4609H13.125C12.2634 27.4609 11.5625 26.76 11.5625 25.8984V16.9141C11.5625 16.0525 12.2634 15.3516 13.125 15.3516H14.2936C15.2779 15.3516 16.1638 14.7296 16.498 13.8039L16.7684 13.055C16.8799 12.7464 17.1752 12.5391 17.5032 12.5391H22.4943C22.8289 12.5391 23.1261 12.7519 23.2339 13.0686L23.4703 13.763C23.7937 14.7132 24.6853 15.3516 25.689 15.3516H26.875C27.7366 15.3516 28.4375 16.0525 28.4375 16.9141V21.9922C28.4375 22.4237 28.7873 22.7734 29.2188 22.7734Z" fill="white"/>
<path d="M20.0391 16.1328C17.3467 16.1328 15.1562 18.3232 15.1562 21.0156C15.1562 23.708 17.3467 25.8984 20.0391 25.8984C22.7314 25.8984 24.9219 23.708 24.9219 21.0156C24.9219 18.3232 22.7314 16.1328 20.0391 16.1328ZM20.0391 24.3359C18.2082 24.3359 16.7188 22.8464 16.7188 21.0156C16.7188 19.1848 18.2082 17.6953 20.0391 17.6953C21.8699 17.6953 23.3594 19.1848 23.3594 21.0156C23.3594 22.8464 21.8699 24.3359 20.0391 24.3359Z" fill="white"/>
</svg>
