<svg width="23" height="22" viewBox="0 0 23 22" fill="none" xmlns="http://www.w3.org/2000/svg">
<path d="M19.4935 14.4978C18.9359 15.8842 18.0492 17.1125 16.9106 18.0757C15.772 19.0388 14.4162 19.7075 12.9613 20.0235C11.5064 20.3395 9.99669 20.2932 8.56373 19.8886C7.13077 19.4839 5.8181 18.7333 4.74018 17.7021C3.66226 16.6709 2.85181 15.3905 2.3795 13.9725C1.9072 12.5545 1.78738 11.0419 2.03049 9.56673C2.2736 8.09152 2.87226 6.69845 3.77427 5.50899C4.67627 4.31953 5.85424 3.36979 7.20546 2.74259" stroke="#828282" stroke-width="2" stroke-linecap="round"/>
<path d="M15.4374 1.67848C14.7936 1.41059 14.1229 1.2183 13.4386 1.10428C12.6215 0.968111 11.9454 1.65229 11.9454 2.48071L11.9454 8.64738C11.9454 9.47581 12.617 10.1474 13.4454 10.1474L19.5704 10.1474C20.3989 10.1474 21.0829 9.47145 20.9485 8.654C20.8352 7.96431 20.6434 7.28829 20.3758 6.63945C19.9173 5.5273 19.2451 4.51677 18.3978 3.66557C17.5504 2.81436 16.5445 2.13915 15.4374 1.67848Z" stroke="#828282" stroke-width="2" stroke-linecap="round"/>
</svg>
