<svg width="16" height="16" viewBox="0 0 16 16" fill="none" xmlns="http://www.w3.org/2000/svg">
<path d="M13.1427 7.99997C12.8271 7.99997 12.5712 8.2558 12.5712 8.5714V14.2856C12.5712 14.6012 12.3154 14.857 11.9998 14.857H1.71426C1.39866 14.857 1.14283 14.6012 1.14283 14.2856V2.85718C1.14283 2.54158 1.39866 2.28574 1.71426 2.28574H8.57131C8.88691 2.28574 9.14275 2.02991 9.14275 1.71431C9.14275 1.39871 8.88691 1.14291 8.57131 1.14291H1.71426C0.767501 1.14291 0 1.91041 0 2.85718V14.2856C0 15.2323 0.767501 15.9998 1.71426 15.9998H11.9998C12.9466 15.9998 13.7141 15.2323 13.7141 14.2856V8.57136C13.7141 8.2558 13.4583 7.99997 13.1427 7.99997Z" fill="#38369A"/>
<path d="M15.3594 0.64098C14.9491 0.230628 14.3926 0.000140441 13.8123 0.000207405C13.2317 -0.00146668 12.6746 0.229423 12.2655 0.641348L4.73869 8.1675C4.67625 8.23041 4.62914 8.30688 4.60098 8.39092L3.45815 11.8194C3.35841 12.1189 3.5203 12.4424 3.81972 12.5422C3.87781 12.5615 3.93865 12.5714 3.99985 12.5714C4.06119 12.5713 4.12216 12.5615 4.18042 12.5423L7.60895 11.3995C7.69315 11.3714 7.76966 11.324 7.83237 11.2612L15.3591 3.73445C16.2134 2.88027 16.2135 1.49527 15.3594 0.64098ZM14.5511 2.92701L7.12266 10.3555L4.90326 11.0966L5.6421 8.88006L13.0734 1.45161C13.482 1.04387 14.1437 1.04454 14.5515 1.45308C14.7462 1.64824 14.856 1.91245 14.8568 2.18817C14.8575 2.46536 14.7475 2.73134 14.5511 2.92701Z" fill="#38369A"/>
</svg>
