<svg width="23" height="22" viewBox="0 0 23 22" fill="none" xmlns="http://www.w3.org/2000/svg">
<g clip-path="url(#clip0)">
<path d="M22.8696 1.64247C22.8221 0.76857 22.1303 0.0736363 21.2604 0.025941C19.505 -0.0703949 16.0701 0.02332 12.7857 1.72991C11.1113 2.59994 9.34048 4.07502 7.92728 5.77692C7.90987 5.79789 7.89294 5.81899 7.87566 5.84L4.6685 6.08887C4.14059 6.12987 3.67039 6.40783 3.37841 6.85144L1.19038 10.176C0.968944 10.5125 0.933742 10.9335 1.09615 11.3023C1.25861 11.6712 1.59241 11.9282 1.98913 11.9899L4.69117 12.4104C4.68164 12.4631 4.67205 12.5158 4.66329 12.5686C4.57333 13.1092 4.75161 13.6649 5.14025 14.0553L8.90397 17.8362C9.22618 18.1599 9.66158 18.3384 10.1077 18.3384C10.1996 18.3384 10.292 18.3308 10.3839 18.3153C10.4365 18.3065 10.4889 18.2969 10.5415 18.2873L10.96 21.0017C11.0214 21.4003 11.2773 21.7356 11.6444 21.8988C11.7971 21.9667 11.9588 22.0002 12.1197 22.0002C12.3457 22.0002 12.57 21.9341 12.7656 21.8042L16.0751 19.6061C16.5167 19.3128 16.7934 18.8404 16.8341 18.3101L17.0818 15.0884C17.1027 15.071 17.1238 15.054 17.1447 15.0365C18.8389 13.6169 20.3073 11.838 21.1733 10.1559C22.8722 6.8563 22.9654 3.40569 22.8696 1.64247ZM15.3674 18.5308L12.2017 20.6334L11.7938 17.988C13.1317 17.5928 14.4553 16.9599 15.7162 16.112L15.5548 18.2108C15.5448 18.3417 15.4764 18.4584 15.3674 18.5308ZM9.81133 16.9247L6.04756 13.1438C5.95154 13.0473 5.90714 12.9117 5.92891 12.7811C6.0408 12.109 6.21468 11.4691 6.42991 10.8664L12.0772 16.5394C11.3566 16.7987 10.7111 16.9534 10.1723 17.0439C10.0421 17.0657 9.90735 17.0212 9.81133 16.9247ZM4.76735 7.37411L6.85658 7.21199C6.01249 8.47867 5.38244 9.80825 4.98905 11.1523L2.35574 10.7426L4.44882 7.5624C4.52094 7.45283 4.63707 7.38421 4.76735 7.37411ZM16.3228 14.0466C15.2863 14.9151 14.2801 15.5433 13.3527 15.9979L6.97001 9.58601C7.56277 8.36983 8.2862 7.3571 8.91266 6.60265C10.2205 5.02763 11.847 3.66892 13.3753 2.87486C16.3897 1.30852 19.5656 1.22417 21.1905 1.31303C21.4056 1.3248 21.5766 1.49663 21.5884 1.71272C21.6769 3.34502 21.5928 6.53545 20.0336 9.56367C19.2432 11.0989 17.8906 12.7328 16.3228 14.0466Z" fill="#707376"/>
<path d="M15.9972 10.1513C16.8186 10.1512 17.6402 9.83711 18.2655 9.20895C18.8715 8.6003 19.2051 7.79102 19.2051 6.93027C19.2051 6.06952 18.8714 5.26025 18.2655 4.6516C17.0148 3.39506 14.9796 3.39515 13.7289 4.6516C13.123 5.26025 12.7893 6.06952 12.7893 6.93027C12.7893 7.79102 13.123 8.6003 13.7289 9.20895C14.3543 9.83724 15.1756 10.1514 15.9972 10.1513ZM14.6362 5.56305C15.0114 5.18609 15.5043 4.99762 15.9971 4.99762C16.4901 4.99762 16.9829 5.18609 17.3582 5.56305C17.7217 5.92824 17.9219 6.41379 17.9219 6.93023C17.9219 7.44667 17.7217 7.93226 17.3582 8.29745C16.6077 9.05134 15.3866 9.0513 14.6361 8.29745C14.2726 7.93226 14.0724 7.44672 14.0724 6.93027C14.0724 6.41383 14.2726 5.92824 14.6362 5.56305Z" fill="#707376"/>
<path d="M1.65037 18.13C1.81458 18.13 1.97878 18.0671 2.10402 17.9412L4.19877 15.8369C4.44933 15.5851 4.44933 15.1771 4.19877 14.9254C3.94824 14.6736 3.54198 14.6736 3.29141 14.9254L1.19671 17.0297C0.946147 17.2814 0.946147 17.6895 1.19671 17.9412C1.32195 18.067 1.48616 18.13 1.65037 18.13Z" fill="#707376"/>
<path d="M6.11854 16.8539C5.86802 16.6022 5.46175 16.6022 5.21119 16.8539L1.1839 20.8997C0.93333 21.1514 0.93333 21.5595 1.1839 21.8112C1.30918 21.937 1.47334 21.9999 1.63755 21.9999C1.80176 21.9999 1.96597 21.937 2.09121 21.8111L6.1185 17.7654C6.36911 17.5137 6.36911 17.1057 6.11854 16.8539Z" fill="#707376"/>
<path d="M7.13045 18.7823L5.0357 20.8866C4.78514 21.1383 4.78514 21.5464 5.0357 21.7981C5.16099 21.924 5.32519 21.9869 5.48936 21.9869C5.65352 21.9869 5.81777 21.924 5.94301 21.7981L8.03776 19.6938C8.28832 19.4421 8.28832 19.034 8.03776 18.7823C7.78723 18.5306 7.38097 18.5306 7.13045 18.7823Z" fill="#707376"/>
</g>
<defs>
<clipPath id="clip0">
<rect width="21.9" height="22" fill="white" transform="translate(0.995483)"/>
</clipPath>
</defs>
</svg>
