<svg width="1440" height="540" viewBox="0 0 1440 540" fill="none" xmlns="http://www.w3.org/2000/svg">
<path d="M247.667 534L223.334 510M174.667 534L150.334 510M101.667 534L77.3335 510M28.6668 534L4.3335 510M539.667 534L515.334 510M466.667 534L442.334 510M393.667 534L369.334 510M320.667 534L296.334 510M831.667 534L807.334 510M758.667 534L734.334 510M685.667 534L661.334 510M612.667 534L588.334 510M1123.67 534L1099.33 510M1050.67 534L1026.33 510M977.667 534L953.334 510M904.667 534L880.334 510M1415.67 534L1391.33 510M1342.67 534L1318.33 510M1269.67 534L1245.33 510M1196.67 534L1172.33 510M247.667 462L223.334 438M174.667 462L150.334 438M101.667 462L77.3335 438M28.6668 462L4.3335 438M539.667 462L515.334 438M466.667 462L442.334 438M393.667 462L369.334 438M320.667 462L296.334 438M831.667 462L807.334 438M758.667 462L734.334 438M685.667 462L661.334 438M612.667 462L588.334 438M1123.67 462L1099.33 438M1050.67 462L1026.33 438M977.667 462L953.334 438M904.667 462L880.334 438M1415.67 462L1391.33 438M1342.67 462L1318.33 438M1269.67 462L1245.33 438M1196.67 462L1172.33 438M247.667 390L223.334 366M174.667 390L150.334 366M101.667 390L77.3335 366M28.6668 390L4.3335 366M539.667 390L515.334 366M466.667 390L442.334 366M393.667 390L369.334 366M320.667 390L296.334 366M831.667 390L807.334 366M758.667 390L734.334 366M685.667 390L661.334 366M612.667 390L588.334 366M1123.67 390L1099.33 366M1050.67 390L1026.33 366M977.667 390L953.334 366M904.667 390L880.334 366M1415.67 390L1391.33 366M1342.67 390L1318.33 366M1269.67 390L1245.33 366M1196.67 390L1172.33 366M247.667 318L223.334 294M174.667 318L150.334 294M101.667 318L77.3335 294M28.6668 318L4.3335 294M539.667 318L515.334 294M466.667 318L442.334 294M393.667 318L369.334 294M320.667 318L296.334 294M831.667 318L807.334 294M758.667 318L734.334 294M685.667 318L661.334 294M612.667 318L588.334 294M1123.67 318L1099.33 294M1050.67 318L1026.33 294M977.667 318L953.334 294M904.667 318L880.334 294M1415.67 318L1391.33 294M1342.67 318L1318.33 294M1269.67 318L1245.33 294M1196.67 318L1172.33 294M247.667 246L223.334 222M174.667 246L150.334 222M101.667 246L77.3335 222M28.6668 246L4.3335 222M539.667 246L515.334 222M466.667 246L442.334 222M393.667 246L369.334 222M320.667 246L296.334 222M831.667 246L807.334 222M758.667 246L734.334 222M685.667 246L661.334 222M612.667 246L588.334 222M1123.67 246L1099.33 222M1050.67 246L1026.33 222M977.667 246L953.334 222M904.667 246L880.334 222M1415.67 246L1391.33 222M1342.67 246L1318.33 222M1269.67 246L1245.33 222M1196.67 246L1172.33 222M247.667 174L223.334 150M174.667 174L150.334 150M101.667 174L77.3335 150M28.6668 174L4.3335 150M539.667 174L515.334 150M466.667 174L442.334 150M393.667 174L369.334 150M320.667 174L296.334 150M831.667 174L807.334 150M758.667 174L734.334 150M685.667 174L661.334 150M612.667 174L588.334 150M1123.67 174L1099.33 150M1050.67 174L1026.33 150M977.667 174L953.334 150M904.667 174L880.334 150M1415.67 174L1391.33 150M1342.67 174L1318.33 150M1269.67 174L1245.33 150M1196.67 174L1172.33 150M247.667 102L223.334 78M174.667 102L150.334 78M101.667 102L77.3335 78M28.6668 102L4.3335 78M539.667 102L515.334 78M466.667 102L442.334 78M393.667 102L369.334 78M320.667 102L296.334 78M831.667 102L807.334 78M758.667 102L734.334 78M685.667 102L661.334 78M612.667 102L588.334 78M1123.67 102L1099.33 78M1050.67 102L1026.33 78M977.667 102L953.334 78M904.667 102L880.334 78M1415.67 102L1391.33 78M1342.67 102L1318.33 78M1269.67 102L1245.33 78M1196.67 102L1172.33 78M247.667 30L223.334 6M174.667 30L150.334 6M101.667 30L77.3335 6M28.6668 30L4.3335 6M539.667 30L515.334 6M466.667 30L442.334 6M393.667 30L369.334 6M320.667 30L296.334 6M831.667 30L807.334 6M758.667 30L734.334 6M685.667 30L661.334 6M612.667 30L588.334 6M1123.67 30L1099.33 6M1050.67 30L1026.33 6M977.667 30L953.334 6M904.667 30L880.334 6M1415.67 30L1391.33 6M1342.67 30L1318.33 6M1269.67 30L1245.33 6M1196.67 30L1172.33 6" stroke="#A6B2FF" stroke-width="1.5" stroke-linecap="round"/>
</svg>
