<svg width="28" height="28" viewBox="0 0 28 28" fill="none" xmlns="http://www.w3.org/2000/svg">
<g clip-path="url(#clip0)">
<path d="M24.9715 0H2.40625C1.07944 0 0 1.10398 0 2.46094V25.5391C0 26.896 1.07944 28 2.40625 28H24.9715C26.2983 28 27.3778 26.896 27.3778 25.5391V2.46094C27.3778 1.10398 26.2983 0 24.9715 0ZM1.60417 2.46094C1.60417 2.00862 1.96398 1.64062 2.40625 1.64062H15.6624L13.243 6.67188H1.60417V2.46094ZM25.7736 25.5391C25.7736 25.9914 25.4138 26.3594 24.9715 26.3594H2.40625C1.96398 26.3594 1.60417 25.9914 1.60417 25.5391V8.3125H13.7424C14.0481 8.3125 14.3272 8.13477 14.4621 7.85422L17.45 1.64062H24.9715C25.4138 1.64062 25.7736 2.00862 25.7736 2.46094V25.5391Z" fill="black"/>
<path d="M4.86599 4.97656C5.30897 4.97656 5.66807 4.6093 5.66807 4.15625C5.66807 3.7032 5.30897 3.33594 4.86599 3.33594C4.42301 3.33594 4.0639 3.7032 4.0639 4.15625C4.0639 4.6093 4.42301 4.97656 4.86599 4.97656Z" fill="black"/>
<path d="M8.0743 4.97656C8.51728 4.97656 8.87638 4.6093 8.87638 4.15625C8.87638 3.7032 8.51728 3.33594 8.0743 3.33594C7.63132 3.33594 7.27222 3.7032 7.27222 4.15625C7.27222 4.6093 7.63132 4.97656 8.0743 4.97656Z" fill="black"/>
<path d="M11.2826 4.97656C11.7256 4.97656 12.0847 4.6093 12.0847 4.15625C12.0847 3.7032 11.7256 3.33594 11.2826 3.33594C10.8396 3.33594 10.4805 3.7032 10.4805 4.15625C10.4805 4.6093 10.8396 4.97656 11.2826 4.97656Z" fill="black"/>
<path d="M16.1347 10.453C15.8351 10.3262 15.49 10.3963 15.2606 10.6309L15.0771 10.8186C13.278 12.6585 10.886 13.6718 8.34164 13.6718H6.20275C4.5811 13.6718 3.26178 15.0211 3.26178 16.6797C3.26178 18.3382 4.5811 19.6875 6.20275 19.6875H6.47011V23.2422C6.47011 23.6952 6.82923 24.0625 7.2722 24.0625C7.71516 24.0625 8.07428 23.6952 8.07428 23.2422V19.6875H8.34164C10.886 19.6875 13.278 20.7008 15.0771 22.5408L15.2606 22.7285C15.414 22.8854 15.6192 22.9688 15.8279 22.9688C15.9313 22.9688 16.0355 22.9483 16.1347 22.9063C16.4344 22.7793 16.6298 22.4802 16.6298 22.1485V11.2109C16.6298 10.8791 16.4344 10.58 16.1347 10.453ZM4.86595 16.6797C4.86595 15.9258 5.46564 15.3125 6.20275 15.3125H7.53956V18.0468H6.20275C5.46564 18.0468 4.86595 17.4335 4.86595 16.6797ZM15.0257 20.327C14.2817 19.755 13.4705 19.2817 12.6007 18.9133C11.4917 18.4435 10.3322 18.1629 9.14372 18.076V15.2833C10.3323 15.1964 11.4917 14.9158 12.6007 14.446C13.4705 14.0776 14.2817 13.6043 15.0257 13.0323V20.327Z" fill="#38369A"/>
<path d="M19.7328 13.7794C19.4196 13.4591 18.9118 13.4591 18.5985 13.7794C18.2853 14.0998 18.2853 14.6192 18.5985 14.9395C19.5367 15.899 19.5367 17.4603 18.5985 18.4198C18.2853 18.7402 18.2853 19.2596 18.5985 19.5799C18.7551 19.7401 18.9604 19.8202 19.1656 19.8202C19.3709 19.8202 19.5762 19.7401 19.7328 19.5799C21.2965 17.9807 21.2965 15.3786 19.7328 13.7794Z" fill="#38369A"/>
<path d="M20.8676 11.4592C20.5544 11.7796 20.5544 12.299 20.8676 12.6193C21.9281 13.7038 22.5121 15.1459 22.5121 16.6797C22.5121 18.2134 21.9281 19.6555 20.8676 20.74C20.5544 21.0604 20.5544 21.5798 20.8676 21.9001C21.0242 22.0603 21.2295 22.1404 21.4347 22.1404C21.64 22.1404 21.8453 22.0604 22.0019 21.9001C24.8165 19.0216 24.8165 14.3378 22.0019 11.4592C21.6887 11.1388 21.1809 11.1388 20.8676 11.4592Z" fill="#38369A"/>
</g>
<defs>
<clipPath id="clip0">
<rect width="27.3778" height="28" fill="white"/>
</clipPath>
</defs>
</svg>
