<svg width="28" height="28" viewBox="0 0 28 28" fill="none" xmlns="http://www.w3.org/2000/svg">
<path d="M25.4844 0H2.46094C1.104 0 0 1.104 0 2.46094V25.5391C0 26.896 1.104 28 2.46094 28H25.4844C26.8413 28 27.9453 26.896 27.9453 25.5391V2.46094C27.9453 1.104 26.8413 0 25.4844 0ZM2.46094 1.64062H25.4844C25.9366 1.64062 26.3047 2.0087 26.3047 2.46094V6.5625H1.64062V2.46094C1.64062 2.0087 2.0087 1.64062 2.46094 1.64062ZM25.4844 26.3594H2.46094C2.0087 26.3594 1.64062 25.9913 1.64062 25.5391V8.20312H26.3047V25.5391C26.3047 25.9913 25.9366 26.3594 25.4844 26.3594Z" fill="black"/>
<path d="M13.9453 4.92188H23.8438C24.2968 4.92188 24.6641 4.55466 24.6641 4.10156C24.6641 3.64847 24.2968 3.28125 23.8438 3.28125H13.9453C13.4922 3.28125 13.125 3.64847 13.125 4.10156C13.125 4.55466 13.4922 4.92188 13.9453 4.92188Z" fill="black"/>
<path d="M4.91992 4.10156C4.91992 4.55466 4.55249 4.92188 4.09961 4.92188C3.64651 4.92188 3.2793 4.55466 3.2793 4.10156C3.2793 3.64847 3.64651 3.28125 4.09961 3.28125C4.55249 3.28125 4.91992 3.64847 4.91992 4.10156Z" fill="black"/>
<path d="M8.20117 4.10156C8.20117 4.55466 7.83374 4.92188 7.38086 4.92188C6.92777 4.92188 6.56055 4.55466 6.56055 4.10156C6.56055 3.64847 6.92777 3.28125 7.38086 3.28125C7.83374 3.28125 8.20117 3.64847 8.20117 4.10156Z" fill="black"/>
<path d="M11.4824 4.10156C11.4824 4.55466 11.115 4.92188 10.6621 4.92188C10.209 4.92188 9.8418 4.55466 9.8418 4.10156C9.8418 3.64847 10.209 3.28125 10.6621 3.28125C11.115 3.28125 11.4824 3.64847 11.4824 4.10156Z" fill="black"/>
<path d="M21.1592 15.0107L19.5186 12.169C19.2921 11.7766 18.7903 11.6422 18.3981 11.8687L17.1877 12.5677C16.9389 12.3955 16.6778 12.2442 16.4061 12.1143V10.7188C16.4061 10.2657 16.0389 9.89844 15.5858 9.89844H12.3045C11.8514 9.89844 11.4842 10.2657 11.4842 10.7188V12.1143C11.2125 12.2442 10.9516 12.3955 10.7026 12.5674L9.49217 11.8687C9.09996 11.6422 8.59816 11.7766 8.37172 12.169L6.73109 15.0107C6.50465 15.4031 6.63902 15.9047 7.03123 16.1311L8.22475 16.8203C8.21022 16.979 8.20296 17.1319 8.20296 17.281C8.20296 17.4304 8.21022 17.5833 8.22475 17.742L7.03123 18.4312C6.63902 18.6576 6.50465 19.1594 6.73109 19.5516L8.37172 22.3932C8.59816 22.7857 9.09996 22.92 9.49217 22.6936L10.7026 21.9948C10.9514 22.1668 11.2125 22.3183 11.4842 22.4479V23.8438C11.4842 24.2968 11.8514 24.6641 12.3045 24.6641H15.5858C16.0389 24.6641 16.4061 24.2968 16.4061 23.8438V22.4482C16.6778 22.3183 16.9386 22.167 17.1877 21.9951L18.3981 22.6938C18.7903 22.9203 19.2921 22.7859 19.5186 22.3935L21.1592 19.5518C21.3856 19.1594 21.2513 18.6578 20.8591 18.4312L19.6655 17.7422C19.6801 17.5835 19.6873 17.4304 19.6873 17.2812C19.6873 17.1321 19.6801 16.979 19.6655 16.8203L20.8588 16.1313C21.2513 15.9047 21.3856 15.4031 21.1592 15.0107ZM17.97 16.5349C18.0224 16.8183 18.0467 17.0555 18.0467 17.2812C18.0467 17.507 18.0224 17.7442 17.97 18.0276C17.9072 18.369 18.0659 18.7132 18.3667 18.8868L19.3282 19.4418L18.5079 20.8626L17.5336 20.3002C17.2328 20.1265 16.8553 20.1611 16.5911 20.3867C16.2083 20.7133 15.7776 20.9628 15.3111 21.1288C14.984 21.245 14.7655 21.5546 14.7655 21.9017V23.0234H13.1248V21.9017C13.1248 21.5546 12.9063 21.245 12.5792 21.1288C12.1127 20.9628 11.682 20.7133 11.2992 20.3867C11.035 20.1611 10.6575 20.1265 10.3567 20.3002L9.38237 20.8626L8.56206 19.4418L9.52357 18.8868C9.82436 18.7132 9.98308 18.369 9.92027 18.0276C9.86794 17.7442 9.84358 17.507 9.84358 17.2812C9.84358 17.0555 9.86794 16.8183 9.92027 16.5349C9.98308 16.1935 9.82436 15.8493 9.52357 15.6757L8.56206 15.1207L9.38237 13.6999L10.3567 14.2623C10.6575 14.436 11.035 14.4014 11.2992 14.1758C11.682 13.8492 12.1127 13.5997 12.5792 13.4337C12.9063 13.3175 13.1248 13.0079 13.1248 12.6608V11.5391H14.7655V12.6608C14.7655 13.0079 14.984 13.3175 15.3111 13.4337C15.7776 13.5997 16.2083 13.8492 16.5911 14.1758C16.8553 14.4012 17.2328 14.436 17.5336 14.2623L18.5079 13.6999L19.3282 15.1207L18.3667 15.6757C18.0659 15.8493 17.9072 16.1935 17.97 16.5349Z" fill="#38369A"/>
<path d="M13.9453 14.8203C12.5884 14.8203 11.4844 15.9243 11.4844 17.2812C11.4844 18.6382 12.5884 19.7422 13.9453 19.7422C15.3022 19.7422 16.4062 18.6382 16.4062 17.2812C16.4062 15.9243 15.3022 14.8203 13.9453 14.8203ZM13.9453 18.1016C13.4931 18.1016 13.125 17.7335 13.125 17.2812C13.125 16.829 13.4931 16.4609 13.9453 16.4609C14.3976 16.4609 14.7656 16.829 14.7656 17.2812C14.7656 17.7335 14.3976 18.1016 13.9453 18.1016Z" fill="#38369A"/>
</svg>
