<svg width="43" height="33" viewBox="0 0 43 33" fill="none" xmlns="http://www.w3.org/2000/svg">
<g clip-path="url(#clip0)">
<path fill-rule="evenodd" clip-rule="evenodd" d="M35.6044 9.12701C35.6044 8.60922 36.0593 8.2103 36.5753 8.25587C37.3117 8.32094 38.0659 8.35469 38.8337 8.35469C39.6261 8.35469 40.4041 8.3187 41.163 8.24952C41.6799 8.20239 42.1366 8.60163 42.1366 9.12041V16.2843V25.5212C42.1366 26.1283 41.5235 26.5437 40.9591 26.319L36.1454 24.401C35.8187 24.2708 35.6044 23.9548 35.6044 23.6032V16.2843V9.12701ZM2.95402 24.041C4.26433 24.3299 5.5939 24.4743 6.94273 24.4743C8.69625 24.4743 10.1896 24.2336 11.4228 23.7521C12.656 23.2706 13.581 22.6254 14.1976 21.8166C14.8142 21.0077 15.1225 20.1121 15.1225 19.1299C15.1225 17.8395 14.7756 16.8477 14.0819 16.1543C13.4075 15.461 12.6175 14.9892 11.7119 14.7388C10.8254 14.4884 9.73678 14.2862 8.44571 14.1321C7.61713 14.0359 7.0102 13.9395 6.62478 13.8432C6.23941 13.7277 6.04672 13.5447 6.04672 13.2943C6.04672 12.7936 6.75966 12.5433 8.18562 12.5433C9.50547 12.5433 10.7398 12.7876 11.8886 13.2763C12.3605 13.4771 12.925 13.2843 13.122 12.811L14.2422 10.1202C14.4132 9.70937 14.2431 9.23224 13.8301 9.06587C13.176 8.80237 12.4314 8.59403 11.5962 8.44105C10.4594 8.20992 9.29356 8.09436 8.09886 8.09436C6.38392 8.09436 4.90984 8.33507 3.67662 8.81656C2.46267 9.29805 1.54738 9.94323 0.930767 10.7521C0.314157 11.561 0.00585055 12.4758 0.00585055 13.4966C0.00585055 14.7869 0.34306 15.7788 1.01748 16.4721C1.71117 17.1654 2.51084 17.6373 3.41648 17.8877C4.32213 18.1188 5.42047 18.3114 6.71148 18.4655C7.55934 18.5618 8.16633 18.658 8.53246 18.7544C8.91782 18.8506 9.1105 19.024 9.1105 19.2743C9.1105 19.5247 8.95633 19.7173 8.64806 19.8521C8.35901 19.9677 7.83877 20.0255 7.08729 20.0255C6.14307 20.0255 5.16998 19.9003 4.16798 19.6499C3.54377 19.4939 2.97191 19.3006 2.45239 19.0698C1.97199 18.8565 1.38488 19.0465 1.18292 19.5316L0.0658898 22.2147C-0.100528 22.6144 0.055641 23.0789 0.451407 23.2549C1.14775 23.5646 1.98195 23.8267 2.95402 24.041ZM30.5984 9.10547C29.4422 8.4314 28.1704 8.09436 26.7831 8.09436C25.2679 8.09436 24.0564 8.41539 23.1485 9.0574C22.8794 9.24774 22.4475 9.07129 22.4475 8.74178C22.4475 8.54378 22.2869 8.38327 22.0888 8.38327H17.0925C16.6179 8.38327 16.2333 8.76775 16.2333 9.24208V28.523C16.2333 29.1302 16.8464 29.5456 17.4106 29.3208L22.2244 27.4028C22.5511 27.2727 22.7655 26.9567 22.7655 26.6051V25.1594C22.7655 24.3987 23.7846 23.9121 24.5077 24.1496C25.1671 24.3661 25.9255 24.4743 26.7831 24.4743C28.1704 24.4743 29.4422 24.1469 30.5984 23.4921C31.7738 22.818 32.6987 21.8647 33.3731 20.6321C34.0668 19.3803 34.4137 17.9358 34.4137 16.2988C34.4137 14.6617 34.0668 13.2173 33.3731 11.9654C32.6987 10.7136 31.7738 9.7603 30.5984 9.10547ZM27.0721 18.581C26.5904 19.1203 25.9738 19.3899 25.2223 19.3899C24.4708 19.3899 23.8542 19.1203 23.3725 18.581C22.8907 18.0417 22.6499 17.281 22.6499 16.2988C22.6499 15.3166 22.8907 14.5558 23.3725 14.0166C23.8542 13.458 24.4708 13.1788 25.2223 13.1788C25.9738 13.1788 26.5904 13.458 27.0721 14.0166C27.5538 14.5558 27.7947 15.3166 27.7947 16.2988C27.7947 17.281 27.5538 18.0417 27.0721 18.581Z" fill="#FA855D"/>
</g>
<defs>
<clipPath id="clip0">
<rect width="43" height="33" fill="white"/>
</clipPath>
</defs>
</svg>
