<svg width="41" height="40" viewBox="0 0 41 40" fill="none" xmlns="http://www.w3.org/2000/svg">
<g clip-path="url(#clip0)">
<path d="M40.2842 19.5508C40.2842 30.3205 31.33 39.0508 20.2842 39.0508C9.23834 39.0508 0.28418 30.3205 0.28418 19.5508C0.28418 8.78109 9.23834 0.0507812 20.2842 0.0507812C31.33 0.0507812 40.2842 8.78109 40.2842 19.5508Z" fill="#38369A"/>
<path d="M20.2693 13.0312V16.2052C20.7386 16.7461 21.0225 17.4448 21.0225 18.2071V19.6847H23.6787V18.2071C23.6787 15.9127 22.2792 13.9325 20.2693 13.0312Z" fill="#E9EDF5"/>
<path d="M40.2842 19.5508C40.2842 19.2684 40.2765 18.9881 40.2643 18.7087L28.8862 7.61501L26.4393 9.48003L21.3779 4.54492L19.0342 9.16612L25.4276 15.3997L24.3192 16.4807L21.8439 14.0673L21.7808 14.2307L16.6916 9.26877L15.0339 10.8842L18.0793 13.8534H8.41101L7.35571 23.0654L15.044 30.5329L13.3396 33.1022L19.4211 39.0315C19.7074 39.0434 19.9949 39.0508 20.2842 39.0508C31.33 39.0508 40.2842 30.3205 40.2842 19.5508Z" fill="#211F89"/>
<path d="M16.3959 24.6175H11.359C8.13849 24.6175 5.51855 22.063 5.51855 18.923V18.2071C5.51855 15.0671 8.13849 12.5127 11.359 12.5127H17.8382C21.0587 12.5127 23.6786 15.0671 23.6786 18.2071V19.6848H21.0224V18.2071C21.0224 16.4954 19.5939 15.1025 17.8382 15.1025H11.359C9.60333 15.1025 8.1748 16.4954 8.1748 18.2071V18.923C8.1748 20.6348 9.60333 22.0276 11.359 22.0276H16.3959V24.6175Z" fill="white"/>
<path d="M29.2093 26.5882H22.7301C19.5096 26.5882 16.8896 24.0338 16.8896 20.8937V19.4161H19.5459V20.8937C19.5459 22.6055 20.9744 23.9983 22.7301 23.9983H29.2093C30.965 23.9983 32.3935 22.6055 32.3935 20.8937V20.1778C32.3935 18.4661 30.965 17.0732 29.2093 17.0732H24.1724V14.4834H29.2093C32.4298 14.4834 35.0497 17.0381 35.0497 20.1778V20.8937C35.0497 24.0338 32.4298 26.5882 29.2093 26.5882Z" fill="white"/>
<path d="M29.2094 14.4834H24.1725V17.0732H29.2094C30.9651 17.0732 32.3936 18.4661 32.3936 20.1778V20.8937C32.3936 22.6055 30.9651 23.9983 29.2094 23.9983H22.7302C21.7399 23.9983 20.8537 23.555 20.2693 22.8617V26.0562C21.0179 26.3966 21.8513 26.5882 22.7302 26.5882H29.2094C32.4299 26.5882 35.0499 24.0335 35.0499 20.8937V20.1778C35.0499 17.0378 32.4299 14.4834 29.2094 14.4834Z" fill="#E9EDF5"/>
<path d="M19.0342 4.54492H21.3779V9.16612H19.0342V4.54492Z" fill="#FFE000"/>
<path d="M20.269 4.54492H21.3777V9.16612H20.269V4.54492Z" fill="#FFC200"/>
<path d="M11.6819 7.6147L13.3393 5.99902L16.6913 9.26817L15.0336 10.8838L11.6819 7.6147Z" fill="#FFE000"/>
<path d="M23.877 9.26914L27.229 6L28.8864 7.61568L25.5347 10.8848L23.877 9.26914Z" fill="#FFC200"/>
<path d="M19.1904 29.9355H21.5342V34.5567H19.1904V29.9355Z" fill="#FFE000"/>
<path d="M20.2693 29.9355H21.5342V34.5567H20.2693V29.9355Z" fill="#FFC200"/>
<path d="M23.8767 29.8312L25.5341 28.2158L28.8862 31.4847L27.2285 33.1003L23.8767 29.8312Z" fill="#FFC200"/>
<path d="M11.6812 31.4879L15.0332 28.2188L16.6906 29.8344L13.3386 33.1036L11.6812 31.4879Z" fill="#FFE000"/>
</g>
<defs>
<clipPath id="clip0">
<rect width="40" height="39" fill="white" transform="translate(0.28418 0.0507812)"/>
</clipPath>
</defs>
</svg>
