<svg width="20" height="18" viewBox="0 0 20 18" fill="none" xmlns="http://www.w3.org/2000/svg">
<mask id="path-1-outside-1" maskUnits="userSpaceOnUse" x="-1" y="-0.28125" width="22" height="18" fill="black">
<rect fill="white" x="-1" y="-0.28125" width="22" height="18"/>
<path d="M19.834 2.654C19.7001 2.56318 19.5226 2.5681 19.3932 2.66573C19.2233 2.7944 18.947 2.89657 18.6496 2.97528C19.4242 2.10718 19.4409 1.52744 19.4325 1.39423C19.4238 1.25649 19.341 1.13426 19.2161 1.0756C19.0908 1.01657 18.944 1.03095 18.8324 1.11193C17.9608 1.74541 17.0927 1.87899 16.5766 1.89262C15.7842 1.13426 14.7552 0.71875 13.6601 0.71875C11.3154 0.71875 9.40813 2.65173 9.40813 5.02747C9.40813 5.23181 9.42251 5.43578 9.45089 5.63786C5.38739 5.59207 2.08755 1.69849 2.05349 1.65799C1.97402 1.56339 1.85368 1.51268 1.73032 1.52365C1.60695 1.53425 1.49683 1.60426 1.43515 1.71173C0.265822 3.74007 1.0484 5.52169 1.76362 6.54191C1.63722 6.47455 1.53467 6.40795 1.47337 6.36292C1.35984 6.27815 1.20809 6.26415 1.08019 6.32697C0.952658 6.38979 0.871298 6.51845 0.868649 6.66036C0.83724 8.59334 1.7674 9.7006 2.64231 10.3129C2.52576 10.3019 2.40731 10.3451 2.32633 10.4332C2.23551 10.532 2.20334 10.6716 2.2427 10.7999C2.84704 12.7779 4.33083 13.45 5.275 13.6782C3.33369 15.1896 0.476603 14.703 0.445194 14.6977C0.272634 14.667 0.102344 14.7578 0.031957 14.9179C-0.0380511 15.0776 0.00963007 15.2649 0.148889 15.3709C2.19805 16.9349 4.64909 17.2812 6.41935 17.2812C7.75858 17.2812 8.7088 17.0829 8.79962 17.0628C17.7675 14.9376 18.0199 6.72318 17.9991 5.37713C19.6827 3.8116 19.9457 3.2152 19.9862 3.06762C20.0297 2.91133 19.9684 2.74482 19.834 2.654ZM17.3599 4.93778C17.2755 5.01536 17.2312 5.12699 17.2388 5.24165C17.2627 5.60494 17.7213 14.1713 8.63274 16.3249C8.59149 16.3336 4.97869 17.0874 1.84687 15.5359C3.17021 15.4992 5.06762 15.1525 6.38945 13.6684C6.48935 13.5567 6.51357 13.3963 6.45151 13.26C6.39021 13.1249 6.25511 13.0383 6.10715 13.0383C6.10601 13.0383 6.1045 13.0383 6.10336 13.0383C6.08444 13.0504 4.09735 13.036 3.18762 11.1458C3.55393 11.1666 4.00577 11.1439 4.36565 10.9782C4.51399 10.9097 4.60141 10.7541 4.58324 10.5918C4.56508 10.4298 4.44474 10.2978 4.28504 10.2641C4.18325 10.2425 1.97099 9.74791 1.66144 7.33471C1.9971 7.48154 2.42661 7.6015 2.8512 7.53679C2.99727 7.51484 3.11686 7.41001 3.1581 7.26811C3.19935 7.1262 3.15432 6.97331 3.04268 6.87644C2.94808 6.79394 0.870541 4.94762 1.85557 2.56621C2.925 3.68823 6.09239 6.60397 9.92997 6.38373C10.0424 6.3773 10.1464 6.32054 10.2134 6.22971C10.28 6.13889 10.3027 6.0231 10.2755 5.91373C10.2028 5.62424 10.1657 5.32604 10.1657 5.02784C10.1657 3.06913 11.7339 1.47597 13.6612 1.47597C14.6039 1.47597 15.4882 1.85213 16.1509 2.53556C16.2205 2.60746 16.3162 2.6487 16.4161 2.6506C16.8173 2.65627 17.4765 2.60897 18.2212 2.31039C18.0063 2.57794 17.6907 2.89846 17.2263 3.26326C17.095 3.36657 17.047 3.54329 17.1079 3.69883C17.1688 3.85474 17.3262 3.95275 17.4905 3.93799C17.5786 3.9308 18.0282 3.89144 18.5364 3.78132C18.2587 4.07952 17.8791 4.46021 17.3599 4.93778Z"/>
</mask>
<path d="M19.834 2.654C19.7001 2.56318 19.5226 2.5681 19.3932 2.66573C19.2233 2.7944 18.947 2.89657 18.6496 2.97528C19.4242 2.10718 19.4409 1.52744 19.4325 1.39423C19.4238 1.25649 19.341 1.13426 19.2161 1.0756C19.0908 1.01657 18.944 1.03095 18.8324 1.11193C17.9608 1.74541 17.0927 1.87899 16.5766 1.89262C15.7842 1.13426 14.7552 0.71875 13.6601 0.71875C11.3154 0.71875 9.40813 2.65173 9.40813 5.02747C9.40813 5.23181 9.42251 5.43578 9.45089 5.63786C5.38739 5.59207 2.08755 1.69849 2.05349 1.65799C1.97402 1.56339 1.85368 1.51268 1.73032 1.52365C1.60695 1.53425 1.49683 1.60426 1.43515 1.71173C0.265822 3.74007 1.0484 5.52169 1.76362 6.54191C1.63722 6.47455 1.53467 6.40795 1.47337 6.36292C1.35984 6.27815 1.20809 6.26415 1.08019 6.32697C0.952658 6.38979 0.871298 6.51845 0.868649 6.66036C0.83724 8.59334 1.7674 9.7006 2.64231 10.3129C2.52576 10.3019 2.40731 10.3451 2.32633 10.4332C2.23551 10.532 2.20334 10.6716 2.2427 10.7999C2.84704 12.7779 4.33083 13.45 5.275 13.6782C3.33369 15.1896 0.476603 14.703 0.445194 14.6977C0.272634 14.667 0.102344 14.7578 0.031957 14.9179C-0.0380511 15.0776 0.00963007 15.2649 0.148889 15.3709C2.19805 16.9349 4.64909 17.2812 6.41935 17.2812C7.75858 17.2812 8.7088 17.0829 8.79962 17.0628C17.7675 14.9376 18.0199 6.72318 17.9991 5.37713C19.6827 3.8116 19.9457 3.2152 19.9862 3.06762C20.0297 2.91133 19.9684 2.74482 19.834 2.654ZM17.3599 4.93778C17.2755 5.01536 17.2312 5.12699 17.2388 5.24165C17.2627 5.60494 17.7213 14.1713 8.63274 16.3249C8.59149 16.3336 4.97869 17.0874 1.84687 15.5359C3.17021 15.4992 5.06762 15.1525 6.38945 13.6684C6.48935 13.5567 6.51357 13.3963 6.45151 13.26C6.39021 13.1249 6.25511 13.0383 6.10715 13.0383C6.10601 13.0383 6.1045 13.0383 6.10336 13.0383C6.08444 13.0504 4.09735 13.036 3.18762 11.1458C3.55393 11.1666 4.00577 11.1439 4.36565 10.9782C4.51399 10.9097 4.60141 10.7541 4.58324 10.5918C4.56508 10.4298 4.44474 10.2978 4.28504 10.2641C4.18325 10.2425 1.97099 9.74791 1.66144 7.33471C1.9971 7.48154 2.42661 7.6015 2.8512 7.53679C2.99727 7.51484 3.11686 7.41001 3.1581 7.26811C3.19935 7.1262 3.15432 6.97331 3.04268 6.87644C2.94808 6.79394 0.870541 4.94762 1.85557 2.56621C2.925 3.68823 6.09239 6.60397 9.92997 6.38373C10.0424 6.3773 10.1464 6.32054 10.2134 6.22971C10.28 6.13889 10.3027 6.0231 10.2755 5.91373C10.2028 5.62424 10.1657 5.32604 10.1657 5.02784C10.1657 3.06913 11.7339 1.47597 13.6612 1.47597C14.6039 1.47597 15.4882 1.85213 16.1509 2.53556C16.2205 2.60746 16.3162 2.6487 16.4161 2.6506C16.8173 2.65627 17.4765 2.60897 18.2212 2.31039C18.0063 2.57794 17.6907 2.89846 17.2263 3.26326C17.095 3.36657 17.047 3.54329 17.1079 3.69883C17.1688 3.85474 17.3262 3.95275 17.4905 3.93799C17.5786 3.9308 18.0282 3.89144 18.5364 3.78132C18.2587 4.07952 17.8791 4.46021 17.3599 4.93778Z" fill="#38369A"/>
<path d="M19.834 2.654L19.7779 2.73677L19.778 2.73685L19.834 2.654ZM19.3932 2.66573L19.333 2.5859L19.3328 2.58601L19.3932 2.66573ZM18.6496 2.97528L18.575 2.9087L18.3533 3.15713L18.6752 3.07195L18.6496 2.97528ZM19.4325 1.39423L19.5323 1.388L19.5323 1.38793L19.4325 1.39423ZM19.2161 1.0756L19.1734 1.16606L19.1736 1.16612L19.2161 1.0756ZM18.8324 1.11193L18.7736 1.03099L18.7736 1.03104L18.8324 1.11193ZM16.5766 1.89262L16.5074 1.96486L16.5375 1.99368L16.5792 1.99258L16.5766 1.89262ZM9.45089 5.63786L9.44976 5.73786L9.5661 5.73917L9.54992 5.62395L9.45089 5.63786ZM2.05349 1.65799L1.97692 1.72231L1.97696 1.72236L2.05349 1.65799ZM1.73032 1.52365L1.73887 1.62329L1.73918 1.62326L1.73032 1.52365ZM1.43515 1.71173L1.52178 1.76167L1.52188 1.76151L1.43515 1.71173ZM1.76362 6.54191L1.71659 6.63016L1.8455 6.48451L1.76362 6.54191ZM1.47337 6.36292L1.41354 6.44305L1.41417 6.44351L1.47337 6.36292ZM1.08019 6.32697L1.0361 6.23721L1.036 6.23726L1.08019 6.32697ZM0.868649 6.66036L0.768666 6.65849L0.768662 6.65873L0.868649 6.66036ZM2.64231 10.3129L2.63294 10.4125L3.00967 10.4479L2.69965 10.231L2.64231 10.3129ZM2.32633 10.4332L2.39994 10.5009L2.39998 10.5009L2.32633 10.4332ZM2.2427 10.7999L2.33834 10.7707L2.3383 10.7706L2.2427 10.7999ZM5.275 13.6782L5.33643 13.7571L5.50006 13.6297L5.29849 13.581L5.275 13.6782ZM0.445194 14.6977L0.427704 14.7961L0.428562 14.7963L0.445194 14.6977ZM0.031957 14.9179L-0.0595842 14.8777L-0.0596288 14.8778L0.031957 14.9179ZM0.148889 15.3709L0.209562 15.2914L0.209442 15.2913L0.148889 15.3709ZM8.79962 17.0628L8.82119 17.1605L8.82268 17.1601L8.79962 17.0628ZM17.9991 5.37713L17.931 5.3039L17.8984 5.33419L17.8991 5.37867L17.9991 5.37713ZM19.9862 3.06762L19.8898 3.04079L19.8897 3.04116L19.9862 3.06762ZM17.3599 4.93778L17.4276 5.0114L17.4276 5.01138L17.3599 4.93778ZM17.2388 5.24165L17.3386 5.23511L17.3386 5.23507L17.2388 5.24165ZM8.63274 16.3249L8.65339 16.4228L8.6558 16.4222L8.63274 16.3249ZM1.84687 15.5359L1.8441 15.4359L1.80248 15.6255L1.84687 15.5359ZM6.38945 13.6684L6.31493 13.6017L6.31477 13.6019L6.38945 13.6684ZM6.45151 13.26L6.36045 13.3014L6.36051 13.3015L6.45151 13.26ZM6.10336 13.0383V12.9383H6.0741L6.04946 12.9541L6.10336 13.0383ZM3.18762 11.1458L3.19329 11.046L3.02396 11.0363L3.09751 11.1892L3.18762 11.1458ZM4.36565 10.9782L4.40748 11.069L4.40757 11.0689L4.36565 10.9782ZM4.58324 10.5918L4.68262 10.5807L4.68262 10.5806L4.58324 10.5918ZM4.28504 10.2641L4.26432 10.3619L4.26441 10.3619L4.28504 10.2641ZM1.66144 7.33471L1.70152 7.24309L1.5398 7.17235L1.56226 7.34743L1.66144 7.33471ZM2.8512 7.53679L2.83634 7.43789L2.83614 7.43793L2.8512 7.53679ZM3.04268 6.87644L2.97696 6.95181L2.97714 6.95196L3.04268 6.87644ZM1.85557 2.56621L1.92796 2.49721L1.82192 2.38595L1.76317 2.52799L1.85557 2.56621ZM9.92997 6.38373L9.92426 6.2839L9.92424 6.2839L9.92997 6.38373ZM10.2134 6.22971L10.2939 6.28907L10.294 6.28885L10.2134 6.22971ZM10.2755 5.91373L10.3725 5.88956L10.3725 5.88939L10.2755 5.91373ZM16.1509 2.53556L16.2227 2.46599L16.2226 2.46595L16.1509 2.53556ZM16.4161 2.6506L16.4142 2.75058L16.4147 2.75059L16.4161 2.6506ZM18.2212 2.31039L18.2992 2.37303L18.5381 2.07561L18.184 2.21758L18.2212 2.31039ZM17.2263 3.26326L17.1645 3.18463L17.1645 3.18467L17.2263 3.26326ZM17.1079 3.69883L17.201 3.66243L17.201 3.66235L17.1079 3.69883ZM17.4905 3.93799L17.4823 3.83832L17.4815 3.83839L17.4905 3.93799ZM18.5364 3.78132L18.6096 3.84948L18.8271 3.61603L18.5153 3.68359L18.5364 3.78132ZM19.8902 2.57123C19.7205 2.45625 19.4963 2.46266 19.333 2.5859L19.4534 2.74556C19.5489 2.67354 19.6796 2.67011 19.7779 2.73677L19.8902 2.57123ZM19.3328 2.58601C19.1795 2.70211 18.9196 2.80038 18.624 2.87861L18.6752 3.07195C18.9744 2.99276 19.267 2.88668 19.4535 2.74546L19.3328 2.58601ZM18.7242 3.04186C19.5145 2.15619 19.5425 1.55086 19.5323 1.388L19.3327 1.40047C19.3392 1.50401 19.3339 2.05817 18.575 2.9087L18.7242 3.04186ZM19.5323 1.38793C19.5213 1.21391 19.4166 1.05932 19.2586 0.985089L19.1736 1.16612C19.2653 1.2092 19.3263 1.29907 19.3327 1.40054L19.5323 1.38793ZM19.2587 0.985145C19.1002 0.91045 18.9146 0.928744 18.7736 1.03099L18.8911 1.19288C18.9734 1.13315 19.0814 1.12269 19.1734 1.16606L19.2587 0.985145ZM18.7736 1.03104C17.9229 1.64936 17.0763 1.77939 16.5739 1.79265L16.5792 1.99258C17.1092 1.97859 17.9988 1.84146 18.8911 1.19282L18.7736 1.03104ZM16.6457 1.82037C15.8348 1.04432 14.7812 0.61875 13.6601 0.61875V0.81875C14.7293 0.81875 15.7335 1.22419 16.5074 1.96486L16.6457 1.82037ZM13.6601 0.61875C11.2589 0.61875 9.30813 2.59776 9.30813 5.02747H9.50813C9.50813 2.7057 11.3719 0.81875 13.6601 0.81875V0.61875ZM9.30813 5.02747C9.30813 5.23651 9.32284 5.44512 9.35186 5.65177L9.54992 5.62395C9.52218 5.42645 9.50813 5.22712 9.50813 5.02747H9.30813ZM9.45201 5.53787C7.45065 5.51532 5.63038 4.54428 4.30043 3.5654C2.97198 2.58764 2.14425 1.61055 2.13002 1.59362L1.97696 1.72236C1.99678 1.74593 2.836 2.73588 4.18187 3.72648C5.52623 4.71596 7.38762 5.71462 9.44976 5.73786L9.45201 5.53787ZM2.13006 1.59368C2.02993 1.47447 1.87788 1.41013 1.72146 1.42405L1.73918 1.62326C1.82948 1.61523 1.91811 1.6523 1.97692 1.72231L2.13006 1.59368ZM1.72176 1.42402C1.56584 1.43741 1.42646 1.52597 1.34842 1.66195L1.52188 1.76151C1.56719 1.68255 1.64806 1.63109 1.73887 1.62329L1.72176 1.42402ZM1.34851 1.66179C0.151076 3.73889 0.956338 5.56457 1.68173 6.59932L1.8455 6.48451C1.14046 5.4788 0.380568 3.74125 1.52178 1.76167L1.34851 1.66179ZM1.81065 6.45366C1.68815 6.38838 1.58971 6.3243 1.53257 6.28233L1.41417 6.44351C1.47964 6.4916 1.5863 6.56073 1.71659 6.63016L1.81065 6.45366ZM1.5332 6.28279C1.38946 6.17547 1.19757 6.15791 1.0361 6.23721L1.12427 6.41673C1.21862 6.37039 1.33022 6.38084 1.41354 6.44305L1.5332 6.28279ZM1.036 6.23726C0.874775 6.31668 0.772011 6.47931 0.768666 6.65849L0.968631 6.66223C0.970584 6.55759 1.03054 6.4629 1.12437 6.41668L1.036 6.23726ZM0.768662 6.65873C0.736608 8.63137 1.68861 9.76752 2.58498 10.3948L2.69965 10.231C1.8462 9.63369 0.937871 8.55531 0.968635 6.66198L0.768662 6.65873ZM2.65169 10.2133C2.50505 10.1995 2.35553 10.2536 2.25268 10.3656L2.39998 10.5009C2.4591 10.4365 2.54647 10.4043 2.63294 10.4125L2.65169 10.2133ZM2.25272 10.3655C2.13806 10.4902 2.09724 10.6667 2.1471 10.8292L2.3383 10.7706C2.30945 10.6765 2.33296 10.5738 2.39994 10.5009L2.25272 10.3655ZM2.14706 10.8291C2.76543 12.8531 4.28734 13.5424 5.25151 13.7754L5.29849 13.581C4.37433 13.3576 2.92865 12.7028 2.33834 10.7707L2.14706 10.8291ZM5.21357 13.5993C4.26511 14.3377 3.08822 14.591 2.13697 14.6569C1.18709 14.7228 0.47359 14.601 0.461827 14.5991L0.428562 14.7963C0.448207 14.7996 1.17896 14.9238 2.1508 14.8565C3.12127 14.7892 4.34358 14.5301 5.33643 13.7571L5.21357 13.5993ZM0.462683 14.5992C0.244806 14.5605 0.0294121 14.6753 -0.0595841 14.8777L0.123498 14.9582C0.175275 14.8404 0.300461 14.7735 0.427705 14.7961L0.462683 14.5992ZM-0.0596288 14.8778C-0.148042 15.0794 -0.0879345 15.3163 0.0883373 15.4505L0.209442 15.2913C0.107195 15.2135 0.0719396 15.0758 0.123543 14.9581L-0.0596288 14.8778ZM0.0882175 15.4504C2.16206 17.0332 4.6385 17.3812 6.41935 17.3812V17.1812C4.65967 17.1812 2.23403 16.8366 0.209561 15.2914L0.0882175 15.4504ZM6.41935 17.3812C7.7678 17.3812 8.7255 17.1816 8.82119 17.1605L8.77806 16.9652C8.6921 16.9841 7.74937 17.1812 6.41935 17.1812V17.3812ZM8.82268 17.1601C13.3394 16.0897 15.6675 13.4824 16.8604 10.9707C18.0513 8.46345 18.1096 6.05584 18.0991 5.37558L17.8991 5.37867C17.9094 6.04447 17.8519 8.41708 16.6798 10.8849C15.5098 13.3482 13.2277 15.9107 8.77656 16.9655L8.82268 17.1601ZM18.0672 5.45036C18.9113 4.66538 19.4022 4.12083 19.6878 3.75187C19.9727 3.38398 20.0574 3.18594 20.0826 3.09408L19.8897 3.04116C19.8744 3.09688 19.8074 3.27083 19.5297 3.62942C19.2529 3.98693 18.7704 4.52335 17.931 5.3039L18.0672 5.45036ZM20.0825 3.09444C20.1376 2.8967 20.06 2.68605 19.89 2.57116L19.778 2.73685C19.8768 2.8036 19.9218 2.92595 19.8898 3.04079L20.0825 3.09444ZM17.2922 4.86416C17.1853 4.96243 17.1295 5.10365 17.139 5.24824L17.3386 5.23507C17.333 5.15033 17.3657 5.06828 17.4276 5.0114L17.2922 4.86416ZM17.139 5.2482C17.1505 5.42316 17.2705 7.63786 16.2606 10.0736C15.2528 12.5041 13.1188 15.1591 8.60968 16.2276L8.6558 16.4222C13.2353 15.3371 15.4162 12.6321 16.4453 10.1502C17.4722 7.67355 17.351 5.42343 17.3386 5.23511L17.139 5.2482ZM8.61209 16.227C8.57295 16.2353 4.99022 16.9815 1.89126 15.4463L1.80248 15.6255C4.96717 17.1933 8.61003 16.4319 8.65338 16.4227L8.61209 16.227ZM1.84964 15.6358C3.1836 15.5988 5.11512 15.2496 6.46413 13.7349L6.31477 13.6019C5.02012 15.0555 3.15683 15.3995 1.8441 15.4359L1.84964 15.6358ZM6.46397 13.735C6.59042 13.5937 6.62098 13.3908 6.54251 13.2186L6.36051 13.3015C6.40616 13.4017 6.38829 13.5197 6.31493 13.6017L6.46397 13.735ZM6.54258 13.2187C6.46501 13.0478 6.29422 12.9383 6.10715 12.9383V13.1383C6.216 13.1383 6.31541 13.2021 6.36045 13.3014L6.54258 13.2187ZM6.10715 12.9383C6.10715 12.9383 6.10714 12.9383 6.10714 12.9383C6.10714 12.9383 6.10714 12.9383 6.10713 12.9383C6.10713 12.9383 6.10713 12.9383 6.10713 12.9383C6.10713 12.9383 6.10712 12.9383 6.10712 12.9383C6.10712 12.9383 6.10712 12.9383 6.10711 12.9383C6.10711 12.9383 6.10711 12.9383 6.10711 12.9383C6.10711 12.9383 6.1071 12.9383 6.1071 12.9383C6.1071 12.9383 6.1071 12.9383 6.10709 12.9383C6.10709 12.9383 6.10709 12.9383 6.10709 12.9383C6.10709 12.9383 6.10708 12.9383 6.10708 12.9383C6.10708 12.9383 6.10708 12.9383 6.10707 12.9383C6.10707 12.9383 6.10707 12.9383 6.10707 12.9383C6.10707 12.9383 6.10706 12.9383 6.10706 12.9383C6.10706 12.9383 6.10706 12.9383 6.10705 12.9383C6.10705 12.9383 6.10705 12.9383 6.10705 12.9383C6.10705 12.9383 6.10704 12.9383 6.10704 12.9383C6.10704 12.9383 6.10704 12.9383 6.10703 12.9383C6.10703 12.9383 6.10703 12.9383 6.10703 12.9383C6.10702 12.9383 6.10702 12.9383 6.10702 12.9383C6.10702 12.9383 6.10702 12.9383 6.10701 12.9383C6.10701 12.9383 6.10701 12.9383 6.10701 12.9383C6.107 12.9383 6.107 12.9383 6.107 12.9383C6.107 12.9383 6.107 12.9383 6.10699 12.9383C6.10699 12.9383 6.10699 12.9383 6.10699 12.9383C6.10698 12.9383 6.10698 12.9383 6.10698 12.9383C6.10698 12.9383 6.10697 12.9383 6.10697 12.9383C6.10697 12.9383 6.10697 12.9383 6.10697 12.9383C6.10696 12.9383 6.10696 12.9383 6.10696 12.9383C6.10696 12.9383 6.10695 12.9383 6.10695 12.9383C6.10695 12.9383 6.10695 12.9383 6.10694 12.9383C6.10694 12.9383 6.10694 12.9383 6.10694 12.9383C6.10694 12.9383 6.10693 12.9383 6.10693 12.9383C6.10693 12.9383 6.10693 12.9383 6.10692 12.9383C6.10692 12.9383 6.10692 12.9383 6.10692 12.9383C6.10691 12.9383 6.10691 12.9383 6.10691 12.9383C6.10691 12.9383 6.10691 12.9383 6.1069 12.9383C6.1069 12.9383 6.1069 12.9383 6.1069 12.9383C6.10689 12.9383 6.10689 12.9383 6.10689 12.9383C6.10689 12.9383 6.10688 12.9383 6.10688 12.9383C6.10688 12.9383 6.10688 12.9383 6.10688 12.9383C6.10687 12.9383 6.10687 12.9383 6.10687 12.9383C6.10687 12.9383 6.10686 12.9383 6.10686 12.9383C6.10686 12.9383 6.10686 12.9383 6.10685 12.9383C6.10685 12.9383 6.10685 12.9383 6.10685 12.9383C6.10685 12.9383 6.10684 12.9383 6.10684 12.9383C6.10684 12.9383 6.10684 12.9383 6.10683 12.9383C6.10683 12.9383 6.10683 12.9383 6.10683 12.9383C6.10682 12.9383 6.10682 12.9383 6.10682 12.9383C6.10682 12.9383 6.10681 12.9383 6.10681 12.9383C6.10681 12.9383 6.10681 12.9383 6.10681 12.9383C6.1068 12.9383 6.1068 12.9383 6.1068 12.9383C6.1068 12.9383 6.10679 12.9383 6.10679 12.9383C6.10679 12.9383 6.10679 12.9383 6.10678 12.9383C6.10678 12.9383 6.10678 12.9383 6.10678 12.9383C6.10677 12.9383 6.10677 12.9383 6.10677 12.9383C6.10677 12.9383 6.10677 12.9383 6.10676 12.9383C6.10676 12.9383 6.10676 12.9383 6.10676 12.9383C6.10675 12.9383 6.10675 12.9383 6.10675 12.9383C6.10675 12.9383 6.10674 12.9383 6.10674 12.9383C6.10674 12.9383 6.10674 12.9383 6.10673 12.9383C6.10673 12.9383 6.10673 12.9383 6.10673 12.9383C6.10673 12.9383 6.10672 12.9383 6.10672 12.9383C6.10672 12.9383 6.10672 12.9383 6.10671 12.9383C6.10671 12.9383 6.10671 12.9383 6.10671 12.9383C6.1067 12.9383 6.1067 12.9383 6.1067 12.9383C6.1067 12.9383 6.10669 12.9383 6.10669 12.9383C6.10669 12.9383 6.10669 12.9383 6.10668 12.9383C6.10668 12.9383 6.10668 12.9383 6.10668 12.9383C6.10668 12.9383 6.10667 12.9383 6.10667 12.9383C6.10667 12.9383 6.10667 12.9383 6.10666 12.9383C6.10666 12.9383 6.10666 12.9383 6.10666 12.9383C6.10665 12.9383 6.10665 12.9383 6.10665 12.9383C6.10665 12.9383 6.10664 12.9383 6.10664 12.9383C6.10664 12.9383 6.10664 12.9383 6.10663 12.9383C6.10663 12.9383 6.10663 12.9383 6.10663 12.9383C6.10662 12.9383 6.10662 12.9383 6.10662 12.9383C6.10662 12.9383 6.10662 12.9383 6.10661 12.9383C6.10661 12.9383 6.10661 12.9383 6.10661 12.9383C6.1066 12.9383 6.1066 12.9383 6.1066 12.9383C6.1066 12.9383 6.10659 12.9383 6.10659 12.9383C6.10659 12.9383 6.10659 12.9383 6.10658 12.9383C6.10658 12.9383 6.10658 12.9383 6.10658 12.9383C6.10657 12.9383 6.10657 12.9383 6.10657 12.9383C6.10657 12.9383 6.10656 12.9383 6.10656 12.9383C6.10656 12.9383 6.10656 12.9383 6.10655 12.9383C6.10655 12.9383 6.10655 12.9383 6.10655 12.9383C6.10655 12.9383 6.10654 12.9383 6.10654 12.9383C6.10654 12.9383 6.10654 12.9383 6.10653 12.9383C6.10653 12.9383 6.10653 12.9383 6.10653 12.9383C6.10652 12.9383 6.10652 12.9383 6.10652 12.9383C6.10652 12.9383 6.10651 12.9383 6.10651 12.9383C6.10651 12.9383 6.10651 12.9383 6.1065 12.9383C6.1065 12.9383 6.1065 12.9383 6.1065 12.9383C6.10649 12.9383 6.10649 12.9383 6.10649 12.9383C6.10649 12.9383 6.10648 12.9383 6.10648 12.9383C6.10648 12.9383 6.10648 12.9383 6.10647 12.9383C6.10647 12.9383 6.10647 12.9383 6.10647 12.9383C6.10646 12.9383 6.10646 12.9383 6.10646 12.9383C6.10646 12.9383 6.10646 12.9383 6.10645 12.9383C6.10645 12.9383 6.10645 12.9383 6.10645 12.9383C6.10644 12.9383 6.10644 12.9383 6.10644 12.9383C6.10644 12.9383 6.10643 12.9383 6.10643 12.9383C6.10643 12.9383 6.10643 12.9383 6.10642 12.9383C6.10642 12.9383 6.10642 12.9383 6.10642 12.9383C6.10641 12.9383 6.10641 12.9383 6.10641 12.9383C6.10641 12.9383 6.1064 12.9383 6.1064 12.9383C6.1064 12.9383 6.1064 12.9383 6.10639 12.9383C6.10639 12.9383 6.10639 12.9383 6.10639 12.9383C6.10638 12.9383 6.10638 12.9383 6.10638 12.9383C6.10638 12.9383 6.10637 12.9383 6.10637 12.9383C6.10637 12.9383 6.10637 12.9383 6.10636 12.9383C6.10636 12.9383 6.10636 12.9383 6.10636 12.9383C6.10635 12.9383 6.10635 12.9383 6.10635 12.9383C6.10635 12.9383 6.10634 12.9383 6.10634 12.9383C6.10634 12.9383 6.10634 12.9383 6.10633 12.9383C6.10633 12.9383 6.10633 12.9383 6.10633 12.9383C6.10632 12.9383 6.10632 12.9383 6.10632 12.9383C6.10632 12.9383 6.10631 12.9383 6.10631 12.9383C6.10631 12.9383 6.10631 12.9383 6.1063 12.9383C6.1063 12.9383 6.1063 12.9383 6.1063 12.9383C6.10629 12.9383 6.10629 12.9383 6.10629 12.9383C6.10629 12.9383 6.10628 12.9383 6.10628 12.9383C6.10628 12.9383 6.10628 12.9383 6.10628 12.9383C6.10627 12.9383 6.10627 12.9383 6.10627 12.9383C6.10627 12.9383 6.10626 12.9383 6.10626 12.9383C6.10626 12.9383 6.10626 12.9383 6.10625 12.9383C6.10625 12.9383 6.10625 12.9383 6.10625 12.9383C6.10624 12.9383 6.10624 12.9383 6.10624 12.9383C6.10624 12.9383 6.10623 12.9383 6.10623 12.9383C6.10623 12.9383 6.10623 12.9383 6.10622 12.9383C6.10622 12.9383 6.10622 12.9383 6.10622 12.9383C6.10621 12.9383 6.10621 12.9383 6.10621 12.9383C6.10621 12.9383 6.1062 12.9383 6.1062 12.9383C6.1062 12.9383 6.1062 12.9383 6.10619 12.9383C6.10619 12.9383 6.10619 12.9383 6.10619 12.9383C6.10618 12.9383 6.10618 12.9383 6.10618 12.9383C6.10618 12.9383 6.10617 12.9383 6.10617 12.9383C6.10617 12.9383 6.10617 12.9383 6.10616 12.9383C6.10616 12.9383 6.10616 12.9383 6.10616 12.9383C6.10615 12.9383 6.10615 12.9383 6.10615 12.9383C6.10615 12.9383 6.10614 12.9383 6.10614 12.9383C6.10614 12.9383 6.10613 12.9383 6.10613 12.9383C6.10613 12.9383 6.10613 12.9383 6.10612 12.9383C6.10612 12.9383 6.10612 12.9383 6.10612 12.9383C6.10611 12.9383 6.10611 12.9383 6.10611 12.9383C6.10611 12.9383 6.1061 12.9383 6.1061 12.9383C6.1061 12.9383 6.1061 12.9383 6.10609 12.9383C6.10609 12.9383 6.10609 12.9383 6.10609 12.9383C6.10608 12.9383 6.10608 12.9383 6.10608 12.9383C6.10608 12.9383 6.10607 12.9383 6.10607 12.9383C6.10607 12.9383 6.10607 12.9383 6.10606 12.9383C6.10606 12.9383 6.10606 12.9383 6.10606 12.9383C6.10605 12.9383 6.10605 12.9383 6.10605 12.9383C6.10605 12.9383 6.10604 12.9383 6.10604 12.9383C6.10604 12.9383 6.10604 12.9383 6.10603 12.9383C6.10603 12.9383 6.10603 12.9383 6.10603 12.9383C6.10602 12.9383 6.10602 12.9383 6.10602 12.9383C6.10602 12.9383 6.10601 12.9383 6.10601 12.9383C6.10601 12.9383 6.10601 12.9383 6.106 12.9383C6.106 12.9383 6.106 12.9383 6.106 12.9383C6.10599 12.9383 6.10599 12.9383 6.10599 12.9383C6.10599 12.9383 6.10598 12.9383 6.10598 12.9383C6.10598 12.9383 6.10598 12.9383 6.10597 12.9383C6.10597 12.9383 6.10597 12.9383 6.10597 12.9383C6.10596 12.9383 6.10596 12.9383 6.10596 12.9383C6.10596 12.9383 6.10595 12.9383 6.10595 12.9383C6.10595 12.9383 6.10595 12.9383 6.10594 12.9383C6.10594 12.9383 6.10594 12.9383 6.10594 12.9383C6.10593 12.9383 6.10593 12.9383 6.10593 12.9383C6.10593 12.9383 6.10592 12.9383 6.10592 12.9383C6.10592 12.9383 6.10591 12.9383 6.10591 12.9383C6.10591 12.9383 6.10591 12.9383 6.1059 12.9383C6.1059 12.9383 6.1059 12.9383 6.1059 12.9383C6.10589 12.9383 6.10589 12.9383 6.10589 12.9383C6.10589 12.9383 6.10588 12.9383 6.10588 12.9383C6.10588 12.9383 6.10588 12.9383 6.10587 12.9383C6.10587 12.9383 6.10587 12.9383 6.10587 12.9383C6.10586 12.9383 6.10586 12.9383 6.10586 12.9383C6.10586 12.9383 6.10585 12.9383 6.10585 12.9383C6.10585 12.9383 6.10585 12.9383 6.10584 12.9383C6.10584 12.9383 6.10584 12.9383 6.10584 12.9383C6.10583 12.9383 6.10583 12.9383 6.10583 12.9383C6.10583 12.9383 6.10582 12.9383 6.10582 12.9383C6.10582 12.9383 6.10582 12.9383 6.10581 12.9383C6.10581 12.9383 6.10581 12.9383 6.10581 12.9383C6.1058 12.9383 6.1058 12.9383 6.1058 12.9383C6.10579 12.9383 6.10579 12.9383 6.10579 12.9383C6.10579 12.9383 6.10578 12.9383 6.10578 12.9383C6.10578 12.9383 6.10578 12.9383 6.10577 12.9383C6.10577 12.9383 6.10577 12.9383 6.10577 12.9383C6.10576 12.9383 6.10576 12.9383 6.10576 12.9383C6.10576 12.9383 6.10575 12.9383 6.10575 12.9383C6.10575 12.9383 6.10575 12.9383 6.10574 12.9383C6.10574 12.9383 6.10574 12.9383 6.10574 12.9383C6.10573 12.9383 6.10573 12.9383 6.10573 12.9383C6.10573 12.9383 6.10572 12.9383 6.10572 12.9383C6.10572 12.9383 6.10572 12.9383 6.10571 12.9383C6.10571 12.9383 6.10571 12.9383 6.10571 12.9383C6.1057 12.9383 6.1057 12.9383 6.1057 12.9383C6.10569 12.9383 6.10569 12.9383 6.10569 12.9383C6.10569 12.9383 6.10568 12.9383 6.10568 12.9383C6.10568 12.9383 6.10568 12.9383 6.10567 12.9383C6.10567 12.9383 6.10567 12.9383 6.10567 12.9383C6.10566 12.9383 6.10566 12.9383 6.10566 12.9383C6.10566 12.9383 6.10565 12.9383 6.10565 12.9383C6.10565 12.9383 6.10565 12.9383 6.10564 12.9383C6.10564 12.9383 6.10564 12.9383 6.10564 12.9383C6.10563 12.9383 6.10563 12.9383 6.10563 12.9383C6.10563 12.9383 6.10562 12.9383 6.10562 12.9383C6.10562 12.9383 6.10562 12.9383 6.10561 12.9383C6.10561 12.9383 6.10561 12.9383 6.1056 12.9383C6.1056 12.9383 6.1056 12.9383 6.1056 12.9383C6.10559 12.9383 6.10559 12.9383 6.10559 12.9383C6.10559 12.9383 6.10558 12.9383 6.10558 12.9383C6.10558 12.9383 6.10558 12.9383 6.10557 12.9383C6.10557 12.9383 6.10557 12.9383 6.10557 12.9383C6.10556 12.9383 6.10556 12.9383 6.10556 12.9383C6.10556 12.9383 6.10555 12.9383 6.10555 12.9383C6.10555 12.9383 6.10555 12.9383 6.10554 12.9383C6.10554 12.9383 6.10554 12.9383 6.10554 12.9383C6.10553 12.9383 6.10553 12.9383 6.10553 12.9383C6.10552 12.9383 6.10552 12.9383 6.10552 12.9383C6.10552 12.9383 6.10551 12.9383 6.10551 12.9383C6.10551 12.9383 6.10551 12.9383 6.1055 12.9383C6.1055 12.9383 6.1055 12.9383 6.1055 12.9383C6.10549 12.9383 6.10549 12.9383 6.10549 12.9383C6.10549 12.9383 6.10548 12.9383 6.10548 12.9383C6.10548 12.9383 6.10548 12.9383 6.10547 12.9383C6.10547 12.9383 6.10547 12.9383 6.10547 12.9383C6.10546 12.9383 6.10546 12.9383 6.10546 12.9383C6.10546 12.9383 6.10545 12.9383 6.10545 12.9383C6.10545 12.9383 6.10544 12.9383 6.10544 12.9383C6.10544 12.9383 6.10544 12.9383 6.10543 12.9383C6.10543 12.9383 6.10543 12.9383 6.10543 12.9383C6.10542 12.9383 6.10542 12.9383 6.10542 12.9383C6.10542 12.9383 6.10541 12.9383 6.10541 12.9383C6.10541 12.9383 6.10541 12.9383 6.1054 12.9383C6.1054 12.9383 6.1054 12.9383 6.1054 12.9383C6.10539 12.9383 6.10539 12.9383 6.10539 12.9383C6.10539 12.9383 6.10538 12.9383 6.10538 12.9383C6.10538 12.9383 6.10538 12.9383 6.10537 12.9383C6.10537 12.9383 6.10537 12.9383 6.10536 12.9383C6.10536 12.9383 6.10536 12.9383 6.10536 12.9383C6.10535 12.9383 6.10535 12.9383 6.10535 12.9383C6.10535 12.9383 6.10534 12.9383 6.10534 12.9383C6.10534 12.9383 6.10534 12.9383 6.10533 12.9383C6.10533 12.9383 6.10533 12.9383 6.10533 12.9383C6.10532 12.9383 6.10532 12.9383 6.10532 12.9383C6.10532 12.9383 6.10531 12.9383 6.10531 12.9383C6.10531 12.9383 6.10531 12.9383 6.1053 12.9383C6.1053 12.9383 6.1053 12.9383 6.10529 12.9383C6.10529 12.9383 6.10529 12.9383 6.10529 12.9383C6.10528 12.9383 6.10528 12.9383 6.10528 12.9383C6.10528 12.9383 6.10527 12.9383 6.10527 12.9383C6.10527 12.9383 6.10527 12.9383 6.10526 12.9383C6.10526 12.9383 6.10526 12.9383 6.10526 12.9383C6.10525 12.9383 6.10525 12.9383 6.10525 12.9383C6.10525 12.9383 6.10524 12.9383 6.10524 12.9383C6.10524 12.9383 6.10524 12.9383 6.10523 12.9383C6.10523 12.9383 6.10523 12.9383 6.10523 12.9383C6.10522 12.9383 6.10522 12.9383 6.10522 12.9383C6.10521 12.9383 6.10521 12.9383 6.10521 12.9383C6.10521 12.9383 6.1052 12.9383 6.1052 12.9383C6.1052 12.9383 6.1052 12.9383 6.10519 12.9383C6.10519 12.9383 6.10519 12.9383 6.10519 12.9383C6.10518 12.9383 6.10518 12.9383 6.10518 12.9383C6.10518 12.9383 6.10517 12.9383 6.10517 12.9383C6.10517 12.9383 6.10517 12.9383 6.10516 12.9383C6.10516 12.9383 6.10516 12.9383 6.10516 12.9383C6.10515 12.9383 6.10515 12.9383 6.10515 12.9383C6.10514 12.9383 6.10514 12.9383 6.10514 12.9383C6.10514 12.9383 6.10513 12.9383 6.10513 12.9383C6.10513 12.9383 6.10513 12.9383 6.10512 12.9383C6.10512 12.9383 6.10512 12.9383 6.10512 12.9383C6.10511 12.9383 6.10511 12.9383 6.10511 12.9383C6.10511 12.9383 6.1051 12.9383 6.1051 12.9383C6.1051 12.9383 6.1051 12.9383 6.10509 12.9383C6.10509 12.9383 6.10509 12.9383 6.10509 12.9383C6.10508 12.9383 6.10508 12.9383 6.10508 12.9383C6.10508 12.9383 6.10507 12.9383 6.10507 12.9383C6.10507 12.9383 6.10506 12.9383 6.10506 12.9383C6.10506 12.9383 6.10506 12.9383 6.10505 12.9383C6.10505 12.9383 6.10505 12.9383 6.10505 12.9383C6.10504 12.9383 6.10504 12.9383 6.10504 12.9383C6.10504 12.9383 6.10503 12.9383 6.10503 12.9383C6.10503 12.9383 6.10503 12.9383 6.10502 12.9383C6.10502 12.9383 6.10502 12.9383 6.10502 12.9383C6.10501 12.9383 6.10501 12.9383 6.10501 12.9383C6.10501 12.9383 6.105 12.9383 6.105 12.9383C6.105 12.9383 6.105 12.9383 6.10499 12.9383C6.10499 12.9383 6.10499 12.9383 6.10498 12.9383C6.10498 12.9383 6.10498 12.9383 6.10498 12.9383C6.10497 12.9383 6.10497 12.9383 6.10497 12.9383C6.10497 12.9383 6.10496 12.9383 6.10496 12.9383C6.10496 12.9383 6.10496 12.9383 6.10495 12.9383C6.10495 12.9383 6.10495 12.9383 6.10495 12.9383C6.10494 12.9383 6.10494 12.9383 6.10494 12.9383C6.10494 12.9383 6.10493 12.9383 6.10493 12.9383C6.10493 12.9383 6.10493 12.9383 6.10492 12.9383C6.10492 12.9383 6.10492 12.9383 6.10492 12.9383C6.10491 12.9383 6.10491 12.9383 6.10491 12.9383C6.1049 12.9383 6.1049 12.9383 6.1049 12.9383C6.1049 12.9383 6.10489 12.9383 6.10489 12.9383C6.10489 12.9383 6.10489 12.9383 6.10488 12.9383C6.10488 12.9383 6.10488 12.9383 6.10488 12.9383C6.10487 12.9383 6.10487 12.9383 6.10487 12.9383C6.10487 12.9383 6.10486 12.9383 6.10486 12.9383C6.10486 12.9383 6.10486 12.9383 6.10485 12.9383C6.10485 12.9383 6.10485 12.9383 6.10485 12.9383C6.10484 12.9383 6.10484 12.9383 6.10484 12.9383C6.10484 12.9383 6.10483 12.9383 6.10483 12.9383C6.10483 12.9383 6.10483 12.9383 6.10482 12.9383C6.10482 12.9383 6.10482 12.9383 6.10481 12.9383C6.10481 12.9383 6.10481 12.9383 6.10481 12.9383C6.1048 12.9383 6.1048 12.9383 6.1048 12.9383C6.1048 12.9383 6.10479 12.9383 6.10479 12.9383C6.10479 12.9383 6.10479 12.9383 6.10478 12.9383C6.10478 12.9383 6.10478 12.9383 6.10478 12.9383C6.10477 12.9383 6.10477 12.9383 6.10477 12.9383C6.10477 12.9383 6.10476 12.9383 6.10476 12.9383C6.10476 12.9383 6.10476 12.9383 6.10475 12.9383C6.10475 12.9383 6.10475 12.9383 6.10475 12.9383C6.10474 12.9383 6.10474 12.9383 6.10474 12.9383C6.10474 12.9383 6.10473 12.9383 6.10473 12.9383C6.10473 12.9383 6.10472 12.9383 6.10472 12.9383C6.10472 12.9383 6.10472 12.9383 6.10471 12.9383C6.10471 12.9383 6.10471 12.9383 6.10471 12.9383C6.1047 12.9383 6.1047 12.9383 6.1047 12.9383C6.1047 12.9383 6.10469 12.9383 6.10469 12.9383C6.10469 12.9383 6.10469 12.9383 6.10468 12.9383C6.10468 12.9383 6.10468 12.9383 6.10468 12.9383C6.10467 12.9383 6.10467 12.9383 6.10467 12.9383C6.10467 12.9383 6.10466 12.9383 6.10466 12.9383C6.10466 12.9383 6.10466 12.9383 6.10465 12.9383C6.10465 12.9383 6.10465 12.9383 6.10465 12.9383C6.10464 12.9383 6.10464 12.9383 6.10464 12.9383C6.10464 12.9383 6.10463 12.9383 6.10463 12.9383C6.10463 12.9383 6.10463 12.9383 6.10462 12.9383C6.10462 12.9383 6.10462 12.9383 6.10462 12.9383C6.10461 12.9383 6.10461 12.9383 6.10461 12.9383C6.1046 12.9383 6.1046 12.9383 6.1046 12.9383C6.1046 12.9383 6.10459 12.9383 6.10459 12.9383C6.10459 12.9383 6.10459 12.9383 6.10458 12.9383C6.10458 12.9383 6.10458 12.9383 6.10458 12.9383C6.10457 12.9383 6.10457 12.9383 6.10457 12.9383C6.10457 12.9383 6.10456 12.9383 6.10456 12.9383C6.10456 12.9383 6.10456 12.9383 6.10455 12.9383C6.10455 12.9383 6.10455 12.9383 6.10455 12.9383C6.10454 12.9383 6.10454 12.9383 6.10454 12.9383C6.10454 12.9383 6.10453 12.9383 6.10453 12.9383C6.10453 12.9383 6.10453 12.9383 6.10452 12.9383C6.10452 12.9383 6.10452 12.9383 6.10452 12.9383C6.10451 12.9383 6.10451 12.9383 6.10451 12.9383C6.10451 12.9383 6.1045 12.9383 6.1045 12.9383C6.1045 12.9383 6.1045 12.9383 6.10449 12.9383C6.10449 12.9383 6.10449 12.9383 6.10449 12.9383C6.10448 12.9383 6.10448 12.9383 6.10448 12.9383C6.10448 12.9383 6.10447 12.9383 6.10447 12.9383C6.10447 12.9383 6.10447 12.9383 6.10446 12.9383C6.10446 12.9383 6.10446 12.9383 6.10446 12.9383C6.10445 12.9383 6.10445 12.9383 6.10445 12.9383C6.10445 12.9383 6.10444 12.9383 6.10444 12.9383C6.10444 12.9383 6.10444 12.9383 6.10443 12.9383C6.10443 12.9383 6.10443 12.9383 6.10443 12.9383C6.10442 12.9383 6.10442 12.9383 6.10442 12.9383C6.10441 12.9383 6.10441 12.9383 6.10441 12.9383C6.10441 12.9383 6.1044 12.9383 6.1044 12.9383C6.1044 12.9383 6.1044 12.9383 6.10439 12.9383C6.10439 12.9383 6.10439 12.9383 6.10439 12.9383C6.10438 12.9383 6.10438 12.9383 6.10438 12.9383C6.10438 12.9383 6.10437 12.9383 6.10437 12.9383C6.10437 12.9383 6.10437 12.9383 6.10436 12.9383C6.10436 12.9383 6.10436 12.9383 6.10436 12.9383C6.10435 12.9383 6.10435 12.9383 6.10435 12.9383C6.10435 12.9383 6.10434 12.9383 6.10434 12.9383C6.10434 12.9383 6.10434 12.9383 6.10433 12.9383C6.10433 12.9383 6.10433 12.9383 6.10433 12.9383C6.10432 12.9383 6.10432 12.9383 6.10432 12.9383C6.10432 12.9383 6.10431 12.9383 6.10431 12.9383C6.10431 12.9383 6.10431 12.9383 6.1043 12.9383C6.1043 12.9383 6.1043 12.9383 6.1043 12.9383C6.10429 12.9383 6.10429 12.9383 6.10429 12.9383C6.10429 12.9383 6.10428 12.9383 6.10428 12.9383C6.10428 12.9383 6.10428 12.9383 6.10427 12.9383C6.10427 12.9383 6.10427 12.9383 6.10427 12.9383C6.10426 12.9383 6.10426 12.9383 6.10426 12.9383C6.10426 12.9383 6.10425 12.9383 6.10425 12.9383C6.10425 12.9383 6.10425 12.9383 6.10424 12.9383C6.10424 12.9383 6.10424 12.9383 6.10424 12.9383C6.10423 12.9383 6.10423 12.9383 6.10423 12.9383C6.10423 12.9383 6.10422 12.9383 6.10422 12.9383C6.10422 12.9383 6.10422 12.9383 6.10421 12.9383C6.10421 12.9383 6.10421 12.9383 6.10421 12.9383C6.1042 12.9383 6.1042 12.9383 6.1042 12.9383C6.1042 12.9383 6.10419 12.9383 6.10419 12.9383C6.10419 12.9383 6.10419 12.9383 6.10419 12.9383C6.10418 12.9383 6.10418 12.9383 6.10418 12.9383C6.10418 12.9383 6.10417 12.9383 6.10417 12.9383C6.10417 12.9383 6.10417 12.9383 6.10416 12.9383C6.10416 12.9383 6.10416 12.9383 6.10416 12.9383C6.10415 12.9383 6.10415 12.9383 6.10415 12.9383C6.10415 12.9383 6.10414 12.9383 6.10414 12.9383C6.10414 12.9383 6.10414 12.9383 6.10413 12.9383C6.10413 12.9383 6.10413 12.9383 6.10413 12.9383C6.10412 12.9383 6.10412 12.9383 6.10412 12.9383C6.10412 12.9383 6.10411 12.9383 6.10411 12.9383C6.10411 12.9383 6.10411 12.9383 6.1041 12.9383C6.1041 12.9383 6.1041 12.9383 6.1041 12.9383C6.10409 12.9383 6.10409 12.9383 6.10409 12.9383C6.10409 12.9383 6.10408 12.9383 6.10408 12.9383C6.10408 12.9383 6.10408 12.9383 6.10407 12.9383C6.10407 12.9383 6.10407 12.9383 6.10407 12.9383C6.10406 12.9383 6.10406 12.9383 6.10406 12.9383C6.10406 12.9383 6.10405 12.9383 6.10405 12.9383C6.10405 12.9383 6.10405 12.9383 6.10404 12.9383C6.10404 12.9383 6.10404 12.9383 6.10404 12.9383C6.10404 12.9383 6.10403 12.9383 6.10403 12.9383C6.10403 12.9383 6.10403 12.9383 6.10402 12.9383C6.10402 12.9383 6.10402 12.9383 6.10402 12.9383C6.10401 12.9383 6.10401 12.9383 6.10401 12.9383C6.10401 12.9383 6.104 12.9383 6.104 12.9383C6.104 12.9383 6.104 12.9383 6.10399 12.9383C6.10399 12.9383 6.10399 12.9383 6.10399 12.9383C6.10398 12.9383 6.10398 12.9383 6.10398 12.9383C6.10398 12.9383 6.10397 12.9383 6.10397 12.9383C6.10397 12.9383 6.10397 12.9383 6.10396 12.9383C6.10396 12.9383 6.10396 12.9383 6.10396 12.9383C6.10395 12.9383 6.10395 12.9383 6.10395 12.9383C6.10395 12.9383 6.10395 12.9383 6.10394 12.9383C6.10394 12.9383 6.10394 12.9383 6.10394 12.9383C6.10393 12.9383 6.10393 12.9383 6.10393 12.9383C6.10393 12.9383 6.10392 12.9383 6.10392 12.9383C6.10392 12.9383 6.10392 12.9383 6.10391 12.9383C6.10391 12.9383 6.10391 12.9383 6.10391 12.9383C6.1039 12.9383 6.1039 12.9383 6.1039 12.9383C6.1039 12.9383 6.10389 12.9383 6.10389 12.9383C6.10389 12.9383 6.10389 12.9383 6.10388 12.9383C6.10388 12.9383 6.10388 12.9383 6.10388 12.9383C6.10388 12.9383 6.10387 12.9383 6.10387 12.9383C6.10387 12.9383 6.10387 12.9383 6.10386 12.9383C6.10386 12.9383 6.10386 12.9383 6.10386 12.9383C6.10385 12.9383 6.10385 12.9383 6.10385 12.9383C6.10385 12.9383 6.10384 12.9383 6.10384 12.9383C6.10384 12.9383 6.10384 12.9383 6.10383 12.9383C6.10383 12.9383 6.10383 12.9383 6.10383 12.9383C6.10382 12.9383 6.10382 12.9383 6.10382 12.9383C6.10382 12.9383 6.10382 12.9383 6.10381 12.9383C6.10381 12.9383 6.10381 12.9383 6.10381 12.9383C6.1038 12.9383 6.1038 12.9383 6.1038 12.9383C6.1038 12.9383 6.10379 12.9383 6.10379 12.9383C6.10379 12.9383 6.10379 12.9383 6.10378 12.9383C6.10378 12.9383 6.10378 12.9383 6.10378 12.9383C6.10378 12.9383 6.10377 12.9383 6.10377 12.9383C6.10377 12.9383 6.10377 12.9383 6.10376 12.9383C6.10376 12.9383 6.10376 12.9383 6.10376 12.9383C6.10375 12.9383 6.10375 12.9383 6.10375 12.9383C6.10375 12.9383 6.10374 12.9383 6.10374 12.9383C6.10374 12.9383 6.10374 12.9383 6.10373 12.9383C6.10373 12.9383 6.10373 12.9383 6.10373 12.9383C6.10373 12.9383 6.10372 12.9383 6.10372 12.9383C6.10372 12.9383 6.10372 12.9383 6.10371 12.9383C6.10371 12.9383 6.10371 12.9383 6.10371 12.9383C6.1037 12.9383 6.1037 12.9383 6.1037 12.9383C6.1037 12.9383 6.10369 12.9383 6.10369 12.9383C6.10369 12.9383 6.10369 12.9383 6.10369 12.9383C6.10368 12.9383 6.10368 12.9383 6.10368 12.9383C6.10368 12.9383 6.10367 12.9383 6.10367 12.9383C6.10367 12.9383 6.10367 12.9383 6.10366 12.9383C6.10366 12.9383 6.10366 12.9383 6.10366 12.9383C6.10366 12.9383 6.10365 12.9383 6.10365 12.9383C6.10365 12.9383 6.10365 12.9383 6.10364 12.9383C6.10364 12.9383 6.10364 12.9383 6.10364 12.9383C6.10363 12.9383 6.10363 12.9383 6.10363 12.9383C6.10363 12.9383 6.10362 12.9383 6.10362 12.9383C6.10362 12.9383 6.10362 12.9383 6.10362 12.9383C6.10361 12.9383 6.10361 12.9383 6.10361 12.9383C6.10361 12.9383 6.1036 12.9383 6.1036 12.9383C6.1036 12.9383 6.1036 12.9383 6.10359 12.9383C6.10359 12.9383 6.10359 12.9383 6.10359 12.9383C6.10359 12.9383 6.10358 12.9383 6.10358 12.9383C6.10358 12.9383 6.10358 12.9383 6.10357 12.9383C6.10357 12.9383 6.10357 12.9383 6.10357 12.9383C6.10356 12.9383 6.10356 12.9383 6.10356 12.9383C6.10356 12.9383 6.10356 12.9383 6.10355 12.9383C6.10355 12.9383 6.10355 12.9383 6.10355 12.9383C6.10354 12.9383 6.10354 12.9383 6.10354 12.9383C6.10354 12.9383 6.10354 12.9383 6.10353 12.9383C6.10353 12.9383 6.10353 12.9383 6.10353 12.9383C6.10352 12.9383 6.10352 12.9383 6.10352 12.9383C6.10352 12.9383 6.10351 12.9383 6.10351 12.9383C6.10351 12.9383 6.10351 12.9383 6.10351 12.9383C6.1035 12.9383 6.1035 12.9383 6.1035 12.9383C6.1035 12.9383 6.10349 12.9383 6.10349 12.9383C6.10349 12.9383 6.10349 12.9383 6.10349 12.9383C6.10348 12.9383 6.10348 12.9383 6.10348 12.9383C6.10348 12.9383 6.10347 12.9383 6.10347 12.9383C6.10347 12.9383 6.10347 12.9383 6.10346 12.9383C6.10346 12.9383 6.10346 12.9383 6.10346 12.9383C6.10346 12.9383 6.10345 12.9383 6.10345 12.9383C6.10345 12.9383 6.10345 12.9383 6.10344 12.9383C6.10344 12.9383 6.10344 12.9383 6.10344 12.9383C6.10344 12.9383 6.10343 12.9383 6.10343 12.9383C6.10343 12.9383 6.10343 12.9383 6.10342 12.9383C6.10342 12.9383 6.10342 12.9383 6.10342 12.9383C6.10342 12.9383 6.10341 12.9383 6.10341 12.9383C6.10341 12.9383 6.10341 12.9383 6.1034 12.9383C6.1034 12.9383 6.1034 12.9383 6.1034 12.9383C6.1034 12.9383 6.10339 12.9383 6.10339 12.9383C6.10339 12.9383 6.10339 12.9383 6.10338 12.9383C6.10338 12.9383 6.10338 12.9383 6.10338 12.9383C6.10338 12.9383 6.10337 12.9383 6.10337 12.9383C6.10337 12.9383 6.10337 12.9383 6.10336 12.9383V13.1383C6.10337 13.1383 6.10337 13.1383 6.10337 13.1383C6.10337 13.1383 6.10338 13.1383 6.10338 13.1383C6.10338 13.1383 6.10338 13.1383 6.10338 13.1383C6.10339 13.1383 6.10339 13.1383 6.10339 13.1383C6.10339 13.1383 6.1034 13.1383 6.1034 13.1383C6.1034 13.1383 6.1034 13.1383 6.1034 13.1383C6.10341 13.1383 6.10341 13.1383 6.10341 13.1383C6.10341 13.1383 6.10342 13.1383 6.10342 13.1383C6.10342 13.1383 6.10342 13.1383 6.10342 13.1383C6.10343 13.1383 6.10343 13.1383 6.10343 13.1383C6.10343 13.1383 6.10344 13.1383 6.10344 13.1383C6.10344 13.1383 6.10344 13.1383 6.10344 13.1383C6.10345 13.1383 6.10345 13.1383 6.10345 13.1383C6.10345 13.1383 6.10346 13.1383 6.10346 13.1383C6.10346 13.1383 6.10346 13.1383 6.10346 13.1383C6.10347 13.1383 6.10347 13.1383 6.10347 13.1383C6.10347 13.1383 6.10348 13.1383 6.10348 13.1383C6.10348 13.1383 6.10348 13.1383 6.10349 13.1383C6.10349 13.1383 6.10349 13.1383 6.10349 13.1383C6.10349 13.1383 6.1035 13.1383 6.1035 13.1383C6.1035 13.1383 6.1035 13.1383 6.10351 13.1383C6.10351 13.1383 6.10351 13.1383 6.10351 13.1383C6.10351 13.1383 6.10352 13.1383 6.10352 13.1383C6.10352 13.1383 6.10352 13.1383 6.10353 13.1383C6.10353 13.1383 6.10353 13.1383 6.10353 13.1383C6.10354 13.1383 6.10354 13.1383 6.10354 13.1383C6.10354 13.1383 6.10354 13.1383 6.10355 13.1383C6.10355 13.1383 6.10355 13.1383 6.10355 13.1383C6.10356 13.1383 6.10356 13.1383 6.10356 13.1383C6.10356 13.1383 6.10356 13.1383 6.10357 13.1383C6.10357 13.1383 6.10357 13.1383 6.10357 13.1383C6.10358 13.1383 6.10358 13.1383 6.10358 13.1383C6.10358 13.1383 6.10359 13.1383 6.10359 13.1383C6.10359 13.1383 6.10359 13.1383 6.10359 13.1383C6.1036 13.1383 6.1036 13.1383 6.1036 13.1383C6.1036 13.1383 6.10361 13.1383 6.10361 13.1383C6.10361 13.1383 6.10361 13.1383 6.10362 13.1383C6.10362 13.1383 6.10362 13.1383 6.10362 13.1383C6.10362 13.1383 6.10363 13.1383 6.10363 13.1383C6.10363 13.1383 6.10363 13.1383 6.10364 13.1383C6.10364 13.1383 6.10364 13.1383 6.10364 13.1383C6.10365 13.1383 6.10365 13.1383 6.10365 13.1383C6.10365 13.1383 6.10366 13.1383 6.10366 13.1383C6.10366 13.1383 6.10366 13.1383 6.10366 13.1383C6.10367 13.1383 6.10367 13.1383 6.10367 13.1383C6.10367 13.1383 6.10368 13.1383 6.10368 13.1383C6.10368 13.1383 6.10368 13.1383 6.10369 13.1383C6.10369 13.1383 6.10369 13.1383 6.10369 13.1383C6.10369 13.1383 6.1037 13.1383 6.1037 13.1383C6.1037 13.1383 6.1037 13.1383 6.10371 13.1383C6.10371 13.1383 6.10371 13.1383 6.10371 13.1383C6.10372 13.1383 6.10372 13.1383 6.10372 13.1383C6.10372 13.1383 6.10373 13.1383 6.10373 13.1383C6.10373 13.1383 6.10373 13.1383 6.10373 13.1383C6.10374 13.1383 6.10374 13.1383 6.10374 13.1383C6.10374 13.1383 6.10375 13.1383 6.10375 13.1383C6.10375 13.1383 6.10375 13.1383 6.10376 13.1383C6.10376 13.1383 6.10376 13.1383 6.10376 13.1383C6.10377 13.1383 6.10377 13.1383 6.10377 13.1383C6.10377 13.1383 6.10378 13.1383 6.10378 13.1383C6.10378 13.1383 6.10378 13.1383 6.10378 13.1383C6.10379 13.1383 6.10379 13.1383 6.10379 13.1383C6.10379 13.1383 6.1038 13.1383 6.1038 13.1383C6.1038 13.1383 6.1038 13.1383 6.10381 13.1383C6.10381 13.1383 6.10381 13.1383 6.10381 13.1383C6.10382 13.1383 6.10382 13.1383 6.10382 13.1383C6.10382 13.1383 6.10382 13.1383 6.10383 13.1383C6.10383 13.1383 6.10383 13.1383 6.10383 13.1383C6.10384 13.1383 6.10384 13.1383 6.10384 13.1383C6.10384 13.1383 6.10385 13.1383 6.10385 13.1383C6.10385 13.1383 6.10385 13.1383 6.10386 13.1383C6.10386 13.1383 6.10386 13.1383 6.10386 13.1383C6.10387 13.1383 6.10387 13.1383 6.10387 13.1383C6.10387 13.1383 6.10388 13.1383 6.10388 13.1383C6.10388 13.1383 6.10388 13.1383 6.10388 13.1383C6.10389 13.1383 6.10389 13.1383 6.10389 13.1383C6.10389 13.1383 6.1039 13.1383 6.1039 13.1383C6.1039 13.1383 6.1039 13.1383 6.10391 13.1383C6.10391 13.1383 6.10391 13.1383 6.10391 13.1383C6.10392 13.1383 6.10392 13.1383 6.10392 13.1383C6.10392 13.1383 6.10393 13.1383 6.10393 13.1383C6.10393 13.1383 6.10393 13.1383 6.10394 13.1383C6.10394 13.1383 6.10394 13.1383 6.10394 13.1383C6.10395 13.1383 6.10395 13.1383 6.10395 13.1383C6.10395 13.1383 6.10395 13.1383 6.10396 13.1383C6.10396 13.1383 6.10396 13.1383 6.10396 13.1383C6.10397 13.1383 6.10397 13.1383 6.10397 13.1383C6.10397 13.1383 6.10398 13.1383 6.10398 13.1383C6.10398 13.1383 6.10398 13.1383 6.10399 13.1383C6.10399 13.1383 6.10399 13.1383 6.10399 13.1383C6.104 13.1383 6.104 13.1383 6.104 13.1383C6.104 13.1383 6.10401 13.1383 6.10401 13.1383C6.10401 13.1383 6.10401 13.1383 6.10402 13.1383C6.10402 13.1383 6.10402 13.1383 6.10402 13.1383C6.10403 13.1383 6.10403 13.1383 6.10403 13.1383C6.10403 13.1383 6.10404 13.1383 6.10404 13.1383C6.10404 13.1383 6.10404 13.1383 6.10404 13.1383C6.10405 13.1383 6.10405 13.1383 6.10405 13.1383C6.10405 13.1383 6.10406 13.1383 6.10406 13.1383C6.10406 13.1383 6.10406 13.1383 6.10407 13.1383C6.10407 13.1383 6.10407 13.1383 6.10407 13.1383C6.10408 13.1383 6.10408 13.1383 6.10408 13.1383C6.10408 13.1383 6.10409 13.1383 6.10409 13.1383C6.10409 13.1383 6.10409 13.1383 6.1041 13.1383C6.1041 13.1383 6.1041 13.1383 6.1041 13.1383C6.10411 13.1383 6.10411 13.1383 6.10411 13.1383C6.10411 13.1383 6.10412 13.1383 6.10412 13.1383C6.10412 13.1383 6.10412 13.1383 6.10413 13.1383C6.10413 13.1383 6.10413 13.1383 6.10413 13.1383C6.10414 13.1383 6.10414 13.1383 6.10414 13.1383C6.10414 13.1383 6.10415 13.1383 6.10415 13.1383C6.10415 13.1383 6.10415 13.1383 6.10416 13.1383C6.10416 13.1383 6.10416 13.1383 6.10416 13.1383C6.10417 13.1383 6.10417 13.1383 6.10417 13.1383C6.10417 13.1383 6.10418 13.1383 6.10418 13.1383C6.10418 13.1383 6.10418 13.1383 6.10419 13.1383C6.10419 13.1383 6.10419 13.1383 6.10419 13.1383C6.10419 13.1383 6.1042 13.1383 6.1042 13.1383C6.1042 13.1383 6.1042 13.1383 6.10421 13.1383C6.10421 13.1383 6.10421 13.1383 6.10421 13.1383C6.10422 13.1383 6.10422 13.1383 6.10422 13.1383C6.10422 13.1383 6.10423 13.1383 6.10423 13.1383C6.10423 13.1383 6.10423 13.1383 6.10424 13.1383C6.10424 13.1383 6.10424 13.1383 6.10424 13.1383C6.10425 13.1383 6.10425 13.1383 6.10425 13.1383C6.10425 13.1383 6.10426 13.1383 6.10426 13.1383C6.10426 13.1383 6.10426 13.1383 6.10427 13.1383C6.10427 13.1383 6.10427 13.1383 6.10427 13.1383C6.10428 13.1383 6.10428 13.1383 6.10428 13.1383C6.10428 13.1383 6.10429 13.1383 6.10429 13.1383C6.10429 13.1383 6.10429 13.1383 6.1043 13.1383C6.1043 13.1383 6.1043 13.1383 6.1043 13.1383C6.10431 13.1383 6.10431 13.1383 6.10431 13.1383C6.10431 13.1383 6.10432 13.1383 6.10432 13.1383C6.10432 13.1383 6.10432 13.1383 6.10433 13.1383C6.10433 13.1383 6.10433 13.1383 6.10433 13.1383C6.10434 13.1383 6.10434 13.1383 6.10434 13.1383C6.10434 13.1383 6.10435 13.1383 6.10435 13.1383C6.10435 13.1383 6.10435 13.1383 6.10436 13.1383C6.10436 13.1383 6.10436 13.1383 6.10436 13.1383C6.10437 13.1383 6.10437 13.1383 6.10437 13.1383C6.10437 13.1383 6.10438 13.1383 6.10438 13.1383C6.10438 13.1383 6.10438 13.1383 6.10439 13.1383C6.10439 13.1383 6.10439 13.1383 6.10439 13.1383C6.1044 13.1383 6.1044 13.1383 6.1044 13.1383C6.1044 13.1383 6.10441 13.1383 6.10441 13.1383C6.10441 13.1383 6.10441 13.1383 6.10442 13.1383C6.10442 13.1383 6.10442 13.1383 6.10443 13.1383C6.10443 13.1383 6.10443 13.1383 6.10443 13.1383C6.10444 13.1383 6.10444 13.1383 6.10444 13.1383C6.10444 13.1383 6.10445 13.1383 6.10445 13.1383C6.10445 13.1383 6.10445 13.1383 6.10446 13.1383C6.10446 13.1383 6.10446 13.1383 6.10446 13.1383C6.10447 13.1383 6.10447 13.1383 6.10447 13.1383C6.10447 13.1383 6.10448 13.1383 6.10448 13.1383C6.10448 13.1383 6.10448 13.1383 6.10449 13.1383C6.10449 13.1383 6.10449 13.1383 6.10449 13.1383C6.1045 13.1383 6.1045 13.1383 6.1045 13.1383C6.1045 13.1383 6.10451 13.1383 6.10451 13.1383C6.10451 13.1383 6.10451 13.1383 6.10452 13.1383C6.10452 13.1383 6.10452 13.1383 6.10452 13.1383C6.10453 13.1383 6.10453 13.1383 6.10453 13.1383C6.10453 13.1383 6.10454 13.1383 6.10454 13.1383C6.10454 13.1383 6.10454 13.1383 6.10455 13.1383C6.10455 13.1383 6.10455 13.1383 6.10455 13.1383C6.10456 13.1383 6.10456 13.1383 6.10456 13.1383C6.10456 13.1383 6.10457 13.1383 6.10457 13.1383C6.10457 13.1383 6.10457 13.1383 6.10458 13.1383C6.10458 13.1383 6.10458 13.1383 6.10458 13.1383C6.10459 13.1383 6.10459 13.1383 6.10459 13.1383C6.10459 13.1383 6.1046 13.1383 6.1046 13.1383C6.1046 13.1383 6.1046 13.1383 6.10461 13.1383C6.10461 13.1383 6.10461 13.1383 6.10462 13.1383C6.10462 13.1383 6.10462 13.1383 6.10462 13.1383C6.10463 13.1383 6.10463 13.1383 6.10463 13.1383C6.10463 13.1383 6.10464 13.1383 6.10464 13.1383C6.10464 13.1383 6.10464 13.1383 6.10465 13.1383C6.10465 13.1383 6.10465 13.1383 6.10465 13.1383C6.10466 13.1383 6.10466 13.1383 6.10466 13.1383C6.10466 13.1383 6.10467 13.1383 6.10467 13.1383C6.10467 13.1383 6.10467 13.1383 6.10468 13.1383C6.10468 13.1383 6.10468 13.1383 6.10468 13.1383C6.10469 13.1383 6.10469 13.1383 6.10469 13.1383C6.10469 13.1383 6.1047 13.1383 6.1047 13.1383C6.1047 13.1383 6.1047 13.1383 6.10471 13.1383C6.10471 13.1383 6.10471 13.1383 6.10471 13.1383C6.10472 13.1383 6.10472 13.1383 6.10472 13.1383C6.10472 13.1383 6.10473 13.1383 6.10473 13.1383C6.10473 13.1383 6.10474 13.1383 6.10474 13.1383C6.10474 13.1383 6.10474 13.1383 6.10475 13.1383C6.10475 13.1383 6.10475 13.1383 6.10475 13.1383C6.10476 13.1383 6.10476 13.1383 6.10476 13.1383C6.10476 13.1383 6.10477 13.1383 6.10477 13.1383C6.10477 13.1383 6.10477 13.1383 6.10478 13.1383C6.10478 13.1383 6.10478 13.1383 6.10478 13.1383C6.10479 13.1383 6.10479 13.1383 6.10479 13.1383C6.10479 13.1383 6.1048 13.1383 6.1048 13.1383C6.1048 13.1383 6.1048 13.1383 6.10481 13.1383C6.10481 13.1383 6.10481 13.1383 6.10481 13.1383C6.10482 13.1383 6.10482 13.1383 6.10482 13.1383C6.10483 13.1383 6.10483 13.1383 6.10483 13.1383C6.10483 13.1383 6.10484 13.1383 6.10484 13.1383C6.10484 13.1383 6.10484 13.1383 6.10485 13.1383C6.10485 13.1383 6.10485 13.1383 6.10485 13.1383C6.10486 13.1383 6.10486 13.1383 6.10486 13.1383C6.10486 13.1383 6.10487 13.1383 6.10487 13.1383C6.10487 13.1383 6.10487 13.1383 6.10488 13.1383C6.10488 13.1383 6.10488 13.1383 6.10488 13.1383C6.10489 13.1383 6.10489 13.1383 6.10489 13.1383C6.10489 13.1383 6.1049 13.1383 6.1049 13.1383C6.1049 13.1383 6.1049 13.1383 6.10491 13.1383C6.10491 13.1383 6.10491 13.1383 6.10492 13.1383C6.10492 13.1383 6.10492 13.1383 6.10492 13.1383C6.10493 13.1383 6.10493 13.1383 6.10493 13.1383C6.10493 13.1383 6.10494 13.1383 6.10494 13.1383C6.10494 13.1383 6.10494 13.1383 6.10495 13.1383C6.10495 13.1383 6.10495 13.1383 6.10495 13.1383C6.10496 13.1383 6.10496 13.1383 6.10496 13.1383C6.10496 13.1383 6.10497 13.1383 6.10497 13.1383C6.10497 13.1383 6.10497 13.1383 6.10498 13.1383C6.10498 13.1383 6.10498 13.1383 6.10498 13.1383C6.10499 13.1383 6.10499 13.1383 6.10499 13.1383C6.105 13.1383 6.105 13.1383 6.105 13.1383C6.105 13.1383 6.10501 13.1383 6.10501 13.1383C6.10501 13.1383 6.10501 13.1383 6.10502 13.1383C6.10502 13.1383 6.10502 13.1383 6.10502 13.1383C6.10503 13.1383 6.10503 13.1383 6.10503 13.1383C6.10503 13.1383 6.10504 13.1383 6.10504 13.1383C6.10504 13.1383 6.10504 13.1383 6.10505 13.1383C6.10505 13.1383 6.10505 13.1383 6.10505 13.1383C6.10506 13.1383 6.10506 13.1383 6.10506 13.1383C6.10506 13.1383 6.10507 13.1383 6.10507 13.1383C6.10507 13.1383 6.10508 13.1383 6.10508 13.1383C6.10508 13.1383 6.10508 13.1383 6.10509 13.1383C6.10509 13.1383 6.10509 13.1383 6.10509 13.1383C6.1051 13.1383 6.1051 13.1383 6.1051 13.1383C6.1051 13.1383 6.10511 13.1383 6.10511 13.1383C6.10511 13.1383 6.10511 13.1383 6.10512 13.1383C6.10512 13.1383 6.10512 13.1383 6.10512 13.1383C6.10513 13.1383 6.10513 13.1383 6.10513 13.1383C6.10513 13.1383 6.10514 13.1383 6.10514 13.1383C6.10514 13.1383 6.10514 13.1383 6.10515 13.1383C6.10515 13.1383 6.10515 13.1383 6.10516 13.1383C6.10516 13.1383 6.10516 13.1383 6.10516 13.1383C6.10517 13.1383 6.10517 13.1383 6.10517 13.1383C6.10517 13.1383 6.10518 13.1383 6.10518 13.1383C6.10518 13.1383 6.10518 13.1383 6.10519 13.1383C6.10519 13.1383 6.10519 13.1383 6.10519 13.1383C6.1052 13.1383 6.1052 13.1383 6.1052 13.1383C6.1052 13.1383 6.10521 13.1383 6.10521 13.1383C6.10521 13.1383 6.10521 13.1383 6.10522 13.1383C6.10522 13.1383 6.10522 13.1383 6.10523 13.1383C6.10523 13.1383 6.10523 13.1383 6.10523 13.1383C6.10524 13.1383 6.10524 13.1383 6.10524 13.1383C6.10524 13.1383 6.10525 13.1383 6.10525 13.1383C6.10525 13.1383 6.10525 13.1383 6.10526 13.1383C6.10526 13.1383 6.10526 13.1383 6.10526 13.1383C6.10527 13.1383 6.10527 13.1383 6.10527 13.1383C6.10527 13.1383 6.10528 13.1383 6.10528 13.1383C6.10528 13.1383 6.10528 13.1383 6.10529 13.1383C6.10529 13.1383 6.10529 13.1383 6.10529 13.1383C6.1053 13.1383 6.1053 13.1383 6.1053 13.1383C6.10531 13.1383 6.10531 13.1383 6.10531 13.1383C6.10531 13.1383 6.10532 13.1383 6.10532 13.1383C6.10532 13.1383 6.10532 13.1383 6.10533 13.1383C6.10533 13.1383 6.10533 13.1383 6.10533 13.1383C6.10534 13.1383 6.10534 13.1383 6.10534 13.1383C6.10534 13.1383 6.10535 13.1383 6.10535 13.1383C6.10535 13.1383 6.10535 13.1383 6.10536 13.1383C6.10536 13.1383 6.10536 13.1383 6.10536 13.1383C6.10537 13.1383 6.10537 13.1383 6.10537 13.1383C6.10538 13.1383 6.10538 13.1383 6.10538 13.1383C6.10538 13.1383 6.10539 13.1383 6.10539 13.1383C6.10539 13.1383 6.10539 13.1383 6.1054 13.1383C6.1054 13.1383 6.1054 13.1383 6.1054 13.1383C6.10541 13.1383 6.10541 13.1383 6.10541 13.1383C6.10541 13.1383 6.10542 13.1383 6.10542 13.1383C6.10542 13.1383 6.10542 13.1383 6.10543 13.1383C6.10543 13.1383 6.10543 13.1383 6.10543 13.1383C6.10544 13.1383 6.10544 13.1383 6.10544 13.1383C6.10544 13.1383 6.10545 13.1383 6.10545 13.1383C6.10545 13.1383 6.10546 13.1383 6.10546 13.1383C6.10546 13.1383 6.10546 13.1383 6.10547 13.1383C6.10547 13.1383 6.10547 13.1383 6.10547 13.1383C6.10548 13.1383 6.10548 13.1383 6.10548 13.1383C6.10548 13.1383 6.10549 13.1383 6.10549 13.1383C6.10549 13.1383 6.10549 13.1383 6.1055 13.1383C6.1055 13.1383 6.1055 13.1383 6.1055 13.1383C6.10551 13.1383 6.10551 13.1383 6.10551 13.1383C6.10551 13.1383 6.10552 13.1383 6.10552 13.1383C6.10552 13.1383 6.10552 13.1383 6.10553 13.1383C6.10553 13.1383 6.10553 13.1383 6.10554 13.1383C6.10554 13.1383 6.10554 13.1383 6.10554 13.1383C6.10555 13.1383 6.10555 13.1383 6.10555 13.1383C6.10555 13.1383 6.10556 13.1383 6.10556 13.1383C6.10556 13.1383 6.10556 13.1383 6.10557 13.1383C6.10557 13.1383 6.10557 13.1383 6.10557 13.1383C6.10558 13.1383 6.10558 13.1383 6.10558 13.1383C6.10558 13.1383 6.10559 13.1383 6.10559 13.1383C6.10559 13.1383 6.10559 13.1383 6.1056 13.1383C6.1056 13.1383 6.1056 13.1383 6.1056 13.1383C6.10561 13.1383 6.10561 13.1383 6.10561 13.1383C6.10562 13.1383 6.10562 13.1383 6.10562 13.1383C6.10562 13.1383 6.10563 13.1383 6.10563 13.1383C6.10563 13.1383 6.10563 13.1383 6.10564 13.1383C6.10564 13.1383 6.10564 13.1383 6.10564 13.1383C6.10565 13.1383 6.10565 13.1383 6.10565 13.1383C6.10565 13.1383 6.10566 13.1383 6.10566 13.1383C6.10566 13.1383 6.10566 13.1383 6.10567 13.1383C6.10567 13.1383 6.10567 13.1383 6.10567 13.1383C6.10568 13.1383 6.10568 13.1383 6.10568 13.1383C6.10568 13.1383 6.10569 13.1383 6.10569 13.1383C6.10569 13.1383 6.10569 13.1383 6.1057 13.1383C6.1057 13.1383 6.1057 13.1383 6.10571 13.1383C6.10571 13.1383 6.10571 13.1383 6.10571 13.1383C6.10572 13.1383 6.10572 13.1383 6.10572 13.1383C6.10572 13.1383 6.10573 13.1383 6.10573 13.1383C6.10573 13.1383 6.10573 13.1383 6.10574 13.1383C6.10574 13.1383 6.10574 13.1383 6.10574 13.1383C6.10575 13.1383 6.10575 13.1383 6.10575 13.1383C6.10575 13.1383 6.10576 13.1383 6.10576 13.1383C6.10576 13.1383 6.10576 13.1383 6.10577 13.1383C6.10577 13.1383 6.10577 13.1383 6.10577 13.1383C6.10578 13.1383 6.10578 13.1383 6.10578 13.1383C6.10578 13.1383 6.10579 13.1383 6.10579 13.1383C6.10579 13.1383 6.10579 13.1383 6.1058 13.1383C6.1058 13.1383 6.1058 13.1383 6.10581 13.1383C6.10581 13.1383 6.10581 13.1383 6.10581 13.1383C6.10582 13.1383 6.10582 13.1383 6.10582 13.1383C6.10582 13.1383 6.10583 13.1383 6.10583 13.1383C6.10583 13.1383 6.10583 13.1383 6.10584 13.1383C6.10584 13.1383 6.10584 13.1383 6.10584 13.1383C6.10585 13.1383 6.10585 13.1383 6.10585 13.1383C6.10585 13.1383 6.10586 13.1383 6.10586 13.1383C6.10586 13.1383 6.10586 13.1383 6.10587 13.1383C6.10587 13.1383 6.10587 13.1383 6.10587 13.1383C6.10588 13.1383 6.10588 13.1383 6.10588 13.1383C6.10588 13.1383 6.10589 13.1383 6.10589 13.1383C6.10589 13.1383 6.10589 13.1383 6.1059 13.1383C6.1059 13.1383 6.1059 13.1383 6.1059 13.1383C6.10591 13.1383 6.10591 13.1383 6.10591 13.1383C6.10591 13.1383 6.10592 13.1383 6.10592 13.1383C6.10592 13.1383 6.10593 13.1383 6.10593 13.1383C6.10593 13.1383 6.10593 13.1383 6.10594 13.1383C6.10594 13.1383 6.10594 13.1383 6.10594 13.1383C6.10595 13.1383 6.10595 13.1383 6.10595 13.1383C6.10595 13.1383 6.10596 13.1383 6.10596 13.1383C6.10596 13.1383 6.10596 13.1383 6.10597 13.1383C6.10597 13.1383 6.10597 13.1383 6.10597 13.1383C6.10598 13.1383 6.10598 13.1383 6.10598 13.1383C6.10598 13.1383 6.10599 13.1383 6.10599 13.1383C6.10599 13.1383 6.10599 13.1383 6.106 13.1383C6.106 13.1383 6.106 13.1383 6.106 13.1383C6.10601 13.1383 6.10601 13.1383 6.10601 13.1383C6.10601 13.1383 6.10602 13.1383 6.10602 13.1383C6.10602 13.1383 6.10602 13.1383 6.10603 13.1383C6.10603 13.1383 6.10603 13.1383 6.10603 13.1383C6.10604 13.1383 6.10604 13.1383 6.10604 13.1383C6.10604 13.1383 6.10605 13.1383 6.10605 13.1383C6.10605 13.1383 6.10605 13.1383 6.10606 13.1383C6.10606 13.1383 6.10606 13.1383 6.10606 13.1383C6.10607 13.1383 6.10607 13.1383 6.10607 13.1383C6.10607 13.1383 6.10608 13.1383 6.10608 13.1383C6.10608 13.1383 6.10608 13.1383 6.10609 13.1383C6.10609 13.1383 6.10609 13.1383 6.10609 13.1383C6.1061 13.1383 6.1061 13.1383 6.1061 13.1383C6.1061 13.1383 6.10611 13.1383 6.10611 13.1383C6.10611 13.1383 6.10611 13.1383 6.10612 13.1383C6.10612 13.1383 6.10612 13.1383 6.10612 13.1383C6.10613 13.1383 6.10613 13.1383 6.10613 13.1383C6.10613 13.1383 6.10614 13.1383 6.10614 13.1383C6.10614 13.1383 6.10615 13.1383 6.10615 13.1383C6.10615 13.1383 6.10615 13.1383 6.10616 13.1383C6.10616 13.1383 6.10616 13.1383 6.10616 13.1383C6.10617 13.1383 6.10617 13.1383 6.10617 13.1383C6.10617 13.1383 6.10618 13.1383 6.10618 13.1383C6.10618 13.1383 6.10618 13.1383 6.10619 13.1383C6.10619 13.1383 6.10619 13.1383 6.10619 13.1383C6.1062 13.1383 6.1062 13.1383 6.1062 13.1383C6.1062 13.1383 6.10621 13.1383 6.10621 13.1383C6.10621 13.1383 6.10621 13.1383 6.10622 13.1383C6.10622 13.1383 6.10622 13.1383 6.10622 13.1383C6.10623 13.1383 6.10623 13.1383 6.10623 13.1383C6.10623 13.1383 6.10624 13.1383 6.10624 13.1383C6.10624 13.1383 6.10624 13.1383 6.10625 13.1383C6.10625 13.1383 6.10625 13.1383 6.10625 13.1383C6.10626 13.1383 6.10626 13.1383 6.10626 13.1383C6.10626 13.1383 6.10627 13.1383 6.10627 13.1383C6.10627 13.1383 6.10627 13.1383 6.10628 13.1383C6.10628 13.1383 6.10628 13.1383 6.10628 13.1383C6.10628 13.1383 6.10629 13.1383 6.10629 13.1383C6.10629 13.1383 6.10629 13.1383 6.1063 13.1383C6.1063 13.1383 6.1063 13.1383 6.1063 13.1383C6.10631 13.1383 6.10631 13.1383 6.10631 13.1383C6.10631 13.1383 6.10632 13.1383 6.10632 13.1383C6.10632 13.1383 6.10632 13.1383 6.10633 13.1383C6.10633 13.1383 6.10633 13.1383 6.10633 13.1383C6.10634 13.1383 6.10634 13.1383 6.10634 13.1383C6.10634 13.1383 6.10635 13.1383 6.10635 13.1383C6.10635 13.1383 6.10635 13.1383 6.10636 13.1383C6.10636 13.1383 6.10636 13.1383 6.10636 13.1383C6.10637 13.1383 6.10637 13.1383 6.10637 13.1383C6.10637 13.1383 6.10638 13.1383 6.10638 13.1383C6.10638 13.1383 6.10638 13.1383 6.10639 13.1383C6.10639 13.1383 6.10639 13.1383 6.10639 13.1383C6.1064 13.1383 6.1064 13.1383 6.1064 13.1383C6.1064 13.1383 6.10641 13.1383 6.10641 13.1383C6.10641 13.1383 6.10641 13.1383 6.10642 13.1383C6.10642 13.1383 6.10642 13.1383 6.10642 13.1383C6.10643 13.1383 6.10643 13.1383 6.10643 13.1383C6.10643 13.1383 6.10644 13.1383 6.10644 13.1383C6.10644 13.1383 6.10644 13.1383 6.10645 13.1383C6.10645 13.1383 6.10645 13.1383 6.10645 13.1383C6.10646 13.1383 6.10646 13.1383 6.10646 13.1383C6.10646 13.1383 6.10646 13.1383 6.10647 13.1383C6.10647 13.1383 6.10647 13.1383 6.10647 13.1383C6.10648 13.1383 6.10648 13.1383 6.10648 13.1383C6.10648 13.1383 6.10649 13.1383 6.10649 13.1383C6.10649 13.1383 6.10649 13.1383 6.1065 13.1383C6.1065 13.1383 6.1065 13.1383 6.1065 13.1383C6.10651 13.1383 6.10651 13.1383 6.10651 13.1383C6.10651 13.1383 6.10652 13.1383 6.10652 13.1383C6.10652 13.1383 6.10652 13.1383 6.10653 13.1383C6.10653 13.1383 6.10653 13.1383 6.10653 13.1383C6.10654 13.1383 6.10654 13.1383 6.10654 13.1383C6.10654 13.1383 6.10655 13.1383 6.10655 13.1383C6.10655 13.1383 6.10655 13.1383 6.10655 13.1383C6.10656 13.1383 6.10656 13.1383 6.10656 13.1383C6.10656 13.1383 6.10657 13.1383 6.10657 13.1383C6.10657 13.1383 6.10657 13.1383 6.10658 13.1383C6.10658 13.1383 6.10658 13.1383 6.10658 13.1383C6.10659 13.1383 6.10659 13.1383 6.10659 13.1383C6.10659 13.1383 6.1066 13.1383 6.1066 13.1383C6.1066 13.1383 6.1066 13.1383 6.10661 13.1383C6.10661 13.1383 6.10661 13.1383 6.10661 13.1383C6.10662 13.1383 6.10662 13.1383 6.10662 13.1383C6.10662 13.1383 6.10662 13.1383 6.10663 13.1383C6.10663 13.1383 6.10663 13.1383 6.10663 13.1383C6.10664 13.1383 6.10664 13.1383 6.10664 13.1383C6.10664 13.1383 6.10665 13.1383 6.10665 13.1383C6.10665 13.1383 6.10665 13.1383 6.10666 13.1383C6.10666 13.1383 6.10666 13.1383 6.10666 13.1383C6.10667 13.1383 6.10667 13.1383 6.10667 13.1383C6.10667 13.1383 6.10668 13.1383 6.10668 13.1383C6.10668 13.1383 6.10668 13.1383 6.10668 13.1383C6.10669 13.1383 6.10669 13.1383 6.10669 13.1383C6.10669 13.1383 6.1067 13.1383 6.1067 13.1383C6.1067 13.1383 6.1067 13.1383 6.10671 13.1383C6.10671 13.1383 6.10671 13.1383 6.10671 13.1383C6.10672 13.1383 6.10672 13.1383 6.10672 13.1383C6.10672 13.1383 6.10673 13.1383 6.10673 13.1383C6.10673 13.1383 6.10673 13.1383 6.10673 13.1383C6.10674 13.1383 6.10674 13.1383 6.10674 13.1383C6.10674 13.1383 6.10675 13.1383 6.10675 13.1383C6.10675 13.1383 6.10675 13.1383 6.10676 13.1383C6.10676 13.1383 6.10676 13.1383 6.10676 13.1383C6.10677 13.1383 6.10677 13.1383 6.10677 13.1383C6.10677 13.1383 6.10677 13.1383 6.10678 13.1383C6.10678 13.1383 6.10678 13.1383 6.10678 13.1383C6.10679 13.1383 6.10679 13.1383 6.10679 13.1383C6.10679 13.1383 6.1068 13.1383 6.1068 13.1383C6.1068 13.1383 6.1068 13.1383 6.10681 13.1383C6.10681 13.1383 6.10681 13.1383 6.10681 13.1383C6.10681 13.1383 6.10682 13.1383 6.10682 13.1383C6.10682 13.1383 6.10682 13.1383 6.10683 13.1383C6.10683 13.1383 6.10683 13.1383 6.10683 13.1383C6.10684 13.1383 6.10684 13.1383 6.10684 13.1383C6.10684 13.1383 6.10685 13.1383 6.10685 13.1383C6.10685 13.1383 6.10685 13.1383 6.10685 13.1383C6.10686 13.1383 6.10686 13.1383 6.10686 13.1383C6.10686 13.1383 6.10687 13.1383 6.10687 13.1383C6.10687 13.1383 6.10687 13.1383 6.10688 13.1383C6.10688 13.1383 6.10688 13.1383 6.10688 13.1383C6.10688 13.1383 6.10689 13.1383 6.10689 13.1383C6.10689 13.1383 6.10689 13.1383 6.1069 13.1383C6.1069 13.1383 6.1069 13.1383 6.1069 13.1383C6.10691 13.1383 6.10691 13.1383 6.10691 13.1383C6.10691 13.1383 6.10691 13.1383 6.10692 13.1383C6.10692 13.1383 6.10692 13.1383 6.10692 13.1383C6.10693 13.1383 6.10693 13.1383 6.10693 13.1383C6.10693 13.1383 6.10694 13.1383 6.10694 13.1383C6.10694 13.1383 6.10694 13.1383 6.10694 13.1383C6.10695 13.1383 6.10695 13.1383 6.10695 13.1383C6.10695 13.1383 6.10696 13.1383 6.10696 13.1383C6.10696 13.1383 6.10696 13.1383 6.10697 13.1383C6.10697 13.1383 6.10697 13.1383 6.10697 13.1383C6.10697 13.1383 6.10698 13.1383 6.10698 13.1383C6.10698 13.1383 6.10698 13.1383 6.10699 13.1383C6.10699 13.1383 6.10699 13.1383 6.10699 13.1383C6.107 13.1383 6.107 13.1383 6.107 13.1383C6.107 13.1383 6.107 13.1383 6.10701 13.1383C6.10701 13.1383 6.10701 13.1383 6.10701 13.1383C6.10702 13.1383 6.10702 13.1383 6.10702 13.1383C6.10702 13.1383 6.10702 13.1383 6.10703 13.1383C6.10703 13.1383 6.10703 13.1383 6.10703 13.1383C6.10704 13.1383 6.10704 13.1383 6.10704 13.1383C6.10704 13.1383 6.10705 13.1383 6.10705 13.1383C6.10705 13.1383 6.10705 13.1383 6.10705 13.1383C6.10706 13.1383 6.10706 13.1383 6.10706 13.1383C6.10706 13.1383 6.10707 13.1383 6.10707 13.1383C6.10707 13.1383 6.10707 13.1383 6.10707 13.1383C6.10708 13.1383 6.10708 13.1383 6.10708 13.1383C6.10708 13.1383 6.10709 13.1383 6.10709 13.1383C6.10709 13.1383 6.10709 13.1383 6.10709 13.1383C6.1071 13.1383 6.1071 13.1383 6.1071 13.1383C6.1071 13.1383 6.10711 13.1383 6.10711 13.1383C6.10711 13.1383 6.10711 13.1383 6.10711 13.1383C6.10712 13.1383 6.10712 13.1383 6.10712 13.1383C6.10712 13.1383 6.10713 13.1383 6.10713 13.1383C6.10713 13.1383 6.10713 13.1383 6.10713 13.1383C6.10714 13.1383 6.10714 13.1383 6.10714 13.1383C6.10714 13.1383 6.10715 13.1383 6.10715 13.1383V12.9383ZM6.04946 12.9541C6.06492 12.9442 6.07946 12.9413 6.07977 12.9412C6.08367 12.9403 6.08659 12.9399 6.08758 12.9397C6.08978 12.9394 6.09078 12.9394 6.08971 12.9395C6.08793 12.9396 6.08379 12.9398 6.07687 12.9398C6.06334 12.9399 6.04251 12.9395 6.015 12.9381C5.96013 12.9353 5.88046 12.9287 5.78194 12.9145C5.58481 12.8862 5.31383 12.8281 5.01579 12.7122C4.42054 12.4807 3.71909 12.0195 3.27773 11.1024L3.09751 11.1892C3.56588 12.1623 4.31284 12.6534 4.9433 12.8986C5.25811 13.0211 5.54431 13.0824 5.75351 13.1125C5.85816 13.1275 5.94394 13.1348 6.00491 13.1378C6.03533 13.1394 6.06002 13.1399 6.07812 13.1398C6.08702 13.1397 6.09522 13.1395 6.10213 13.1391C6.1054 13.1389 6.10983 13.1386 6.11451 13.1379C6.11674 13.1376 6.12068 13.137 6.12535 13.1359C6.12644 13.1357 6.14151 13.1326 6.15727 13.1225L6.04946 12.9541ZM3.18195 11.2456C3.55345 11.2667 4.02514 11.2451 4.40748 11.069L4.32382 10.8873C3.9864 11.0427 3.55442 11.0665 3.19329 11.046L3.18195 11.2456ZM4.40757 11.0689C4.59512 10.9823 4.70556 10.7857 4.68262 10.5807L4.48386 10.6029C4.49725 10.7226 4.43286 10.837 4.32373 10.8874L4.40757 11.0689ZM4.68262 10.5806C4.65963 10.3756 4.50738 10.2088 4.30568 10.1662L4.26441 10.3619C4.38209 10.3867 4.47053 10.484 4.48386 10.6029L4.68262 10.5806ZM4.30577 10.1662C4.20728 10.1454 2.06108 9.66425 1.76063 7.32198L1.56226 7.34743C1.8809 9.83157 4.15921 10.3396 4.26432 10.3619L4.30577 10.1662ZM1.62137 7.42633C1.96505 7.57666 2.41499 7.70442 2.86627 7.63564L2.83614 7.43793C2.43824 7.49857 2.02916 7.38641 1.70152 7.24309L1.62137 7.42633ZM2.86606 7.63567C3.05083 7.60791 3.20202 7.47528 3.25413 7.29602L3.06208 7.24019C3.03169 7.34475 2.94371 7.42176 2.83634 7.4379L2.86606 7.63567ZM3.25413 7.29602C3.30627 7.11664 3.24934 6.92337 3.10823 6.80091L2.97714 6.95196C3.0593 7.02326 3.09244 7.13575 3.06208 7.24019L3.25413 7.29602ZM3.10841 6.80107C3.06525 6.76343 2.53248 6.29064 2.13261 5.53657C1.73369 4.78427 1.47027 3.75934 1.94798 2.60443L1.76317 2.52799C1.25584 3.75449 1.53868 4.84343 1.95592 5.63026C2.37221 6.41533 2.92552 6.90695 2.97696 6.95181L3.10841 6.80107ZM1.78319 2.6352C2.32147 3.19996 3.38767 4.2162 4.80333 5.06411C6.21865 5.91182 7.98998 6.59523 9.9357 6.48357L9.92424 6.2839C8.03238 6.39247 6.30122 5.72814 4.9061 4.89253C3.51131 4.05712 2.4591 3.05448 1.92796 2.49721L1.78319 2.6352ZM9.93568 6.48357C10.0781 6.47542 10.2094 6.40361 10.2939 6.28907L10.1329 6.17036C10.0834 6.23747 10.0067 6.27918 9.92426 6.2839L9.93568 6.48357ZM10.294 6.28885C10.3783 6.17402 10.4069 6.02769 10.3725 5.88956L10.1784 5.93791C10.1985 6.01851 10.1818 6.10377 10.1328 6.17058L10.294 6.28885ZM10.3725 5.88939C10.3018 5.6078 10.2657 5.31778 10.2657 5.02784H10.0657C10.0657 5.33431 10.1038 5.64068 10.1785 5.93807L10.3725 5.88939ZM10.2657 5.02784C10.2657 3.12285 11.7906 1.57597 13.6612 1.57597V1.37597C11.6772 1.37597 10.0657 3.01541 10.0657 5.02784H10.2657ZM13.6612 1.57597C14.5765 1.57597 15.4351 1.94096 16.0791 2.60516L16.2226 2.46595C15.5414 1.76329 14.6312 1.37597 13.6612 1.37597V1.57597ZM16.079 2.60512C16.1672 2.69617 16.2881 2.74819 16.4142 2.75058L16.418 2.55061C16.3443 2.54922 16.2738 2.51874 16.2227 2.46599L16.079 2.60512ZM16.4147 2.75059C16.8251 2.75639 17.4982 2.70801 18.2584 2.40321L18.184 2.21758C17.4548 2.50993 16.8095 2.55615 16.4175 2.55061L16.4147 2.75059ZM18.1432 2.24776C17.9338 2.50848 17.6239 2.82376 17.1645 3.18463L17.2881 3.3419C17.7574 2.97316 18.0787 2.6474 18.2992 2.37303L18.1432 2.24776ZM17.1645 3.18467C16.9985 3.31523 16.9378 3.5387 17.0148 3.7353L17.201 3.66235C17.1562 3.54789 17.1915 3.41791 17.2882 3.34185L17.1645 3.18467ZM17.0147 3.73522C17.0916 3.93196 17.2902 4.05638 17.4994 4.03759L17.4815 3.83839C17.3622 3.84911 17.246 3.77751 17.201 3.66243L17.0147 3.73522ZM17.4986 4.03766C17.5886 4.03032 18.0431 3.99053 18.5576 3.87905L18.5153 3.68359C18.0133 3.79236 17.5687 3.83128 17.4823 3.83832L17.4986 4.03766ZM18.4633 3.71316C18.1875 4.0092 17.8098 4.38807 17.2922 4.86418L17.4276 5.01138C17.9484 4.53235 18.3298 4.14984 18.6096 3.84948L18.4633 3.71316Z" fill="#38369A" mask="url(#path-1-outside-1)"/>
</svg>
