<svg width="20" height="20" viewBox="0 0 20 20" fill="none" xmlns="http://www.w3.org/2000/svg">
<g clip-path="url(#clip0)">
<mask id="path-1-outside-1" maskUnits="userSpaceOnUse" x="-1" y="0.71875" width="22" height="18" fill="black">
<rect fill="white" x="-1" y="0.71875" width="22" height="18"/>
<path d="M19.834 3.654C19.7001 3.56318 19.5226 3.5681 19.3932 3.66573C19.2233 3.7944 18.947 3.89657 18.6496 3.97528C19.4242 3.10718 19.4409 2.52744 19.4325 2.39423C19.4238 2.25649 19.341 2.13426 19.2161 2.0756C19.0908 2.01657 18.944 2.03095 18.8324 2.11193C17.9608 2.74541 17.0927 2.87899 16.5766 2.89262C15.7842 2.13426 14.7552 1.71875 13.6601 1.71875C11.3154 1.71875 9.40813 3.65173 9.40813 6.02747C9.40813 6.23181 9.42251 6.43578 9.45089 6.63786C5.38739 6.59207 2.08755 2.69849 2.05349 2.65799C1.97402 2.56339 1.85368 2.51268 1.73032 2.52365C1.60695 2.53425 1.49683 2.60426 1.43515 2.71173C0.265822 4.74007 1.0484 6.52169 1.76362 7.54191C1.63722 7.47455 1.53467 7.40795 1.47337 7.36292C1.35984 7.27815 1.20809 7.26415 1.08019 7.32697C0.952658 7.38979 0.871298 7.51845 0.868649 7.66036C0.83724 9.59334 1.7674 10.7006 2.64231 11.3129C2.52576 11.3019 2.40731 11.3451 2.32633 11.4332C2.23551 11.532 2.20334 11.6716 2.2427 11.7999C2.84704 13.7779 4.33083 14.45 5.275 14.6782C3.33369 16.1896 0.476603 15.703 0.445194 15.6977C0.272634 15.667 0.102344 15.7578 0.031957 15.9179C-0.0380511 16.0776 0.00963007 16.2649 0.148889 16.3709C2.19805 17.9349 4.64909 18.2812 6.41935 18.2812C7.75858 18.2812 8.7088 18.0829 8.79962 18.0628C17.7675 15.9376 18.0199 7.72318 17.9991 6.37713C19.6827 4.8116 19.9457 4.2152 19.9862 4.06762C20.0297 3.91133 19.9684 3.74482 19.834 3.654ZM17.3599 5.93778C17.2755 6.01536 17.2312 6.12699 17.2388 6.24165C17.2627 6.60494 17.7213 15.1713 8.63274 17.3249C8.59149 17.3336 4.97869 18.0874 1.84687 16.5359C3.17021 16.4992 5.06762 16.1525 6.38945 14.6684C6.48935 14.5567 6.51357 14.3963 6.45151 14.26C6.39021 14.1249 6.25511 14.0383 6.10715 14.0383C6.10601 14.0383 6.1045 14.0383 6.10336 14.0383C6.08444 14.0504 4.09735 14.036 3.18762 12.1458C3.55393 12.1666 4.00577 12.1439 4.36565 11.9782C4.51399 11.9097 4.60141 11.7541 4.58324 11.5918C4.56508 11.4298 4.44474 11.2978 4.28504 11.2641C4.18325 11.2425 1.97099 10.7479 1.66144 8.33471C1.9971 8.48154 2.42661 8.6015 2.8512 8.53679C2.99727 8.51484 3.11686 8.41001 3.1581 8.26811C3.19935 8.1262 3.15432 7.97331 3.04268 7.87644C2.94808 7.79394 0.870541 5.94762 1.85557 3.56621C2.925 4.68823 6.09239 7.60397 9.92997 7.38373C10.0424 7.3773 10.1464 7.32054 10.2134 7.22971C10.28 7.13889 10.3027 7.0231 10.2755 6.91373C10.2028 6.62424 10.1657 6.32604 10.1657 6.02784C10.1657 4.06913 11.7339 2.47597 13.6612 2.47597C14.6039 2.47597 15.4882 2.85213 16.1509 3.53556C16.2205 3.60746 16.3162 3.6487 16.4161 3.6506C16.8173 3.65627 17.4765 3.60897 18.2212 3.31039C18.0063 3.57794 17.6907 3.89846 17.2263 4.26326C17.095 4.36657 17.047 4.54329 17.1079 4.69883C17.1688 4.85474 17.3262 4.95275 17.4905 4.93799C17.5786 4.9308 18.0282 4.89144 18.5364 4.78132C18.2587 5.07952 17.8791 5.46021 17.3599 5.93778Z"/>
</mask>
<path d="M19.834 3.654C19.7001 3.56318 19.5226 3.5681 19.3932 3.66573C19.2233 3.7944 18.947 3.89657 18.6496 3.97528C19.4242 3.10718 19.4409 2.52744 19.4325 2.39423C19.4238 2.25649 19.341 2.13426 19.2161 2.0756C19.0908 2.01657 18.944 2.03095 18.8324 2.11193C17.9608 2.74541 17.0927 2.87899 16.5766 2.89262C15.7842 2.13426 14.7552 1.71875 13.6601 1.71875C11.3154 1.71875 9.40813 3.65173 9.40813 6.02747C9.40813 6.23181 9.42251 6.43578 9.45089 6.63786C5.38739 6.59207 2.08755 2.69849 2.05349 2.65799C1.97402 2.56339 1.85368 2.51268 1.73032 2.52365C1.60695 2.53425 1.49683 2.60426 1.43515 2.71173C0.265822 4.74007 1.0484 6.52169 1.76362 7.54191C1.63722 7.47455 1.53467 7.40795 1.47337 7.36292C1.35984 7.27815 1.20809 7.26415 1.08019 7.32697C0.952658 7.38979 0.871298 7.51845 0.868649 7.66036C0.83724 9.59334 1.7674 10.7006 2.64231 11.3129C2.52576 11.3019 2.40731 11.3451 2.32633 11.4332C2.23551 11.532 2.20334 11.6716 2.2427 11.7999C2.84704 13.7779 4.33083 14.45 5.275 14.6782C3.33369 16.1896 0.476603 15.703 0.445194 15.6977C0.272634 15.667 0.102344 15.7578 0.031957 15.9179C-0.0380511 16.0776 0.00963007 16.2649 0.148889 16.3709C2.19805 17.9349 4.64909 18.2812 6.41935 18.2812C7.75858 18.2812 8.7088 18.0829 8.79962 18.0628C17.7675 15.9376 18.0199 7.72318 17.9991 6.37713C19.6827 4.8116 19.9457 4.2152 19.9862 4.06762C20.0297 3.91133 19.9684 3.74482 19.834 3.654ZM17.3599 5.93778C17.2755 6.01536 17.2312 6.12699 17.2388 6.24165C17.2627 6.60494 17.7213 15.1713 8.63274 17.3249C8.59149 17.3336 4.97869 18.0874 1.84687 16.5359C3.17021 16.4992 5.06762 16.1525 6.38945 14.6684C6.48935 14.5567 6.51357 14.3963 6.45151 14.26C6.39021 14.1249 6.25511 14.0383 6.10715 14.0383C6.10601 14.0383 6.1045 14.0383 6.10336 14.0383C6.08444 14.0504 4.09735 14.036 3.18762 12.1458C3.55393 12.1666 4.00577 12.1439 4.36565 11.9782C4.51399 11.9097 4.60141 11.7541 4.58324 11.5918C4.56508 11.4298 4.44474 11.2978 4.28504 11.2641C4.18325 11.2425 1.97099 10.7479 1.66144 8.33471C1.9971 8.48154 2.42661 8.6015 2.8512 8.53679C2.99727 8.51484 3.11686 8.41001 3.1581 8.26811C3.19935 8.1262 3.15432 7.97331 3.04268 7.87644C2.94808 7.79394 0.870541 5.94762 1.85557 3.56621C2.925 4.68823 6.09239 7.60397 9.92997 7.38373C10.0424 7.3773 10.1464 7.32054 10.2134 7.22971C10.28 7.13889 10.3027 7.0231 10.2755 6.91373C10.2028 6.62424 10.1657 6.32604 10.1657 6.02784C10.1657 4.06913 11.7339 2.47597 13.6612 2.47597C14.6039 2.47597 15.4882 2.85213 16.1509 3.53556C16.2205 3.60746 16.3162 3.6487 16.4161 3.6506C16.8173 3.65627 17.4765 3.60897 18.2212 3.31039C18.0063 3.57794 17.6907 3.89846 17.2263 4.26326C17.095 4.36657 17.047 4.54329 17.1079 4.69883C17.1688 4.85474 17.3262 4.95275 17.4905 4.93799C17.5786 4.9308 18.0282 4.89144 18.5364 4.78132C18.2587 5.07952 17.8791 5.46021 17.3599 5.93778Z" fill="#B1B5B9"/>
<path d="M19.834 3.654L19.7779 3.73677L19.778 3.73685L19.834 3.654ZM19.3932 3.66573L19.333 3.5859L19.3328 3.58601L19.3932 3.66573ZM18.6496 3.97528L18.575 3.9087L18.3533 4.15713L18.6752 4.07195L18.6496 3.97528ZM19.4325 2.39423L19.5323 2.388L19.5323 2.38793L19.4325 2.39423ZM19.2161 2.0756L19.1734 2.16606L19.1736 2.16612L19.2161 2.0756ZM18.8324 2.11193L18.7736 2.03099L18.7736 2.03104L18.8324 2.11193ZM16.5766 2.89262L16.5074 2.96486L16.5375 2.99368L16.5792 2.99258L16.5766 2.89262ZM9.45089 6.63786L9.44976 6.73786L9.5661 6.73917L9.54992 6.62395L9.45089 6.63786ZM2.05349 2.65799L1.97692 2.72231L1.97696 2.72236L2.05349 2.65799ZM1.73032 2.52365L1.73887 2.62329L1.73918 2.62326L1.73032 2.52365ZM1.43515 2.71173L1.52178 2.76167L1.52188 2.76151L1.43515 2.71173ZM1.76362 7.54191L1.71659 7.63016L1.8455 7.48451L1.76362 7.54191ZM1.47337 7.36292L1.41354 7.44305L1.41417 7.44351L1.47337 7.36292ZM1.08019 7.32697L1.0361 7.23721L1.036 7.23726L1.08019 7.32697ZM0.868649 7.66036L0.768666 7.65849L0.768662 7.65873L0.868649 7.66036ZM2.64231 11.3129L2.63294 11.4125L3.00967 11.4479L2.69965 11.231L2.64231 11.3129ZM2.32633 11.4332L2.39994 11.5009L2.39998 11.5009L2.32633 11.4332ZM2.2427 11.7999L2.33834 11.7707L2.3383 11.7706L2.2427 11.7999ZM5.275 14.6782L5.33643 14.7571L5.50006 14.6297L5.29849 14.581L5.275 14.6782ZM0.445194 15.6977L0.427704 15.7961L0.428562 15.7963L0.445194 15.6977ZM0.031957 15.9179L-0.0595842 15.8777L-0.0596288 15.8778L0.031957 15.9179ZM0.148889 16.3709L0.209562 16.2914L0.209442 16.2913L0.148889 16.3709ZM8.79962 18.0628L8.82119 18.1605L8.82268 18.1601L8.79962 18.0628ZM17.9991 6.37713L17.931 6.3039L17.8984 6.33419L17.8991 6.37867L17.9991 6.37713ZM19.9862 4.06762L19.8898 4.04079L19.8897 4.04116L19.9862 4.06762ZM17.3599 5.93778L17.4276 6.0114L17.4276 6.01138L17.3599 5.93778ZM17.2388 6.24165L17.3386 6.23511L17.3386 6.23507L17.2388 6.24165ZM8.63274 17.3249L8.65339 17.4228L8.6558 17.4222L8.63274 17.3249ZM1.84687 16.5359L1.8441 16.4359L1.80248 16.6255L1.84687 16.5359ZM6.38945 14.6684L6.31493 14.6017L6.31477 14.6019L6.38945 14.6684ZM6.45151 14.26L6.36045 14.3014L6.36051 14.3015L6.45151 14.26ZM6.10336 14.0383V13.9383H6.0741L6.04946 13.9541L6.10336 14.0383ZM3.18762 12.1458L3.19329 12.046L3.02396 12.0363L3.09751 12.1892L3.18762 12.1458ZM4.36565 11.9782L4.40748 12.069L4.40757 12.0689L4.36565 11.9782ZM4.58324 11.5918L4.68262 11.5807L4.68262 11.5806L4.58324 11.5918ZM4.28504 11.2641L4.26432 11.3619L4.26441 11.3619L4.28504 11.2641ZM1.66144 8.33471L1.70152 8.24309L1.5398 8.17235L1.56226 8.34743L1.66144 8.33471ZM2.8512 8.53679L2.83634 8.43789L2.83614 8.43793L2.8512 8.53679ZM3.04268 7.87644L2.97696 7.95181L2.97714 7.95196L3.04268 7.87644ZM1.85557 3.56621L1.92796 3.49721L1.82192 3.38595L1.76317 3.52799L1.85557 3.56621ZM9.92997 7.38373L9.92426 7.2839L9.92424 7.2839L9.92997 7.38373ZM10.2134 7.22971L10.2939 7.28907L10.294 7.28885L10.2134 7.22971ZM10.2755 6.91373L10.3725 6.88956L10.3725 6.88939L10.2755 6.91373ZM16.1509 3.53556L16.2227 3.46599L16.2226 3.46595L16.1509 3.53556ZM16.4161 3.6506L16.4142 3.75058L16.4147 3.75059L16.4161 3.6506ZM18.2212 3.31039L18.2992 3.37303L18.5381 3.07561L18.184 3.21758L18.2212 3.31039ZM17.2263 4.26326L17.1645 4.18463L17.1645 4.18467L17.2263 4.26326ZM17.1079 4.69883L17.201 4.66243L17.201 4.66235L17.1079 4.69883ZM17.4905 4.93799L17.4823 4.83832L17.4815 4.83839L17.4905 4.93799ZM18.5364 4.78132L18.6096 4.84948L18.8271 4.61603L18.5153 4.68359L18.5364 4.78132ZM19.8902 3.57123C19.7205 3.45625 19.4963 3.46266 19.333 3.5859L19.4534 3.74556C19.5489 3.67354 19.6796 3.67011 19.7779 3.73677L19.8902 3.57123ZM19.3328 3.58601C19.1795 3.70211 18.9196 3.80038 18.624 3.87861L18.6752 4.07195C18.9744 3.99276 19.267 3.88668 19.4535 3.74546L19.3328 3.58601ZM18.7242 4.04186C19.5145 3.15619 19.5425 2.55086 19.5323 2.388L19.3327 2.40047C19.3392 2.50401 19.3339 3.05817 18.575 3.9087L18.7242 4.04186ZM19.5323 2.38793C19.5213 2.21391 19.4166 2.05932 19.2586 1.98509L19.1736 2.16612C19.2653 2.2092 19.3263 2.29907 19.3327 2.40054L19.5323 2.38793ZM19.2587 1.98515C19.1002 1.91045 18.9146 1.92874 18.7736 2.03099L18.8911 2.19288C18.9734 2.13315 19.0814 2.12269 19.1734 2.16606L19.2587 1.98515ZM18.7736 2.03104C17.9229 2.64936 17.0763 2.77939 16.5739 2.79265L16.5792 2.99258C17.1092 2.97859 17.9988 2.84146 18.8911 2.19282L18.7736 2.03104ZM16.6457 2.82037C15.8348 2.04432 14.7812 1.61875 13.6601 1.61875V1.81875C14.7293 1.81875 15.7335 2.22419 16.5074 2.96486L16.6457 2.82037ZM13.6601 1.61875C11.2589 1.61875 9.30813 3.59776 9.30813 6.02747H9.50813C9.50813 3.7057 11.3719 1.81875 13.6601 1.81875V1.61875ZM9.30813 6.02747C9.30813 6.23651 9.32284 6.44512 9.35186 6.65177L9.54992 6.62395C9.52218 6.42645 9.50813 6.22712 9.50813 6.02747H9.30813ZM9.45201 6.53787C7.45065 6.51532 5.63038 5.54428 4.30043 4.5654C2.97198 3.58764 2.14425 2.61055 2.13002 2.59362L1.97696 2.72236C1.99678 2.74593 2.836 3.73588 4.18187 4.72648C5.52623 5.71596 7.38762 6.71462 9.44976 6.73786L9.45201 6.53787ZM2.13006 2.59368C2.02993 2.47447 1.87788 2.41013 1.72146 2.42405L1.73918 2.62326C1.82948 2.61523 1.91811 2.6523 1.97692 2.72231L2.13006 2.59368ZM1.72176 2.42402C1.56584 2.43741 1.42646 2.52597 1.34842 2.66195L1.52188 2.76151C1.56719 2.68255 1.64806 2.63109 1.73887 2.62329L1.72176 2.42402ZM1.34851 2.66179C0.151076 4.73889 0.956338 6.56457 1.68173 7.59932L1.8455 7.48451C1.14046 6.4788 0.380568 4.74125 1.52178 2.76167L1.34851 2.66179ZM1.81065 7.45366C1.68815 7.38838 1.58971 7.3243 1.53257 7.28233L1.41417 7.44351C1.47964 7.4916 1.5863 7.56073 1.71659 7.63016L1.81065 7.45366ZM1.5332 7.28279C1.38946 7.17547 1.19757 7.15791 1.0361 7.23721L1.12427 7.41673C1.21862 7.37039 1.33022 7.38084 1.41354 7.44305L1.5332 7.28279ZM1.036 7.23726C0.874775 7.31668 0.772011 7.47931 0.768666 7.65849L0.968631 7.66223C0.970584 7.55759 1.03054 7.4629 1.12437 7.41668L1.036 7.23726ZM0.768662 7.65873C0.736608 9.63137 1.68861 10.7675 2.58498 11.3948L2.69965 11.231C1.8462 10.6337 0.937871 9.55531 0.968635 7.66198L0.768662 7.65873ZM2.65169 11.2133C2.50505 11.1995 2.35553 11.2536 2.25268 11.3656L2.39998 11.5009C2.4591 11.4365 2.54647 11.4043 2.63294 11.4125L2.65169 11.2133ZM2.25272 11.3655C2.13806 11.4902 2.09724 11.6667 2.1471 11.8292L2.3383 11.7706C2.30945 11.6765 2.33296 11.5738 2.39994 11.5009L2.25272 11.3655ZM2.14706 11.8291C2.76543 13.8531 4.28734 14.5424 5.25151 14.7754L5.29849 14.581C4.37433 14.3576 2.92865 13.7028 2.33834 11.7707L2.14706 11.8291ZM5.21357 14.5993C4.26511 15.3377 3.08822 15.591 2.13697 15.6569C1.18709 15.7228 0.47359 15.601 0.461827 15.5991L0.428562 15.7963C0.448207 15.7996 1.17896 15.9238 2.1508 15.8565C3.12127 15.7892 4.34358 15.5301 5.33643 14.7571L5.21357 14.5993ZM0.462683 15.5992C0.244806 15.5605 0.0294121 15.6753 -0.0595841 15.8777L0.123498 15.9582C0.175275 15.8404 0.300461 15.7735 0.427705 15.7961L0.462683 15.5992ZM-0.0596288 15.8778C-0.148042 16.0794 -0.0879345 16.3163 0.0883373 16.4505L0.209442 16.2913C0.107195 16.2135 0.0719396 16.0758 0.123543 15.9581L-0.0596288 15.8778ZM0.0882175 16.4504C2.16206 18.0332 4.6385 18.3812 6.41935 18.3812V18.1812C4.65967 18.1812 2.23403 17.8366 0.209561 16.2914L0.0882175 16.4504ZM6.41935 18.3812C7.7678 18.3812 8.7255 18.1816 8.82119 18.1605L8.77806 17.9652C8.6921 17.9841 7.74937 18.1812 6.41935 18.1812V18.3812ZM8.82268 18.1601C13.3394 17.0897 15.6675 14.4824 16.8604 11.9707C18.0513 9.46345 18.1096 7.05584 18.0991 6.37558L17.8991 6.37867C17.9094 7.04447 17.8519 9.41708 16.6798 11.8849C15.5098 14.3482 13.2277 16.9107 8.77656 17.9655L8.82268 18.1601ZM18.0672 6.45036C18.9113 5.66538 19.4022 5.12083 19.6878 4.75187C19.9727 4.38398 20.0574 4.18594 20.0826 4.09408L19.8897 4.04116C19.8744 4.09688 19.8074 4.27083 19.5297 4.62942C19.2529 4.98693 18.7704 5.52335 17.931 6.3039L18.0672 6.45036ZM20.0825 4.09444C20.1376 3.8967 20.06 3.68605 19.89 3.57116L19.778 3.73685C19.8768 3.8036 19.9218 3.92595 19.8898 4.04079L20.0825 4.09444ZM17.2922 5.86416C17.1853 5.96243 17.1295 6.10365 17.139 6.24824L17.3386 6.23507C17.333 6.15033 17.3657 6.06828 17.4276 6.0114L17.2922 5.86416ZM17.139 6.2482C17.1505 6.42316 17.2705 8.63786 16.2606 11.0736C15.2528 13.5041 13.1188 16.1591 8.60968 17.2276L8.6558 17.4222C13.2353 16.3371 15.4162 13.6321 16.4453 11.1502C17.4722 8.67355 17.351 6.42343 17.3386 6.23511L17.139 6.2482ZM8.61209 17.227C8.57295 17.2353 4.99022 17.9815 1.89126 16.4463L1.80248 16.6255C4.96717 18.1933 8.61003 17.4319 8.65338 17.4227L8.61209 17.227ZM1.84964 16.6358C3.1836 16.5988 5.11512 16.2496 6.46413 14.7349L6.31477 14.6019C5.02012 16.0555 3.15683 16.3995 1.8441 16.4359L1.84964 16.6358ZM6.46397 14.735C6.59042 14.5937 6.62098 14.3908 6.54251 14.2186L6.36051 14.3015C6.40616 14.4017 6.38829 14.5197 6.31493 14.6017L6.46397 14.735ZM6.54258 14.2187C6.46501 14.0478 6.29422 13.9383 6.10715 13.9383V14.1383C6.216 14.1383 6.31541 14.2021 6.36045 14.3014L6.54258 14.2187ZM6.10715 13.9383C6.10715 13.9383 6.10714 13.9383 6.10714 13.9383C6.10714 13.9383 6.10714 13.9383 6.10713 13.9383C6.10713 13.9383 6.10713 13.9383 6.10713 13.9383C6.10713 13.9383 6.10712 13.9383 6.10712 13.9383C6.10712 13.9383 6.10712 13.9383 6.10711 13.9383C6.10711 13.9383 6.10711 13.9383 6.10711 13.9383C6.10711 13.9383 6.1071 13.9383 6.1071 13.9383C6.1071 13.9383 6.1071 13.9383 6.10709 13.9383C6.10709 13.9383 6.10709 13.9383 6.10709 13.9383C6.10709 13.9383 6.10708 13.9383 6.10708 13.9383C6.10708 13.9383 6.10708 13.9383 6.10707 13.9383C6.10707 13.9383 6.10707 13.9383 6.10707 13.9383C6.10707 13.9383 6.10706 13.9383 6.10706 13.9383C6.10706 13.9383 6.10706 13.9383 6.10705 13.9383C6.10705 13.9383 6.10705 13.9383 6.10705 13.9383C6.10705 13.9383 6.10704 13.9383 6.10704 13.9383C6.10704 13.9383 6.10704 13.9383 6.10703 13.9383C6.10703 13.9383 6.10703 13.9383 6.10703 13.9383C6.10702 13.9383 6.10702 13.9383 6.10702 13.9383C6.10702 13.9383 6.10702 13.9383 6.10701 13.9383C6.10701 13.9383 6.10701 13.9383 6.10701 13.9383C6.107 13.9383 6.107 13.9383 6.107 13.9383C6.107 13.9383 6.107 13.9383 6.10699 13.9383C6.10699 13.9383 6.10699 13.9383 6.10699 13.9383C6.10698 13.9383 6.10698 13.9383 6.10698 13.9383C6.10698 13.9383 6.10697 13.9383 6.10697 13.9383C6.10697 13.9383 6.10697 13.9383 6.10697 13.9383C6.10696 13.9383 6.10696 13.9383 6.10696 13.9383C6.10696 13.9383 6.10695 13.9383 6.10695 13.9383C6.10695 13.9383 6.10695 13.9383 6.10694 13.9383C6.10694 13.9383 6.10694 13.9383 6.10694 13.9383C6.10694 13.9383 6.10693 13.9383 6.10693 13.9383C6.10693 13.9383 6.10693 13.9383 6.10692 13.9383C6.10692 13.9383 6.10692 13.9383 6.10692 13.9383C6.10691 13.9383 6.10691 13.9383 6.10691 13.9383C6.10691 13.9383 6.10691 13.9383 6.1069 13.9383C6.1069 13.9383 6.1069 13.9383 6.1069 13.9383C6.10689 13.9383 6.10689 13.9383 6.10689 13.9383C6.10689 13.9383 6.10688 13.9383 6.10688 13.9383C6.10688 13.9383 6.10688 13.9383 6.10688 13.9383C6.10687 13.9383 6.10687 13.9383 6.10687 13.9383C6.10687 13.9383 6.10686 13.9383 6.10686 13.9383C6.10686 13.9383 6.10686 13.9383 6.10685 13.9383C6.10685 13.9383 6.10685 13.9383 6.10685 13.9383C6.10685 13.9383 6.10684 13.9383 6.10684 13.9383C6.10684 13.9383 6.10684 13.9383 6.10683 13.9383C6.10683 13.9383 6.10683 13.9383 6.10683 13.9383C6.10682 13.9383 6.10682 13.9383 6.10682 13.9383C6.10682 13.9383 6.10681 13.9383 6.10681 13.9383C6.10681 13.9383 6.10681 13.9383 6.10681 13.9383C6.1068 13.9383 6.1068 13.9383 6.1068 13.9383C6.1068 13.9383 6.10679 13.9383 6.10679 13.9383C6.10679 13.9383 6.10679 13.9383 6.10678 13.9383C6.10678 13.9383 6.10678 13.9383 6.10678 13.9383C6.10677 13.9383 6.10677 13.9383 6.10677 13.9383C6.10677 13.9383 6.10677 13.9383 6.10676 13.9383C6.10676 13.9383 6.10676 13.9383 6.10676 13.9383C6.10675 13.9383 6.10675 13.9383 6.10675 13.9383C6.10675 13.9383 6.10674 13.9383 6.10674 13.9383C6.10674 13.9383 6.10674 13.9383 6.10673 13.9383C6.10673 13.9383 6.10673 13.9383 6.10673 13.9383C6.10673 13.9383 6.10672 13.9383 6.10672 13.9383C6.10672 13.9383 6.10672 13.9383 6.10671 13.9383C6.10671 13.9383 6.10671 13.9383 6.10671 13.9383C6.1067 13.9383 6.1067 13.9383 6.1067 13.9383C6.1067 13.9383 6.10669 13.9383 6.10669 13.9383C6.10669 13.9383 6.10669 13.9383 6.10668 13.9383C6.10668 13.9383 6.10668 13.9383 6.10668 13.9383C6.10668 13.9383 6.10667 13.9383 6.10667 13.9383C6.10667 13.9383 6.10667 13.9383 6.10666 13.9383C6.10666 13.9383 6.10666 13.9383 6.10666 13.9383C6.10665 13.9383 6.10665 13.9383 6.10665 13.9383C6.10665 13.9383 6.10664 13.9383 6.10664 13.9383C6.10664 13.9383 6.10664 13.9383 6.10663 13.9383C6.10663 13.9383 6.10663 13.9383 6.10663 13.9383C6.10662 13.9383 6.10662 13.9383 6.10662 13.9383C6.10662 13.9383 6.10662 13.9383 6.10661 13.9383C6.10661 13.9383 6.10661 13.9383 6.10661 13.9383C6.1066 13.9383 6.1066 13.9383 6.1066 13.9383C6.1066 13.9383 6.10659 13.9383 6.10659 13.9383C6.10659 13.9383 6.10659 13.9383 6.10658 13.9383C6.10658 13.9383 6.10658 13.9383 6.10658 13.9383C6.10657 13.9383 6.10657 13.9383 6.10657 13.9383C6.10657 13.9383 6.10656 13.9383 6.10656 13.9383C6.10656 13.9383 6.10656 13.9383 6.10655 13.9383C6.10655 13.9383 6.10655 13.9383 6.10655 13.9383C6.10655 13.9383 6.10654 13.9383 6.10654 13.9383C6.10654 13.9383 6.10654 13.9383 6.10653 13.9383C6.10653 13.9383 6.10653 13.9383 6.10653 13.9383C6.10652 13.9383 6.10652 13.9383 6.10652 13.9383C6.10652 13.9383 6.10651 13.9383 6.10651 13.9383C6.10651 13.9383 6.10651 13.9383 6.1065 13.9383C6.1065 13.9383 6.1065 13.9383 6.1065 13.9383C6.10649 13.9383 6.10649 13.9383 6.10649 13.9383C6.10649 13.9383 6.10648 13.9383 6.10648 13.9383C6.10648 13.9383 6.10648 13.9383 6.10647 13.9383C6.10647 13.9383 6.10647 13.9383 6.10647 13.9383C6.10646 13.9383 6.10646 13.9383 6.10646 13.9383C6.10646 13.9383 6.10646 13.9383 6.10645 13.9383C6.10645 13.9383 6.10645 13.9383 6.10645 13.9383C6.10644 13.9383 6.10644 13.9383 6.10644 13.9383C6.10644 13.9383 6.10643 13.9383 6.10643 13.9383C6.10643 13.9383 6.10643 13.9383 6.10642 13.9383C6.10642 13.9383 6.10642 13.9383 6.10642 13.9383C6.10641 13.9383 6.10641 13.9383 6.10641 13.9383C6.10641 13.9383 6.1064 13.9383 6.1064 13.9383C6.1064 13.9383 6.1064 13.9383 6.10639 13.9383C6.10639 13.9383 6.10639 13.9383 6.10639 13.9383C6.10638 13.9383 6.10638 13.9383 6.10638 13.9383C6.10638 13.9383 6.10637 13.9383 6.10637 13.9383C6.10637 13.9383 6.10637 13.9383 6.10636 13.9383C6.10636 13.9383 6.10636 13.9383 6.10636 13.9383C6.10635 13.9383 6.10635 13.9383 6.10635 13.9383C6.10635 13.9383 6.10634 13.9383 6.10634 13.9383C6.10634 13.9383 6.10634 13.9383 6.10633 13.9383C6.10633 13.9383 6.10633 13.9383 6.10633 13.9383C6.10632 13.9383 6.10632 13.9383 6.10632 13.9383C6.10632 13.9383 6.10631 13.9383 6.10631 13.9383C6.10631 13.9383 6.10631 13.9383 6.1063 13.9383C6.1063 13.9383 6.1063 13.9383 6.1063 13.9383C6.10629 13.9383 6.10629 13.9383 6.10629 13.9383C6.10629 13.9383 6.10628 13.9383 6.10628 13.9383C6.10628 13.9383 6.10628 13.9383 6.10628 13.9383C6.10627 13.9383 6.10627 13.9383 6.10627 13.9383C6.10627 13.9383 6.10626 13.9383 6.10626 13.9383C6.10626 13.9383 6.10626 13.9383 6.10625 13.9383C6.10625 13.9383 6.10625 13.9383 6.10625 13.9383C6.10624 13.9383 6.10624 13.9383 6.10624 13.9383C6.10624 13.9383 6.10623 13.9383 6.10623 13.9383C6.10623 13.9383 6.10623 13.9383 6.10622 13.9383C6.10622 13.9383 6.10622 13.9383 6.10622 13.9383C6.10621 13.9383 6.10621 13.9383 6.10621 13.9383C6.10621 13.9383 6.1062 13.9383 6.1062 13.9383C6.1062 13.9383 6.1062 13.9383 6.10619 13.9383C6.10619 13.9383 6.10619 13.9383 6.10619 13.9383C6.10618 13.9383 6.10618 13.9383 6.10618 13.9383C6.10618 13.9383 6.10617 13.9383 6.10617 13.9383C6.10617 13.9383 6.10617 13.9383 6.10616 13.9383C6.10616 13.9383 6.10616 13.9383 6.10616 13.9383C6.10615 13.9383 6.10615 13.9383 6.10615 13.9383C6.10615 13.9383 6.10614 13.9383 6.10614 13.9383C6.10614 13.9383 6.10613 13.9383 6.10613 13.9383C6.10613 13.9383 6.10613 13.9383 6.10612 13.9383C6.10612 13.9383 6.10612 13.9383 6.10612 13.9383C6.10611 13.9383 6.10611 13.9383 6.10611 13.9383C6.10611 13.9383 6.1061 13.9383 6.1061 13.9383C6.1061 13.9383 6.1061 13.9383 6.10609 13.9383C6.10609 13.9383 6.10609 13.9383 6.10609 13.9383C6.10608 13.9383 6.10608 13.9383 6.10608 13.9383C6.10608 13.9383 6.10607 13.9383 6.10607 13.9383C6.10607 13.9383 6.10607 13.9383 6.10606 13.9383C6.10606 13.9383 6.10606 13.9383 6.10606 13.9383C6.10605 13.9383 6.10605 13.9383 6.10605 13.9383C6.10605 13.9383 6.10604 13.9383 6.10604 13.9383C6.10604 13.9383 6.10604 13.9383 6.10603 13.9383C6.10603 13.9383 6.10603 13.9383 6.10603 13.9383C6.10602 13.9383 6.10602 13.9383 6.10602 13.9383C6.10602 13.9383 6.10601 13.9383 6.10601 13.9383C6.10601 13.9383 6.10601 13.9383 6.106 13.9383C6.106 13.9383 6.106 13.9383 6.106 13.9383C6.10599 13.9383 6.10599 13.9383 6.10599 13.9383C6.10599 13.9383 6.10598 13.9383 6.10598 13.9383C6.10598 13.9383 6.10598 13.9383 6.10597 13.9383C6.10597 13.9383 6.10597 13.9383 6.10597 13.9383C6.10596 13.9383 6.10596 13.9383 6.10596 13.9383C6.10596 13.9383 6.10595 13.9383 6.10595 13.9383C6.10595 13.9383 6.10595 13.9383 6.10594 13.9383C6.10594 13.9383 6.10594 13.9383 6.10594 13.9383C6.10593 13.9383 6.10593 13.9383 6.10593 13.9383C6.10593 13.9383 6.10592 13.9383 6.10592 13.9383C6.10592 13.9383 6.10591 13.9383 6.10591 13.9383C6.10591 13.9383 6.10591 13.9383 6.1059 13.9383C6.1059 13.9383 6.1059 13.9383 6.1059 13.9383C6.10589 13.9383 6.10589 13.9383 6.10589 13.9383C6.10589 13.9383 6.10588 13.9383 6.10588 13.9383C6.10588 13.9383 6.10588 13.9383 6.10587 13.9383C6.10587 13.9383 6.10587 13.9383 6.10587 13.9383C6.10586 13.9383 6.10586 13.9383 6.10586 13.9383C6.10586 13.9383 6.10585 13.9383 6.10585 13.9383C6.10585 13.9383 6.10585 13.9383 6.10584 13.9383C6.10584 13.9383 6.10584 13.9383 6.10584 13.9383C6.10583 13.9383 6.10583 13.9383 6.10583 13.9383C6.10583 13.9383 6.10582 13.9383 6.10582 13.9383C6.10582 13.9383 6.10582 13.9383 6.10581 13.9383C6.10581 13.9383 6.10581 13.9383 6.10581 13.9383C6.1058 13.9383 6.1058 13.9383 6.1058 13.9383C6.10579 13.9383 6.10579 13.9383 6.10579 13.9383C6.10579 13.9383 6.10578 13.9383 6.10578 13.9383C6.10578 13.9383 6.10578 13.9383 6.10577 13.9383C6.10577 13.9383 6.10577 13.9383 6.10577 13.9383C6.10576 13.9383 6.10576 13.9383 6.10576 13.9383C6.10576 13.9383 6.10575 13.9383 6.10575 13.9383C6.10575 13.9383 6.10575 13.9383 6.10574 13.9383C6.10574 13.9383 6.10574 13.9383 6.10574 13.9383C6.10573 13.9383 6.10573 13.9383 6.10573 13.9383C6.10573 13.9383 6.10572 13.9383 6.10572 13.9383C6.10572 13.9383 6.10572 13.9383 6.10571 13.9383C6.10571 13.9383 6.10571 13.9383 6.10571 13.9383C6.1057 13.9383 6.1057 13.9383 6.1057 13.9383C6.10569 13.9383 6.10569 13.9383 6.10569 13.9383C6.10569 13.9383 6.10568 13.9383 6.10568 13.9383C6.10568 13.9383 6.10568 13.9383 6.10567 13.9383C6.10567 13.9383 6.10567 13.9383 6.10567 13.9383C6.10566 13.9383 6.10566 13.9383 6.10566 13.9383C6.10566 13.9383 6.10565 13.9383 6.10565 13.9383C6.10565 13.9383 6.10565 13.9383 6.10564 13.9383C6.10564 13.9383 6.10564 13.9383 6.10564 13.9383C6.10563 13.9383 6.10563 13.9383 6.10563 13.9383C6.10563 13.9383 6.10562 13.9383 6.10562 13.9383C6.10562 13.9383 6.10562 13.9383 6.10561 13.9383C6.10561 13.9383 6.10561 13.9383 6.1056 13.9383C6.1056 13.9383 6.1056 13.9383 6.1056 13.9383C6.10559 13.9383 6.10559 13.9383 6.10559 13.9383C6.10559 13.9383 6.10558 13.9383 6.10558 13.9383C6.10558 13.9383 6.10558 13.9383 6.10557 13.9383C6.10557 13.9383 6.10557 13.9383 6.10557 13.9383C6.10556 13.9383 6.10556 13.9383 6.10556 13.9383C6.10556 13.9383 6.10555 13.9383 6.10555 13.9383C6.10555 13.9383 6.10555 13.9383 6.10554 13.9383C6.10554 13.9383 6.10554 13.9383 6.10554 13.9383C6.10553 13.9383 6.10553 13.9383 6.10553 13.9383C6.10552 13.9383 6.10552 13.9383 6.10552 13.9383C6.10552 13.9383 6.10551 13.9383 6.10551 13.9383C6.10551 13.9383 6.10551 13.9383 6.1055 13.9383C6.1055 13.9383 6.1055 13.9383 6.1055 13.9383C6.10549 13.9383 6.10549 13.9383 6.10549 13.9383C6.10549 13.9383 6.10548 13.9383 6.10548 13.9383C6.10548 13.9383 6.10548 13.9383 6.10547 13.9383C6.10547 13.9383 6.10547 13.9383 6.10547 13.9383C6.10546 13.9383 6.10546 13.9383 6.10546 13.9383C6.10546 13.9383 6.10545 13.9383 6.10545 13.9383C6.10545 13.9383 6.10544 13.9383 6.10544 13.9383C6.10544 13.9383 6.10544 13.9383 6.10543 13.9383C6.10543 13.9383 6.10543 13.9383 6.10543 13.9383C6.10542 13.9383 6.10542 13.9383 6.10542 13.9383C6.10542 13.9383 6.10541 13.9383 6.10541 13.9383C6.10541 13.9383 6.10541 13.9383 6.1054 13.9383C6.1054 13.9383 6.1054 13.9383 6.1054 13.9383C6.10539 13.9383 6.10539 13.9383 6.10539 13.9383C6.10539 13.9383 6.10538 13.9383 6.10538 13.9383C6.10538 13.9383 6.10538 13.9383 6.10537 13.9383C6.10537 13.9383 6.10537 13.9383 6.10536 13.9383C6.10536 13.9383 6.10536 13.9383 6.10536 13.9383C6.10535 13.9383 6.10535 13.9383 6.10535 13.9383C6.10535 13.9383 6.10534 13.9383 6.10534 13.9383C6.10534 13.9383 6.10534 13.9383 6.10533 13.9383C6.10533 13.9383 6.10533 13.9383 6.10533 13.9383C6.10532 13.9383 6.10532 13.9383 6.10532 13.9383C6.10532 13.9383 6.10531 13.9383 6.10531 13.9383C6.10531 13.9383 6.10531 13.9383 6.1053 13.9383C6.1053 13.9383 6.1053 13.9383 6.10529 13.9383C6.10529 13.9383 6.10529 13.9383 6.10529 13.9383C6.10528 13.9383 6.10528 13.9383 6.10528 13.9383C6.10528 13.9383 6.10527 13.9383 6.10527 13.9383C6.10527 13.9383 6.10527 13.9383 6.10526 13.9383C6.10526 13.9383 6.10526 13.9383 6.10526 13.9383C6.10525 13.9383 6.10525 13.9383 6.10525 13.9383C6.10525 13.9383 6.10524 13.9383 6.10524 13.9383C6.10524 13.9383 6.10524 13.9383 6.10523 13.9383C6.10523 13.9383 6.10523 13.9383 6.10523 13.9383C6.10522 13.9383 6.10522 13.9383 6.10522 13.9383C6.10521 13.9383 6.10521 13.9383 6.10521 13.9383C6.10521 13.9383 6.1052 13.9383 6.1052 13.9383C6.1052 13.9383 6.1052 13.9383 6.10519 13.9383C6.10519 13.9383 6.10519 13.9383 6.10519 13.9383C6.10518 13.9383 6.10518 13.9383 6.10518 13.9383C6.10518 13.9383 6.10517 13.9383 6.10517 13.9383C6.10517 13.9383 6.10517 13.9383 6.10516 13.9383C6.10516 13.9383 6.10516 13.9383 6.10516 13.9383C6.10515 13.9383 6.10515 13.9383 6.10515 13.9383C6.10514 13.9383 6.10514 13.9383 6.10514 13.9383C6.10514 13.9383 6.10513 13.9383 6.10513 13.9383C6.10513 13.9383 6.10513 13.9383 6.10512 13.9383C6.10512 13.9383 6.10512 13.9383 6.10512 13.9383C6.10511 13.9383 6.10511 13.9383 6.10511 13.9383C6.10511 13.9383 6.1051 13.9383 6.1051 13.9383C6.1051 13.9383 6.1051 13.9383 6.10509 13.9383C6.10509 13.9383 6.10509 13.9383 6.10509 13.9383C6.10508 13.9383 6.10508 13.9383 6.10508 13.9383C6.10508 13.9383 6.10507 13.9383 6.10507 13.9383C6.10507 13.9383 6.10506 13.9383 6.10506 13.9383C6.10506 13.9383 6.10506 13.9383 6.10505 13.9383C6.10505 13.9383 6.10505 13.9383 6.10505 13.9383C6.10504 13.9383 6.10504 13.9383 6.10504 13.9383C6.10504 13.9383 6.10503 13.9383 6.10503 13.9383C6.10503 13.9383 6.10503 13.9383 6.10502 13.9383C6.10502 13.9383 6.10502 13.9383 6.10502 13.9383C6.10501 13.9383 6.10501 13.9383 6.10501 13.9383C6.10501 13.9383 6.105 13.9383 6.105 13.9383C6.105 13.9383 6.105 13.9383 6.10499 13.9383C6.10499 13.9383 6.10499 13.9383 6.10498 13.9383C6.10498 13.9383 6.10498 13.9383 6.10498 13.9383C6.10497 13.9383 6.10497 13.9383 6.10497 13.9383C6.10497 13.9383 6.10496 13.9383 6.10496 13.9383C6.10496 13.9383 6.10496 13.9383 6.10495 13.9383C6.10495 13.9383 6.10495 13.9383 6.10495 13.9383C6.10494 13.9383 6.10494 13.9383 6.10494 13.9383C6.10494 13.9383 6.10493 13.9383 6.10493 13.9383C6.10493 13.9383 6.10493 13.9383 6.10492 13.9383C6.10492 13.9383 6.10492 13.9383 6.10492 13.9383C6.10491 13.9383 6.10491 13.9383 6.10491 13.9383C6.1049 13.9383 6.1049 13.9383 6.1049 13.9383C6.1049 13.9383 6.10489 13.9383 6.10489 13.9383C6.10489 13.9383 6.10489 13.9383 6.10488 13.9383C6.10488 13.9383 6.10488 13.9383 6.10488 13.9383C6.10487 13.9383 6.10487 13.9383 6.10487 13.9383C6.10487 13.9383 6.10486 13.9383 6.10486 13.9383C6.10486 13.9383 6.10486 13.9383 6.10485 13.9383C6.10485 13.9383 6.10485 13.9383 6.10485 13.9383C6.10484 13.9383 6.10484 13.9383 6.10484 13.9383C6.10484 13.9383 6.10483 13.9383 6.10483 13.9383C6.10483 13.9383 6.10483 13.9383 6.10482 13.9383C6.10482 13.9383 6.10482 13.9383 6.10481 13.9383C6.10481 13.9383 6.10481 13.9383 6.10481 13.9383C6.1048 13.9383 6.1048 13.9383 6.1048 13.9383C6.1048 13.9383 6.10479 13.9383 6.10479 13.9383C6.10479 13.9383 6.10479 13.9383 6.10478 13.9383C6.10478 13.9383 6.10478 13.9383 6.10478 13.9383C6.10477 13.9383 6.10477 13.9383 6.10477 13.9383C6.10477 13.9383 6.10476 13.9383 6.10476 13.9383C6.10476 13.9383 6.10476 13.9383 6.10475 13.9383C6.10475 13.9383 6.10475 13.9383 6.10475 13.9383C6.10474 13.9383 6.10474 13.9383 6.10474 13.9383C6.10474 13.9383 6.10473 13.9383 6.10473 13.9383C6.10473 13.9383 6.10472 13.9383 6.10472 13.9383C6.10472 13.9383 6.10472 13.9383 6.10471 13.9383C6.10471 13.9383 6.10471 13.9383 6.10471 13.9383C6.1047 13.9383 6.1047 13.9383 6.1047 13.9383C6.1047 13.9383 6.10469 13.9383 6.10469 13.9383C6.10469 13.9383 6.10469 13.9383 6.10468 13.9383C6.10468 13.9383 6.10468 13.9383 6.10468 13.9383C6.10467 13.9383 6.10467 13.9383 6.10467 13.9383C6.10467 13.9383 6.10466 13.9383 6.10466 13.9383C6.10466 13.9383 6.10466 13.9383 6.10465 13.9383C6.10465 13.9383 6.10465 13.9383 6.10465 13.9383C6.10464 13.9383 6.10464 13.9383 6.10464 13.9383C6.10464 13.9383 6.10463 13.9383 6.10463 13.9383C6.10463 13.9383 6.10463 13.9383 6.10462 13.9383C6.10462 13.9383 6.10462 13.9383 6.10462 13.9383C6.10461 13.9383 6.10461 13.9383 6.10461 13.9383C6.1046 13.9383 6.1046 13.9383 6.1046 13.9383C6.1046 13.9383 6.10459 13.9383 6.10459 13.9383C6.10459 13.9383 6.10459 13.9383 6.10458 13.9383C6.10458 13.9383 6.10458 13.9383 6.10458 13.9383C6.10457 13.9383 6.10457 13.9383 6.10457 13.9383C6.10457 13.9383 6.10456 13.9383 6.10456 13.9383C6.10456 13.9383 6.10456 13.9383 6.10455 13.9383C6.10455 13.9383 6.10455 13.9383 6.10455 13.9383C6.10454 13.9383 6.10454 13.9383 6.10454 13.9383C6.10454 13.9383 6.10453 13.9383 6.10453 13.9383C6.10453 13.9383 6.10453 13.9383 6.10452 13.9383C6.10452 13.9383 6.10452 13.9383 6.10452 13.9383C6.10451 13.9383 6.10451 13.9383 6.10451 13.9383C6.10451 13.9383 6.1045 13.9383 6.1045 13.9383C6.1045 13.9383 6.1045 13.9383 6.10449 13.9383C6.10449 13.9383 6.10449 13.9383 6.10449 13.9383C6.10448 13.9383 6.10448 13.9383 6.10448 13.9383C6.10448 13.9383 6.10447 13.9383 6.10447 13.9383C6.10447 13.9383 6.10447 13.9383 6.10446 13.9383C6.10446 13.9383 6.10446 13.9383 6.10446 13.9383C6.10445 13.9383 6.10445 13.9383 6.10445 13.9383C6.10445 13.9383 6.10444 13.9383 6.10444 13.9383C6.10444 13.9383 6.10444 13.9383 6.10443 13.9383C6.10443 13.9383 6.10443 13.9383 6.10443 13.9383C6.10442 13.9383 6.10442 13.9383 6.10442 13.9383C6.10441 13.9383 6.10441 13.9383 6.10441 13.9383C6.10441 13.9383 6.1044 13.9383 6.1044 13.9383C6.1044 13.9383 6.1044 13.9383 6.10439 13.9383C6.10439 13.9383 6.10439 13.9383 6.10439 13.9383C6.10438 13.9383 6.10438 13.9383 6.10438 13.9383C6.10438 13.9383 6.10437 13.9383 6.10437 13.9383C6.10437 13.9383 6.10437 13.9383 6.10436 13.9383C6.10436 13.9383 6.10436 13.9383 6.10436 13.9383C6.10435 13.9383 6.10435 13.9383 6.10435 13.9383C6.10435 13.9383 6.10434 13.9383 6.10434 13.9383C6.10434 13.9383 6.10434 13.9383 6.10433 13.9383C6.10433 13.9383 6.10433 13.9383 6.10433 13.9383C6.10432 13.9383 6.10432 13.9383 6.10432 13.9383C6.10432 13.9383 6.10431 13.9383 6.10431 13.9383C6.10431 13.9383 6.10431 13.9383 6.1043 13.9383C6.1043 13.9383 6.1043 13.9383 6.1043 13.9383C6.10429 13.9383 6.10429 13.9383 6.10429 13.9383C6.10429 13.9383 6.10428 13.9383 6.10428 13.9383C6.10428 13.9383 6.10428 13.9383 6.10427 13.9383C6.10427 13.9383 6.10427 13.9383 6.10427 13.9383C6.10426 13.9383 6.10426 13.9383 6.10426 13.9383C6.10426 13.9383 6.10425 13.9383 6.10425 13.9383C6.10425 13.9383 6.10425 13.9383 6.10424 13.9383C6.10424 13.9383 6.10424 13.9383 6.10424 13.9383C6.10423 13.9383 6.10423 13.9383 6.10423 13.9383C6.10423 13.9383 6.10422 13.9383 6.10422 13.9383C6.10422 13.9383 6.10422 13.9383 6.10421 13.9383C6.10421 13.9383 6.10421 13.9383 6.10421 13.9383C6.1042 13.9383 6.1042 13.9383 6.1042 13.9383C6.1042 13.9383 6.10419 13.9383 6.10419 13.9383C6.10419 13.9383 6.10419 13.9383 6.10419 13.9383C6.10418 13.9383 6.10418 13.9383 6.10418 13.9383C6.10418 13.9383 6.10417 13.9383 6.10417 13.9383C6.10417 13.9383 6.10417 13.9383 6.10416 13.9383C6.10416 13.9383 6.10416 13.9383 6.10416 13.9383C6.10415 13.9383 6.10415 13.9383 6.10415 13.9383C6.10415 13.9383 6.10414 13.9383 6.10414 13.9383C6.10414 13.9383 6.10414 13.9383 6.10413 13.9383C6.10413 13.9383 6.10413 13.9383 6.10413 13.9383C6.10412 13.9383 6.10412 13.9383 6.10412 13.9383C6.10412 13.9383 6.10411 13.9383 6.10411 13.9383C6.10411 13.9383 6.10411 13.9383 6.1041 13.9383C6.1041 13.9383 6.1041 13.9383 6.1041 13.9383C6.10409 13.9383 6.10409 13.9383 6.10409 13.9383C6.10409 13.9383 6.10408 13.9383 6.10408 13.9383C6.10408 13.9383 6.10408 13.9383 6.10407 13.9383C6.10407 13.9383 6.10407 13.9383 6.10407 13.9383C6.10406 13.9383 6.10406 13.9383 6.10406 13.9383C6.10406 13.9383 6.10405 13.9383 6.10405 13.9383C6.10405 13.9383 6.10405 13.9383 6.10404 13.9383C6.10404 13.9383 6.10404 13.9383 6.10404 13.9383C6.10404 13.9383 6.10403 13.9383 6.10403 13.9383C6.10403 13.9383 6.10403 13.9383 6.10402 13.9383C6.10402 13.9383 6.10402 13.9383 6.10402 13.9383C6.10401 13.9383 6.10401 13.9383 6.10401 13.9383C6.10401 13.9383 6.104 13.9383 6.104 13.9383C6.104 13.9383 6.104 13.9383 6.10399 13.9383C6.10399 13.9383 6.10399 13.9383 6.10399 13.9383C6.10398 13.9383 6.10398 13.9383 6.10398 13.9383C6.10398 13.9383 6.10397 13.9383 6.10397 13.9383C6.10397 13.9383 6.10397 13.9383 6.10396 13.9383C6.10396 13.9383 6.10396 13.9383 6.10396 13.9383C6.10395 13.9383 6.10395 13.9383 6.10395 13.9383C6.10395 13.9383 6.10395 13.9383 6.10394 13.9383C6.10394 13.9383 6.10394 13.9383 6.10394 13.9383C6.10393 13.9383 6.10393 13.9383 6.10393 13.9383C6.10393 13.9383 6.10392 13.9383 6.10392 13.9383C6.10392 13.9383 6.10392 13.9383 6.10391 13.9383C6.10391 13.9383 6.10391 13.9383 6.10391 13.9383C6.1039 13.9383 6.1039 13.9383 6.1039 13.9383C6.1039 13.9383 6.10389 13.9383 6.10389 13.9383C6.10389 13.9383 6.10389 13.9383 6.10388 13.9383C6.10388 13.9383 6.10388 13.9383 6.10388 13.9383C6.10388 13.9383 6.10387 13.9383 6.10387 13.9383C6.10387 13.9383 6.10387 13.9383 6.10386 13.9383C6.10386 13.9383 6.10386 13.9383 6.10386 13.9383C6.10385 13.9383 6.10385 13.9383 6.10385 13.9383C6.10385 13.9383 6.10384 13.9383 6.10384 13.9383C6.10384 13.9383 6.10384 13.9383 6.10383 13.9383C6.10383 13.9383 6.10383 13.9383 6.10383 13.9383C6.10382 13.9383 6.10382 13.9383 6.10382 13.9383C6.10382 13.9383 6.10382 13.9383 6.10381 13.9383C6.10381 13.9383 6.10381 13.9383 6.10381 13.9383C6.1038 13.9383 6.1038 13.9383 6.1038 13.9383C6.1038 13.9383 6.10379 13.9383 6.10379 13.9383C6.10379 13.9383 6.10379 13.9383 6.10378 13.9383C6.10378 13.9383 6.10378 13.9383 6.10378 13.9383C6.10378 13.9383 6.10377 13.9383 6.10377 13.9383C6.10377 13.9383 6.10377 13.9383 6.10376 13.9383C6.10376 13.9383 6.10376 13.9383 6.10376 13.9383C6.10375 13.9383 6.10375 13.9383 6.10375 13.9383C6.10375 13.9383 6.10374 13.9383 6.10374 13.9383C6.10374 13.9383 6.10374 13.9383 6.10373 13.9383C6.10373 13.9383 6.10373 13.9383 6.10373 13.9383C6.10373 13.9383 6.10372 13.9383 6.10372 13.9383C6.10372 13.9383 6.10372 13.9383 6.10371 13.9383C6.10371 13.9383 6.10371 13.9383 6.10371 13.9383C6.1037 13.9383 6.1037 13.9383 6.1037 13.9383C6.1037 13.9383 6.10369 13.9383 6.10369 13.9383C6.10369 13.9383 6.10369 13.9383 6.10369 13.9383C6.10368 13.9383 6.10368 13.9383 6.10368 13.9383C6.10368 13.9383 6.10367 13.9383 6.10367 13.9383C6.10367 13.9383 6.10367 13.9383 6.10366 13.9383C6.10366 13.9383 6.10366 13.9383 6.10366 13.9383C6.10366 13.9383 6.10365 13.9383 6.10365 13.9383C6.10365 13.9383 6.10365 13.9383 6.10364 13.9383C6.10364 13.9383 6.10364 13.9383 6.10364 13.9383C6.10363 13.9383 6.10363 13.9383 6.10363 13.9383C6.10363 13.9383 6.10362 13.9383 6.10362 13.9383C6.10362 13.9383 6.10362 13.9383 6.10362 13.9383C6.10361 13.9383 6.10361 13.9383 6.10361 13.9383C6.10361 13.9383 6.1036 13.9383 6.1036 13.9383C6.1036 13.9383 6.1036 13.9383 6.10359 13.9383C6.10359 13.9383 6.10359 13.9383 6.10359 13.9383C6.10359 13.9383 6.10358 13.9383 6.10358 13.9383C6.10358 13.9383 6.10358 13.9383 6.10357 13.9383C6.10357 13.9383 6.10357 13.9383 6.10357 13.9383C6.10356 13.9383 6.10356 13.9383 6.10356 13.9383C6.10356 13.9383 6.10356 13.9383 6.10355 13.9383C6.10355 13.9383 6.10355 13.9383 6.10355 13.9383C6.10354 13.9383 6.10354 13.9383 6.10354 13.9383C6.10354 13.9383 6.10354 13.9383 6.10353 13.9383C6.10353 13.9383 6.10353 13.9383 6.10353 13.9383C6.10352 13.9383 6.10352 13.9383 6.10352 13.9383C6.10352 13.9383 6.10351 13.9383 6.10351 13.9383C6.10351 13.9383 6.10351 13.9383 6.10351 13.9383C6.1035 13.9383 6.1035 13.9383 6.1035 13.9383C6.1035 13.9383 6.10349 13.9383 6.10349 13.9383C6.10349 13.9383 6.10349 13.9383 6.10349 13.9383C6.10348 13.9383 6.10348 13.9383 6.10348 13.9383C6.10348 13.9383 6.10347 13.9383 6.10347 13.9383C6.10347 13.9383 6.10347 13.9383 6.10346 13.9383C6.10346 13.9383 6.10346 13.9383 6.10346 13.9383C6.10346 13.9383 6.10345 13.9383 6.10345 13.9383C6.10345 13.9383 6.10345 13.9383 6.10344 13.9383C6.10344 13.9383 6.10344 13.9383 6.10344 13.9383C6.10344 13.9383 6.10343 13.9383 6.10343 13.9383C6.10343 13.9383 6.10343 13.9383 6.10342 13.9383C6.10342 13.9383 6.10342 13.9383 6.10342 13.9383C6.10342 13.9383 6.10341 13.9383 6.10341 13.9383C6.10341 13.9383 6.10341 13.9383 6.1034 13.9383C6.1034 13.9383 6.1034 13.9383 6.1034 13.9383C6.1034 13.9383 6.10339 13.9383 6.10339 13.9383C6.10339 13.9383 6.10339 13.9383 6.10338 13.9383C6.10338 13.9383 6.10338 13.9383 6.10338 13.9383C6.10338 13.9383 6.10337 13.9383 6.10337 13.9383C6.10337 13.9383 6.10337 13.9383 6.10336 13.9383V14.1383C6.10337 14.1383 6.10337 14.1383 6.10337 14.1383C6.10337 14.1383 6.10338 14.1383 6.10338 14.1383C6.10338 14.1383 6.10338 14.1383 6.10338 14.1383C6.10339 14.1383 6.10339 14.1383 6.10339 14.1383C6.10339 14.1383 6.1034 14.1383 6.1034 14.1383C6.1034 14.1383 6.1034 14.1383 6.1034 14.1383C6.10341 14.1383 6.10341 14.1383 6.10341 14.1383C6.10341 14.1383 6.10342 14.1383 6.10342 14.1383C6.10342 14.1383 6.10342 14.1383 6.10342 14.1383C6.10343 14.1383 6.10343 14.1383 6.10343 14.1383C6.10343 14.1383 6.10344 14.1383 6.10344 14.1383C6.10344 14.1383 6.10344 14.1383 6.10344 14.1383C6.10345 14.1383 6.10345 14.1383 6.10345 14.1383C6.10345 14.1383 6.10346 14.1383 6.10346 14.1383C6.10346 14.1383 6.10346 14.1383 6.10346 14.1383C6.10347 14.1383 6.10347 14.1383 6.10347 14.1383C6.10347 14.1383 6.10348 14.1383 6.10348 14.1383C6.10348 14.1383 6.10348 14.1383 6.10349 14.1383C6.10349 14.1383 6.10349 14.1383 6.10349 14.1383C6.10349 14.1383 6.1035 14.1383 6.1035 14.1383C6.1035 14.1383 6.1035 14.1383 6.10351 14.1383C6.10351 14.1383 6.10351 14.1383 6.10351 14.1383C6.10351 14.1383 6.10352 14.1383 6.10352 14.1383C6.10352 14.1383 6.10352 14.1383 6.10353 14.1383C6.10353 14.1383 6.10353 14.1383 6.10353 14.1383C6.10354 14.1383 6.10354 14.1383 6.10354 14.1383C6.10354 14.1383 6.10354 14.1383 6.10355 14.1383C6.10355 14.1383 6.10355 14.1383 6.10355 14.1383C6.10356 14.1383 6.10356 14.1383 6.10356 14.1383C6.10356 14.1383 6.10356 14.1383 6.10357 14.1383C6.10357 14.1383 6.10357 14.1383 6.10357 14.1383C6.10358 14.1383 6.10358 14.1383 6.10358 14.1383C6.10358 14.1383 6.10359 14.1383 6.10359 14.1383C6.10359 14.1383 6.10359 14.1383 6.10359 14.1383C6.1036 14.1383 6.1036 14.1383 6.1036 14.1383C6.1036 14.1383 6.10361 14.1383 6.10361 14.1383C6.10361 14.1383 6.10361 14.1383 6.10362 14.1383C6.10362 14.1383 6.10362 14.1383 6.10362 14.1383C6.10362 14.1383 6.10363 14.1383 6.10363 14.1383C6.10363 14.1383 6.10363 14.1383 6.10364 14.1383C6.10364 14.1383 6.10364 14.1383 6.10364 14.1383C6.10365 14.1383 6.10365 14.1383 6.10365 14.1383C6.10365 14.1383 6.10366 14.1383 6.10366 14.1383C6.10366 14.1383 6.10366 14.1383 6.10366 14.1383C6.10367 14.1383 6.10367 14.1383 6.10367 14.1383C6.10367 14.1383 6.10368 14.1383 6.10368 14.1383C6.10368 14.1383 6.10368 14.1383 6.10369 14.1383C6.10369 14.1383 6.10369 14.1383 6.10369 14.1383C6.10369 14.1383 6.1037 14.1383 6.1037 14.1383C6.1037 14.1383 6.1037 14.1383 6.10371 14.1383C6.10371 14.1383 6.10371 14.1383 6.10371 14.1383C6.10372 14.1383 6.10372 14.1383 6.10372 14.1383C6.10372 14.1383 6.10373 14.1383 6.10373 14.1383C6.10373 14.1383 6.10373 14.1383 6.10373 14.1383C6.10374 14.1383 6.10374 14.1383 6.10374 14.1383C6.10374 14.1383 6.10375 14.1383 6.10375 14.1383C6.10375 14.1383 6.10375 14.1383 6.10376 14.1383C6.10376 14.1383 6.10376 14.1383 6.10376 14.1383C6.10377 14.1383 6.10377 14.1383 6.10377 14.1383C6.10377 14.1383 6.10378 14.1383 6.10378 14.1383C6.10378 14.1383 6.10378 14.1383 6.10378 14.1383C6.10379 14.1383 6.10379 14.1383 6.10379 14.1383C6.10379 14.1383 6.1038 14.1383 6.1038 14.1383C6.1038 14.1383 6.1038 14.1383 6.10381 14.1383C6.10381 14.1383 6.10381 14.1383 6.10381 14.1383C6.10382 14.1383 6.10382 14.1383 6.10382 14.1383C6.10382 14.1383 6.10382 14.1383 6.10383 14.1383C6.10383 14.1383 6.10383 14.1383 6.10383 14.1383C6.10384 14.1383 6.10384 14.1383 6.10384 14.1383C6.10384 14.1383 6.10385 14.1383 6.10385 14.1383C6.10385 14.1383 6.10385 14.1383 6.10386 14.1383C6.10386 14.1383 6.10386 14.1383 6.10386 14.1383C6.10387 14.1383 6.10387 14.1383 6.10387 14.1383C6.10387 14.1383 6.10388 14.1383 6.10388 14.1383C6.10388 14.1383 6.10388 14.1383 6.10388 14.1383C6.10389 14.1383 6.10389 14.1383 6.10389 14.1383C6.10389 14.1383 6.1039 14.1383 6.1039 14.1383C6.1039 14.1383 6.1039 14.1383 6.10391 14.1383C6.10391 14.1383 6.10391 14.1383 6.10391 14.1383C6.10392 14.1383 6.10392 14.1383 6.10392 14.1383C6.10392 14.1383 6.10393 14.1383 6.10393 14.1383C6.10393 14.1383 6.10393 14.1383 6.10394 14.1383C6.10394 14.1383 6.10394 14.1383 6.10394 14.1383C6.10395 14.1383 6.10395 14.1383 6.10395 14.1383C6.10395 14.1383 6.10395 14.1383 6.10396 14.1383C6.10396 14.1383 6.10396 14.1383 6.10396 14.1383C6.10397 14.1383 6.10397 14.1383 6.10397 14.1383C6.10397 14.1383 6.10398 14.1383 6.10398 14.1383C6.10398 14.1383 6.10398 14.1383 6.10399 14.1383C6.10399 14.1383 6.10399 14.1383 6.10399 14.1383C6.104 14.1383 6.104 14.1383 6.104 14.1383C6.104 14.1383 6.10401 14.1383 6.10401 14.1383C6.10401 14.1383 6.10401 14.1383 6.10402 14.1383C6.10402 14.1383 6.10402 14.1383 6.10402 14.1383C6.10403 14.1383 6.10403 14.1383 6.10403 14.1383C6.10403 14.1383 6.10404 14.1383 6.10404 14.1383C6.10404 14.1383 6.10404 14.1383 6.10404 14.1383C6.10405 14.1383 6.10405 14.1383 6.10405 14.1383C6.10405 14.1383 6.10406 14.1383 6.10406 14.1383C6.10406 14.1383 6.10406 14.1383 6.10407 14.1383C6.10407 14.1383 6.10407 14.1383 6.10407 14.1383C6.10408 14.1383 6.10408 14.1383 6.10408 14.1383C6.10408 14.1383 6.10409 14.1383 6.10409 14.1383C6.10409 14.1383 6.10409 14.1383 6.1041 14.1383C6.1041 14.1383 6.1041 14.1383 6.1041 14.1383C6.10411 14.1383 6.10411 14.1383 6.10411 14.1383C6.10411 14.1383 6.10412 14.1383 6.10412 14.1383C6.10412 14.1383 6.10412 14.1383 6.10413 14.1383C6.10413 14.1383 6.10413 14.1383 6.10413 14.1383C6.10414 14.1383 6.10414 14.1383 6.10414 14.1383C6.10414 14.1383 6.10415 14.1383 6.10415 14.1383C6.10415 14.1383 6.10415 14.1383 6.10416 14.1383C6.10416 14.1383 6.10416 14.1383 6.10416 14.1383C6.10417 14.1383 6.10417 14.1383 6.10417 14.1383C6.10417 14.1383 6.10418 14.1383 6.10418 14.1383C6.10418 14.1383 6.10418 14.1383 6.10419 14.1383C6.10419 14.1383 6.10419 14.1383 6.10419 14.1383C6.10419 14.1383 6.1042 14.1383 6.1042 14.1383C6.1042 14.1383 6.1042 14.1383 6.10421 14.1383C6.10421 14.1383 6.10421 14.1383 6.10421 14.1383C6.10422 14.1383 6.10422 14.1383 6.10422 14.1383C6.10422 14.1383 6.10423 14.1383 6.10423 14.1383C6.10423 14.1383 6.10423 14.1383 6.10424 14.1383C6.10424 14.1383 6.10424 14.1383 6.10424 14.1383C6.10425 14.1383 6.10425 14.1383 6.10425 14.1383C6.10425 14.1383 6.10426 14.1383 6.10426 14.1383C6.10426 14.1383 6.10426 14.1383 6.10427 14.1383C6.10427 14.1383 6.10427 14.1383 6.10427 14.1383C6.10428 14.1383 6.10428 14.1383 6.10428 14.1383C6.10428 14.1383 6.10429 14.1383 6.10429 14.1383C6.10429 14.1383 6.10429 14.1383 6.1043 14.1383C6.1043 14.1383 6.1043 14.1383 6.1043 14.1383C6.10431 14.1383 6.10431 14.1383 6.10431 14.1383C6.10431 14.1383 6.10432 14.1383 6.10432 14.1383C6.10432 14.1383 6.10432 14.1383 6.10433 14.1383C6.10433 14.1383 6.10433 14.1383 6.10433 14.1383C6.10434 14.1383 6.10434 14.1383 6.10434 14.1383C6.10434 14.1383 6.10435 14.1383 6.10435 14.1383C6.10435 14.1383 6.10435 14.1383 6.10436 14.1383C6.10436 14.1383 6.10436 14.1383 6.10436 14.1383C6.10437 14.1383 6.10437 14.1383 6.10437 14.1383C6.10437 14.1383 6.10438 14.1383 6.10438 14.1383C6.10438 14.1383 6.10438 14.1383 6.10439 14.1383C6.10439 14.1383 6.10439 14.1383 6.10439 14.1383C6.1044 14.1383 6.1044 14.1383 6.1044 14.1383C6.1044 14.1383 6.10441 14.1383 6.10441 14.1383C6.10441 14.1383 6.10441 14.1383 6.10442 14.1383C6.10442 14.1383 6.10442 14.1383 6.10443 14.1383C6.10443 14.1383 6.10443 14.1383 6.10443 14.1383C6.10444 14.1383 6.10444 14.1383 6.10444 14.1383C6.10444 14.1383 6.10445 14.1383 6.10445 14.1383C6.10445 14.1383 6.10445 14.1383 6.10446 14.1383C6.10446 14.1383 6.10446 14.1383 6.10446 14.1383C6.10447 14.1383 6.10447 14.1383 6.10447 14.1383C6.10447 14.1383 6.10448 14.1383 6.10448 14.1383C6.10448 14.1383 6.10448 14.1383 6.10449 14.1383C6.10449 14.1383 6.10449 14.1383 6.10449 14.1383C6.1045 14.1383 6.1045 14.1383 6.1045 14.1383C6.1045 14.1383 6.10451 14.1383 6.10451 14.1383C6.10451 14.1383 6.10451 14.1383 6.10452 14.1383C6.10452 14.1383 6.10452 14.1383 6.10452 14.1383C6.10453 14.1383 6.10453 14.1383 6.10453 14.1383C6.10453 14.1383 6.10454 14.1383 6.10454 14.1383C6.10454 14.1383 6.10454 14.1383 6.10455 14.1383C6.10455 14.1383 6.10455 14.1383 6.10455 14.1383C6.10456 14.1383 6.10456 14.1383 6.10456 14.1383C6.10456 14.1383 6.10457 14.1383 6.10457 14.1383C6.10457 14.1383 6.10457 14.1383 6.10458 14.1383C6.10458 14.1383 6.10458 14.1383 6.10458 14.1383C6.10459 14.1383 6.10459 14.1383 6.10459 14.1383C6.10459 14.1383 6.1046 14.1383 6.1046 14.1383C6.1046 14.1383 6.1046 14.1383 6.10461 14.1383C6.10461 14.1383 6.10461 14.1383 6.10462 14.1383C6.10462 14.1383 6.10462 14.1383 6.10462 14.1383C6.10463 14.1383 6.10463 14.1383 6.10463 14.1383C6.10463 14.1383 6.10464 14.1383 6.10464 14.1383C6.10464 14.1383 6.10464 14.1383 6.10465 14.1383C6.10465 14.1383 6.10465 14.1383 6.10465 14.1383C6.10466 14.1383 6.10466 14.1383 6.10466 14.1383C6.10466 14.1383 6.10467 14.1383 6.10467 14.1383C6.10467 14.1383 6.10467 14.1383 6.10468 14.1383C6.10468 14.1383 6.10468 14.1383 6.10468 14.1383C6.10469 14.1383 6.10469 14.1383 6.10469 14.1383C6.10469 14.1383 6.1047 14.1383 6.1047 14.1383C6.1047 14.1383 6.1047 14.1383 6.10471 14.1383C6.10471 14.1383 6.10471 14.1383 6.10471 14.1383C6.10472 14.1383 6.10472 14.1383 6.10472 14.1383C6.10472 14.1383 6.10473 14.1383 6.10473 14.1383C6.10473 14.1383 6.10474 14.1383 6.10474 14.1383C6.10474 14.1383 6.10474 14.1383 6.10475 14.1383C6.10475 14.1383 6.10475 14.1383 6.10475 14.1383C6.10476 14.1383 6.10476 14.1383 6.10476 14.1383C6.10476 14.1383 6.10477 14.1383 6.10477 14.1383C6.10477 14.1383 6.10477 14.1383 6.10478 14.1383C6.10478 14.1383 6.10478 14.1383 6.10478 14.1383C6.10479 14.1383 6.10479 14.1383 6.10479 14.1383C6.10479 14.1383 6.1048 14.1383 6.1048 14.1383C6.1048 14.1383 6.1048 14.1383 6.10481 14.1383C6.10481 14.1383 6.10481 14.1383 6.10481 14.1383C6.10482 14.1383 6.10482 14.1383 6.10482 14.1383C6.10483 14.1383 6.10483 14.1383 6.10483 14.1383C6.10483 14.1383 6.10484 14.1383 6.10484 14.1383C6.10484 14.1383 6.10484 14.1383 6.10485 14.1383C6.10485 14.1383 6.10485 14.1383 6.10485 14.1383C6.10486 14.1383 6.10486 14.1383 6.10486 14.1383C6.10486 14.1383 6.10487 14.1383 6.10487 14.1383C6.10487 14.1383 6.10487 14.1383 6.10488 14.1383C6.10488 14.1383 6.10488 14.1383 6.10488 14.1383C6.10489 14.1383 6.10489 14.1383 6.10489 14.1383C6.10489 14.1383 6.1049 14.1383 6.1049 14.1383C6.1049 14.1383 6.1049 14.1383 6.10491 14.1383C6.10491 14.1383 6.10491 14.1383 6.10492 14.1383C6.10492 14.1383 6.10492 14.1383 6.10492 14.1383C6.10493 14.1383 6.10493 14.1383 6.10493 14.1383C6.10493 14.1383 6.10494 14.1383 6.10494 14.1383C6.10494 14.1383 6.10494 14.1383 6.10495 14.1383C6.10495 14.1383 6.10495 14.1383 6.10495 14.1383C6.10496 14.1383 6.10496 14.1383 6.10496 14.1383C6.10496 14.1383 6.10497 14.1383 6.10497 14.1383C6.10497 14.1383 6.10497 14.1383 6.10498 14.1383C6.10498 14.1383 6.10498 14.1383 6.10498 14.1383C6.10499 14.1383 6.10499 14.1383 6.10499 14.1383C6.105 14.1383 6.105 14.1383 6.105 14.1383C6.105 14.1383 6.10501 14.1383 6.10501 14.1383C6.10501 14.1383 6.10501 14.1383 6.10502 14.1383C6.10502 14.1383 6.10502 14.1383 6.10502 14.1383C6.10503 14.1383 6.10503 14.1383 6.10503 14.1383C6.10503 14.1383 6.10504 14.1383 6.10504 14.1383C6.10504 14.1383 6.10504 14.1383 6.10505 14.1383C6.10505 14.1383 6.10505 14.1383 6.10505 14.1383C6.10506 14.1383 6.10506 14.1383 6.10506 14.1383C6.10506 14.1383 6.10507 14.1383 6.10507 14.1383C6.10507 14.1383 6.10508 14.1383 6.10508 14.1383C6.10508 14.1383 6.10508 14.1383 6.10509 14.1383C6.10509 14.1383 6.10509 14.1383 6.10509 14.1383C6.1051 14.1383 6.1051 14.1383 6.1051 14.1383C6.1051 14.1383 6.10511 14.1383 6.10511 14.1383C6.10511 14.1383 6.10511 14.1383 6.10512 14.1383C6.10512 14.1383 6.10512 14.1383 6.10512 14.1383C6.10513 14.1383 6.10513 14.1383 6.10513 14.1383C6.10513 14.1383 6.10514 14.1383 6.10514 14.1383C6.10514 14.1383 6.10514 14.1383 6.10515 14.1383C6.10515 14.1383 6.10515 14.1383 6.10516 14.1383C6.10516 14.1383 6.10516 14.1383 6.10516 14.1383C6.10517 14.1383 6.10517 14.1383 6.10517 14.1383C6.10517 14.1383 6.10518 14.1383 6.10518 14.1383C6.10518 14.1383 6.10518 14.1383 6.10519 14.1383C6.10519 14.1383 6.10519 14.1383 6.10519 14.1383C6.1052 14.1383 6.1052 14.1383 6.1052 14.1383C6.1052 14.1383 6.10521 14.1383 6.10521 14.1383C6.10521 14.1383 6.10521 14.1383 6.10522 14.1383C6.10522 14.1383 6.10522 14.1383 6.10523 14.1383C6.10523 14.1383 6.10523 14.1383 6.10523 14.1383C6.10524 14.1383 6.10524 14.1383 6.10524 14.1383C6.10524 14.1383 6.10525 14.1383 6.10525 14.1383C6.10525 14.1383 6.10525 14.1383 6.10526 14.1383C6.10526 14.1383 6.10526 14.1383 6.10526 14.1383C6.10527 14.1383 6.10527 14.1383 6.10527 14.1383C6.10527 14.1383 6.10528 14.1383 6.10528 14.1383C6.10528 14.1383 6.10528 14.1383 6.10529 14.1383C6.10529 14.1383 6.10529 14.1383 6.10529 14.1383C6.1053 14.1383 6.1053 14.1383 6.1053 14.1383C6.10531 14.1383 6.10531 14.1383 6.10531 14.1383C6.10531 14.1383 6.10532 14.1383 6.10532 14.1383C6.10532 14.1383 6.10532 14.1383 6.10533 14.1383C6.10533 14.1383 6.10533 14.1383 6.10533 14.1383C6.10534 14.1383 6.10534 14.1383 6.10534 14.1383C6.10534 14.1383 6.10535 14.1383 6.10535 14.1383C6.10535 14.1383 6.10535 14.1383 6.10536 14.1383C6.10536 14.1383 6.10536 14.1383 6.10536 14.1383C6.10537 14.1383 6.10537 14.1383 6.10537 14.1383C6.10538 14.1383 6.10538 14.1383 6.10538 14.1383C6.10538 14.1383 6.10539 14.1383 6.10539 14.1383C6.10539 14.1383 6.10539 14.1383 6.1054 14.1383C6.1054 14.1383 6.1054 14.1383 6.1054 14.1383C6.10541 14.1383 6.10541 14.1383 6.10541 14.1383C6.10541 14.1383 6.10542 14.1383 6.10542 14.1383C6.10542 14.1383 6.10542 14.1383 6.10543 14.1383C6.10543 14.1383 6.10543 14.1383 6.10543 14.1383C6.10544 14.1383 6.10544 14.1383 6.10544 14.1383C6.10544 14.1383 6.10545 14.1383 6.10545 14.1383C6.10545 14.1383 6.10546 14.1383 6.10546 14.1383C6.10546 14.1383 6.10546 14.1383 6.10547 14.1383C6.10547 14.1383 6.10547 14.1383 6.10547 14.1383C6.10548 14.1383 6.10548 14.1383 6.10548 14.1383C6.10548 14.1383 6.10549 14.1383 6.10549 14.1383C6.10549 14.1383 6.10549 14.1383 6.1055 14.1383C6.1055 14.1383 6.1055 14.1383 6.1055 14.1383C6.10551 14.1383 6.10551 14.1383 6.10551 14.1383C6.10551 14.1383 6.10552 14.1383 6.10552 14.1383C6.10552 14.1383 6.10552 14.1383 6.10553 14.1383C6.10553 14.1383 6.10553 14.1383 6.10554 14.1383C6.10554 14.1383 6.10554 14.1383 6.10554 14.1383C6.10555 14.1383 6.10555 14.1383 6.10555 14.1383C6.10555 14.1383 6.10556 14.1383 6.10556 14.1383C6.10556 14.1383 6.10556 14.1383 6.10557 14.1383C6.10557 14.1383 6.10557 14.1383 6.10557 14.1383C6.10558 14.1383 6.10558 14.1383 6.10558 14.1383C6.10558 14.1383 6.10559 14.1383 6.10559 14.1383C6.10559 14.1383 6.10559 14.1383 6.1056 14.1383C6.1056 14.1383 6.1056 14.1383 6.1056 14.1383C6.10561 14.1383 6.10561 14.1383 6.10561 14.1383C6.10562 14.1383 6.10562 14.1383 6.10562 14.1383C6.10562 14.1383 6.10563 14.1383 6.10563 14.1383C6.10563 14.1383 6.10563 14.1383 6.10564 14.1383C6.10564 14.1383 6.10564 14.1383 6.10564 14.1383C6.10565 14.1383 6.10565 14.1383 6.10565 14.1383C6.10565 14.1383 6.10566 14.1383 6.10566 14.1383C6.10566 14.1383 6.10566 14.1383 6.10567 14.1383C6.10567 14.1383 6.10567 14.1383 6.10567 14.1383C6.10568 14.1383 6.10568 14.1383 6.10568 14.1383C6.10568 14.1383 6.10569 14.1383 6.10569 14.1383C6.10569 14.1383 6.10569 14.1383 6.1057 14.1383C6.1057 14.1383 6.1057 14.1383 6.10571 14.1383C6.10571 14.1383 6.10571 14.1383 6.10571 14.1383C6.10572 14.1383 6.10572 14.1383 6.10572 14.1383C6.10572 14.1383 6.10573 14.1383 6.10573 14.1383C6.10573 14.1383 6.10573 14.1383 6.10574 14.1383C6.10574 14.1383 6.10574 14.1383 6.10574 14.1383C6.10575 14.1383 6.10575 14.1383 6.10575 14.1383C6.10575 14.1383 6.10576 14.1383 6.10576 14.1383C6.10576 14.1383 6.10576 14.1383 6.10577 14.1383C6.10577 14.1383 6.10577 14.1383 6.10577 14.1383C6.10578 14.1383 6.10578 14.1383 6.10578 14.1383C6.10578 14.1383 6.10579 14.1383 6.10579 14.1383C6.10579 14.1383 6.10579 14.1383 6.1058 14.1383C6.1058 14.1383 6.1058 14.1383 6.10581 14.1383C6.10581 14.1383 6.10581 14.1383 6.10581 14.1383C6.10582 14.1383 6.10582 14.1383 6.10582 14.1383C6.10582 14.1383 6.10583 14.1383 6.10583 14.1383C6.10583 14.1383 6.10583 14.1383 6.10584 14.1383C6.10584 14.1383 6.10584 14.1383 6.10584 14.1383C6.10585 14.1383 6.10585 14.1383 6.10585 14.1383C6.10585 14.1383 6.10586 14.1383 6.10586 14.1383C6.10586 14.1383 6.10586 14.1383 6.10587 14.1383C6.10587 14.1383 6.10587 14.1383 6.10587 14.1383C6.10588 14.1383 6.10588 14.1383 6.10588 14.1383C6.10588 14.1383 6.10589 14.1383 6.10589 14.1383C6.10589 14.1383 6.10589 14.1383 6.1059 14.1383C6.1059 14.1383 6.1059 14.1383 6.1059 14.1383C6.10591 14.1383 6.10591 14.1383 6.10591 14.1383C6.10591 14.1383 6.10592 14.1383 6.10592 14.1383C6.10592 14.1383 6.10593 14.1383 6.10593 14.1383C6.10593 14.1383 6.10593 14.1383 6.10594 14.1383C6.10594 14.1383 6.10594 14.1383 6.10594 14.1383C6.10595 14.1383 6.10595 14.1383 6.10595 14.1383C6.10595 14.1383 6.10596 14.1383 6.10596 14.1383C6.10596 14.1383 6.10596 14.1383 6.10597 14.1383C6.10597 14.1383 6.10597 14.1383 6.10597 14.1383C6.10598 14.1383 6.10598 14.1383 6.10598 14.1383C6.10598 14.1383 6.10599 14.1383 6.10599 14.1383C6.10599 14.1383 6.10599 14.1383 6.106 14.1383C6.106 14.1383 6.106 14.1383 6.106 14.1383C6.10601 14.1383 6.10601 14.1383 6.10601 14.1383C6.10601 14.1383 6.10602 14.1383 6.10602 14.1383C6.10602 14.1383 6.10602 14.1383 6.10603 14.1383C6.10603 14.1383 6.10603 14.1383 6.10603 14.1383C6.10604 14.1383 6.10604 14.1383 6.10604 14.1383C6.10604 14.1383 6.10605 14.1383 6.10605 14.1383C6.10605 14.1383 6.10605 14.1383 6.10606 14.1383C6.10606 14.1383 6.10606 14.1383 6.10606 14.1383C6.10607 14.1383 6.10607 14.1383 6.10607 14.1383C6.10607 14.1383 6.10608 14.1383 6.10608 14.1383C6.10608 14.1383 6.10608 14.1383 6.10609 14.1383C6.10609 14.1383 6.10609 14.1383 6.10609 14.1383C6.1061 14.1383 6.1061 14.1383 6.1061 14.1383C6.1061 14.1383 6.10611 14.1383 6.10611 14.1383C6.10611 14.1383 6.10611 14.1383 6.10612 14.1383C6.10612 14.1383 6.10612 14.1383 6.10612 14.1383C6.10613 14.1383 6.10613 14.1383 6.10613 14.1383C6.10613 14.1383 6.10614 14.1383 6.10614 14.1383C6.10614 14.1383 6.10615 14.1383 6.10615 14.1383C6.10615 14.1383 6.10615 14.1383 6.10616 14.1383C6.10616 14.1383 6.10616 14.1383 6.10616 14.1383C6.10617 14.1383 6.10617 14.1383 6.10617 14.1383C6.10617 14.1383 6.10618 14.1383 6.10618 14.1383C6.10618 14.1383 6.10618 14.1383 6.10619 14.1383C6.10619 14.1383 6.10619 14.1383 6.10619 14.1383C6.1062 14.1383 6.1062 14.1383 6.1062 14.1383C6.1062 14.1383 6.10621 14.1383 6.10621 14.1383C6.10621 14.1383 6.10621 14.1383 6.10622 14.1383C6.10622 14.1383 6.10622 14.1383 6.10622 14.1383C6.10623 14.1383 6.10623 14.1383 6.10623 14.1383C6.10623 14.1383 6.10624 14.1383 6.10624 14.1383C6.10624 14.1383 6.10624 14.1383 6.10625 14.1383C6.10625 14.1383 6.10625 14.1383 6.10625 14.1383C6.10626 14.1383 6.10626 14.1383 6.10626 14.1383C6.10626 14.1383 6.10627 14.1383 6.10627 14.1383C6.10627 14.1383 6.10627 14.1383 6.10628 14.1383C6.10628 14.1383 6.10628 14.1383 6.10628 14.1383C6.10628 14.1383 6.10629 14.1383 6.10629 14.1383C6.10629 14.1383 6.10629 14.1383 6.1063 14.1383C6.1063 14.1383 6.1063 14.1383 6.1063 14.1383C6.10631 14.1383 6.10631 14.1383 6.10631 14.1383C6.10631 14.1383 6.10632 14.1383 6.10632 14.1383C6.10632 14.1383 6.10632 14.1383 6.10633 14.1383C6.10633 14.1383 6.10633 14.1383 6.10633 14.1383C6.10634 14.1383 6.10634 14.1383 6.10634 14.1383C6.10634 14.1383 6.10635 14.1383 6.10635 14.1383C6.10635 14.1383 6.10635 14.1383 6.10636 14.1383C6.10636 14.1383 6.10636 14.1383 6.10636 14.1383C6.10637 14.1383 6.10637 14.1383 6.10637 14.1383C6.10637 14.1383 6.10638 14.1383 6.10638 14.1383C6.10638 14.1383 6.10638 14.1383 6.10639 14.1383C6.10639 14.1383 6.10639 14.1383 6.10639 14.1383C6.1064 14.1383 6.1064 14.1383 6.1064 14.1383C6.1064 14.1383 6.10641 14.1383 6.10641 14.1383C6.10641 14.1383 6.10641 14.1383 6.10642 14.1383C6.10642 14.1383 6.10642 14.1383 6.10642 14.1383C6.10643 14.1383 6.10643 14.1383 6.10643 14.1383C6.10643 14.1383 6.10644 14.1383 6.10644 14.1383C6.10644 14.1383 6.10644 14.1383 6.10645 14.1383C6.10645 14.1383 6.10645 14.1383 6.10645 14.1383C6.10646 14.1383 6.10646 14.1383 6.10646 14.1383C6.10646 14.1383 6.10646 14.1383 6.10647 14.1383C6.10647 14.1383 6.10647 14.1383 6.10647 14.1383C6.10648 14.1383 6.10648 14.1383 6.10648 14.1383C6.10648 14.1383 6.10649 14.1383 6.10649 14.1383C6.10649 14.1383 6.10649 14.1383 6.1065 14.1383C6.1065 14.1383 6.1065 14.1383 6.1065 14.1383C6.10651 14.1383 6.10651 14.1383 6.10651 14.1383C6.10651 14.1383 6.10652 14.1383 6.10652 14.1383C6.10652 14.1383 6.10652 14.1383 6.10653 14.1383C6.10653 14.1383 6.10653 14.1383 6.10653 14.1383C6.10654 14.1383 6.10654 14.1383 6.10654 14.1383C6.10654 14.1383 6.10655 14.1383 6.10655 14.1383C6.10655 14.1383 6.10655 14.1383 6.10655 14.1383C6.10656 14.1383 6.10656 14.1383 6.10656 14.1383C6.10656 14.1383 6.10657 14.1383 6.10657 14.1383C6.10657 14.1383 6.10657 14.1383 6.10658 14.1383C6.10658 14.1383 6.10658 14.1383 6.10658 14.1383C6.10659 14.1383 6.10659 14.1383 6.10659 14.1383C6.10659 14.1383 6.1066 14.1383 6.1066 14.1383C6.1066 14.1383 6.1066 14.1383 6.10661 14.1383C6.10661 14.1383 6.10661 14.1383 6.10661 14.1383C6.10662 14.1383 6.10662 14.1383 6.10662 14.1383C6.10662 14.1383 6.10662 14.1383 6.10663 14.1383C6.10663 14.1383 6.10663 14.1383 6.10663 14.1383C6.10664 14.1383 6.10664 14.1383 6.10664 14.1383C6.10664 14.1383 6.10665 14.1383 6.10665 14.1383C6.10665 14.1383 6.10665 14.1383 6.10666 14.1383C6.10666 14.1383 6.10666 14.1383 6.10666 14.1383C6.10667 14.1383 6.10667 14.1383 6.10667 14.1383C6.10667 14.1383 6.10668 14.1383 6.10668 14.1383C6.10668 14.1383 6.10668 14.1383 6.10668 14.1383C6.10669 14.1383 6.10669 14.1383 6.10669 14.1383C6.10669 14.1383 6.1067 14.1383 6.1067 14.1383C6.1067 14.1383 6.1067 14.1383 6.10671 14.1383C6.10671 14.1383 6.10671 14.1383 6.10671 14.1383C6.10672 14.1383 6.10672 14.1383 6.10672 14.1383C6.10672 14.1383 6.10673 14.1383 6.10673 14.1383C6.10673 14.1383 6.10673 14.1383 6.10673 14.1383C6.10674 14.1383 6.10674 14.1383 6.10674 14.1383C6.10674 14.1383 6.10675 14.1383 6.10675 14.1383C6.10675 14.1383 6.10675 14.1383 6.10676 14.1383C6.10676 14.1383 6.10676 14.1383 6.10676 14.1383C6.10677 14.1383 6.10677 14.1383 6.10677 14.1383C6.10677 14.1383 6.10677 14.1383 6.10678 14.1383C6.10678 14.1383 6.10678 14.1383 6.10678 14.1383C6.10679 14.1383 6.10679 14.1383 6.10679 14.1383C6.10679 14.1383 6.1068 14.1383 6.1068 14.1383C6.1068 14.1383 6.1068 14.1383 6.10681 14.1383C6.10681 14.1383 6.10681 14.1383 6.10681 14.1383C6.10681 14.1383 6.10682 14.1383 6.10682 14.1383C6.10682 14.1383 6.10682 14.1383 6.10683 14.1383C6.10683 14.1383 6.10683 14.1383 6.10683 14.1383C6.10684 14.1383 6.10684 14.1383 6.10684 14.1383C6.10684 14.1383 6.10685 14.1383 6.10685 14.1383C6.10685 14.1383 6.10685 14.1383 6.10685 14.1383C6.10686 14.1383 6.10686 14.1383 6.10686 14.1383C6.10686 14.1383 6.10687 14.1383 6.10687 14.1383C6.10687 14.1383 6.10687 14.1383 6.10688 14.1383C6.10688 14.1383 6.10688 14.1383 6.10688 14.1383C6.10688 14.1383 6.10689 14.1383 6.10689 14.1383C6.10689 14.1383 6.10689 14.1383 6.1069 14.1383C6.1069 14.1383 6.1069 14.1383 6.1069 14.1383C6.10691 14.1383 6.10691 14.1383 6.10691 14.1383C6.10691 14.1383 6.10691 14.1383 6.10692 14.1383C6.10692 14.1383 6.10692 14.1383 6.10692 14.1383C6.10693 14.1383 6.10693 14.1383 6.10693 14.1383C6.10693 14.1383 6.10694 14.1383 6.10694 14.1383C6.10694 14.1383 6.10694 14.1383 6.10694 14.1383C6.10695 14.1383 6.10695 14.1383 6.10695 14.1383C6.10695 14.1383 6.10696 14.1383 6.10696 14.1383C6.10696 14.1383 6.10696 14.1383 6.10697 14.1383C6.10697 14.1383 6.10697 14.1383 6.10697 14.1383C6.10697 14.1383 6.10698 14.1383 6.10698 14.1383C6.10698 14.1383 6.10698 14.1383 6.10699 14.1383C6.10699 14.1383 6.10699 14.1383 6.10699 14.1383C6.107 14.1383 6.107 14.1383 6.107 14.1383C6.107 14.1383 6.107 14.1383 6.10701 14.1383C6.10701 14.1383 6.10701 14.1383 6.10701 14.1383C6.10702 14.1383 6.10702 14.1383 6.10702 14.1383C6.10702 14.1383 6.10702 14.1383 6.10703 14.1383C6.10703 14.1383 6.10703 14.1383 6.10703 14.1383C6.10704 14.1383 6.10704 14.1383 6.10704 14.1383C6.10704 14.1383 6.10705 14.1383 6.10705 14.1383C6.10705 14.1383 6.10705 14.1383 6.10705 14.1383C6.10706 14.1383 6.10706 14.1383 6.10706 14.1383C6.10706 14.1383 6.10707 14.1383 6.10707 14.1383C6.10707 14.1383 6.10707 14.1383 6.10707 14.1383C6.10708 14.1383 6.10708 14.1383 6.10708 14.1383C6.10708 14.1383 6.10709 14.1383 6.10709 14.1383C6.10709 14.1383 6.10709 14.1383 6.10709 14.1383C6.1071 14.1383 6.1071 14.1383 6.1071 14.1383C6.1071 14.1383 6.10711 14.1383 6.10711 14.1383C6.10711 14.1383 6.10711 14.1383 6.10711 14.1383C6.10712 14.1383 6.10712 14.1383 6.10712 14.1383C6.10712 14.1383 6.10713 14.1383 6.10713 14.1383C6.10713 14.1383 6.10713 14.1383 6.10713 14.1383C6.10714 14.1383 6.10714 14.1383 6.10714 14.1383C6.10714 14.1383 6.10715 14.1383 6.10715 14.1383V13.9383ZM6.04946 13.9541C6.06492 13.9442 6.07946 13.9413 6.07977 13.9412C6.08367 13.9403 6.08659 13.9399 6.08758 13.9397C6.08978 13.9394 6.09078 13.9394 6.08971 13.9395C6.08793 13.9396 6.08379 13.9398 6.07687 13.9398C6.06334 13.9399 6.04251 13.9395 6.015 13.9381C5.96013 13.9353 5.88046 13.9287 5.78194 13.9145C5.58481 13.8862 5.31383 13.8281 5.01579 13.7122C4.42054 13.4807 3.71909 13.0195 3.27773 12.1024L3.09751 12.1892C3.56588 13.1623 4.31284 13.6534 4.9433 13.8986C5.25811 14.0211 5.54431 14.0824 5.75351 14.1125C5.85816 14.1275 5.94394 14.1348 6.00491 14.1378C6.03533 14.1394 6.06002 14.1399 6.07812 14.1398C6.08702 14.1397 6.09522 14.1395 6.10213 14.1391C6.1054 14.1389 6.10983 14.1386 6.11451 14.1379C6.11674 14.1376 6.12068 14.137 6.12535 14.1359C6.12644 14.1357 6.14151 14.1326 6.15727 14.1225L6.04946 13.9541ZM3.18195 12.2456C3.55345 12.2667 4.02514 12.2451 4.40748 12.069L4.32382 11.8873C3.9864 12.0427 3.55442 12.0665 3.19329 12.046L3.18195 12.2456ZM4.40757 12.0689C4.59512 11.9823 4.70556 11.7857 4.68262 11.5807L4.48386 11.6029C4.49725 11.7226 4.43286 11.837 4.32373 11.8874L4.40757 12.0689ZM4.68262 11.5806C4.65963 11.3756 4.50738 11.2088 4.30568 11.1662L4.26441 11.3619C4.38209 11.3867 4.47053 11.484 4.48386 11.6029L4.68262 11.5806ZM4.30577 11.1662C4.20728 11.1454 2.06108 10.6642 1.76063 8.32198L1.56226 8.34743C1.8809 10.8316 4.15921 11.3396 4.26432 11.3619L4.30577 11.1662ZM1.62137 8.42633C1.96505 8.57666 2.41499 8.70442 2.86627 8.63564L2.83614 8.43793C2.43824 8.49857 2.02916 8.38641 1.70152 8.24309L1.62137 8.42633ZM2.86606 8.63567C3.05083 8.60791 3.20202 8.47528 3.25413 8.29602L3.06208 8.24019C3.03169 8.34475 2.94371 8.42176 2.83634 8.4379L2.86606 8.63567ZM3.25413 8.29602C3.30627 8.11664 3.24934 7.92337 3.10823 7.80091L2.97714 7.95196C3.0593 8.02326 3.09244 8.13575 3.06208 8.24019L3.25413 8.29602ZM3.10841 7.80107C3.06525 7.76343 2.53248 7.29064 2.13261 6.53657C1.73369 5.78427 1.47027 4.75934 1.94798 3.60443L1.76317 3.52799C1.25584 4.75449 1.53868 5.84343 1.95592 6.63026C2.37221 7.41533 2.92552 7.90695 2.97696 7.95181L3.10841 7.80107ZM1.78319 3.6352C2.32147 4.19996 3.38767 5.2162 4.80333 6.06411C6.21865 6.91182 7.98998 7.59523 9.9357 7.48357L9.92424 7.2839C8.03238 7.39247 6.30122 6.72814 4.9061 5.89253C3.51131 5.05712 2.4591 4.05448 1.92796 3.49721L1.78319 3.6352ZM9.93568 7.48357C10.0781 7.47542 10.2094 7.40361 10.2939 7.28907L10.1329 7.17036C10.0834 7.23747 10.0067 7.27918 9.92426 7.2839L9.93568 7.48357ZM10.294 7.28885C10.3783 7.17402 10.4069 7.02769 10.3725 6.88956L10.1784 6.93791C10.1985 7.01851 10.1818 7.10377 10.1328 7.17058L10.294 7.28885ZM10.3725 6.88939C10.3018 6.6078 10.2657 6.31778 10.2657 6.02784H10.0657C10.0657 6.33431 10.1038 6.64068 10.1785 6.93807L10.3725 6.88939ZM10.2657 6.02784C10.2657 4.12285 11.7906 2.57597 13.6612 2.57597V2.37597C11.6772 2.37597 10.0657 4.01541 10.0657 6.02784H10.2657ZM13.6612 2.57597C14.5765 2.57597 15.4351 2.94096 16.0791 3.60516L16.2226 3.46595C15.5414 2.76329 14.6312 2.37597 13.6612 2.37597V2.57597ZM16.079 3.60512C16.1672 3.69617 16.2881 3.74819 16.4142 3.75058L16.418 3.55061C16.3443 3.54922 16.2738 3.51874 16.2227 3.46599L16.079 3.60512ZM16.4147 3.75059C16.8251 3.75639 17.4982 3.70801 18.2584 3.40321L18.184 3.21758C17.4548 3.50993 16.8095 3.55615 16.4175 3.55061L16.4147 3.75059ZM18.1432 3.24776C17.9338 3.50848 17.6239 3.82376 17.1645 4.18463L17.2881 4.3419C17.7574 3.97316 18.0787 3.6474 18.2992 3.37303L18.1432 3.24776ZM17.1645 4.18467C16.9985 4.31523 16.9378 4.5387 17.0148 4.7353L17.201 4.66235C17.1562 4.54789 17.1915 4.41791 17.2882 4.34185L17.1645 4.18467ZM17.0147 4.73522C17.0916 4.93196 17.2902 5.05638 17.4994 5.03759L17.4815 4.83839C17.3622 4.84911 17.246 4.77751 17.201 4.66243L17.0147 4.73522ZM17.4986 5.03766C17.5886 5.03032 18.0431 4.99053 18.5576 4.87905L18.5153 4.68359C18.0133 4.79236 17.5687 4.83128 17.4823 4.83832L17.4986 5.03766ZM18.4633 4.71316C18.1875 5.0092 17.8098 5.38807 17.2922 5.86418L17.4276 6.01138C17.9484 5.53235 18.3298 5.14984 18.6096 4.84948L18.4633 4.71316Z" fill="#B1B5B9" mask="url(#path-1-outside-1)"/>
</g>
<defs>
<clipPath id="clip0">
<rect width="20" height="20" fill="white"/>
</clipPath>
</defs>
</svg>
