<svg width="81" height="37" viewBox="0 0 81 37" fill="none" xmlns="http://www.w3.org/2000/svg">
<path d="M1.25469 13.2928C0.914402 13.0335 0.606009 12.8067 0.212548 12.5043C0.744256 11.7266 1.21216 10.9272 1.7864 10.2035C4.5619 6.7362 8.16689 5.0295 12.5694 5.21313C19.1838 5.49397 24.4796 10.668 25.0963 17.365C25.5324 21.9989 24.0861 25.8984 20.5556 28.8904C13.1968 35.1122 1.80767 30.7915 0.19128 21.1996C-0.276621 18.4668 0.127476 15.8636 1.25469 13.2928ZM3.2858 12.029C3.31771 12.0938 3.34961 12.1586 3.39215 12.2342C3.56229 12.1478 3.74307 12.083 3.90258 11.975C6.23144 10.4195 8.74113 9.65261 11.5591 10.0523C15.951 10.6788 19.875 14.7834 19.4709 19.8278C19.1732 23.5652 16.6422 26.4385 13.0798 26.8597C10.2937 27.1945 7.62453 25.4987 6.88013 22.8631C6.32716 20.908 6.72064 19.0933 7.91162 17.4515C7.99673 17.3434 8.00734 17.1814 8.04989 17.041C7.90101 17.0734 7.70958 17.0626 7.59264 17.1382C6.7738 17.7323 6.13572 18.4992 5.72103 19.4389C4.54063 22.1394 5.32756 25.5635 7.62453 27.5294C9.88956 29.4845 12.495 29.9382 15.313 29.2469C20.2897 28.0155 23.5119 23.2951 23.0971 17.9159C22.5548 11.0136 16.1531 6.1853 9.50675 7.6975C6.86952 8.29158 4.78522 9.73904 3.2858 12.029ZM14.207 22.4202C14.3346 22.2366 14.4304 22.107 14.5048 21.9666C15.079 21.016 15.1428 20.0223 14.5898 19.0501C14.0369 18.0672 13.1649 17.5703 12.0377 17.6027C10.7084 17.6351 9.4642 18.5964 9.00695 19.9358C8.53903 21.3184 8.94317 22.8199 10.0384 23.7488C11.6017 25.0774 14.1113 24.7318 15.0259 23.0467C14.7813 22.8415 14.5048 22.6471 14.207 22.4202ZM2.70093 22.8091C2.76473 22.8199 2.8179 22.8415 2.88171 22.8523C2.93488 22.7119 3.00932 22.5606 3.01995 22.4202C3.08376 21.7397 3.07312 21.0484 3.1901 20.3787C3.98766 15.7016 8.46459 13.0012 12.8671 14.5134C14.3878 15.0319 15.6107 15.9932 16.6422 17.2138C16.7698 17.365 16.9719 17.4515 17.2484 17.6459C16.7698 15.0426 14.2815 12.8175 11.3996 12.2558C8.35826 11.6618 5.07234 13.0983 3.41341 15.7988C2.04161 18.0131 1.79703 20.3679 2.70093 22.8091Z" fill="#A7A5A6"/>
<path d="M56.8819 15.1185C56.7756 14.9781 56.7011 14.8701 56.616 14.7621C58.7108 12.7853 62.337 13.0014 64.0597 15.1725C65.8679 17.4625 65.4105 21.0918 63.1031 22.7121C60.2955 24.6888 56.2226 23.263 55.4675 20.0225C55.0316 18.1538 55.4569 16.5011 56.8819 15.1185ZM58.3492 16.62C58.2539 16.7388 58.1792 16.836 58.0942 16.9332C57.3179 17.9054 57.2009 19.1044 57.7753 20.1629C58.3172 21.1783 59.3811 21.6752 60.6674 21.5239C61.7415 21.3943 62.5926 20.6382 62.9006 19.4932C63.2411 18.197 63.0603 16.9872 62.0393 16.0799C61.0718 15.2265 59.9338 15.2373 58.7958 15.7558C58.5409 15.8747 58.3281 16.0691 58.0834 16.2419C58.19 16.3931 58.2539 16.4904 58.3492 16.62Z" fill="#A7A5A6"/>
<path d="M37.4639 13.4877C38.9633 13.5742 40.4733 13.5201 41.9408 13.7901C43.4296 14.0602 44.0783 15.4212 43.5572 16.847C43.3871 17.3007 42.9936 17.6788 42.6746 18.1108C42.664 18.1 42.7384 18.1756 42.8234 18.2189C43.7806 18.7049 44.2165 19.515 44.174 20.5844C44.1315 21.7078 43.6104 22.5827 42.5895 22.9932C41.9621 23.2524 41.2603 23.3389 40.5797 23.382C39.5588 23.4468 38.5273 23.4037 37.4639 23.4037C37.4639 20.1307 37.4639 16.8902 37.4639 13.4877ZM39.5481 21.5026C40.1012 21.5026 40.6222 21.5457 41.1433 21.4917C41.7069 21.4269 42.0791 20.9409 42.1003 20.3792C42.1216 19.7851 41.8238 19.2558 41.3347 19.1694C40.7605 19.0722 40.1543 19.0722 39.5481 19.029C39.5481 19.9039 39.5481 20.6816 39.5481 21.5026ZM39.5588 15.4752C39.5588 16.199 39.5588 16.847 39.5588 17.5275C40.0054 17.5275 40.4095 17.5492 40.8136 17.5167C41.3666 17.4735 41.6962 17.0739 41.6962 16.5122C41.6962 15.9289 41.3985 15.54 40.8349 15.486C40.4201 15.4428 40.0054 15.4752 39.5588 15.4752Z" fill="#A7A5A6"/>
<path d="M28.4036 13.5204C29.0841 13.5204 29.7115 13.5204 30.4134 13.5204C30.424 13.7257 30.4453 13.9093 30.4453 14.0929C30.4453 15.6592 30.4453 17.2254 30.4453 18.7917C30.4453 19.0617 30.4559 19.3317 30.4772 19.6018C30.5729 20.8116 31.2748 21.5029 32.3807 21.4813C33.4866 21.4597 34.1992 20.7576 34.2204 19.5478C34.2629 17.7655 34.2417 15.9832 34.2417 14.2009C34.2417 13.9849 34.2417 13.7797 34.2417 13.5312C34.9648 13.5312 35.6241 13.5312 36.3473 13.5312C36.3473 14.0281 36.3473 14.5142 36.3473 14.9894C36.3473 16.4261 36.3579 17.8735 36.3473 19.3101C36.3153 22.6911 33.2314 24.5705 30.2645 23.0043C29.1267 22.3994 28.4886 21.3733 28.4248 20.1527C28.3291 17.9707 28.4036 15.778 28.4036 13.5204Z" fill="#A7A5A6"/>
<path d="M49.5125 20.1841C49.906 20.9186 50.3845 21.4695 51.214 21.5668C51.8733 21.6423 52.3837 21.4047 52.5645 20.8863C52.7453 20.3894 52.5219 19.9141 51.9052 19.5792C51.5117 19.374 51.097 19.2228 50.6929 19.0392C50.3101 18.8555 49.9166 18.6935 49.5551 18.4775C48.5661 17.8834 48.1514 16.9761 48.2896 15.831C48.4172 14.7617 49.0553 14.0704 50.0017 13.6707C51.4798 13.0442 53.4258 13.5087 54.266 14.6645C54.383 14.8265 54.468 14.9993 54.5956 15.1938C54.032 15.5934 53.5003 15.9607 52.9473 16.3604C52.5645 15.6798 52.0966 15.1938 51.299 15.2478C50.8312 15.2802 50.4058 15.399 50.2675 15.9283C50.1293 16.4467 50.4696 16.76 50.8524 16.9544C51.3416 17.2137 51.852 17.3973 52.3625 17.6133C52.5858 17.7106 52.8304 17.7969 53.043 17.905C54.2978 18.5207 54.8189 19.3956 54.7126 20.681C54.5956 22.042 53.8406 23.0574 52.5751 23.3922C51.0651 23.7919 49.6508 23.6083 48.5023 22.4201C48.3321 22.2472 48.2151 22.0096 48.0769 21.8044C47.9068 21.556 47.9281 21.3615 48.1939 21.1671C48.6086 20.8863 49.034 20.5514 49.5125 20.1841Z" fill="#A7A5A6"/>
<path d="M68.133 19.4716C68.133 20.8218 68.133 22.0748 68.133 23.3602C67.4206 23.3602 66.7612 23.3602 66.0698 23.3602C66.0698 20.0981 66.0698 16.8684 66.0698 13.6063C68.25 13.6063 70.4085 13.6063 72.5989 13.6063C72.5989 14.2436 72.5989 14.8809 72.5989 15.5722C71.1209 15.5722 69.6641 15.5722 68.1753 15.5722C68.1753 16.3391 68.1753 17.052 68.1753 17.8406C69.5043 17.8406 70.834 17.8406 72.195 17.8406C72.195 18.413 72.195 18.9099 72.195 19.4608C70.8659 19.4716 69.5471 19.4716 68.133 19.4716Z" fill="#A7A5A6"/>
<path d="M76.2146 15.6046C75.2785 15.6046 74.4172 15.6046 73.5239 15.6046C73.5239 14.9241 73.5239 14.2868 73.5239 13.6063C76.0127 13.6063 78.49 13.6063 80.9999 13.6063C80.9999 14.2652 80.9999 14.8917 80.9999 15.5614C80.1174 15.5614 79.2561 15.5614 78.3092 15.5614C78.3092 18.1862 78.3092 20.757 78.3092 23.371C77.5756 23.371 76.9379 23.371 76.2146 23.371C76.2146 20.7786 76.2146 18.2186 76.2146 15.6046Z" fill="#A7A5A6"/>
<path d="M47.0663 23.4031C46.4602 23.4031 45.8754 23.4031 45.3011 23.4031C44.9289 23.4031 45.0034 23.1114 45.0034 22.8954C45.0034 21.2751 45.0034 19.6549 45.0034 18.0346C45.0034 16.7168 45.014 15.4098 44.9928 14.092C44.9821 13.6816 45.1204 13.5519 45.5138 13.5735C46.0242 13.6059 46.5347 13.5843 47.0663 13.5843C47.0663 16.8788 47.0663 20.1086 47.0663 23.4031Z" fill="#A7A5A6"/>
</svg>
