<svg width="16" height="16" viewBox="0 0 16 16" fill="none" xmlns="http://www.w3.org/2000/svg">
<path d="M5.70169 4.85878L7.24979 3.31068V11.5C7.24979 11.6989 7.3288 11.8897 7.46945 12.0304C7.61011 12.171 7.80087 12.25 7.99978 12.25C8.1987 12.25 8.38946 12.171 8.53011 12.0304C8.67077 11.8897 8.74978 11.6989 8.74978 11.5V3.31068L10.2979 4.85878C10.3675 4.92873 10.4501 4.98427 10.5412 5.02221C10.6323 5.06016 10.73 5.07976 10.8286 5.07989C10.9273 5.08003 11.025 5.06069 11.1162 5.023C11.2074 4.9853 11.2902 4.92999 11.36 4.86022C11.4297 4.79046 11.4851 4.70761 11.5228 4.61643C11.5604 4.52525 11.5798 4.42753 11.5796 4.32887C11.5795 4.23021 11.5599 4.13254 11.522 4.04147C11.484 3.95039 11.4285 3.8677 11.3585 3.79812L8.53013 0.969684C8.46048 0.900036 8.3778 0.844787 8.28681 0.807094C8.19581 0.769401 8.09828 0.75 7.99978 0.75C7.90129 0.75 7.80376 0.769401 7.71276 0.807094C7.62177 0.844787 7.53909 0.900036 7.46944 0.969684L4.64104 3.79812C4.57108 3.8677 4.51554 3.95039 4.4776 4.04147C4.43966 4.13254 4.42006 4.23021 4.41992 4.32887C4.41979 4.42753 4.43912 4.52525 4.47682 4.61643C4.51451 4.70761 4.56983 4.79046 4.63959 4.86022C4.70936 4.92999 4.7922 4.9853 4.88338 5.023C4.97456 5.06069 5.07228 5.08003 5.17094 5.07989C5.2696 5.07976 5.36727 5.06016 5.45835 5.02221C5.54942 4.98427 5.63212 4.92873 5.70169 4.85878Z" fill="white"/>
<path d="M14.5 7.25C14.3011 7.25 14.1103 7.32902 13.9697 7.46967C13.829 7.61032 13.75 7.80109 13.75 8V13.75H2.25V8C2.25 7.80109 2.17098 7.61032 2.03033 7.46967C1.88968 7.32902 1.69891 7.25 1.5 7.25C1.30109 7.25 1.11032 7.32902 0.96967 7.46967C0.829018 7.61032 0.75 7.80109 0.75 8V14C0.75 14.3315 0.881696 14.6495 1.11612 14.8839C1.35054 15.1183 1.66848 15.25 2 15.25H14C14.3315 15.25 14.6495 15.1183 14.8839 14.8839C15.1183 14.6495 15.25 14.3315 15.25 14V8C15.25 7.80109 15.171 7.61032 15.0303 7.46967C14.8897 7.32902 14.6989 7.25 14.5 7.25Z" fill="white"/>
</svg>
