<svg width="18" height="17" viewBox="0 0 18 17" fill="none" xmlns="http://www.w3.org/2000/svg">
<path d="M16.03 9.72295C15.639 9.72295 15.3217 10.0403 15.3217 10.4312V15.2836H2.15484V2.11675H7.00725C7.39893 2.11675 7.71553 1.79944 7.71553 1.40847C7.71553 1.0175 7.39893 0.700195 7.00725 0.700195H1.44656C1.05488 0.700195 0.738281 1.0175 0.738281 1.40847V15.9919C0.738281 16.3829 1.05488 16.7002 1.44656 16.7002H16.03C16.4217 16.7002 16.7383 16.3829 16.7383 15.9919V10.4312C16.7383 10.0403 16.4217 9.72295 16.03 9.72295Z" fill="#B1B5B9"/>
<path d="M16.4922 0.700195H10.4166C9.96328 0.700195 9.59688 1.05926 9.59688 1.50168C9.59688 1.9441 9.96328 2.30316 10.4166 2.30316H14.5134L8.05092 8.62206C7.73042 8.93544 7.73042 9.44198 8.05092 9.75536C8.21077 9.91165 8.42061 9.9902 8.63045 9.9902C8.84029 9.9902 9.05014 9.91165 9.20998 9.75536L15.6725 3.43646V7.44388C15.6725 7.8863 16.0397 8.24536 16.4922 8.24536C16.9455 8.24536 17.3119 7.8863 17.3119 7.44388V1.50168C17.3119 1.05846 16.9455 0.700195 16.4922 0.700195Z" fill="#B1B5B9"/>
</svg>
