<svg width="32" height="32" viewBox="0 0 32 32" fill="none" xmlns="http://www.w3.org/2000/svg">
<path d="M16.004 0H15.996C7.174 0 0 7.176 0 16C0 19.5 1.128 22.744 3.046 25.378L1.052 31.322L7.202 29.356C9.732 31.032 12.75 32 16.004 32C24.826 32 32 24.822 32 16C32 7.178 24.826 0 16.004 0Z" fill="#4CAF50"/>
<path d="M25.3141 22.5939C24.9281 23.6839 23.3961 24.5879 22.1741 24.8519C21.3381 25.0299 20.2461 25.1719 16.5701 23.6479C11.8681 21.6999 8.8401 16.9219 8.6041 16.6119C8.3781 16.3019 6.7041 14.0819 6.7041 11.7859C6.7041 9.48987 7.8701 8.37187 8.3401 7.89187C8.7261 7.49787 9.3641 7.31787 9.9761 7.31787C10.1741 7.31787 10.3521 7.32787 10.5121 7.33587C10.9821 7.35587 11.2181 7.38387 11.5281 8.12587C11.9141 9.05587 12.8541 11.3519 12.9661 11.5879C13.0801 11.8239 13.1941 12.1439 13.0341 12.4539C12.8841 12.7739 12.7521 12.9159 12.5161 13.1879C12.2801 13.4599 12.0561 13.6679 11.8201 13.9599C11.6041 14.2139 11.3601 14.4859 11.6321 14.9559C11.9041 15.4159 12.8441 16.9499 14.2281 18.1819C16.0141 19.7719 17.4621 20.2799 17.9801 20.4959C18.3661 20.6559 18.8261 20.6179 19.1081 20.3179C19.4661 19.9319 19.9081 19.2919 20.3581 18.6619C20.6781 18.2099 21.0821 18.1539 21.5061 18.3139C21.9381 18.4639 24.2241 19.5939 24.6941 19.8279C25.1641 20.0639 25.4741 20.1759 25.5881 20.3739C25.7001 20.5719 25.7001 21.5019 25.3141 22.5939Z" fill="#FAFAFA"/>
</svg>
