<svg width="28" height="28" viewBox="0 0 28 28" fill="none" xmlns="http://www.w3.org/2000/svg">
<path d="M27.1797 0H0.820312C0.367281 0 0 0.367281 0 0.820312V27.1797C0 27.6327 0.367281 28 0.820312 28H27.1797C27.6327 28 28 27.6327 28 27.1797V0.820312C28 0.367281 27.6327 0 27.1797 0ZM26.3594 1.64062V6.5625H1.64062V1.64062H26.3594ZM1.64062 26.3594V8.20312H26.3594V26.3594H1.64062Z" fill="black"/>
<path d="M23.8984 4.92188C24.3515 4.92188 24.7188 4.55461 24.7188 4.10156C24.7188 3.64852 24.3515 3.28125 23.8984 3.28125C23.4454 3.28125 23.0781 3.64852 23.0781 4.10156C23.0781 4.55461 23.4454 4.92188 23.8984 4.92188Z" fill="black"/>
<path d="M20.6172 4.92188C21.0702 4.92188 21.4375 4.55461 21.4375 4.10156C21.4375 3.64852 21.0702 3.28125 20.6172 3.28125C20.1641 3.28125 19.7969 3.64852 19.7969 4.10156C19.7969 4.55461 20.1641 4.92188 20.6172 4.92188Z" fill="black"/>
<path d="M17.3359 4.92188C17.789 4.92188 18.1562 4.55461 18.1562 4.10156C18.1562 3.64852 17.789 3.28125 17.3359 3.28125C16.8829 3.28125 16.5156 3.64852 16.5156 4.10156C16.5156 4.55461 16.8829 4.92188 17.3359 4.92188Z" fill="black"/>
<path d="M22.2031 19.7422H21.3828V17.2812C21.3828 16.8282 21.0155 16.4609 20.5625 16.4609H14.8203V14.8203H17.2812C17.7343 14.8203 18.1016 14.453 18.1016 14V10.7188C18.1016 10.2657 17.7343 9.89844 17.2812 9.89844H10.7188C10.2657 9.89844 9.89844 10.2657 9.89844 10.7188V14C9.89844 14.453 10.2657 14.8203 10.7188 14.8203H13.1797V16.4609H7.4375C6.98447 16.4609 6.61719 16.8282 6.61719 17.2812V19.7422H5.79688C5.34384 19.7422 4.97656 20.1095 4.97656 20.5625V23.8438C4.97656 24.2968 5.34384 24.6641 5.79688 24.6641H9.07812C9.53116 24.6641 9.89844 24.2968 9.89844 23.8438V20.5625C9.89844 20.1095 9.53116 19.7422 9.07812 19.7422H8.25781V18.1016H13.1797V19.7422H12.3594C11.9063 19.7422 11.5391 20.1095 11.5391 20.5625V23.8438C11.5391 24.2968 11.9063 24.6641 12.3594 24.6641H15.6406C16.0937 24.6641 16.4609 24.2968 16.4609 23.8438V20.5625C16.4609 20.1095 16.0937 19.7422 15.6406 19.7422H14.8203V18.1016H19.7422V19.7422H18.9219C18.4688 19.7422 18.1016 20.1095 18.1016 20.5625V23.8438C18.1016 24.2968 18.4688 24.6641 18.9219 24.6641H22.2031C22.6562 24.6641 23.0234 24.2968 23.0234 23.8438V20.5625C23.0234 20.1095 22.6562 19.7422 22.2031 19.7422ZM11.5391 11.5391H16.4609V13.1797H11.5391V11.5391ZM8.25781 23.0234H6.61719V21.3828H8.25781V23.0234ZM14.8203 23.0234H13.1797V21.3828H14.8203V23.0234ZM21.3828 23.0234H19.7422V21.3828H21.3828V23.0234Z" fill="#38369A"/>
</svg>
