<svg width="28" height="28" viewBox="0 0 28 28" fill="none" xmlns="http://www.w3.org/2000/svg">
<g clip-path="url(#clip0)">
<path d="M24.8642 0H3.13577C1.40671 0 0 1.40671 0 3.13577V24.8642C0 26.5933 1.40671 28 3.13577 28H24.8642C26.5933 28 28 26.5933 28 24.8642V3.13577C28 1.40671 26.5933 0 24.8642 0V0ZM26.3594 3.13577V3.84671H6.98035V1.64062H24.8642C25.6886 1.64062 26.3594 2.3114 26.3594 3.13577ZM3.13577 1.64062H5.33972V3.84671H1.64062V3.13577C1.64062 2.3114 2.3114 1.64062 3.13577 1.64062ZM24.8642 26.3594H3.13577C2.3114 26.3594 1.64062 25.6886 1.64062 24.8642V5.48734H26.3594V24.8642C26.3594 25.6886 25.6886 26.3594 24.8642 26.3594Z" fill="black"/>
<path d="M21.6708 14.7251H21.3523C20.9727 11.2997 18.2452 8.57214 14.8199 8.19275V7.87402C14.8199 7.42093 14.4525 7.05371 13.9996 7.05371C13.5465 7.05371 13.1793 7.42093 13.1793 7.87402V8.19275C9.75409 8.57214 7.02655 11.2997 6.64694 14.7251H6.32822C5.87512 14.7251 5.5079 15.0923 5.5079 15.5454C5.5079 15.9983 5.87512 16.3658 6.32822 16.3658H6.64694C7.02634 19.791 9.75409 22.5185 13.1793 22.8979V23.2166C13.1793 23.6697 13.5465 24.037 13.9996 24.037C14.4525 24.037 14.8199 23.6697 14.8199 23.2166V22.8979C18.2452 22.5185 20.9727 19.791 21.3523 16.3658H21.6708C22.1239 16.3658 22.4912 15.9983 22.4912 15.5454C22.4912 15.0923 22.1239 14.7251 21.6708 14.7251ZM19.6987 14.7251H17.1863C16.8885 13.5688 15.9763 12.6566 14.8199 12.3586V9.8464C17.3394 10.2074 19.3376 12.2057 19.6987 14.7251ZM13.9996 17.1948C13.09 17.1948 12.35 16.4548 12.35 15.5454C12.35 14.6358 13.09 13.8958 13.9996 13.8958C14.9092 13.8958 15.649 14.6358 15.649 15.5454C15.649 16.4548 14.9092 17.1948 13.9996 17.1948ZM13.1793 9.8464V12.3586C12.023 12.6564 11.1108 13.5688 10.813 14.7249H8.3006C8.66162 12.2057 10.6599 10.2074 13.1793 9.8464ZM8.3006 16.3658H10.813C11.1108 17.5219 12.023 18.434 13.1793 18.7318V21.2443C10.6599 20.8832 8.66162 18.885 8.3006 16.3658ZM14.8199 21.2443V18.7318C15.9763 18.434 16.8885 17.5219 17.1863 16.3658H19.6987C19.3376 18.885 17.3394 20.8832 14.8199 21.2443Z" fill="#38369A"/>
</g>
<defs>
<clipPath id="clip0">
<rect width="28" height="28" fill="white"/>
</clipPath>
</defs>
</svg>
