<svg width="17" height="16" viewBox="0 0 17 16" fill="none" xmlns="http://www.w3.org/2000/svg">
<path d="M15.4818 13.2538L15.4818 13.2538C16.0529 13.8248 16.053 14.7506 15.4819 15.3217C14.9108 15.8928 13.9848 15.8927 13.414 15.3217L13.414 15.3217L8.33693 10.2447L8.16016 10.0679L7.98338 10.2447L2.90633 15.3217L2.90631 15.3217C2.33548 15.8926 1.40966 15.8929 0.838416 15.3217C0.267368 14.7507 0.267405 13.8249 0.838514 13.2538L5.91548 8.17679L6.09226 8.00002L5.91548 7.82324L0.838514 2.74623L0.838502 2.74622C0.267436 2.17523 0.267419 1.2494 0.838439 0.678305C1.40944 0.107225 2.3354 0.107242 2.9063 0.678294L2.90633 0.678318L7.98338 5.75532L8.16016 5.9321L8.33693 5.75532L13.414 0.678318L13.414 0.678305C13.9849 0.107322 14.9107 0.10722 15.4819 0.678328C16.0529 1.24941 16.0528 2.17523 15.4818 2.74623L10.4048 7.82324L10.2281 8.00002L10.4048 8.17679L15.4818 13.2538Z" fill="#0A0A0A" stroke="white" stroke-width="0.5"/>
</svg>
